%TF.GenerationSoftware,KiCad,Pcbnew,(6.0.10)*%
%TF.CreationDate,2023-08-27T19:01:04-04:00*%
%TF.ProjectId,split-plate,73706c69-742d-4706-9c61-74652e6b6963,rev?*%
%TF.SameCoordinates,Original*%
%TF.FileFunction,Drillmap*%
%TF.FilePolarity,Positive*%
%FSLAX45Y45*%
G04 Gerber Fmt 4.5, Leading zero omitted, Abs format (unit mm)*
G04 Created by KiCad (PCBNEW (6.0.10)) date 2023-08-27 19:01:04*
%MOMM*%
%LPD*%
G01*
G04 APERTURE LIST*
%ADD10C,0.100000*%
%ADD11C,0.150000*%
%ADD12C,0.200000*%
%ADD13C,0.040000*%
G04 APERTURE END LIST*
D10*
X21669393Y-10965702D02*
X21669393Y-14347043D01*
X10239384Y-14525637D02*
X21490799Y-14525637D01*
D11*
X21014635Y-10965702D02*
X21014635Y-10465638D01*
X19514420Y-10465638D02*
X18109482Y-10465638D01*
X20014520Y-12870684D02*
X21419457Y-12870684D01*
X11894364Y-10965732D02*
X11894364Y-12370669D01*
X21419434Y-8560624D02*
X20014496Y-8560624D01*
X17609406Y-7155698D02*
X17609406Y-8560636D01*
X17609406Y-10965714D02*
X17609406Y-12370652D01*
X11894364Y-10465661D02*
X10489427Y-10465661D01*
X21419434Y-12370640D02*
X20014496Y-12370640D01*
X10489450Y-14275651D02*
X10489450Y-12870713D01*
X13096972Y-12739702D02*
X13573223Y-12739702D01*
X20014496Y-5250678D02*
X21419434Y-5250678D01*
X15704392Y-8560642D02*
X14299454Y-8560642D01*
X19514420Y-9060700D02*
X19514420Y-10465638D01*
X18109482Y-12370646D02*
X18109482Y-10965708D01*
X20014496Y-6655616D02*
X20014496Y-5250678D01*
X15704416Y-14275639D02*
X14299478Y-14275639D01*
X14299478Y-12870701D02*
X15704416Y-12870701D01*
X14299454Y-6655633D02*
X14299454Y-5250696D01*
X18109482Y-5250684D02*
X19514420Y-5250684D01*
D10*
X21669393Y-5179223D02*
X21669393Y-10465632D01*
D11*
X17609430Y-12870696D02*
X17609430Y-14275633D01*
X20014496Y-7155686D02*
X21419434Y-7155686D01*
X21419457Y-12870684D02*
X21419457Y-14275621D01*
X13799378Y-5250702D02*
X13799378Y-6655639D01*
X15704392Y-9060712D02*
X15704392Y-10465650D01*
X11894364Y-9060724D02*
X11894364Y-10465661D01*
X11894364Y-8560653D02*
X10489427Y-8560653D01*
X15704392Y-5250696D02*
X15704392Y-6655633D01*
X13799378Y-6655639D02*
X12394441Y-6655639D01*
X19514443Y-14275627D02*
X18109506Y-14275627D01*
X11894364Y-5250708D02*
X11894364Y-6655645D01*
X10489427Y-8560653D02*
X10489427Y-7155716D01*
X13799378Y-10965726D02*
X13799378Y-12370663D01*
X20014496Y-9060694D02*
X21419434Y-9060694D01*
X17609406Y-6655628D02*
X16204468Y-6655628D01*
X13799402Y-14275645D02*
X10489450Y-14275651D01*
X10715721Y-12870710D02*
X10489453Y-12870710D01*
X16204468Y-7155698D02*
X17609406Y-7155698D01*
X11191922Y-12870710D02*
X13096930Y-12870713D01*
D10*
X21490799Y-5000629D02*
X10239384Y-5000629D01*
D11*
X20014496Y-12370640D02*
X20014496Y-10965702D01*
X14299478Y-14275639D02*
X14299478Y-12870701D01*
X18109506Y-12870690D02*
X19514443Y-12870690D01*
X18109482Y-7155692D02*
X19514420Y-7155692D01*
X15704392Y-7155704D02*
X15704392Y-8560642D01*
X16204468Y-10965714D02*
X17609406Y-10965714D01*
X10489427Y-10465661D02*
X10489427Y-9060724D01*
X13096930Y-12870713D02*
X13096972Y-12739702D01*
X12394441Y-8560647D02*
X12394441Y-7155710D01*
X12394441Y-10965726D02*
X13799378Y-10965726D01*
X15704392Y-12370657D02*
X14299454Y-12370657D01*
X19514443Y-12870690D02*
X19514443Y-14275627D01*
X19514420Y-12370646D02*
X18109482Y-12370646D01*
X10489427Y-9060724D02*
X11894364Y-9060724D01*
X17609406Y-9060706D02*
X17609406Y-10465644D01*
X10715721Y-12870710D02*
X10715721Y-12739702D01*
X17609430Y-14275633D02*
X16204492Y-14275633D01*
X16204468Y-5250690D02*
X17609406Y-5250690D01*
X13573223Y-12870710D02*
X13799402Y-12870707D01*
X14299454Y-10465650D02*
X14299454Y-9060712D01*
X18109482Y-10965708D02*
X19514420Y-10965708D01*
X19514420Y-5250684D02*
X19514420Y-6655622D01*
X13799378Y-7155710D02*
X13799378Y-8560647D01*
X10489427Y-5250708D02*
X11894364Y-5250708D01*
X10489427Y-6655645D02*
X10489427Y-5250708D01*
X16204492Y-14275633D02*
X16204492Y-12870696D01*
D10*
X21419434Y-10465632D02*
X21669393Y-10465632D01*
D11*
X11894364Y-7155716D02*
X11894364Y-8560653D01*
X17609406Y-12370652D02*
X16204468Y-12370652D01*
X18109482Y-6655622D02*
X18109482Y-5250684D01*
X13573223Y-12739702D02*
X13573223Y-12870710D01*
X18109482Y-10465638D02*
X18109482Y-9060700D01*
X15704392Y-10965720D02*
X15704392Y-12370657D01*
X12394441Y-10465655D02*
X12394441Y-9060718D01*
X12394441Y-5250702D02*
X13799378Y-5250702D01*
X16204468Y-12370652D02*
X16204468Y-10965714D01*
D10*
X21419434Y-10965702D02*
X21669393Y-10965702D01*
D11*
X21014635Y-10465638D02*
X20014496Y-10465632D01*
X15704416Y-12870701D02*
X15704416Y-14275639D01*
X10715721Y-12739702D02*
X11191971Y-12739702D01*
X14299454Y-12370657D02*
X14299454Y-10965720D01*
X14299454Y-7155704D02*
X15704392Y-7155704D01*
X18109506Y-14275627D02*
X18109506Y-12870690D01*
D10*
X21669391Y-5179223D02*
G75*
G03*
X21490799Y-5000629I-178591J3D01*
G01*
D11*
X11191971Y-12739702D02*
X11191922Y-12870710D01*
X13799378Y-8560647D02*
X12394441Y-8560647D01*
X20014520Y-14275621D02*
X20014520Y-12870684D01*
X10489427Y-12370669D02*
X10489427Y-10965732D01*
D10*
X21490799Y-14525633D02*
G75*
G03*
X21669393Y-14347043I1J178593D01*
G01*
D11*
X17609406Y-10465644D02*
X16204468Y-10465644D01*
D10*
X10239384Y-5000629D02*
X10239384Y-14525637D01*
D11*
X19514420Y-10965708D02*
X19514420Y-12370646D01*
X21419434Y-10965702D02*
X21419434Y-12370640D01*
X20014496Y-10965702D02*
X21014635Y-10965702D01*
X16204468Y-8560636D02*
X16204468Y-7155698D01*
X21419457Y-14275621D02*
X20014520Y-14275621D01*
X21419434Y-7155686D02*
X21419434Y-8560624D01*
X14299454Y-5250696D02*
X15704392Y-5250696D01*
X14299454Y-9060712D02*
X15704392Y-9060712D01*
X16204492Y-12870696D02*
X17609430Y-12870696D01*
X20014496Y-8560624D02*
X20014496Y-7155686D01*
X17609406Y-8560636D02*
X16204468Y-8560636D01*
X21419434Y-6655616D02*
X20014496Y-6655616D01*
X13799378Y-12370663D02*
X12394441Y-12370663D01*
X20014496Y-10465632D02*
X20014496Y-9060694D01*
X13799378Y-10465655D02*
X12394441Y-10465655D01*
X15704392Y-6655633D02*
X14299454Y-6655633D01*
X18109482Y-9060700D02*
X19514420Y-9060700D01*
X12394441Y-7155710D02*
X13799378Y-7155710D01*
X10489427Y-10965732D02*
X11894364Y-10965732D01*
X21419434Y-5250678D02*
X21419434Y-6655616D01*
X14299454Y-10965720D02*
X15704392Y-10965720D01*
X19514420Y-6655622D02*
X18109482Y-6655622D01*
X11894364Y-12370669D02*
X10489427Y-12370669D01*
X11894364Y-6655645D02*
X10489427Y-6655645D01*
X14299454Y-8560642D02*
X14299454Y-7155704D01*
X12394441Y-6655639D02*
X12394441Y-5250702D01*
X17609406Y-5250690D02*
X17609406Y-6655628D01*
X18109482Y-8560630D02*
X18109482Y-7155692D01*
X10489427Y-7155716D02*
X11894364Y-7155716D01*
X16204468Y-6655628D02*
X16204468Y-5250690D01*
X19514420Y-8560630D02*
X18109482Y-8560630D01*
X16204468Y-9060706D02*
X17609406Y-9060706D01*
X13799378Y-9060718D02*
X13799378Y-10465655D01*
X16204468Y-10465644D02*
X16204468Y-9060706D01*
X13799402Y-12870707D02*
X13799402Y-14275645D01*
X12394441Y-12370663D02*
X12394441Y-10965726D01*
X15704392Y-10465650D02*
X14299454Y-10465650D01*
X12394441Y-9060718D02*
X13799378Y-9060718D01*
X21419434Y-9060694D02*
X21419434Y-10465632D01*
X19514420Y-7155692D02*
X19514420Y-8560630D01*
D12*
D13*
X12130000Y-6890000D02*
X12170000Y-6930000D01*
X12170000Y-6890000D02*
X12130000Y-6930000D01*
D12*
X10492003Y-14841113D02*
X10492003Y-14641113D01*
X10539622Y-14641113D01*
X10568193Y-14650637D01*
X10587241Y-14669685D01*
X10596765Y-14688732D01*
X10606288Y-14726828D01*
X10606288Y-14755399D01*
X10596765Y-14793494D01*
X10587241Y-14812542D01*
X10568193Y-14831589D01*
X10539622Y-14841113D01*
X10492003Y-14841113D01*
X10692003Y-14841113D02*
X10692003Y-14707780D01*
X10692003Y-14745875D02*
X10701526Y-14726828D01*
X10711050Y-14717304D01*
X10730098Y-14707780D01*
X10749146Y-14707780D01*
X10815812Y-14841113D02*
X10815812Y-14707780D01*
X10815812Y-14641113D02*
X10806288Y-14650637D01*
X10815812Y-14660161D01*
X10825336Y-14650637D01*
X10815812Y-14641113D01*
X10815812Y-14660161D01*
X10939622Y-14841113D02*
X10920574Y-14831589D01*
X10911050Y-14812542D01*
X10911050Y-14641113D01*
X11044384Y-14841113D02*
X11025336Y-14831589D01*
X11015812Y-14812542D01*
X11015812Y-14641113D01*
X11272955Y-14841113D02*
X11272955Y-14641113D01*
X11339622Y-14783970D01*
X11406288Y-14641113D01*
X11406288Y-14841113D01*
X11587241Y-14841113D02*
X11587241Y-14736351D01*
X11577717Y-14717304D01*
X11558669Y-14707780D01*
X11520574Y-14707780D01*
X11501526Y-14717304D01*
X11587241Y-14831589D02*
X11568193Y-14841113D01*
X11520574Y-14841113D01*
X11501526Y-14831589D01*
X11492003Y-14812542D01*
X11492003Y-14793494D01*
X11501526Y-14774447D01*
X11520574Y-14764923D01*
X11568193Y-14764923D01*
X11587241Y-14755399D01*
X11682479Y-14707780D02*
X11682479Y-14907780D01*
X11682479Y-14717304D02*
X11701526Y-14707780D01*
X11739622Y-14707780D01*
X11758669Y-14717304D01*
X11768193Y-14726828D01*
X11777717Y-14745875D01*
X11777717Y-14803018D01*
X11768193Y-14822066D01*
X11758669Y-14831589D01*
X11739622Y-14841113D01*
X11701526Y-14841113D01*
X11682479Y-14831589D01*
X11863431Y-14822066D02*
X11872955Y-14831589D01*
X11863431Y-14841113D01*
X11853907Y-14831589D01*
X11863431Y-14822066D01*
X11863431Y-14841113D01*
X11863431Y-14717304D02*
X11872955Y-14726828D01*
X11863431Y-14736351D01*
X11853907Y-14726828D01*
X11863431Y-14717304D01*
X11863431Y-14736351D01*
D13*
X10194384Y-15150637D02*
X10234384Y-15190637D01*
X10234384Y-15150637D02*
X10194384Y-15190637D01*
D12*
X10530098Y-15061113D02*
X10549146Y-15061113D01*
X10568193Y-15070637D01*
X10577717Y-15080161D01*
X10587241Y-15099209D01*
X10596765Y-15137304D01*
X10596765Y-15184923D01*
X10587241Y-15223018D01*
X10577717Y-15242066D01*
X10568193Y-15251589D01*
X10549146Y-15261113D01*
X10530098Y-15261113D01*
X10511050Y-15251589D01*
X10501526Y-15242066D01*
X10492003Y-15223018D01*
X10482479Y-15184923D01*
X10482479Y-15137304D01*
X10492003Y-15099209D01*
X10501526Y-15080161D01*
X10511050Y-15070637D01*
X10530098Y-15061113D01*
X10682479Y-15242066D02*
X10692003Y-15251589D01*
X10682479Y-15261113D01*
X10672955Y-15251589D01*
X10682479Y-15242066D01*
X10682479Y-15261113D01*
X10863431Y-15127780D02*
X10863431Y-15261113D01*
X10815812Y-15051589D02*
X10768193Y-15194447D01*
X10892003Y-15194447D01*
X11006288Y-15061113D02*
X11025336Y-15061113D01*
X11044384Y-15070637D01*
X11053907Y-15080161D01*
X11063431Y-15099209D01*
X11072955Y-15137304D01*
X11072955Y-15184923D01*
X11063431Y-15223018D01*
X11053907Y-15242066D01*
X11044384Y-15251589D01*
X11025336Y-15261113D01*
X11006288Y-15261113D01*
X10987241Y-15251589D01*
X10977717Y-15242066D01*
X10968193Y-15223018D01*
X10958669Y-15184923D01*
X10958669Y-15137304D01*
X10968193Y-15099209D01*
X10977717Y-15080161D01*
X10987241Y-15070637D01*
X11006288Y-15061113D01*
X11196764Y-15061113D02*
X11215812Y-15061113D01*
X11234860Y-15070637D01*
X11244384Y-15080161D01*
X11253907Y-15099209D01*
X11263431Y-15137304D01*
X11263431Y-15184923D01*
X11253907Y-15223018D01*
X11244384Y-15242066D01*
X11234860Y-15251589D01*
X11215812Y-15261113D01*
X11196764Y-15261113D01*
X11177717Y-15251589D01*
X11168193Y-15242066D01*
X11158669Y-15223018D01*
X11149146Y-15184923D01*
X11149146Y-15137304D01*
X11158669Y-15099209D01*
X11168193Y-15080161D01*
X11177717Y-15070637D01*
X11196764Y-15061113D01*
X11349145Y-15261113D02*
X11349145Y-15127780D01*
X11349145Y-15146828D02*
X11358669Y-15137304D01*
X11377717Y-15127780D01*
X11406288Y-15127780D01*
X11425336Y-15137304D01*
X11434860Y-15156351D01*
X11434860Y-15261113D01*
X11434860Y-15156351D02*
X11444384Y-15137304D01*
X11463431Y-15127780D01*
X11492003Y-15127780D01*
X11511050Y-15137304D01*
X11520574Y-15156351D01*
X11520574Y-15261113D01*
X11615812Y-15261113D02*
X11615812Y-15127780D01*
X11615812Y-15146828D02*
X11625336Y-15137304D01*
X11644384Y-15127780D01*
X11672955Y-15127780D01*
X11692003Y-15137304D01*
X11701526Y-15156351D01*
X11701526Y-15261113D01*
X11701526Y-15156351D02*
X11711050Y-15137304D01*
X11730098Y-15127780D01*
X11758669Y-15127780D01*
X11777717Y-15137304D01*
X11787241Y-15156351D01*
X11787241Y-15261113D01*
X12177717Y-15051589D02*
X12006288Y-15308732D01*
X12434860Y-15061113D02*
X12453907Y-15061113D01*
X12472955Y-15070637D01*
X12482479Y-15080161D01*
X12492003Y-15099209D01*
X12501526Y-15137304D01*
X12501526Y-15184923D01*
X12492003Y-15223018D01*
X12482479Y-15242066D01*
X12472955Y-15251589D01*
X12453907Y-15261113D01*
X12434860Y-15261113D01*
X12415812Y-15251589D01*
X12406288Y-15242066D01*
X12396764Y-15223018D01*
X12387241Y-15184923D01*
X12387241Y-15137304D01*
X12396764Y-15099209D01*
X12406288Y-15080161D01*
X12415812Y-15070637D01*
X12434860Y-15061113D01*
X12587241Y-15242066D02*
X12596764Y-15251589D01*
X12587241Y-15261113D01*
X12577717Y-15251589D01*
X12587241Y-15242066D01*
X12587241Y-15261113D01*
X12720574Y-15061113D02*
X12739622Y-15061113D01*
X12758669Y-15070637D01*
X12768193Y-15080161D01*
X12777717Y-15099209D01*
X12787241Y-15137304D01*
X12787241Y-15184923D01*
X12777717Y-15223018D01*
X12768193Y-15242066D01*
X12758669Y-15251589D01*
X12739622Y-15261113D01*
X12720574Y-15261113D01*
X12701526Y-15251589D01*
X12692003Y-15242066D01*
X12682479Y-15223018D01*
X12672955Y-15184923D01*
X12672955Y-15137304D01*
X12682479Y-15099209D01*
X12692003Y-15080161D01*
X12701526Y-15070637D01*
X12720574Y-15061113D01*
X12977717Y-15261113D02*
X12863431Y-15261113D01*
X12920574Y-15261113D02*
X12920574Y-15061113D01*
X12901526Y-15089685D01*
X12882479Y-15108732D01*
X12863431Y-15118256D01*
X13158669Y-15061113D02*
X13063431Y-15061113D01*
X13053907Y-15156351D01*
X13063431Y-15146828D01*
X13082479Y-15137304D01*
X13130098Y-15137304D01*
X13149145Y-15146828D01*
X13158669Y-15156351D01*
X13168193Y-15175399D01*
X13168193Y-15223018D01*
X13158669Y-15242066D01*
X13149145Y-15251589D01*
X13130098Y-15261113D01*
X13082479Y-15261113D01*
X13063431Y-15251589D01*
X13053907Y-15242066D01*
X13234860Y-15061113D02*
X13368193Y-15061113D01*
X13282479Y-15261113D01*
X13434860Y-15061113D02*
X13434860Y-15099209D01*
X13511050Y-15061113D02*
X13511050Y-15099209D01*
X13806288Y-15337304D02*
X13796764Y-15327780D01*
X13777717Y-15299209D01*
X13768193Y-15280161D01*
X13758669Y-15251589D01*
X13749145Y-15203970D01*
X13749145Y-15165875D01*
X13758669Y-15118256D01*
X13768193Y-15089685D01*
X13777717Y-15070637D01*
X13796764Y-15042066D01*
X13806288Y-15032542D01*
X13987241Y-15261113D02*
X13872955Y-15261113D01*
X13930098Y-15261113D02*
X13930098Y-15061113D01*
X13911050Y-15089685D01*
X13892003Y-15108732D01*
X13872955Y-15118256D01*
X14225336Y-15261113D02*
X14225336Y-15061113D01*
X14311050Y-15261113D02*
X14311050Y-15156351D01*
X14301526Y-15137304D01*
X14282479Y-15127780D01*
X14253907Y-15127780D01*
X14234860Y-15137304D01*
X14225336Y-15146828D01*
X14434860Y-15261113D02*
X14415812Y-15251589D01*
X14406288Y-15242066D01*
X14396764Y-15223018D01*
X14396764Y-15165875D01*
X14406288Y-15146828D01*
X14415812Y-15137304D01*
X14434860Y-15127780D01*
X14463431Y-15127780D01*
X14482479Y-15137304D01*
X14492003Y-15146828D01*
X14501526Y-15165875D01*
X14501526Y-15223018D01*
X14492003Y-15242066D01*
X14482479Y-15251589D01*
X14463431Y-15261113D01*
X14434860Y-15261113D01*
X14615812Y-15261113D02*
X14596764Y-15251589D01*
X14587241Y-15232542D01*
X14587241Y-15061113D01*
X14768193Y-15251589D02*
X14749145Y-15261113D01*
X14711050Y-15261113D01*
X14692003Y-15251589D01*
X14682479Y-15232542D01*
X14682479Y-15156351D01*
X14692003Y-15137304D01*
X14711050Y-15127780D01*
X14749145Y-15127780D01*
X14768193Y-15137304D01*
X14777717Y-15156351D01*
X14777717Y-15175399D01*
X14682479Y-15194447D01*
X14844383Y-15337304D02*
X14853907Y-15327780D01*
X14872955Y-15299209D01*
X14882479Y-15280161D01*
X14892003Y-15251589D01*
X14901526Y-15203970D01*
X14901526Y-15165875D01*
X14892003Y-15118256D01*
X14882479Y-15089685D01*
X14872955Y-15070637D01*
X14853907Y-15042066D01*
X14844383Y-15032542D01*
M02*
