%TF.GenerationSoftware,KiCad,Pcbnew,(6.0.10)*%
%TF.CreationDate,2023-07-28T11:59:27-04:00*%
%TF.ProjectId,storyboard,73746f72-7962-46f6-9172-642e6b696361,rev?*%
%TF.SameCoordinates,Original*%
%TF.FileFunction,Legend,Top*%
%TF.FilePolarity,Positive*%
%FSLAX46Y46*%
G04 Gerber Fmt 4.6, Leading zero omitted, Abs format (unit mm)*
G04 Created by KiCad (PCBNEW (6.0.10)) date 2023-07-28 11:59:27*
%MOMM*%
%LPD*%
G01*
G04 APERTURE LIST*
%ADD10C,0.500000*%
%ADD11C,0.150000*%
%ADD12C,0.050800*%
%ADD13C,0.120000*%
%ADD14C,0.152400*%
G04 APERTURE END LIST*
D10*
X191714285Y-122909523D02*
X192000000Y-123004761D01*
X192476190Y-123004761D01*
X192666666Y-122909523D01*
X192761904Y-122814285D01*
X192857142Y-122623809D01*
X192857142Y-122433333D01*
X192761904Y-122242857D01*
X192666666Y-122147619D01*
X192476190Y-122052380D01*
X192095238Y-121957142D01*
X191904761Y-121861904D01*
X191809523Y-121766666D01*
X191714285Y-121576190D01*
X191714285Y-121385714D01*
X191809523Y-121195238D01*
X191904761Y-121100000D01*
X192095238Y-121004761D01*
X192571428Y-121004761D01*
X192857142Y-121100000D01*
X193428571Y-121004761D02*
X194571428Y-121004761D01*
X194000000Y-123004761D02*
X194000000Y-121004761D01*
X195619047Y-121004761D02*
X196000000Y-121004761D01*
X196190476Y-121100000D01*
X196380952Y-121290476D01*
X196476190Y-121671428D01*
X196476190Y-122338095D01*
X196380952Y-122719047D01*
X196190476Y-122909523D01*
X196000000Y-123004761D01*
X195619047Y-123004761D01*
X195428571Y-122909523D01*
X195238095Y-122719047D01*
X195142857Y-122338095D01*
X195142857Y-121671428D01*
X195238095Y-121290476D01*
X195428571Y-121100000D01*
X195619047Y-121004761D01*
X198476190Y-123004761D02*
X197809523Y-122052380D01*
X197333333Y-123004761D02*
X197333333Y-121004761D01*
X198095238Y-121004761D01*
X198285714Y-121100000D01*
X198380952Y-121195238D01*
X198476190Y-121385714D01*
X198476190Y-121671428D01*
X198380952Y-121861904D01*
X198285714Y-121957142D01*
X198095238Y-122052380D01*
X197333333Y-122052380D01*
X199714285Y-122052380D02*
X199714285Y-123004761D01*
X199047619Y-121004761D02*
X199714285Y-122052380D01*
X200380952Y-121004761D01*
X201714285Y-121957142D02*
X202000000Y-122052380D01*
X202095238Y-122147619D01*
X202190476Y-122338095D01*
X202190476Y-122623809D01*
X202095238Y-122814285D01*
X202000000Y-122909523D01*
X201809523Y-123004761D01*
X201047619Y-123004761D01*
X201047619Y-121004761D01*
X201714285Y-121004761D01*
X201904761Y-121100000D01*
X202000000Y-121195238D01*
X202095238Y-121385714D01*
X202095238Y-121576190D01*
X202000000Y-121766666D01*
X201904761Y-121861904D01*
X201714285Y-121957142D01*
X201047619Y-121957142D01*
X203428571Y-121004761D02*
X203809523Y-121004761D01*
X204000000Y-121100000D01*
X204190476Y-121290476D01*
X204285714Y-121671428D01*
X204285714Y-122338095D01*
X204190476Y-122719047D01*
X204000000Y-122909523D01*
X203809523Y-123004761D01*
X203428571Y-123004761D01*
X203238095Y-122909523D01*
X203047619Y-122719047D01*
X202952380Y-122338095D01*
X202952380Y-121671428D01*
X203047619Y-121290476D01*
X203238095Y-121100000D01*
X203428571Y-121004761D01*
X205047619Y-122433333D02*
X206000000Y-122433333D01*
X204857142Y-123004761D02*
X205523809Y-121004761D01*
X206190476Y-123004761D01*
X208000000Y-123004761D02*
X207333333Y-122052380D01*
X206857142Y-123004761D02*
X206857142Y-121004761D01*
X207619047Y-121004761D01*
X207809523Y-121100000D01*
X207904761Y-121195238D01*
X208000000Y-121385714D01*
X208000000Y-121671428D01*
X207904761Y-121861904D01*
X207809523Y-121957142D01*
X207619047Y-122052380D01*
X206857142Y-122052380D01*
X208857142Y-123004761D02*
X208857142Y-121004761D01*
X209333333Y-121004761D01*
X209619047Y-121100000D01*
X209809523Y-121290476D01*
X209904761Y-121480952D01*
X210000000Y-121861904D01*
X210000000Y-122147619D01*
X209904761Y-122528571D01*
X209809523Y-122719047D01*
X209619047Y-122909523D01*
X209333333Y-123004761D01*
X208857142Y-123004761D01*
X213428571Y-123004761D02*
X212285714Y-123004761D01*
X212857142Y-123004761D02*
X212857142Y-121004761D01*
X212666666Y-121290476D01*
X212476190Y-121480952D01*
X212285714Y-121576190D01*
X214285714Y-122814285D02*
X214380952Y-122909523D01*
X214285714Y-123004761D01*
X214190476Y-122909523D01*
X214285714Y-122814285D01*
X214285714Y-123004761D01*
X215619047Y-121004761D02*
X215809523Y-121004761D01*
X216000000Y-121100000D01*
X216095238Y-121195238D01*
X216190476Y-121385714D01*
X216285714Y-121766666D01*
X216285714Y-122242857D01*
X216190476Y-122623809D01*
X216095238Y-122814285D01*
X216000000Y-122909523D01*
X215809523Y-123004761D01*
X215619047Y-123004761D01*
X215428571Y-122909523D01*
X215333333Y-122814285D01*
X215238095Y-122623809D01*
X215142857Y-122242857D01*
X215142857Y-121766666D01*
X215238095Y-121385714D01*
X215333333Y-121195238D01*
X215428571Y-121100000D01*
X215619047Y-121004761D01*
D11*
%TO.C,D73*%
X211885714Y-127652380D02*
X211885714Y-126652380D01*
X212123809Y-126652380D01*
X212266666Y-126700000D01*
X212361904Y-126795238D01*
X212409523Y-126890476D01*
X212457142Y-127080952D01*
X212457142Y-127223809D01*
X212409523Y-127414285D01*
X212361904Y-127509523D01*
X212266666Y-127604761D01*
X212123809Y-127652380D01*
X211885714Y-127652380D01*
X212790476Y-126652380D02*
X213457142Y-126652380D01*
X213028571Y-127652380D01*
X213742857Y-126652380D02*
X214361904Y-126652380D01*
X214028571Y-127033333D01*
X214171428Y-127033333D01*
X214266666Y-127080952D01*
X214314285Y-127128571D01*
X214361904Y-127223809D01*
X214361904Y-127461904D01*
X214314285Y-127557142D01*
X214266666Y-127604761D01*
X214171428Y-127652380D01*
X213885714Y-127652380D01*
X213790476Y-127604761D01*
X213742857Y-127557142D01*
%TO.C,SW2*%
X69316666Y-62949761D02*
X69459523Y-62997380D01*
X69697619Y-62997380D01*
X69792857Y-62949761D01*
X69840476Y-62902142D01*
X69888095Y-62806904D01*
X69888095Y-62711666D01*
X69840476Y-62616428D01*
X69792857Y-62568809D01*
X69697619Y-62521190D01*
X69507142Y-62473571D01*
X69411904Y-62425952D01*
X69364285Y-62378333D01*
X69316666Y-62283095D01*
X69316666Y-62187857D01*
X69364285Y-62092619D01*
X69411904Y-62045000D01*
X69507142Y-61997380D01*
X69745238Y-61997380D01*
X69888095Y-62045000D01*
X70221428Y-61997380D02*
X70459523Y-62997380D01*
X70650000Y-62283095D01*
X70840476Y-62997380D01*
X71078571Y-61997380D01*
X71411904Y-62092619D02*
X71459523Y-62045000D01*
X71554761Y-61997380D01*
X71792857Y-61997380D01*
X71888095Y-62045000D01*
X71935714Y-62092619D01*
X71983333Y-62187857D01*
X71983333Y-62283095D01*
X71935714Y-62425952D01*
X71364285Y-62997380D01*
X71983333Y-62997380D01*
%TO.C,SW22*%
X144840476Y-62949761D02*
X144983333Y-62997380D01*
X145221428Y-62997380D01*
X145316666Y-62949761D01*
X145364285Y-62902142D01*
X145411904Y-62806904D01*
X145411904Y-62711666D01*
X145364285Y-62616428D01*
X145316666Y-62568809D01*
X145221428Y-62521190D01*
X145030952Y-62473571D01*
X144935714Y-62425952D01*
X144888095Y-62378333D01*
X144840476Y-62283095D01*
X144840476Y-62187857D01*
X144888095Y-62092619D01*
X144935714Y-62045000D01*
X145030952Y-61997380D01*
X145269047Y-61997380D01*
X145411904Y-62045000D01*
X145745238Y-61997380D02*
X145983333Y-62997380D01*
X146173809Y-62283095D01*
X146364285Y-62997380D01*
X146602380Y-61997380D01*
X146935714Y-62092619D02*
X146983333Y-62045000D01*
X147078571Y-61997380D01*
X147316666Y-61997380D01*
X147411904Y-62045000D01*
X147459523Y-62092619D01*
X147507142Y-62187857D01*
X147507142Y-62283095D01*
X147459523Y-62425952D01*
X146888095Y-62997380D01*
X147507142Y-62997380D01*
X147888095Y-62092619D02*
X147935714Y-62045000D01*
X148030952Y-61997380D01*
X148269047Y-61997380D01*
X148364285Y-62045000D01*
X148411904Y-62092619D01*
X148459523Y-62187857D01*
X148459523Y-62283095D01*
X148411904Y-62425952D01*
X147840476Y-62997380D01*
X148459523Y-62997380D01*
%TO.C,SW1*%
X75766666Y-44004761D02*
X75909523Y-44052380D01*
X76147619Y-44052380D01*
X76242857Y-44004761D01*
X76290476Y-43957142D01*
X76338095Y-43861904D01*
X76338095Y-43766666D01*
X76290476Y-43671428D01*
X76242857Y-43623809D01*
X76147619Y-43576190D01*
X75957142Y-43528571D01*
X75861904Y-43480952D01*
X75814285Y-43433333D01*
X75766666Y-43338095D01*
X75766666Y-43242857D01*
X75814285Y-43147619D01*
X75861904Y-43100000D01*
X75957142Y-43052380D01*
X76195238Y-43052380D01*
X76338095Y-43100000D01*
X76671428Y-43052380D02*
X76909523Y-44052380D01*
X77100000Y-43338095D01*
X77290476Y-44052380D01*
X77528571Y-43052380D01*
X78433333Y-44052380D02*
X77861904Y-44052380D01*
X78147619Y-44052380D02*
X78147619Y-43052380D01*
X78052380Y-43195238D01*
X77957142Y-43290476D01*
X77861904Y-43338095D01*
%TO.C,SW31*%
X240140476Y-44004761D02*
X240283333Y-44052380D01*
X240521428Y-44052380D01*
X240616666Y-44004761D01*
X240664285Y-43957142D01*
X240711904Y-43861904D01*
X240711904Y-43766666D01*
X240664285Y-43671428D01*
X240616666Y-43623809D01*
X240521428Y-43576190D01*
X240330952Y-43528571D01*
X240235714Y-43480952D01*
X240188095Y-43433333D01*
X240140476Y-43338095D01*
X240140476Y-43242857D01*
X240188095Y-43147619D01*
X240235714Y-43100000D01*
X240330952Y-43052380D01*
X240569047Y-43052380D01*
X240711904Y-43100000D01*
X241045238Y-43052380D02*
X241283333Y-44052380D01*
X241473809Y-43338095D01*
X241664285Y-44052380D01*
X241902380Y-43052380D01*
X242188095Y-43052380D02*
X242807142Y-43052380D01*
X242473809Y-43433333D01*
X242616666Y-43433333D01*
X242711904Y-43480952D01*
X242759523Y-43528571D01*
X242807142Y-43623809D01*
X242807142Y-43861904D01*
X242759523Y-43957142D01*
X242711904Y-44004761D01*
X242616666Y-44052380D01*
X242330952Y-44052380D01*
X242235714Y-44004761D01*
X242188095Y-43957142D01*
X243759523Y-44052380D02*
X243188095Y-44052380D01*
X243473809Y-44052380D02*
X243473809Y-43052380D01*
X243378571Y-43195238D01*
X243283333Y-43290476D01*
X243188095Y-43338095D01*
%TO.C,J4*%
X223948666Y-51014380D02*
X223948666Y-51728666D01*
X223901047Y-51871523D01*
X223805809Y-51966761D01*
X223662952Y-52014380D01*
X223567714Y-52014380D01*
X224853428Y-51347714D02*
X224853428Y-52014380D01*
X224615333Y-50966761D02*
X224377238Y-51681047D01*
X224996285Y-51681047D01*
D12*
%TO.C,J3*%
X188482714Y-66354000D02*
X189027000Y-66354000D01*
X189135857Y-66390285D01*
X189208428Y-66462857D01*
X189244714Y-66571714D01*
X189244714Y-66644285D01*
X188482714Y-66063714D02*
X188482714Y-65592000D01*
X188773000Y-65846000D01*
X188773000Y-65737142D01*
X188809285Y-65664571D01*
X188845571Y-65628285D01*
X188918142Y-65592000D01*
X189099571Y-65592000D01*
X189172142Y-65628285D01*
X189208428Y-65664571D01*
X189244714Y-65737142D01*
X189244714Y-65954857D01*
X189208428Y-66027428D01*
X189172142Y-66063714D01*
X195012000Y-68364519D02*
X195012000Y-67602519D01*
X195266000Y-68146805D01*
X195520000Y-67602519D01*
X195520000Y-68364519D01*
X195882857Y-68364519D02*
X195882857Y-67602519D01*
X196681142Y-68291947D02*
X196644857Y-68328233D01*
X196536000Y-68364519D01*
X196463428Y-68364519D01*
X196354571Y-68328233D01*
X196282000Y-68255662D01*
X196245714Y-68183090D01*
X196209428Y-68037947D01*
X196209428Y-67929090D01*
X196245714Y-67783947D01*
X196282000Y-67711376D01*
X196354571Y-67638805D01*
X196463428Y-67602519D01*
X196536000Y-67602519D01*
X196644857Y-67638805D01*
X196681142Y-67675090D01*
X197443142Y-68364519D02*
X197189142Y-68001662D01*
X197007714Y-68364519D02*
X197007714Y-67602519D01*
X197298000Y-67602519D01*
X197370571Y-67638805D01*
X197406857Y-67675090D01*
X197443142Y-67747662D01*
X197443142Y-67856519D01*
X197406857Y-67929090D01*
X197370571Y-67965376D01*
X197298000Y-68001662D01*
X197007714Y-68001662D01*
X197914857Y-67602519D02*
X198060000Y-67602519D01*
X198132571Y-67638805D01*
X198205142Y-67711376D01*
X198241428Y-67856519D01*
X198241428Y-68110519D01*
X198205142Y-68255662D01*
X198132571Y-68328233D01*
X198060000Y-68364519D01*
X197914857Y-68364519D01*
X197842285Y-68328233D01*
X197769714Y-68255662D01*
X197733428Y-68110519D01*
X197733428Y-67856519D01*
X197769714Y-67711376D01*
X197842285Y-67638805D01*
X197914857Y-67602519D01*
X198568000Y-68364519D02*
X198568000Y-67602519D01*
X198822000Y-68146805D01*
X199076000Y-67602519D01*
X199076000Y-68364519D01*
X199584000Y-67602519D02*
X199729142Y-67602519D01*
X199801714Y-67638805D01*
X199874285Y-67711376D01*
X199910571Y-67856519D01*
X199910571Y-68110519D01*
X199874285Y-68255662D01*
X199801714Y-68328233D01*
X199729142Y-68364519D01*
X199584000Y-68364519D01*
X199511428Y-68328233D01*
X199438857Y-68255662D01*
X199402571Y-68110519D01*
X199402571Y-67856519D01*
X199438857Y-67711376D01*
X199511428Y-67638805D01*
X199584000Y-67602519D01*
X200237142Y-68364519D02*
X200237142Y-67602519D01*
X200418571Y-67602519D01*
X200527428Y-67638805D01*
X200600000Y-67711376D01*
X200636285Y-67783947D01*
X200672571Y-67929090D01*
X200672571Y-68037947D01*
X200636285Y-68183090D01*
X200600000Y-68255662D01*
X200527428Y-68328233D01*
X200418571Y-68364519D01*
X200237142Y-68364519D01*
X200999142Y-68074233D02*
X201579714Y-68074233D01*
X201906285Y-67675090D02*
X201942571Y-67638805D01*
X202015142Y-67602519D01*
X202196571Y-67602519D01*
X202269142Y-67638805D01*
X202305428Y-67675090D01*
X202341714Y-67747662D01*
X202341714Y-67820233D01*
X202305428Y-67929090D01*
X201870000Y-68364519D01*
X202341714Y-68364519D01*
X202632000Y-67675090D02*
X202668285Y-67638805D01*
X202740857Y-67602519D01*
X202922285Y-67602519D01*
X202994857Y-67638805D01*
X203031142Y-67675090D01*
X203067428Y-67747662D01*
X203067428Y-67820233D01*
X203031142Y-67929090D01*
X202595714Y-68364519D01*
X203067428Y-68364519D01*
X203357714Y-67675090D02*
X203394000Y-67638805D01*
X203466571Y-67602519D01*
X203648000Y-67602519D01*
X203720571Y-67638805D01*
X203756857Y-67675090D01*
X203793142Y-67747662D01*
X203793142Y-67820233D01*
X203756857Y-67929090D01*
X203321428Y-68364519D01*
X203793142Y-68364519D01*
X204083428Y-67675090D02*
X204119714Y-67638805D01*
X204192285Y-67602519D01*
X204373714Y-67602519D01*
X204446285Y-67638805D01*
X204482571Y-67675090D01*
X204518857Y-67747662D01*
X204518857Y-67820233D01*
X204482571Y-67929090D01*
X204047142Y-68364519D01*
X204518857Y-68364519D01*
X204845428Y-68074233D02*
X205426000Y-68074233D01*
X206224285Y-68291947D02*
X206188000Y-68328233D01*
X206079142Y-68364519D01*
X206006571Y-68364519D01*
X205897714Y-68328233D01*
X205825142Y-68255662D01*
X205788857Y-68183090D01*
X205752571Y-68037947D01*
X205752571Y-67929090D01*
X205788857Y-67783947D01*
X205825142Y-67711376D01*
X205897714Y-67638805D01*
X206006571Y-67602519D01*
X206079142Y-67602519D01*
X206188000Y-67638805D01*
X206224285Y-67675090D01*
D11*
%TO.C,SW30*%
X163840476Y-119949761D02*
X163983333Y-119997380D01*
X164221428Y-119997380D01*
X164316666Y-119949761D01*
X164364285Y-119902142D01*
X164411904Y-119806904D01*
X164411904Y-119711666D01*
X164364285Y-119616428D01*
X164316666Y-119568809D01*
X164221428Y-119521190D01*
X164030952Y-119473571D01*
X163935714Y-119425952D01*
X163888095Y-119378333D01*
X163840476Y-119283095D01*
X163840476Y-119187857D01*
X163888095Y-119092619D01*
X163935714Y-119045000D01*
X164030952Y-118997380D01*
X164269047Y-118997380D01*
X164411904Y-119045000D01*
X164745238Y-118997380D02*
X164983333Y-119997380D01*
X165173809Y-119283095D01*
X165364285Y-119997380D01*
X165602380Y-118997380D01*
X165888095Y-118997380D02*
X166507142Y-118997380D01*
X166173809Y-119378333D01*
X166316666Y-119378333D01*
X166411904Y-119425952D01*
X166459523Y-119473571D01*
X166507142Y-119568809D01*
X166507142Y-119806904D01*
X166459523Y-119902142D01*
X166411904Y-119949761D01*
X166316666Y-119997380D01*
X166030952Y-119997380D01*
X165935714Y-119949761D01*
X165888095Y-119902142D01*
X167126190Y-118997380D02*
X167221428Y-118997380D01*
X167316666Y-119045000D01*
X167364285Y-119092619D01*
X167411904Y-119187857D01*
X167459523Y-119378333D01*
X167459523Y-119616428D01*
X167411904Y-119806904D01*
X167364285Y-119902142D01*
X167316666Y-119949761D01*
X167221428Y-119997380D01*
X167126190Y-119997380D01*
X167030952Y-119949761D01*
X166983333Y-119902142D01*
X166935714Y-119806904D01*
X166888095Y-119616428D01*
X166888095Y-119378333D01*
X166935714Y-119187857D01*
X166983333Y-119092619D01*
X167030952Y-119045000D01*
X167126190Y-118997380D01*
%TO.C,SW60*%
X335440476Y-119949761D02*
X335583333Y-119997380D01*
X335821428Y-119997380D01*
X335916666Y-119949761D01*
X335964285Y-119902142D01*
X336011904Y-119806904D01*
X336011904Y-119711666D01*
X335964285Y-119616428D01*
X335916666Y-119568809D01*
X335821428Y-119521190D01*
X335630952Y-119473571D01*
X335535714Y-119425952D01*
X335488095Y-119378333D01*
X335440476Y-119283095D01*
X335440476Y-119187857D01*
X335488095Y-119092619D01*
X335535714Y-119045000D01*
X335630952Y-118997380D01*
X335869047Y-118997380D01*
X336011904Y-119045000D01*
X336345238Y-118997380D02*
X336583333Y-119997380D01*
X336773809Y-119283095D01*
X336964285Y-119997380D01*
X337202380Y-118997380D01*
X338011904Y-118997380D02*
X337821428Y-118997380D01*
X337726190Y-119045000D01*
X337678571Y-119092619D01*
X337583333Y-119235476D01*
X337535714Y-119425952D01*
X337535714Y-119806904D01*
X337583333Y-119902142D01*
X337630952Y-119949761D01*
X337726190Y-119997380D01*
X337916666Y-119997380D01*
X338011904Y-119949761D01*
X338059523Y-119902142D01*
X338107142Y-119806904D01*
X338107142Y-119568809D01*
X338059523Y-119473571D01*
X338011904Y-119425952D01*
X337916666Y-119378333D01*
X337726190Y-119378333D01*
X337630952Y-119425952D01*
X337583333Y-119473571D01*
X337535714Y-119568809D01*
X338726190Y-118997380D02*
X338821428Y-118997380D01*
X338916666Y-119045000D01*
X338964285Y-119092619D01*
X339011904Y-119187857D01*
X339059523Y-119378333D01*
X339059523Y-119616428D01*
X339011904Y-119806904D01*
X338964285Y-119902142D01*
X338916666Y-119949761D01*
X338821428Y-119997380D01*
X338726190Y-119997380D01*
X338630952Y-119949761D01*
X338583333Y-119902142D01*
X338535714Y-119806904D01*
X338488095Y-119616428D01*
X338488095Y-119378333D01*
X338535714Y-119187857D01*
X338583333Y-119092619D01*
X338630952Y-119045000D01*
X338726190Y-118997380D01*
%TO.C,SW24*%
X144840476Y-100949761D02*
X144983333Y-100997380D01*
X145221428Y-100997380D01*
X145316666Y-100949761D01*
X145364285Y-100902142D01*
X145411904Y-100806904D01*
X145411904Y-100711666D01*
X145364285Y-100616428D01*
X145316666Y-100568809D01*
X145221428Y-100521190D01*
X145030952Y-100473571D01*
X144935714Y-100425952D01*
X144888095Y-100378333D01*
X144840476Y-100283095D01*
X144840476Y-100187857D01*
X144888095Y-100092619D01*
X144935714Y-100045000D01*
X145030952Y-99997380D01*
X145269047Y-99997380D01*
X145411904Y-100045000D01*
X145745238Y-99997380D02*
X145983333Y-100997380D01*
X146173809Y-100283095D01*
X146364285Y-100997380D01*
X146602380Y-99997380D01*
X146935714Y-100092619D02*
X146983333Y-100045000D01*
X147078571Y-99997380D01*
X147316666Y-99997380D01*
X147411904Y-100045000D01*
X147459523Y-100092619D01*
X147507142Y-100187857D01*
X147507142Y-100283095D01*
X147459523Y-100425952D01*
X146888095Y-100997380D01*
X147507142Y-100997380D01*
X148364285Y-100330714D02*
X148364285Y-100997380D01*
X148126190Y-99949761D02*
X147888095Y-100664047D01*
X148507142Y-100664047D01*
%TO.C,SW27*%
X163840476Y-62949761D02*
X163983333Y-62997380D01*
X164221428Y-62997380D01*
X164316666Y-62949761D01*
X164364285Y-62902142D01*
X164411904Y-62806904D01*
X164411904Y-62711666D01*
X164364285Y-62616428D01*
X164316666Y-62568809D01*
X164221428Y-62521190D01*
X164030952Y-62473571D01*
X163935714Y-62425952D01*
X163888095Y-62378333D01*
X163840476Y-62283095D01*
X163840476Y-62187857D01*
X163888095Y-62092619D01*
X163935714Y-62045000D01*
X164030952Y-61997380D01*
X164269047Y-61997380D01*
X164411904Y-62045000D01*
X164745238Y-61997380D02*
X164983333Y-62997380D01*
X165173809Y-62283095D01*
X165364285Y-62997380D01*
X165602380Y-61997380D01*
X165935714Y-62092619D02*
X165983333Y-62045000D01*
X166078571Y-61997380D01*
X166316666Y-61997380D01*
X166411904Y-62045000D01*
X166459523Y-62092619D01*
X166507142Y-62187857D01*
X166507142Y-62283095D01*
X166459523Y-62425952D01*
X165888095Y-62997380D01*
X166507142Y-62997380D01*
X166840476Y-61997380D02*
X167507142Y-61997380D01*
X167078571Y-62997380D01*
%TO.C,SW42*%
X278520476Y-62949761D02*
X278663333Y-62997380D01*
X278901428Y-62997380D01*
X278996666Y-62949761D01*
X279044285Y-62902142D01*
X279091904Y-62806904D01*
X279091904Y-62711666D01*
X279044285Y-62616428D01*
X278996666Y-62568809D01*
X278901428Y-62521190D01*
X278710952Y-62473571D01*
X278615714Y-62425952D01*
X278568095Y-62378333D01*
X278520476Y-62283095D01*
X278520476Y-62187857D01*
X278568095Y-62092619D01*
X278615714Y-62045000D01*
X278710952Y-61997380D01*
X278949047Y-61997380D01*
X279091904Y-62045000D01*
X279425238Y-61997380D02*
X279663333Y-62997380D01*
X279853809Y-62283095D01*
X280044285Y-62997380D01*
X280282380Y-61997380D01*
X281091904Y-62330714D02*
X281091904Y-62997380D01*
X280853809Y-61949761D02*
X280615714Y-62664047D01*
X281234761Y-62664047D01*
X281568095Y-62092619D02*
X281615714Y-62045000D01*
X281710952Y-61997380D01*
X281949047Y-61997380D01*
X282044285Y-62045000D01*
X282091904Y-62092619D01*
X282139523Y-62187857D01*
X282139523Y-62283095D01*
X282091904Y-62425952D01*
X281520476Y-62997380D01*
X282139523Y-62997380D01*
%TO.C,SW10*%
X87840476Y-119949761D02*
X87983333Y-119997380D01*
X88221428Y-119997380D01*
X88316666Y-119949761D01*
X88364285Y-119902142D01*
X88411904Y-119806904D01*
X88411904Y-119711666D01*
X88364285Y-119616428D01*
X88316666Y-119568809D01*
X88221428Y-119521190D01*
X88030952Y-119473571D01*
X87935714Y-119425952D01*
X87888095Y-119378333D01*
X87840476Y-119283095D01*
X87840476Y-119187857D01*
X87888095Y-119092619D01*
X87935714Y-119045000D01*
X88030952Y-118997380D01*
X88269047Y-118997380D01*
X88411904Y-119045000D01*
X88745238Y-118997380D02*
X88983333Y-119997380D01*
X89173809Y-119283095D01*
X89364285Y-119997380D01*
X89602380Y-118997380D01*
X90507142Y-119997380D02*
X89935714Y-119997380D01*
X90221428Y-119997380D02*
X90221428Y-118997380D01*
X90126190Y-119140238D01*
X90030952Y-119235476D01*
X89935714Y-119283095D01*
X91126190Y-118997380D02*
X91221428Y-118997380D01*
X91316666Y-119045000D01*
X91364285Y-119092619D01*
X91411904Y-119187857D01*
X91459523Y-119378333D01*
X91459523Y-119616428D01*
X91411904Y-119806904D01*
X91364285Y-119902142D01*
X91316666Y-119949761D01*
X91221428Y-119997380D01*
X91126190Y-119997380D01*
X91030952Y-119949761D01*
X90983333Y-119902142D01*
X90935714Y-119806904D01*
X90888095Y-119616428D01*
X90888095Y-119378333D01*
X90935714Y-119187857D01*
X90983333Y-119092619D01*
X91030952Y-119045000D01*
X91126190Y-118997380D01*
%TO.C,SW57*%
X335440476Y-62949761D02*
X335583333Y-62997380D01*
X335821428Y-62997380D01*
X335916666Y-62949761D01*
X335964285Y-62902142D01*
X336011904Y-62806904D01*
X336011904Y-62711666D01*
X335964285Y-62616428D01*
X335916666Y-62568809D01*
X335821428Y-62521190D01*
X335630952Y-62473571D01*
X335535714Y-62425952D01*
X335488095Y-62378333D01*
X335440476Y-62283095D01*
X335440476Y-62187857D01*
X335488095Y-62092619D01*
X335535714Y-62045000D01*
X335630952Y-61997380D01*
X335869047Y-61997380D01*
X336011904Y-62045000D01*
X336345238Y-61997380D02*
X336583333Y-62997380D01*
X336773809Y-62283095D01*
X336964285Y-62997380D01*
X337202380Y-61997380D01*
X338059523Y-61997380D02*
X337583333Y-61997380D01*
X337535714Y-62473571D01*
X337583333Y-62425952D01*
X337678571Y-62378333D01*
X337916666Y-62378333D01*
X338011904Y-62425952D01*
X338059523Y-62473571D01*
X338107142Y-62568809D01*
X338107142Y-62806904D01*
X338059523Y-62902142D01*
X338011904Y-62949761D01*
X337916666Y-62997380D01*
X337678571Y-62997380D01*
X337583333Y-62949761D01*
X337535714Y-62902142D01*
X338440476Y-61997380D02*
X339107142Y-61997380D01*
X338678571Y-62997380D01*
%TO.C,SW29*%
X163840476Y-100949761D02*
X163983333Y-100997380D01*
X164221428Y-100997380D01*
X164316666Y-100949761D01*
X164364285Y-100902142D01*
X164411904Y-100806904D01*
X164411904Y-100711666D01*
X164364285Y-100616428D01*
X164316666Y-100568809D01*
X164221428Y-100521190D01*
X164030952Y-100473571D01*
X163935714Y-100425952D01*
X163888095Y-100378333D01*
X163840476Y-100283095D01*
X163840476Y-100187857D01*
X163888095Y-100092619D01*
X163935714Y-100045000D01*
X164030952Y-99997380D01*
X164269047Y-99997380D01*
X164411904Y-100045000D01*
X164745238Y-99997380D02*
X164983333Y-100997380D01*
X165173809Y-100283095D01*
X165364285Y-100997380D01*
X165602380Y-99997380D01*
X165935714Y-100092619D02*
X165983333Y-100045000D01*
X166078571Y-99997380D01*
X166316666Y-99997380D01*
X166411904Y-100045000D01*
X166459523Y-100092619D01*
X166507142Y-100187857D01*
X166507142Y-100283095D01*
X166459523Y-100425952D01*
X165888095Y-100997380D01*
X166507142Y-100997380D01*
X166983333Y-100997380D02*
X167173809Y-100997380D01*
X167269047Y-100949761D01*
X167316666Y-100902142D01*
X167411904Y-100759285D01*
X167459523Y-100568809D01*
X167459523Y-100187857D01*
X167411904Y-100092619D01*
X167364285Y-100045000D01*
X167269047Y-99997380D01*
X167078571Y-99997380D01*
X166983333Y-100045000D01*
X166935714Y-100092619D01*
X166888095Y-100187857D01*
X166888095Y-100425952D01*
X166935714Y-100521190D01*
X166983333Y-100568809D01*
X167078571Y-100616428D01*
X167269047Y-100616428D01*
X167364285Y-100568809D01*
X167411904Y-100521190D01*
X167459523Y-100425952D01*
%TO.C,SW7*%
X88316666Y-62949761D02*
X88459523Y-62997380D01*
X88697619Y-62997380D01*
X88792857Y-62949761D01*
X88840476Y-62902142D01*
X88888095Y-62806904D01*
X88888095Y-62711666D01*
X88840476Y-62616428D01*
X88792857Y-62568809D01*
X88697619Y-62521190D01*
X88507142Y-62473571D01*
X88411904Y-62425952D01*
X88364285Y-62378333D01*
X88316666Y-62283095D01*
X88316666Y-62187857D01*
X88364285Y-62092619D01*
X88411904Y-62045000D01*
X88507142Y-61997380D01*
X88745238Y-61997380D01*
X88888095Y-62045000D01*
X89221428Y-61997380D02*
X89459523Y-62997380D01*
X89650000Y-62283095D01*
X89840476Y-62997380D01*
X90078571Y-61997380D01*
X90364285Y-61997380D02*
X91030952Y-61997380D01*
X90602380Y-62997380D01*
%TO.C,SW20*%
X125840476Y-119949761D02*
X125983333Y-119997380D01*
X126221428Y-119997380D01*
X126316666Y-119949761D01*
X126364285Y-119902142D01*
X126411904Y-119806904D01*
X126411904Y-119711666D01*
X126364285Y-119616428D01*
X126316666Y-119568809D01*
X126221428Y-119521190D01*
X126030952Y-119473571D01*
X125935714Y-119425952D01*
X125888095Y-119378333D01*
X125840476Y-119283095D01*
X125840476Y-119187857D01*
X125888095Y-119092619D01*
X125935714Y-119045000D01*
X126030952Y-118997380D01*
X126269047Y-118997380D01*
X126411904Y-119045000D01*
X126745238Y-118997380D02*
X126983333Y-119997380D01*
X127173809Y-119283095D01*
X127364285Y-119997380D01*
X127602380Y-118997380D01*
X127935714Y-119092619D02*
X127983333Y-119045000D01*
X128078571Y-118997380D01*
X128316666Y-118997380D01*
X128411904Y-119045000D01*
X128459523Y-119092619D01*
X128507142Y-119187857D01*
X128507142Y-119283095D01*
X128459523Y-119425952D01*
X127888095Y-119997380D01*
X128507142Y-119997380D01*
X129126190Y-118997380D02*
X129221428Y-118997380D01*
X129316666Y-119045000D01*
X129364285Y-119092619D01*
X129411904Y-119187857D01*
X129459523Y-119378333D01*
X129459523Y-119616428D01*
X129411904Y-119806904D01*
X129364285Y-119902142D01*
X129316666Y-119949761D01*
X129221428Y-119997380D01*
X129126190Y-119997380D01*
X129030952Y-119949761D01*
X128983333Y-119902142D01*
X128935714Y-119806904D01*
X128888095Y-119616428D01*
X128888095Y-119378333D01*
X128935714Y-119187857D01*
X128983333Y-119092619D01*
X129030952Y-119045000D01*
X129126190Y-118997380D01*
%TO.C,SW49*%
X297520476Y-100949761D02*
X297663333Y-100997380D01*
X297901428Y-100997380D01*
X297996666Y-100949761D01*
X298044285Y-100902142D01*
X298091904Y-100806904D01*
X298091904Y-100711666D01*
X298044285Y-100616428D01*
X297996666Y-100568809D01*
X297901428Y-100521190D01*
X297710952Y-100473571D01*
X297615714Y-100425952D01*
X297568095Y-100378333D01*
X297520476Y-100283095D01*
X297520476Y-100187857D01*
X297568095Y-100092619D01*
X297615714Y-100045000D01*
X297710952Y-99997380D01*
X297949047Y-99997380D01*
X298091904Y-100045000D01*
X298425238Y-99997380D02*
X298663333Y-100997380D01*
X298853809Y-100283095D01*
X299044285Y-100997380D01*
X299282380Y-99997380D01*
X300091904Y-100330714D02*
X300091904Y-100997380D01*
X299853809Y-99949761D02*
X299615714Y-100664047D01*
X300234761Y-100664047D01*
X300663333Y-100997380D02*
X300853809Y-100997380D01*
X300949047Y-100949761D01*
X300996666Y-100902142D01*
X301091904Y-100759285D01*
X301139523Y-100568809D01*
X301139523Y-100187857D01*
X301091904Y-100092619D01*
X301044285Y-100045000D01*
X300949047Y-99997380D01*
X300758571Y-99997380D01*
X300663333Y-100045000D01*
X300615714Y-100092619D01*
X300568095Y-100187857D01*
X300568095Y-100425952D01*
X300615714Y-100521190D01*
X300663333Y-100568809D01*
X300758571Y-100616428D01*
X300949047Y-100616428D01*
X301044285Y-100568809D01*
X301091904Y-100521190D01*
X301139523Y-100425952D01*
%TO.C,SW39*%
X259520476Y-100949761D02*
X259663333Y-100997380D01*
X259901428Y-100997380D01*
X259996666Y-100949761D01*
X260044285Y-100902142D01*
X260091904Y-100806904D01*
X260091904Y-100711666D01*
X260044285Y-100616428D01*
X259996666Y-100568809D01*
X259901428Y-100521190D01*
X259710952Y-100473571D01*
X259615714Y-100425952D01*
X259568095Y-100378333D01*
X259520476Y-100283095D01*
X259520476Y-100187857D01*
X259568095Y-100092619D01*
X259615714Y-100045000D01*
X259710952Y-99997380D01*
X259949047Y-99997380D01*
X260091904Y-100045000D01*
X260425238Y-99997380D02*
X260663333Y-100997380D01*
X260853809Y-100283095D01*
X261044285Y-100997380D01*
X261282380Y-99997380D01*
X261568095Y-99997380D02*
X262187142Y-99997380D01*
X261853809Y-100378333D01*
X261996666Y-100378333D01*
X262091904Y-100425952D01*
X262139523Y-100473571D01*
X262187142Y-100568809D01*
X262187142Y-100806904D01*
X262139523Y-100902142D01*
X262091904Y-100949761D01*
X261996666Y-100997380D01*
X261710952Y-100997380D01*
X261615714Y-100949761D01*
X261568095Y-100902142D01*
X262663333Y-100997380D02*
X262853809Y-100997380D01*
X262949047Y-100949761D01*
X262996666Y-100902142D01*
X263091904Y-100759285D01*
X263139523Y-100568809D01*
X263139523Y-100187857D01*
X263091904Y-100092619D01*
X263044285Y-100045000D01*
X262949047Y-99997380D01*
X262758571Y-99997380D01*
X262663333Y-100045000D01*
X262615714Y-100092619D01*
X262568095Y-100187857D01*
X262568095Y-100425952D01*
X262615714Y-100521190D01*
X262663333Y-100568809D01*
X262758571Y-100616428D01*
X262949047Y-100616428D01*
X263044285Y-100568809D01*
X263091904Y-100521190D01*
X263139523Y-100425952D01*
%TO.C,SW5*%
X69316666Y-119949761D02*
X69459523Y-119997380D01*
X69697619Y-119997380D01*
X69792857Y-119949761D01*
X69840476Y-119902142D01*
X69888095Y-119806904D01*
X69888095Y-119711666D01*
X69840476Y-119616428D01*
X69792857Y-119568809D01*
X69697619Y-119521190D01*
X69507142Y-119473571D01*
X69411904Y-119425952D01*
X69364285Y-119378333D01*
X69316666Y-119283095D01*
X69316666Y-119187857D01*
X69364285Y-119092619D01*
X69411904Y-119045000D01*
X69507142Y-118997380D01*
X69745238Y-118997380D01*
X69888095Y-119045000D01*
X70221428Y-118997380D02*
X70459523Y-119997380D01*
X70650000Y-119283095D01*
X70840476Y-119997380D01*
X71078571Y-118997380D01*
X71935714Y-118997380D02*
X71459523Y-118997380D01*
X71411904Y-119473571D01*
X71459523Y-119425952D01*
X71554761Y-119378333D01*
X71792857Y-119378333D01*
X71888095Y-119425952D01*
X71935714Y-119473571D01*
X71983333Y-119568809D01*
X71983333Y-119806904D01*
X71935714Y-119902142D01*
X71888095Y-119949761D01*
X71792857Y-119997380D01*
X71554761Y-119997380D01*
X71459523Y-119949761D01*
X71411904Y-119902142D01*
%TO.C,SW32*%
X240520476Y-62949761D02*
X240663333Y-62997380D01*
X240901428Y-62997380D01*
X240996666Y-62949761D01*
X241044285Y-62902142D01*
X241091904Y-62806904D01*
X241091904Y-62711666D01*
X241044285Y-62616428D01*
X240996666Y-62568809D01*
X240901428Y-62521190D01*
X240710952Y-62473571D01*
X240615714Y-62425952D01*
X240568095Y-62378333D01*
X240520476Y-62283095D01*
X240520476Y-62187857D01*
X240568095Y-62092619D01*
X240615714Y-62045000D01*
X240710952Y-61997380D01*
X240949047Y-61997380D01*
X241091904Y-62045000D01*
X241425238Y-61997380D02*
X241663333Y-62997380D01*
X241853809Y-62283095D01*
X242044285Y-62997380D01*
X242282380Y-61997380D01*
X242568095Y-61997380D02*
X243187142Y-61997380D01*
X242853809Y-62378333D01*
X242996666Y-62378333D01*
X243091904Y-62425952D01*
X243139523Y-62473571D01*
X243187142Y-62568809D01*
X243187142Y-62806904D01*
X243139523Y-62902142D01*
X243091904Y-62949761D01*
X242996666Y-62997380D01*
X242710952Y-62997380D01*
X242615714Y-62949761D01*
X242568095Y-62902142D01*
X243568095Y-62092619D02*
X243615714Y-62045000D01*
X243710952Y-61997380D01*
X243949047Y-61997380D01*
X244044285Y-62045000D01*
X244091904Y-62092619D01*
X244139523Y-62187857D01*
X244139523Y-62283095D01*
X244091904Y-62425952D01*
X243520476Y-62997380D01*
X244139523Y-62997380D01*
%TO.C,J1*%
X226057380Y-135333333D02*
X226771666Y-135333333D01*
X226914523Y-135380952D01*
X227009761Y-135476190D01*
X227057380Y-135619047D01*
X227057380Y-135714285D01*
X227057380Y-134333333D02*
X227057380Y-134904761D01*
X227057380Y-134619047D02*
X226057380Y-134619047D01*
X226200238Y-134714285D01*
X226295476Y-134809523D01*
X226343095Y-134904761D01*
%TO.C,SW48*%
X297520476Y-81949761D02*
X297663333Y-81997380D01*
X297901428Y-81997380D01*
X297996666Y-81949761D01*
X298044285Y-81902142D01*
X298091904Y-81806904D01*
X298091904Y-81711666D01*
X298044285Y-81616428D01*
X297996666Y-81568809D01*
X297901428Y-81521190D01*
X297710952Y-81473571D01*
X297615714Y-81425952D01*
X297568095Y-81378333D01*
X297520476Y-81283095D01*
X297520476Y-81187857D01*
X297568095Y-81092619D01*
X297615714Y-81045000D01*
X297710952Y-80997380D01*
X297949047Y-80997380D01*
X298091904Y-81045000D01*
X298425238Y-80997380D02*
X298663333Y-81997380D01*
X298853809Y-81283095D01*
X299044285Y-81997380D01*
X299282380Y-80997380D01*
X300091904Y-81330714D02*
X300091904Y-81997380D01*
X299853809Y-80949761D02*
X299615714Y-81664047D01*
X300234761Y-81664047D01*
X300758571Y-81425952D02*
X300663333Y-81378333D01*
X300615714Y-81330714D01*
X300568095Y-81235476D01*
X300568095Y-81187857D01*
X300615714Y-81092619D01*
X300663333Y-81045000D01*
X300758571Y-80997380D01*
X300949047Y-80997380D01*
X301044285Y-81045000D01*
X301091904Y-81092619D01*
X301139523Y-81187857D01*
X301139523Y-81235476D01*
X301091904Y-81330714D01*
X301044285Y-81378333D01*
X300949047Y-81425952D01*
X300758571Y-81425952D01*
X300663333Y-81473571D01*
X300615714Y-81521190D01*
X300568095Y-81616428D01*
X300568095Y-81806904D01*
X300615714Y-81902142D01*
X300663333Y-81949761D01*
X300758571Y-81997380D01*
X300949047Y-81997380D01*
X301044285Y-81949761D01*
X301091904Y-81902142D01*
X301139523Y-81806904D01*
X301139523Y-81616428D01*
X301091904Y-81521190D01*
X301044285Y-81473571D01*
X300949047Y-81425952D01*
%TO.C,SW21*%
X144840476Y-43949761D02*
X144983333Y-43997380D01*
X145221428Y-43997380D01*
X145316666Y-43949761D01*
X145364285Y-43902142D01*
X145411904Y-43806904D01*
X145411904Y-43711666D01*
X145364285Y-43616428D01*
X145316666Y-43568809D01*
X145221428Y-43521190D01*
X145030952Y-43473571D01*
X144935714Y-43425952D01*
X144888095Y-43378333D01*
X144840476Y-43283095D01*
X144840476Y-43187857D01*
X144888095Y-43092619D01*
X144935714Y-43045000D01*
X145030952Y-42997380D01*
X145269047Y-42997380D01*
X145411904Y-43045000D01*
X145745238Y-42997380D02*
X145983333Y-43997380D01*
X146173809Y-43283095D01*
X146364285Y-43997380D01*
X146602380Y-42997380D01*
X146935714Y-43092619D02*
X146983333Y-43045000D01*
X147078571Y-42997380D01*
X147316666Y-42997380D01*
X147411904Y-43045000D01*
X147459523Y-43092619D01*
X147507142Y-43187857D01*
X147507142Y-43283095D01*
X147459523Y-43425952D01*
X146888095Y-43997380D01*
X147507142Y-43997380D01*
X148459523Y-43997380D02*
X147888095Y-43997380D01*
X148173809Y-43997380D02*
X148173809Y-42997380D01*
X148078571Y-43140238D01*
X147983333Y-43235476D01*
X147888095Y-43283095D01*
%TO.C,SW6*%
X88316666Y-43949761D02*
X88459523Y-43997380D01*
X88697619Y-43997380D01*
X88792857Y-43949761D01*
X88840476Y-43902142D01*
X88888095Y-43806904D01*
X88888095Y-43711666D01*
X88840476Y-43616428D01*
X88792857Y-43568809D01*
X88697619Y-43521190D01*
X88507142Y-43473571D01*
X88411904Y-43425952D01*
X88364285Y-43378333D01*
X88316666Y-43283095D01*
X88316666Y-43187857D01*
X88364285Y-43092619D01*
X88411904Y-43045000D01*
X88507142Y-42997380D01*
X88745238Y-42997380D01*
X88888095Y-43045000D01*
X89221428Y-42997380D02*
X89459523Y-43997380D01*
X89650000Y-43283095D01*
X89840476Y-43997380D01*
X90078571Y-42997380D01*
X90888095Y-42997380D02*
X90697619Y-42997380D01*
X90602380Y-43045000D01*
X90554761Y-43092619D01*
X90459523Y-43235476D01*
X90411904Y-43425952D01*
X90411904Y-43806904D01*
X90459523Y-43902142D01*
X90507142Y-43949761D01*
X90602380Y-43997380D01*
X90792857Y-43997380D01*
X90888095Y-43949761D01*
X90935714Y-43902142D01*
X90983333Y-43806904D01*
X90983333Y-43568809D01*
X90935714Y-43473571D01*
X90888095Y-43425952D01*
X90792857Y-43378333D01*
X90602380Y-43378333D01*
X90507142Y-43425952D01*
X90459523Y-43473571D01*
X90411904Y-43568809D01*
%TO.C,R15*%
X211102380Y-134242857D02*
X210626190Y-134576190D01*
X211102380Y-134814285D02*
X210102380Y-134814285D01*
X210102380Y-134433333D01*
X210150000Y-134338095D01*
X210197619Y-134290476D01*
X210292857Y-134242857D01*
X210435714Y-134242857D01*
X210530952Y-134290476D01*
X210578571Y-134338095D01*
X210626190Y-134433333D01*
X210626190Y-134814285D01*
X211102380Y-133290476D02*
X211102380Y-133861904D01*
X211102380Y-133576190D02*
X210102380Y-133576190D01*
X210245238Y-133671428D01*
X210340476Y-133766666D01*
X210388095Y-133861904D01*
X210102380Y-132385714D02*
X210102380Y-132861904D01*
X210578571Y-132909523D01*
X210530952Y-132861904D01*
X210483333Y-132766666D01*
X210483333Y-132528571D01*
X210530952Y-132433333D01*
X210578571Y-132385714D01*
X210673809Y-132338095D01*
X210911904Y-132338095D01*
X211007142Y-132385714D01*
X211054761Y-132433333D01*
X211102380Y-132528571D01*
X211102380Y-132766666D01*
X211054761Y-132861904D01*
X211007142Y-132909523D01*
%TO.C,SW12*%
X106840476Y-62949761D02*
X106983333Y-62997380D01*
X107221428Y-62997380D01*
X107316666Y-62949761D01*
X107364285Y-62902142D01*
X107411904Y-62806904D01*
X107411904Y-62711666D01*
X107364285Y-62616428D01*
X107316666Y-62568809D01*
X107221428Y-62521190D01*
X107030952Y-62473571D01*
X106935714Y-62425952D01*
X106888095Y-62378333D01*
X106840476Y-62283095D01*
X106840476Y-62187857D01*
X106888095Y-62092619D01*
X106935714Y-62045000D01*
X107030952Y-61997380D01*
X107269047Y-61997380D01*
X107411904Y-62045000D01*
X107745238Y-61997380D02*
X107983333Y-62997380D01*
X108173809Y-62283095D01*
X108364285Y-62997380D01*
X108602380Y-61997380D01*
X109507142Y-62997380D02*
X108935714Y-62997380D01*
X109221428Y-62997380D02*
X109221428Y-61997380D01*
X109126190Y-62140238D01*
X109030952Y-62235476D01*
X108935714Y-62283095D01*
X109888095Y-62092619D02*
X109935714Y-62045000D01*
X110030952Y-61997380D01*
X110269047Y-61997380D01*
X110364285Y-62045000D01*
X110411904Y-62092619D01*
X110459523Y-62187857D01*
X110459523Y-62283095D01*
X110411904Y-62425952D01*
X109840476Y-62997380D01*
X110459523Y-62997380D01*
%TO.C,SW55*%
X316520476Y-119949761D02*
X316663333Y-119997380D01*
X316901428Y-119997380D01*
X316996666Y-119949761D01*
X317044285Y-119902142D01*
X317091904Y-119806904D01*
X317091904Y-119711666D01*
X317044285Y-119616428D01*
X316996666Y-119568809D01*
X316901428Y-119521190D01*
X316710952Y-119473571D01*
X316615714Y-119425952D01*
X316568095Y-119378333D01*
X316520476Y-119283095D01*
X316520476Y-119187857D01*
X316568095Y-119092619D01*
X316615714Y-119045000D01*
X316710952Y-118997380D01*
X316949047Y-118997380D01*
X317091904Y-119045000D01*
X317425238Y-118997380D02*
X317663333Y-119997380D01*
X317853809Y-119283095D01*
X318044285Y-119997380D01*
X318282380Y-118997380D01*
X319139523Y-118997380D02*
X318663333Y-118997380D01*
X318615714Y-119473571D01*
X318663333Y-119425952D01*
X318758571Y-119378333D01*
X318996666Y-119378333D01*
X319091904Y-119425952D01*
X319139523Y-119473571D01*
X319187142Y-119568809D01*
X319187142Y-119806904D01*
X319139523Y-119902142D01*
X319091904Y-119949761D01*
X318996666Y-119997380D01*
X318758571Y-119997380D01*
X318663333Y-119949761D01*
X318615714Y-119902142D01*
X320091904Y-118997380D02*
X319615714Y-118997380D01*
X319568095Y-119473571D01*
X319615714Y-119425952D01*
X319710952Y-119378333D01*
X319949047Y-119378333D01*
X320044285Y-119425952D01*
X320091904Y-119473571D01*
X320139523Y-119568809D01*
X320139523Y-119806904D01*
X320091904Y-119902142D01*
X320044285Y-119949761D01*
X319949047Y-119997380D01*
X319710952Y-119997380D01*
X319615714Y-119949761D01*
X319568095Y-119902142D01*
%TO.C,SW43*%
X278520476Y-81949761D02*
X278663333Y-81997380D01*
X278901428Y-81997380D01*
X278996666Y-81949761D01*
X279044285Y-81902142D01*
X279091904Y-81806904D01*
X279091904Y-81711666D01*
X279044285Y-81616428D01*
X278996666Y-81568809D01*
X278901428Y-81521190D01*
X278710952Y-81473571D01*
X278615714Y-81425952D01*
X278568095Y-81378333D01*
X278520476Y-81283095D01*
X278520476Y-81187857D01*
X278568095Y-81092619D01*
X278615714Y-81045000D01*
X278710952Y-80997380D01*
X278949047Y-80997380D01*
X279091904Y-81045000D01*
X279425238Y-80997380D02*
X279663333Y-81997380D01*
X279853809Y-81283095D01*
X280044285Y-81997380D01*
X280282380Y-80997380D01*
X281091904Y-81330714D02*
X281091904Y-81997380D01*
X280853809Y-80949761D02*
X280615714Y-81664047D01*
X281234761Y-81664047D01*
X281520476Y-80997380D02*
X282139523Y-80997380D01*
X281806190Y-81378333D01*
X281949047Y-81378333D01*
X282044285Y-81425952D01*
X282091904Y-81473571D01*
X282139523Y-81568809D01*
X282139523Y-81806904D01*
X282091904Y-81902142D01*
X282044285Y-81949761D01*
X281949047Y-81997380D01*
X281663333Y-81997380D01*
X281568095Y-81949761D01*
X281520476Y-81902142D01*
%TO.C,SW40*%
X259520476Y-119949761D02*
X259663333Y-119997380D01*
X259901428Y-119997380D01*
X259996666Y-119949761D01*
X260044285Y-119902142D01*
X260091904Y-119806904D01*
X260091904Y-119711666D01*
X260044285Y-119616428D01*
X259996666Y-119568809D01*
X259901428Y-119521190D01*
X259710952Y-119473571D01*
X259615714Y-119425952D01*
X259568095Y-119378333D01*
X259520476Y-119283095D01*
X259520476Y-119187857D01*
X259568095Y-119092619D01*
X259615714Y-119045000D01*
X259710952Y-118997380D01*
X259949047Y-118997380D01*
X260091904Y-119045000D01*
X260425238Y-118997380D02*
X260663333Y-119997380D01*
X260853809Y-119283095D01*
X261044285Y-119997380D01*
X261282380Y-118997380D01*
X262091904Y-119330714D02*
X262091904Y-119997380D01*
X261853809Y-118949761D02*
X261615714Y-119664047D01*
X262234761Y-119664047D01*
X262806190Y-118997380D02*
X262901428Y-118997380D01*
X262996666Y-119045000D01*
X263044285Y-119092619D01*
X263091904Y-119187857D01*
X263139523Y-119378333D01*
X263139523Y-119616428D01*
X263091904Y-119806904D01*
X263044285Y-119902142D01*
X262996666Y-119949761D01*
X262901428Y-119997380D01*
X262806190Y-119997380D01*
X262710952Y-119949761D01*
X262663333Y-119902142D01*
X262615714Y-119806904D01*
X262568095Y-119616428D01*
X262568095Y-119378333D01*
X262615714Y-119187857D01*
X262663333Y-119092619D01*
X262710952Y-119045000D01*
X262806190Y-118997380D01*
%TO.C,SW58*%
X335440476Y-81949761D02*
X335583333Y-81997380D01*
X335821428Y-81997380D01*
X335916666Y-81949761D01*
X335964285Y-81902142D01*
X336011904Y-81806904D01*
X336011904Y-81711666D01*
X335964285Y-81616428D01*
X335916666Y-81568809D01*
X335821428Y-81521190D01*
X335630952Y-81473571D01*
X335535714Y-81425952D01*
X335488095Y-81378333D01*
X335440476Y-81283095D01*
X335440476Y-81187857D01*
X335488095Y-81092619D01*
X335535714Y-81045000D01*
X335630952Y-80997380D01*
X335869047Y-80997380D01*
X336011904Y-81045000D01*
X336345238Y-80997380D02*
X336583333Y-81997380D01*
X336773809Y-81283095D01*
X336964285Y-81997380D01*
X337202380Y-80997380D01*
X338059523Y-80997380D02*
X337583333Y-80997380D01*
X337535714Y-81473571D01*
X337583333Y-81425952D01*
X337678571Y-81378333D01*
X337916666Y-81378333D01*
X338011904Y-81425952D01*
X338059523Y-81473571D01*
X338107142Y-81568809D01*
X338107142Y-81806904D01*
X338059523Y-81902142D01*
X338011904Y-81949761D01*
X337916666Y-81997380D01*
X337678571Y-81997380D01*
X337583333Y-81949761D01*
X337535714Y-81902142D01*
X338678571Y-81425952D02*
X338583333Y-81378333D01*
X338535714Y-81330714D01*
X338488095Y-81235476D01*
X338488095Y-81187857D01*
X338535714Y-81092619D01*
X338583333Y-81045000D01*
X338678571Y-80997380D01*
X338869047Y-80997380D01*
X338964285Y-81045000D01*
X339011904Y-81092619D01*
X339059523Y-81187857D01*
X339059523Y-81235476D01*
X339011904Y-81330714D01*
X338964285Y-81378333D01*
X338869047Y-81425952D01*
X338678571Y-81425952D01*
X338583333Y-81473571D01*
X338535714Y-81521190D01*
X338488095Y-81616428D01*
X338488095Y-81806904D01*
X338535714Y-81902142D01*
X338583333Y-81949761D01*
X338678571Y-81997380D01*
X338869047Y-81997380D01*
X338964285Y-81949761D01*
X339011904Y-81902142D01*
X339059523Y-81806904D01*
X339059523Y-81616428D01*
X339011904Y-81521190D01*
X338964285Y-81473571D01*
X338869047Y-81425952D01*
%TO.C,SW61*%
X188990476Y-130204761D02*
X189133333Y-130252380D01*
X189371428Y-130252380D01*
X189466666Y-130204761D01*
X189514285Y-130157142D01*
X189561904Y-130061904D01*
X189561904Y-129966666D01*
X189514285Y-129871428D01*
X189466666Y-129823809D01*
X189371428Y-129776190D01*
X189180952Y-129728571D01*
X189085714Y-129680952D01*
X189038095Y-129633333D01*
X188990476Y-129538095D01*
X188990476Y-129442857D01*
X189038095Y-129347619D01*
X189085714Y-129300000D01*
X189180952Y-129252380D01*
X189419047Y-129252380D01*
X189561904Y-129300000D01*
X189895238Y-129252380D02*
X190133333Y-130252380D01*
X190323809Y-129538095D01*
X190514285Y-130252380D01*
X190752380Y-129252380D01*
X191561904Y-129252380D02*
X191371428Y-129252380D01*
X191276190Y-129300000D01*
X191228571Y-129347619D01*
X191133333Y-129490476D01*
X191085714Y-129680952D01*
X191085714Y-130061904D01*
X191133333Y-130157142D01*
X191180952Y-130204761D01*
X191276190Y-130252380D01*
X191466666Y-130252380D01*
X191561904Y-130204761D01*
X191609523Y-130157142D01*
X191657142Y-130061904D01*
X191657142Y-129823809D01*
X191609523Y-129728571D01*
X191561904Y-129680952D01*
X191466666Y-129633333D01*
X191276190Y-129633333D01*
X191180952Y-129680952D01*
X191133333Y-129728571D01*
X191085714Y-129823809D01*
X192609523Y-130252380D02*
X192038095Y-130252380D01*
X192323809Y-130252380D02*
X192323809Y-129252380D01*
X192228571Y-129395238D01*
X192133333Y-129490476D01*
X192038095Y-129538095D01*
X189347619Y-136652380D02*
X189014285Y-136176190D01*
X188776190Y-136652380D02*
X188776190Y-135652380D01*
X189157142Y-135652380D01*
X189252380Y-135700000D01*
X189300000Y-135747619D01*
X189347619Y-135842857D01*
X189347619Y-135985714D01*
X189300000Y-136080952D01*
X189252380Y-136128571D01*
X189157142Y-136176190D01*
X188776190Y-136176190D01*
X189776190Y-136128571D02*
X190109523Y-136128571D01*
X190252380Y-136652380D02*
X189776190Y-136652380D01*
X189776190Y-135652380D01*
X190252380Y-135652380D01*
X190633333Y-136604761D02*
X190776190Y-136652380D01*
X191014285Y-136652380D01*
X191109523Y-136604761D01*
X191157142Y-136557142D01*
X191204761Y-136461904D01*
X191204761Y-136366666D01*
X191157142Y-136271428D01*
X191109523Y-136223809D01*
X191014285Y-136176190D01*
X190823809Y-136128571D01*
X190728571Y-136080952D01*
X190680952Y-136033333D01*
X190633333Y-135938095D01*
X190633333Y-135842857D01*
X190680952Y-135747619D01*
X190728571Y-135700000D01*
X190823809Y-135652380D01*
X191061904Y-135652380D01*
X191204761Y-135700000D01*
X191633333Y-136128571D02*
X191966666Y-136128571D01*
X192109523Y-136652380D02*
X191633333Y-136652380D01*
X191633333Y-135652380D01*
X192109523Y-135652380D01*
X192395238Y-135652380D02*
X192966666Y-135652380D01*
X192680952Y-136652380D02*
X192680952Y-135652380D01*
%TO.C,SW3*%
X69316666Y-81949761D02*
X69459523Y-81997380D01*
X69697619Y-81997380D01*
X69792857Y-81949761D01*
X69840476Y-81902142D01*
X69888095Y-81806904D01*
X69888095Y-81711666D01*
X69840476Y-81616428D01*
X69792857Y-81568809D01*
X69697619Y-81521190D01*
X69507142Y-81473571D01*
X69411904Y-81425952D01*
X69364285Y-81378333D01*
X69316666Y-81283095D01*
X69316666Y-81187857D01*
X69364285Y-81092619D01*
X69411904Y-81045000D01*
X69507142Y-80997380D01*
X69745238Y-80997380D01*
X69888095Y-81045000D01*
X70221428Y-80997380D02*
X70459523Y-81997380D01*
X70650000Y-81283095D01*
X70840476Y-81997380D01*
X71078571Y-80997380D01*
X71364285Y-80997380D02*
X71983333Y-80997380D01*
X71650000Y-81378333D01*
X71792857Y-81378333D01*
X71888095Y-81425952D01*
X71935714Y-81473571D01*
X71983333Y-81568809D01*
X71983333Y-81806904D01*
X71935714Y-81902142D01*
X71888095Y-81949761D01*
X71792857Y-81997380D01*
X71507142Y-81997380D01*
X71411904Y-81949761D01*
X71364285Y-81902142D01*
%TO.C,SW52*%
X316520476Y-62949761D02*
X316663333Y-62997380D01*
X316901428Y-62997380D01*
X316996666Y-62949761D01*
X317044285Y-62902142D01*
X317091904Y-62806904D01*
X317091904Y-62711666D01*
X317044285Y-62616428D01*
X316996666Y-62568809D01*
X316901428Y-62521190D01*
X316710952Y-62473571D01*
X316615714Y-62425952D01*
X316568095Y-62378333D01*
X316520476Y-62283095D01*
X316520476Y-62187857D01*
X316568095Y-62092619D01*
X316615714Y-62045000D01*
X316710952Y-61997380D01*
X316949047Y-61997380D01*
X317091904Y-62045000D01*
X317425238Y-61997380D02*
X317663333Y-62997380D01*
X317853809Y-62283095D01*
X318044285Y-62997380D01*
X318282380Y-61997380D01*
X319139523Y-61997380D02*
X318663333Y-61997380D01*
X318615714Y-62473571D01*
X318663333Y-62425952D01*
X318758571Y-62378333D01*
X318996666Y-62378333D01*
X319091904Y-62425952D01*
X319139523Y-62473571D01*
X319187142Y-62568809D01*
X319187142Y-62806904D01*
X319139523Y-62902142D01*
X319091904Y-62949761D01*
X318996666Y-62997380D01*
X318758571Y-62997380D01*
X318663333Y-62949761D01*
X318615714Y-62902142D01*
X319568095Y-62092619D02*
X319615714Y-62045000D01*
X319710952Y-61997380D01*
X319949047Y-61997380D01*
X320044285Y-62045000D01*
X320091904Y-62092619D01*
X320139523Y-62187857D01*
X320139523Y-62283095D01*
X320091904Y-62425952D01*
X319520476Y-62997380D01*
X320139523Y-62997380D01*
%TO.C,SW14*%
X106840476Y-100949761D02*
X106983333Y-100997380D01*
X107221428Y-100997380D01*
X107316666Y-100949761D01*
X107364285Y-100902142D01*
X107411904Y-100806904D01*
X107411904Y-100711666D01*
X107364285Y-100616428D01*
X107316666Y-100568809D01*
X107221428Y-100521190D01*
X107030952Y-100473571D01*
X106935714Y-100425952D01*
X106888095Y-100378333D01*
X106840476Y-100283095D01*
X106840476Y-100187857D01*
X106888095Y-100092619D01*
X106935714Y-100045000D01*
X107030952Y-99997380D01*
X107269047Y-99997380D01*
X107411904Y-100045000D01*
X107745238Y-99997380D02*
X107983333Y-100997380D01*
X108173809Y-100283095D01*
X108364285Y-100997380D01*
X108602380Y-99997380D01*
X109507142Y-100997380D02*
X108935714Y-100997380D01*
X109221428Y-100997380D02*
X109221428Y-99997380D01*
X109126190Y-100140238D01*
X109030952Y-100235476D01*
X108935714Y-100283095D01*
X110364285Y-100330714D02*
X110364285Y-100997380D01*
X110126190Y-99949761D02*
X109888095Y-100664047D01*
X110507142Y-100664047D01*
%TO.C,U2*%
X184252380Y-105061904D02*
X185061904Y-105061904D01*
X185157142Y-105014285D01*
X185204761Y-104966666D01*
X185252380Y-104871428D01*
X185252380Y-104680952D01*
X185204761Y-104585714D01*
X185157142Y-104538095D01*
X185061904Y-104490476D01*
X184252380Y-104490476D01*
X184347619Y-104061904D02*
X184300000Y-104014285D01*
X184252380Y-103919047D01*
X184252380Y-103680952D01*
X184300000Y-103585714D01*
X184347619Y-103538095D01*
X184442857Y-103490476D01*
X184538095Y-103490476D01*
X184680952Y-103538095D01*
X185252380Y-104109523D01*
X185252380Y-103490476D01*
%TO.C,SW33*%
X240520476Y-81949761D02*
X240663333Y-81997380D01*
X240901428Y-81997380D01*
X240996666Y-81949761D01*
X241044285Y-81902142D01*
X241091904Y-81806904D01*
X241091904Y-81711666D01*
X241044285Y-81616428D01*
X240996666Y-81568809D01*
X240901428Y-81521190D01*
X240710952Y-81473571D01*
X240615714Y-81425952D01*
X240568095Y-81378333D01*
X240520476Y-81283095D01*
X240520476Y-81187857D01*
X240568095Y-81092619D01*
X240615714Y-81045000D01*
X240710952Y-80997380D01*
X240949047Y-80997380D01*
X241091904Y-81045000D01*
X241425238Y-80997380D02*
X241663333Y-81997380D01*
X241853809Y-81283095D01*
X242044285Y-81997380D01*
X242282380Y-80997380D01*
X242568095Y-80997380D02*
X243187142Y-80997380D01*
X242853809Y-81378333D01*
X242996666Y-81378333D01*
X243091904Y-81425952D01*
X243139523Y-81473571D01*
X243187142Y-81568809D01*
X243187142Y-81806904D01*
X243139523Y-81902142D01*
X243091904Y-81949761D01*
X242996666Y-81997380D01*
X242710952Y-81997380D01*
X242615714Y-81949761D01*
X242568095Y-81902142D01*
X243520476Y-80997380D02*
X244139523Y-80997380D01*
X243806190Y-81378333D01*
X243949047Y-81378333D01*
X244044285Y-81425952D01*
X244091904Y-81473571D01*
X244139523Y-81568809D01*
X244139523Y-81806904D01*
X244091904Y-81902142D01*
X244044285Y-81949761D01*
X243949047Y-81997380D01*
X243663333Y-81997380D01*
X243568095Y-81949761D01*
X243520476Y-81902142D01*
%TO.C,C2*%
X186683333Y-95707142D02*
X186635714Y-95754761D01*
X186492857Y-95802380D01*
X186397619Y-95802380D01*
X186254761Y-95754761D01*
X186159523Y-95659523D01*
X186111904Y-95564285D01*
X186064285Y-95373809D01*
X186064285Y-95230952D01*
X186111904Y-95040476D01*
X186159523Y-94945238D01*
X186254761Y-94850000D01*
X186397619Y-94802380D01*
X186492857Y-94802380D01*
X186635714Y-94850000D01*
X186683333Y-94897619D01*
X187064285Y-94897619D02*
X187111904Y-94850000D01*
X187207142Y-94802380D01*
X187445238Y-94802380D01*
X187540476Y-94850000D01*
X187588095Y-94897619D01*
X187635714Y-94992857D01*
X187635714Y-95088095D01*
X187588095Y-95230952D01*
X187016666Y-95802380D01*
X187635714Y-95802380D01*
%TO.C,SW62*%
X200640476Y-130204761D02*
X200783333Y-130252380D01*
X201021428Y-130252380D01*
X201116666Y-130204761D01*
X201164285Y-130157142D01*
X201211904Y-130061904D01*
X201211904Y-129966666D01*
X201164285Y-129871428D01*
X201116666Y-129823809D01*
X201021428Y-129776190D01*
X200830952Y-129728571D01*
X200735714Y-129680952D01*
X200688095Y-129633333D01*
X200640476Y-129538095D01*
X200640476Y-129442857D01*
X200688095Y-129347619D01*
X200735714Y-129300000D01*
X200830952Y-129252380D01*
X201069047Y-129252380D01*
X201211904Y-129300000D01*
X201545238Y-129252380D02*
X201783333Y-130252380D01*
X201973809Y-129538095D01*
X202164285Y-130252380D01*
X202402380Y-129252380D01*
X203211904Y-129252380D02*
X203021428Y-129252380D01*
X202926190Y-129300000D01*
X202878571Y-129347619D01*
X202783333Y-129490476D01*
X202735714Y-129680952D01*
X202735714Y-130061904D01*
X202783333Y-130157142D01*
X202830952Y-130204761D01*
X202926190Y-130252380D01*
X203116666Y-130252380D01*
X203211904Y-130204761D01*
X203259523Y-130157142D01*
X203307142Y-130061904D01*
X203307142Y-129823809D01*
X203259523Y-129728571D01*
X203211904Y-129680952D01*
X203116666Y-129633333D01*
X202926190Y-129633333D01*
X202830952Y-129680952D01*
X202783333Y-129728571D01*
X202735714Y-129823809D01*
X203688095Y-129347619D02*
X203735714Y-129300000D01*
X203830952Y-129252380D01*
X204069047Y-129252380D01*
X204164285Y-129300000D01*
X204211904Y-129347619D01*
X204259523Y-129442857D01*
X204259523Y-129538095D01*
X204211904Y-129680952D01*
X203640476Y-130252380D01*
X204259523Y-130252380D01*
X201092857Y-136128571D02*
X201235714Y-136176190D01*
X201283333Y-136223809D01*
X201330952Y-136319047D01*
X201330952Y-136461904D01*
X201283333Y-136557142D01*
X201235714Y-136604761D01*
X201140476Y-136652380D01*
X200759523Y-136652380D01*
X200759523Y-135652380D01*
X201092857Y-135652380D01*
X201188095Y-135700000D01*
X201235714Y-135747619D01*
X201283333Y-135842857D01*
X201283333Y-135938095D01*
X201235714Y-136033333D01*
X201188095Y-136080952D01*
X201092857Y-136128571D01*
X200759523Y-136128571D01*
X201950000Y-135652380D02*
X202140476Y-135652380D01*
X202235714Y-135700000D01*
X202330952Y-135795238D01*
X202378571Y-135985714D01*
X202378571Y-136319047D01*
X202330952Y-136509523D01*
X202235714Y-136604761D01*
X202140476Y-136652380D01*
X201950000Y-136652380D01*
X201854761Y-136604761D01*
X201759523Y-136509523D01*
X201711904Y-136319047D01*
X201711904Y-135985714D01*
X201759523Y-135795238D01*
X201854761Y-135700000D01*
X201950000Y-135652380D01*
X202997619Y-135652380D02*
X203188095Y-135652380D01*
X203283333Y-135700000D01*
X203378571Y-135795238D01*
X203426190Y-135985714D01*
X203426190Y-136319047D01*
X203378571Y-136509523D01*
X203283333Y-136604761D01*
X203188095Y-136652380D01*
X202997619Y-136652380D01*
X202902380Y-136604761D01*
X202807142Y-136509523D01*
X202759523Y-136319047D01*
X202759523Y-135985714D01*
X202807142Y-135795238D01*
X202902380Y-135700000D01*
X202997619Y-135652380D01*
X203711904Y-135652380D02*
X204283333Y-135652380D01*
X203997619Y-136652380D02*
X203997619Y-135652380D01*
%TO.C,C3*%
X199233333Y-95607142D02*
X199185714Y-95654761D01*
X199042857Y-95702380D01*
X198947619Y-95702380D01*
X198804761Y-95654761D01*
X198709523Y-95559523D01*
X198661904Y-95464285D01*
X198614285Y-95273809D01*
X198614285Y-95130952D01*
X198661904Y-94940476D01*
X198709523Y-94845238D01*
X198804761Y-94750000D01*
X198947619Y-94702380D01*
X199042857Y-94702380D01*
X199185714Y-94750000D01*
X199233333Y-94797619D01*
X199566666Y-94702380D02*
X200185714Y-94702380D01*
X199852380Y-95083333D01*
X199995238Y-95083333D01*
X200090476Y-95130952D01*
X200138095Y-95178571D01*
X200185714Y-95273809D01*
X200185714Y-95511904D01*
X200138095Y-95607142D01*
X200090476Y-95654761D01*
X199995238Y-95702380D01*
X199709523Y-95702380D01*
X199614285Y-95654761D01*
X199566666Y-95607142D01*
%TO.C,SW46*%
X297520476Y-43949761D02*
X297663333Y-43997380D01*
X297901428Y-43997380D01*
X297996666Y-43949761D01*
X298044285Y-43902142D01*
X298091904Y-43806904D01*
X298091904Y-43711666D01*
X298044285Y-43616428D01*
X297996666Y-43568809D01*
X297901428Y-43521190D01*
X297710952Y-43473571D01*
X297615714Y-43425952D01*
X297568095Y-43378333D01*
X297520476Y-43283095D01*
X297520476Y-43187857D01*
X297568095Y-43092619D01*
X297615714Y-43045000D01*
X297710952Y-42997380D01*
X297949047Y-42997380D01*
X298091904Y-43045000D01*
X298425238Y-42997380D02*
X298663333Y-43997380D01*
X298853809Y-43283095D01*
X299044285Y-43997380D01*
X299282380Y-42997380D01*
X300091904Y-43330714D02*
X300091904Y-43997380D01*
X299853809Y-42949761D02*
X299615714Y-43664047D01*
X300234761Y-43664047D01*
X301044285Y-42997380D02*
X300853809Y-42997380D01*
X300758571Y-43045000D01*
X300710952Y-43092619D01*
X300615714Y-43235476D01*
X300568095Y-43425952D01*
X300568095Y-43806904D01*
X300615714Y-43902142D01*
X300663333Y-43949761D01*
X300758571Y-43997380D01*
X300949047Y-43997380D01*
X301044285Y-43949761D01*
X301091904Y-43902142D01*
X301139523Y-43806904D01*
X301139523Y-43568809D01*
X301091904Y-43473571D01*
X301044285Y-43425952D01*
X300949047Y-43378333D01*
X300758571Y-43378333D01*
X300663333Y-43425952D01*
X300615714Y-43473571D01*
X300568095Y-43568809D01*
%TO.C,SW4*%
X69316666Y-100949761D02*
X69459523Y-100997380D01*
X69697619Y-100997380D01*
X69792857Y-100949761D01*
X69840476Y-100902142D01*
X69888095Y-100806904D01*
X69888095Y-100711666D01*
X69840476Y-100616428D01*
X69792857Y-100568809D01*
X69697619Y-100521190D01*
X69507142Y-100473571D01*
X69411904Y-100425952D01*
X69364285Y-100378333D01*
X69316666Y-100283095D01*
X69316666Y-100187857D01*
X69364285Y-100092619D01*
X69411904Y-100045000D01*
X69507142Y-99997380D01*
X69745238Y-99997380D01*
X69888095Y-100045000D01*
X70221428Y-99997380D02*
X70459523Y-100997380D01*
X70650000Y-100283095D01*
X70840476Y-100997380D01*
X71078571Y-99997380D01*
X71888095Y-100330714D02*
X71888095Y-100997380D01*
X71650000Y-99949761D02*
X71411904Y-100664047D01*
X72030952Y-100664047D01*
%TO.C,SW18*%
X125840476Y-81949761D02*
X125983333Y-81997380D01*
X126221428Y-81997380D01*
X126316666Y-81949761D01*
X126364285Y-81902142D01*
X126411904Y-81806904D01*
X126411904Y-81711666D01*
X126364285Y-81616428D01*
X126316666Y-81568809D01*
X126221428Y-81521190D01*
X126030952Y-81473571D01*
X125935714Y-81425952D01*
X125888095Y-81378333D01*
X125840476Y-81283095D01*
X125840476Y-81187857D01*
X125888095Y-81092619D01*
X125935714Y-81045000D01*
X126030952Y-80997380D01*
X126269047Y-80997380D01*
X126411904Y-81045000D01*
X126745238Y-80997380D02*
X126983333Y-81997380D01*
X127173809Y-81283095D01*
X127364285Y-81997380D01*
X127602380Y-80997380D01*
X128507142Y-81997380D02*
X127935714Y-81997380D01*
X128221428Y-81997380D02*
X128221428Y-80997380D01*
X128126190Y-81140238D01*
X128030952Y-81235476D01*
X127935714Y-81283095D01*
X129078571Y-81425952D02*
X128983333Y-81378333D01*
X128935714Y-81330714D01*
X128888095Y-81235476D01*
X128888095Y-81187857D01*
X128935714Y-81092619D01*
X128983333Y-81045000D01*
X129078571Y-80997380D01*
X129269047Y-80997380D01*
X129364285Y-81045000D01*
X129411904Y-81092619D01*
X129459523Y-81187857D01*
X129459523Y-81235476D01*
X129411904Y-81330714D01*
X129364285Y-81378333D01*
X129269047Y-81425952D01*
X129078571Y-81425952D01*
X128983333Y-81473571D01*
X128935714Y-81521190D01*
X128888095Y-81616428D01*
X128888095Y-81806904D01*
X128935714Y-81902142D01*
X128983333Y-81949761D01*
X129078571Y-81997380D01*
X129269047Y-81997380D01*
X129364285Y-81949761D01*
X129411904Y-81902142D01*
X129459523Y-81806904D01*
X129459523Y-81616428D01*
X129411904Y-81521190D01*
X129364285Y-81473571D01*
X129269047Y-81425952D01*
%TO.C,SW37*%
X259520476Y-62949761D02*
X259663333Y-62997380D01*
X259901428Y-62997380D01*
X259996666Y-62949761D01*
X260044285Y-62902142D01*
X260091904Y-62806904D01*
X260091904Y-62711666D01*
X260044285Y-62616428D01*
X259996666Y-62568809D01*
X259901428Y-62521190D01*
X259710952Y-62473571D01*
X259615714Y-62425952D01*
X259568095Y-62378333D01*
X259520476Y-62283095D01*
X259520476Y-62187857D01*
X259568095Y-62092619D01*
X259615714Y-62045000D01*
X259710952Y-61997380D01*
X259949047Y-61997380D01*
X260091904Y-62045000D01*
X260425238Y-61997380D02*
X260663333Y-62997380D01*
X260853809Y-62283095D01*
X261044285Y-62997380D01*
X261282380Y-61997380D01*
X261568095Y-61997380D02*
X262187142Y-61997380D01*
X261853809Y-62378333D01*
X261996666Y-62378333D01*
X262091904Y-62425952D01*
X262139523Y-62473571D01*
X262187142Y-62568809D01*
X262187142Y-62806904D01*
X262139523Y-62902142D01*
X262091904Y-62949761D01*
X261996666Y-62997380D01*
X261710952Y-62997380D01*
X261615714Y-62949761D01*
X261568095Y-62902142D01*
X262520476Y-61997380D02*
X263187142Y-61997380D01*
X262758571Y-62997380D01*
%TO.C,SW53*%
X316520476Y-81949761D02*
X316663333Y-81997380D01*
X316901428Y-81997380D01*
X316996666Y-81949761D01*
X317044285Y-81902142D01*
X317091904Y-81806904D01*
X317091904Y-81711666D01*
X317044285Y-81616428D01*
X316996666Y-81568809D01*
X316901428Y-81521190D01*
X316710952Y-81473571D01*
X316615714Y-81425952D01*
X316568095Y-81378333D01*
X316520476Y-81283095D01*
X316520476Y-81187857D01*
X316568095Y-81092619D01*
X316615714Y-81045000D01*
X316710952Y-80997380D01*
X316949047Y-80997380D01*
X317091904Y-81045000D01*
X317425238Y-80997380D02*
X317663333Y-81997380D01*
X317853809Y-81283095D01*
X318044285Y-81997380D01*
X318282380Y-80997380D01*
X319139523Y-80997380D02*
X318663333Y-80997380D01*
X318615714Y-81473571D01*
X318663333Y-81425952D01*
X318758571Y-81378333D01*
X318996666Y-81378333D01*
X319091904Y-81425952D01*
X319139523Y-81473571D01*
X319187142Y-81568809D01*
X319187142Y-81806904D01*
X319139523Y-81902142D01*
X319091904Y-81949761D01*
X318996666Y-81997380D01*
X318758571Y-81997380D01*
X318663333Y-81949761D01*
X318615714Y-81902142D01*
X319520476Y-80997380D02*
X320139523Y-80997380D01*
X319806190Y-81378333D01*
X319949047Y-81378333D01*
X320044285Y-81425952D01*
X320091904Y-81473571D01*
X320139523Y-81568809D01*
X320139523Y-81806904D01*
X320091904Y-81902142D01*
X320044285Y-81949761D01*
X319949047Y-81997380D01*
X319663333Y-81997380D01*
X319568095Y-81949761D01*
X319520476Y-81902142D01*
%TO.C,SW54*%
X316520476Y-100949761D02*
X316663333Y-100997380D01*
X316901428Y-100997380D01*
X316996666Y-100949761D01*
X317044285Y-100902142D01*
X317091904Y-100806904D01*
X317091904Y-100711666D01*
X317044285Y-100616428D01*
X316996666Y-100568809D01*
X316901428Y-100521190D01*
X316710952Y-100473571D01*
X316615714Y-100425952D01*
X316568095Y-100378333D01*
X316520476Y-100283095D01*
X316520476Y-100187857D01*
X316568095Y-100092619D01*
X316615714Y-100045000D01*
X316710952Y-99997380D01*
X316949047Y-99997380D01*
X317091904Y-100045000D01*
X317425238Y-99997380D02*
X317663333Y-100997380D01*
X317853809Y-100283095D01*
X318044285Y-100997380D01*
X318282380Y-99997380D01*
X319139523Y-99997380D02*
X318663333Y-99997380D01*
X318615714Y-100473571D01*
X318663333Y-100425952D01*
X318758571Y-100378333D01*
X318996666Y-100378333D01*
X319091904Y-100425952D01*
X319139523Y-100473571D01*
X319187142Y-100568809D01*
X319187142Y-100806904D01*
X319139523Y-100902142D01*
X319091904Y-100949761D01*
X318996666Y-100997380D01*
X318758571Y-100997380D01*
X318663333Y-100949761D01*
X318615714Y-100902142D01*
X320044285Y-100330714D02*
X320044285Y-100997380D01*
X319806190Y-99949761D02*
X319568095Y-100664047D01*
X320187142Y-100664047D01*
%TO.C,SW50*%
X297520476Y-119949761D02*
X297663333Y-119997380D01*
X297901428Y-119997380D01*
X297996666Y-119949761D01*
X298044285Y-119902142D01*
X298091904Y-119806904D01*
X298091904Y-119711666D01*
X298044285Y-119616428D01*
X297996666Y-119568809D01*
X297901428Y-119521190D01*
X297710952Y-119473571D01*
X297615714Y-119425952D01*
X297568095Y-119378333D01*
X297520476Y-119283095D01*
X297520476Y-119187857D01*
X297568095Y-119092619D01*
X297615714Y-119045000D01*
X297710952Y-118997380D01*
X297949047Y-118997380D01*
X298091904Y-119045000D01*
X298425238Y-118997380D02*
X298663333Y-119997380D01*
X298853809Y-119283095D01*
X299044285Y-119997380D01*
X299282380Y-118997380D01*
X300139523Y-118997380D02*
X299663333Y-118997380D01*
X299615714Y-119473571D01*
X299663333Y-119425952D01*
X299758571Y-119378333D01*
X299996666Y-119378333D01*
X300091904Y-119425952D01*
X300139523Y-119473571D01*
X300187142Y-119568809D01*
X300187142Y-119806904D01*
X300139523Y-119902142D01*
X300091904Y-119949761D01*
X299996666Y-119997380D01*
X299758571Y-119997380D01*
X299663333Y-119949761D01*
X299615714Y-119902142D01*
X300806190Y-118997380D02*
X300901428Y-118997380D01*
X300996666Y-119045000D01*
X301044285Y-119092619D01*
X301091904Y-119187857D01*
X301139523Y-119378333D01*
X301139523Y-119616428D01*
X301091904Y-119806904D01*
X301044285Y-119902142D01*
X300996666Y-119949761D01*
X300901428Y-119997380D01*
X300806190Y-119997380D01*
X300710952Y-119949761D01*
X300663333Y-119902142D01*
X300615714Y-119806904D01*
X300568095Y-119616428D01*
X300568095Y-119378333D01*
X300615714Y-119187857D01*
X300663333Y-119092619D01*
X300710952Y-119045000D01*
X300806190Y-118997380D01*
%TO.C,SW25*%
X144840476Y-119949761D02*
X144983333Y-119997380D01*
X145221428Y-119997380D01*
X145316666Y-119949761D01*
X145364285Y-119902142D01*
X145411904Y-119806904D01*
X145411904Y-119711666D01*
X145364285Y-119616428D01*
X145316666Y-119568809D01*
X145221428Y-119521190D01*
X145030952Y-119473571D01*
X144935714Y-119425952D01*
X144888095Y-119378333D01*
X144840476Y-119283095D01*
X144840476Y-119187857D01*
X144888095Y-119092619D01*
X144935714Y-119045000D01*
X145030952Y-118997380D01*
X145269047Y-118997380D01*
X145411904Y-119045000D01*
X145745238Y-118997380D02*
X145983333Y-119997380D01*
X146173809Y-119283095D01*
X146364285Y-119997380D01*
X146602380Y-118997380D01*
X146935714Y-119092619D02*
X146983333Y-119045000D01*
X147078571Y-118997380D01*
X147316666Y-118997380D01*
X147411904Y-119045000D01*
X147459523Y-119092619D01*
X147507142Y-119187857D01*
X147507142Y-119283095D01*
X147459523Y-119425952D01*
X146888095Y-119997380D01*
X147507142Y-119997380D01*
X148411904Y-118997380D02*
X147935714Y-118997380D01*
X147888095Y-119473571D01*
X147935714Y-119425952D01*
X148030952Y-119378333D01*
X148269047Y-119378333D01*
X148364285Y-119425952D01*
X148411904Y-119473571D01*
X148459523Y-119568809D01*
X148459523Y-119806904D01*
X148411904Y-119902142D01*
X148364285Y-119949761D01*
X148269047Y-119997380D01*
X148030952Y-119997380D01*
X147935714Y-119949761D01*
X147888095Y-119902142D01*
%TO.C,SW36*%
X259520476Y-43949761D02*
X259663333Y-43997380D01*
X259901428Y-43997380D01*
X259996666Y-43949761D01*
X260044285Y-43902142D01*
X260091904Y-43806904D01*
X260091904Y-43711666D01*
X260044285Y-43616428D01*
X259996666Y-43568809D01*
X259901428Y-43521190D01*
X259710952Y-43473571D01*
X259615714Y-43425952D01*
X259568095Y-43378333D01*
X259520476Y-43283095D01*
X259520476Y-43187857D01*
X259568095Y-43092619D01*
X259615714Y-43045000D01*
X259710952Y-42997380D01*
X259949047Y-42997380D01*
X260091904Y-43045000D01*
X260425238Y-42997380D02*
X260663333Y-43997380D01*
X260853809Y-43283095D01*
X261044285Y-43997380D01*
X261282380Y-42997380D01*
X261568095Y-42997380D02*
X262187142Y-42997380D01*
X261853809Y-43378333D01*
X261996666Y-43378333D01*
X262091904Y-43425952D01*
X262139523Y-43473571D01*
X262187142Y-43568809D01*
X262187142Y-43806904D01*
X262139523Y-43902142D01*
X262091904Y-43949761D01*
X261996666Y-43997380D01*
X261710952Y-43997380D01*
X261615714Y-43949761D01*
X261568095Y-43902142D01*
X263044285Y-42997380D02*
X262853809Y-42997380D01*
X262758571Y-43045000D01*
X262710952Y-43092619D01*
X262615714Y-43235476D01*
X262568095Y-43425952D01*
X262568095Y-43806904D01*
X262615714Y-43902142D01*
X262663333Y-43949761D01*
X262758571Y-43997380D01*
X262949047Y-43997380D01*
X263044285Y-43949761D01*
X263091904Y-43902142D01*
X263139523Y-43806904D01*
X263139523Y-43568809D01*
X263091904Y-43473571D01*
X263044285Y-43425952D01*
X262949047Y-43378333D01*
X262758571Y-43378333D01*
X262663333Y-43425952D01*
X262615714Y-43473571D01*
X262568095Y-43568809D01*
%TO.C,R18*%
X204202380Y-60342857D02*
X203726190Y-60676190D01*
X204202380Y-60914285D02*
X203202380Y-60914285D01*
X203202380Y-60533333D01*
X203250000Y-60438095D01*
X203297619Y-60390476D01*
X203392857Y-60342857D01*
X203535714Y-60342857D01*
X203630952Y-60390476D01*
X203678571Y-60438095D01*
X203726190Y-60533333D01*
X203726190Y-60914285D01*
X204202380Y-59390476D02*
X204202380Y-59961904D01*
X204202380Y-59676190D02*
X203202380Y-59676190D01*
X203345238Y-59771428D01*
X203440476Y-59866666D01*
X203488095Y-59961904D01*
X203630952Y-58819047D02*
X203583333Y-58914285D01*
X203535714Y-58961904D01*
X203440476Y-59009523D01*
X203392857Y-59009523D01*
X203297619Y-58961904D01*
X203250000Y-58914285D01*
X203202380Y-58819047D01*
X203202380Y-58628571D01*
X203250000Y-58533333D01*
X203297619Y-58485714D01*
X203392857Y-58438095D01*
X203440476Y-58438095D01*
X203535714Y-58485714D01*
X203583333Y-58533333D01*
X203630952Y-58628571D01*
X203630952Y-58819047D01*
X203678571Y-58914285D01*
X203726190Y-58961904D01*
X203821428Y-59009523D01*
X204011904Y-59009523D01*
X204107142Y-58961904D01*
X204154761Y-58914285D01*
X204202380Y-58819047D01*
X204202380Y-58628571D01*
X204154761Y-58533333D01*
X204107142Y-58485714D01*
X204011904Y-58438095D01*
X203821428Y-58438095D01*
X203726190Y-58485714D01*
X203678571Y-58533333D01*
X203630952Y-58628571D01*
%TO.C,SW26*%
X163840476Y-43949761D02*
X163983333Y-43997380D01*
X164221428Y-43997380D01*
X164316666Y-43949761D01*
X164364285Y-43902142D01*
X164411904Y-43806904D01*
X164411904Y-43711666D01*
X164364285Y-43616428D01*
X164316666Y-43568809D01*
X164221428Y-43521190D01*
X164030952Y-43473571D01*
X163935714Y-43425952D01*
X163888095Y-43378333D01*
X163840476Y-43283095D01*
X163840476Y-43187857D01*
X163888095Y-43092619D01*
X163935714Y-43045000D01*
X164030952Y-42997380D01*
X164269047Y-42997380D01*
X164411904Y-43045000D01*
X164745238Y-42997380D02*
X164983333Y-43997380D01*
X165173809Y-43283095D01*
X165364285Y-43997380D01*
X165602380Y-42997380D01*
X165935714Y-43092619D02*
X165983333Y-43045000D01*
X166078571Y-42997380D01*
X166316666Y-42997380D01*
X166411904Y-43045000D01*
X166459523Y-43092619D01*
X166507142Y-43187857D01*
X166507142Y-43283095D01*
X166459523Y-43425952D01*
X165888095Y-43997380D01*
X166507142Y-43997380D01*
X167364285Y-42997380D02*
X167173809Y-42997380D01*
X167078571Y-43045000D01*
X167030952Y-43092619D01*
X166935714Y-43235476D01*
X166888095Y-43425952D01*
X166888095Y-43806904D01*
X166935714Y-43902142D01*
X166983333Y-43949761D01*
X167078571Y-43997380D01*
X167269047Y-43997380D01*
X167364285Y-43949761D01*
X167411904Y-43902142D01*
X167459523Y-43806904D01*
X167459523Y-43568809D01*
X167411904Y-43473571D01*
X167364285Y-43425952D01*
X167269047Y-43378333D01*
X167078571Y-43378333D01*
X166983333Y-43425952D01*
X166935714Y-43473571D01*
X166888095Y-43568809D01*
%TO.C,SW34*%
X240520476Y-100949761D02*
X240663333Y-100997380D01*
X240901428Y-100997380D01*
X240996666Y-100949761D01*
X241044285Y-100902142D01*
X241091904Y-100806904D01*
X241091904Y-100711666D01*
X241044285Y-100616428D01*
X240996666Y-100568809D01*
X240901428Y-100521190D01*
X240710952Y-100473571D01*
X240615714Y-100425952D01*
X240568095Y-100378333D01*
X240520476Y-100283095D01*
X240520476Y-100187857D01*
X240568095Y-100092619D01*
X240615714Y-100045000D01*
X240710952Y-99997380D01*
X240949047Y-99997380D01*
X241091904Y-100045000D01*
X241425238Y-99997380D02*
X241663333Y-100997380D01*
X241853809Y-100283095D01*
X242044285Y-100997380D01*
X242282380Y-99997380D01*
X242568095Y-99997380D02*
X243187142Y-99997380D01*
X242853809Y-100378333D01*
X242996666Y-100378333D01*
X243091904Y-100425952D01*
X243139523Y-100473571D01*
X243187142Y-100568809D01*
X243187142Y-100806904D01*
X243139523Y-100902142D01*
X243091904Y-100949761D01*
X242996666Y-100997380D01*
X242710952Y-100997380D01*
X242615714Y-100949761D01*
X242568095Y-100902142D01*
X244044285Y-100330714D02*
X244044285Y-100997380D01*
X243806190Y-99949761D02*
X243568095Y-100664047D01*
X244187142Y-100664047D01*
%TO.C,SW59*%
X335440476Y-100949761D02*
X335583333Y-100997380D01*
X335821428Y-100997380D01*
X335916666Y-100949761D01*
X335964285Y-100902142D01*
X336011904Y-100806904D01*
X336011904Y-100711666D01*
X335964285Y-100616428D01*
X335916666Y-100568809D01*
X335821428Y-100521190D01*
X335630952Y-100473571D01*
X335535714Y-100425952D01*
X335488095Y-100378333D01*
X335440476Y-100283095D01*
X335440476Y-100187857D01*
X335488095Y-100092619D01*
X335535714Y-100045000D01*
X335630952Y-99997380D01*
X335869047Y-99997380D01*
X336011904Y-100045000D01*
X336345238Y-99997380D02*
X336583333Y-100997380D01*
X336773809Y-100283095D01*
X336964285Y-100997380D01*
X337202380Y-99997380D01*
X338059523Y-99997380D02*
X337583333Y-99997380D01*
X337535714Y-100473571D01*
X337583333Y-100425952D01*
X337678571Y-100378333D01*
X337916666Y-100378333D01*
X338011904Y-100425952D01*
X338059523Y-100473571D01*
X338107142Y-100568809D01*
X338107142Y-100806904D01*
X338059523Y-100902142D01*
X338011904Y-100949761D01*
X337916666Y-100997380D01*
X337678571Y-100997380D01*
X337583333Y-100949761D01*
X337535714Y-100902142D01*
X338583333Y-100997380D02*
X338773809Y-100997380D01*
X338869047Y-100949761D01*
X338916666Y-100902142D01*
X339011904Y-100759285D01*
X339059523Y-100568809D01*
X339059523Y-100187857D01*
X339011904Y-100092619D01*
X338964285Y-100045000D01*
X338869047Y-99997380D01*
X338678571Y-99997380D01*
X338583333Y-100045000D01*
X338535714Y-100092619D01*
X338488095Y-100187857D01*
X338488095Y-100425952D01*
X338535714Y-100521190D01*
X338583333Y-100568809D01*
X338678571Y-100616428D01*
X338869047Y-100616428D01*
X338964285Y-100568809D01*
X339011904Y-100521190D01*
X339059523Y-100425952D01*
%TO.C,SW8*%
X88316666Y-81949761D02*
X88459523Y-81997380D01*
X88697619Y-81997380D01*
X88792857Y-81949761D01*
X88840476Y-81902142D01*
X88888095Y-81806904D01*
X88888095Y-81711666D01*
X88840476Y-81616428D01*
X88792857Y-81568809D01*
X88697619Y-81521190D01*
X88507142Y-81473571D01*
X88411904Y-81425952D01*
X88364285Y-81378333D01*
X88316666Y-81283095D01*
X88316666Y-81187857D01*
X88364285Y-81092619D01*
X88411904Y-81045000D01*
X88507142Y-80997380D01*
X88745238Y-80997380D01*
X88888095Y-81045000D01*
X89221428Y-80997380D02*
X89459523Y-81997380D01*
X89650000Y-81283095D01*
X89840476Y-81997380D01*
X90078571Y-80997380D01*
X90602380Y-81425952D02*
X90507142Y-81378333D01*
X90459523Y-81330714D01*
X90411904Y-81235476D01*
X90411904Y-81187857D01*
X90459523Y-81092619D01*
X90507142Y-81045000D01*
X90602380Y-80997380D01*
X90792857Y-80997380D01*
X90888095Y-81045000D01*
X90935714Y-81092619D01*
X90983333Y-81187857D01*
X90983333Y-81235476D01*
X90935714Y-81330714D01*
X90888095Y-81378333D01*
X90792857Y-81425952D01*
X90602380Y-81425952D01*
X90507142Y-81473571D01*
X90459523Y-81521190D01*
X90411904Y-81616428D01*
X90411904Y-81806904D01*
X90459523Y-81902142D01*
X90507142Y-81949761D01*
X90602380Y-81997380D01*
X90792857Y-81997380D01*
X90888095Y-81949761D01*
X90935714Y-81902142D01*
X90983333Y-81806904D01*
X90983333Y-81616428D01*
X90935714Y-81521190D01*
X90888095Y-81473571D01*
X90792857Y-81425952D01*
%TO.C,SW56*%
X335440476Y-44004761D02*
X335583333Y-44052380D01*
X335821428Y-44052380D01*
X335916666Y-44004761D01*
X335964285Y-43957142D01*
X336011904Y-43861904D01*
X336011904Y-43766666D01*
X335964285Y-43671428D01*
X335916666Y-43623809D01*
X335821428Y-43576190D01*
X335630952Y-43528571D01*
X335535714Y-43480952D01*
X335488095Y-43433333D01*
X335440476Y-43338095D01*
X335440476Y-43242857D01*
X335488095Y-43147619D01*
X335535714Y-43100000D01*
X335630952Y-43052380D01*
X335869047Y-43052380D01*
X336011904Y-43100000D01*
X336345238Y-43052380D02*
X336583333Y-44052380D01*
X336773809Y-43338095D01*
X336964285Y-44052380D01*
X337202380Y-43052380D01*
X338059523Y-43052380D02*
X337583333Y-43052380D01*
X337535714Y-43528571D01*
X337583333Y-43480952D01*
X337678571Y-43433333D01*
X337916666Y-43433333D01*
X338011904Y-43480952D01*
X338059523Y-43528571D01*
X338107142Y-43623809D01*
X338107142Y-43861904D01*
X338059523Y-43957142D01*
X338011904Y-44004761D01*
X337916666Y-44052380D01*
X337678571Y-44052380D01*
X337583333Y-44004761D01*
X337535714Y-43957142D01*
X338964285Y-43052380D02*
X338773809Y-43052380D01*
X338678571Y-43100000D01*
X338630952Y-43147619D01*
X338535714Y-43290476D01*
X338488095Y-43480952D01*
X338488095Y-43861904D01*
X338535714Y-43957142D01*
X338583333Y-44004761D01*
X338678571Y-44052380D01*
X338869047Y-44052380D01*
X338964285Y-44004761D01*
X339011904Y-43957142D01*
X339059523Y-43861904D01*
X339059523Y-43623809D01*
X339011904Y-43528571D01*
X338964285Y-43480952D01*
X338869047Y-43433333D01*
X338678571Y-43433333D01*
X338583333Y-43480952D01*
X338535714Y-43528571D01*
X338488095Y-43623809D01*
%TO.C,SW45*%
X278520476Y-119949761D02*
X278663333Y-119997380D01*
X278901428Y-119997380D01*
X278996666Y-119949761D01*
X279044285Y-119902142D01*
X279091904Y-119806904D01*
X279091904Y-119711666D01*
X279044285Y-119616428D01*
X278996666Y-119568809D01*
X278901428Y-119521190D01*
X278710952Y-119473571D01*
X278615714Y-119425952D01*
X278568095Y-119378333D01*
X278520476Y-119283095D01*
X278520476Y-119187857D01*
X278568095Y-119092619D01*
X278615714Y-119045000D01*
X278710952Y-118997380D01*
X278949047Y-118997380D01*
X279091904Y-119045000D01*
X279425238Y-118997380D02*
X279663333Y-119997380D01*
X279853809Y-119283095D01*
X280044285Y-119997380D01*
X280282380Y-118997380D01*
X281091904Y-119330714D02*
X281091904Y-119997380D01*
X280853809Y-118949761D02*
X280615714Y-119664047D01*
X281234761Y-119664047D01*
X282091904Y-118997380D02*
X281615714Y-118997380D01*
X281568095Y-119473571D01*
X281615714Y-119425952D01*
X281710952Y-119378333D01*
X281949047Y-119378333D01*
X282044285Y-119425952D01*
X282091904Y-119473571D01*
X282139523Y-119568809D01*
X282139523Y-119806904D01*
X282091904Y-119902142D01*
X282044285Y-119949761D01*
X281949047Y-119997380D01*
X281710952Y-119997380D01*
X281615714Y-119949761D01*
X281568095Y-119902142D01*
%TO.C,SW44*%
X278520476Y-100949761D02*
X278663333Y-100997380D01*
X278901428Y-100997380D01*
X278996666Y-100949761D01*
X279044285Y-100902142D01*
X279091904Y-100806904D01*
X279091904Y-100711666D01*
X279044285Y-100616428D01*
X278996666Y-100568809D01*
X278901428Y-100521190D01*
X278710952Y-100473571D01*
X278615714Y-100425952D01*
X278568095Y-100378333D01*
X278520476Y-100283095D01*
X278520476Y-100187857D01*
X278568095Y-100092619D01*
X278615714Y-100045000D01*
X278710952Y-99997380D01*
X278949047Y-99997380D01*
X279091904Y-100045000D01*
X279425238Y-99997380D02*
X279663333Y-100997380D01*
X279853809Y-100283095D01*
X280044285Y-100997380D01*
X280282380Y-99997380D01*
X281091904Y-100330714D02*
X281091904Y-100997380D01*
X280853809Y-99949761D02*
X280615714Y-100664047D01*
X281234761Y-100664047D01*
X282044285Y-100330714D02*
X282044285Y-100997380D01*
X281806190Y-99949761D02*
X281568095Y-100664047D01*
X282187142Y-100664047D01*
%TO.C,SW13*%
X106840476Y-81949761D02*
X106983333Y-81997380D01*
X107221428Y-81997380D01*
X107316666Y-81949761D01*
X107364285Y-81902142D01*
X107411904Y-81806904D01*
X107411904Y-81711666D01*
X107364285Y-81616428D01*
X107316666Y-81568809D01*
X107221428Y-81521190D01*
X107030952Y-81473571D01*
X106935714Y-81425952D01*
X106888095Y-81378333D01*
X106840476Y-81283095D01*
X106840476Y-81187857D01*
X106888095Y-81092619D01*
X106935714Y-81045000D01*
X107030952Y-80997380D01*
X107269047Y-80997380D01*
X107411904Y-81045000D01*
X107745238Y-80997380D02*
X107983333Y-81997380D01*
X108173809Y-81283095D01*
X108364285Y-81997380D01*
X108602380Y-80997380D01*
X109507142Y-81997380D02*
X108935714Y-81997380D01*
X109221428Y-81997380D02*
X109221428Y-80997380D01*
X109126190Y-81140238D01*
X109030952Y-81235476D01*
X108935714Y-81283095D01*
X109840476Y-80997380D02*
X110459523Y-80997380D01*
X110126190Y-81378333D01*
X110269047Y-81378333D01*
X110364285Y-81425952D01*
X110411904Y-81473571D01*
X110459523Y-81568809D01*
X110459523Y-81806904D01*
X110411904Y-81902142D01*
X110364285Y-81949761D01*
X110269047Y-81997380D01*
X109983333Y-81997380D01*
X109888095Y-81949761D01*
X109840476Y-81902142D01*
%TO.C,SW41*%
X278520476Y-43949761D02*
X278663333Y-43997380D01*
X278901428Y-43997380D01*
X278996666Y-43949761D01*
X279044285Y-43902142D01*
X279091904Y-43806904D01*
X279091904Y-43711666D01*
X279044285Y-43616428D01*
X278996666Y-43568809D01*
X278901428Y-43521190D01*
X278710952Y-43473571D01*
X278615714Y-43425952D01*
X278568095Y-43378333D01*
X278520476Y-43283095D01*
X278520476Y-43187857D01*
X278568095Y-43092619D01*
X278615714Y-43045000D01*
X278710952Y-42997380D01*
X278949047Y-42997380D01*
X279091904Y-43045000D01*
X279425238Y-42997380D02*
X279663333Y-43997380D01*
X279853809Y-43283095D01*
X280044285Y-43997380D01*
X280282380Y-42997380D01*
X281091904Y-43330714D02*
X281091904Y-43997380D01*
X280853809Y-42949761D02*
X280615714Y-43664047D01*
X281234761Y-43664047D01*
X282139523Y-43997380D02*
X281568095Y-43997380D01*
X281853809Y-43997380D02*
X281853809Y-42997380D01*
X281758571Y-43140238D01*
X281663333Y-43235476D01*
X281568095Y-43283095D01*
%TO.C,SW23*%
X144840476Y-81949761D02*
X144983333Y-81997380D01*
X145221428Y-81997380D01*
X145316666Y-81949761D01*
X145364285Y-81902142D01*
X145411904Y-81806904D01*
X145411904Y-81711666D01*
X145364285Y-81616428D01*
X145316666Y-81568809D01*
X145221428Y-81521190D01*
X145030952Y-81473571D01*
X144935714Y-81425952D01*
X144888095Y-81378333D01*
X144840476Y-81283095D01*
X144840476Y-81187857D01*
X144888095Y-81092619D01*
X144935714Y-81045000D01*
X145030952Y-80997380D01*
X145269047Y-80997380D01*
X145411904Y-81045000D01*
X145745238Y-80997380D02*
X145983333Y-81997380D01*
X146173809Y-81283095D01*
X146364285Y-81997380D01*
X146602380Y-80997380D01*
X146935714Y-81092619D02*
X146983333Y-81045000D01*
X147078571Y-80997380D01*
X147316666Y-80997380D01*
X147411904Y-81045000D01*
X147459523Y-81092619D01*
X147507142Y-81187857D01*
X147507142Y-81283095D01*
X147459523Y-81425952D01*
X146888095Y-81997380D01*
X147507142Y-81997380D01*
X147840476Y-80997380D02*
X148459523Y-80997380D01*
X148126190Y-81378333D01*
X148269047Y-81378333D01*
X148364285Y-81425952D01*
X148411904Y-81473571D01*
X148459523Y-81568809D01*
X148459523Y-81806904D01*
X148411904Y-81902142D01*
X148364285Y-81949761D01*
X148269047Y-81997380D01*
X147983333Y-81997380D01*
X147888095Y-81949761D01*
X147840476Y-81902142D01*
%TO.C,R20*%
X205602380Y-60342857D02*
X205126190Y-60676190D01*
X205602380Y-60914285D02*
X204602380Y-60914285D01*
X204602380Y-60533333D01*
X204650000Y-60438095D01*
X204697619Y-60390476D01*
X204792857Y-60342857D01*
X204935714Y-60342857D01*
X205030952Y-60390476D01*
X205078571Y-60438095D01*
X205126190Y-60533333D01*
X205126190Y-60914285D01*
X204697619Y-59961904D02*
X204650000Y-59914285D01*
X204602380Y-59819047D01*
X204602380Y-59580952D01*
X204650000Y-59485714D01*
X204697619Y-59438095D01*
X204792857Y-59390476D01*
X204888095Y-59390476D01*
X205030952Y-59438095D01*
X205602380Y-60009523D01*
X205602380Y-59390476D01*
X204602380Y-58771428D02*
X204602380Y-58676190D01*
X204650000Y-58580952D01*
X204697619Y-58533333D01*
X204792857Y-58485714D01*
X204983333Y-58438095D01*
X205221428Y-58438095D01*
X205411904Y-58485714D01*
X205507142Y-58533333D01*
X205554761Y-58580952D01*
X205602380Y-58676190D01*
X205602380Y-58771428D01*
X205554761Y-58866666D01*
X205507142Y-58914285D01*
X205411904Y-58961904D01*
X205221428Y-59009523D01*
X204983333Y-59009523D01*
X204792857Y-58961904D01*
X204697619Y-58914285D01*
X204650000Y-58866666D01*
X204602380Y-58771428D01*
%TO.C,SW17*%
X125840476Y-62949761D02*
X125983333Y-62997380D01*
X126221428Y-62997380D01*
X126316666Y-62949761D01*
X126364285Y-62902142D01*
X126411904Y-62806904D01*
X126411904Y-62711666D01*
X126364285Y-62616428D01*
X126316666Y-62568809D01*
X126221428Y-62521190D01*
X126030952Y-62473571D01*
X125935714Y-62425952D01*
X125888095Y-62378333D01*
X125840476Y-62283095D01*
X125840476Y-62187857D01*
X125888095Y-62092619D01*
X125935714Y-62045000D01*
X126030952Y-61997380D01*
X126269047Y-61997380D01*
X126411904Y-62045000D01*
X126745238Y-61997380D02*
X126983333Y-62997380D01*
X127173809Y-62283095D01*
X127364285Y-62997380D01*
X127602380Y-61997380D01*
X128507142Y-62997380D02*
X127935714Y-62997380D01*
X128221428Y-62997380D02*
X128221428Y-61997380D01*
X128126190Y-62140238D01*
X128030952Y-62235476D01*
X127935714Y-62283095D01*
X128840476Y-61997380D02*
X129507142Y-61997380D01*
X129078571Y-62997380D01*
%TO.C,SW47*%
X297520476Y-62949761D02*
X297663333Y-62997380D01*
X297901428Y-62997380D01*
X297996666Y-62949761D01*
X298044285Y-62902142D01*
X298091904Y-62806904D01*
X298091904Y-62711666D01*
X298044285Y-62616428D01*
X297996666Y-62568809D01*
X297901428Y-62521190D01*
X297710952Y-62473571D01*
X297615714Y-62425952D01*
X297568095Y-62378333D01*
X297520476Y-62283095D01*
X297520476Y-62187857D01*
X297568095Y-62092619D01*
X297615714Y-62045000D01*
X297710952Y-61997380D01*
X297949047Y-61997380D01*
X298091904Y-62045000D01*
X298425238Y-61997380D02*
X298663333Y-62997380D01*
X298853809Y-62283095D01*
X299044285Y-62997380D01*
X299282380Y-61997380D01*
X300091904Y-62330714D02*
X300091904Y-62997380D01*
X299853809Y-61949761D02*
X299615714Y-62664047D01*
X300234761Y-62664047D01*
X300520476Y-61997380D02*
X301187142Y-61997380D01*
X300758571Y-62997380D01*
%TO.C,SW15*%
X106840476Y-119949761D02*
X106983333Y-119997380D01*
X107221428Y-119997380D01*
X107316666Y-119949761D01*
X107364285Y-119902142D01*
X107411904Y-119806904D01*
X107411904Y-119711666D01*
X107364285Y-119616428D01*
X107316666Y-119568809D01*
X107221428Y-119521190D01*
X107030952Y-119473571D01*
X106935714Y-119425952D01*
X106888095Y-119378333D01*
X106840476Y-119283095D01*
X106840476Y-119187857D01*
X106888095Y-119092619D01*
X106935714Y-119045000D01*
X107030952Y-118997380D01*
X107269047Y-118997380D01*
X107411904Y-119045000D01*
X107745238Y-118997380D02*
X107983333Y-119997380D01*
X108173809Y-119283095D01*
X108364285Y-119997380D01*
X108602380Y-118997380D01*
X109507142Y-119997380D02*
X108935714Y-119997380D01*
X109221428Y-119997380D02*
X109221428Y-118997380D01*
X109126190Y-119140238D01*
X109030952Y-119235476D01*
X108935714Y-119283095D01*
X110411904Y-118997380D02*
X109935714Y-118997380D01*
X109888095Y-119473571D01*
X109935714Y-119425952D01*
X110030952Y-119378333D01*
X110269047Y-119378333D01*
X110364285Y-119425952D01*
X110411904Y-119473571D01*
X110459523Y-119568809D01*
X110459523Y-119806904D01*
X110411904Y-119902142D01*
X110364285Y-119949761D01*
X110269047Y-119997380D01*
X110030952Y-119997380D01*
X109935714Y-119949761D01*
X109888095Y-119902142D01*
%TO.C,SW11*%
X106840476Y-43949761D02*
X106983333Y-43997380D01*
X107221428Y-43997380D01*
X107316666Y-43949761D01*
X107364285Y-43902142D01*
X107411904Y-43806904D01*
X107411904Y-43711666D01*
X107364285Y-43616428D01*
X107316666Y-43568809D01*
X107221428Y-43521190D01*
X107030952Y-43473571D01*
X106935714Y-43425952D01*
X106888095Y-43378333D01*
X106840476Y-43283095D01*
X106840476Y-43187857D01*
X106888095Y-43092619D01*
X106935714Y-43045000D01*
X107030952Y-42997380D01*
X107269047Y-42997380D01*
X107411904Y-43045000D01*
X107745238Y-42997380D02*
X107983333Y-43997380D01*
X108173809Y-43283095D01*
X108364285Y-43997380D01*
X108602380Y-42997380D01*
X109507142Y-43997380D02*
X108935714Y-43997380D01*
X109221428Y-43997380D02*
X109221428Y-42997380D01*
X109126190Y-43140238D01*
X109030952Y-43235476D01*
X108935714Y-43283095D01*
X110459523Y-43997380D02*
X109888095Y-43997380D01*
X110173809Y-43997380D02*
X110173809Y-42997380D01*
X110078571Y-43140238D01*
X109983333Y-43235476D01*
X109888095Y-43283095D01*
%TO.C,SW38*%
X259520476Y-81949761D02*
X259663333Y-81997380D01*
X259901428Y-81997380D01*
X259996666Y-81949761D01*
X260044285Y-81902142D01*
X260091904Y-81806904D01*
X260091904Y-81711666D01*
X260044285Y-81616428D01*
X259996666Y-81568809D01*
X259901428Y-81521190D01*
X259710952Y-81473571D01*
X259615714Y-81425952D01*
X259568095Y-81378333D01*
X259520476Y-81283095D01*
X259520476Y-81187857D01*
X259568095Y-81092619D01*
X259615714Y-81045000D01*
X259710952Y-80997380D01*
X259949047Y-80997380D01*
X260091904Y-81045000D01*
X260425238Y-80997380D02*
X260663333Y-81997380D01*
X260853809Y-81283095D01*
X261044285Y-81997380D01*
X261282380Y-80997380D01*
X261568095Y-80997380D02*
X262187142Y-80997380D01*
X261853809Y-81378333D01*
X261996666Y-81378333D01*
X262091904Y-81425952D01*
X262139523Y-81473571D01*
X262187142Y-81568809D01*
X262187142Y-81806904D01*
X262139523Y-81902142D01*
X262091904Y-81949761D01*
X261996666Y-81997380D01*
X261710952Y-81997380D01*
X261615714Y-81949761D01*
X261568095Y-81902142D01*
X262758571Y-81425952D02*
X262663333Y-81378333D01*
X262615714Y-81330714D01*
X262568095Y-81235476D01*
X262568095Y-81187857D01*
X262615714Y-81092619D01*
X262663333Y-81045000D01*
X262758571Y-80997380D01*
X262949047Y-80997380D01*
X263044285Y-81045000D01*
X263091904Y-81092619D01*
X263139523Y-81187857D01*
X263139523Y-81235476D01*
X263091904Y-81330714D01*
X263044285Y-81378333D01*
X262949047Y-81425952D01*
X262758571Y-81425952D01*
X262663333Y-81473571D01*
X262615714Y-81521190D01*
X262568095Y-81616428D01*
X262568095Y-81806904D01*
X262615714Y-81902142D01*
X262663333Y-81949761D01*
X262758571Y-81997380D01*
X262949047Y-81997380D01*
X263044285Y-81949761D01*
X263091904Y-81902142D01*
X263139523Y-81806904D01*
X263139523Y-81616428D01*
X263091904Y-81521190D01*
X263044285Y-81473571D01*
X262949047Y-81425952D01*
%TO.C,SW19*%
X125840476Y-100949761D02*
X125983333Y-100997380D01*
X126221428Y-100997380D01*
X126316666Y-100949761D01*
X126364285Y-100902142D01*
X126411904Y-100806904D01*
X126411904Y-100711666D01*
X126364285Y-100616428D01*
X126316666Y-100568809D01*
X126221428Y-100521190D01*
X126030952Y-100473571D01*
X125935714Y-100425952D01*
X125888095Y-100378333D01*
X125840476Y-100283095D01*
X125840476Y-100187857D01*
X125888095Y-100092619D01*
X125935714Y-100045000D01*
X126030952Y-99997380D01*
X126269047Y-99997380D01*
X126411904Y-100045000D01*
X126745238Y-99997380D02*
X126983333Y-100997380D01*
X127173809Y-100283095D01*
X127364285Y-100997380D01*
X127602380Y-99997380D01*
X128507142Y-100997380D02*
X127935714Y-100997380D01*
X128221428Y-100997380D02*
X128221428Y-99997380D01*
X128126190Y-100140238D01*
X128030952Y-100235476D01*
X127935714Y-100283095D01*
X128983333Y-100997380D02*
X129173809Y-100997380D01*
X129269047Y-100949761D01*
X129316666Y-100902142D01*
X129411904Y-100759285D01*
X129459523Y-100568809D01*
X129459523Y-100187857D01*
X129411904Y-100092619D01*
X129364285Y-100045000D01*
X129269047Y-99997380D01*
X129078571Y-99997380D01*
X128983333Y-100045000D01*
X128935714Y-100092619D01*
X128888095Y-100187857D01*
X128888095Y-100425952D01*
X128935714Y-100521190D01*
X128983333Y-100568809D01*
X129078571Y-100616428D01*
X129269047Y-100616428D01*
X129364285Y-100568809D01*
X129411904Y-100521190D01*
X129459523Y-100425952D01*
%TO.C,SW28*%
X163840476Y-81949761D02*
X163983333Y-81997380D01*
X164221428Y-81997380D01*
X164316666Y-81949761D01*
X164364285Y-81902142D01*
X164411904Y-81806904D01*
X164411904Y-81711666D01*
X164364285Y-81616428D01*
X164316666Y-81568809D01*
X164221428Y-81521190D01*
X164030952Y-81473571D01*
X163935714Y-81425952D01*
X163888095Y-81378333D01*
X163840476Y-81283095D01*
X163840476Y-81187857D01*
X163888095Y-81092619D01*
X163935714Y-81045000D01*
X164030952Y-80997380D01*
X164269047Y-80997380D01*
X164411904Y-81045000D01*
X164745238Y-80997380D02*
X164983333Y-81997380D01*
X165173809Y-81283095D01*
X165364285Y-81997380D01*
X165602380Y-80997380D01*
X165935714Y-81092619D02*
X165983333Y-81045000D01*
X166078571Y-80997380D01*
X166316666Y-80997380D01*
X166411904Y-81045000D01*
X166459523Y-81092619D01*
X166507142Y-81187857D01*
X166507142Y-81283095D01*
X166459523Y-81425952D01*
X165888095Y-81997380D01*
X166507142Y-81997380D01*
X167078571Y-81425952D02*
X166983333Y-81378333D01*
X166935714Y-81330714D01*
X166888095Y-81235476D01*
X166888095Y-81187857D01*
X166935714Y-81092619D01*
X166983333Y-81045000D01*
X167078571Y-80997380D01*
X167269047Y-80997380D01*
X167364285Y-81045000D01*
X167411904Y-81092619D01*
X167459523Y-81187857D01*
X167459523Y-81235476D01*
X167411904Y-81330714D01*
X167364285Y-81378333D01*
X167269047Y-81425952D01*
X167078571Y-81425952D01*
X166983333Y-81473571D01*
X166935714Y-81521190D01*
X166888095Y-81616428D01*
X166888095Y-81806904D01*
X166935714Y-81902142D01*
X166983333Y-81949761D01*
X167078571Y-81997380D01*
X167269047Y-81997380D01*
X167364285Y-81949761D01*
X167411904Y-81902142D01*
X167459523Y-81806904D01*
X167459523Y-81616428D01*
X167411904Y-81521190D01*
X167364285Y-81473571D01*
X167269047Y-81425952D01*
%TO.C,R14*%
X200402380Y-75542857D02*
X199926190Y-75876190D01*
X200402380Y-76114285D02*
X199402380Y-76114285D01*
X199402380Y-75733333D01*
X199450000Y-75638095D01*
X199497619Y-75590476D01*
X199592857Y-75542857D01*
X199735714Y-75542857D01*
X199830952Y-75590476D01*
X199878571Y-75638095D01*
X199926190Y-75733333D01*
X199926190Y-76114285D01*
X200402380Y-74590476D02*
X200402380Y-75161904D01*
X200402380Y-74876190D02*
X199402380Y-74876190D01*
X199545238Y-74971428D01*
X199640476Y-75066666D01*
X199688095Y-75161904D01*
X199735714Y-73733333D02*
X200402380Y-73733333D01*
X199354761Y-73971428D02*
X200069047Y-74209523D01*
X200069047Y-73590476D01*
%TO.C,SW35*%
X240520476Y-119949761D02*
X240663333Y-119997380D01*
X240901428Y-119997380D01*
X240996666Y-119949761D01*
X241044285Y-119902142D01*
X241091904Y-119806904D01*
X241091904Y-119711666D01*
X241044285Y-119616428D01*
X240996666Y-119568809D01*
X240901428Y-119521190D01*
X240710952Y-119473571D01*
X240615714Y-119425952D01*
X240568095Y-119378333D01*
X240520476Y-119283095D01*
X240520476Y-119187857D01*
X240568095Y-119092619D01*
X240615714Y-119045000D01*
X240710952Y-118997380D01*
X240949047Y-118997380D01*
X241091904Y-119045000D01*
X241425238Y-118997380D02*
X241663333Y-119997380D01*
X241853809Y-119283095D01*
X242044285Y-119997380D01*
X242282380Y-118997380D01*
X242568095Y-118997380D02*
X243187142Y-118997380D01*
X242853809Y-119378333D01*
X242996666Y-119378333D01*
X243091904Y-119425952D01*
X243139523Y-119473571D01*
X243187142Y-119568809D01*
X243187142Y-119806904D01*
X243139523Y-119902142D01*
X243091904Y-119949761D01*
X242996666Y-119997380D01*
X242710952Y-119997380D01*
X242615714Y-119949761D01*
X242568095Y-119902142D01*
X244091904Y-118997380D02*
X243615714Y-118997380D01*
X243568095Y-119473571D01*
X243615714Y-119425952D01*
X243710952Y-119378333D01*
X243949047Y-119378333D01*
X244044285Y-119425952D01*
X244091904Y-119473571D01*
X244139523Y-119568809D01*
X244139523Y-119806904D01*
X244091904Y-119902142D01*
X244044285Y-119949761D01*
X243949047Y-119997380D01*
X243710952Y-119997380D01*
X243615714Y-119949761D01*
X243568095Y-119902142D01*
%TO.C,SW9*%
X88316666Y-100949761D02*
X88459523Y-100997380D01*
X88697619Y-100997380D01*
X88792857Y-100949761D01*
X88840476Y-100902142D01*
X88888095Y-100806904D01*
X88888095Y-100711666D01*
X88840476Y-100616428D01*
X88792857Y-100568809D01*
X88697619Y-100521190D01*
X88507142Y-100473571D01*
X88411904Y-100425952D01*
X88364285Y-100378333D01*
X88316666Y-100283095D01*
X88316666Y-100187857D01*
X88364285Y-100092619D01*
X88411904Y-100045000D01*
X88507142Y-99997380D01*
X88745238Y-99997380D01*
X88888095Y-100045000D01*
X89221428Y-99997380D02*
X89459523Y-100997380D01*
X89650000Y-100283095D01*
X89840476Y-100997380D01*
X90078571Y-99997380D01*
X90507142Y-100997380D02*
X90697619Y-100997380D01*
X90792857Y-100949761D01*
X90840476Y-100902142D01*
X90935714Y-100759285D01*
X90983333Y-100568809D01*
X90983333Y-100187857D01*
X90935714Y-100092619D01*
X90888095Y-100045000D01*
X90792857Y-99997380D01*
X90602380Y-99997380D01*
X90507142Y-100045000D01*
X90459523Y-100092619D01*
X90411904Y-100187857D01*
X90411904Y-100425952D01*
X90459523Y-100521190D01*
X90507142Y-100568809D01*
X90602380Y-100616428D01*
X90792857Y-100616428D01*
X90888095Y-100568809D01*
X90935714Y-100521190D01*
X90983333Y-100425952D01*
%TO.C,U3*%
X197152380Y-105061904D02*
X197961904Y-105061904D01*
X198057142Y-105014285D01*
X198104761Y-104966666D01*
X198152380Y-104871428D01*
X198152380Y-104680952D01*
X198104761Y-104585714D01*
X198057142Y-104538095D01*
X197961904Y-104490476D01*
X197152380Y-104490476D01*
X197152380Y-104109523D02*
X197152380Y-103490476D01*
X197533333Y-103823809D01*
X197533333Y-103680952D01*
X197580952Y-103585714D01*
X197628571Y-103538095D01*
X197723809Y-103490476D01*
X197961904Y-103490476D01*
X198057142Y-103538095D01*
X198104761Y-103585714D01*
X198152380Y-103680952D01*
X198152380Y-103966666D01*
X198104761Y-104061904D01*
X198057142Y-104109523D01*
%TO.C,SW16*%
X125840476Y-43949761D02*
X125983333Y-43997380D01*
X126221428Y-43997380D01*
X126316666Y-43949761D01*
X126364285Y-43902142D01*
X126411904Y-43806904D01*
X126411904Y-43711666D01*
X126364285Y-43616428D01*
X126316666Y-43568809D01*
X126221428Y-43521190D01*
X126030952Y-43473571D01*
X125935714Y-43425952D01*
X125888095Y-43378333D01*
X125840476Y-43283095D01*
X125840476Y-43187857D01*
X125888095Y-43092619D01*
X125935714Y-43045000D01*
X126030952Y-42997380D01*
X126269047Y-42997380D01*
X126411904Y-43045000D01*
X126745238Y-42997380D02*
X126983333Y-43997380D01*
X127173809Y-43283095D01*
X127364285Y-43997380D01*
X127602380Y-42997380D01*
X128507142Y-43997380D02*
X127935714Y-43997380D01*
X128221428Y-43997380D02*
X128221428Y-42997380D01*
X128126190Y-43140238D01*
X128030952Y-43235476D01*
X127935714Y-43283095D01*
X129364285Y-42997380D02*
X129173809Y-42997380D01*
X129078571Y-43045000D01*
X129030952Y-43092619D01*
X128935714Y-43235476D01*
X128888095Y-43425952D01*
X128888095Y-43806904D01*
X128935714Y-43902142D01*
X128983333Y-43949761D01*
X129078571Y-43997380D01*
X129269047Y-43997380D01*
X129364285Y-43949761D01*
X129411904Y-43902142D01*
X129459523Y-43806904D01*
X129459523Y-43568809D01*
X129411904Y-43473571D01*
X129364285Y-43425952D01*
X129269047Y-43378333D01*
X129078571Y-43378333D01*
X128983333Y-43425952D01*
X128935714Y-43473571D01*
X128888095Y-43568809D01*
%TO.C,SW51*%
X316520476Y-43949761D02*
X316663333Y-43997380D01*
X316901428Y-43997380D01*
X316996666Y-43949761D01*
X317044285Y-43902142D01*
X317091904Y-43806904D01*
X317091904Y-43711666D01*
X317044285Y-43616428D01*
X316996666Y-43568809D01*
X316901428Y-43521190D01*
X316710952Y-43473571D01*
X316615714Y-43425952D01*
X316568095Y-43378333D01*
X316520476Y-43283095D01*
X316520476Y-43187857D01*
X316568095Y-43092619D01*
X316615714Y-43045000D01*
X316710952Y-42997380D01*
X316949047Y-42997380D01*
X317091904Y-43045000D01*
X317425238Y-42997380D02*
X317663333Y-43997380D01*
X317853809Y-43283095D01*
X318044285Y-43997380D01*
X318282380Y-42997380D01*
X319139523Y-42997380D02*
X318663333Y-42997380D01*
X318615714Y-43473571D01*
X318663333Y-43425952D01*
X318758571Y-43378333D01*
X318996666Y-43378333D01*
X319091904Y-43425952D01*
X319139523Y-43473571D01*
X319187142Y-43568809D01*
X319187142Y-43806904D01*
X319139523Y-43902142D01*
X319091904Y-43949761D01*
X318996666Y-43997380D01*
X318758571Y-43997380D01*
X318663333Y-43949761D01*
X318615714Y-43902142D01*
X320139523Y-43997380D02*
X319568095Y-43997380D01*
X319853809Y-43997380D02*
X319853809Y-42997380D01*
X319758571Y-43140238D01*
X319663333Y-43235476D01*
X319568095Y-43283095D01*
%TO.C,R16*%
X185502380Y-134242857D02*
X185026190Y-134576190D01*
X185502380Y-134814285D02*
X184502380Y-134814285D01*
X184502380Y-134433333D01*
X184550000Y-134338095D01*
X184597619Y-134290476D01*
X184692857Y-134242857D01*
X184835714Y-134242857D01*
X184930952Y-134290476D01*
X184978571Y-134338095D01*
X185026190Y-134433333D01*
X185026190Y-134814285D01*
X185502380Y-133290476D02*
X185502380Y-133861904D01*
X185502380Y-133576190D02*
X184502380Y-133576190D01*
X184645238Y-133671428D01*
X184740476Y-133766666D01*
X184788095Y-133861904D01*
X184502380Y-132433333D02*
X184502380Y-132623809D01*
X184550000Y-132719047D01*
X184597619Y-132766666D01*
X184740476Y-132861904D01*
X184930952Y-132909523D01*
X185311904Y-132909523D01*
X185407142Y-132861904D01*
X185454761Y-132814285D01*
X185502380Y-132719047D01*
X185502380Y-132528571D01*
X185454761Y-132433333D01*
X185407142Y-132385714D01*
X185311904Y-132338095D01*
X185073809Y-132338095D01*
X184978571Y-132385714D01*
X184930952Y-132433333D01*
X184883333Y-132528571D01*
X184883333Y-132719047D01*
X184930952Y-132814285D01*
X184978571Y-132861904D01*
X185073809Y-132909523D01*
D13*
%TO.C,D73*%
X212400000Y-125300000D02*
X214250000Y-125300000D01*
X212400000Y-126500000D02*
X214250000Y-126500000D01*
X214250000Y-126500000D02*
X214250000Y-125300000D01*
D11*
%TO.C,SW2*%
X76650000Y-77800000D02*
X77650000Y-77800000D01*
X63650000Y-77800000D02*
X63650000Y-76800000D01*
X77650000Y-63800000D02*
X76650000Y-63800000D01*
X63650000Y-77800000D02*
X64650000Y-77800000D01*
X64650000Y-63800000D02*
X63650000Y-63800000D01*
X77650000Y-63800000D02*
X77650000Y-64800000D01*
X77650000Y-76800000D02*
X77650000Y-77800000D01*
X63650000Y-64800000D02*
X63650000Y-63800000D01*
%TO.C,SW22*%
X152650000Y-77800000D02*
X153650000Y-77800000D01*
X139650000Y-77800000D02*
X139650000Y-76800000D01*
X153650000Y-63800000D02*
X152650000Y-63800000D01*
X139650000Y-77800000D02*
X140650000Y-77800000D01*
X140650000Y-63800000D02*
X139650000Y-63800000D01*
X153650000Y-63800000D02*
X153650000Y-64800000D01*
X153650000Y-76800000D02*
X153650000Y-77800000D01*
X139650000Y-64800000D02*
X139650000Y-63800000D01*
%TO.C,SW1*%
X76650000Y-58800000D02*
X77650000Y-58800000D01*
X63650000Y-58800000D02*
X63650000Y-57800000D01*
X77650000Y-44800000D02*
X76650000Y-44800000D01*
X63650000Y-58800000D02*
X64650000Y-58800000D01*
X64650000Y-44800000D02*
X63650000Y-44800000D01*
X77650000Y-44800000D02*
X77650000Y-45800000D01*
X77650000Y-57800000D02*
X77650000Y-58800000D01*
X63650000Y-45800000D02*
X63650000Y-44800000D01*
%TO.C,SW31*%
X248330000Y-58800000D02*
X249330000Y-58800000D01*
X235330000Y-58800000D02*
X235330000Y-57800000D01*
X249330000Y-44800000D02*
X248330000Y-44800000D01*
X235330000Y-58800000D02*
X236330000Y-58800000D01*
X236330000Y-44800000D02*
X235330000Y-44800000D01*
X249330000Y-44800000D02*
X249330000Y-45800000D01*
X249330000Y-57800000D02*
X249330000Y-58800000D01*
X235330000Y-45800000D02*
X235330000Y-44800000D01*
D13*
%TO.C,J4*%
X225538000Y-53658000D02*
X226868000Y-53658000D01*
X225538000Y-56258000D02*
X228138000Y-56258000D01*
X225538000Y-54988000D02*
X225538000Y-53658000D01*
X230738000Y-53658000D02*
X230738000Y-104578000D01*
X225538000Y-104578000D02*
X230738000Y-104578000D01*
X225538000Y-56258000D02*
X225538000Y-104578000D01*
X228138000Y-53658000D02*
X230738000Y-53658000D01*
X228138000Y-56258000D02*
X228138000Y-53658000D01*
D14*
%TO.C,J3*%
X189601800Y-69904485D02*
X191100400Y-69904485D01*
X211598200Y-66155445D02*
X211598200Y-69904485D01*
X210099600Y-69904485D02*
X211598200Y-69904485D01*
X189601800Y-66155445D02*
X189601800Y-69904485D01*
D11*
%TO.C,SW30*%
X171650000Y-134800000D02*
X172650000Y-134800000D01*
X158650000Y-134800000D02*
X158650000Y-133800000D01*
X172650000Y-120800000D02*
X171650000Y-120800000D01*
X158650000Y-134800000D02*
X159650000Y-134800000D01*
X159650000Y-120800000D02*
X158650000Y-120800000D01*
X172650000Y-120800000D02*
X172650000Y-121800000D01*
X172650000Y-133800000D02*
X172650000Y-134800000D01*
X158650000Y-121800000D02*
X158650000Y-120800000D01*
%TO.C,SW60*%
X343250000Y-134800000D02*
X344250000Y-134800000D01*
X330250000Y-134800000D02*
X330250000Y-133800000D01*
X344250000Y-120800000D02*
X343250000Y-120800000D01*
X330250000Y-134800000D02*
X331250000Y-134800000D01*
X331250000Y-120800000D02*
X330250000Y-120800000D01*
X344250000Y-120800000D02*
X344250000Y-121800000D01*
X344250000Y-133800000D02*
X344250000Y-134800000D01*
X330250000Y-121800000D02*
X330250000Y-120800000D01*
%TO.C,SW24*%
X152650000Y-115800000D02*
X153650000Y-115800000D01*
X139650000Y-115800000D02*
X139650000Y-114800000D01*
X153650000Y-101800000D02*
X152650000Y-101800000D01*
X139650000Y-115800000D02*
X140650000Y-115800000D01*
X140650000Y-101800000D02*
X139650000Y-101800000D01*
X153650000Y-101800000D02*
X153650000Y-102800000D01*
X153650000Y-114800000D02*
X153650000Y-115800000D01*
X139650000Y-102800000D02*
X139650000Y-101800000D01*
%TO.C,SW27*%
X171650000Y-77800000D02*
X172650000Y-77800000D01*
X158650000Y-77800000D02*
X158650000Y-76800000D01*
X172650000Y-63800000D02*
X171650000Y-63800000D01*
X158650000Y-77800000D02*
X159650000Y-77800000D01*
X159650000Y-63800000D02*
X158650000Y-63800000D01*
X172650000Y-63800000D02*
X172650000Y-64800000D01*
X172650000Y-76800000D02*
X172650000Y-77800000D01*
X158650000Y-64800000D02*
X158650000Y-63800000D01*
%TO.C,SW42*%
X286330000Y-77800000D02*
X287330000Y-77800000D01*
X273330000Y-77800000D02*
X273330000Y-76800000D01*
X287330000Y-63800000D02*
X286330000Y-63800000D01*
X273330000Y-77800000D02*
X274330000Y-77800000D01*
X274330000Y-63800000D02*
X273330000Y-63800000D01*
X287330000Y-63800000D02*
X287330000Y-64800000D01*
X287330000Y-76800000D02*
X287330000Y-77800000D01*
X273330000Y-64800000D02*
X273330000Y-63800000D01*
%TO.C,SW10*%
X95650000Y-134800000D02*
X96650000Y-134800000D01*
X82650000Y-134800000D02*
X82650000Y-133800000D01*
X96650000Y-120800000D02*
X95650000Y-120800000D01*
X82650000Y-134800000D02*
X83650000Y-134800000D01*
X83650000Y-120800000D02*
X82650000Y-120800000D01*
X96650000Y-120800000D02*
X96650000Y-121800000D01*
X96650000Y-133800000D02*
X96650000Y-134800000D01*
X82650000Y-121800000D02*
X82650000Y-120800000D01*
%TO.C,SW57*%
X343250000Y-77800000D02*
X344250000Y-77800000D01*
X330250000Y-77800000D02*
X330250000Y-76800000D01*
X344250000Y-63800000D02*
X343250000Y-63800000D01*
X330250000Y-77800000D02*
X331250000Y-77800000D01*
X331250000Y-63800000D02*
X330250000Y-63800000D01*
X344250000Y-63800000D02*
X344250000Y-64800000D01*
X344250000Y-76800000D02*
X344250000Y-77800000D01*
X330250000Y-64800000D02*
X330250000Y-63800000D01*
%TO.C,SW29*%
X171650000Y-115800000D02*
X172650000Y-115800000D01*
X158650000Y-115800000D02*
X158650000Y-114800000D01*
X172650000Y-101800000D02*
X171650000Y-101800000D01*
X158650000Y-115800000D02*
X159650000Y-115800000D01*
X159650000Y-101800000D02*
X158650000Y-101800000D01*
X172650000Y-101800000D02*
X172650000Y-102800000D01*
X172650000Y-114800000D02*
X172650000Y-115800000D01*
X158650000Y-102800000D02*
X158650000Y-101800000D01*
%TO.C,SW7*%
X95650000Y-77800000D02*
X96650000Y-77800000D01*
X82650000Y-77800000D02*
X82650000Y-76800000D01*
X96650000Y-63800000D02*
X95650000Y-63800000D01*
X82650000Y-77800000D02*
X83650000Y-77800000D01*
X83650000Y-63800000D02*
X82650000Y-63800000D01*
X96650000Y-63800000D02*
X96650000Y-64800000D01*
X96650000Y-76800000D02*
X96650000Y-77800000D01*
X82650000Y-64800000D02*
X82650000Y-63800000D01*
%TO.C,SW20*%
X133650000Y-134800000D02*
X134650000Y-134800000D01*
X120650000Y-134800000D02*
X120650000Y-133800000D01*
X134650000Y-120800000D02*
X133650000Y-120800000D01*
X120650000Y-134800000D02*
X121650000Y-134800000D01*
X121650000Y-120800000D02*
X120650000Y-120800000D01*
X134650000Y-120800000D02*
X134650000Y-121800000D01*
X134650000Y-133800000D02*
X134650000Y-134800000D01*
X120650000Y-121800000D02*
X120650000Y-120800000D01*
%TO.C,SW49*%
X305330000Y-115800000D02*
X306330000Y-115800000D01*
X292330000Y-115800000D02*
X292330000Y-114800000D01*
X306330000Y-101800000D02*
X305330000Y-101800000D01*
X292330000Y-115800000D02*
X293330000Y-115800000D01*
X293330000Y-101800000D02*
X292330000Y-101800000D01*
X306330000Y-101800000D02*
X306330000Y-102800000D01*
X306330000Y-114800000D02*
X306330000Y-115800000D01*
X292330000Y-102800000D02*
X292330000Y-101800000D01*
%TO.C,SW39*%
X267330000Y-115800000D02*
X268330000Y-115800000D01*
X254330000Y-115800000D02*
X254330000Y-114800000D01*
X268330000Y-101800000D02*
X267330000Y-101800000D01*
X254330000Y-115800000D02*
X255330000Y-115800000D01*
X255330000Y-101800000D02*
X254330000Y-101800000D01*
X268330000Y-101800000D02*
X268330000Y-102800000D01*
X268330000Y-114800000D02*
X268330000Y-115800000D01*
X254330000Y-102800000D02*
X254330000Y-101800000D01*
%TO.C,SW5*%
X76650000Y-134800000D02*
X77650000Y-134800000D01*
X63650000Y-134800000D02*
X63650000Y-133800000D01*
X77650000Y-120800000D02*
X76650000Y-120800000D01*
X63650000Y-134800000D02*
X64650000Y-134800000D01*
X64650000Y-120800000D02*
X63650000Y-120800000D01*
X77650000Y-120800000D02*
X77650000Y-121800000D01*
X77650000Y-133800000D02*
X77650000Y-134800000D01*
X63650000Y-121800000D02*
X63650000Y-120800000D01*
%TO.C,SW32*%
X248330000Y-77800000D02*
X249330000Y-77800000D01*
X235330000Y-77800000D02*
X235330000Y-76800000D01*
X249330000Y-63800000D02*
X248330000Y-63800000D01*
X235330000Y-77800000D02*
X236330000Y-77800000D01*
X236330000Y-63800000D02*
X235330000Y-63800000D01*
X249330000Y-63800000D02*
X249330000Y-64800000D01*
X249330000Y-76800000D02*
X249330000Y-77800000D01*
X235330000Y-64800000D02*
X235330000Y-63800000D01*
D13*
%TO.C,J1*%
X223005000Y-136330000D02*
X212785000Y-136330000D01*
X225605000Y-133670000D02*
X225605000Y-135000000D01*
X223005000Y-133670000D02*
X212785000Y-133670000D01*
X212785000Y-133670000D02*
X212785000Y-136330000D01*
X223005000Y-133670000D02*
X223005000Y-136330000D01*
X224275000Y-133670000D02*
X225605000Y-133670000D01*
D11*
%TO.C,SW48*%
X305330000Y-96800000D02*
X306330000Y-96800000D01*
X292330000Y-96800000D02*
X292330000Y-95800000D01*
X306330000Y-82800000D02*
X305330000Y-82800000D01*
X292330000Y-96800000D02*
X293330000Y-96800000D01*
X293330000Y-82800000D02*
X292330000Y-82800000D01*
X306330000Y-82800000D02*
X306330000Y-83800000D01*
X306330000Y-95800000D02*
X306330000Y-96800000D01*
X292330000Y-83800000D02*
X292330000Y-82800000D01*
%TO.C,SW21*%
X152650000Y-58800000D02*
X153650000Y-58800000D01*
X139650000Y-58800000D02*
X139650000Y-57800000D01*
X153650000Y-44800000D02*
X152650000Y-44800000D01*
X139650000Y-58800000D02*
X140650000Y-58800000D01*
X140650000Y-44800000D02*
X139650000Y-44800000D01*
X153650000Y-44800000D02*
X153650000Y-45800000D01*
X153650000Y-57800000D02*
X153650000Y-58800000D01*
X139650000Y-45800000D02*
X139650000Y-44800000D01*
%TO.C,SW6*%
X95650000Y-58800000D02*
X96650000Y-58800000D01*
X82650000Y-58800000D02*
X82650000Y-57800000D01*
X96650000Y-44800000D02*
X95650000Y-44800000D01*
X82650000Y-58800000D02*
X83650000Y-58800000D01*
X83650000Y-44800000D02*
X82650000Y-44800000D01*
X96650000Y-44800000D02*
X96650000Y-45800000D01*
X96650000Y-57800000D02*
X96650000Y-58800000D01*
X82650000Y-45800000D02*
X82650000Y-44800000D01*
D13*
%TO.C,R15*%
X209735000Y-133372936D02*
X209735000Y-133827064D01*
X208265000Y-133372936D02*
X208265000Y-133827064D01*
D11*
%TO.C,SW12*%
X114650000Y-77800000D02*
X115650000Y-77800000D01*
X101650000Y-77800000D02*
X101650000Y-76800000D01*
X115650000Y-63800000D02*
X114650000Y-63800000D01*
X101650000Y-77800000D02*
X102650000Y-77800000D01*
X102650000Y-63800000D02*
X101650000Y-63800000D01*
X115650000Y-63800000D02*
X115650000Y-64800000D01*
X115650000Y-76800000D02*
X115650000Y-77800000D01*
X101650000Y-64800000D02*
X101650000Y-63800000D01*
%TO.C,SW55*%
X324330000Y-134800000D02*
X325330000Y-134800000D01*
X311330000Y-134800000D02*
X311330000Y-133800000D01*
X325330000Y-120800000D02*
X324330000Y-120800000D01*
X311330000Y-134800000D02*
X312330000Y-134800000D01*
X312330000Y-120800000D02*
X311330000Y-120800000D01*
X325330000Y-120800000D02*
X325330000Y-121800000D01*
X325330000Y-133800000D02*
X325330000Y-134800000D01*
X311330000Y-121800000D02*
X311330000Y-120800000D01*
%TO.C,SW43*%
X286330000Y-96800000D02*
X287330000Y-96800000D01*
X273330000Y-96800000D02*
X273330000Y-95800000D01*
X287330000Y-82800000D02*
X286330000Y-82800000D01*
X273330000Y-96800000D02*
X274330000Y-96800000D01*
X274330000Y-82800000D02*
X273330000Y-82800000D01*
X287330000Y-82800000D02*
X287330000Y-83800000D01*
X287330000Y-95800000D02*
X287330000Y-96800000D01*
X273330000Y-83800000D02*
X273330000Y-82800000D01*
%TO.C,SW40*%
X267330000Y-134800000D02*
X268330000Y-134800000D01*
X254330000Y-134800000D02*
X254330000Y-133800000D01*
X268330000Y-120800000D02*
X267330000Y-120800000D01*
X254330000Y-134800000D02*
X255330000Y-134800000D01*
X255330000Y-120800000D02*
X254330000Y-120800000D01*
X268330000Y-120800000D02*
X268330000Y-121800000D01*
X268330000Y-133800000D02*
X268330000Y-134800000D01*
X254330000Y-121800000D02*
X254330000Y-120800000D01*
%TO.C,SW58*%
X343250000Y-96800000D02*
X344250000Y-96800000D01*
X330250000Y-96800000D02*
X330250000Y-95800000D01*
X344250000Y-82800000D02*
X343250000Y-82800000D01*
X330250000Y-96800000D02*
X331250000Y-96800000D01*
X331250000Y-82800000D02*
X330250000Y-82800000D01*
X344250000Y-82800000D02*
X344250000Y-83800000D01*
X344250000Y-95800000D02*
X344250000Y-96800000D01*
X330250000Y-83800000D02*
X330250000Y-82800000D01*
D13*
%TO.C,SW61*%
X188430000Y-135370000D02*
X188430000Y-134970000D01*
X188430000Y-135370000D02*
X193170000Y-135370000D01*
X193170000Y-135370000D02*
X193170000Y-134970000D01*
X193170000Y-134030000D02*
X193170000Y-131970000D01*
X193170000Y-130630000D02*
X193170000Y-131030000D01*
X188430000Y-130630000D02*
X193170000Y-130630000D01*
X188430000Y-134030000D02*
X188430000Y-131970000D01*
X188430000Y-130630000D02*
X188430000Y-131030000D01*
D11*
%TO.C,SW3*%
X76650000Y-96800000D02*
X77650000Y-96800000D01*
X63650000Y-96800000D02*
X63650000Y-95800000D01*
X77650000Y-82800000D02*
X76650000Y-82800000D01*
X63650000Y-96800000D02*
X64650000Y-96800000D01*
X64650000Y-82800000D02*
X63650000Y-82800000D01*
X77650000Y-82800000D02*
X77650000Y-83800000D01*
X77650000Y-95800000D02*
X77650000Y-96800000D01*
X63650000Y-83800000D02*
X63650000Y-82800000D01*
%TO.C,SW52*%
X324330000Y-77800000D02*
X325330000Y-77800000D01*
X311330000Y-77800000D02*
X311330000Y-76800000D01*
X325330000Y-63800000D02*
X324330000Y-63800000D01*
X311330000Y-77800000D02*
X312330000Y-77800000D01*
X312330000Y-63800000D02*
X311330000Y-63800000D01*
X325330000Y-63800000D02*
X325330000Y-64800000D01*
X325330000Y-76800000D02*
X325330000Y-77800000D01*
X311330000Y-64800000D02*
X311330000Y-63800000D01*
%TO.C,SW14*%
X114650000Y-115800000D02*
X115650000Y-115800000D01*
X101650000Y-115800000D02*
X101650000Y-114800000D01*
X115650000Y-101800000D02*
X114650000Y-101800000D01*
X101650000Y-115800000D02*
X102650000Y-115800000D01*
X102650000Y-101800000D02*
X101650000Y-101800000D01*
X115650000Y-101800000D02*
X115650000Y-102800000D01*
X115650000Y-114800000D02*
X115650000Y-115800000D01*
X101650000Y-102800000D02*
X101650000Y-101800000D01*
D13*
%TO.C,U2*%
X195760000Y-104300000D02*
X195760000Y-106250000D01*
X185640000Y-104300000D02*
X185640000Y-102350000D01*
X195760000Y-104300000D02*
X195760000Y-102350000D01*
X185640000Y-104300000D02*
X185640000Y-107750000D01*
D11*
%TO.C,SW33*%
X248330000Y-96800000D02*
X249330000Y-96800000D01*
X235330000Y-96800000D02*
X235330000Y-95800000D01*
X249330000Y-82800000D02*
X248330000Y-82800000D01*
X235330000Y-96800000D02*
X236330000Y-96800000D01*
X236330000Y-82800000D02*
X235330000Y-82800000D01*
X249330000Y-82800000D02*
X249330000Y-83800000D01*
X249330000Y-95800000D02*
X249330000Y-96800000D01*
X235330000Y-83800000D02*
X235330000Y-82800000D01*
D13*
%TO.C,C2*%
X186538748Y-99035000D02*
X187061252Y-99035000D01*
X186538748Y-97565000D02*
X187061252Y-97565000D01*
%TO.C,SW62*%
X200080000Y-135370000D02*
X200080000Y-134970000D01*
X200080000Y-135370000D02*
X204820000Y-135370000D01*
X204820000Y-135370000D02*
X204820000Y-134970000D01*
X204820000Y-134030000D02*
X204820000Y-131970000D01*
X204820000Y-130630000D02*
X204820000Y-131030000D01*
X200080000Y-130630000D02*
X204820000Y-130630000D01*
X200080000Y-134030000D02*
X200080000Y-131970000D01*
X200080000Y-130630000D02*
X200080000Y-131030000D01*
%TO.C,C3*%
X199138748Y-98935000D02*
X199661252Y-98935000D01*
X199138748Y-97465000D02*
X199661252Y-97465000D01*
D11*
%TO.C,SW46*%
X305330000Y-58800000D02*
X306330000Y-58800000D01*
X292330000Y-58800000D02*
X292330000Y-57800000D01*
X306330000Y-44800000D02*
X305330000Y-44800000D01*
X292330000Y-58800000D02*
X293330000Y-58800000D01*
X293330000Y-44800000D02*
X292330000Y-44800000D01*
X306330000Y-44800000D02*
X306330000Y-45800000D01*
X306330000Y-57800000D02*
X306330000Y-58800000D01*
X292330000Y-45800000D02*
X292330000Y-44800000D01*
%TO.C,SW4*%
X76650000Y-115800000D02*
X77650000Y-115800000D01*
X63650000Y-115800000D02*
X63650000Y-114800000D01*
X77650000Y-101800000D02*
X76650000Y-101800000D01*
X63650000Y-115800000D02*
X64650000Y-115800000D01*
X64650000Y-101800000D02*
X63650000Y-101800000D01*
X77650000Y-101800000D02*
X77650000Y-102800000D01*
X77650000Y-114800000D02*
X77650000Y-115800000D01*
X63650000Y-102800000D02*
X63650000Y-101800000D01*
%TO.C,SW18*%
X133650000Y-96800000D02*
X134650000Y-96800000D01*
X120650000Y-96800000D02*
X120650000Y-95800000D01*
X134650000Y-82800000D02*
X133650000Y-82800000D01*
X120650000Y-96800000D02*
X121650000Y-96800000D01*
X121650000Y-82800000D02*
X120650000Y-82800000D01*
X134650000Y-82800000D02*
X134650000Y-83800000D01*
X134650000Y-95800000D02*
X134650000Y-96800000D01*
X120650000Y-83800000D02*
X120650000Y-82800000D01*
%TO.C,SW37*%
X267330000Y-77800000D02*
X268330000Y-77800000D01*
X254330000Y-77800000D02*
X254330000Y-76800000D01*
X268330000Y-63800000D02*
X267330000Y-63800000D01*
X254330000Y-77800000D02*
X255330000Y-77800000D01*
X255330000Y-63800000D02*
X254330000Y-63800000D01*
X268330000Y-63800000D02*
X268330000Y-64800000D01*
X268330000Y-76800000D02*
X268330000Y-77800000D01*
X254330000Y-64800000D02*
X254330000Y-63800000D01*
%TO.C,SW53*%
X324330000Y-96800000D02*
X325330000Y-96800000D01*
X311330000Y-96800000D02*
X311330000Y-95800000D01*
X325330000Y-82800000D02*
X324330000Y-82800000D01*
X311330000Y-96800000D02*
X312330000Y-96800000D01*
X312330000Y-82800000D02*
X311330000Y-82800000D01*
X325330000Y-82800000D02*
X325330000Y-83800000D01*
X325330000Y-95800000D02*
X325330000Y-96800000D01*
X311330000Y-83800000D02*
X311330000Y-82800000D01*
%TO.C,SW54*%
X324330000Y-115800000D02*
X325330000Y-115800000D01*
X311330000Y-115800000D02*
X311330000Y-114800000D01*
X325330000Y-101800000D02*
X324330000Y-101800000D01*
X311330000Y-115800000D02*
X312330000Y-115800000D01*
X312330000Y-101800000D02*
X311330000Y-101800000D01*
X325330000Y-101800000D02*
X325330000Y-102800000D01*
X325330000Y-114800000D02*
X325330000Y-115800000D01*
X311330000Y-102800000D02*
X311330000Y-101800000D01*
%TO.C,SW50*%
X305330000Y-134800000D02*
X306330000Y-134800000D01*
X292330000Y-134800000D02*
X292330000Y-133800000D01*
X306330000Y-120800000D02*
X305330000Y-120800000D01*
X292330000Y-134800000D02*
X293330000Y-134800000D01*
X293330000Y-120800000D02*
X292330000Y-120800000D01*
X306330000Y-120800000D02*
X306330000Y-121800000D01*
X306330000Y-133800000D02*
X306330000Y-134800000D01*
X292330000Y-121800000D02*
X292330000Y-120800000D01*
%TO.C,SW25*%
X152650000Y-134800000D02*
X153650000Y-134800000D01*
X139650000Y-134800000D02*
X139650000Y-133800000D01*
X153650000Y-120800000D02*
X152650000Y-120800000D01*
X139650000Y-134800000D02*
X140650000Y-134800000D01*
X140650000Y-120800000D02*
X139650000Y-120800000D01*
X153650000Y-120800000D02*
X153650000Y-121800000D01*
X153650000Y-133800000D02*
X153650000Y-134800000D01*
X139650000Y-121800000D02*
X139650000Y-120800000D01*
%TO.C,SW36*%
X267330000Y-58800000D02*
X268330000Y-58800000D01*
X254330000Y-58800000D02*
X254330000Y-57800000D01*
X268330000Y-44800000D02*
X267330000Y-44800000D01*
X254330000Y-58800000D02*
X255330000Y-58800000D01*
X255330000Y-44800000D02*
X254330000Y-44800000D01*
X268330000Y-44800000D02*
X268330000Y-45800000D01*
X268330000Y-57800000D02*
X268330000Y-58800000D01*
X254330000Y-45800000D02*
X254330000Y-44800000D01*
D13*
%TO.C,R18*%
X202835000Y-59472936D02*
X202835000Y-59927064D01*
X201365000Y-59472936D02*
X201365000Y-59927064D01*
D11*
%TO.C,SW26*%
X171650000Y-58800000D02*
X172650000Y-58800000D01*
X158650000Y-58800000D02*
X158650000Y-57800000D01*
X172650000Y-44800000D02*
X171650000Y-44800000D01*
X158650000Y-58800000D02*
X159650000Y-58800000D01*
X159650000Y-44800000D02*
X158650000Y-44800000D01*
X172650000Y-44800000D02*
X172650000Y-45800000D01*
X172650000Y-57800000D02*
X172650000Y-58800000D01*
X158650000Y-45800000D02*
X158650000Y-44800000D01*
%TO.C,SW34*%
X248330000Y-115800000D02*
X249330000Y-115800000D01*
X235330000Y-115800000D02*
X235330000Y-114800000D01*
X249330000Y-101800000D02*
X248330000Y-101800000D01*
X235330000Y-115800000D02*
X236330000Y-115800000D01*
X236330000Y-101800000D02*
X235330000Y-101800000D01*
X249330000Y-101800000D02*
X249330000Y-102800000D01*
X249330000Y-114800000D02*
X249330000Y-115800000D01*
X235330000Y-102800000D02*
X235330000Y-101800000D01*
%TO.C,SW59*%
X343250000Y-115800000D02*
X344250000Y-115800000D01*
X330250000Y-115800000D02*
X330250000Y-114800000D01*
X344250000Y-101800000D02*
X343250000Y-101800000D01*
X330250000Y-115800000D02*
X331250000Y-115800000D01*
X331250000Y-101800000D02*
X330250000Y-101800000D01*
X344250000Y-101800000D02*
X344250000Y-102800000D01*
X344250000Y-114800000D02*
X344250000Y-115800000D01*
X330250000Y-102800000D02*
X330250000Y-101800000D01*
%TO.C,SW8*%
X95650000Y-96800000D02*
X96650000Y-96800000D01*
X82650000Y-96800000D02*
X82650000Y-95800000D01*
X96650000Y-82800000D02*
X95650000Y-82800000D01*
X82650000Y-96800000D02*
X83650000Y-96800000D01*
X83650000Y-82800000D02*
X82650000Y-82800000D01*
X96650000Y-82800000D02*
X96650000Y-83800000D01*
X96650000Y-95800000D02*
X96650000Y-96800000D01*
X82650000Y-83800000D02*
X82650000Y-82800000D01*
%TO.C,SW56*%
X343250000Y-58800000D02*
X344250000Y-58800000D01*
X330250000Y-58800000D02*
X330250000Y-57800000D01*
X344250000Y-44800000D02*
X343250000Y-44800000D01*
X330250000Y-58800000D02*
X331250000Y-58800000D01*
X331250000Y-44800000D02*
X330250000Y-44800000D01*
X344250000Y-44800000D02*
X344250000Y-45800000D01*
X344250000Y-57800000D02*
X344250000Y-58800000D01*
X330250000Y-45800000D02*
X330250000Y-44800000D01*
%TO.C,SW45*%
X286330000Y-134800000D02*
X287330000Y-134800000D01*
X273330000Y-134800000D02*
X273330000Y-133800000D01*
X287330000Y-120800000D02*
X286330000Y-120800000D01*
X273330000Y-134800000D02*
X274330000Y-134800000D01*
X274330000Y-120800000D02*
X273330000Y-120800000D01*
X287330000Y-120800000D02*
X287330000Y-121800000D01*
X287330000Y-133800000D02*
X287330000Y-134800000D01*
X273330000Y-121800000D02*
X273330000Y-120800000D01*
%TO.C,SW44*%
X286330000Y-115800000D02*
X287330000Y-115800000D01*
X273330000Y-115800000D02*
X273330000Y-114800000D01*
X287330000Y-101800000D02*
X286330000Y-101800000D01*
X273330000Y-115800000D02*
X274330000Y-115800000D01*
X274330000Y-101800000D02*
X273330000Y-101800000D01*
X287330000Y-101800000D02*
X287330000Y-102800000D01*
X287330000Y-114800000D02*
X287330000Y-115800000D01*
X273330000Y-102800000D02*
X273330000Y-101800000D01*
%TO.C,SW13*%
X114650000Y-96800000D02*
X115650000Y-96800000D01*
X101650000Y-96800000D02*
X101650000Y-95800000D01*
X115650000Y-82800000D02*
X114650000Y-82800000D01*
X101650000Y-96800000D02*
X102650000Y-96800000D01*
X102650000Y-82800000D02*
X101650000Y-82800000D01*
X115650000Y-82800000D02*
X115650000Y-83800000D01*
X115650000Y-95800000D02*
X115650000Y-96800000D01*
X101650000Y-83800000D02*
X101650000Y-82800000D01*
%TO.C,SW41*%
X286330000Y-58800000D02*
X287330000Y-58800000D01*
X273330000Y-58800000D02*
X273330000Y-57800000D01*
X287330000Y-44800000D02*
X286330000Y-44800000D01*
X273330000Y-58800000D02*
X274330000Y-58800000D01*
X274330000Y-44800000D02*
X273330000Y-44800000D01*
X287330000Y-44800000D02*
X287330000Y-45800000D01*
X287330000Y-57800000D02*
X287330000Y-58800000D01*
X273330000Y-45800000D02*
X273330000Y-44800000D01*
%TO.C,SW23*%
X152650000Y-96800000D02*
X153650000Y-96800000D01*
X139650000Y-96800000D02*
X139650000Y-95800000D01*
X153650000Y-82800000D02*
X152650000Y-82800000D01*
X139650000Y-96800000D02*
X140650000Y-96800000D01*
X140650000Y-82800000D02*
X139650000Y-82800000D01*
X153650000Y-82800000D02*
X153650000Y-83800000D01*
X153650000Y-95800000D02*
X153650000Y-96800000D01*
X139650000Y-83800000D02*
X139650000Y-82800000D01*
D13*
%TO.C,R20*%
X206065000Y-59927064D02*
X206065000Y-59472936D01*
X207535000Y-59927064D02*
X207535000Y-59472936D01*
D11*
%TO.C,SW17*%
X133650000Y-77800000D02*
X134650000Y-77800000D01*
X120650000Y-77800000D02*
X120650000Y-76800000D01*
X134650000Y-63800000D02*
X133650000Y-63800000D01*
X120650000Y-77800000D02*
X121650000Y-77800000D01*
X121650000Y-63800000D02*
X120650000Y-63800000D01*
X134650000Y-63800000D02*
X134650000Y-64800000D01*
X134650000Y-76800000D02*
X134650000Y-77800000D01*
X120650000Y-64800000D02*
X120650000Y-63800000D01*
%TO.C,SW47*%
X305330000Y-77800000D02*
X306330000Y-77800000D01*
X292330000Y-77800000D02*
X292330000Y-76800000D01*
X306330000Y-63800000D02*
X305330000Y-63800000D01*
X292330000Y-77800000D02*
X293330000Y-77800000D01*
X293330000Y-63800000D02*
X292330000Y-63800000D01*
X306330000Y-63800000D02*
X306330000Y-64800000D01*
X306330000Y-76800000D02*
X306330000Y-77800000D01*
X292330000Y-64800000D02*
X292330000Y-63800000D01*
%TO.C,SW15*%
X114650000Y-134800000D02*
X115650000Y-134800000D01*
X101650000Y-134800000D02*
X101650000Y-133800000D01*
X115650000Y-120800000D02*
X114650000Y-120800000D01*
X101650000Y-134800000D02*
X102650000Y-134800000D01*
X102650000Y-120800000D02*
X101650000Y-120800000D01*
X115650000Y-120800000D02*
X115650000Y-121800000D01*
X115650000Y-133800000D02*
X115650000Y-134800000D01*
X101650000Y-121800000D02*
X101650000Y-120800000D01*
%TO.C,SW11*%
X114650000Y-58800000D02*
X115650000Y-58800000D01*
X101650000Y-58800000D02*
X101650000Y-57800000D01*
X115650000Y-44800000D02*
X114650000Y-44800000D01*
X101650000Y-58800000D02*
X102650000Y-58800000D01*
X102650000Y-44800000D02*
X101650000Y-44800000D01*
X115650000Y-44800000D02*
X115650000Y-45800000D01*
X115650000Y-57800000D02*
X115650000Y-58800000D01*
X101650000Y-45800000D02*
X101650000Y-44800000D01*
%TO.C,SW38*%
X267330000Y-96800000D02*
X268330000Y-96800000D01*
X254330000Y-96800000D02*
X254330000Y-95800000D01*
X268330000Y-82800000D02*
X267330000Y-82800000D01*
X254330000Y-96800000D02*
X255330000Y-96800000D01*
X255330000Y-82800000D02*
X254330000Y-82800000D01*
X268330000Y-82800000D02*
X268330000Y-83800000D01*
X268330000Y-95800000D02*
X268330000Y-96800000D01*
X254330000Y-83800000D02*
X254330000Y-82800000D01*
%TO.C,SW19*%
X133650000Y-115800000D02*
X134650000Y-115800000D01*
X120650000Y-115800000D02*
X120650000Y-114800000D01*
X134650000Y-101800000D02*
X133650000Y-101800000D01*
X120650000Y-115800000D02*
X121650000Y-115800000D01*
X121650000Y-101800000D02*
X120650000Y-101800000D01*
X134650000Y-101800000D02*
X134650000Y-102800000D01*
X134650000Y-114800000D02*
X134650000Y-115800000D01*
X120650000Y-102800000D02*
X120650000Y-101800000D01*
%TO.C,SW28*%
X171650000Y-96800000D02*
X172650000Y-96800000D01*
X158650000Y-96800000D02*
X158650000Y-95800000D01*
X172650000Y-82800000D02*
X171650000Y-82800000D01*
X158650000Y-96800000D02*
X159650000Y-96800000D01*
X159650000Y-82800000D02*
X158650000Y-82800000D01*
X172650000Y-82800000D02*
X172650000Y-83800000D01*
X172650000Y-95800000D02*
X172650000Y-96800000D01*
X158650000Y-83800000D02*
X158650000Y-82800000D01*
D13*
%TO.C,R14*%
X200865000Y-75127064D02*
X200865000Y-74672936D01*
X202335000Y-75127064D02*
X202335000Y-74672936D01*
D11*
%TO.C,SW35*%
X248330000Y-134800000D02*
X249330000Y-134800000D01*
X235330000Y-134800000D02*
X235330000Y-133800000D01*
X249330000Y-120800000D02*
X248330000Y-120800000D01*
X235330000Y-134800000D02*
X236330000Y-134800000D01*
X236330000Y-120800000D02*
X235330000Y-120800000D01*
X249330000Y-120800000D02*
X249330000Y-121800000D01*
X249330000Y-133800000D02*
X249330000Y-134800000D01*
X235330000Y-121800000D02*
X235330000Y-120800000D01*
%TO.C,SW9*%
X95650000Y-115800000D02*
X96650000Y-115800000D01*
X82650000Y-115800000D02*
X82650000Y-114800000D01*
X96650000Y-101800000D02*
X95650000Y-101800000D01*
X82650000Y-115800000D02*
X83650000Y-115800000D01*
X83650000Y-101800000D02*
X82650000Y-101800000D01*
X96650000Y-101800000D02*
X96650000Y-102800000D01*
X96650000Y-114800000D02*
X96650000Y-115800000D01*
X82650000Y-102800000D02*
X82650000Y-101800000D01*
D13*
%TO.C,U3*%
X208660000Y-104300000D02*
X208660000Y-106250000D01*
X198540000Y-104300000D02*
X198540000Y-102350000D01*
X208660000Y-104300000D02*
X208660000Y-102350000D01*
X198540000Y-104300000D02*
X198540000Y-107750000D01*
D11*
%TO.C,SW16*%
X133650000Y-58800000D02*
X134650000Y-58800000D01*
X120650000Y-58800000D02*
X120650000Y-57800000D01*
X134650000Y-44800000D02*
X133650000Y-44800000D01*
X120650000Y-58800000D02*
X121650000Y-58800000D01*
X121650000Y-44800000D02*
X120650000Y-44800000D01*
X134650000Y-44800000D02*
X134650000Y-45800000D01*
X134650000Y-57800000D02*
X134650000Y-58800000D01*
X120650000Y-45800000D02*
X120650000Y-44800000D01*
%TO.C,SW51*%
X324330000Y-58800000D02*
X325330000Y-58800000D01*
X311330000Y-58800000D02*
X311330000Y-57800000D01*
X325330000Y-44800000D02*
X324330000Y-44800000D01*
X311330000Y-58800000D02*
X312330000Y-58800000D01*
X312330000Y-44800000D02*
X311330000Y-44800000D01*
X325330000Y-44800000D02*
X325330000Y-45800000D01*
X325330000Y-57800000D02*
X325330000Y-58800000D01*
X311330000Y-45800000D02*
X311330000Y-44800000D01*
D13*
%TO.C,R16*%
X184135000Y-133372936D02*
X184135000Y-133827064D01*
X182665000Y-133372936D02*
X182665000Y-133827064D01*
%TD*%
M02*
