G04 #@! TF.GenerationSoftware,KiCad,Pcbnew,(6.0.10)*
G04 #@! TF.CreationDate,2023-08-27T18:11:46-04:00*
G04 #@! TF.ProjectId,storyboard,73746f72-7962-46f6-9172-642e6b696361,rev?*
G04 #@! TF.SameCoordinates,Original*
G04 #@! TF.FileFunction,Soldermask,Bot*
G04 #@! TF.FilePolarity,Negative*
%FSLAX46Y46*%
G04 Gerber Fmt 4.6, Leading zero omitted, Abs format (unit mm)*
G04 Created by KiCad (PCBNEW (6.0.10)) date 2023-08-27 18:11:46*
%MOMM*%
%LPD*%
G01*
G04 APERTURE LIST*
G04 Aperture macros list*
%AMRoundRect*
0 Rectangle with rounded corners*
0 $1 Rounding radius*
0 $2 $3 $4 $5 $6 $7 $8 $9 X,Y pos of 4 corners*
0 Add a 4 corners polygon primitive as box body*
4,1,4,$2,$3,$4,$5,$6,$7,$8,$9,$2,$3,0*
0 Add four circle primitives for the rounded corners*
1,1,$1+$1,$2,$3*
1,1,$1+$1,$4,$5*
1,1,$1+$1,$6,$7*
1,1,$1+$1,$8,$9*
0 Add four rect primitives between the rounded corners*
20,1,$1+$1,$2,$3,$4,$5,0*
20,1,$1+$1,$4,$5,$6,$7,0*
20,1,$1+$1,$6,$7,$8,$9,0*
20,1,$1+$1,$8,$9,$2,$3,0*%
G04 Aperture macros list end*
%ADD10C,3.987800*%
%ADD11C,1.701800*%
%ADD12C,3.000000*%
%ADD13R,2.550000X2.500000*%
%ADD14C,2.000000*%
%ADD15R,1.700000X1.700000*%
%ADD16O,1.700000X1.700000*%
%ADD17C,2.700000*%
%ADD18R,2.000000X1.500000*%
%ADD19R,2.000000X3.800000*%
%ADD20RoundRect,0.250000X-0.450000X0.262500X-0.450000X-0.262500X0.450000X-0.262500X0.450000X0.262500X0*%
%ADD21R,0.700000X0.600000*%
%ADD22RoundRect,0.250000X-0.262500X-0.450000X0.262500X-0.450000X0.262500X0.450000X-0.262500X0.450000X0*%
%ADD23RoundRect,0.150000X-0.150000X0.825000X-0.150000X-0.825000X0.150000X-0.825000X0.150000X0.825000X0*%
%ADD24RoundRect,0.250000X0.450000X-0.262500X0.450000X0.262500X-0.450000X0.262500X-0.450000X-0.262500X0*%
%ADD25RoundRect,0.150000X0.150000X0.275000X-0.150000X0.275000X-0.150000X-0.275000X0.150000X-0.275000X0*%
%ADD26RoundRect,0.175000X0.175000X0.225000X-0.175000X0.225000X-0.175000X-0.225000X0.175000X-0.225000X0*%
%ADD27RoundRect,0.150000X0.825000X0.150000X-0.825000X0.150000X-0.825000X-0.150000X0.825000X-0.150000X0*%
%ADD28RoundRect,0.250000X0.475000X-0.250000X0.475000X0.250000X-0.475000X0.250000X-0.475000X-0.250000X0*%
%ADD29RoundRect,0.250000X0.262500X0.450000X-0.262500X0.450000X-0.262500X-0.450000X0.262500X-0.450000X0*%
%ADD30R,0.600000X0.700000*%
%ADD31RoundRect,0.250000X0.250000X0.475000X-0.250000X0.475000X-0.250000X-0.475000X0.250000X-0.475000X0*%
%ADD32C,6.000000*%
%ADD33C,1.597660*%
%ADD34C,1.099820*%
%ADD35R,0.299720X1.549400*%
%ADD36R,1.198880X2.748280*%
G04 APERTURE END LIST*
D10*
X318330000Y-51800000D03*
D11*
X323410000Y-51800000D03*
D12*
X320870000Y-46720000D03*
D11*
X313250000Y-51800000D03*
D12*
X314520000Y-49260000D03*
D13*
X324620000Y-46720000D03*
X310770000Y-49260000D03*
D11*
X132730000Y-51800000D03*
D12*
X123840000Y-49260000D03*
D10*
X127650000Y-51800000D03*
D12*
X130190000Y-46720000D03*
D11*
X122570000Y-51800000D03*
D13*
X133940000Y-46720000D03*
X120090000Y-49260000D03*
D11*
X84570000Y-108800000D03*
D10*
X89650000Y-108800000D03*
D12*
X92190000Y-103720000D03*
X85840000Y-106260000D03*
D11*
X94730000Y-108800000D03*
D13*
X95940000Y-103720000D03*
X82090000Y-106260000D03*
D12*
X244870000Y-122720000D03*
D11*
X237250000Y-127800000D03*
D10*
X242330000Y-127800000D03*
D12*
X238520000Y-125260000D03*
D11*
X247410000Y-127800000D03*
D13*
X248620000Y-122720000D03*
X234770000Y-125260000D03*
D10*
X165650000Y-89800000D03*
D12*
X168190000Y-84720000D03*
X161840000Y-87260000D03*
D11*
X170730000Y-89800000D03*
X160570000Y-89800000D03*
D13*
X171940000Y-84720000D03*
X158090000Y-87260000D03*
D10*
X127650000Y-108800000D03*
D11*
X122570000Y-108800000D03*
D12*
X130190000Y-103720000D03*
X123840000Y-106260000D03*
D11*
X132730000Y-108800000D03*
D13*
X133940000Y-103720000D03*
X120090000Y-106260000D03*
D12*
X263870000Y-84720000D03*
D10*
X261330000Y-89800000D03*
D12*
X257520000Y-87260000D03*
D11*
X266410000Y-89800000D03*
X256250000Y-89800000D03*
D13*
X267620000Y-84720000D03*
X253770000Y-87260000D03*
D10*
X108650000Y-51800000D03*
D11*
X103570000Y-51800000D03*
D12*
X104840000Y-49260000D03*
D11*
X113730000Y-51800000D03*
D12*
X111190000Y-46720000D03*
D13*
X114940000Y-46720000D03*
X101090000Y-49260000D03*
D12*
X104840000Y-125260000D03*
D11*
X103570000Y-127800000D03*
D12*
X111190000Y-122720000D03*
D10*
X108650000Y-127800000D03*
D11*
X113730000Y-127800000D03*
D13*
X114940000Y-122720000D03*
X101090000Y-125260000D03*
D12*
X301870000Y-65720000D03*
D11*
X294250000Y-70800000D03*
D12*
X295520000Y-68260000D03*
D10*
X299330000Y-70800000D03*
D11*
X304410000Y-70800000D03*
D13*
X305620000Y-65720000D03*
X291770000Y-68260000D03*
D12*
X130190000Y-65720000D03*
D11*
X122570000Y-70800000D03*
D12*
X123840000Y-68260000D03*
D10*
X127650000Y-70800000D03*
D11*
X132730000Y-70800000D03*
D13*
X133940000Y-65720000D03*
X120090000Y-68260000D03*
D10*
X146650000Y-89800000D03*
D12*
X149190000Y-84720000D03*
D11*
X141570000Y-89800000D03*
D12*
X142840000Y-87260000D03*
D11*
X151730000Y-89800000D03*
D13*
X152940000Y-84720000D03*
X139090000Y-87260000D03*
D11*
X285410000Y-51800000D03*
X275250000Y-51800000D03*
D10*
X280330000Y-51800000D03*
D12*
X282870000Y-46720000D03*
X276520000Y-49260000D03*
D13*
X286620000Y-46720000D03*
X272770000Y-49260000D03*
D12*
X111190000Y-84720000D03*
D10*
X108650000Y-89800000D03*
D11*
X103570000Y-89800000D03*
X113730000Y-89800000D03*
D12*
X104840000Y-87260000D03*
D13*
X114940000Y-84720000D03*
X101090000Y-87260000D03*
D11*
X285410000Y-108800000D03*
D12*
X276520000Y-106260000D03*
D10*
X280330000Y-108800000D03*
D11*
X275250000Y-108800000D03*
D12*
X282870000Y-103720000D03*
D13*
X286620000Y-103720000D03*
X272770000Y-106260000D03*
D11*
X285410000Y-127800000D03*
D10*
X280330000Y-127800000D03*
D11*
X275250000Y-127800000D03*
D12*
X282870000Y-122720000D03*
X276520000Y-125260000D03*
D13*
X286620000Y-122720000D03*
X272770000Y-125260000D03*
D11*
X342330000Y-51800000D03*
D12*
X339790000Y-46720000D03*
X333440000Y-49260000D03*
D11*
X332170000Y-51800000D03*
D10*
X337250000Y-51800000D03*
D13*
X343540000Y-46720000D03*
X329690000Y-49260000D03*
D11*
X94730000Y-89800000D03*
D12*
X85840000Y-87260000D03*
D10*
X89650000Y-89800000D03*
D11*
X84570000Y-89800000D03*
D12*
X92190000Y-84720000D03*
D13*
X95940000Y-84720000D03*
X82090000Y-87260000D03*
D12*
X339790000Y-103720000D03*
D10*
X337250000Y-108800000D03*
D12*
X333440000Y-106260000D03*
D11*
X342330000Y-108800000D03*
X332170000Y-108800000D03*
D13*
X343540000Y-103720000D03*
X329690000Y-106260000D03*
D11*
X247410000Y-108800000D03*
D12*
X244870000Y-103720000D03*
D10*
X242330000Y-108800000D03*
D11*
X237250000Y-108800000D03*
D12*
X238520000Y-106260000D03*
D13*
X248620000Y-103720000D03*
X234770000Y-106260000D03*
D12*
X161840000Y-49260000D03*
D10*
X165650000Y-51800000D03*
D11*
X170730000Y-51800000D03*
X160570000Y-51800000D03*
D12*
X168190000Y-46720000D03*
D13*
X171940000Y-46720000D03*
X158090000Y-49260000D03*
D10*
X261330000Y-51800000D03*
D11*
X256250000Y-51800000D03*
D12*
X263870000Y-46720000D03*
X257520000Y-49260000D03*
D11*
X266410000Y-51800000D03*
D13*
X267620000Y-46720000D03*
X253770000Y-49260000D03*
D11*
X141570000Y-127800000D03*
D10*
X146650000Y-127800000D03*
D12*
X142840000Y-125260000D03*
X149190000Y-122720000D03*
D11*
X151730000Y-127800000D03*
D13*
X152940000Y-122720000D03*
X139090000Y-125260000D03*
D11*
X294250000Y-127800000D03*
D12*
X301870000Y-122720000D03*
D10*
X299330000Y-127800000D03*
D11*
X304410000Y-127800000D03*
D12*
X295520000Y-125260000D03*
D13*
X305620000Y-122720000D03*
X291770000Y-125260000D03*
D12*
X320870000Y-103720000D03*
D10*
X318330000Y-108800000D03*
D12*
X314520000Y-106260000D03*
D11*
X323410000Y-108800000D03*
X313250000Y-108800000D03*
D13*
X324620000Y-103720000D03*
X310770000Y-106260000D03*
D12*
X320870000Y-84720000D03*
D10*
X318330000Y-89800000D03*
D11*
X313250000Y-89800000D03*
X323410000Y-89800000D03*
D12*
X314520000Y-87260000D03*
D13*
X324620000Y-84720000D03*
X310770000Y-87260000D03*
D11*
X256250000Y-70800000D03*
D12*
X257520000Y-68260000D03*
D10*
X261330000Y-70800000D03*
D11*
X266410000Y-70800000D03*
D12*
X263870000Y-65720000D03*
D13*
X267620000Y-65720000D03*
X253770000Y-68260000D03*
D11*
X122570000Y-89800000D03*
D10*
X127650000Y-89800000D03*
D12*
X123840000Y-87260000D03*
D11*
X132730000Y-89800000D03*
D12*
X130190000Y-84720000D03*
D13*
X133940000Y-84720000D03*
X120090000Y-87260000D03*
D12*
X73190000Y-103720000D03*
D10*
X70650000Y-108800000D03*
D11*
X65570000Y-108800000D03*
D12*
X66840000Y-106260000D03*
D11*
X75730000Y-108800000D03*
D13*
X76940000Y-103720000D03*
X63090000Y-106260000D03*
D11*
X294250000Y-51800000D03*
D12*
X295520000Y-49260000D03*
D11*
X304410000Y-51800000D03*
D10*
X299330000Y-51800000D03*
D12*
X301870000Y-46720000D03*
D13*
X305620000Y-46720000D03*
X291770000Y-49260000D03*
D14*
X190150000Y-128950000D03*
X196650000Y-128950000D03*
X196650000Y-133450000D03*
X190150000Y-133450000D03*
D10*
X242330000Y-89800000D03*
D12*
X244870000Y-84720000D03*
D11*
X237250000Y-89800000D03*
D12*
X238520000Y-87260000D03*
D11*
X247410000Y-89800000D03*
D13*
X248620000Y-84720000D03*
X234770000Y-87260000D03*
D10*
X108650000Y-108800000D03*
D12*
X104840000Y-106260000D03*
X111190000Y-103720000D03*
D11*
X113730000Y-108800000D03*
X103570000Y-108800000D03*
D13*
X114940000Y-103720000D03*
X101090000Y-106260000D03*
D12*
X314520000Y-68260000D03*
D10*
X318330000Y-70800000D03*
D11*
X323410000Y-70800000D03*
X313250000Y-70800000D03*
D12*
X320870000Y-65720000D03*
D13*
X324620000Y-65720000D03*
X310770000Y-68260000D03*
D10*
X70650000Y-89800000D03*
D11*
X75730000Y-89800000D03*
D12*
X73190000Y-84720000D03*
D11*
X65570000Y-89800000D03*
D12*
X66840000Y-87260000D03*
D13*
X76940000Y-84720000D03*
X63090000Y-87260000D03*
D14*
X178950000Y-128950000D03*
X185450000Y-128950000D03*
X178950000Y-133450000D03*
X185450000Y-133450000D03*
D11*
X342330000Y-89800000D03*
D12*
X339790000Y-84720000D03*
D10*
X337250000Y-89800000D03*
D12*
X333440000Y-87260000D03*
D11*
X332170000Y-89800000D03*
D13*
X343540000Y-84720000D03*
X329690000Y-87260000D03*
D10*
X261330000Y-127800000D03*
D11*
X256250000Y-127800000D03*
X266410000Y-127800000D03*
D12*
X263870000Y-122720000D03*
X257520000Y-125260000D03*
D13*
X267620000Y-122720000D03*
X253770000Y-125260000D03*
D12*
X276520000Y-87260000D03*
D11*
X285410000Y-89800000D03*
D10*
X280330000Y-89800000D03*
D12*
X282870000Y-84720000D03*
D11*
X275250000Y-89800000D03*
D13*
X286620000Y-84720000D03*
X272770000Y-87260000D03*
D11*
X323410000Y-127800000D03*
X313250000Y-127800000D03*
D12*
X320870000Y-122720000D03*
X314520000Y-125260000D03*
D10*
X318330000Y-127800000D03*
D13*
X324620000Y-122720000D03*
X310770000Y-125260000D03*
D12*
X104840000Y-68260000D03*
D10*
X108650000Y-70800000D03*
D11*
X103570000Y-70800000D03*
D12*
X111190000Y-65720000D03*
D11*
X113730000Y-70800000D03*
D13*
X114940000Y-65720000D03*
X101090000Y-68260000D03*
D12*
X92190000Y-46720000D03*
X85840000Y-49260000D03*
D11*
X94730000Y-51800000D03*
D10*
X89650000Y-51800000D03*
D11*
X84570000Y-51800000D03*
D13*
X95940000Y-46720000D03*
X82090000Y-49260000D03*
D11*
X151730000Y-51800000D03*
D12*
X149190000Y-46720000D03*
X142840000Y-49260000D03*
D11*
X141570000Y-51800000D03*
D10*
X146650000Y-51800000D03*
D13*
X152940000Y-46720000D03*
X139090000Y-49260000D03*
D11*
X304410000Y-89800000D03*
X294250000Y-89800000D03*
D10*
X299330000Y-89800000D03*
D12*
X301870000Y-84720000D03*
X295520000Y-87260000D03*
D13*
X305620000Y-84720000D03*
X291770000Y-87260000D03*
D15*
X224023000Y-133096000D03*
D16*
X221483000Y-133096000D03*
X218943000Y-133096000D03*
X216403000Y-133096000D03*
X213863000Y-133096000D03*
D12*
X238520000Y-68260000D03*
D10*
X242330000Y-70800000D03*
D11*
X247410000Y-70800000D03*
D12*
X244870000Y-65720000D03*
D11*
X237250000Y-70800000D03*
D13*
X248620000Y-65720000D03*
X234770000Y-68260000D03*
D10*
X70650000Y-127800000D03*
D11*
X75730000Y-127800000D03*
D12*
X66840000Y-125260000D03*
X73190000Y-122720000D03*
D11*
X65570000Y-127800000D03*
D13*
X76940000Y-122720000D03*
X63090000Y-125260000D03*
D11*
X256250000Y-108800000D03*
D12*
X263870000Y-103720000D03*
D10*
X261330000Y-108800000D03*
D12*
X257520000Y-106260000D03*
D11*
X266410000Y-108800000D03*
D13*
X267620000Y-103720000D03*
X253770000Y-106260000D03*
D12*
X301870000Y-103720000D03*
X295520000Y-106260000D03*
D11*
X304410000Y-108800000D03*
X294250000Y-108800000D03*
D10*
X299330000Y-108800000D03*
D13*
X305620000Y-103720000D03*
X291770000Y-106260000D03*
D12*
X123840000Y-125260000D03*
X130190000Y-122720000D03*
D11*
X132730000Y-127800000D03*
D10*
X127650000Y-127800000D03*
D11*
X122570000Y-127800000D03*
D13*
X133940000Y-122720000D03*
X120090000Y-125260000D03*
D11*
X84570000Y-70800000D03*
D12*
X92190000Y-65720000D03*
D10*
X89650000Y-70800000D03*
D12*
X85840000Y-68260000D03*
D11*
X94730000Y-70800000D03*
D13*
X95940000Y-65720000D03*
X82090000Y-68260000D03*
D12*
X161840000Y-106260000D03*
D10*
X165650000Y-108800000D03*
D12*
X168190000Y-103720000D03*
D11*
X160570000Y-108800000D03*
X170730000Y-108800000D03*
D13*
X171940000Y-103720000D03*
X158090000Y-106260000D03*
D12*
X339790000Y-65720000D03*
X333440000Y-68260000D03*
D11*
X332170000Y-70800000D03*
X342330000Y-70800000D03*
D10*
X337250000Y-70800000D03*
D13*
X343540000Y-65720000D03*
X329690000Y-68260000D03*
D11*
X84570000Y-127800000D03*
X94730000Y-127800000D03*
D12*
X92190000Y-122720000D03*
D10*
X89650000Y-127800000D03*
D12*
X85840000Y-125260000D03*
D13*
X95940000Y-122720000D03*
X82090000Y-125260000D03*
D12*
X276520000Y-68260000D03*
X282870000Y-65720000D03*
D11*
X285410000Y-70800000D03*
D10*
X280330000Y-70800000D03*
D11*
X275250000Y-70800000D03*
D13*
X286620000Y-65720000D03*
X272770000Y-68260000D03*
D12*
X168190000Y-65720000D03*
D10*
X165650000Y-70800000D03*
D11*
X160570000Y-70800000D03*
X170730000Y-70800000D03*
D12*
X161840000Y-68260000D03*
D13*
X171940000Y-65720000D03*
X158090000Y-68260000D03*
D12*
X142840000Y-106260000D03*
X149190000Y-103720000D03*
D11*
X151730000Y-108800000D03*
X141570000Y-108800000D03*
D10*
X146650000Y-108800000D03*
D13*
X152940000Y-103720000D03*
X139090000Y-106260000D03*
D11*
X342330000Y-127800000D03*
D12*
X333440000Y-125260000D03*
X339790000Y-122720000D03*
D11*
X332170000Y-127800000D03*
D10*
X337250000Y-127800000D03*
D13*
X343540000Y-122720000D03*
X329690000Y-125260000D03*
D11*
X170730000Y-127800000D03*
D12*
X161840000Y-125260000D03*
D10*
X165650000Y-127800000D03*
D12*
X168190000Y-122720000D03*
D11*
X160570000Y-127800000D03*
D13*
X171940000Y-122720000D03*
X158090000Y-125260000D03*
D17*
X179000000Y-108300000D03*
X228500000Y-50300000D03*
X228500000Y-108300000D03*
X179000000Y-50300000D03*
D15*
X226868000Y-54988000D03*
D16*
X229408000Y-54988000D03*
X226868000Y-57528000D03*
X229408000Y-57528000D03*
X226868000Y-60068000D03*
X229408000Y-60068000D03*
X226868000Y-62608000D03*
X229408000Y-62608000D03*
X226868000Y-65148000D03*
X229408000Y-65148000D03*
X226868000Y-67688000D03*
X229408000Y-67688000D03*
X226868000Y-70228000D03*
X229408000Y-70228000D03*
X226868000Y-72768000D03*
X229408000Y-72768000D03*
X226868000Y-75308000D03*
X229408000Y-75308000D03*
X226868000Y-77848000D03*
X229408000Y-77848000D03*
X226868000Y-80388000D03*
X229408000Y-80388000D03*
X226868000Y-82928000D03*
X229408000Y-82928000D03*
X226868000Y-85468000D03*
X229408000Y-85468000D03*
X226868000Y-88008000D03*
X229408000Y-88008000D03*
X226868000Y-90548000D03*
X229408000Y-90548000D03*
X226868000Y-93088000D03*
X229408000Y-93088000D03*
X226868000Y-95628000D03*
X229408000Y-95628000D03*
X226868000Y-98168000D03*
X229408000Y-98168000D03*
X226868000Y-100708000D03*
X229408000Y-100708000D03*
X226868000Y-103248000D03*
X229408000Y-103248000D03*
D11*
X247410000Y-51800000D03*
X237250000Y-51800000D03*
D10*
X242330000Y-51800000D03*
D12*
X244870000Y-46720000D03*
X238520000Y-49260000D03*
D13*
X248620000Y-46720000D03*
X234770000Y-49260000D03*
D12*
X73190000Y-46720000D03*
D11*
X75730000Y-51800000D03*
X65570000Y-51800000D03*
D12*
X66840000Y-49260000D03*
D10*
X70650000Y-51800000D03*
D13*
X76940000Y-46720000D03*
X63090000Y-49260000D03*
D11*
X151730000Y-70800000D03*
D10*
X146650000Y-70800000D03*
D12*
X142840000Y-68260000D03*
X149190000Y-65720000D03*
D11*
X141570000Y-70800000D03*
D13*
X152940000Y-65720000D03*
X139090000Y-68260000D03*
D12*
X73190000Y-65720000D03*
D10*
X70650000Y-70800000D03*
D11*
X75730000Y-70800000D03*
X65570000Y-70800000D03*
D12*
X66840000Y-68260000D03*
D13*
X76940000Y-65720000D03*
X63090000Y-68260000D03*
D18*
X191750000Y-63700000D03*
X191750000Y-66000000D03*
D19*
X185450000Y-66000000D03*
D18*
X191750000Y-68300000D03*
D20*
X308800000Y-62187500D03*
X308800000Y-64012500D03*
D21*
X82100000Y-58800000D03*
X82100000Y-57400000D03*
D20*
X156200000Y-62087500D03*
X156200000Y-63912500D03*
D22*
X181087500Y-126400000D03*
X182912500Y-126400000D03*
D21*
X158100000Y-115800000D03*
X158100000Y-114400000D03*
X291800000Y-58800000D03*
X291800000Y-57400000D03*
D23*
X199155000Y-101825000D03*
X200425000Y-101825000D03*
X201695000Y-101825000D03*
X202965000Y-101825000D03*
X204235000Y-101825000D03*
X205505000Y-101825000D03*
X206775000Y-101825000D03*
X208045000Y-101825000D03*
X208045000Y-106775000D03*
X206775000Y-106775000D03*
X205505000Y-106775000D03*
X204235000Y-106775000D03*
X202965000Y-106775000D03*
X201695000Y-106775000D03*
X200425000Y-106775000D03*
X199155000Y-106775000D03*
D21*
X120100000Y-96900000D03*
X120100000Y-95500000D03*
X82200000Y-77800000D03*
X82200000Y-76400000D03*
X158100000Y-77800000D03*
X158100000Y-76400000D03*
X291800000Y-77875000D03*
X291800000Y-76475000D03*
X95900000Y-119000000D03*
X95900000Y-117600000D03*
D24*
X178600000Y-119512500D03*
X178600000Y-117687500D03*
D21*
X158200000Y-96900000D03*
X158200000Y-95500000D03*
X310800000Y-58850000D03*
X310800000Y-57450000D03*
X158200000Y-131700000D03*
X158200000Y-130300000D03*
X101100000Y-77800000D03*
X101100000Y-76400000D03*
X82100000Y-115800000D03*
X82100000Y-114400000D03*
X101100000Y-115800000D03*
X101100000Y-114400000D03*
X139100000Y-115800000D03*
X139100000Y-114400000D03*
D25*
X206300000Y-45797893D03*
X205100000Y-45797893D03*
X203900000Y-45797893D03*
X202700000Y-45797893D03*
D26*
X201550000Y-49572893D03*
X207450000Y-49572893D03*
D21*
X234800000Y-77900000D03*
X234800000Y-76500000D03*
X286600000Y-119000000D03*
X286600000Y-117600000D03*
D22*
X217527500Y-94488000D03*
X219352500Y-94488000D03*
D21*
X234800000Y-96800000D03*
X234800000Y-95400000D03*
D20*
X327800000Y-62000000D03*
X327800000Y-63825000D03*
D21*
X310800000Y-77850000D03*
X310800000Y-76450000D03*
X291800000Y-115800000D03*
X291800000Y-114400000D03*
X120100000Y-77800000D03*
X120100000Y-76400000D03*
X158100000Y-58800000D03*
X158100000Y-57400000D03*
X82200000Y-134900000D03*
X82200000Y-133500000D03*
X120200000Y-58800000D03*
X120200000Y-57400000D03*
X234800000Y-134800000D03*
X234800000Y-133400000D03*
X234750000Y-58800000D03*
X234750000Y-57400000D03*
D27*
X207350000Y-116850000D03*
X207350000Y-118120000D03*
X207350000Y-119390000D03*
X207350000Y-120660000D03*
X207350000Y-121930000D03*
X207350000Y-123200000D03*
X207350000Y-124470000D03*
X202400000Y-124470000D03*
X202400000Y-123200000D03*
X202400000Y-121930000D03*
X202400000Y-120660000D03*
X202400000Y-119390000D03*
X202400000Y-118120000D03*
X202400000Y-116850000D03*
D21*
X253800000Y-96800000D03*
X253800000Y-95400000D03*
X63200000Y-96900000D03*
X63200000Y-95500000D03*
X253800000Y-77900000D03*
X253800000Y-76500000D03*
X253800000Y-115800000D03*
X253800000Y-114400000D03*
X139100000Y-96800000D03*
X139100000Y-95400000D03*
D22*
X211177500Y-94488000D03*
X213002500Y-94488000D03*
D21*
X272800000Y-134800000D03*
X272800000Y-133400000D03*
X324600000Y-119000000D03*
X324600000Y-117600000D03*
X272750000Y-58800000D03*
X272750000Y-57400000D03*
X291800000Y-96800000D03*
X291800000Y-95400000D03*
X120100000Y-115800000D03*
X120100000Y-114400000D03*
X310800000Y-134900000D03*
X310800000Y-133500000D03*
X114900000Y-119000000D03*
X114900000Y-117600000D03*
X329700000Y-58800000D03*
X329700000Y-57400000D03*
X329700000Y-134800000D03*
X329700000Y-133400000D03*
X234800000Y-115900000D03*
X234800000Y-114500000D03*
X253800000Y-58800000D03*
X253800000Y-57400000D03*
X329800000Y-77800000D03*
X329800000Y-76400000D03*
X329700000Y-96800000D03*
X329700000Y-95400000D03*
X310800000Y-115800000D03*
X310800000Y-114400000D03*
D20*
X198800000Y-121377500D03*
X198800000Y-123202500D03*
D21*
X63200000Y-134900000D03*
X63200000Y-133500000D03*
X82200000Y-96800000D03*
X82200000Y-95400000D03*
X172000000Y-119000000D03*
X172000000Y-117600000D03*
X343500000Y-119000000D03*
X343500000Y-117600000D03*
D28*
X196200000Y-63750000D03*
X196200000Y-61850000D03*
D29*
X202412500Y-126690000D03*
X200587500Y-126690000D03*
D30*
X216454000Y-128016000D03*
X215054000Y-128016000D03*
D31*
X199131646Y-109864912D03*
X197231646Y-109864912D03*
D21*
X63200000Y-77800000D03*
X63200000Y-76400000D03*
D31*
X186249820Y-109993151D03*
X184349820Y-109993151D03*
D23*
X186255000Y-101825000D03*
X187525000Y-101825000D03*
X188795000Y-101825000D03*
X190065000Y-101825000D03*
X191335000Y-101825000D03*
X192605000Y-101825000D03*
X193875000Y-101825000D03*
X195145000Y-101825000D03*
X195145000Y-106775000D03*
X193875000Y-106775000D03*
X192605000Y-106775000D03*
X191335000Y-106775000D03*
X190065000Y-106775000D03*
X188795000Y-106775000D03*
X187525000Y-106775000D03*
X186255000Y-106775000D03*
D21*
X101100000Y-134800000D03*
X101100000Y-133400000D03*
X101200000Y-96900000D03*
X101200000Y-95500000D03*
D20*
X251800000Y-62187500D03*
X251800000Y-64012500D03*
X343600000Y-60387500D03*
X343600000Y-62212500D03*
D28*
X196200000Y-68350000D03*
X196200000Y-66450000D03*
D21*
X120100000Y-134800000D03*
X120100000Y-133400000D03*
X63100000Y-58850000D03*
X63100000Y-57450000D03*
D20*
X211300000Y-116277500D03*
X211300000Y-118102500D03*
D22*
X192287500Y-126200000D03*
X194112500Y-126200000D03*
D21*
X139100000Y-134800000D03*
X139100000Y-133400000D03*
X152900000Y-119000000D03*
X152900000Y-117600000D03*
D28*
X198875000Y-118740000D03*
X198875000Y-116840000D03*
D21*
X76900000Y-119000000D03*
X76900000Y-117600000D03*
X291800000Y-132100000D03*
X291800000Y-130700000D03*
X63100000Y-115900000D03*
X63100000Y-114500000D03*
D20*
X137200000Y-62087500D03*
X137200000Y-63912500D03*
X175000000Y-62087500D03*
X175000000Y-63912500D03*
X289800000Y-62187500D03*
X289800000Y-64012500D03*
D21*
X139100000Y-58800000D03*
X139100000Y-57400000D03*
X272800000Y-77900000D03*
X272800000Y-76500000D03*
D20*
X270800000Y-62187500D03*
X270800000Y-64012500D03*
D21*
X139100000Y-77800000D03*
X139100000Y-76400000D03*
X305600000Y-119000000D03*
X305600000Y-117600000D03*
X329800000Y-115900000D03*
X329800000Y-114500000D03*
D32*
X207002040Y-65686864D03*
D21*
X272800000Y-96800000D03*
X272800000Y-95400000D03*
X310800000Y-96800000D03*
X310800000Y-95400000D03*
X248600000Y-119000000D03*
X248600000Y-117600000D03*
X267600000Y-119000000D03*
X267600000Y-117600000D03*
X272800000Y-115800000D03*
X272800000Y-114400000D03*
D33*
X220999980Y-85945195D03*
D34*
X201000020Y-85945195D03*
D35*
X201751860Y-91218235D03*
X202000780Y-83671895D03*
X202252240Y-91218235D03*
X202501160Y-83671895D03*
X202750080Y-91218235D03*
X203001540Y-83671895D03*
X203250460Y-91218235D03*
X203501920Y-83671895D03*
X203750840Y-91218235D03*
X204002300Y-83671895D03*
X204251220Y-91218235D03*
X204500140Y-83671895D03*
X204751600Y-91218235D03*
X205000520Y-83671895D03*
X205251980Y-91218235D03*
X205500900Y-83671895D03*
X205752360Y-91218235D03*
X206001280Y-83671895D03*
X206250200Y-91218235D03*
X206501660Y-83671895D03*
X206750580Y-91218235D03*
X207002040Y-83671895D03*
X207250960Y-91218235D03*
X209501400Y-83671895D03*
X209750320Y-91218235D03*
X210001780Y-83671895D03*
X210250700Y-91218235D03*
X210502160Y-83671895D03*
X210751080Y-91218235D03*
X211000000Y-83671895D03*
X211248920Y-91218235D03*
X211497840Y-83671895D03*
X211749300Y-91218235D03*
X211998220Y-83671895D03*
X212249680Y-91218235D03*
X212498600Y-83671895D03*
X212747520Y-91218235D03*
X212998980Y-83671895D03*
X213247900Y-91218235D03*
X213499360Y-83671895D03*
X213748280Y-91218235D03*
X213999740Y-83671895D03*
X214248660Y-91218235D03*
X214497580Y-83671895D03*
X214749040Y-91218235D03*
X214997960Y-83671895D03*
X215249420Y-91218235D03*
X215498340Y-83671895D03*
X215749800Y-91218235D03*
X215998720Y-83671895D03*
X216247640Y-91218235D03*
X216499100Y-83671895D03*
X216748020Y-91218235D03*
X216999480Y-83671895D03*
X217248400Y-91218235D03*
X217499860Y-83671895D03*
X217748780Y-91218235D03*
X217997700Y-83671895D03*
X218249160Y-91218235D03*
X218498080Y-83671895D03*
X218749540Y-91218235D03*
X218998460Y-83671895D03*
X219249920Y-91218235D03*
X219498840Y-83671895D03*
X219747760Y-91218235D03*
X219999220Y-83671895D03*
X220248140Y-91218235D03*
D36*
X200652040Y-90443535D03*
X221347960Y-90443535D03*
D21*
X101200000Y-58900000D03*
X101200000Y-57500000D03*
X253800000Y-134900000D03*
X253800000Y-133500000D03*
D20*
X99200000Y-62087500D03*
X99200000Y-63912500D03*
X118200000Y-62087500D03*
X118200000Y-63912500D03*
D21*
X134000000Y-119000000D03*
X134000000Y-117600000D03*
D20*
X80200000Y-62087500D03*
X80200000Y-63912500D03*
M02*
