G04 #@! TF.GenerationSoftware,KiCad,Pcbnew,(6.0.10)*
G04 #@! TF.CreationDate,2023-08-27T18:11:46-04:00*
G04 #@! TF.ProjectId,storyboard,73746f72-7962-46f6-9172-642e6b696361,rev?*
G04 #@! TF.SameCoordinates,Original*
G04 #@! TF.FileFunction,Legend,Bot*
G04 #@! TF.FilePolarity,Positive*
%FSLAX46Y46*%
G04 Gerber Fmt 4.6, Leading zero omitted, Abs format (unit mm)*
G04 Created by KiCad (PCBNEW (6.0.10)) date 2023-08-27 18:11:46*
%MOMM*%
%LPD*%
G01*
G04 APERTURE LIST*
G04 Aperture macros list*
%AMRoundRect*
0 Rectangle with rounded corners*
0 $1 Rounding radius*
0 $2 $3 $4 $5 $6 $7 $8 $9 X,Y pos of 4 corners*
0 Add a 4 corners polygon primitive as box body*
4,1,4,$2,$3,$4,$5,$6,$7,$8,$9,$2,$3,0*
0 Add four circle primitives for the rounded corners*
1,1,$1+$1,$2,$3*
1,1,$1+$1,$4,$5*
1,1,$1+$1,$6,$7*
1,1,$1+$1,$8,$9*
0 Add four rect primitives between the rounded corners*
20,1,$1+$1,$2,$3,$4,$5,0*
20,1,$1+$1,$4,$5,$6,$7,0*
20,1,$1+$1,$6,$7,$8,$9,0*
20,1,$1+$1,$8,$9,$2,$3,0*%
G04 Aperture macros list end*
%ADD10C,0.150000*%
%ADD11C,0.050800*%
%ADD12C,0.120000*%
%ADD13C,0.152400*%
%ADD14C,3.987800*%
%ADD15C,1.701800*%
%ADD16C,3.000000*%
%ADD17R,2.550000X2.500000*%
%ADD18C,2.000000*%
%ADD19R,1.700000X1.700000*%
%ADD20O,1.700000X1.700000*%
%ADD21C,2.700000*%
%ADD22R,2.000000X1.500000*%
%ADD23R,2.000000X3.800000*%
%ADD24RoundRect,0.250000X-0.450000X0.262500X-0.450000X-0.262500X0.450000X-0.262500X0.450000X0.262500X0*%
%ADD25R,0.700000X0.600000*%
%ADD26RoundRect,0.250000X-0.262500X-0.450000X0.262500X-0.450000X0.262500X0.450000X-0.262500X0.450000X0*%
%ADD27RoundRect,0.150000X-0.150000X0.825000X-0.150000X-0.825000X0.150000X-0.825000X0.150000X0.825000X0*%
%ADD28RoundRect,0.250000X0.450000X-0.262500X0.450000X0.262500X-0.450000X0.262500X-0.450000X-0.262500X0*%
%ADD29RoundRect,0.150000X0.150000X0.275000X-0.150000X0.275000X-0.150000X-0.275000X0.150000X-0.275000X0*%
%ADD30RoundRect,0.175000X0.175000X0.225000X-0.175000X0.225000X-0.175000X-0.225000X0.175000X-0.225000X0*%
%ADD31RoundRect,0.150000X0.825000X0.150000X-0.825000X0.150000X-0.825000X-0.150000X0.825000X-0.150000X0*%
%ADD32RoundRect,0.250000X0.475000X-0.250000X0.475000X0.250000X-0.475000X0.250000X-0.475000X-0.250000X0*%
%ADD33RoundRect,0.250000X0.262500X0.450000X-0.262500X0.450000X-0.262500X-0.450000X0.262500X-0.450000X0*%
%ADD34R,0.600000X0.700000*%
%ADD35RoundRect,0.250000X0.250000X0.475000X-0.250000X0.475000X-0.250000X-0.475000X0.250000X-0.475000X0*%
%ADD36C,6.000000*%
%ADD37C,1.597660*%
%ADD38C,1.099820*%
%ADD39R,0.299720X1.549400*%
%ADD40R,1.198880X2.748280*%
G04 APERTURE END LIST*
D10*
X189361904Y-60952380D02*
X189361904Y-61761904D01*
X189314285Y-61857142D01*
X189266666Y-61904761D01*
X189171428Y-61952380D01*
X188980952Y-61952380D01*
X188885714Y-61904761D01*
X188838095Y-61857142D01*
X188790476Y-61761904D01*
X188790476Y-60952380D01*
X187885714Y-61285714D02*
X187885714Y-61952380D01*
X188123809Y-60904761D02*
X188361904Y-61619047D01*
X187742857Y-61619047D01*
X307602380Y-62457142D02*
X307126190Y-62123809D01*
X307602380Y-61885714D02*
X306602380Y-61885714D01*
X306602380Y-62266666D01*
X306650000Y-62361904D01*
X306697619Y-62409523D01*
X306792857Y-62457142D01*
X306935714Y-62457142D01*
X307030952Y-62409523D01*
X307078571Y-62361904D01*
X307126190Y-62266666D01*
X307126190Y-61885714D01*
X307602380Y-63409523D02*
X307602380Y-62838095D01*
X307602380Y-63123809D02*
X306602380Y-63123809D01*
X306745238Y-63028571D01*
X306840476Y-62933333D01*
X306888095Y-62838095D01*
X307602380Y-64361904D02*
X307602380Y-63790476D01*
X307602380Y-64076190D02*
X306602380Y-64076190D01*
X306745238Y-63980952D01*
X306840476Y-63885714D01*
X306888095Y-63790476D01*
X83852380Y-57361904D02*
X82852380Y-57361904D01*
X82852380Y-57600000D01*
X82900000Y-57742857D01*
X82995238Y-57838095D01*
X83090476Y-57885714D01*
X83280952Y-57933333D01*
X83423809Y-57933333D01*
X83614285Y-57885714D01*
X83709523Y-57838095D01*
X83804761Y-57742857D01*
X83852380Y-57600000D01*
X83852380Y-57361904D01*
X83280952Y-58504761D02*
X83233333Y-58409523D01*
X83185714Y-58361904D01*
X83090476Y-58314285D01*
X83042857Y-58314285D01*
X82947619Y-58361904D01*
X82900000Y-58409523D01*
X82852380Y-58504761D01*
X82852380Y-58695238D01*
X82900000Y-58790476D01*
X82947619Y-58838095D01*
X83042857Y-58885714D01*
X83090476Y-58885714D01*
X83185714Y-58838095D01*
X83233333Y-58790476D01*
X83280952Y-58695238D01*
X83280952Y-58504761D01*
X83328571Y-58409523D01*
X83376190Y-58361904D01*
X83471428Y-58314285D01*
X83661904Y-58314285D01*
X83757142Y-58361904D01*
X83804761Y-58409523D01*
X83852380Y-58504761D01*
X83852380Y-58695238D01*
X83804761Y-58790476D01*
X83757142Y-58838095D01*
X83661904Y-58885714D01*
X83471428Y-58885714D01*
X83376190Y-58838095D01*
X83328571Y-58790476D01*
X83280952Y-58695238D01*
X155002380Y-62833333D02*
X154526190Y-62500000D01*
X155002380Y-62261904D02*
X154002380Y-62261904D01*
X154002380Y-62642857D01*
X154050000Y-62738095D01*
X154097619Y-62785714D01*
X154192857Y-62833333D01*
X154335714Y-62833333D01*
X154430952Y-62785714D01*
X154478571Y-62738095D01*
X154526190Y-62642857D01*
X154526190Y-62261904D01*
X154002380Y-63690476D02*
X154002380Y-63500000D01*
X154050000Y-63404761D01*
X154097619Y-63357142D01*
X154240476Y-63261904D01*
X154430952Y-63214285D01*
X154811904Y-63214285D01*
X154907142Y-63261904D01*
X154954761Y-63309523D01*
X155002380Y-63404761D01*
X155002380Y-63595238D01*
X154954761Y-63690476D01*
X154907142Y-63738095D01*
X154811904Y-63785714D01*
X154573809Y-63785714D01*
X154478571Y-63738095D01*
X154430952Y-63690476D01*
X154383333Y-63595238D01*
X154383333Y-63404761D01*
X154430952Y-63309523D01*
X154478571Y-63261904D01*
X154573809Y-63214285D01*
X182642857Y-128502380D02*
X182976190Y-128026190D01*
X183214285Y-128502380D02*
X183214285Y-127502380D01*
X182833333Y-127502380D01*
X182738095Y-127550000D01*
X182690476Y-127597619D01*
X182642857Y-127692857D01*
X182642857Y-127835714D01*
X182690476Y-127930952D01*
X182738095Y-127978571D01*
X182833333Y-128026190D01*
X183214285Y-128026190D01*
X181690476Y-128502380D02*
X182261904Y-128502380D01*
X181976190Y-128502380D02*
X181976190Y-127502380D01*
X182071428Y-127645238D01*
X182166666Y-127740476D01*
X182261904Y-127788095D01*
X180833333Y-127502380D02*
X181023809Y-127502380D01*
X181119047Y-127550000D01*
X181166666Y-127597619D01*
X181261904Y-127740476D01*
X181309523Y-127930952D01*
X181309523Y-128311904D01*
X181261904Y-128407142D01*
X181214285Y-128454761D01*
X181119047Y-128502380D01*
X180928571Y-128502380D01*
X180833333Y-128454761D01*
X180785714Y-128407142D01*
X180738095Y-128311904D01*
X180738095Y-128073809D01*
X180785714Y-127978571D01*
X180833333Y-127930952D01*
X180928571Y-127883333D01*
X181119047Y-127883333D01*
X181214285Y-127930952D01*
X181261904Y-127978571D01*
X181309523Y-128073809D01*
X159852380Y-113885714D02*
X158852380Y-113885714D01*
X158852380Y-114123809D01*
X158900000Y-114266666D01*
X158995238Y-114361904D01*
X159090476Y-114409523D01*
X159280952Y-114457142D01*
X159423809Y-114457142D01*
X159614285Y-114409523D01*
X159709523Y-114361904D01*
X159804761Y-114266666D01*
X159852380Y-114123809D01*
X159852380Y-113885714D01*
X158852380Y-114790476D02*
X158852380Y-115409523D01*
X159233333Y-115076190D01*
X159233333Y-115219047D01*
X159280952Y-115314285D01*
X159328571Y-115361904D01*
X159423809Y-115409523D01*
X159661904Y-115409523D01*
X159757142Y-115361904D01*
X159804761Y-115314285D01*
X159852380Y-115219047D01*
X159852380Y-114933333D01*
X159804761Y-114838095D01*
X159757142Y-114790476D01*
X158852380Y-116314285D02*
X158852380Y-115838095D01*
X159328571Y-115790476D01*
X159280952Y-115838095D01*
X159233333Y-115933333D01*
X159233333Y-116171428D01*
X159280952Y-116266666D01*
X159328571Y-116314285D01*
X159423809Y-116361904D01*
X159661904Y-116361904D01*
X159757142Y-116314285D01*
X159804761Y-116266666D01*
X159852380Y-116171428D01*
X159852380Y-115933333D01*
X159804761Y-115838095D01*
X159757142Y-115790476D01*
X293552380Y-56885714D02*
X292552380Y-56885714D01*
X292552380Y-57123809D01*
X292600000Y-57266666D01*
X292695238Y-57361904D01*
X292790476Y-57409523D01*
X292980952Y-57457142D01*
X293123809Y-57457142D01*
X293314285Y-57409523D01*
X293409523Y-57361904D01*
X293504761Y-57266666D01*
X293552380Y-57123809D01*
X293552380Y-56885714D01*
X292552380Y-58361904D02*
X292552380Y-57885714D01*
X293028571Y-57838095D01*
X292980952Y-57885714D01*
X292933333Y-57980952D01*
X292933333Y-58219047D01*
X292980952Y-58314285D01*
X293028571Y-58361904D01*
X293123809Y-58409523D01*
X293361904Y-58409523D01*
X293457142Y-58361904D01*
X293504761Y-58314285D01*
X293552380Y-58219047D01*
X293552380Y-57980952D01*
X293504761Y-57885714D01*
X293457142Y-57838095D01*
X292552380Y-59266666D02*
X292552380Y-59076190D01*
X292600000Y-58980952D01*
X292647619Y-58933333D01*
X292790476Y-58838095D01*
X292980952Y-58790476D01*
X293361904Y-58790476D01*
X293457142Y-58838095D01*
X293504761Y-58885714D01*
X293552380Y-58980952D01*
X293552380Y-59171428D01*
X293504761Y-59266666D01*
X293457142Y-59314285D01*
X293361904Y-59361904D01*
X293123809Y-59361904D01*
X293028571Y-59314285D01*
X292980952Y-59266666D01*
X292933333Y-59171428D01*
X292933333Y-58980952D01*
X292980952Y-58885714D01*
X293028571Y-58838095D01*
X293123809Y-58790476D01*
X197152380Y-103538095D02*
X197961904Y-103538095D01*
X198057142Y-103585714D01*
X198104761Y-103633333D01*
X198152380Y-103728571D01*
X198152380Y-103919047D01*
X198104761Y-104014285D01*
X198057142Y-104061904D01*
X197961904Y-104109523D01*
X197152380Y-104109523D01*
X197152380Y-104490476D02*
X197152380Y-105109523D01*
X197533333Y-104776190D01*
X197533333Y-104919047D01*
X197580952Y-105014285D01*
X197628571Y-105061904D01*
X197723809Y-105109523D01*
X197961904Y-105109523D01*
X198057142Y-105061904D01*
X198104761Y-105014285D01*
X198152380Y-104919047D01*
X198152380Y-104633333D01*
X198104761Y-104538095D01*
X198057142Y-104490476D01*
X121852380Y-94985714D02*
X120852380Y-94985714D01*
X120852380Y-95223809D01*
X120900000Y-95366666D01*
X120995238Y-95461904D01*
X121090476Y-95509523D01*
X121280952Y-95557142D01*
X121423809Y-95557142D01*
X121614285Y-95509523D01*
X121709523Y-95461904D01*
X121804761Y-95366666D01*
X121852380Y-95223809D01*
X121852380Y-94985714D01*
X120947619Y-95938095D02*
X120900000Y-95985714D01*
X120852380Y-96080952D01*
X120852380Y-96319047D01*
X120900000Y-96414285D01*
X120947619Y-96461904D01*
X121042857Y-96509523D01*
X121138095Y-96509523D01*
X121280952Y-96461904D01*
X121852380Y-95890476D01*
X121852380Y-96509523D01*
X121852380Y-97461904D02*
X121852380Y-96890476D01*
X121852380Y-97176190D02*
X120852380Y-97176190D01*
X120995238Y-97080952D01*
X121090476Y-96985714D01*
X121138095Y-96890476D01*
X83952380Y-76361904D02*
X82952380Y-76361904D01*
X82952380Y-76600000D01*
X83000000Y-76742857D01*
X83095238Y-76838095D01*
X83190476Y-76885714D01*
X83380952Y-76933333D01*
X83523809Y-76933333D01*
X83714285Y-76885714D01*
X83809523Y-76838095D01*
X83904761Y-76742857D01*
X83952380Y-76600000D01*
X83952380Y-76361904D01*
X83952380Y-77409523D02*
X83952380Y-77600000D01*
X83904761Y-77695238D01*
X83857142Y-77742857D01*
X83714285Y-77838095D01*
X83523809Y-77885714D01*
X83142857Y-77885714D01*
X83047619Y-77838095D01*
X83000000Y-77790476D01*
X82952380Y-77695238D01*
X82952380Y-77504761D01*
X83000000Y-77409523D01*
X83047619Y-77361904D01*
X83142857Y-77314285D01*
X83380952Y-77314285D01*
X83476190Y-77361904D01*
X83523809Y-77409523D01*
X83571428Y-77504761D01*
X83571428Y-77695238D01*
X83523809Y-77790476D01*
X83476190Y-77838095D01*
X83380952Y-77885714D01*
X159852380Y-75885714D02*
X158852380Y-75885714D01*
X158852380Y-76123809D01*
X158900000Y-76266666D01*
X158995238Y-76361904D01*
X159090476Y-76409523D01*
X159280952Y-76457142D01*
X159423809Y-76457142D01*
X159614285Y-76409523D01*
X159709523Y-76361904D01*
X159804761Y-76266666D01*
X159852380Y-76123809D01*
X159852380Y-75885714D01*
X158852380Y-76790476D02*
X158852380Y-77409523D01*
X159233333Y-77076190D01*
X159233333Y-77219047D01*
X159280952Y-77314285D01*
X159328571Y-77361904D01*
X159423809Y-77409523D01*
X159661904Y-77409523D01*
X159757142Y-77361904D01*
X159804761Y-77314285D01*
X159852380Y-77219047D01*
X159852380Y-76933333D01*
X159804761Y-76838095D01*
X159757142Y-76790476D01*
X158852380Y-77742857D02*
X158852380Y-78361904D01*
X159233333Y-78028571D01*
X159233333Y-78171428D01*
X159280952Y-78266666D01*
X159328571Y-78314285D01*
X159423809Y-78361904D01*
X159661904Y-78361904D01*
X159757142Y-78314285D01*
X159804761Y-78266666D01*
X159852380Y-78171428D01*
X159852380Y-77885714D01*
X159804761Y-77790476D01*
X159757142Y-77742857D01*
X293552380Y-75960714D02*
X292552380Y-75960714D01*
X292552380Y-76198809D01*
X292600000Y-76341666D01*
X292695238Y-76436904D01*
X292790476Y-76484523D01*
X292980952Y-76532142D01*
X293123809Y-76532142D01*
X293314285Y-76484523D01*
X293409523Y-76436904D01*
X293504761Y-76341666D01*
X293552380Y-76198809D01*
X293552380Y-75960714D01*
X292552380Y-77436904D02*
X292552380Y-76960714D01*
X293028571Y-76913095D01*
X292980952Y-76960714D01*
X292933333Y-77055952D01*
X292933333Y-77294047D01*
X292980952Y-77389285D01*
X293028571Y-77436904D01*
X293123809Y-77484523D01*
X293361904Y-77484523D01*
X293457142Y-77436904D01*
X293504761Y-77389285D01*
X293552380Y-77294047D01*
X293552380Y-77055952D01*
X293504761Y-76960714D01*
X293457142Y-76913095D01*
X292552380Y-77817857D02*
X292552380Y-78484523D01*
X293552380Y-78055952D01*
X97652380Y-117561904D02*
X96652380Y-117561904D01*
X96652380Y-117800000D01*
X96700000Y-117942857D01*
X96795238Y-118038095D01*
X96890476Y-118085714D01*
X97080952Y-118133333D01*
X97223809Y-118133333D01*
X97414285Y-118085714D01*
X97509523Y-118038095D01*
X97604761Y-117942857D01*
X97652380Y-117800000D01*
X97652380Y-117561904D01*
X96652380Y-118466666D02*
X96652380Y-119133333D01*
X97652380Y-118704761D01*
X180702380Y-117957142D02*
X180226190Y-117623809D01*
X180702380Y-117385714D02*
X179702380Y-117385714D01*
X179702380Y-117766666D01*
X179750000Y-117861904D01*
X179797619Y-117909523D01*
X179892857Y-117957142D01*
X180035714Y-117957142D01*
X180130952Y-117909523D01*
X180178571Y-117861904D01*
X180226190Y-117766666D01*
X180226190Y-117385714D01*
X180702380Y-118909523D02*
X180702380Y-118338095D01*
X180702380Y-118623809D02*
X179702380Y-118623809D01*
X179845238Y-118528571D01*
X179940476Y-118433333D01*
X179988095Y-118338095D01*
X180035714Y-119766666D02*
X180702380Y-119766666D01*
X179654761Y-119528571D02*
X180369047Y-119290476D01*
X180369047Y-119909523D01*
X160218380Y-93781714D02*
X159218380Y-93781714D01*
X159218380Y-94019809D01*
X159266000Y-94162666D01*
X159361238Y-94257904D01*
X159456476Y-94305523D01*
X159646952Y-94353142D01*
X159789809Y-94353142D01*
X159980285Y-94305523D01*
X160075523Y-94257904D01*
X160170761Y-94162666D01*
X160218380Y-94019809D01*
X160218380Y-93781714D01*
X159218380Y-94686476D02*
X159218380Y-95305523D01*
X159599333Y-94972190D01*
X159599333Y-95115047D01*
X159646952Y-95210285D01*
X159694571Y-95257904D01*
X159789809Y-95305523D01*
X160027904Y-95305523D01*
X160123142Y-95257904D01*
X160170761Y-95210285D01*
X160218380Y-95115047D01*
X160218380Y-94829333D01*
X160170761Y-94734095D01*
X160123142Y-94686476D01*
X159551714Y-96162666D02*
X160218380Y-96162666D01*
X159170761Y-95924571D02*
X159885047Y-95686476D01*
X159885047Y-96305523D01*
X312552380Y-56935714D02*
X311552380Y-56935714D01*
X311552380Y-57173809D01*
X311600000Y-57316666D01*
X311695238Y-57411904D01*
X311790476Y-57459523D01*
X311980952Y-57507142D01*
X312123809Y-57507142D01*
X312314285Y-57459523D01*
X312409523Y-57411904D01*
X312504761Y-57316666D01*
X312552380Y-57173809D01*
X312552380Y-56935714D01*
X311552380Y-58364285D02*
X311552380Y-58173809D01*
X311600000Y-58078571D01*
X311647619Y-58030952D01*
X311790476Y-57935714D01*
X311980952Y-57888095D01*
X312361904Y-57888095D01*
X312457142Y-57935714D01*
X312504761Y-57983333D01*
X312552380Y-58078571D01*
X312552380Y-58269047D01*
X312504761Y-58364285D01*
X312457142Y-58411904D01*
X312361904Y-58459523D01*
X312123809Y-58459523D01*
X312028571Y-58411904D01*
X311980952Y-58364285D01*
X311933333Y-58269047D01*
X311933333Y-58078571D01*
X311980952Y-57983333D01*
X312028571Y-57935714D01*
X312123809Y-57888095D01*
X311647619Y-58840476D02*
X311600000Y-58888095D01*
X311552380Y-58983333D01*
X311552380Y-59221428D01*
X311600000Y-59316666D01*
X311647619Y-59364285D01*
X311742857Y-59411904D01*
X311838095Y-59411904D01*
X311980952Y-59364285D01*
X312552380Y-58792857D01*
X312552380Y-59411904D01*
X159952380Y-129785714D02*
X158952380Y-129785714D01*
X158952380Y-130023809D01*
X159000000Y-130166666D01*
X159095238Y-130261904D01*
X159190476Y-130309523D01*
X159380952Y-130357142D01*
X159523809Y-130357142D01*
X159714285Y-130309523D01*
X159809523Y-130261904D01*
X159904761Y-130166666D01*
X159952380Y-130023809D01*
X159952380Y-129785714D01*
X158952380Y-130690476D02*
X158952380Y-131309523D01*
X159333333Y-130976190D01*
X159333333Y-131119047D01*
X159380952Y-131214285D01*
X159428571Y-131261904D01*
X159523809Y-131309523D01*
X159761904Y-131309523D01*
X159857142Y-131261904D01*
X159904761Y-131214285D01*
X159952380Y-131119047D01*
X159952380Y-130833333D01*
X159904761Y-130738095D01*
X159857142Y-130690476D01*
X158952380Y-132166666D02*
X158952380Y-131976190D01*
X159000000Y-131880952D01*
X159047619Y-131833333D01*
X159190476Y-131738095D01*
X159380952Y-131690476D01*
X159761904Y-131690476D01*
X159857142Y-131738095D01*
X159904761Y-131785714D01*
X159952380Y-131880952D01*
X159952380Y-132071428D01*
X159904761Y-132166666D01*
X159857142Y-132214285D01*
X159761904Y-132261904D01*
X159523809Y-132261904D01*
X159428571Y-132214285D01*
X159380952Y-132166666D01*
X159333333Y-132071428D01*
X159333333Y-131880952D01*
X159380952Y-131785714D01*
X159428571Y-131738095D01*
X159523809Y-131690476D01*
X102852380Y-75885714D02*
X101852380Y-75885714D01*
X101852380Y-76123809D01*
X101900000Y-76266666D01*
X101995238Y-76361904D01*
X102090476Y-76409523D01*
X102280952Y-76457142D01*
X102423809Y-76457142D01*
X102614285Y-76409523D01*
X102709523Y-76361904D01*
X102804761Y-76266666D01*
X102852380Y-76123809D01*
X102852380Y-75885714D01*
X102852380Y-77409523D02*
X102852380Y-76838095D01*
X102852380Y-77123809D02*
X101852380Y-77123809D01*
X101995238Y-77028571D01*
X102090476Y-76933333D01*
X102138095Y-76838095D01*
X101852380Y-78314285D02*
X101852380Y-77838095D01*
X102328571Y-77790476D01*
X102280952Y-77838095D01*
X102233333Y-77933333D01*
X102233333Y-78171428D01*
X102280952Y-78266666D01*
X102328571Y-78314285D01*
X102423809Y-78361904D01*
X102661904Y-78361904D01*
X102757142Y-78314285D01*
X102804761Y-78266666D01*
X102852380Y-78171428D01*
X102852380Y-77933333D01*
X102804761Y-77838095D01*
X102757142Y-77790476D01*
X83852380Y-113885714D02*
X82852380Y-113885714D01*
X82852380Y-114123809D01*
X82900000Y-114266666D01*
X82995238Y-114361904D01*
X83090476Y-114409523D01*
X83280952Y-114457142D01*
X83423809Y-114457142D01*
X83614285Y-114409523D01*
X83709523Y-114361904D01*
X83804761Y-114266666D01*
X83852380Y-114123809D01*
X83852380Y-113885714D01*
X83852380Y-115409523D02*
X83852380Y-114838095D01*
X83852380Y-115123809D02*
X82852380Y-115123809D01*
X82995238Y-115028571D01*
X83090476Y-114933333D01*
X83138095Y-114838095D01*
X83852380Y-116361904D02*
X83852380Y-115790476D01*
X83852380Y-116076190D02*
X82852380Y-116076190D01*
X82995238Y-115980952D01*
X83090476Y-115885714D01*
X83138095Y-115790476D01*
X102852380Y-113885714D02*
X101852380Y-113885714D01*
X101852380Y-114123809D01*
X101900000Y-114266666D01*
X101995238Y-114361904D01*
X102090476Y-114409523D01*
X102280952Y-114457142D01*
X102423809Y-114457142D01*
X102614285Y-114409523D01*
X102709523Y-114361904D01*
X102804761Y-114266666D01*
X102852380Y-114123809D01*
X102852380Y-113885714D01*
X102852380Y-115409523D02*
X102852380Y-114838095D01*
X102852380Y-115123809D02*
X101852380Y-115123809D01*
X101995238Y-115028571D01*
X102090476Y-114933333D01*
X102138095Y-114838095D01*
X101852380Y-115742857D02*
X101852380Y-116409523D01*
X102852380Y-115980952D01*
X140852380Y-113885714D02*
X139852380Y-113885714D01*
X139852380Y-114123809D01*
X139900000Y-114266666D01*
X139995238Y-114361904D01*
X140090476Y-114409523D01*
X140280952Y-114457142D01*
X140423809Y-114457142D01*
X140614285Y-114409523D01*
X140709523Y-114361904D01*
X140804761Y-114266666D01*
X140852380Y-114123809D01*
X140852380Y-113885714D01*
X139947619Y-114838095D02*
X139900000Y-114885714D01*
X139852380Y-114980952D01*
X139852380Y-115219047D01*
X139900000Y-115314285D01*
X139947619Y-115361904D01*
X140042857Y-115409523D01*
X140138095Y-115409523D01*
X140280952Y-115361904D01*
X140852380Y-114790476D01*
X140852380Y-115409523D01*
X140852380Y-115885714D02*
X140852380Y-116076190D01*
X140804761Y-116171428D01*
X140757142Y-116219047D01*
X140614285Y-116314285D01*
X140423809Y-116361904D01*
X140042857Y-116361904D01*
X139947619Y-116314285D01*
X139900000Y-116266666D01*
X139852380Y-116171428D01*
X139852380Y-115980952D01*
X139900000Y-115885714D01*
X139947619Y-115838095D01*
X140042857Y-115790476D01*
X140280952Y-115790476D01*
X140376190Y-115838095D01*
X140423809Y-115885714D01*
X140471428Y-115980952D01*
X140471428Y-116171428D01*
X140423809Y-116266666D01*
X140376190Y-116314285D01*
X140280952Y-116361904D01*
X204733333Y-51252380D02*
X204733333Y-51966666D01*
X204780952Y-52109523D01*
X204876190Y-52204761D01*
X205019047Y-52252380D01*
X205114285Y-52252380D01*
X204304761Y-51347619D02*
X204257142Y-51300000D01*
X204161904Y-51252380D01*
X203923809Y-51252380D01*
X203828571Y-51300000D01*
X203780952Y-51347619D01*
X203733333Y-51442857D01*
X203733333Y-51538095D01*
X203780952Y-51680952D01*
X204352380Y-52252380D01*
X203733333Y-52252380D01*
X236552380Y-75985714D02*
X235552380Y-75985714D01*
X235552380Y-76223809D01*
X235600000Y-76366666D01*
X235695238Y-76461904D01*
X235790476Y-76509523D01*
X235980952Y-76557142D01*
X236123809Y-76557142D01*
X236314285Y-76509523D01*
X236409523Y-76461904D01*
X236504761Y-76366666D01*
X236552380Y-76223809D01*
X236552380Y-75985714D01*
X235552380Y-76890476D02*
X235552380Y-77509523D01*
X235933333Y-77176190D01*
X235933333Y-77319047D01*
X235980952Y-77414285D01*
X236028571Y-77461904D01*
X236123809Y-77509523D01*
X236361904Y-77509523D01*
X236457142Y-77461904D01*
X236504761Y-77414285D01*
X236552380Y-77319047D01*
X236552380Y-77033333D01*
X236504761Y-76938095D01*
X236457142Y-76890476D01*
X236552380Y-77985714D02*
X236552380Y-78176190D01*
X236504761Y-78271428D01*
X236457142Y-78319047D01*
X236314285Y-78414285D01*
X236123809Y-78461904D01*
X235742857Y-78461904D01*
X235647619Y-78414285D01*
X235600000Y-78366666D01*
X235552380Y-78271428D01*
X235552380Y-78080952D01*
X235600000Y-77985714D01*
X235647619Y-77938095D01*
X235742857Y-77890476D01*
X235980952Y-77890476D01*
X236076190Y-77938095D01*
X236123809Y-77985714D01*
X236171428Y-78080952D01*
X236171428Y-78271428D01*
X236123809Y-78366666D01*
X236076190Y-78414285D01*
X235980952Y-78461904D01*
X289250380Y-118673714D02*
X288250380Y-118673714D01*
X288250380Y-118911809D01*
X288298000Y-119054666D01*
X288393238Y-119149904D01*
X288488476Y-119197523D01*
X288678952Y-119245142D01*
X288821809Y-119245142D01*
X289012285Y-119197523D01*
X289107523Y-119149904D01*
X289202761Y-119054666D01*
X289250380Y-118911809D01*
X289250380Y-118673714D01*
X288583714Y-120102285D02*
X289250380Y-120102285D01*
X288202761Y-119864190D02*
X288917047Y-119626095D01*
X288917047Y-120245142D01*
X289250380Y-120673714D02*
X289250380Y-120864190D01*
X289202761Y-120959428D01*
X289155142Y-121007047D01*
X289012285Y-121102285D01*
X288821809Y-121149904D01*
X288440857Y-121149904D01*
X288345619Y-121102285D01*
X288298000Y-121054666D01*
X288250380Y-120959428D01*
X288250380Y-120768952D01*
X288298000Y-120673714D01*
X288345619Y-120626095D01*
X288440857Y-120578476D01*
X288678952Y-120578476D01*
X288774190Y-120626095D01*
X288821809Y-120673714D01*
X288869428Y-120768952D01*
X288869428Y-120959428D01*
X288821809Y-121054666D01*
X288774190Y-121102285D01*
X288678952Y-121149904D01*
X219082857Y-96590380D02*
X219416190Y-96114190D01*
X219654285Y-96590380D02*
X219654285Y-95590380D01*
X219273333Y-95590380D01*
X219178095Y-95638000D01*
X219130476Y-95685619D01*
X219082857Y-95780857D01*
X219082857Y-95923714D01*
X219130476Y-96018952D01*
X219178095Y-96066571D01*
X219273333Y-96114190D01*
X219654285Y-96114190D01*
X218701904Y-95685619D02*
X218654285Y-95638000D01*
X218559047Y-95590380D01*
X218320952Y-95590380D01*
X218225714Y-95638000D01*
X218178095Y-95685619D01*
X218130476Y-95780857D01*
X218130476Y-95876095D01*
X218178095Y-96018952D01*
X218749523Y-96590380D01*
X218130476Y-96590380D01*
X217511428Y-95590380D02*
X217416190Y-95590380D01*
X217320952Y-95638000D01*
X217273333Y-95685619D01*
X217225714Y-95780857D01*
X217178095Y-95971333D01*
X217178095Y-96209428D01*
X217225714Y-96399904D01*
X217273333Y-96495142D01*
X217320952Y-96542761D01*
X217416190Y-96590380D01*
X217511428Y-96590380D01*
X217606666Y-96542761D01*
X217654285Y-96495142D01*
X217701904Y-96399904D01*
X217749523Y-96209428D01*
X217749523Y-95971333D01*
X217701904Y-95780857D01*
X217654285Y-95685619D01*
X217606666Y-95638000D01*
X217511428Y-95590380D01*
X236672380Y-94035714D02*
X235672380Y-94035714D01*
X235672380Y-94273809D01*
X235720000Y-94416666D01*
X235815238Y-94511904D01*
X235910476Y-94559523D01*
X236100952Y-94607142D01*
X236243809Y-94607142D01*
X236434285Y-94559523D01*
X236529523Y-94511904D01*
X236624761Y-94416666D01*
X236672380Y-94273809D01*
X236672380Y-94035714D01*
X236005714Y-95464285D02*
X236672380Y-95464285D01*
X235624761Y-95226190D02*
X236339047Y-94988095D01*
X236339047Y-95607142D01*
X235672380Y-96178571D02*
X235672380Y-96273809D01*
X235720000Y-96369047D01*
X235767619Y-96416666D01*
X235862857Y-96464285D01*
X236053333Y-96511904D01*
X236291428Y-96511904D01*
X236481904Y-96464285D01*
X236577142Y-96416666D01*
X236624761Y-96369047D01*
X236672380Y-96273809D01*
X236672380Y-96178571D01*
X236624761Y-96083333D01*
X236577142Y-96035714D01*
X236481904Y-95988095D01*
X236291428Y-95940476D01*
X236053333Y-95940476D01*
X235862857Y-95988095D01*
X235767619Y-96035714D01*
X235720000Y-96083333D01*
X235672380Y-96178571D01*
X326552380Y-62157142D02*
X326076190Y-61823809D01*
X326552380Y-61585714D02*
X325552380Y-61585714D01*
X325552380Y-61966666D01*
X325600000Y-62061904D01*
X325647619Y-62109523D01*
X325742857Y-62157142D01*
X325885714Y-62157142D01*
X325980952Y-62109523D01*
X326028571Y-62061904D01*
X326076190Y-61966666D01*
X326076190Y-61585714D01*
X326552380Y-63109523D02*
X326552380Y-62538095D01*
X326552380Y-62823809D02*
X325552380Y-62823809D01*
X325695238Y-62728571D01*
X325790476Y-62633333D01*
X325838095Y-62538095D01*
X325647619Y-63490476D02*
X325600000Y-63538095D01*
X325552380Y-63633333D01*
X325552380Y-63871428D01*
X325600000Y-63966666D01*
X325647619Y-64014285D01*
X325742857Y-64061904D01*
X325838095Y-64061904D01*
X325980952Y-64014285D01*
X326552380Y-63442857D01*
X326552380Y-64061904D01*
X312552380Y-75935714D02*
X311552380Y-75935714D01*
X311552380Y-76173809D01*
X311600000Y-76316666D01*
X311695238Y-76411904D01*
X311790476Y-76459523D01*
X311980952Y-76507142D01*
X312123809Y-76507142D01*
X312314285Y-76459523D01*
X312409523Y-76411904D01*
X312504761Y-76316666D01*
X312552380Y-76173809D01*
X312552380Y-75935714D01*
X311552380Y-77364285D02*
X311552380Y-77173809D01*
X311600000Y-77078571D01*
X311647619Y-77030952D01*
X311790476Y-76935714D01*
X311980952Y-76888095D01*
X312361904Y-76888095D01*
X312457142Y-76935714D01*
X312504761Y-76983333D01*
X312552380Y-77078571D01*
X312552380Y-77269047D01*
X312504761Y-77364285D01*
X312457142Y-77411904D01*
X312361904Y-77459523D01*
X312123809Y-77459523D01*
X312028571Y-77411904D01*
X311980952Y-77364285D01*
X311933333Y-77269047D01*
X311933333Y-77078571D01*
X311980952Y-76983333D01*
X312028571Y-76935714D01*
X312123809Y-76888095D01*
X311552380Y-77792857D02*
X311552380Y-78411904D01*
X311933333Y-78078571D01*
X311933333Y-78221428D01*
X311980952Y-78316666D01*
X312028571Y-78364285D01*
X312123809Y-78411904D01*
X312361904Y-78411904D01*
X312457142Y-78364285D01*
X312504761Y-78316666D01*
X312552380Y-78221428D01*
X312552380Y-77935714D01*
X312504761Y-77840476D01*
X312457142Y-77792857D01*
X293552380Y-113885714D02*
X292552380Y-113885714D01*
X292552380Y-114123809D01*
X292600000Y-114266666D01*
X292695238Y-114361904D01*
X292790476Y-114409523D01*
X292980952Y-114457142D01*
X293123809Y-114457142D01*
X293314285Y-114409523D01*
X293409523Y-114361904D01*
X293504761Y-114266666D01*
X293552380Y-114123809D01*
X293552380Y-113885714D01*
X292552380Y-115361904D02*
X292552380Y-114885714D01*
X293028571Y-114838095D01*
X292980952Y-114885714D01*
X292933333Y-114980952D01*
X292933333Y-115219047D01*
X292980952Y-115314285D01*
X293028571Y-115361904D01*
X293123809Y-115409523D01*
X293361904Y-115409523D01*
X293457142Y-115361904D01*
X293504761Y-115314285D01*
X293552380Y-115219047D01*
X293552380Y-114980952D01*
X293504761Y-114885714D01*
X293457142Y-114838095D01*
X293552380Y-115885714D02*
X293552380Y-116076190D01*
X293504761Y-116171428D01*
X293457142Y-116219047D01*
X293314285Y-116314285D01*
X293123809Y-116361904D01*
X292742857Y-116361904D01*
X292647619Y-116314285D01*
X292600000Y-116266666D01*
X292552380Y-116171428D01*
X292552380Y-115980952D01*
X292600000Y-115885714D01*
X292647619Y-115838095D01*
X292742857Y-115790476D01*
X292980952Y-115790476D01*
X293076190Y-115838095D01*
X293123809Y-115885714D01*
X293171428Y-115980952D01*
X293171428Y-116171428D01*
X293123809Y-116266666D01*
X293076190Y-116314285D01*
X292980952Y-116361904D01*
X122118380Y-74985714D02*
X121118380Y-74985714D01*
X121118380Y-75223809D01*
X121166000Y-75366666D01*
X121261238Y-75461904D01*
X121356476Y-75509523D01*
X121546952Y-75557142D01*
X121689809Y-75557142D01*
X121880285Y-75509523D01*
X121975523Y-75461904D01*
X122070761Y-75366666D01*
X122118380Y-75223809D01*
X122118380Y-74985714D01*
X121213619Y-75938095D02*
X121166000Y-75985714D01*
X121118380Y-76080952D01*
X121118380Y-76319047D01*
X121166000Y-76414285D01*
X121213619Y-76461904D01*
X121308857Y-76509523D01*
X121404095Y-76509523D01*
X121546952Y-76461904D01*
X122118380Y-75890476D01*
X122118380Y-76509523D01*
X121451714Y-77366666D02*
X122118380Y-77366666D01*
X121070761Y-77128571D02*
X121785047Y-76890476D01*
X121785047Y-77509523D01*
X159852380Y-56885714D02*
X158852380Y-56885714D01*
X158852380Y-57123809D01*
X158900000Y-57266666D01*
X158995238Y-57361904D01*
X159090476Y-57409523D01*
X159280952Y-57457142D01*
X159423809Y-57457142D01*
X159614285Y-57409523D01*
X159709523Y-57361904D01*
X159804761Y-57266666D01*
X159852380Y-57123809D01*
X159852380Y-56885714D01*
X158852380Y-57790476D02*
X158852380Y-58409523D01*
X159233333Y-58076190D01*
X159233333Y-58219047D01*
X159280952Y-58314285D01*
X159328571Y-58361904D01*
X159423809Y-58409523D01*
X159661904Y-58409523D01*
X159757142Y-58361904D01*
X159804761Y-58314285D01*
X159852380Y-58219047D01*
X159852380Y-57933333D01*
X159804761Y-57838095D01*
X159757142Y-57790476D01*
X158947619Y-58790476D02*
X158900000Y-58838095D01*
X158852380Y-58933333D01*
X158852380Y-59171428D01*
X158900000Y-59266666D01*
X158947619Y-59314285D01*
X159042857Y-59361904D01*
X159138095Y-59361904D01*
X159280952Y-59314285D01*
X159852380Y-58742857D01*
X159852380Y-59361904D01*
X83952380Y-132985714D02*
X82952380Y-132985714D01*
X82952380Y-133223809D01*
X83000000Y-133366666D01*
X83095238Y-133461904D01*
X83190476Y-133509523D01*
X83380952Y-133557142D01*
X83523809Y-133557142D01*
X83714285Y-133509523D01*
X83809523Y-133461904D01*
X83904761Y-133366666D01*
X83952380Y-133223809D01*
X83952380Y-132985714D01*
X83952380Y-134509523D02*
X83952380Y-133938095D01*
X83952380Y-134223809D02*
X82952380Y-134223809D01*
X83095238Y-134128571D01*
X83190476Y-134033333D01*
X83238095Y-133938095D01*
X83047619Y-134890476D02*
X83000000Y-134938095D01*
X82952380Y-135033333D01*
X82952380Y-135271428D01*
X83000000Y-135366666D01*
X83047619Y-135414285D01*
X83142857Y-135461904D01*
X83238095Y-135461904D01*
X83380952Y-135414285D01*
X83952380Y-134842857D01*
X83952380Y-135461904D01*
X121952380Y-56885714D02*
X120952380Y-56885714D01*
X120952380Y-57123809D01*
X121000000Y-57266666D01*
X121095238Y-57361904D01*
X121190476Y-57409523D01*
X121380952Y-57457142D01*
X121523809Y-57457142D01*
X121714285Y-57409523D01*
X121809523Y-57361904D01*
X121904761Y-57266666D01*
X121952380Y-57123809D01*
X121952380Y-56885714D01*
X121047619Y-57838095D02*
X121000000Y-57885714D01*
X120952380Y-57980952D01*
X120952380Y-58219047D01*
X121000000Y-58314285D01*
X121047619Y-58361904D01*
X121142857Y-58409523D01*
X121238095Y-58409523D01*
X121380952Y-58361904D01*
X121952380Y-57790476D01*
X121952380Y-58409523D01*
X120952380Y-59028571D02*
X120952380Y-59123809D01*
X121000000Y-59219047D01*
X121047619Y-59266666D01*
X121142857Y-59314285D01*
X121333333Y-59361904D01*
X121571428Y-59361904D01*
X121761904Y-59314285D01*
X121857142Y-59266666D01*
X121904761Y-59219047D01*
X121952380Y-59123809D01*
X121952380Y-59028571D01*
X121904761Y-58933333D01*
X121857142Y-58885714D01*
X121761904Y-58838095D01*
X121571428Y-58790476D01*
X121333333Y-58790476D01*
X121142857Y-58838095D01*
X121047619Y-58885714D01*
X121000000Y-58933333D01*
X120952380Y-59028571D01*
X236926380Y-131881714D02*
X235926380Y-131881714D01*
X235926380Y-132119809D01*
X235974000Y-132262666D01*
X236069238Y-132357904D01*
X236164476Y-132405523D01*
X236354952Y-132453142D01*
X236497809Y-132453142D01*
X236688285Y-132405523D01*
X236783523Y-132357904D01*
X236878761Y-132262666D01*
X236926380Y-132119809D01*
X236926380Y-131881714D01*
X236259714Y-133310285D02*
X236926380Y-133310285D01*
X235878761Y-133072190D02*
X236593047Y-132834095D01*
X236593047Y-133453142D01*
X236021619Y-133786476D02*
X235974000Y-133834095D01*
X235926380Y-133929333D01*
X235926380Y-134167428D01*
X235974000Y-134262666D01*
X236021619Y-134310285D01*
X236116857Y-134357904D01*
X236212095Y-134357904D01*
X236354952Y-134310285D01*
X236926380Y-133738857D01*
X236926380Y-134357904D01*
X236502380Y-56885714D02*
X235502380Y-56885714D01*
X235502380Y-57123809D01*
X235550000Y-57266666D01*
X235645238Y-57361904D01*
X235740476Y-57409523D01*
X235930952Y-57457142D01*
X236073809Y-57457142D01*
X236264285Y-57409523D01*
X236359523Y-57361904D01*
X236454761Y-57266666D01*
X236502380Y-57123809D01*
X236502380Y-56885714D01*
X235502380Y-57790476D02*
X235502380Y-58409523D01*
X235883333Y-58076190D01*
X235883333Y-58219047D01*
X235930952Y-58314285D01*
X235978571Y-58361904D01*
X236073809Y-58409523D01*
X236311904Y-58409523D01*
X236407142Y-58361904D01*
X236454761Y-58314285D01*
X236502380Y-58219047D01*
X236502380Y-57933333D01*
X236454761Y-57838095D01*
X236407142Y-57790476D01*
X235930952Y-58980952D02*
X235883333Y-58885714D01*
X235835714Y-58838095D01*
X235740476Y-58790476D01*
X235692857Y-58790476D01*
X235597619Y-58838095D01*
X235550000Y-58885714D01*
X235502380Y-58980952D01*
X235502380Y-59171428D01*
X235550000Y-59266666D01*
X235597619Y-59314285D01*
X235692857Y-59361904D01*
X235740476Y-59361904D01*
X235835714Y-59314285D01*
X235883333Y-59266666D01*
X235930952Y-59171428D01*
X235930952Y-58980952D01*
X235978571Y-58885714D01*
X236026190Y-58838095D01*
X236121428Y-58790476D01*
X236311904Y-58790476D01*
X236407142Y-58838095D01*
X236454761Y-58885714D01*
X236502380Y-58980952D01*
X236502380Y-59171428D01*
X236454761Y-59266666D01*
X236407142Y-59314285D01*
X236311904Y-59361904D01*
X236121428Y-59361904D01*
X236026190Y-59314285D01*
X235978571Y-59266666D01*
X235930952Y-59171428D01*
X205636904Y-114832380D02*
X205636904Y-115641904D01*
X205589285Y-115737142D01*
X205541666Y-115784761D01*
X205446428Y-115832380D01*
X205255952Y-115832380D01*
X205160714Y-115784761D01*
X205113095Y-115737142D01*
X205065476Y-115641904D01*
X205065476Y-114832380D01*
X204065476Y-115832380D02*
X204636904Y-115832380D01*
X204351190Y-115832380D02*
X204351190Y-114832380D01*
X204446428Y-114975238D01*
X204541666Y-115070476D01*
X204636904Y-115118095D01*
X255976380Y-93781714D02*
X254976380Y-93781714D01*
X254976380Y-94019809D01*
X255024000Y-94162666D01*
X255119238Y-94257904D01*
X255214476Y-94305523D01*
X255404952Y-94353142D01*
X255547809Y-94353142D01*
X255738285Y-94305523D01*
X255833523Y-94257904D01*
X255928761Y-94162666D01*
X255976380Y-94019809D01*
X255976380Y-93781714D01*
X255309714Y-95210285D02*
X255976380Y-95210285D01*
X254928761Y-94972190D02*
X255643047Y-94734095D01*
X255643047Y-95353142D01*
X254976380Y-96162666D02*
X254976380Y-95972190D01*
X255024000Y-95876952D01*
X255071619Y-95829333D01*
X255214476Y-95734095D01*
X255404952Y-95686476D01*
X255785904Y-95686476D01*
X255881142Y-95734095D01*
X255928761Y-95781714D01*
X255976380Y-95876952D01*
X255976380Y-96067428D01*
X255928761Y-96162666D01*
X255881142Y-96210285D01*
X255785904Y-96257904D01*
X255547809Y-96257904D01*
X255452571Y-96210285D01*
X255404952Y-96162666D01*
X255357333Y-96067428D01*
X255357333Y-95876952D01*
X255404952Y-95781714D01*
X255452571Y-95734095D01*
X255547809Y-95686476D01*
X65222380Y-94765904D02*
X64222380Y-94765904D01*
X64222380Y-95004000D01*
X64270000Y-95146857D01*
X64365238Y-95242095D01*
X64460476Y-95289714D01*
X64650952Y-95337333D01*
X64793809Y-95337333D01*
X64984285Y-95289714D01*
X65079523Y-95242095D01*
X65174761Y-95146857D01*
X65222380Y-95004000D01*
X65222380Y-94765904D01*
X64555714Y-96194476D02*
X65222380Y-96194476D01*
X64174761Y-95956380D02*
X64889047Y-95718285D01*
X64889047Y-96337333D01*
X255722380Y-74985714D02*
X254722380Y-74985714D01*
X254722380Y-75223809D01*
X254770000Y-75366666D01*
X254865238Y-75461904D01*
X254960476Y-75509523D01*
X255150952Y-75557142D01*
X255293809Y-75557142D01*
X255484285Y-75509523D01*
X255579523Y-75461904D01*
X255674761Y-75366666D01*
X255722380Y-75223809D01*
X255722380Y-74985714D01*
X255055714Y-76414285D02*
X255722380Y-76414285D01*
X254674761Y-76176190D02*
X255389047Y-75938095D01*
X255389047Y-76557142D01*
X254722380Y-77414285D02*
X254722380Y-76938095D01*
X255198571Y-76890476D01*
X255150952Y-76938095D01*
X255103333Y-77033333D01*
X255103333Y-77271428D01*
X255150952Y-77366666D01*
X255198571Y-77414285D01*
X255293809Y-77461904D01*
X255531904Y-77461904D01*
X255627142Y-77414285D01*
X255674761Y-77366666D01*
X255722380Y-77271428D01*
X255722380Y-77033333D01*
X255674761Y-76938095D01*
X255627142Y-76890476D01*
X255722380Y-112831714D02*
X254722380Y-112831714D01*
X254722380Y-113069809D01*
X254770000Y-113212666D01*
X254865238Y-113307904D01*
X254960476Y-113355523D01*
X255150952Y-113403142D01*
X255293809Y-113403142D01*
X255484285Y-113355523D01*
X255579523Y-113307904D01*
X255674761Y-113212666D01*
X255722380Y-113069809D01*
X255722380Y-112831714D01*
X255055714Y-114260285D02*
X255722380Y-114260285D01*
X254674761Y-114022190D02*
X255389047Y-113784095D01*
X255389047Y-114403142D01*
X254722380Y-114688857D02*
X254722380Y-115355523D01*
X255722380Y-114926952D01*
X140852380Y-94885714D02*
X139852380Y-94885714D01*
X139852380Y-95123809D01*
X139900000Y-95266666D01*
X139995238Y-95361904D01*
X140090476Y-95409523D01*
X140280952Y-95457142D01*
X140423809Y-95457142D01*
X140614285Y-95409523D01*
X140709523Y-95361904D01*
X140804761Y-95266666D01*
X140852380Y-95123809D01*
X140852380Y-94885714D01*
X139947619Y-95838095D02*
X139900000Y-95885714D01*
X139852380Y-95980952D01*
X139852380Y-96219047D01*
X139900000Y-96314285D01*
X139947619Y-96361904D01*
X140042857Y-96409523D01*
X140138095Y-96409523D01*
X140280952Y-96361904D01*
X140852380Y-95790476D01*
X140852380Y-96409523D01*
X140280952Y-96980952D02*
X140233333Y-96885714D01*
X140185714Y-96838095D01*
X140090476Y-96790476D01*
X140042857Y-96790476D01*
X139947619Y-96838095D01*
X139900000Y-96885714D01*
X139852380Y-96980952D01*
X139852380Y-97171428D01*
X139900000Y-97266666D01*
X139947619Y-97314285D01*
X140042857Y-97361904D01*
X140090476Y-97361904D01*
X140185714Y-97314285D01*
X140233333Y-97266666D01*
X140280952Y-97171428D01*
X140280952Y-96980952D01*
X140328571Y-96885714D01*
X140376190Y-96838095D01*
X140471428Y-96790476D01*
X140661904Y-96790476D01*
X140757142Y-96838095D01*
X140804761Y-96885714D01*
X140852380Y-96980952D01*
X140852380Y-97171428D01*
X140804761Y-97266666D01*
X140757142Y-97314285D01*
X140661904Y-97361904D01*
X140471428Y-97361904D01*
X140376190Y-97314285D01*
X140328571Y-97266666D01*
X140280952Y-97171428D01*
X212732857Y-96590380D02*
X213066190Y-96114190D01*
X213304285Y-96590380D02*
X213304285Y-95590380D01*
X212923333Y-95590380D01*
X212828095Y-95638000D01*
X212780476Y-95685619D01*
X212732857Y-95780857D01*
X212732857Y-95923714D01*
X212780476Y-96018952D01*
X212828095Y-96066571D01*
X212923333Y-96114190D01*
X213304285Y-96114190D01*
X211780476Y-96590380D02*
X212351904Y-96590380D01*
X212066190Y-96590380D02*
X212066190Y-95590380D01*
X212161428Y-95733238D01*
X212256666Y-95828476D01*
X212351904Y-95876095D01*
X211209047Y-96018952D02*
X211304285Y-95971333D01*
X211351904Y-95923714D01*
X211399523Y-95828476D01*
X211399523Y-95780857D01*
X211351904Y-95685619D01*
X211304285Y-95638000D01*
X211209047Y-95590380D01*
X211018571Y-95590380D01*
X210923333Y-95638000D01*
X210875714Y-95685619D01*
X210828095Y-95780857D01*
X210828095Y-95828476D01*
X210875714Y-95923714D01*
X210923333Y-95971333D01*
X211018571Y-96018952D01*
X211209047Y-96018952D01*
X211304285Y-96066571D01*
X211351904Y-96114190D01*
X211399523Y-96209428D01*
X211399523Y-96399904D01*
X211351904Y-96495142D01*
X211304285Y-96542761D01*
X211209047Y-96590380D01*
X211018571Y-96590380D01*
X210923333Y-96542761D01*
X210875714Y-96495142D01*
X210828095Y-96399904D01*
X210828095Y-96209428D01*
X210875714Y-96114190D01*
X210923333Y-96066571D01*
X211018571Y-96018952D01*
X274772380Y-131881714D02*
X273772380Y-131881714D01*
X273772380Y-132119809D01*
X273820000Y-132262666D01*
X273915238Y-132357904D01*
X274010476Y-132405523D01*
X274200952Y-132453142D01*
X274343809Y-132453142D01*
X274534285Y-132405523D01*
X274629523Y-132357904D01*
X274724761Y-132262666D01*
X274772380Y-132119809D01*
X274772380Y-131881714D01*
X273772380Y-133357904D02*
X273772380Y-132881714D01*
X274248571Y-132834095D01*
X274200952Y-132881714D01*
X274153333Y-132976952D01*
X274153333Y-133215047D01*
X274200952Y-133310285D01*
X274248571Y-133357904D01*
X274343809Y-133405523D01*
X274581904Y-133405523D01*
X274677142Y-133357904D01*
X274724761Y-133310285D01*
X274772380Y-133215047D01*
X274772380Y-132976952D01*
X274724761Y-132881714D01*
X274677142Y-132834095D01*
X274105714Y-134262666D02*
X274772380Y-134262666D01*
X273724761Y-134024571D02*
X274439047Y-133786476D01*
X274439047Y-134405523D01*
X326352380Y-117085714D02*
X325352380Y-117085714D01*
X325352380Y-117323809D01*
X325400000Y-117466666D01*
X325495238Y-117561904D01*
X325590476Y-117609523D01*
X325780952Y-117657142D01*
X325923809Y-117657142D01*
X326114285Y-117609523D01*
X326209523Y-117561904D01*
X326304761Y-117466666D01*
X326352380Y-117323809D01*
X326352380Y-117085714D01*
X325352380Y-118514285D02*
X325352380Y-118323809D01*
X325400000Y-118228571D01*
X325447619Y-118180952D01*
X325590476Y-118085714D01*
X325780952Y-118038095D01*
X326161904Y-118038095D01*
X326257142Y-118085714D01*
X326304761Y-118133333D01*
X326352380Y-118228571D01*
X326352380Y-118419047D01*
X326304761Y-118514285D01*
X326257142Y-118561904D01*
X326161904Y-118609523D01*
X325923809Y-118609523D01*
X325828571Y-118561904D01*
X325780952Y-118514285D01*
X325733333Y-118419047D01*
X325733333Y-118228571D01*
X325780952Y-118133333D01*
X325828571Y-118085714D01*
X325923809Y-118038095D01*
X326352380Y-119561904D02*
X326352380Y-118990476D01*
X326352380Y-119276190D02*
X325352380Y-119276190D01*
X325495238Y-119180952D01*
X325590476Y-119085714D01*
X325638095Y-118990476D01*
X274502380Y-56885714D02*
X273502380Y-56885714D01*
X273502380Y-57123809D01*
X273550000Y-57266666D01*
X273645238Y-57361904D01*
X273740476Y-57409523D01*
X273930952Y-57457142D01*
X274073809Y-57457142D01*
X274264285Y-57409523D01*
X274359523Y-57361904D01*
X274454761Y-57266666D01*
X274502380Y-57123809D01*
X274502380Y-56885714D01*
X273502380Y-58361904D02*
X273502380Y-57885714D01*
X273978571Y-57838095D01*
X273930952Y-57885714D01*
X273883333Y-57980952D01*
X273883333Y-58219047D01*
X273930952Y-58314285D01*
X273978571Y-58361904D01*
X274073809Y-58409523D01*
X274311904Y-58409523D01*
X274407142Y-58361904D01*
X274454761Y-58314285D01*
X274502380Y-58219047D01*
X274502380Y-57980952D01*
X274454761Y-57885714D01*
X274407142Y-57838095D01*
X273502380Y-59028571D02*
X273502380Y-59123809D01*
X273550000Y-59219047D01*
X273597619Y-59266666D01*
X273692857Y-59314285D01*
X273883333Y-59361904D01*
X274121428Y-59361904D01*
X274311904Y-59314285D01*
X274407142Y-59266666D01*
X274454761Y-59219047D01*
X274502380Y-59123809D01*
X274502380Y-59028571D01*
X274454761Y-58933333D01*
X274407142Y-58885714D01*
X274311904Y-58838095D01*
X274121428Y-58790476D01*
X273883333Y-58790476D01*
X273692857Y-58838095D01*
X273597619Y-58885714D01*
X273550000Y-58933333D01*
X273502380Y-59028571D01*
X293552380Y-94885714D02*
X292552380Y-94885714D01*
X292552380Y-95123809D01*
X292600000Y-95266666D01*
X292695238Y-95361904D01*
X292790476Y-95409523D01*
X292980952Y-95457142D01*
X293123809Y-95457142D01*
X293314285Y-95409523D01*
X293409523Y-95361904D01*
X293504761Y-95266666D01*
X293552380Y-95123809D01*
X293552380Y-94885714D01*
X292552380Y-96361904D02*
X292552380Y-95885714D01*
X293028571Y-95838095D01*
X292980952Y-95885714D01*
X292933333Y-95980952D01*
X292933333Y-96219047D01*
X292980952Y-96314285D01*
X293028571Y-96361904D01*
X293123809Y-96409523D01*
X293361904Y-96409523D01*
X293457142Y-96361904D01*
X293504761Y-96314285D01*
X293552380Y-96219047D01*
X293552380Y-95980952D01*
X293504761Y-95885714D01*
X293457142Y-95838095D01*
X292980952Y-96980952D02*
X292933333Y-96885714D01*
X292885714Y-96838095D01*
X292790476Y-96790476D01*
X292742857Y-96790476D01*
X292647619Y-96838095D01*
X292600000Y-96885714D01*
X292552380Y-96980952D01*
X292552380Y-97171428D01*
X292600000Y-97266666D01*
X292647619Y-97314285D01*
X292742857Y-97361904D01*
X292790476Y-97361904D01*
X292885714Y-97314285D01*
X292933333Y-97266666D01*
X292980952Y-97171428D01*
X292980952Y-96980952D01*
X293028571Y-96885714D01*
X293076190Y-96838095D01*
X293171428Y-96790476D01*
X293361904Y-96790476D01*
X293457142Y-96838095D01*
X293504761Y-96885714D01*
X293552380Y-96980952D01*
X293552380Y-97171428D01*
X293504761Y-97266666D01*
X293457142Y-97314285D01*
X293361904Y-97361904D01*
X293171428Y-97361904D01*
X293076190Y-97314285D01*
X293028571Y-97266666D01*
X292980952Y-97171428D01*
X121852380Y-113885714D02*
X120852380Y-113885714D01*
X120852380Y-114123809D01*
X120900000Y-114266666D01*
X120995238Y-114361904D01*
X121090476Y-114409523D01*
X121280952Y-114457142D01*
X121423809Y-114457142D01*
X121614285Y-114409523D01*
X121709523Y-114361904D01*
X121804761Y-114266666D01*
X121852380Y-114123809D01*
X121852380Y-113885714D01*
X120947619Y-114838095D02*
X120900000Y-114885714D01*
X120852380Y-114980952D01*
X120852380Y-115219047D01*
X120900000Y-115314285D01*
X120947619Y-115361904D01*
X121042857Y-115409523D01*
X121138095Y-115409523D01*
X121280952Y-115361904D01*
X121852380Y-114790476D01*
X121852380Y-115409523D01*
X120947619Y-115790476D02*
X120900000Y-115838095D01*
X120852380Y-115933333D01*
X120852380Y-116171428D01*
X120900000Y-116266666D01*
X120947619Y-116314285D01*
X121042857Y-116361904D01*
X121138095Y-116361904D01*
X121280952Y-116314285D01*
X121852380Y-115742857D01*
X121852380Y-116361904D01*
X312552380Y-132985714D02*
X311552380Y-132985714D01*
X311552380Y-133223809D01*
X311600000Y-133366666D01*
X311695238Y-133461904D01*
X311790476Y-133509523D01*
X311980952Y-133557142D01*
X312123809Y-133557142D01*
X312314285Y-133509523D01*
X312409523Y-133461904D01*
X312504761Y-133366666D01*
X312552380Y-133223809D01*
X312552380Y-132985714D01*
X311552380Y-134414285D02*
X311552380Y-134223809D01*
X311600000Y-134128571D01*
X311647619Y-134080952D01*
X311790476Y-133985714D01*
X311980952Y-133938095D01*
X312361904Y-133938095D01*
X312457142Y-133985714D01*
X312504761Y-134033333D01*
X312552380Y-134128571D01*
X312552380Y-134319047D01*
X312504761Y-134414285D01*
X312457142Y-134461904D01*
X312361904Y-134509523D01*
X312123809Y-134509523D01*
X312028571Y-134461904D01*
X311980952Y-134414285D01*
X311933333Y-134319047D01*
X311933333Y-134128571D01*
X311980952Y-134033333D01*
X312028571Y-133985714D01*
X312123809Y-133938095D01*
X311552380Y-135366666D02*
X311552380Y-135176190D01*
X311600000Y-135080952D01*
X311647619Y-135033333D01*
X311790476Y-134938095D01*
X311980952Y-134890476D01*
X312361904Y-134890476D01*
X312457142Y-134938095D01*
X312504761Y-134985714D01*
X312552380Y-135080952D01*
X312552380Y-135271428D01*
X312504761Y-135366666D01*
X312457142Y-135414285D01*
X312361904Y-135461904D01*
X312123809Y-135461904D01*
X312028571Y-135414285D01*
X311980952Y-135366666D01*
X311933333Y-135271428D01*
X311933333Y-135080952D01*
X311980952Y-134985714D01*
X312028571Y-134938095D01*
X312123809Y-134890476D01*
X116652380Y-117085714D02*
X115652380Y-117085714D01*
X115652380Y-117323809D01*
X115700000Y-117466666D01*
X115795238Y-117561904D01*
X115890476Y-117609523D01*
X116080952Y-117657142D01*
X116223809Y-117657142D01*
X116414285Y-117609523D01*
X116509523Y-117561904D01*
X116604761Y-117466666D01*
X116652380Y-117323809D01*
X116652380Y-117085714D01*
X116652380Y-118609523D02*
X116652380Y-118038095D01*
X116652380Y-118323809D02*
X115652380Y-118323809D01*
X115795238Y-118228571D01*
X115890476Y-118133333D01*
X115938095Y-118038095D01*
X115652380Y-118942857D02*
X115652380Y-119561904D01*
X116033333Y-119228571D01*
X116033333Y-119371428D01*
X116080952Y-119466666D01*
X116128571Y-119514285D01*
X116223809Y-119561904D01*
X116461904Y-119561904D01*
X116557142Y-119514285D01*
X116604761Y-119466666D01*
X116652380Y-119371428D01*
X116652380Y-119085714D01*
X116604761Y-118990476D01*
X116557142Y-118942857D01*
X331452380Y-56885714D02*
X330452380Y-56885714D01*
X330452380Y-57123809D01*
X330500000Y-57266666D01*
X330595238Y-57361904D01*
X330690476Y-57409523D01*
X330880952Y-57457142D01*
X331023809Y-57457142D01*
X331214285Y-57409523D01*
X331309523Y-57361904D01*
X331404761Y-57266666D01*
X331452380Y-57123809D01*
X331452380Y-56885714D01*
X330452380Y-58314285D02*
X330452380Y-58123809D01*
X330500000Y-58028571D01*
X330547619Y-57980952D01*
X330690476Y-57885714D01*
X330880952Y-57838095D01*
X331261904Y-57838095D01*
X331357142Y-57885714D01*
X331404761Y-57933333D01*
X331452380Y-58028571D01*
X331452380Y-58219047D01*
X331404761Y-58314285D01*
X331357142Y-58361904D01*
X331261904Y-58409523D01*
X331023809Y-58409523D01*
X330928571Y-58361904D01*
X330880952Y-58314285D01*
X330833333Y-58219047D01*
X330833333Y-58028571D01*
X330880952Y-57933333D01*
X330928571Y-57885714D01*
X331023809Y-57838095D01*
X330880952Y-58980952D02*
X330833333Y-58885714D01*
X330785714Y-58838095D01*
X330690476Y-58790476D01*
X330642857Y-58790476D01*
X330547619Y-58838095D01*
X330500000Y-58885714D01*
X330452380Y-58980952D01*
X330452380Y-59171428D01*
X330500000Y-59266666D01*
X330547619Y-59314285D01*
X330642857Y-59361904D01*
X330690476Y-59361904D01*
X330785714Y-59314285D01*
X330833333Y-59266666D01*
X330880952Y-59171428D01*
X330880952Y-58980952D01*
X330928571Y-58885714D01*
X330976190Y-58838095D01*
X331071428Y-58790476D01*
X331261904Y-58790476D01*
X331357142Y-58838095D01*
X331404761Y-58885714D01*
X331452380Y-58980952D01*
X331452380Y-59171428D01*
X331404761Y-59266666D01*
X331357142Y-59314285D01*
X331261904Y-59361904D01*
X331071428Y-59361904D01*
X330976190Y-59314285D01*
X330928571Y-59266666D01*
X330880952Y-59171428D01*
X331452380Y-132885714D02*
X330452380Y-132885714D01*
X330452380Y-133123809D01*
X330500000Y-133266666D01*
X330595238Y-133361904D01*
X330690476Y-133409523D01*
X330880952Y-133457142D01*
X331023809Y-133457142D01*
X331214285Y-133409523D01*
X331309523Y-133361904D01*
X331404761Y-133266666D01*
X331452380Y-133123809D01*
X331452380Y-132885714D01*
X330452380Y-133790476D02*
X330452380Y-134457142D01*
X331452380Y-134028571D01*
X330547619Y-134790476D02*
X330500000Y-134838095D01*
X330452380Y-134933333D01*
X330452380Y-135171428D01*
X330500000Y-135266666D01*
X330547619Y-135314285D01*
X330642857Y-135361904D01*
X330738095Y-135361904D01*
X330880952Y-135314285D01*
X331452380Y-134742857D01*
X331452380Y-135361904D01*
X236926380Y-112831714D02*
X235926380Y-112831714D01*
X235926380Y-113069809D01*
X235974000Y-113212666D01*
X236069238Y-113307904D01*
X236164476Y-113355523D01*
X236354952Y-113403142D01*
X236497809Y-113403142D01*
X236688285Y-113355523D01*
X236783523Y-113307904D01*
X236878761Y-113212666D01*
X236926380Y-113069809D01*
X236926380Y-112831714D01*
X236259714Y-114260285D02*
X236926380Y-114260285D01*
X235878761Y-114022190D02*
X236593047Y-113784095D01*
X236593047Y-114403142D01*
X236926380Y-115307904D02*
X236926380Y-114736476D01*
X236926380Y-115022190D02*
X235926380Y-115022190D01*
X236069238Y-114926952D01*
X236164476Y-114831714D01*
X236212095Y-114736476D01*
X255722380Y-55935714D02*
X254722380Y-55935714D01*
X254722380Y-56173809D01*
X254770000Y-56316666D01*
X254865238Y-56411904D01*
X254960476Y-56459523D01*
X255150952Y-56507142D01*
X255293809Y-56507142D01*
X255484285Y-56459523D01*
X255579523Y-56411904D01*
X255674761Y-56316666D01*
X255722380Y-56173809D01*
X255722380Y-55935714D01*
X255055714Y-57364285D02*
X255722380Y-57364285D01*
X254674761Y-57126190D02*
X255389047Y-56888095D01*
X255389047Y-57507142D01*
X255055714Y-58316666D02*
X255722380Y-58316666D01*
X254674761Y-58078571D02*
X255389047Y-57840476D01*
X255389047Y-58459523D01*
X331552380Y-75885714D02*
X330552380Y-75885714D01*
X330552380Y-76123809D01*
X330600000Y-76266666D01*
X330695238Y-76361904D01*
X330790476Y-76409523D01*
X330980952Y-76457142D01*
X331123809Y-76457142D01*
X331314285Y-76409523D01*
X331409523Y-76361904D01*
X331504761Y-76266666D01*
X331552380Y-76123809D01*
X331552380Y-75885714D01*
X330552380Y-77314285D02*
X330552380Y-77123809D01*
X330600000Y-77028571D01*
X330647619Y-76980952D01*
X330790476Y-76885714D01*
X330980952Y-76838095D01*
X331361904Y-76838095D01*
X331457142Y-76885714D01*
X331504761Y-76933333D01*
X331552380Y-77028571D01*
X331552380Y-77219047D01*
X331504761Y-77314285D01*
X331457142Y-77361904D01*
X331361904Y-77409523D01*
X331123809Y-77409523D01*
X331028571Y-77361904D01*
X330980952Y-77314285D01*
X330933333Y-77219047D01*
X330933333Y-77028571D01*
X330980952Y-76933333D01*
X331028571Y-76885714D01*
X331123809Y-76838095D01*
X331552380Y-77885714D02*
X331552380Y-78076190D01*
X331504761Y-78171428D01*
X331457142Y-78219047D01*
X331314285Y-78314285D01*
X331123809Y-78361904D01*
X330742857Y-78361904D01*
X330647619Y-78314285D01*
X330600000Y-78266666D01*
X330552380Y-78171428D01*
X330552380Y-77980952D01*
X330600000Y-77885714D01*
X330647619Y-77838095D01*
X330742857Y-77790476D01*
X330980952Y-77790476D01*
X331076190Y-77838095D01*
X331123809Y-77885714D01*
X331171428Y-77980952D01*
X331171428Y-78171428D01*
X331123809Y-78266666D01*
X331076190Y-78314285D01*
X330980952Y-78361904D01*
X331452380Y-94885714D02*
X330452380Y-94885714D01*
X330452380Y-95123809D01*
X330500000Y-95266666D01*
X330595238Y-95361904D01*
X330690476Y-95409523D01*
X330880952Y-95457142D01*
X331023809Y-95457142D01*
X331214285Y-95409523D01*
X331309523Y-95361904D01*
X331404761Y-95266666D01*
X331452380Y-95123809D01*
X331452380Y-94885714D01*
X330452380Y-95790476D02*
X330452380Y-96457142D01*
X331452380Y-96028571D01*
X330452380Y-97028571D02*
X330452380Y-97123809D01*
X330500000Y-97219047D01*
X330547619Y-97266666D01*
X330642857Y-97314285D01*
X330833333Y-97361904D01*
X331071428Y-97361904D01*
X331261904Y-97314285D01*
X331357142Y-97266666D01*
X331404761Y-97219047D01*
X331452380Y-97123809D01*
X331452380Y-97028571D01*
X331404761Y-96933333D01*
X331357142Y-96885714D01*
X331261904Y-96838095D01*
X331071428Y-96790476D01*
X330833333Y-96790476D01*
X330642857Y-96838095D01*
X330547619Y-96885714D01*
X330500000Y-96933333D01*
X330452380Y-97028571D01*
X312552380Y-113885714D02*
X311552380Y-113885714D01*
X311552380Y-114123809D01*
X311600000Y-114266666D01*
X311695238Y-114361904D01*
X311790476Y-114409523D01*
X311980952Y-114457142D01*
X312123809Y-114457142D01*
X312314285Y-114409523D01*
X312409523Y-114361904D01*
X312504761Y-114266666D01*
X312552380Y-114123809D01*
X312552380Y-113885714D01*
X311552380Y-115314285D02*
X311552380Y-115123809D01*
X311600000Y-115028571D01*
X311647619Y-114980952D01*
X311790476Y-114885714D01*
X311980952Y-114838095D01*
X312361904Y-114838095D01*
X312457142Y-114885714D01*
X312504761Y-114933333D01*
X312552380Y-115028571D01*
X312552380Y-115219047D01*
X312504761Y-115314285D01*
X312457142Y-115361904D01*
X312361904Y-115409523D01*
X312123809Y-115409523D01*
X312028571Y-115361904D01*
X311980952Y-115314285D01*
X311933333Y-115219047D01*
X311933333Y-115028571D01*
X311980952Y-114933333D01*
X312028571Y-114885714D01*
X312123809Y-114838095D01*
X311552380Y-116314285D02*
X311552380Y-115838095D01*
X312028571Y-115790476D01*
X311980952Y-115838095D01*
X311933333Y-115933333D01*
X311933333Y-116171428D01*
X311980952Y-116266666D01*
X312028571Y-116314285D01*
X312123809Y-116361904D01*
X312361904Y-116361904D01*
X312457142Y-116314285D01*
X312504761Y-116266666D01*
X312552380Y-116171428D01*
X312552380Y-115933333D01*
X312504761Y-115838095D01*
X312457142Y-115790476D01*
X197652380Y-122233333D02*
X197176190Y-121900000D01*
X197652380Y-121661904D02*
X196652380Y-121661904D01*
X196652380Y-122042857D01*
X196700000Y-122138095D01*
X196747619Y-122185714D01*
X196842857Y-122233333D01*
X196985714Y-122233333D01*
X197080952Y-122185714D01*
X197128571Y-122138095D01*
X197176190Y-122042857D01*
X197176190Y-121661904D01*
X197652380Y-123185714D02*
X197652380Y-122614285D01*
X197652380Y-122900000D02*
X196652380Y-122900000D01*
X196795238Y-122804761D01*
X196890476Y-122709523D01*
X196938095Y-122614285D01*
X64952380Y-133461904D02*
X63952380Y-133461904D01*
X63952380Y-133700000D01*
X64000000Y-133842857D01*
X64095238Y-133938095D01*
X64190476Y-133985714D01*
X64380952Y-134033333D01*
X64523809Y-134033333D01*
X64714285Y-133985714D01*
X64809523Y-133938095D01*
X64904761Y-133842857D01*
X64952380Y-133700000D01*
X64952380Y-133461904D01*
X63952380Y-134890476D02*
X63952380Y-134700000D01*
X64000000Y-134604761D01*
X64047619Y-134557142D01*
X64190476Y-134461904D01*
X64380952Y-134414285D01*
X64761904Y-134414285D01*
X64857142Y-134461904D01*
X64904761Y-134509523D01*
X64952380Y-134604761D01*
X64952380Y-134795238D01*
X64904761Y-134890476D01*
X64857142Y-134938095D01*
X64761904Y-134985714D01*
X64523809Y-134985714D01*
X64428571Y-134938095D01*
X64380952Y-134890476D01*
X64333333Y-134795238D01*
X64333333Y-134604761D01*
X64380952Y-134509523D01*
X64428571Y-134461904D01*
X64523809Y-134414285D01*
X83952380Y-94885714D02*
X82952380Y-94885714D01*
X82952380Y-95123809D01*
X83000000Y-95266666D01*
X83095238Y-95361904D01*
X83190476Y-95409523D01*
X83380952Y-95457142D01*
X83523809Y-95457142D01*
X83714285Y-95409523D01*
X83809523Y-95361904D01*
X83904761Y-95266666D01*
X83952380Y-95123809D01*
X83952380Y-94885714D01*
X83952380Y-96409523D02*
X83952380Y-95838095D01*
X83952380Y-96123809D02*
X82952380Y-96123809D01*
X83095238Y-96028571D01*
X83190476Y-95933333D01*
X83238095Y-95838095D01*
X82952380Y-97028571D02*
X82952380Y-97123809D01*
X83000000Y-97219047D01*
X83047619Y-97266666D01*
X83142857Y-97314285D01*
X83333333Y-97361904D01*
X83571428Y-97361904D01*
X83761904Y-97314285D01*
X83857142Y-97266666D01*
X83904761Y-97219047D01*
X83952380Y-97123809D01*
X83952380Y-97028571D01*
X83904761Y-96933333D01*
X83857142Y-96885714D01*
X83761904Y-96838095D01*
X83571428Y-96790476D01*
X83333333Y-96790476D01*
X83142857Y-96838095D01*
X83047619Y-96885714D01*
X83000000Y-96933333D01*
X82952380Y-97028571D01*
X173752380Y-117085714D02*
X172752380Y-117085714D01*
X172752380Y-117323809D01*
X172800000Y-117466666D01*
X172895238Y-117561904D01*
X172990476Y-117609523D01*
X173180952Y-117657142D01*
X173323809Y-117657142D01*
X173514285Y-117609523D01*
X173609523Y-117561904D01*
X173704761Y-117466666D01*
X173752380Y-117323809D01*
X173752380Y-117085714D01*
X172752380Y-117990476D02*
X172752380Y-118609523D01*
X173133333Y-118276190D01*
X173133333Y-118419047D01*
X173180952Y-118514285D01*
X173228571Y-118561904D01*
X173323809Y-118609523D01*
X173561904Y-118609523D01*
X173657142Y-118561904D01*
X173704761Y-118514285D01*
X173752380Y-118419047D01*
X173752380Y-118133333D01*
X173704761Y-118038095D01*
X173657142Y-117990476D01*
X173752380Y-119561904D02*
X173752380Y-118990476D01*
X173752380Y-119276190D02*
X172752380Y-119276190D01*
X172895238Y-119180952D01*
X172990476Y-119085714D01*
X173038095Y-118990476D01*
X345252380Y-117085714D02*
X344252380Y-117085714D01*
X344252380Y-117323809D01*
X344300000Y-117466666D01*
X344395238Y-117561904D01*
X344490476Y-117609523D01*
X344680952Y-117657142D01*
X344823809Y-117657142D01*
X345014285Y-117609523D01*
X345109523Y-117561904D01*
X345204761Y-117466666D01*
X345252380Y-117323809D01*
X345252380Y-117085714D01*
X344252380Y-118514285D02*
X344252380Y-118323809D01*
X344300000Y-118228571D01*
X344347619Y-118180952D01*
X344490476Y-118085714D01*
X344680952Y-118038095D01*
X345061904Y-118038095D01*
X345157142Y-118085714D01*
X345204761Y-118133333D01*
X345252380Y-118228571D01*
X345252380Y-118419047D01*
X345204761Y-118514285D01*
X345157142Y-118561904D01*
X345061904Y-118609523D01*
X344823809Y-118609523D01*
X344728571Y-118561904D01*
X344680952Y-118514285D01*
X344633333Y-118419047D01*
X344633333Y-118228571D01*
X344680952Y-118133333D01*
X344728571Y-118085714D01*
X344823809Y-118038095D01*
X344252380Y-118942857D02*
X344252380Y-119609523D01*
X345252380Y-119180952D01*
X194857142Y-62333333D02*
X194904761Y-62285714D01*
X194952380Y-62142857D01*
X194952380Y-62047619D01*
X194904761Y-61904761D01*
X194809523Y-61809523D01*
X194714285Y-61761904D01*
X194523809Y-61714285D01*
X194380952Y-61714285D01*
X194190476Y-61761904D01*
X194095238Y-61809523D01*
X194000000Y-61904761D01*
X193952380Y-62047619D01*
X193952380Y-62142857D01*
X194000000Y-62285714D01*
X194047619Y-62333333D01*
X194285714Y-63190476D02*
X194952380Y-63190476D01*
X193904761Y-62952380D02*
X194619047Y-62714285D01*
X194619047Y-63333333D01*
X202142857Y-128852380D02*
X202476190Y-128376190D01*
X202714285Y-128852380D02*
X202714285Y-127852380D01*
X202333333Y-127852380D01*
X202238095Y-127900000D01*
X202190476Y-127947619D01*
X202142857Y-128042857D01*
X202142857Y-128185714D01*
X202190476Y-128280952D01*
X202238095Y-128328571D01*
X202333333Y-128376190D01*
X202714285Y-128376190D01*
X201190476Y-128852380D02*
X201761904Y-128852380D01*
X201476190Y-128852380D02*
X201476190Y-127852380D01*
X201571428Y-127995238D01*
X201666666Y-128090476D01*
X201761904Y-128138095D01*
X200714285Y-128852380D02*
X200523809Y-128852380D01*
X200428571Y-128804761D01*
X200380952Y-128757142D01*
X200285714Y-128614285D01*
X200238095Y-128423809D01*
X200238095Y-128042857D01*
X200285714Y-127947619D01*
X200333333Y-127900000D01*
X200428571Y-127852380D01*
X200619047Y-127852380D01*
X200714285Y-127900000D01*
X200761904Y-127947619D01*
X200809523Y-128042857D01*
X200809523Y-128280952D01*
X200761904Y-128376190D01*
X200714285Y-128423809D01*
X200619047Y-128471428D01*
X200428571Y-128471428D01*
X200333333Y-128423809D01*
X200285714Y-128376190D01*
X200238095Y-128280952D01*
X216968285Y-127168380D02*
X216968285Y-126168380D01*
X216730190Y-126168380D01*
X216587333Y-126216000D01*
X216492095Y-126311238D01*
X216444476Y-126406476D01*
X216396857Y-126596952D01*
X216396857Y-126739809D01*
X216444476Y-126930285D01*
X216492095Y-127025523D01*
X216587333Y-127120761D01*
X216730190Y-127168380D01*
X216968285Y-127168380D01*
X216063523Y-126168380D02*
X215396857Y-126168380D01*
X215825428Y-127168380D01*
X215111142Y-126168380D02*
X214492095Y-126168380D01*
X214825428Y-126549333D01*
X214682571Y-126549333D01*
X214587333Y-126596952D01*
X214539714Y-126644571D01*
X214492095Y-126739809D01*
X214492095Y-126977904D01*
X214539714Y-127073142D01*
X214587333Y-127120761D01*
X214682571Y-127168380D01*
X214968285Y-127168380D01*
X215063523Y-127120761D01*
X215111142Y-127073142D01*
X197416666Y-108407142D02*
X197464285Y-108454761D01*
X197607142Y-108502380D01*
X197702380Y-108502380D01*
X197845238Y-108454761D01*
X197940476Y-108359523D01*
X197988095Y-108264285D01*
X198035714Y-108073809D01*
X198035714Y-107930952D01*
X197988095Y-107740476D01*
X197940476Y-107645238D01*
X197845238Y-107550000D01*
X197702380Y-107502380D01*
X197607142Y-107502380D01*
X197464285Y-107550000D01*
X197416666Y-107597619D01*
X197083333Y-107502380D02*
X196464285Y-107502380D01*
X196797619Y-107883333D01*
X196654761Y-107883333D01*
X196559523Y-107930952D01*
X196511904Y-107978571D01*
X196464285Y-108073809D01*
X196464285Y-108311904D01*
X196511904Y-108407142D01*
X196559523Y-108454761D01*
X196654761Y-108502380D01*
X196940476Y-108502380D01*
X197035714Y-108454761D01*
X197083333Y-108407142D01*
X64952380Y-76361904D02*
X63952380Y-76361904D01*
X63952380Y-76600000D01*
X64000000Y-76742857D01*
X64095238Y-76838095D01*
X64190476Y-76885714D01*
X64380952Y-76933333D01*
X64523809Y-76933333D01*
X64714285Y-76885714D01*
X64809523Y-76838095D01*
X64904761Y-76742857D01*
X64952380Y-76600000D01*
X64952380Y-76361904D01*
X63952380Y-77266666D02*
X63952380Y-77885714D01*
X64333333Y-77552380D01*
X64333333Y-77695238D01*
X64380952Y-77790476D01*
X64428571Y-77838095D01*
X64523809Y-77885714D01*
X64761904Y-77885714D01*
X64857142Y-77838095D01*
X64904761Y-77790476D01*
X64952380Y-77695238D01*
X64952380Y-77409523D01*
X64904761Y-77314285D01*
X64857142Y-77266666D01*
X185416486Y-107400293D02*
X185464105Y-107447912D01*
X185606962Y-107495531D01*
X185702200Y-107495531D01*
X185845058Y-107447912D01*
X185940296Y-107352674D01*
X185987915Y-107257436D01*
X186035534Y-107066960D01*
X186035534Y-106924103D01*
X185987915Y-106733627D01*
X185940296Y-106638389D01*
X185845058Y-106543151D01*
X185702200Y-106495531D01*
X185606962Y-106495531D01*
X185464105Y-106543151D01*
X185416486Y-106590770D01*
X185035534Y-106590770D02*
X184987915Y-106543151D01*
X184892677Y-106495531D01*
X184654581Y-106495531D01*
X184559343Y-106543151D01*
X184511724Y-106590770D01*
X184464105Y-106686008D01*
X184464105Y-106781246D01*
X184511724Y-106924103D01*
X185083153Y-107495531D01*
X184464105Y-107495531D01*
X184252380Y-103538095D02*
X185061904Y-103538095D01*
X185157142Y-103585714D01*
X185204761Y-103633333D01*
X185252380Y-103728571D01*
X185252380Y-103919047D01*
X185204761Y-104014285D01*
X185157142Y-104061904D01*
X185061904Y-104109523D01*
X184252380Y-104109523D01*
X184347619Y-104538095D02*
X184300000Y-104585714D01*
X184252380Y-104680952D01*
X184252380Y-104919047D01*
X184300000Y-105014285D01*
X184347619Y-105061904D01*
X184442857Y-105109523D01*
X184538095Y-105109523D01*
X184680952Y-105061904D01*
X185252380Y-104490476D01*
X185252380Y-105109523D01*
X102852380Y-132885714D02*
X101852380Y-132885714D01*
X101852380Y-133123809D01*
X101900000Y-133266666D01*
X101995238Y-133361904D01*
X102090476Y-133409523D01*
X102280952Y-133457142D01*
X102423809Y-133457142D01*
X102614285Y-133409523D01*
X102709523Y-133361904D01*
X102804761Y-133266666D01*
X102852380Y-133123809D01*
X102852380Y-132885714D01*
X102852380Y-134409523D02*
X102852380Y-133838095D01*
X102852380Y-134123809D02*
X101852380Y-134123809D01*
X101995238Y-134028571D01*
X102090476Y-133933333D01*
X102138095Y-133838095D01*
X102280952Y-134980952D02*
X102233333Y-134885714D01*
X102185714Y-134838095D01*
X102090476Y-134790476D01*
X102042857Y-134790476D01*
X101947619Y-134838095D01*
X101900000Y-134885714D01*
X101852380Y-134980952D01*
X101852380Y-135171428D01*
X101900000Y-135266666D01*
X101947619Y-135314285D01*
X102042857Y-135361904D01*
X102090476Y-135361904D01*
X102185714Y-135314285D01*
X102233333Y-135266666D01*
X102280952Y-135171428D01*
X102280952Y-134980952D01*
X102328571Y-134885714D01*
X102376190Y-134838095D01*
X102471428Y-134790476D01*
X102661904Y-134790476D01*
X102757142Y-134838095D01*
X102804761Y-134885714D01*
X102852380Y-134980952D01*
X102852380Y-135171428D01*
X102804761Y-135266666D01*
X102757142Y-135314285D01*
X102661904Y-135361904D01*
X102471428Y-135361904D01*
X102376190Y-135314285D01*
X102328571Y-135266666D01*
X102280952Y-135171428D01*
X102952380Y-94985714D02*
X101952380Y-94985714D01*
X101952380Y-95223809D01*
X102000000Y-95366666D01*
X102095238Y-95461904D01*
X102190476Y-95509523D01*
X102380952Y-95557142D01*
X102523809Y-95557142D01*
X102714285Y-95509523D01*
X102809523Y-95461904D01*
X102904761Y-95366666D01*
X102952380Y-95223809D01*
X102952380Y-94985714D01*
X102952380Y-96509523D02*
X102952380Y-95938095D01*
X102952380Y-96223809D02*
X101952380Y-96223809D01*
X102095238Y-96128571D01*
X102190476Y-96033333D01*
X102238095Y-95938095D01*
X101952380Y-97366666D02*
X101952380Y-97176190D01*
X102000000Y-97080952D01*
X102047619Y-97033333D01*
X102190476Y-96938095D01*
X102380952Y-96890476D01*
X102761904Y-96890476D01*
X102857142Y-96938095D01*
X102904761Y-96985714D01*
X102952380Y-97080952D01*
X102952380Y-97271428D01*
X102904761Y-97366666D01*
X102857142Y-97414285D01*
X102761904Y-97461904D01*
X102523809Y-97461904D01*
X102428571Y-97414285D01*
X102380952Y-97366666D01*
X102333333Y-97271428D01*
X102333333Y-97080952D01*
X102380952Y-96985714D01*
X102428571Y-96938095D01*
X102523809Y-96890476D01*
X250602380Y-62933333D02*
X250126190Y-62600000D01*
X250602380Y-62361904D02*
X249602380Y-62361904D01*
X249602380Y-62742857D01*
X249650000Y-62838095D01*
X249697619Y-62885714D01*
X249792857Y-62933333D01*
X249935714Y-62933333D01*
X250030952Y-62885714D01*
X250078571Y-62838095D01*
X250126190Y-62742857D01*
X250126190Y-62361904D01*
X250030952Y-63504761D02*
X249983333Y-63409523D01*
X249935714Y-63361904D01*
X249840476Y-63314285D01*
X249792857Y-63314285D01*
X249697619Y-63361904D01*
X249650000Y-63409523D01*
X249602380Y-63504761D01*
X249602380Y-63695238D01*
X249650000Y-63790476D01*
X249697619Y-63838095D01*
X249792857Y-63885714D01*
X249840476Y-63885714D01*
X249935714Y-63838095D01*
X249983333Y-63790476D01*
X250030952Y-63695238D01*
X250030952Y-63504761D01*
X250078571Y-63409523D01*
X250126190Y-63361904D01*
X250221428Y-63314285D01*
X250411904Y-63314285D01*
X250507142Y-63361904D01*
X250554761Y-63409523D01*
X250602380Y-63504761D01*
X250602380Y-63695238D01*
X250554761Y-63790476D01*
X250507142Y-63838095D01*
X250411904Y-63885714D01*
X250221428Y-63885714D01*
X250126190Y-63838095D01*
X250078571Y-63790476D01*
X250030952Y-63695238D01*
X342252380Y-60657142D02*
X341776190Y-60323809D01*
X342252380Y-60085714D02*
X341252380Y-60085714D01*
X341252380Y-60466666D01*
X341300000Y-60561904D01*
X341347619Y-60609523D01*
X341442857Y-60657142D01*
X341585714Y-60657142D01*
X341680952Y-60609523D01*
X341728571Y-60561904D01*
X341776190Y-60466666D01*
X341776190Y-60085714D01*
X342252380Y-61609523D02*
X342252380Y-61038095D01*
X342252380Y-61323809D02*
X341252380Y-61323809D01*
X341395238Y-61228571D01*
X341490476Y-61133333D01*
X341538095Y-61038095D01*
X341252380Y-61942857D02*
X341252380Y-62561904D01*
X341633333Y-62228571D01*
X341633333Y-62371428D01*
X341680952Y-62466666D01*
X341728571Y-62514285D01*
X341823809Y-62561904D01*
X342061904Y-62561904D01*
X342157142Y-62514285D01*
X342204761Y-62466666D01*
X342252380Y-62371428D01*
X342252380Y-62085714D01*
X342204761Y-61990476D01*
X342157142Y-61942857D01*
X194807142Y-66833333D02*
X194854761Y-66785714D01*
X194902380Y-66642857D01*
X194902380Y-66547619D01*
X194854761Y-66404761D01*
X194759523Y-66309523D01*
X194664285Y-66261904D01*
X194473809Y-66214285D01*
X194330952Y-66214285D01*
X194140476Y-66261904D01*
X194045238Y-66309523D01*
X193950000Y-66404761D01*
X193902380Y-66547619D01*
X193902380Y-66642857D01*
X193950000Y-66785714D01*
X193997619Y-66833333D01*
X193902380Y-67738095D02*
X193902380Y-67261904D01*
X194378571Y-67214285D01*
X194330952Y-67261904D01*
X194283333Y-67357142D01*
X194283333Y-67595238D01*
X194330952Y-67690476D01*
X194378571Y-67738095D01*
X194473809Y-67785714D01*
X194711904Y-67785714D01*
X194807142Y-67738095D01*
X194854761Y-67690476D01*
X194902380Y-67595238D01*
X194902380Y-67357142D01*
X194854761Y-67261904D01*
X194807142Y-67214285D01*
X121852380Y-132885714D02*
X120852380Y-132885714D01*
X120852380Y-133123809D01*
X120900000Y-133266666D01*
X120995238Y-133361904D01*
X121090476Y-133409523D01*
X121280952Y-133457142D01*
X121423809Y-133457142D01*
X121614285Y-133409523D01*
X121709523Y-133361904D01*
X121804761Y-133266666D01*
X121852380Y-133123809D01*
X121852380Y-132885714D01*
X120947619Y-133838095D02*
X120900000Y-133885714D01*
X120852380Y-133980952D01*
X120852380Y-134219047D01*
X120900000Y-134314285D01*
X120947619Y-134361904D01*
X121042857Y-134409523D01*
X121138095Y-134409523D01*
X121280952Y-134361904D01*
X121852380Y-133790476D01*
X121852380Y-134409523D01*
X120852380Y-134742857D02*
X120852380Y-135361904D01*
X121233333Y-135028571D01*
X121233333Y-135171428D01*
X121280952Y-135266666D01*
X121328571Y-135314285D01*
X121423809Y-135361904D01*
X121661904Y-135361904D01*
X121757142Y-135314285D01*
X121804761Y-135266666D01*
X121852380Y-135171428D01*
X121852380Y-134885714D01*
X121804761Y-134790476D01*
X121757142Y-134742857D01*
X64852380Y-57411904D02*
X63852380Y-57411904D01*
X63852380Y-57650000D01*
X63900000Y-57792857D01*
X63995238Y-57888095D01*
X64090476Y-57935714D01*
X64280952Y-57983333D01*
X64423809Y-57983333D01*
X64614285Y-57935714D01*
X64709523Y-57888095D01*
X64804761Y-57792857D01*
X64852380Y-57650000D01*
X64852380Y-57411904D01*
X63947619Y-58364285D02*
X63900000Y-58411904D01*
X63852380Y-58507142D01*
X63852380Y-58745238D01*
X63900000Y-58840476D01*
X63947619Y-58888095D01*
X64042857Y-58935714D01*
X64138095Y-58935714D01*
X64280952Y-58888095D01*
X64852380Y-58316666D01*
X64852380Y-58935714D01*
X210102380Y-116547142D02*
X209626190Y-116213809D01*
X210102380Y-115975714D02*
X209102380Y-115975714D01*
X209102380Y-116356666D01*
X209150000Y-116451904D01*
X209197619Y-116499523D01*
X209292857Y-116547142D01*
X209435714Y-116547142D01*
X209530952Y-116499523D01*
X209578571Y-116451904D01*
X209626190Y-116356666D01*
X209626190Y-115975714D01*
X210102380Y-117499523D02*
X210102380Y-116928095D01*
X210102380Y-117213809D02*
X209102380Y-117213809D01*
X209245238Y-117118571D01*
X209340476Y-117023333D01*
X209388095Y-116928095D01*
X209102380Y-117832857D02*
X209102380Y-118499523D01*
X210102380Y-118070952D01*
X193842857Y-128302380D02*
X194176190Y-127826190D01*
X194414285Y-128302380D02*
X194414285Y-127302380D01*
X194033333Y-127302380D01*
X193938095Y-127350000D01*
X193890476Y-127397619D01*
X193842857Y-127492857D01*
X193842857Y-127635714D01*
X193890476Y-127730952D01*
X193938095Y-127778571D01*
X194033333Y-127826190D01*
X194414285Y-127826190D01*
X192890476Y-128302380D02*
X193461904Y-128302380D01*
X193176190Y-128302380D02*
X193176190Y-127302380D01*
X193271428Y-127445238D01*
X193366666Y-127540476D01*
X193461904Y-127588095D01*
X191985714Y-127302380D02*
X192461904Y-127302380D01*
X192509523Y-127778571D01*
X192461904Y-127730952D01*
X192366666Y-127683333D01*
X192128571Y-127683333D01*
X192033333Y-127730952D01*
X191985714Y-127778571D01*
X191938095Y-127873809D01*
X191938095Y-128111904D01*
X191985714Y-128207142D01*
X192033333Y-128254761D01*
X192128571Y-128302380D01*
X192366666Y-128302380D01*
X192461904Y-128254761D01*
X192509523Y-128207142D01*
X140852380Y-132885714D02*
X139852380Y-132885714D01*
X139852380Y-133123809D01*
X139900000Y-133266666D01*
X139995238Y-133361904D01*
X140090476Y-133409523D01*
X140280952Y-133457142D01*
X140423809Y-133457142D01*
X140614285Y-133409523D01*
X140709523Y-133361904D01*
X140804761Y-133266666D01*
X140852380Y-133123809D01*
X140852380Y-132885714D01*
X139852380Y-133790476D02*
X139852380Y-134409523D01*
X140233333Y-134076190D01*
X140233333Y-134219047D01*
X140280952Y-134314285D01*
X140328571Y-134361904D01*
X140423809Y-134409523D01*
X140661904Y-134409523D01*
X140757142Y-134361904D01*
X140804761Y-134314285D01*
X140852380Y-134219047D01*
X140852380Y-133933333D01*
X140804761Y-133838095D01*
X140757142Y-133790476D01*
X139852380Y-135028571D02*
X139852380Y-135123809D01*
X139900000Y-135219047D01*
X139947619Y-135266666D01*
X140042857Y-135314285D01*
X140233333Y-135361904D01*
X140471428Y-135361904D01*
X140661904Y-135314285D01*
X140757142Y-135266666D01*
X140804761Y-135219047D01*
X140852380Y-135123809D01*
X140852380Y-135028571D01*
X140804761Y-134933333D01*
X140757142Y-134885714D01*
X140661904Y-134838095D01*
X140471428Y-134790476D01*
X140233333Y-134790476D01*
X140042857Y-134838095D01*
X139947619Y-134885714D01*
X139900000Y-134933333D01*
X139852380Y-135028571D01*
X154652380Y-117085714D02*
X153652380Y-117085714D01*
X153652380Y-117323809D01*
X153700000Y-117466666D01*
X153795238Y-117561904D01*
X153890476Y-117609523D01*
X154080952Y-117657142D01*
X154223809Y-117657142D01*
X154414285Y-117609523D01*
X154509523Y-117561904D01*
X154604761Y-117466666D01*
X154652380Y-117323809D01*
X154652380Y-117085714D01*
X153747619Y-118038095D02*
X153700000Y-118085714D01*
X153652380Y-118180952D01*
X153652380Y-118419047D01*
X153700000Y-118514285D01*
X153747619Y-118561904D01*
X153842857Y-118609523D01*
X153938095Y-118609523D01*
X154080952Y-118561904D01*
X154652380Y-117990476D01*
X154652380Y-118609523D01*
X153652380Y-119514285D02*
X153652380Y-119038095D01*
X154128571Y-118990476D01*
X154080952Y-119038095D01*
X154033333Y-119133333D01*
X154033333Y-119371428D01*
X154080952Y-119466666D01*
X154128571Y-119514285D01*
X154223809Y-119561904D01*
X154461904Y-119561904D01*
X154557142Y-119514285D01*
X154604761Y-119466666D01*
X154652380Y-119371428D01*
X154652380Y-119133333D01*
X154604761Y-119038095D01*
X154557142Y-118990476D01*
X197557142Y-117533333D02*
X197604761Y-117485714D01*
X197652380Y-117342857D01*
X197652380Y-117247619D01*
X197604761Y-117104761D01*
X197509523Y-117009523D01*
X197414285Y-116961904D01*
X197223809Y-116914285D01*
X197080952Y-116914285D01*
X196890476Y-116961904D01*
X196795238Y-117009523D01*
X196700000Y-117104761D01*
X196652380Y-117247619D01*
X196652380Y-117342857D01*
X196700000Y-117485714D01*
X196747619Y-117533333D01*
X197652380Y-118485714D02*
X197652380Y-117914285D01*
X197652380Y-118200000D02*
X196652380Y-118200000D01*
X196795238Y-118104761D01*
X196890476Y-118009523D01*
X196938095Y-117914285D01*
X78652380Y-117561904D02*
X77652380Y-117561904D01*
X77652380Y-117800000D01*
X77700000Y-117942857D01*
X77795238Y-118038095D01*
X77890476Y-118085714D01*
X78080952Y-118133333D01*
X78223809Y-118133333D01*
X78414285Y-118085714D01*
X78509523Y-118038095D01*
X78604761Y-117942857D01*
X78652380Y-117800000D01*
X78652380Y-117561904D01*
X78652380Y-119085714D02*
X78652380Y-118514285D01*
X78652380Y-118800000D02*
X77652380Y-118800000D01*
X77795238Y-118704761D01*
X77890476Y-118609523D01*
X77938095Y-118514285D01*
X293552380Y-130185714D02*
X292552380Y-130185714D01*
X292552380Y-130423809D01*
X292600000Y-130566666D01*
X292695238Y-130661904D01*
X292790476Y-130709523D01*
X292980952Y-130757142D01*
X293123809Y-130757142D01*
X293314285Y-130709523D01*
X293409523Y-130661904D01*
X293504761Y-130566666D01*
X293552380Y-130423809D01*
X293552380Y-130185714D01*
X292552380Y-131614285D02*
X292552380Y-131423809D01*
X292600000Y-131328571D01*
X292647619Y-131280952D01*
X292790476Y-131185714D01*
X292980952Y-131138095D01*
X293361904Y-131138095D01*
X293457142Y-131185714D01*
X293504761Y-131233333D01*
X293552380Y-131328571D01*
X293552380Y-131519047D01*
X293504761Y-131614285D01*
X293457142Y-131661904D01*
X293361904Y-131709523D01*
X293123809Y-131709523D01*
X293028571Y-131661904D01*
X292980952Y-131614285D01*
X292933333Y-131519047D01*
X292933333Y-131328571D01*
X292980952Y-131233333D01*
X293028571Y-131185714D01*
X293123809Y-131138095D01*
X292552380Y-132328571D02*
X292552380Y-132423809D01*
X292600000Y-132519047D01*
X292647619Y-132566666D01*
X292742857Y-132614285D01*
X292933333Y-132661904D01*
X293171428Y-132661904D01*
X293361904Y-132614285D01*
X293457142Y-132566666D01*
X293504761Y-132519047D01*
X293552380Y-132423809D01*
X293552380Y-132328571D01*
X293504761Y-132233333D01*
X293457142Y-132185714D01*
X293361904Y-132138095D01*
X293171428Y-132090476D01*
X292933333Y-132090476D01*
X292742857Y-132138095D01*
X292647619Y-132185714D01*
X292600000Y-132233333D01*
X292552380Y-132328571D01*
X64852380Y-114461904D02*
X63852380Y-114461904D01*
X63852380Y-114700000D01*
X63900000Y-114842857D01*
X63995238Y-114938095D01*
X64090476Y-114985714D01*
X64280952Y-115033333D01*
X64423809Y-115033333D01*
X64614285Y-114985714D01*
X64709523Y-114938095D01*
X64804761Y-114842857D01*
X64852380Y-114700000D01*
X64852380Y-114461904D01*
X63852380Y-115938095D02*
X63852380Y-115461904D01*
X64328571Y-115414285D01*
X64280952Y-115461904D01*
X64233333Y-115557142D01*
X64233333Y-115795238D01*
X64280952Y-115890476D01*
X64328571Y-115938095D01*
X64423809Y-115985714D01*
X64661904Y-115985714D01*
X64757142Y-115938095D01*
X64804761Y-115890476D01*
X64852380Y-115795238D01*
X64852380Y-115557142D01*
X64804761Y-115461904D01*
X64757142Y-115414285D01*
X136002380Y-62833333D02*
X135526190Y-62500000D01*
X136002380Y-62261904D02*
X135002380Y-62261904D01*
X135002380Y-62642857D01*
X135050000Y-62738095D01*
X135097619Y-62785714D01*
X135192857Y-62833333D01*
X135335714Y-62833333D01*
X135430952Y-62785714D01*
X135478571Y-62738095D01*
X135526190Y-62642857D01*
X135526190Y-62261904D01*
X135002380Y-63738095D02*
X135002380Y-63261904D01*
X135478571Y-63214285D01*
X135430952Y-63261904D01*
X135383333Y-63357142D01*
X135383333Y-63595238D01*
X135430952Y-63690476D01*
X135478571Y-63738095D01*
X135573809Y-63785714D01*
X135811904Y-63785714D01*
X135907142Y-63738095D01*
X135954761Y-63690476D01*
X136002380Y-63595238D01*
X136002380Y-63357142D01*
X135954761Y-63261904D01*
X135907142Y-63214285D01*
X173802380Y-62833333D02*
X173326190Y-62500000D01*
X173802380Y-62261904D02*
X172802380Y-62261904D01*
X172802380Y-62642857D01*
X172850000Y-62738095D01*
X172897619Y-62785714D01*
X172992857Y-62833333D01*
X173135714Y-62833333D01*
X173230952Y-62785714D01*
X173278571Y-62738095D01*
X173326190Y-62642857D01*
X173326190Y-62261904D01*
X172802380Y-63166666D02*
X172802380Y-63833333D01*
X173802380Y-63404761D01*
X288602380Y-62457142D02*
X288126190Y-62123809D01*
X288602380Y-61885714D02*
X287602380Y-61885714D01*
X287602380Y-62266666D01*
X287650000Y-62361904D01*
X287697619Y-62409523D01*
X287792857Y-62457142D01*
X287935714Y-62457142D01*
X288030952Y-62409523D01*
X288078571Y-62361904D01*
X288126190Y-62266666D01*
X288126190Y-61885714D01*
X288602380Y-63409523D02*
X288602380Y-62838095D01*
X288602380Y-63123809D02*
X287602380Y-63123809D01*
X287745238Y-63028571D01*
X287840476Y-62933333D01*
X287888095Y-62838095D01*
X287602380Y-64028571D02*
X287602380Y-64123809D01*
X287650000Y-64219047D01*
X287697619Y-64266666D01*
X287792857Y-64314285D01*
X287983333Y-64361904D01*
X288221428Y-64361904D01*
X288411904Y-64314285D01*
X288507142Y-64266666D01*
X288554761Y-64219047D01*
X288602380Y-64123809D01*
X288602380Y-64028571D01*
X288554761Y-63933333D01*
X288507142Y-63885714D01*
X288411904Y-63838095D01*
X288221428Y-63790476D01*
X287983333Y-63790476D01*
X287792857Y-63838095D01*
X287697619Y-63885714D01*
X287650000Y-63933333D01*
X287602380Y-64028571D01*
X140852380Y-56885714D02*
X139852380Y-56885714D01*
X139852380Y-57123809D01*
X139900000Y-57266666D01*
X139995238Y-57361904D01*
X140090476Y-57409523D01*
X140280952Y-57457142D01*
X140423809Y-57457142D01*
X140614285Y-57409523D01*
X140709523Y-57361904D01*
X140804761Y-57266666D01*
X140852380Y-57123809D01*
X140852380Y-56885714D01*
X139947619Y-57838095D02*
X139900000Y-57885714D01*
X139852380Y-57980952D01*
X139852380Y-58219047D01*
X139900000Y-58314285D01*
X139947619Y-58361904D01*
X140042857Y-58409523D01*
X140138095Y-58409523D01*
X140280952Y-58361904D01*
X140852380Y-57790476D01*
X140852380Y-58409523D01*
X139852380Y-59266666D02*
X139852380Y-59076190D01*
X139900000Y-58980952D01*
X139947619Y-58933333D01*
X140090476Y-58838095D01*
X140280952Y-58790476D01*
X140661904Y-58790476D01*
X140757142Y-58838095D01*
X140804761Y-58885714D01*
X140852380Y-58980952D01*
X140852380Y-59171428D01*
X140804761Y-59266666D01*
X140757142Y-59314285D01*
X140661904Y-59361904D01*
X140423809Y-59361904D01*
X140328571Y-59314285D01*
X140280952Y-59266666D01*
X140233333Y-59171428D01*
X140233333Y-58980952D01*
X140280952Y-58885714D01*
X140328571Y-58838095D01*
X140423809Y-58790476D01*
X274552380Y-75985714D02*
X273552380Y-75985714D01*
X273552380Y-76223809D01*
X273600000Y-76366666D01*
X273695238Y-76461904D01*
X273790476Y-76509523D01*
X273980952Y-76557142D01*
X274123809Y-76557142D01*
X274314285Y-76509523D01*
X274409523Y-76461904D01*
X274504761Y-76366666D01*
X274552380Y-76223809D01*
X274552380Y-75985714D01*
X273552380Y-77461904D02*
X273552380Y-76985714D01*
X274028571Y-76938095D01*
X273980952Y-76985714D01*
X273933333Y-77080952D01*
X273933333Y-77319047D01*
X273980952Y-77414285D01*
X274028571Y-77461904D01*
X274123809Y-77509523D01*
X274361904Y-77509523D01*
X274457142Y-77461904D01*
X274504761Y-77414285D01*
X274552380Y-77319047D01*
X274552380Y-77080952D01*
X274504761Y-76985714D01*
X274457142Y-76938095D01*
X274552380Y-78461904D02*
X274552380Y-77890476D01*
X274552380Y-78176190D02*
X273552380Y-78176190D01*
X273695238Y-78080952D01*
X273790476Y-77985714D01*
X273838095Y-77890476D01*
X269602380Y-62933333D02*
X269126190Y-62600000D01*
X269602380Y-62361904D02*
X268602380Y-62361904D01*
X268602380Y-62742857D01*
X268650000Y-62838095D01*
X268697619Y-62885714D01*
X268792857Y-62933333D01*
X268935714Y-62933333D01*
X269030952Y-62885714D01*
X269078571Y-62838095D01*
X269126190Y-62742857D01*
X269126190Y-62361904D01*
X269602380Y-63409523D02*
X269602380Y-63600000D01*
X269554761Y-63695238D01*
X269507142Y-63742857D01*
X269364285Y-63838095D01*
X269173809Y-63885714D01*
X268792857Y-63885714D01*
X268697619Y-63838095D01*
X268650000Y-63790476D01*
X268602380Y-63695238D01*
X268602380Y-63504761D01*
X268650000Y-63409523D01*
X268697619Y-63361904D01*
X268792857Y-63314285D01*
X269030952Y-63314285D01*
X269126190Y-63361904D01*
X269173809Y-63409523D01*
X269221428Y-63504761D01*
X269221428Y-63695238D01*
X269173809Y-63790476D01*
X269126190Y-63838095D01*
X269030952Y-63885714D01*
X140852380Y-75885714D02*
X139852380Y-75885714D01*
X139852380Y-76123809D01*
X139900000Y-76266666D01*
X139995238Y-76361904D01*
X140090476Y-76409523D01*
X140280952Y-76457142D01*
X140423809Y-76457142D01*
X140614285Y-76409523D01*
X140709523Y-76361904D01*
X140804761Y-76266666D01*
X140852380Y-76123809D01*
X140852380Y-75885714D01*
X139947619Y-76838095D02*
X139900000Y-76885714D01*
X139852380Y-76980952D01*
X139852380Y-77219047D01*
X139900000Y-77314285D01*
X139947619Y-77361904D01*
X140042857Y-77409523D01*
X140138095Y-77409523D01*
X140280952Y-77361904D01*
X140852380Y-76790476D01*
X140852380Y-77409523D01*
X139852380Y-77742857D02*
X139852380Y-78409523D01*
X140852380Y-77980952D01*
X307352380Y-117085714D02*
X306352380Y-117085714D01*
X306352380Y-117323809D01*
X306400000Y-117466666D01*
X306495238Y-117561904D01*
X306590476Y-117609523D01*
X306780952Y-117657142D01*
X306923809Y-117657142D01*
X307114285Y-117609523D01*
X307209523Y-117561904D01*
X307304761Y-117466666D01*
X307352380Y-117323809D01*
X307352380Y-117085714D01*
X306352380Y-118561904D02*
X306352380Y-118085714D01*
X306828571Y-118038095D01*
X306780952Y-118085714D01*
X306733333Y-118180952D01*
X306733333Y-118419047D01*
X306780952Y-118514285D01*
X306828571Y-118561904D01*
X306923809Y-118609523D01*
X307161904Y-118609523D01*
X307257142Y-118561904D01*
X307304761Y-118514285D01*
X307352380Y-118419047D01*
X307352380Y-118180952D01*
X307304761Y-118085714D01*
X307257142Y-118038095D01*
X306352380Y-119514285D02*
X306352380Y-119038095D01*
X306828571Y-118990476D01*
X306780952Y-119038095D01*
X306733333Y-119133333D01*
X306733333Y-119371428D01*
X306780952Y-119466666D01*
X306828571Y-119514285D01*
X306923809Y-119561904D01*
X307161904Y-119561904D01*
X307257142Y-119514285D01*
X307304761Y-119466666D01*
X307352380Y-119371428D01*
X307352380Y-119133333D01*
X307304761Y-119038095D01*
X307257142Y-118990476D01*
X331552380Y-113985714D02*
X330552380Y-113985714D01*
X330552380Y-114223809D01*
X330600000Y-114366666D01*
X330695238Y-114461904D01*
X330790476Y-114509523D01*
X330980952Y-114557142D01*
X331123809Y-114557142D01*
X331314285Y-114509523D01*
X331409523Y-114461904D01*
X331504761Y-114366666D01*
X331552380Y-114223809D01*
X331552380Y-113985714D01*
X330552380Y-114890476D02*
X330552380Y-115557142D01*
X331552380Y-115128571D01*
X331552380Y-116461904D02*
X331552380Y-115890476D01*
X331552380Y-116176190D02*
X330552380Y-116176190D01*
X330695238Y-116080952D01*
X330790476Y-115985714D01*
X330838095Y-115890476D01*
X207335373Y-60639244D02*
X207335373Y-61353530D01*
X207382992Y-61496387D01*
X207478230Y-61591625D01*
X207621087Y-61639244D01*
X207716325Y-61639244D01*
X206382992Y-60639244D02*
X206859182Y-60639244D01*
X206906801Y-61115435D01*
X206859182Y-61067816D01*
X206763944Y-61020197D01*
X206525849Y-61020197D01*
X206430611Y-61067816D01*
X206382992Y-61115435D01*
X206335373Y-61210673D01*
X206335373Y-61448768D01*
X206382992Y-61544006D01*
X206430611Y-61591625D01*
X206525849Y-61639244D01*
X206763944Y-61639244D01*
X206859182Y-61591625D01*
X206906801Y-61544006D01*
X274552380Y-94885714D02*
X273552380Y-94885714D01*
X273552380Y-95123809D01*
X273600000Y-95266666D01*
X273695238Y-95361904D01*
X273790476Y-95409523D01*
X273980952Y-95457142D01*
X274123809Y-95457142D01*
X274314285Y-95409523D01*
X274409523Y-95361904D01*
X274504761Y-95266666D01*
X274552380Y-95123809D01*
X274552380Y-94885714D01*
X273552380Y-96361904D02*
X273552380Y-95885714D01*
X274028571Y-95838095D01*
X273980952Y-95885714D01*
X273933333Y-95980952D01*
X273933333Y-96219047D01*
X273980952Y-96314285D01*
X274028571Y-96361904D01*
X274123809Y-96409523D01*
X274361904Y-96409523D01*
X274457142Y-96361904D01*
X274504761Y-96314285D01*
X274552380Y-96219047D01*
X274552380Y-95980952D01*
X274504761Y-95885714D01*
X274457142Y-95838095D01*
X273647619Y-96790476D02*
X273600000Y-96838095D01*
X273552380Y-96933333D01*
X273552380Y-97171428D01*
X273600000Y-97266666D01*
X273647619Y-97314285D01*
X273742857Y-97361904D01*
X273838095Y-97361904D01*
X273980952Y-97314285D01*
X274552380Y-96742857D01*
X274552380Y-97361904D01*
X312618380Y-94035714D02*
X311618380Y-94035714D01*
X311618380Y-94273809D01*
X311666000Y-94416666D01*
X311761238Y-94511904D01*
X311856476Y-94559523D01*
X312046952Y-94607142D01*
X312189809Y-94607142D01*
X312380285Y-94559523D01*
X312475523Y-94511904D01*
X312570761Y-94416666D01*
X312618380Y-94273809D01*
X312618380Y-94035714D01*
X311618380Y-95464285D02*
X311618380Y-95273809D01*
X311666000Y-95178571D01*
X311713619Y-95130952D01*
X311856476Y-95035714D01*
X312046952Y-94988095D01*
X312427904Y-94988095D01*
X312523142Y-95035714D01*
X312570761Y-95083333D01*
X312618380Y-95178571D01*
X312618380Y-95369047D01*
X312570761Y-95464285D01*
X312523142Y-95511904D01*
X312427904Y-95559523D01*
X312189809Y-95559523D01*
X312094571Y-95511904D01*
X312046952Y-95464285D01*
X311999333Y-95369047D01*
X311999333Y-95178571D01*
X312046952Y-95083333D01*
X312094571Y-95035714D01*
X312189809Y-94988095D01*
X311951714Y-96416666D02*
X312618380Y-96416666D01*
X311570761Y-96178571D02*
X312285047Y-95940476D01*
X312285047Y-96559523D01*
X250352380Y-117085714D02*
X249352380Y-117085714D01*
X249352380Y-117323809D01*
X249400000Y-117466666D01*
X249495238Y-117561904D01*
X249590476Y-117609523D01*
X249780952Y-117657142D01*
X249923809Y-117657142D01*
X250114285Y-117609523D01*
X250209523Y-117561904D01*
X250304761Y-117466666D01*
X250352380Y-117323809D01*
X250352380Y-117085714D01*
X249352380Y-117990476D02*
X249352380Y-118609523D01*
X249733333Y-118276190D01*
X249733333Y-118419047D01*
X249780952Y-118514285D01*
X249828571Y-118561904D01*
X249923809Y-118609523D01*
X250161904Y-118609523D01*
X250257142Y-118561904D01*
X250304761Y-118514285D01*
X250352380Y-118419047D01*
X250352380Y-118133333D01*
X250304761Y-118038095D01*
X250257142Y-117990476D01*
X249352380Y-118942857D02*
X249352380Y-119609523D01*
X250352380Y-119180952D01*
X270200380Y-118927714D02*
X269200380Y-118927714D01*
X269200380Y-119165809D01*
X269248000Y-119308666D01*
X269343238Y-119403904D01*
X269438476Y-119451523D01*
X269628952Y-119499142D01*
X269771809Y-119499142D01*
X269962285Y-119451523D01*
X270057523Y-119403904D01*
X270152761Y-119308666D01*
X270200380Y-119165809D01*
X270200380Y-118927714D01*
X269533714Y-120356285D02*
X270200380Y-120356285D01*
X269152761Y-120118190D02*
X269867047Y-119880095D01*
X269867047Y-120499142D01*
X269200380Y-120784857D02*
X269200380Y-121403904D01*
X269581333Y-121070571D01*
X269581333Y-121213428D01*
X269628952Y-121308666D01*
X269676571Y-121356285D01*
X269771809Y-121403904D01*
X270009904Y-121403904D01*
X270105142Y-121356285D01*
X270152761Y-121308666D01*
X270200380Y-121213428D01*
X270200380Y-120927714D01*
X270152761Y-120832476D01*
X270105142Y-120784857D01*
X274552380Y-113885714D02*
X273552380Y-113885714D01*
X273552380Y-114123809D01*
X273600000Y-114266666D01*
X273695238Y-114361904D01*
X273790476Y-114409523D01*
X273980952Y-114457142D01*
X274123809Y-114457142D01*
X274314285Y-114409523D01*
X274409523Y-114361904D01*
X274504761Y-114266666D01*
X274552380Y-114123809D01*
X274552380Y-113885714D01*
X273552380Y-115361904D02*
X273552380Y-114885714D01*
X274028571Y-114838095D01*
X273980952Y-114885714D01*
X273933333Y-114980952D01*
X273933333Y-115219047D01*
X273980952Y-115314285D01*
X274028571Y-115361904D01*
X274123809Y-115409523D01*
X274361904Y-115409523D01*
X274457142Y-115361904D01*
X274504761Y-115314285D01*
X274552380Y-115219047D01*
X274552380Y-114980952D01*
X274504761Y-114885714D01*
X274457142Y-114838095D01*
X273552380Y-115742857D02*
X273552380Y-116361904D01*
X273933333Y-116028571D01*
X273933333Y-116171428D01*
X273980952Y-116266666D01*
X274028571Y-116314285D01*
X274123809Y-116361904D01*
X274361904Y-116361904D01*
X274457142Y-116314285D01*
X274504761Y-116266666D01*
X274552380Y-116171428D01*
X274552380Y-115885714D01*
X274504761Y-115790476D01*
X274457142Y-115742857D01*
D11*
X198882714Y-88246000D02*
X199427000Y-88246000D01*
X199535857Y-88209714D01*
X199608428Y-88137142D01*
X199644714Y-88028285D01*
X199644714Y-87955714D01*
X198882714Y-88536285D02*
X198882714Y-89008000D01*
X199173000Y-88754000D01*
X199173000Y-88862857D01*
X199209285Y-88935428D01*
X199245571Y-88971714D01*
X199318142Y-89008000D01*
X199499571Y-89008000D01*
X199572142Y-88971714D01*
X199608428Y-88935428D01*
X199644714Y-88862857D01*
X199644714Y-88645142D01*
X199608428Y-88572571D01*
X199572142Y-88536285D01*
D10*
X103068380Y-56443714D02*
X102068380Y-56443714D01*
X102068380Y-56681809D01*
X102116000Y-56824666D01*
X102211238Y-56919904D01*
X102306476Y-56967523D01*
X102496952Y-57015142D01*
X102639809Y-57015142D01*
X102830285Y-56967523D01*
X102925523Y-56919904D01*
X103020761Y-56824666D01*
X103068380Y-56681809D01*
X103068380Y-56443714D01*
X103068380Y-57967523D02*
X103068380Y-57396095D01*
X103068380Y-57681809D02*
X102068380Y-57681809D01*
X102211238Y-57586571D01*
X102306476Y-57491333D01*
X102354095Y-57396095D01*
X102401714Y-58824666D02*
X103068380Y-58824666D01*
X102020761Y-58586571D02*
X102735047Y-58348476D01*
X102735047Y-58967523D01*
X255722380Y-131881714D02*
X254722380Y-131881714D01*
X254722380Y-132119809D01*
X254770000Y-132262666D01*
X254865238Y-132357904D01*
X254960476Y-132405523D01*
X255150952Y-132453142D01*
X255293809Y-132453142D01*
X255484285Y-132405523D01*
X255579523Y-132357904D01*
X255674761Y-132262666D01*
X255722380Y-132119809D01*
X255722380Y-131881714D01*
X255055714Y-133310285D02*
X255722380Y-133310285D01*
X254674761Y-133072190D02*
X255389047Y-132834095D01*
X255389047Y-133453142D01*
X255150952Y-133976952D02*
X255103333Y-133881714D01*
X255055714Y-133834095D01*
X254960476Y-133786476D01*
X254912857Y-133786476D01*
X254817619Y-133834095D01*
X254770000Y-133881714D01*
X254722380Y-133976952D01*
X254722380Y-134167428D01*
X254770000Y-134262666D01*
X254817619Y-134310285D01*
X254912857Y-134357904D01*
X254960476Y-134357904D01*
X255055714Y-134310285D01*
X255103333Y-134262666D01*
X255150952Y-134167428D01*
X255150952Y-133976952D01*
X255198571Y-133881714D01*
X255246190Y-133834095D01*
X255341428Y-133786476D01*
X255531904Y-133786476D01*
X255627142Y-133834095D01*
X255674761Y-133881714D01*
X255722380Y-133976952D01*
X255722380Y-134167428D01*
X255674761Y-134262666D01*
X255627142Y-134310285D01*
X255531904Y-134357904D01*
X255341428Y-134357904D01*
X255246190Y-134310285D01*
X255198571Y-134262666D01*
X255150952Y-134167428D01*
X98002380Y-62833333D02*
X97526190Y-62500000D01*
X98002380Y-62261904D02*
X97002380Y-62261904D01*
X97002380Y-62642857D01*
X97050000Y-62738095D01*
X97097619Y-62785714D01*
X97192857Y-62833333D01*
X97335714Y-62833333D01*
X97430952Y-62785714D01*
X97478571Y-62738095D01*
X97526190Y-62642857D01*
X97526190Y-62261904D01*
X97002380Y-63166666D02*
X97002380Y-63785714D01*
X97383333Y-63452380D01*
X97383333Y-63595238D01*
X97430952Y-63690476D01*
X97478571Y-63738095D01*
X97573809Y-63785714D01*
X97811904Y-63785714D01*
X97907142Y-63738095D01*
X97954761Y-63690476D01*
X98002380Y-63595238D01*
X98002380Y-63309523D01*
X97954761Y-63214285D01*
X97907142Y-63166666D01*
X117002380Y-62833333D02*
X116526190Y-62500000D01*
X117002380Y-62261904D02*
X116002380Y-62261904D01*
X116002380Y-62642857D01*
X116050000Y-62738095D01*
X116097619Y-62785714D01*
X116192857Y-62833333D01*
X116335714Y-62833333D01*
X116430952Y-62785714D01*
X116478571Y-62738095D01*
X116526190Y-62642857D01*
X116526190Y-62261904D01*
X116335714Y-63690476D02*
X117002380Y-63690476D01*
X115954761Y-63452380D02*
X116669047Y-63214285D01*
X116669047Y-63833333D01*
X135752380Y-117085714D02*
X134752380Y-117085714D01*
X134752380Y-117323809D01*
X134800000Y-117466666D01*
X134895238Y-117561904D01*
X134990476Y-117609523D01*
X135180952Y-117657142D01*
X135323809Y-117657142D01*
X135514285Y-117609523D01*
X135609523Y-117561904D01*
X135704761Y-117466666D01*
X135752380Y-117323809D01*
X135752380Y-117085714D01*
X135752380Y-118609523D02*
X135752380Y-118038095D01*
X135752380Y-118323809D02*
X134752380Y-118323809D01*
X134895238Y-118228571D01*
X134990476Y-118133333D01*
X135038095Y-118038095D01*
X135752380Y-119085714D02*
X135752380Y-119276190D01*
X135704761Y-119371428D01*
X135657142Y-119419047D01*
X135514285Y-119514285D01*
X135323809Y-119561904D01*
X134942857Y-119561904D01*
X134847619Y-119514285D01*
X134800000Y-119466666D01*
X134752380Y-119371428D01*
X134752380Y-119180952D01*
X134800000Y-119085714D01*
X134847619Y-119038095D01*
X134942857Y-118990476D01*
X135180952Y-118990476D01*
X135276190Y-119038095D01*
X135323809Y-119085714D01*
X135371428Y-119180952D01*
X135371428Y-119371428D01*
X135323809Y-119466666D01*
X135276190Y-119514285D01*
X135180952Y-119561904D01*
X79002380Y-62833333D02*
X78526190Y-62500000D01*
X79002380Y-62261904D02*
X78002380Y-62261904D01*
X78002380Y-62642857D01*
X78050000Y-62738095D01*
X78097619Y-62785714D01*
X78192857Y-62833333D01*
X78335714Y-62833333D01*
X78430952Y-62785714D01*
X78478571Y-62738095D01*
X78526190Y-62642857D01*
X78526190Y-62261904D01*
X78097619Y-63214285D02*
X78050000Y-63261904D01*
X78002380Y-63357142D01*
X78002380Y-63595238D01*
X78050000Y-63690476D01*
X78097619Y-63738095D01*
X78192857Y-63785714D01*
X78288095Y-63785714D01*
X78430952Y-63738095D01*
X79002380Y-63166666D01*
X79002380Y-63785714D01*
X323410000Y-44815000D02*
X323410000Y-45196000D01*
X311980000Y-50784000D02*
X311980000Y-51165000D01*
X323410000Y-48244000D02*
X323410000Y-49260000D01*
X315865838Y-51165000D02*
X314139000Y-51165000D01*
X312361000Y-51165000D02*
X311980000Y-51165000D01*
X311980000Y-47355000D02*
X311980000Y-47736000D01*
X323410000Y-49260000D02*
X318330000Y-49260000D01*
X314520000Y-44815000D02*
X323410000Y-44815000D01*
X318330000Y-49259999D02*
G75*
G03*
X315865838Y-51183960I0J-2540000D01*
G01*
X314520000Y-44815000D02*
G75*
G03*
X311980000Y-47355000I1J-2540001D01*
G01*
X121300000Y-50784000D02*
X121300000Y-51165000D01*
X123840000Y-44815000D02*
X132730000Y-44815000D01*
X121300000Y-47355000D02*
X121300000Y-47736000D01*
X121681000Y-51165000D02*
X121300000Y-51165000D01*
X125185838Y-51165000D02*
X123459000Y-51165000D01*
X132730000Y-49260000D02*
X127650000Y-49260000D01*
X132730000Y-44815000D02*
X132730000Y-45196000D01*
X132730000Y-48244000D02*
X132730000Y-49260000D01*
X127650000Y-49259999D02*
G75*
G03*
X125185838Y-51183960I0J-2540000D01*
G01*
X123840000Y-44815000D02*
G75*
G03*
X121300000Y-47355000I1J-2540001D01*
G01*
X83300000Y-107784000D02*
X83300000Y-108165000D01*
X83300000Y-104355000D02*
X83300000Y-104736000D01*
X83681000Y-108165000D02*
X83300000Y-108165000D01*
X94730000Y-101815000D02*
X94730000Y-102196000D01*
X85840000Y-101815000D02*
X94730000Y-101815000D01*
X94730000Y-105244000D02*
X94730000Y-106260000D01*
X87185838Y-108165000D02*
X85459000Y-108165000D01*
X94730000Y-106260000D02*
X89650000Y-106260000D01*
X89650000Y-106259999D02*
G75*
G03*
X87185838Y-108183960I0J-2540000D01*
G01*
X85840000Y-101815000D02*
G75*
G03*
X83300000Y-104355000I1J-2540001D01*
G01*
X247410000Y-124244000D02*
X247410000Y-125260000D01*
X239865838Y-127165000D02*
X238139000Y-127165000D01*
X247410000Y-125260000D02*
X242330000Y-125260000D01*
X238520000Y-120815000D02*
X247410000Y-120815000D01*
X235980000Y-126784000D02*
X235980000Y-127165000D01*
X236361000Y-127165000D02*
X235980000Y-127165000D01*
X247410000Y-120815000D02*
X247410000Y-121196000D01*
X235980000Y-123355000D02*
X235980000Y-123736000D01*
X242330000Y-125259999D02*
G75*
G03*
X239865838Y-127183960I0J-2540000D01*
G01*
X238520000Y-120815000D02*
G75*
G03*
X235980000Y-123355000I1J-2540001D01*
G01*
X170730000Y-87260000D02*
X165650000Y-87260000D01*
X159681000Y-89165000D02*
X159300000Y-89165000D01*
X163185838Y-89165000D02*
X161459000Y-89165000D01*
X161840000Y-82815000D02*
X170730000Y-82815000D01*
X170730000Y-82815000D02*
X170730000Y-83196000D01*
X159300000Y-88784000D02*
X159300000Y-89165000D01*
X159300000Y-85355000D02*
X159300000Y-85736000D01*
X170730000Y-86244000D02*
X170730000Y-87260000D01*
X165650000Y-87259999D02*
G75*
G03*
X163185838Y-89183960I0J-2540000D01*
G01*
X161840000Y-82815000D02*
G75*
G03*
X159300000Y-85355000I1J-2540001D01*
G01*
X121681000Y-108165000D02*
X121300000Y-108165000D01*
X132730000Y-101815000D02*
X132730000Y-102196000D01*
X132730000Y-105244000D02*
X132730000Y-106260000D01*
X121300000Y-107784000D02*
X121300000Y-108165000D01*
X123840000Y-101815000D02*
X132730000Y-101815000D01*
X125185838Y-108165000D02*
X123459000Y-108165000D01*
X121300000Y-104355000D02*
X121300000Y-104736000D01*
X132730000Y-106260000D02*
X127650000Y-106260000D01*
X123840000Y-101815000D02*
G75*
G03*
X121300000Y-104355000I1J-2540001D01*
G01*
X127650000Y-106259999D02*
G75*
G03*
X125185838Y-108183960I0J-2540000D01*
G01*
X266410000Y-87260000D02*
X261330000Y-87260000D01*
X266410000Y-86244000D02*
X266410000Y-87260000D01*
X266410000Y-82815000D02*
X266410000Y-83196000D01*
X258865838Y-89165000D02*
X257139000Y-89165000D01*
X254980000Y-85355000D02*
X254980000Y-85736000D01*
X254980000Y-88784000D02*
X254980000Y-89165000D01*
X257520000Y-82815000D02*
X266410000Y-82815000D01*
X255361000Y-89165000D02*
X254980000Y-89165000D01*
X257520000Y-82815000D02*
G75*
G03*
X254980000Y-85355000I1J-2540001D01*
G01*
X261330000Y-87259999D02*
G75*
G03*
X258865838Y-89183960I0J-2540000D01*
G01*
X102300000Y-50784000D02*
X102300000Y-51165000D01*
X113730000Y-44815000D02*
X113730000Y-45196000D01*
X102300000Y-47355000D02*
X102300000Y-47736000D01*
X113730000Y-49260000D02*
X108650000Y-49260000D01*
X104840000Y-44815000D02*
X113730000Y-44815000D01*
X106185838Y-51165000D02*
X104459000Y-51165000D01*
X113730000Y-48244000D02*
X113730000Y-49260000D01*
X102681000Y-51165000D02*
X102300000Y-51165000D01*
X108650000Y-49259999D02*
G75*
G03*
X106185838Y-51183960I0J-2540000D01*
G01*
X104840000Y-44815000D02*
G75*
G03*
X102300000Y-47355000I1J-2540001D01*
G01*
X113730000Y-120815000D02*
X113730000Y-121196000D01*
X113730000Y-125260000D02*
X108650000Y-125260000D01*
X104840000Y-120815000D02*
X113730000Y-120815000D01*
X106185838Y-127165000D02*
X104459000Y-127165000D01*
X102681000Y-127165000D02*
X102300000Y-127165000D01*
X102300000Y-126784000D02*
X102300000Y-127165000D01*
X113730000Y-124244000D02*
X113730000Y-125260000D01*
X102300000Y-123355000D02*
X102300000Y-123736000D01*
X108650000Y-125259999D02*
G75*
G03*
X106185838Y-127183960I0J-2540000D01*
G01*
X104840000Y-120815000D02*
G75*
G03*
X102300000Y-123355000I1J-2540001D01*
G01*
X296865838Y-70165000D02*
X295139000Y-70165000D01*
X292980000Y-66355000D02*
X292980000Y-66736000D01*
X304410000Y-63815000D02*
X304410000Y-64196000D01*
X295520000Y-63815000D02*
X304410000Y-63815000D01*
X293361000Y-70165000D02*
X292980000Y-70165000D01*
X292980000Y-69784000D02*
X292980000Y-70165000D01*
X304410000Y-68260000D02*
X299330000Y-68260000D01*
X304410000Y-67244000D02*
X304410000Y-68260000D01*
X299330000Y-68259999D02*
G75*
G03*
X296865838Y-70183960I0J-2540000D01*
G01*
X295520000Y-63815000D02*
G75*
G03*
X292980000Y-66355000I1J-2540001D01*
G01*
X132730000Y-67244000D02*
X132730000Y-68260000D01*
X125185838Y-70165000D02*
X123459000Y-70165000D01*
X132730000Y-63815000D02*
X132730000Y-64196000D01*
X121681000Y-70165000D02*
X121300000Y-70165000D01*
X121300000Y-66355000D02*
X121300000Y-66736000D01*
X123840000Y-63815000D02*
X132730000Y-63815000D01*
X121300000Y-69784000D02*
X121300000Y-70165000D01*
X132730000Y-68260000D02*
X127650000Y-68260000D01*
X123840000Y-63815000D02*
G75*
G03*
X121300000Y-66355000I1J-2540001D01*
G01*
X127650000Y-68259999D02*
G75*
G03*
X125185838Y-70183960I0J-2540000D01*
G01*
X142840000Y-82815000D02*
X151730000Y-82815000D01*
X140300000Y-85355000D02*
X140300000Y-85736000D01*
X140681000Y-89165000D02*
X140300000Y-89165000D01*
X151730000Y-87260000D02*
X146650000Y-87260000D01*
X151730000Y-82815000D02*
X151730000Y-83196000D01*
X151730000Y-86244000D02*
X151730000Y-87260000D01*
X140300000Y-88784000D02*
X140300000Y-89165000D01*
X144185838Y-89165000D02*
X142459000Y-89165000D01*
X142840000Y-82815000D02*
G75*
G03*
X140300000Y-85355000I1J-2540001D01*
G01*
X146650000Y-87259999D02*
G75*
G03*
X144185838Y-89183960I0J-2540000D01*
G01*
X274361000Y-51165000D02*
X273980000Y-51165000D01*
X285410000Y-48244000D02*
X285410000Y-49260000D01*
X285410000Y-44815000D02*
X285410000Y-45196000D01*
X273980000Y-50784000D02*
X273980000Y-51165000D01*
X273980000Y-47355000D02*
X273980000Y-47736000D01*
X277865838Y-51165000D02*
X276139000Y-51165000D01*
X276520000Y-44815000D02*
X285410000Y-44815000D01*
X285410000Y-49260000D02*
X280330000Y-49260000D01*
X276520000Y-44815000D02*
G75*
G03*
X273980000Y-47355000I1J-2540001D01*
G01*
X280330000Y-49259999D02*
G75*
G03*
X277865838Y-51183960I0J-2540000D01*
G01*
X102300000Y-85355000D02*
X102300000Y-85736000D01*
X102300000Y-88784000D02*
X102300000Y-89165000D01*
X102681000Y-89165000D02*
X102300000Y-89165000D01*
X106185838Y-89165000D02*
X104459000Y-89165000D01*
X113730000Y-86244000D02*
X113730000Y-87260000D01*
X113730000Y-82815000D02*
X113730000Y-83196000D01*
X104840000Y-82815000D02*
X113730000Y-82815000D01*
X113730000Y-87260000D02*
X108650000Y-87260000D01*
X104840000Y-82815000D02*
G75*
G03*
X102300000Y-85355000I1J-2540001D01*
G01*
X108650000Y-87259999D02*
G75*
G03*
X106185838Y-89183960I0J-2540000D01*
G01*
X277865838Y-108165000D02*
X276139000Y-108165000D01*
X285410000Y-105244000D02*
X285410000Y-106260000D01*
X273980000Y-107784000D02*
X273980000Y-108165000D01*
X274361000Y-108165000D02*
X273980000Y-108165000D01*
X276520000Y-101815000D02*
X285410000Y-101815000D01*
X285410000Y-101815000D02*
X285410000Y-102196000D01*
X273980000Y-104355000D02*
X273980000Y-104736000D01*
X285410000Y-106260000D02*
X280330000Y-106260000D01*
X280330000Y-106259999D02*
G75*
G03*
X277865838Y-108183960I0J-2540000D01*
G01*
X276520000Y-101815000D02*
G75*
G03*
X273980000Y-104355000I1J-2540001D01*
G01*
X285410000Y-120815000D02*
X285410000Y-121196000D01*
X285410000Y-124244000D02*
X285410000Y-125260000D01*
X274361000Y-127165000D02*
X273980000Y-127165000D01*
X273980000Y-126784000D02*
X273980000Y-127165000D01*
X285410000Y-125260000D02*
X280330000Y-125260000D01*
X276520000Y-120815000D02*
X285410000Y-120815000D01*
X273980000Y-123355000D02*
X273980000Y-123736000D01*
X277865838Y-127165000D02*
X276139000Y-127165000D01*
X276520000Y-120815000D02*
G75*
G03*
X273980000Y-123355000I1J-2540001D01*
G01*
X280330000Y-125259999D02*
G75*
G03*
X277865838Y-127183960I0J-2540000D01*
G01*
X342330000Y-48244000D02*
X342330000Y-49260000D01*
X334785838Y-51165000D02*
X333059000Y-51165000D01*
X342330000Y-44815000D02*
X342330000Y-45196000D01*
X342330000Y-49260000D02*
X337250000Y-49260000D01*
X330900000Y-50784000D02*
X330900000Y-51165000D01*
X330900000Y-47355000D02*
X330900000Y-47736000D01*
X331281000Y-51165000D02*
X330900000Y-51165000D01*
X333440000Y-44815000D02*
X342330000Y-44815000D01*
X337250000Y-49259999D02*
G75*
G03*
X334785838Y-51183960I0J-2540000D01*
G01*
X333440000Y-44815000D02*
G75*
G03*
X330900000Y-47355000I1J-2540001D01*
G01*
X94730000Y-86244000D02*
X94730000Y-87260000D01*
X83300000Y-88784000D02*
X83300000Y-89165000D01*
X85840000Y-82815000D02*
X94730000Y-82815000D01*
X83681000Y-89165000D02*
X83300000Y-89165000D01*
X87185838Y-89165000D02*
X85459000Y-89165000D01*
X94730000Y-87260000D02*
X89650000Y-87260000D01*
X83300000Y-85355000D02*
X83300000Y-85736000D01*
X94730000Y-82815000D02*
X94730000Y-83196000D01*
X89650000Y-87259999D02*
G75*
G03*
X87185838Y-89183960I0J-2540000D01*
G01*
X85840000Y-82815000D02*
G75*
G03*
X83300000Y-85355000I1J-2540001D01*
G01*
X334785838Y-108165000D02*
X333059000Y-108165000D01*
X342330000Y-101815000D02*
X342330000Y-102196000D01*
X330900000Y-107784000D02*
X330900000Y-108165000D01*
X342330000Y-106260000D02*
X337250000Y-106260000D01*
X333440000Y-101815000D02*
X342330000Y-101815000D01*
X342330000Y-105244000D02*
X342330000Y-106260000D01*
X330900000Y-104355000D02*
X330900000Y-104736000D01*
X331281000Y-108165000D02*
X330900000Y-108165000D01*
X333440000Y-101815000D02*
G75*
G03*
X330900000Y-104355000I1J-2540001D01*
G01*
X337250000Y-106259999D02*
G75*
G03*
X334785838Y-108183960I0J-2540000D01*
G01*
X239865838Y-108165000D02*
X238139000Y-108165000D01*
X247410000Y-101815000D02*
X247410000Y-102196000D01*
X247410000Y-106260000D02*
X242330000Y-106260000D01*
X235980000Y-107784000D02*
X235980000Y-108165000D01*
X236361000Y-108165000D02*
X235980000Y-108165000D01*
X235980000Y-104355000D02*
X235980000Y-104736000D01*
X247410000Y-105244000D02*
X247410000Y-106260000D01*
X238520000Y-101815000D02*
X247410000Y-101815000D01*
X238520000Y-101815000D02*
G75*
G03*
X235980000Y-104355000I1J-2540001D01*
G01*
X242330000Y-106259999D02*
G75*
G03*
X239865838Y-108183960I0J-2540000D01*
G01*
X159681000Y-51165000D02*
X159300000Y-51165000D01*
X159300000Y-50784000D02*
X159300000Y-51165000D01*
X170730000Y-48244000D02*
X170730000Y-49260000D01*
X170730000Y-49260000D02*
X165650000Y-49260000D01*
X170730000Y-44815000D02*
X170730000Y-45196000D01*
X163185838Y-51165000D02*
X161459000Y-51165000D01*
X159300000Y-47355000D02*
X159300000Y-47736000D01*
X161840000Y-44815000D02*
X170730000Y-44815000D01*
X165650000Y-49259999D02*
G75*
G03*
X163185838Y-51183960I0J-2540000D01*
G01*
X161840000Y-44815000D02*
G75*
G03*
X159300000Y-47355000I1J-2540001D01*
G01*
X266410000Y-48244000D02*
X266410000Y-49260000D01*
X255361000Y-51165000D02*
X254980000Y-51165000D01*
X266410000Y-44815000D02*
X266410000Y-45196000D01*
X254980000Y-47355000D02*
X254980000Y-47736000D01*
X254980000Y-50784000D02*
X254980000Y-51165000D01*
X257520000Y-44815000D02*
X266410000Y-44815000D01*
X266410000Y-49260000D02*
X261330000Y-49260000D01*
X258865838Y-51165000D02*
X257139000Y-51165000D01*
X257520000Y-44815000D02*
G75*
G03*
X254980000Y-47355000I1J-2540001D01*
G01*
X261330000Y-49259999D02*
G75*
G03*
X258865838Y-51183960I0J-2540000D01*
G01*
X140681000Y-127165000D02*
X140300000Y-127165000D01*
X151730000Y-120815000D02*
X151730000Y-121196000D01*
X140300000Y-123355000D02*
X140300000Y-123736000D01*
X151730000Y-125260000D02*
X146650000Y-125260000D01*
X151730000Y-124244000D02*
X151730000Y-125260000D01*
X142840000Y-120815000D02*
X151730000Y-120815000D01*
X144185838Y-127165000D02*
X142459000Y-127165000D01*
X140300000Y-126784000D02*
X140300000Y-127165000D01*
X146650000Y-125259999D02*
G75*
G03*
X144185838Y-127183960I0J-2540000D01*
G01*
X142840000Y-120815000D02*
G75*
G03*
X140300000Y-123355000I1J-2540001D01*
G01*
X296865838Y-127165000D02*
X295139000Y-127165000D01*
X292980000Y-123355000D02*
X292980000Y-123736000D01*
X292980000Y-126784000D02*
X292980000Y-127165000D01*
X293361000Y-127165000D02*
X292980000Y-127165000D01*
X304410000Y-120815000D02*
X304410000Y-121196000D01*
X295520000Y-120815000D02*
X304410000Y-120815000D01*
X304410000Y-125260000D02*
X299330000Y-125260000D01*
X304410000Y-124244000D02*
X304410000Y-125260000D01*
X295520000Y-120815000D02*
G75*
G03*
X292980000Y-123355000I1J-2540001D01*
G01*
X299330000Y-125259999D02*
G75*
G03*
X296865838Y-127183960I0J-2540000D01*
G01*
X315865838Y-108165000D02*
X314139000Y-108165000D01*
X323410000Y-106260000D02*
X318330000Y-106260000D01*
X312361000Y-108165000D02*
X311980000Y-108165000D01*
X311980000Y-107784000D02*
X311980000Y-108165000D01*
X311980000Y-104355000D02*
X311980000Y-104736000D01*
X323410000Y-101815000D02*
X323410000Y-102196000D01*
X323410000Y-105244000D02*
X323410000Y-106260000D01*
X314520000Y-101815000D02*
X323410000Y-101815000D01*
X314520000Y-101815000D02*
G75*
G03*
X311980000Y-104355000I1J-2540001D01*
G01*
X318330000Y-106259999D02*
G75*
G03*
X315865838Y-108183960I0J-2540000D01*
G01*
X323410000Y-87260000D02*
X318330000Y-87260000D01*
X323410000Y-82815000D02*
X323410000Y-83196000D01*
X323410000Y-86244000D02*
X323410000Y-87260000D01*
X311980000Y-88784000D02*
X311980000Y-89165000D01*
X311980000Y-85355000D02*
X311980000Y-85736000D01*
X314520000Y-82815000D02*
X323410000Y-82815000D01*
X315865838Y-89165000D02*
X314139000Y-89165000D01*
X312361000Y-89165000D02*
X311980000Y-89165000D01*
X318330000Y-87259999D02*
G75*
G03*
X315865838Y-89183960I0J-2540000D01*
G01*
X314520000Y-82815000D02*
G75*
G03*
X311980000Y-85355000I1J-2540001D01*
G01*
X266410000Y-63815000D02*
X266410000Y-64196000D01*
X266410000Y-68260000D02*
X261330000Y-68260000D01*
X266410000Y-67244000D02*
X266410000Y-68260000D01*
X258865838Y-70165000D02*
X257139000Y-70165000D01*
X254980000Y-66355000D02*
X254980000Y-66736000D01*
X255361000Y-70165000D02*
X254980000Y-70165000D01*
X257520000Y-63815000D02*
X266410000Y-63815000D01*
X254980000Y-69784000D02*
X254980000Y-70165000D01*
X257520000Y-63815000D02*
G75*
G03*
X254980000Y-66355000I1J-2540001D01*
G01*
X261330000Y-68259999D02*
G75*
G03*
X258865838Y-70183960I0J-2540000D01*
G01*
X132730000Y-87260000D02*
X127650000Y-87260000D01*
X125185838Y-89165000D02*
X123459000Y-89165000D01*
X132730000Y-82815000D02*
X132730000Y-83196000D01*
X121681000Y-89165000D02*
X121300000Y-89165000D01*
X123840000Y-82815000D02*
X132730000Y-82815000D01*
X121300000Y-85355000D02*
X121300000Y-85736000D01*
X121300000Y-88784000D02*
X121300000Y-89165000D01*
X132730000Y-86244000D02*
X132730000Y-87260000D01*
X123840000Y-82815000D02*
G75*
G03*
X121300000Y-85355000I1J-2540001D01*
G01*
X127650000Y-87259999D02*
G75*
G03*
X125185838Y-89183960I0J-2540000D01*
G01*
X75730000Y-106260000D02*
X70650000Y-106260000D01*
X68185838Y-108165000D02*
X66459000Y-108165000D01*
X75730000Y-101815000D02*
X75730000Y-102196000D01*
X64681000Y-108165000D02*
X64300000Y-108165000D01*
X66840000Y-101815000D02*
X75730000Y-101815000D01*
X64300000Y-107784000D02*
X64300000Y-108165000D01*
X64300000Y-104355000D02*
X64300000Y-104736000D01*
X75730000Y-105244000D02*
X75730000Y-106260000D01*
X70650000Y-106259999D02*
G75*
G03*
X68185838Y-108183960I0J-2540000D01*
G01*
X66840000Y-101815000D02*
G75*
G03*
X64300000Y-104355000I1J-2540001D01*
G01*
X295520000Y-44815000D02*
X304410000Y-44815000D01*
X304410000Y-44815000D02*
X304410000Y-45196000D01*
X293361000Y-51165000D02*
X292980000Y-51165000D01*
X304410000Y-49260000D02*
X299330000Y-49260000D01*
X296865838Y-51165000D02*
X295139000Y-51165000D01*
X292980000Y-47355000D02*
X292980000Y-47736000D01*
X292980000Y-50784000D02*
X292980000Y-51165000D01*
X304410000Y-48244000D02*
X304410000Y-49260000D01*
X299330000Y-49259999D02*
G75*
G03*
X296865838Y-51183960I0J-2540000D01*
G01*
X295520000Y-44815000D02*
G75*
G03*
X292980000Y-47355000I1J-2540001D01*
G01*
X247410000Y-86244000D02*
X247410000Y-87260000D01*
X238520000Y-82815000D02*
X247410000Y-82815000D01*
X235980000Y-88784000D02*
X235980000Y-89165000D01*
X239865838Y-89165000D02*
X238139000Y-89165000D01*
X247410000Y-82815000D02*
X247410000Y-83196000D01*
X236361000Y-89165000D02*
X235980000Y-89165000D01*
X247410000Y-87260000D02*
X242330000Y-87260000D01*
X235980000Y-85355000D02*
X235980000Y-85736000D01*
X242330000Y-87259999D02*
G75*
G03*
X239865838Y-89183960I0J-2540000D01*
G01*
X238520000Y-82815000D02*
G75*
G03*
X235980000Y-85355000I1J-2540001D01*
G01*
X104840000Y-101815000D02*
X113730000Y-101815000D01*
X102300000Y-104355000D02*
X102300000Y-104736000D01*
X113730000Y-101815000D02*
X113730000Y-102196000D01*
X113730000Y-105244000D02*
X113730000Y-106260000D01*
X102681000Y-108165000D02*
X102300000Y-108165000D01*
X113730000Y-106260000D02*
X108650000Y-106260000D01*
X102300000Y-107784000D02*
X102300000Y-108165000D01*
X106185838Y-108165000D02*
X104459000Y-108165000D01*
X108650000Y-106259999D02*
G75*
G03*
X106185838Y-108183960I0J-2540000D01*
G01*
X104840000Y-101815000D02*
G75*
G03*
X102300000Y-104355000I1J-2540001D01*
G01*
X311980000Y-69784000D02*
X311980000Y-70165000D01*
X323410000Y-68260000D02*
X318330000Y-68260000D01*
X323410000Y-67244000D02*
X323410000Y-68260000D01*
X312361000Y-70165000D02*
X311980000Y-70165000D01*
X323410000Y-63815000D02*
X323410000Y-64196000D01*
X314520000Y-63815000D02*
X323410000Y-63815000D01*
X315865838Y-70165000D02*
X314139000Y-70165000D01*
X311980000Y-66355000D02*
X311980000Y-66736000D01*
X314520000Y-63815000D02*
G75*
G03*
X311980000Y-66355000I1J-2540001D01*
G01*
X318330000Y-68259999D02*
G75*
G03*
X315865838Y-70183960I0J-2540000D01*
G01*
X68185838Y-89165000D02*
X66459000Y-89165000D01*
X64300000Y-85355000D02*
X64300000Y-85736000D01*
X64681000Y-89165000D02*
X64300000Y-89165000D01*
X75730000Y-86244000D02*
X75730000Y-87260000D01*
X64300000Y-88784000D02*
X64300000Y-89165000D01*
X66840000Y-82815000D02*
X75730000Y-82815000D01*
X75730000Y-82815000D02*
X75730000Y-83196000D01*
X75730000Y-87260000D02*
X70650000Y-87260000D01*
X66840000Y-82815000D02*
G75*
G03*
X64300000Y-85355000I1J-2540001D01*
G01*
X70650000Y-87259999D02*
G75*
G03*
X68185838Y-89183960I0J-2540000D01*
G01*
X334785838Y-89165000D02*
X333059000Y-89165000D01*
X342330000Y-87260000D02*
X337250000Y-87260000D01*
X342330000Y-82815000D02*
X342330000Y-83196000D01*
X331281000Y-89165000D02*
X330900000Y-89165000D01*
X342330000Y-86244000D02*
X342330000Y-87260000D01*
X330900000Y-85355000D02*
X330900000Y-85736000D01*
X330900000Y-88784000D02*
X330900000Y-89165000D01*
X333440000Y-82815000D02*
X342330000Y-82815000D01*
X333440000Y-82815000D02*
G75*
G03*
X330900000Y-85355000I1J-2540001D01*
G01*
X337250000Y-87259999D02*
G75*
G03*
X334785838Y-89183960I0J-2540000D01*
G01*
X266410000Y-124244000D02*
X266410000Y-125260000D01*
X255361000Y-127165000D02*
X254980000Y-127165000D01*
X254980000Y-126784000D02*
X254980000Y-127165000D01*
X258865838Y-127165000D02*
X257139000Y-127165000D01*
X257520000Y-120815000D02*
X266410000Y-120815000D01*
X266410000Y-125260000D02*
X261330000Y-125260000D01*
X254980000Y-123355000D02*
X254980000Y-123736000D01*
X266410000Y-120815000D02*
X266410000Y-121196000D01*
X257520000Y-120815000D02*
G75*
G03*
X254980000Y-123355000I1J-2540001D01*
G01*
X261330000Y-125259999D02*
G75*
G03*
X258865838Y-127183960I0J-2540000D01*
G01*
X285410000Y-82815000D02*
X285410000Y-83196000D01*
X276520000Y-82815000D02*
X285410000Y-82815000D01*
X273980000Y-85355000D02*
X273980000Y-85736000D01*
X285410000Y-87260000D02*
X280330000Y-87260000D01*
X285410000Y-86244000D02*
X285410000Y-87260000D01*
X274361000Y-89165000D02*
X273980000Y-89165000D01*
X277865838Y-89165000D02*
X276139000Y-89165000D01*
X273980000Y-88784000D02*
X273980000Y-89165000D01*
X280330000Y-87259999D02*
G75*
G03*
X277865838Y-89183960I0J-2540000D01*
G01*
X276520000Y-82815000D02*
G75*
G03*
X273980000Y-85355000I1J-2540001D01*
G01*
X311980000Y-123355000D02*
X311980000Y-123736000D01*
X311980000Y-126784000D02*
X311980000Y-127165000D01*
X323410000Y-124244000D02*
X323410000Y-125260000D01*
X315865838Y-127165000D02*
X314139000Y-127165000D01*
X323410000Y-125260000D02*
X318330000Y-125260000D01*
X314520000Y-120815000D02*
X323410000Y-120815000D01*
X323410000Y-120815000D02*
X323410000Y-121196000D01*
X312361000Y-127165000D02*
X311980000Y-127165000D01*
X314520000Y-120815000D02*
G75*
G03*
X311980000Y-123355000I1J-2540001D01*
G01*
X318330000Y-125259999D02*
G75*
G03*
X315865838Y-127183960I0J-2540000D01*
G01*
X102300000Y-66355000D02*
X102300000Y-66736000D01*
X102300000Y-69784000D02*
X102300000Y-70165000D01*
X113730000Y-67244000D02*
X113730000Y-68260000D01*
X106185838Y-70165000D02*
X104459000Y-70165000D01*
X104840000Y-63815000D02*
X113730000Y-63815000D01*
X102681000Y-70165000D02*
X102300000Y-70165000D01*
X113730000Y-68260000D02*
X108650000Y-68260000D01*
X113730000Y-63815000D02*
X113730000Y-64196000D01*
X104840000Y-63815000D02*
G75*
G03*
X102300000Y-66355000I1J-2540001D01*
G01*
X108650000Y-68259999D02*
G75*
G03*
X106185838Y-70183960I0J-2540000D01*
G01*
X94730000Y-48244000D02*
X94730000Y-49260000D01*
X87185838Y-51165000D02*
X85459000Y-51165000D01*
X83681000Y-51165000D02*
X83300000Y-51165000D01*
X85840000Y-44815000D02*
X94730000Y-44815000D01*
X83300000Y-50784000D02*
X83300000Y-51165000D01*
X94730000Y-49260000D02*
X89650000Y-49260000D01*
X94730000Y-44815000D02*
X94730000Y-45196000D01*
X83300000Y-47355000D02*
X83300000Y-47736000D01*
X85840000Y-44815000D02*
G75*
G03*
X83300000Y-47355000I1J-2540001D01*
G01*
X89650000Y-49259999D02*
G75*
G03*
X87185838Y-51183960I0J-2540000D01*
G01*
X144185838Y-51165000D02*
X142459000Y-51165000D01*
X142840000Y-44815000D02*
X151730000Y-44815000D01*
X151730000Y-44815000D02*
X151730000Y-45196000D01*
X140300000Y-47355000D02*
X140300000Y-47736000D01*
X140681000Y-51165000D02*
X140300000Y-51165000D01*
X140300000Y-50784000D02*
X140300000Y-51165000D01*
X151730000Y-48244000D02*
X151730000Y-49260000D01*
X151730000Y-49260000D02*
X146650000Y-49260000D01*
X146650000Y-49259999D02*
G75*
G03*
X144185838Y-51183960I0J-2540000D01*
G01*
X142840000Y-44815000D02*
G75*
G03*
X140300000Y-47355000I1J-2540001D01*
G01*
X296865838Y-89165000D02*
X295139000Y-89165000D01*
X304410000Y-86244000D02*
X304410000Y-87260000D01*
X292980000Y-88784000D02*
X292980000Y-89165000D01*
X304410000Y-87260000D02*
X299330000Y-87260000D01*
X295520000Y-82815000D02*
X304410000Y-82815000D01*
X293361000Y-89165000D02*
X292980000Y-89165000D01*
X304410000Y-82815000D02*
X304410000Y-83196000D01*
X292980000Y-85355000D02*
X292980000Y-85736000D01*
X299330000Y-87259999D02*
G75*
G03*
X296865838Y-89183960I0J-2540000D01*
G01*
X295520000Y-82815000D02*
G75*
G03*
X292980000Y-85355000I1J-2540001D01*
G01*
X247410000Y-68260000D02*
X242330000Y-68260000D01*
X247410000Y-67244000D02*
X247410000Y-68260000D01*
X238520000Y-63815000D02*
X247410000Y-63815000D01*
X247410000Y-63815000D02*
X247410000Y-64196000D01*
X235980000Y-69784000D02*
X235980000Y-70165000D01*
X236361000Y-70165000D02*
X235980000Y-70165000D01*
X239865838Y-70165000D02*
X238139000Y-70165000D01*
X235980000Y-66355000D02*
X235980000Y-66736000D01*
X242330000Y-68259999D02*
G75*
G03*
X239865838Y-70183960I0J-2540000D01*
G01*
X238520000Y-63815000D02*
G75*
G03*
X235980000Y-66355000I1J-2540001D01*
G01*
X75730000Y-125260000D02*
X70650000Y-125260000D01*
X68185838Y-127165000D02*
X66459000Y-127165000D01*
X64681000Y-127165000D02*
X64300000Y-127165000D01*
X64300000Y-123355000D02*
X64300000Y-123736000D01*
X66840000Y-120815000D02*
X75730000Y-120815000D01*
X64300000Y-126784000D02*
X64300000Y-127165000D01*
X75730000Y-124244000D02*
X75730000Y-125260000D01*
X75730000Y-120815000D02*
X75730000Y-121196000D01*
X70650000Y-125259999D02*
G75*
G03*
X68185838Y-127183960I0J-2540000D01*
G01*
X66840000Y-120815000D02*
G75*
G03*
X64300000Y-123355000I1J-2540001D01*
G01*
X266410000Y-106260000D02*
X261330000Y-106260000D01*
X266410000Y-105244000D02*
X266410000Y-106260000D01*
X257520000Y-101815000D02*
X266410000Y-101815000D01*
X266410000Y-101815000D02*
X266410000Y-102196000D01*
X258865838Y-108165000D02*
X257139000Y-108165000D01*
X254980000Y-104355000D02*
X254980000Y-104736000D01*
X255361000Y-108165000D02*
X254980000Y-108165000D01*
X254980000Y-107784000D02*
X254980000Y-108165000D01*
X257520000Y-101815000D02*
G75*
G03*
X254980000Y-104355000I1J-2540001D01*
G01*
X261330000Y-106259999D02*
G75*
G03*
X258865838Y-108183960I0J-2540000D01*
G01*
X292980000Y-107784000D02*
X292980000Y-108165000D01*
X304410000Y-101815000D02*
X304410000Y-102196000D01*
X295520000Y-101815000D02*
X304410000Y-101815000D01*
X292980000Y-104355000D02*
X292980000Y-104736000D01*
X293361000Y-108165000D02*
X292980000Y-108165000D01*
X304410000Y-106260000D02*
X299330000Y-106260000D01*
X296865838Y-108165000D02*
X295139000Y-108165000D01*
X304410000Y-105244000D02*
X304410000Y-106260000D01*
X295520000Y-101815000D02*
G75*
G03*
X292980000Y-104355000I1J-2540001D01*
G01*
X299330000Y-106259999D02*
G75*
G03*
X296865838Y-108183960I0J-2540000D01*
G01*
X121300000Y-123355000D02*
X121300000Y-123736000D01*
X121681000Y-127165000D02*
X121300000Y-127165000D01*
X132730000Y-125260000D02*
X127650000Y-125260000D01*
X132730000Y-120815000D02*
X132730000Y-121196000D01*
X121300000Y-126784000D02*
X121300000Y-127165000D01*
X125185838Y-127165000D02*
X123459000Y-127165000D01*
X123840000Y-120815000D02*
X132730000Y-120815000D01*
X132730000Y-124244000D02*
X132730000Y-125260000D01*
X127650000Y-125259999D02*
G75*
G03*
X125185838Y-127183960I0J-2540000D01*
G01*
X123840000Y-120815000D02*
G75*
G03*
X121300000Y-123355000I1J-2540001D01*
G01*
X94730000Y-67244000D02*
X94730000Y-68260000D01*
X83681000Y-70165000D02*
X83300000Y-70165000D01*
X83300000Y-69784000D02*
X83300000Y-70165000D01*
X85840000Y-63815000D02*
X94730000Y-63815000D01*
X87185838Y-70165000D02*
X85459000Y-70165000D01*
X83300000Y-66355000D02*
X83300000Y-66736000D01*
X94730000Y-63815000D02*
X94730000Y-64196000D01*
X94730000Y-68260000D02*
X89650000Y-68260000D01*
X89650000Y-68259999D02*
G75*
G03*
X87185838Y-70183960I0J-2540000D01*
G01*
X85840000Y-63815000D02*
G75*
G03*
X83300000Y-66355000I1J-2540001D01*
G01*
X170730000Y-106260000D02*
X165650000Y-106260000D01*
X170730000Y-105244000D02*
X170730000Y-106260000D01*
X159300000Y-107784000D02*
X159300000Y-108165000D01*
X161840000Y-101815000D02*
X170730000Y-101815000D01*
X159300000Y-104355000D02*
X159300000Y-104736000D01*
X163185838Y-108165000D02*
X161459000Y-108165000D01*
X159681000Y-108165000D02*
X159300000Y-108165000D01*
X170730000Y-101815000D02*
X170730000Y-102196000D01*
X161840000Y-101815000D02*
G75*
G03*
X159300000Y-104355000I1J-2540001D01*
G01*
X165650000Y-106259999D02*
G75*
G03*
X163185838Y-108183960I0J-2540000D01*
G01*
X334785838Y-70165000D02*
X333059000Y-70165000D01*
X331281000Y-70165000D02*
X330900000Y-70165000D01*
X342330000Y-68260000D02*
X337250000Y-68260000D01*
X342330000Y-67244000D02*
X342330000Y-68260000D01*
X333440000Y-63815000D02*
X342330000Y-63815000D01*
X330900000Y-66355000D02*
X330900000Y-66736000D01*
X330900000Y-69784000D02*
X330900000Y-70165000D01*
X342330000Y-63815000D02*
X342330000Y-64196000D01*
X333440000Y-63815000D02*
G75*
G03*
X330900000Y-66355000I1J-2540001D01*
G01*
X337250000Y-68259999D02*
G75*
G03*
X334785838Y-70183960I0J-2540000D01*
G01*
X83300000Y-123355000D02*
X83300000Y-123736000D01*
X94730000Y-120815000D02*
X94730000Y-121196000D01*
X83300000Y-126784000D02*
X83300000Y-127165000D01*
X94730000Y-124244000D02*
X94730000Y-125260000D01*
X85840000Y-120815000D02*
X94730000Y-120815000D01*
X94730000Y-125260000D02*
X89650000Y-125260000D01*
X83681000Y-127165000D02*
X83300000Y-127165000D01*
X87185838Y-127165000D02*
X85459000Y-127165000D01*
X85840000Y-120815000D02*
G75*
G03*
X83300000Y-123355000I1J-2540001D01*
G01*
X89650000Y-125259999D02*
G75*
G03*
X87185838Y-127183960I0J-2540000D01*
G01*
X273980000Y-69784000D02*
X273980000Y-70165000D01*
X274361000Y-70165000D02*
X273980000Y-70165000D01*
X276520000Y-63815000D02*
X285410000Y-63815000D01*
X285410000Y-68260000D02*
X280330000Y-68260000D01*
X273980000Y-66355000D02*
X273980000Y-66736000D01*
X277865838Y-70165000D02*
X276139000Y-70165000D01*
X285410000Y-63815000D02*
X285410000Y-64196000D01*
X285410000Y-67244000D02*
X285410000Y-68260000D01*
X276520000Y-63815000D02*
G75*
G03*
X273980000Y-66355000I1J-2540001D01*
G01*
X280330000Y-68259999D02*
G75*
G03*
X277865838Y-70183960I0J-2540000D01*
G01*
X159681000Y-70165000D02*
X159300000Y-70165000D01*
X170730000Y-67244000D02*
X170730000Y-68260000D01*
X159300000Y-69784000D02*
X159300000Y-70165000D01*
X161840000Y-63815000D02*
X170730000Y-63815000D01*
X170730000Y-63815000D02*
X170730000Y-64196000D01*
X159300000Y-66355000D02*
X159300000Y-66736000D01*
X163185838Y-70165000D02*
X161459000Y-70165000D01*
X170730000Y-68260000D02*
X165650000Y-68260000D01*
X161840000Y-63815000D02*
G75*
G03*
X159300000Y-66355000I1J-2540001D01*
G01*
X165650000Y-68259999D02*
G75*
G03*
X163185838Y-70183960I0J-2540000D01*
G01*
X151730000Y-105244000D02*
X151730000Y-106260000D01*
X140681000Y-108165000D02*
X140300000Y-108165000D01*
X144185838Y-108165000D02*
X142459000Y-108165000D01*
X151730000Y-101815000D02*
X151730000Y-102196000D01*
X151730000Y-106260000D02*
X146650000Y-106260000D01*
X140300000Y-104355000D02*
X140300000Y-104736000D01*
X140300000Y-107784000D02*
X140300000Y-108165000D01*
X142840000Y-101815000D02*
X151730000Y-101815000D01*
X146650000Y-106259999D02*
G75*
G03*
X144185838Y-108183960I0J-2540000D01*
G01*
X142840000Y-101815000D02*
G75*
G03*
X140300000Y-104355000I1J-2540001D01*
G01*
X342330000Y-125260000D02*
X337250000Y-125260000D01*
X333440000Y-120815000D02*
X342330000Y-120815000D01*
X331281000Y-127165000D02*
X330900000Y-127165000D01*
X330900000Y-126784000D02*
X330900000Y-127165000D01*
X334785838Y-127165000D02*
X333059000Y-127165000D01*
X330900000Y-123355000D02*
X330900000Y-123736000D01*
X342330000Y-124244000D02*
X342330000Y-125260000D01*
X342330000Y-120815000D02*
X342330000Y-121196000D01*
X333440000Y-120815000D02*
G75*
G03*
X330900000Y-123355000I1J-2540001D01*
G01*
X337250000Y-125259999D02*
G75*
G03*
X334785838Y-127183960I0J-2540000D01*
G01*
X170730000Y-120815000D02*
X170730000Y-121196000D01*
X163185838Y-127165000D02*
X161459000Y-127165000D01*
X170730000Y-124244000D02*
X170730000Y-125260000D01*
X161840000Y-120815000D02*
X170730000Y-120815000D01*
X170730000Y-125260000D02*
X165650000Y-125260000D01*
X159681000Y-127165000D02*
X159300000Y-127165000D01*
X159300000Y-126784000D02*
X159300000Y-127165000D01*
X159300000Y-123355000D02*
X159300000Y-123736000D01*
X161840000Y-120815000D02*
G75*
G03*
X159300000Y-123355000I1J-2540001D01*
G01*
X165650000Y-125259999D02*
G75*
G03*
X163185838Y-127183960I0J-2540000D01*
G01*
X236361000Y-51165000D02*
X235980000Y-51165000D01*
X239865838Y-51165000D02*
X238139000Y-51165000D01*
X247410000Y-48244000D02*
X247410000Y-49260000D01*
X238520000Y-44815000D02*
X247410000Y-44815000D01*
X235980000Y-50784000D02*
X235980000Y-51165000D01*
X235980000Y-47355000D02*
X235980000Y-47736000D01*
X247410000Y-44815000D02*
X247410000Y-45196000D01*
X247410000Y-49260000D02*
X242330000Y-49260000D01*
X242330000Y-49259999D02*
G75*
G03*
X239865838Y-51183960I0J-2540000D01*
G01*
X238520000Y-44815000D02*
G75*
G03*
X235980000Y-47355000I1J-2540001D01*
G01*
X75730000Y-48244000D02*
X75730000Y-49260000D01*
X75730000Y-44815000D02*
X75730000Y-45196000D01*
X66840000Y-44815000D02*
X75730000Y-44815000D01*
X64300000Y-50784000D02*
X64300000Y-51165000D01*
X64681000Y-51165000D02*
X64300000Y-51165000D01*
X64300000Y-47355000D02*
X64300000Y-47736000D01*
X68185838Y-51165000D02*
X66459000Y-51165000D01*
X75730000Y-49260000D02*
X70650000Y-49260000D01*
X70650000Y-49259999D02*
G75*
G03*
X68185838Y-51183960I0J-2540000D01*
G01*
X66840000Y-44815000D02*
G75*
G03*
X64300000Y-47355000I1J-2540001D01*
G01*
X151730000Y-68260000D02*
X146650000Y-68260000D01*
X151730000Y-63815000D02*
X151730000Y-64196000D01*
X140300000Y-66355000D02*
X140300000Y-66736000D01*
X144185838Y-70165000D02*
X142459000Y-70165000D01*
X140681000Y-70165000D02*
X140300000Y-70165000D01*
X140300000Y-69784000D02*
X140300000Y-70165000D01*
X142840000Y-63815000D02*
X151730000Y-63815000D01*
X151730000Y-67244000D02*
X151730000Y-68260000D01*
X142840000Y-63815000D02*
G75*
G03*
X140300000Y-66355000I1J-2540001D01*
G01*
X146650000Y-68259999D02*
G75*
G03*
X144185838Y-70183960I0J-2540000D01*
G01*
X64300000Y-69784000D02*
X64300000Y-70165000D01*
X75730000Y-63815000D02*
X75730000Y-64196000D01*
X75730000Y-68260000D02*
X70650000Y-68260000D01*
X68185838Y-70165000D02*
X66459000Y-70165000D01*
X75730000Y-67244000D02*
X75730000Y-68260000D01*
X64300000Y-66355000D02*
X64300000Y-66736000D01*
X66840000Y-63815000D02*
X75730000Y-63815000D01*
X64681000Y-70165000D02*
X64300000Y-70165000D01*
X66840000Y-63815000D02*
G75*
G03*
X64300000Y-66355000I1J-2540001D01*
G01*
X70650000Y-68259999D02*
G75*
G03*
X68185838Y-70183960I0J-2540000D01*
G01*
D12*
X186690000Y-62590000D02*
X186690000Y-63850000D01*
X192700000Y-62590000D02*
X186690000Y-62590000D01*
X190450000Y-69410000D02*
X186690000Y-69410000D01*
X186690000Y-69410000D02*
X186690000Y-68150000D01*
X309535000Y-62872936D02*
X309535000Y-63327064D01*
X308065000Y-62872936D02*
X308065000Y-63327064D01*
X81500000Y-57400000D02*
X81500000Y-59250000D01*
X82700000Y-59250000D02*
X81500000Y-59250000D01*
X82700000Y-57400000D02*
X82700000Y-59250000D01*
X156935000Y-62772936D02*
X156935000Y-63227064D01*
X155465000Y-62772936D02*
X155465000Y-63227064D01*
X181772936Y-127135000D02*
X182227064Y-127135000D01*
X181772936Y-125665000D02*
X182227064Y-125665000D01*
X158700000Y-114400000D02*
X158700000Y-116250000D01*
X158700000Y-116250000D02*
X157500000Y-116250000D01*
X157500000Y-114400000D02*
X157500000Y-116250000D01*
X292400000Y-57400000D02*
X292400000Y-59250000D01*
X292400000Y-59250000D02*
X291200000Y-59250000D01*
X291200000Y-57400000D02*
X291200000Y-59250000D01*
X208660000Y-104300000D02*
X208660000Y-102350000D01*
X198540000Y-104300000D02*
X198540000Y-106250000D01*
X208660000Y-104300000D02*
X208660000Y-106250000D01*
X198540000Y-104300000D02*
X198540000Y-100850000D01*
X120700000Y-95500000D02*
X120700000Y-97350000D01*
X120700000Y-97350000D02*
X119500000Y-97350000D01*
X119500000Y-95500000D02*
X119500000Y-97350000D01*
X81600000Y-76400000D02*
X81600000Y-78250000D01*
X82800000Y-76400000D02*
X82800000Y-78250000D01*
X82800000Y-78250000D02*
X81600000Y-78250000D01*
X157500000Y-76400000D02*
X157500000Y-78250000D01*
X158700000Y-76400000D02*
X158700000Y-78250000D01*
X158700000Y-78250000D02*
X157500000Y-78250000D01*
X292400000Y-76475000D02*
X292400000Y-78325000D01*
X292400000Y-78325000D02*
X291200000Y-78325000D01*
X291200000Y-76475000D02*
X291200000Y-78325000D01*
X96500000Y-117600000D02*
X96500000Y-119450000D01*
X96500000Y-119450000D02*
X95300000Y-119450000D01*
X95300000Y-117600000D02*
X95300000Y-119450000D01*
X179335000Y-118827064D02*
X179335000Y-118372936D01*
X177865000Y-118827064D02*
X177865000Y-118372936D01*
X157600000Y-95500000D02*
X157600000Y-97350000D01*
X158800000Y-95500000D02*
X158800000Y-97350000D01*
X158800000Y-97350000D02*
X157600000Y-97350000D01*
X311400000Y-59300000D02*
X310200000Y-59300000D01*
X311400000Y-57450000D02*
X311400000Y-59300000D01*
X310200000Y-57450000D02*
X310200000Y-59300000D01*
X157600000Y-130300000D02*
X157600000Y-132150000D01*
X158800000Y-132150000D02*
X157600000Y-132150000D01*
X158800000Y-130300000D02*
X158800000Y-132150000D01*
X101700000Y-76400000D02*
X101700000Y-78250000D01*
X100500000Y-76400000D02*
X100500000Y-78250000D01*
X101700000Y-78250000D02*
X100500000Y-78250000D01*
X82700000Y-114400000D02*
X82700000Y-116250000D01*
X82700000Y-116250000D02*
X81500000Y-116250000D01*
X81500000Y-114400000D02*
X81500000Y-116250000D01*
X101700000Y-116250000D02*
X100500000Y-116250000D01*
X100500000Y-114400000D02*
X100500000Y-116250000D01*
X101700000Y-114400000D02*
X101700000Y-116250000D01*
X139700000Y-116250000D02*
X138500000Y-116250000D01*
X139700000Y-114400000D02*
X139700000Y-116250000D01*
X138500000Y-114400000D02*
X138500000Y-116250000D01*
X201090000Y-48912893D02*
X201090000Y-45582893D01*
X206550000Y-44519340D02*
X206300000Y-44872893D01*
X206840000Y-50302893D02*
X206340000Y-50302893D01*
X206300000Y-44872893D02*
X206050000Y-44519340D01*
X202660000Y-50302893D02*
X202160000Y-50302893D01*
X206040000Y-49802893D02*
X202960000Y-49802893D01*
X201090000Y-45582893D02*
X202140000Y-45582893D01*
X206340000Y-50302893D02*
X206040000Y-49802893D01*
X206860000Y-45582893D02*
X206860000Y-45372893D01*
X207910000Y-45582893D02*
X206860000Y-45582893D01*
X207910000Y-48912893D02*
X207910000Y-45582893D01*
X202960000Y-49802893D02*
X202660000Y-50302893D01*
X206050000Y-44519340D02*
X206550000Y-44519340D01*
X235400000Y-78350000D02*
X234200000Y-78350000D01*
X234200000Y-76500000D02*
X234200000Y-78350000D01*
X235400000Y-76500000D02*
X235400000Y-78350000D01*
X286000000Y-117600000D02*
X286000000Y-119450000D01*
X287200000Y-117600000D02*
X287200000Y-119450000D01*
X287200000Y-119450000D02*
X286000000Y-119450000D01*
X218212936Y-93753000D02*
X218667064Y-93753000D01*
X218212936Y-95223000D02*
X218667064Y-95223000D01*
X234200000Y-95400000D02*
X234200000Y-97250000D01*
X235400000Y-97250000D02*
X234200000Y-97250000D01*
X235400000Y-95400000D02*
X235400000Y-97250000D01*
X327065000Y-62685436D02*
X327065000Y-63139564D01*
X328535000Y-62685436D02*
X328535000Y-63139564D01*
X311400000Y-78300000D02*
X310200000Y-78300000D01*
X311400000Y-76450000D02*
X311400000Y-78300000D01*
X310200000Y-76450000D02*
X310200000Y-78300000D01*
X292400000Y-114400000D02*
X292400000Y-116250000D01*
X291200000Y-114400000D02*
X291200000Y-116250000D01*
X292400000Y-116250000D02*
X291200000Y-116250000D01*
X120700000Y-76400000D02*
X120700000Y-78250000D01*
X120700000Y-78250000D02*
X119500000Y-78250000D01*
X119500000Y-76400000D02*
X119500000Y-78250000D01*
X157500000Y-57400000D02*
X157500000Y-59250000D01*
X158700000Y-59250000D02*
X157500000Y-59250000D01*
X158700000Y-57400000D02*
X158700000Y-59250000D01*
X81600000Y-133500000D02*
X81600000Y-135350000D01*
X82800000Y-135350000D02*
X81600000Y-135350000D01*
X82800000Y-133500000D02*
X82800000Y-135350000D01*
X119600000Y-57400000D02*
X119600000Y-59250000D01*
X120800000Y-59250000D02*
X119600000Y-59250000D01*
X120800000Y-57400000D02*
X120800000Y-59250000D01*
X234200000Y-133400000D02*
X234200000Y-135250000D01*
X235400000Y-133400000D02*
X235400000Y-135250000D01*
X235400000Y-135250000D02*
X234200000Y-135250000D01*
X234150000Y-57400000D02*
X234150000Y-59250000D01*
X235350000Y-59250000D02*
X234150000Y-59250000D01*
X235350000Y-57400000D02*
X235350000Y-59250000D01*
X204875000Y-116225000D02*
X208325000Y-116225000D01*
X204875000Y-125095000D02*
X202925000Y-125095000D01*
X204875000Y-125095000D02*
X206825000Y-125095000D01*
X204875000Y-116225000D02*
X202925000Y-116225000D01*
X253200000Y-95400000D02*
X253200000Y-97250000D01*
X254400000Y-97250000D02*
X253200000Y-97250000D01*
X254400000Y-95400000D02*
X254400000Y-97250000D01*
X62600000Y-95500000D02*
X62600000Y-97350000D01*
X63800000Y-95500000D02*
X63800000Y-97350000D01*
X63800000Y-97350000D02*
X62600000Y-97350000D01*
X253200000Y-76500000D02*
X253200000Y-78350000D01*
X254400000Y-78350000D02*
X253200000Y-78350000D01*
X254400000Y-76500000D02*
X254400000Y-78350000D01*
X254400000Y-116250000D02*
X253200000Y-116250000D01*
X254400000Y-114400000D02*
X254400000Y-116250000D01*
X253200000Y-114400000D02*
X253200000Y-116250000D01*
X139700000Y-95400000D02*
X139700000Y-97250000D01*
X138500000Y-95400000D02*
X138500000Y-97250000D01*
X139700000Y-97250000D02*
X138500000Y-97250000D01*
X211862936Y-93753000D02*
X212317064Y-93753000D01*
X211862936Y-95223000D02*
X212317064Y-95223000D01*
X273400000Y-135250000D02*
X272200000Y-135250000D01*
X272200000Y-133400000D02*
X272200000Y-135250000D01*
X273400000Y-133400000D02*
X273400000Y-135250000D01*
X325200000Y-119450000D02*
X324000000Y-119450000D01*
X324000000Y-117600000D02*
X324000000Y-119450000D01*
X325200000Y-117600000D02*
X325200000Y-119450000D01*
X272150000Y-57400000D02*
X272150000Y-59250000D01*
X273350000Y-59250000D02*
X272150000Y-59250000D01*
X273350000Y-57400000D02*
X273350000Y-59250000D01*
X292400000Y-97250000D02*
X291200000Y-97250000D01*
X292400000Y-95400000D02*
X292400000Y-97250000D01*
X291200000Y-95400000D02*
X291200000Y-97250000D01*
X120700000Y-114400000D02*
X120700000Y-116250000D01*
X120700000Y-116250000D02*
X119500000Y-116250000D01*
X119500000Y-114400000D02*
X119500000Y-116250000D01*
X311400000Y-135350000D02*
X310200000Y-135350000D01*
X311400000Y-133500000D02*
X311400000Y-135350000D01*
X310200000Y-133500000D02*
X310200000Y-135350000D01*
X115500000Y-117600000D02*
X115500000Y-119450000D01*
X115500000Y-119450000D02*
X114300000Y-119450000D01*
X114300000Y-117600000D02*
X114300000Y-119450000D01*
X329100000Y-57400000D02*
X329100000Y-59250000D01*
X330300000Y-57400000D02*
X330300000Y-59250000D01*
X330300000Y-59250000D02*
X329100000Y-59250000D01*
X330300000Y-133400000D02*
X330300000Y-135250000D01*
X330300000Y-135250000D02*
X329100000Y-135250000D01*
X329100000Y-133400000D02*
X329100000Y-135250000D01*
X235400000Y-116350000D02*
X234200000Y-116350000D01*
X234200000Y-114500000D02*
X234200000Y-116350000D01*
X235400000Y-114500000D02*
X235400000Y-116350000D01*
X253200000Y-57400000D02*
X253200000Y-59250000D01*
X254400000Y-57400000D02*
X254400000Y-59250000D01*
X254400000Y-59250000D02*
X253200000Y-59250000D01*
X330400000Y-78250000D02*
X329200000Y-78250000D01*
X329200000Y-76400000D02*
X329200000Y-78250000D01*
X330400000Y-76400000D02*
X330400000Y-78250000D01*
X330300000Y-97250000D02*
X329100000Y-97250000D01*
X329100000Y-95400000D02*
X329100000Y-97250000D01*
X330300000Y-95400000D02*
X330300000Y-97250000D01*
X311400000Y-116250000D02*
X310200000Y-116250000D01*
X310200000Y-114400000D02*
X310200000Y-116250000D01*
X311400000Y-114400000D02*
X311400000Y-116250000D01*
X199535000Y-122062936D02*
X199535000Y-122517064D01*
X198065000Y-122062936D02*
X198065000Y-122517064D01*
X62600000Y-133500000D02*
X62600000Y-135350000D01*
X63800000Y-135350000D02*
X62600000Y-135350000D01*
X63800000Y-133500000D02*
X63800000Y-135350000D01*
X82800000Y-97250000D02*
X81600000Y-97250000D01*
X82800000Y-95400000D02*
X82800000Y-97250000D01*
X81600000Y-95400000D02*
X81600000Y-97250000D01*
X171400000Y-117600000D02*
X171400000Y-119450000D01*
X172600000Y-119450000D02*
X171400000Y-119450000D01*
X172600000Y-117600000D02*
X172600000Y-119450000D01*
X344100000Y-117600000D02*
X344100000Y-119450000D01*
X342900000Y-117600000D02*
X342900000Y-119450000D01*
X344100000Y-119450000D02*
X342900000Y-119450000D01*
X196935000Y-63061252D02*
X196935000Y-62538748D01*
X195465000Y-63061252D02*
X195465000Y-62538748D01*
X201727064Y-127425000D02*
X201272936Y-127425000D01*
X201727064Y-125955000D02*
X201272936Y-125955000D01*
X215054000Y-128616000D02*
X216904000Y-128616000D01*
X215054000Y-127416000D02*
X216904000Y-127416000D01*
X216904000Y-127416000D02*
X216904000Y-128616000D01*
X198442898Y-110599912D02*
X197920394Y-110599912D01*
X198442898Y-109129912D02*
X197920394Y-109129912D01*
X63800000Y-76400000D02*
X63800000Y-78250000D01*
X62600000Y-76400000D02*
X62600000Y-78250000D01*
X63800000Y-78250000D02*
X62600000Y-78250000D01*
X185561072Y-109258151D02*
X185038568Y-109258151D01*
X185561072Y-110728151D02*
X185038568Y-110728151D01*
X185640000Y-104300000D02*
X185640000Y-100850000D01*
X185640000Y-104300000D02*
X185640000Y-106250000D01*
X195760000Y-104300000D02*
X195760000Y-102350000D01*
X195760000Y-104300000D02*
X195760000Y-106250000D01*
X101700000Y-135250000D02*
X100500000Y-135250000D01*
X101700000Y-133400000D02*
X101700000Y-135250000D01*
X100500000Y-133400000D02*
X100500000Y-135250000D01*
X101800000Y-95500000D02*
X101800000Y-97350000D01*
X101800000Y-97350000D02*
X100600000Y-97350000D01*
X100600000Y-95500000D02*
X100600000Y-97350000D01*
X251065000Y-62872936D02*
X251065000Y-63327064D01*
X252535000Y-62872936D02*
X252535000Y-63327064D01*
X344335000Y-61072936D02*
X344335000Y-61527064D01*
X342865000Y-61072936D02*
X342865000Y-61527064D01*
X196935000Y-67661252D02*
X196935000Y-67138748D01*
X195465000Y-67661252D02*
X195465000Y-67138748D01*
X120700000Y-135250000D02*
X119500000Y-135250000D01*
X119500000Y-133400000D02*
X119500000Y-135250000D01*
X120700000Y-133400000D02*
X120700000Y-135250000D01*
X63700000Y-59300000D02*
X62500000Y-59300000D01*
X63700000Y-57450000D02*
X63700000Y-59300000D01*
X62500000Y-57450000D02*
X62500000Y-59300000D01*
X212035000Y-116962936D02*
X212035000Y-117417064D01*
X210565000Y-116962936D02*
X210565000Y-117417064D01*
X192972936Y-126935000D02*
X193427064Y-126935000D01*
X192972936Y-125465000D02*
X193427064Y-125465000D01*
X139700000Y-133400000D02*
X139700000Y-135250000D01*
X138500000Y-133400000D02*
X138500000Y-135250000D01*
X139700000Y-135250000D02*
X138500000Y-135250000D01*
X153500000Y-119450000D02*
X152300000Y-119450000D01*
X152300000Y-117600000D02*
X152300000Y-119450000D01*
X153500000Y-117600000D02*
X153500000Y-119450000D01*
X198140000Y-118051252D02*
X198140000Y-117528748D01*
X199610000Y-118051252D02*
X199610000Y-117528748D01*
X76300000Y-117600000D02*
X76300000Y-119450000D01*
X77500000Y-119450000D02*
X76300000Y-119450000D01*
X77500000Y-117600000D02*
X77500000Y-119450000D01*
X291200000Y-130700000D02*
X291200000Y-132550000D01*
X292400000Y-130700000D02*
X292400000Y-132550000D01*
X292400000Y-132550000D02*
X291200000Y-132550000D01*
X62500000Y-114500000D02*
X62500000Y-116350000D01*
X63700000Y-116350000D02*
X62500000Y-116350000D01*
X63700000Y-114500000D02*
X63700000Y-116350000D01*
X136465000Y-62772936D02*
X136465000Y-63227064D01*
X137935000Y-62772936D02*
X137935000Y-63227064D01*
X175735000Y-62772936D02*
X175735000Y-63227064D01*
X174265000Y-62772936D02*
X174265000Y-63227064D01*
X290535000Y-62872936D02*
X290535000Y-63327064D01*
X289065000Y-62872936D02*
X289065000Y-63327064D01*
X139700000Y-57400000D02*
X139700000Y-59250000D01*
X139700000Y-59250000D02*
X138500000Y-59250000D01*
X138500000Y-57400000D02*
X138500000Y-59250000D01*
X272200000Y-76500000D02*
X272200000Y-78350000D01*
X273400000Y-76500000D02*
X273400000Y-78350000D01*
X273400000Y-78350000D02*
X272200000Y-78350000D01*
X270065000Y-62872936D02*
X270065000Y-63327064D01*
X271535000Y-62872936D02*
X271535000Y-63327064D01*
X139700000Y-78250000D02*
X138500000Y-78250000D01*
X139700000Y-76400000D02*
X139700000Y-78250000D01*
X138500000Y-76400000D02*
X138500000Y-78250000D01*
X306200000Y-117600000D02*
X306200000Y-119450000D01*
X306200000Y-119450000D02*
X305000000Y-119450000D01*
X305000000Y-117600000D02*
X305000000Y-119450000D01*
X330400000Y-114500000D02*
X330400000Y-116350000D01*
X329200000Y-114500000D02*
X329200000Y-116350000D01*
X330400000Y-116350000D02*
X329200000Y-116350000D01*
X272200000Y-95400000D02*
X272200000Y-97250000D01*
X273400000Y-95400000D02*
X273400000Y-97250000D01*
X273400000Y-97250000D02*
X272200000Y-97250000D01*
X311400000Y-95400000D02*
X311400000Y-97250000D01*
X310200000Y-95400000D02*
X310200000Y-97250000D01*
X311400000Y-97250000D02*
X310200000Y-97250000D01*
X249200000Y-119450000D02*
X248000000Y-119450000D01*
X248000000Y-117600000D02*
X248000000Y-119450000D01*
X249200000Y-117600000D02*
X249200000Y-119450000D01*
X268200000Y-117600000D02*
X268200000Y-119450000D01*
X268200000Y-119450000D02*
X267000000Y-119450000D01*
X267000000Y-117600000D02*
X267000000Y-119450000D01*
X273400000Y-116250000D02*
X272200000Y-116250000D01*
X273400000Y-114400000D02*
X273400000Y-116250000D01*
X272200000Y-114400000D02*
X272200000Y-116250000D01*
D13*
X221998200Y-88444555D02*
X221998200Y-84695515D01*
X220499600Y-84695515D02*
X221998200Y-84695515D01*
X200001800Y-84695515D02*
X201500400Y-84695515D01*
X200001800Y-88444555D02*
X200001800Y-84695515D01*
D12*
X101800000Y-59350000D02*
X100600000Y-59350000D01*
X101800000Y-57500000D02*
X101800000Y-59350000D01*
X100600000Y-57500000D02*
X100600000Y-59350000D01*
X254400000Y-133500000D02*
X254400000Y-135350000D01*
X254400000Y-135350000D02*
X253200000Y-135350000D01*
X253200000Y-133500000D02*
X253200000Y-135350000D01*
X98465000Y-62772936D02*
X98465000Y-63227064D01*
X99935000Y-62772936D02*
X99935000Y-63227064D01*
X118935000Y-62772936D02*
X118935000Y-63227064D01*
X117465000Y-62772936D02*
X117465000Y-63227064D01*
X134600000Y-119450000D02*
X133400000Y-119450000D01*
X133400000Y-117600000D02*
X133400000Y-119450000D01*
X134600000Y-117600000D02*
X134600000Y-119450000D01*
X79465000Y-62772936D02*
X79465000Y-63227064D01*
X80935000Y-62772936D02*
X80935000Y-63227064D01*
%LPC*%
D14*
X318330000Y-51800000D03*
D15*
X323410000Y-51800000D03*
D16*
X320870000Y-46720000D03*
D15*
X313250000Y-51800000D03*
D16*
X314520000Y-49260000D03*
D17*
X324620000Y-46720000D03*
X310770000Y-49260000D03*
D15*
X132730000Y-51800000D03*
D16*
X123840000Y-49260000D03*
D14*
X127650000Y-51800000D03*
D16*
X130190000Y-46720000D03*
D15*
X122570000Y-51800000D03*
D17*
X133940000Y-46720000D03*
X120090000Y-49260000D03*
D15*
X84570000Y-108800000D03*
D14*
X89650000Y-108800000D03*
D16*
X92190000Y-103720000D03*
X85840000Y-106260000D03*
D15*
X94730000Y-108800000D03*
D17*
X95940000Y-103720000D03*
X82090000Y-106260000D03*
D16*
X244870000Y-122720000D03*
D15*
X237250000Y-127800000D03*
D14*
X242330000Y-127800000D03*
D16*
X238520000Y-125260000D03*
D15*
X247410000Y-127800000D03*
D17*
X248620000Y-122720000D03*
X234770000Y-125260000D03*
D14*
X165650000Y-89800000D03*
D16*
X168190000Y-84720000D03*
X161840000Y-87260000D03*
D15*
X170730000Y-89800000D03*
X160570000Y-89800000D03*
D17*
X171940000Y-84720000D03*
X158090000Y-87260000D03*
D14*
X127650000Y-108800000D03*
D15*
X122570000Y-108800000D03*
D16*
X130190000Y-103720000D03*
X123840000Y-106260000D03*
D15*
X132730000Y-108800000D03*
D17*
X133940000Y-103720000D03*
X120090000Y-106260000D03*
D16*
X263870000Y-84720000D03*
D14*
X261330000Y-89800000D03*
D16*
X257520000Y-87260000D03*
D15*
X266410000Y-89800000D03*
X256250000Y-89800000D03*
D17*
X267620000Y-84720000D03*
X253770000Y-87260000D03*
D14*
X108650000Y-51800000D03*
D15*
X103570000Y-51800000D03*
D16*
X104840000Y-49260000D03*
D15*
X113730000Y-51800000D03*
D16*
X111190000Y-46720000D03*
D17*
X114940000Y-46720000D03*
X101090000Y-49260000D03*
D16*
X104840000Y-125260000D03*
D15*
X103570000Y-127800000D03*
D16*
X111190000Y-122720000D03*
D14*
X108650000Y-127800000D03*
D15*
X113730000Y-127800000D03*
D17*
X114940000Y-122720000D03*
X101090000Y-125260000D03*
D16*
X301870000Y-65720000D03*
D15*
X294250000Y-70800000D03*
D16*
X295520000Y-68260000D03*
D14*
X299330000Y-70800000D03*
D15*
X304410000Y-70800000D03*
D17*
X305620000Y-65720000D03*
X291770000Y-68260000D03*
D16*
X130190000Y-65720000D03*
D15*
X122570000Y-70800000D03*
D16*
X123840000Y-68260000D03*
D14*
X127650000Y-70800000D03*
D15*
X132730000Y-70800000D03*
D17*
X133940000Y-65720000D03*
X120090000Y-68260000D03*
D14*
X146650000Y-89800000D03*
D16*
X149190000Y-84720000D03*
D15*
X141570000Y-89800000D03*
D16*
X142840000Y-87260000D03*
D15*
X151730000Y-89800000D03*
D17*
X152940000Y-84720000D03*
X139090000Y-87260000D03*
D15*
X285410000Y-51800000D03*
X275250000Y-51800000D03*
D14*
X280330000Y-51800000D03*
D16*
X282870000Y-46720000D03*
X276520000Y-49260000D03*
D17*
X286620000Y-46720000D03*
X272770000Y-49260000D03*
D16*
X111190000Y-84720000D03*
D14*
X108650000Y-89800000D03*
D15*
X103570000Y-89800000D03*
X113730000Y-89800000D03*
D16*
X104840000Y-87260000D03*
D17*
X114940000Y-84720000D03*
X101090000Y-87260000D03*
D15*
X285410000Y-108800000D03*
D16*
X276520000Y-106260000D03*
D14*
X280330000Y-108800000D03*
D15*
X275250000Y-108800000D03*
D16*
X282870000Y-103720000D03*
D17*
X286620000Y-103720000D03*
X272770000Y-106260000D03*
D15*
X285410000Y-127800000D03*
D14*
X280330000Y-127800000D03*
D15*
X275250000Y-127800000D03*
D16*
X282870000Y-122720000D03*
X276520000Y-125260000D03*
D17*
X286620000Y-122720000D03*
X272770000Y-125260000D03*
D15*
X342330000Y-51800000D03*
D16*
X339790000Y-46720000D03*
X333440000Y-49260000D03*
D15*
X332170000Y-51800000D03*
D14*
X337250000Y-51800000D03*
D17*
X343540000Y-46720000D03*
X329690000Y-49260000D03*
D15*
X94730000Y-89800000D03*
D16*
X85840000Y-87260000D03*
D14*
X89650000Y-89800000D03*
D15*
X84570000Y-89800000D03*
D16*
X92190000Y-84720000D03*
D17*
X95940000Y-84720000D03*
X82090000Y-87260000D03*
D16*
X339790000Y-103720000D03*
D14*
X337250000Y-108800000D03*
D16*
X333440000Y-106260000D03*
D15*
X342330000Y-108800000D03*
X332170000Y-108800000D03*
D17*
X343540000Y-103720000D03*
X329690000Y-106260000D03*
D15*
X247410000Y-108800000D03*
D16*
X244870000Y-103720000D03*
D14*
X242330000Y-108800000D03*
D15*
X237250000Y-108800000D03*
D16*
X238520000Y-106260000D03*
D17*
X248620000Y-103720000D03*
X234770000Y-106260000D03*
D16*
X161840000Y-49260000D03*
D14*
X165650000Y-51800000D03*
D15*
X170730000Y-51800000D03*
X160570000Y-51800000D03*
D16*
X168190000Y-46720000D03*
D17*
X171940000Y-46720000D03*
X158090000Y-49260000D03*
D14*
X261330000Y-51800000D03*
D15*
X256250000Y-51800000D03*
D16*
X263870000Y-46720000D03*
X257520000Y-49260000D03*
D15*
X266410000Y-51800000D03*
D17*
X267620000Y-46720000D03*
X253770000Y-49260000D03*
D15*
X141570000Y-127800000D03*
D14*
X146650000Y-127800000D03*
D16*
X142840000Y-125260000D03*
X149190000Y-122720000D03*
D15*
X151730000Y-127800000D03*
D17*
X152940000Y-122720000D03*
X139090000Y-125260000D03*
D15*
X294250000Y-127800000D03*
D16*
X301870000Y-122720000D03*
D14*
X299330000Y-127800000D03*
D15*
X304410000Y-127800000D03*
D16*
X295520000Y-125260000D03*
D17*
X305620000Y-122720000D03*
X291770000Y-125260000D03*
D16*
X320870000Y-103720000D03*
D14*
X318330000Y-108800000D03*
D16*
X314520000Y-106260000D03*
D15*
X323410000Y-108800000D03*
X313250000Y-108800000D03*
D17*
X324620000Y-103720000D03*
X310770000Y-106260000D03*
D16*
X320870000Y-84720000D03*
D14*
X318330000Y-89800000D03*
D15*
X313250000Y-89800000D03*
X323410000Y-89800000D03*
D16*
X314520000Y-87260000D03*
D17*
X324620000Y-84720000D03*
X310770000Y-87260000D03*
D15*
X256250000Y-70800000D03*
D16*
X257520000Y-68260000D03*
D14*
X261330000Y-70800000D03*
D15*
X266410000Y-70800000D03*
D16*
X263870000Y-65720000D03*
D17*
X267620000Y-65720000D03*
X253770000Y-68260000D03*
D15*
X122570000Y-89800000D03*
D14*
X127650000Y-89800000D03*
D16*
X123840000Y-87260000D03*
D15*
X132730000Y-89800000D03*
D16*
X130190000Y-84720000D03*
D17*
X133940000Y-84720000D03*
X120090000Y-87260000D03*
D16*
X73190000Y-103720000D03*
D14*
X70650000Y-108800000D03*
D15*
X65570000Y-108800000D03*
D16*
X66840000Y-106260000D03*
D15*
X75730000Y-108800000D03*
D17*
X76940000Y-103720000D03*
X63090000Y-106260000D03*
D15*
X294250000Y-51800000D03*
D16*
X295520000Y-49260000D03*
D15*
X304410000Y-51800000D03*
D14*
X299330000Y-51800000D03*
D16*
X301870000Y-46720000D03*
D17*
X305620000Y-46720000D03*
X291770000Y-49260000D03*
D18*
X190150000Y-128950000D03*
X196650000Y-128950000D03*
X196650000Y-133450000D03*
X190150000Y-133450000D03*
D14*
X242330000Y-89800000D03*
D16*
X244870000Y-84720000D03*
D15*
X237250000Y-89800000D03*
D16*
X238520000Y-87260000D03*
D15*
X247410000Y-89800000D03*
D17*
X248620000Y-84720000D03*
X234770000Y-87260000D03*
D14*
X108650000Y-108800000D03*
D16*
X104840000Y-106260000D03*
X111190000Y-103720000D03*
D15*
X113730000Y-108800000D03*
X103570000Y-108800000D03*
D17*
X114940000Y-103720000D03*
X101090000Y-106260000D03*
D16*
X314520000Y-68260000D03*
D14*
X318330000Y-70800000D03*
D15*
X323410000Y-70800000D03*
X313250000Y-70800000D03*
D16*
X320870000Y-65720000D03*
D17*
X324620000Y-65720000D03*
X310770000Y-68260000D03*
D14*
X70650000Y-89800000D03*
D15*
X75730000Y-89800000D03*
D16*
X73190000Y-84720000D03*
D15*
X65570000Y-89800000D03*
D16*
X66840000Y-87260000D03*
D17*
X76940000Y-84720000D03*
X63090000Y-87260000D03*
D18*
X178950000Y-128950000D03*
X185450000Y-128950000D03*
X178950000Y-133450000D03*
X185450000Y-133450000D03*
D15*
X342330000Y-89800000D03*
D16*
X339790000Y-84720000D03*
D14*
X337250000Y-89800000D03*
D16*
X333440000Y-87260000D03*
D15*
X332170000Y-89800000D03*
D17*
X343540000Y-84720000D03*
X329690000Y-87260000D03*
D14*
X261330000Y-127800000D03*
D15*
X256250000Y-127800000D03*
X266410000Y-127800000D03*
D16*
X263870000Y-122720000D03*
X257520000Y-125260000D03*
D17*
X267620000Y-122720000D03*
X253770000Y-125260000D03*
D16*
X276520000Y-87260000D03*
D15*
X285410000Y-89800000D03*
D14*
X280330000Y-89800000D03*
D16*
X282870000Y-84720000D03*
D15*
X275250000Y-89800000D03*
D17*
X286620000Y-84720000D03*
X272770000Y-87260000D03*
D15*
X323410000Y-127800000D03*
X313250000Y-127800000D03*
D16*
X320870000Y-122720000D03*
X314520000Y-125260000D03*
D14*
X318330000Y-127800000D03*
D17*
X324620000Y-122720000D03*
X310770000Y-125260000D03*
D16*
X104840000Y-68260000D03*
D14*
X108650000Y-70800000D03*
D15*
X103570000Y-70800000D03*
D16*
X111190000Y-65720000D03*
D15*
X113730000Y-70800000D03*
D17*
X114940000Y-65720000D03*
X101090000Y-68260000D03*
D16*
X92190000Y-46720000D03*
X85840000Y-49260000D03*
D15*
X94730000Y-51800000D03*
D14*
X89650000Y-51800000D03*
D15*
X84570000Y-51800000D03*
D17*
X95940000Y-46720000D03*
X82090000Y-49260000D03*
D15*
X151730000Y-51800000D03*
D16*
X149190000Y-46720000D03*
X142840000Y-49260000D03*
D15*
X141570000Y-51800000D03*
D14*
X146650000Y-51800000D03*
D17*
X152940000Y-46720000D03*
X139090000Y-49260000D03*
D15*
X304410000Y-89800000D03*
X294250000Y-89800000D03*
D14*
X299330000Y-89800000D03*
D16*
X301870000Y-84720000D03*
X295520000Y-87260000D03*
D17*
X305620000Y-84720000D03*
X291770000Y-87260000D03*
D19*
X224023000Y-133096000D03*
D20*
X221483000Y-133096000D03*
X218943000Y-133096000D03*
X216403000Y-133096000D03*
X213863000Y-133096000D03*
D16*
X238520000Y-68260000D03*
D14*
X242330000Y-70800000D03*
D15*
X247410000Y-70800000D03*
D16*
X244870000Y-65720000D03*
D15*
X237250000Y-70800000D03*
D17*
X248620000Y-65720000D03*
X234770000Y-68260000D03*
D14*
X70650000Y-127800000D03*
D15*
X75730000Y-127800000D03*
D16*
X66840000Y-125260000D03*
X73190000Y-122720000D03*
D15*
X65570000Y-127800000D03*
D17*
X76940000Y-122720000D03*
X63090000Y-125260000D03*
D15*
X256250000Y-108800000D03*
D16*
X263870000Y-103720000D03*
D14*
X261330000Y-108800000D03*
D16*
X257520000Y-106260000D03*
D15*
X266410000Y-108800000D03*
D17*
X267620000Y-103720000D03*
X253770000Y-106260000D03*
D16*
X301870000Y-103720000D03*
X295520000Y-106260000D03*
D15*
X304410000Y-108800000D03*
X294250000Y-108800000D03*
D14*
X299330000Y-108800000D03*
D17*
X305620000Y-103720000D03*
X291770000Y-106260000D03*
D16*
X123840000Y-125260000D03*
X130190000Y-122720000D03*
D15*
X132730000Y-127800000D03*
D14*
X127650000Y-127800000D03*
D15*
X122570000Y-127800000D03*
D17*
X133940000Y-122720000D03*
X120090000Y-125260000D03*
D15*
X84570000Y-70800000D03*
D16*
X92190000Y-65720000D03*
D14*
X89650000Y-70800000D03*
D16*
X85840000Y-68260000D03*
D15*
X94730000Y-70800000D03*
D17*
X95940000Y-65720000D03*
X82090000Y-68260000D03*
D16*
X161840000Y-106260000D03*
D14*
X165650000Y-108800000D03*
D16*
X168190000Y-103720000D03*
D15*
X160570000Y-108800000D03*
X170730000Y-108800000D03*
D17*
X171940000Y-103720000D03*
X158090000Y-106260000D03*
D16*
X339790000Y-65720000D03*
X333440000Y-68260000D03*
D15*
X332170000Y-70800000D03*
X342330000Y-70800000D03*
D14*
X337250000Y-70800000D03*
D17*
X343540000Y-65720000D03*
X329690000Y-68260000D03*
D15*
X84570000Y-127800000D03*
X94730000Y-127800000D03*
D16*
X92190000Y-122720000D03*
D14*
X89650000Y-127800000D03*
D16*
X85840000Y-125260000D03*
D17*
X95940000Y-122720000D03*
X82090000Y-125260000D03*
D16*
X276520000Y-68260000D03*
X282870000Y-65720000D03*
D15*
X285410000Y-70800000D03*
D14*
X280330000Y-70800000D03*
D15*
X275250000Y-70800000D03*
D17*
X286620000Y-65720000D03*
X272770000Y-68260000D03*
D16*
X168190000Y-65720000D03*
D14*
X165650000Y-70800000D03*
D15*
X160570000Y-70800000D03*
X170730000Y-70800000D03*
D16*
X161840000Y-68260000D03*
D17*
X171940000Y-65720000D03*
X158090000Y-68260000D03*
D16*
X142840000Y-106260000D03*
X149190000Y-103720000D03*
D15*
X151730000Y-108800000D03*
X141570000Y-108800000D03*
D14*
X146650000Y-108800000D03*
D17*
X152940000Y-103720000D03*
X139090000Y-106260000D03*
D15*
X342330000Y-127800000D03*
D16*
X333440000Y-125260000D03*
X339790000Y-122720000D03*
D15*
X332170000Y-127800000D03*
D14*
X337250000Y-127800000D03*
D17*
X343540000Y-122720000D03*
X329690000Y-125260000D03*
D15*
X170730000Y-127800000D03*
D16*
X161840000Y-125260000D03*
D14*
X165650000Y-127800000D03*
D16*
X168190000Y-122720000D03*
D15*
X160570000Y-127800000D03*
D17*
X171940000Y-122720000D03*
X158090000Y-125260000D03*
D21*
X179000000Y-108300000D03*
X228500000Y-50300000D03*
X228500000Y-108300000D03*
X179000000Y-50300000D03*
D19*
X226868000Y-54988000D03*
D20*
X229408000Y-54988000D03*
X226868000Y-57528000D03*
X229408000Y-57528000D03*
X226868000Y-60068000D03*
X229408000Y-60068000D03*
X226868000Y-62608000D03*
X229408000Y-62608000D03*
X226868000Y-65148000D03*
X229408000Y-65148000D03*
X226868000Y-67688000D03*
X229408000Y-67688000D03*
X226868000Y-70228000D03*
X229408000Y-70228000D03*
X226868000Y-72768000D03*
X229408000Y-72768000D03*
X226868000Y-75308000D03*
X229408000Y-75308000D03*
X226868000Y-77848000D03*
X229408000Y-77848000D03*
X226868000Y-80388000D03*
X229408000Y-80388000D03*
X226868000Y-82928000D03*
X229408000Y-82928000D03*
X226868000Y-85468000D03*
X229408000Y-85468000D03*
X226868000Y-88008000D03*
X229408000Y-88008000D03*
X226868000Y-90548000D03*
X229408000Y-90548000D03*
X226868000Y-93088000D03*
X229408000Y-93088000D03*
X226868000Y-95628000D03*
X229408000Y-95628000D03*
X226868000Y-98168000D03*
X229408000Y-98168000D03*
X226868000Y-100708000D03*
X229408000Y-100708000D03*
X226868000Y-103248000D03*
X229408000Y-103248000D03*
D15*
X247410000Y-51800000D03*
X237250000Y-51800000D03*
D14*
X242330000Y-51800000D03*
D16*
X244870000Y-46720000D03*
X238520000Y-49260000D03*
D17*
X248620000Y-46720000D03*
X234770000Y-49260000D03*
D16*
X73190000Y-46720000D03*
D15*
X75730000Y-51800000D03*
X65570000Y-51800000D03*
D16*
X66840000Y-49260000D03*
D14*
X70650000Y-51800000D03*
D17*
X76940000Y-46720000D03*
X63090000Y-49260000D03*
D15*
X151730000Y-70800000D03*
D14*
X146650000Y-70800000D03*
D16*
X142840000Y-68260000D03*
X149190000Y-65720000D03*
D15*
X141570000Y-70800000D03*
D17*
X152940000Y-65720000D03*
X139090000Y-68260000D03*
D16*
X73190000Y-65720000D03*
D14*
X70650000Y-70800000D03*
D15*
X75730000Y-70800000D03*
X65570000Y-70800000D03*
D16*
X66840000Y-68260000D03*
D17*
X76940000Y-65720000D03*
X63090000Y-68260000D03*
D22*
X191750000Y-63700000D03*
X191750000Y-66000000D03*
D23*
X185450000Y-66000000D03*
D22*
X191750000Y-68300000D03*
D24*
X308800000Y-62187500D03*
X308800000Y-64012500D03*
D25*
X82100000Y-58800000D03*
X82100000Y-57400000D03*
D24*
X156200000Y-62087500D03*
X156200000Y-63912500D03*
D26*
X181087500Y-126400000D03*
X182912500Y-126400000D03*
D25*
X158100000Y-115800000D03*
X158100000Y-114400000D03*
X291800000Y-58800000D03*
X291800000Y-57400000D03*
D27*
X199155000Y-101825000D03*
X200425000Y-101825000D03*
X201695000Y-101825000D03*
X202965000Y-101825000D03*
X204235000Y-101825000D03*
X205505000Y-101825000D03*
X206775000Y-101825000D03*
X208045000Y-101825000D03*
X208045000Y-106775000D03*
X206775000Y-106775000D03*
X205505000Y-106775000D03*
X204235000Y-106775000D03*
X202965000Y-106775000D03*
X201695000Y-106775000D03*
X200425000Y-106775000D03*
X199155000Y-106775000D03*
D25*
X120100000Y-96900000D03*
X120100000Y-95500000D03*
X82200000Y-77800000D03*
X82200000Y-76400000D03*
X158100000Y-77800000D03*
X158100000Y-76400000D03*
X291800000Y-77875000D03*
X291800000Y-76475000D03*
X95900000Y-119000000D03*
X95900000Y-117600000D03*
D28*
X178600000Y-119512500D03*
X178600000Y-117687500D03*
D25*
X158200000Y-96900000D03*
X158200000Y-95500000D03*
X310800000Y-58850000D03*
X310800000Y-57450000D03*
X158200000Y-131700000D03*
X158200000Y-130300000D03*
X101100000Y-77800000D03*
X101100000Y-76400000D03*
X82100000Y-115800000D03*
X82100000Y-114400000D03*
X101100000Y-115800000D03*
X101100000Y-114400000D03*
X139100000Y-115800000D03*
X139100000Y-114400000D03*
D29*
X206300000Y-45797893D03*
X205100000Y-45797893D03*
X203900000Y-45797893D03*
X202700000Y-45797893D03*
D30*
X201550000Y-49572893D03*
X207450000Y-49572893D03*
D25*
X234800000Y-77900000D03*
X234800000Y-76500000D03*
X286600000Y-119000000D03*
X286600000Y-117600000D03*
D26*
X217527500Y-94488000D03*
X219352500Y-94488000D03*
D25*
X234800000Y-96800000D03*
X234800000Y-95400000D03*
D24*
X327800000Y-62000000D03*
X327800000Y-63825000D03*
D25*
X310800000Y-77850000D03*
X310800000Y-76450000D03*
X291800000Y-115800000D03*
X291800000Y-114400000D03*
X120100000Y-77800000D03*
X120100000Y-76400000D03*
X158100000Y-58800000D03*
X158100000Y-57400000D03*
X82200000Y-134900000D03*
X82200000Y-133500000D03*
X120200000Y-58800000D03*
X120200000Y-57400000D03*
X234800000Y-134800000D03*
X234800000Y-133400000D03*
X234750000Y-58800000D03*
X234750000Y-57400000D03*
D31*
X207350000Y-116850000D03*
X207350000Y-118120000D03*
X207350000Y-119390000D03*
X207350000Y-120660000D03*
X207350000Y-121930000D03*
X207350000Y-123200000D03*
X207350000Y-124470000D03*
X202400000Y-124470000D03*
X202400000Y-123200000D03*
X202400000Y-121930000D03*
X202400000Y-120660000D03*
X202400000Y-119390000D03*
X202400000Y-118120000D03*
X202400000Y-116850000D03*
D25*
X253800000Y-96800000D03*
X253800000Y-95400000D03*
X63200000Y-96900000D03*
X63200000Y-95500000D03*
X253800000Y-77900000D03*
X253800000Y-76500000D03*
X253800000Y-115800000D03*
X253800000Y-114400000D03*
X139100000Y-96800000D03*
X139100000Y-95400000D03*
D26*
X211177500Y-94488000D03*
X213002500Y-94488000D03*
D25*
X272800000Y-134800000D03*
X272800000Y-133400000D03*
X324600000Y-119000000D03*
X324600000Y-117600000D03*
X272750000Y-58800000D03*
X272750000Y-57400000D03*
X291800000Y-96800000D03*
X291800000Y-95400000D03*
X120100000Y-115800000D03*
X120100000Y-114400000D03*
X310800000Y-134900000D03*
X310800000Y-133500000D03*
X114900000Y-119000000D03*
X114900000Y-117600000D03*
X329700000Y-58800000D03*
X329700000Y-57400000D03*
X329700000Y-134800000D03*
X329700000Y-133400000D03*
X234800000Y-115900000D03*
X234800000Y-114500000D03*
X253800000Y-58800000D03*
X253800000Y-57400000D03*
X329800000Y-77800000D03*
X329800000Y-76400000D03*
X329700000Y-96800000D03*
X329700000Y-95400000D03*
X310800000Y-115800000D03*
X310800000Y-114400000D03*
D24*
X198800000Y-121377500D03*
X198800000Y-123202500D03*
D25*
X63200000Y-134900000D03*
X63200000Y-133500000D03*
X82200000Y-96800000D03*
X82200000Y-95400000D03*
X172000000Y-119000000D03*
X172000000Y-117600000D03*
X343500000Y-119000000D03*
X343500000Y-117600000D03*
D32*
X196200000Y-63750000D03*
X196200000Y-61850000D03*
D33*
X202412500Y-126690000D03*
X200587500Y-126690000D03*
D34*
X216454000Y-128016000D03*
X215054000Y-128016000D03*
D35*
X199131646Y-109864912D03*
X197231646Y-109864912D03*
D25*
X63200000Y-77800000D03*
X63200000Y-76400000D03*
D35*
X186249820Y-109993151D03*
X184349820Y-109993151D03*
D27*
X186255000Y-101825000D03*
X187525000Y-101825000D03*
X188795000Y-101825000D03*
X190065000Y-101825000D03*
X191335000Y-101825000D03*
X192605000Y-101825000D03*
X193875000Y-101825000D03*
X195145000Y-101825000D03*
X195145000Y-106775000D03*
X193875000Y-106775000D03*
X192605000Y-106775000D03*
X191335000Y-106775000D03*
X190065000Y-106775000D03*
X188795000Y-106775000D03*
X187525000Y-106775000D03*
X186255000Y-106775000D03*
D25*
X101100000Y-134800000D03*
X101100000Y-133400000D03*
X101200000Y-96900000D03*
X101200000Y-95500000D03*
D24*
X251800000Y-62187500D03*
X251800000Y-64012500D03*
X343600000Y-60387500D03*
X343600000Y-62212500D03*
D32*
X196200000Y-68350000D03*
X196200000Y-66450000D03*
D25*
X120100000Y-134800000D03*
X120100000Y-133400000D03*
X63100000Y-58850000D03*
X63100000Y-57450000D03*
D24*
X211300000Y-116277500D03*
X211300000Y-118102500D03*
D26*
X192287500Y-126200000D03*
X194112500Y-126200000D03*
D25*
X139100000Y-134800000D03*
X139100000Y-133400000D03*
X152900000Y-119000000D03*
X152900000Y-117600000D03*
D32*
X198875000Y-118740000D03*
X198875000Y-116840000D03*
D25*
X76900000Y-119000000D03*
X76900000Y-117600000D03*
X291800000Y-132100000D03*
X291800000Y-130700000D03*
X63100000Y-115900000D03*
X63100000Y-114500000D03*
D24*
X137200000Y-62087500D03*
X137200000Y-63912500D03*
X175000000Y-62087500D03*
X175000000Y-63912500D03*
X289800000Y-62187500D03*
X289800000Y-64012500D03*
D25*
X139100000Y-58800000D03*
X139100000Y-57400000D03*
X272800000Y-77900000D03*
X272800000Y-76500000D03*
D24*
X270800000Y-62187500D03*
X270800000Y-64012500D03*
D25*
X139100000Y-77800000D03*
X139100000Y-76400000D03*
X305600000Y-119000000D03*
X305600000Y-117600000D03*
X329800000Y-115900000D03*
X329800000Y-114500000D03*
D36*
X207002040Y-65686864D03*
D25*
X272800000Y-96800000D03*
X272800000Y-95400000D03*
X310800000Y-96800000D03*
X310800000Y-95400000D03*
X248600000Y-119000000D03*
X248600000Y-117600000D03*
X267600000Y-119000000D03*
X267600000Y-117600000D03*
X272800000Y-115800000D03*
X272800000Y-114400000D03*
D37*
X220999980Y-85945195D03*
D38*
X201000020Y-85945195D03*
D39*
X201751860Y-91218235D03*
X202000780Y-83671895D03*
X202252240Y-91218235D03*
X202501160Y-83671895D03*
X202750080Y-91218235D03*
X203001540Y-83671895D03*
X203250460Y-91218235D03*
X203501920Y-83671895D03*
X203750840Y-91218235D03*
X204002300Y-83671895D03*
X204251220Y-91218235D03*
X204500140Y-83671895D03*
X204751600Y-91218235D03*
X205000520Y-83671895D03*
X205251980Y-91218235D03*
X205500900Y-83671895D03*
X205752360Y-91218235D03*
X206001280Y-83671895D03*
X206250200Y-91218235D03*
X206501660Y-83671895D03*
X206750580Y-91218235D03*
X207002040Y-83671895D03*
X207250960Y-91218235D03*
X209501400Y-83671895D03*
X209750320Y-91218235D03*
X210001780Y-83671895D03*
X210250700Y-91218235D03*
X210502160Y-83671895D03*
X210751080Y-91218235D03*
X211000000Y-83671895D03*
X211248920Y-91218235D03*
X211497840Y-83671895D03*
X211749300Y-91218235D03*
X211998220Y-83671895D03*
X212249680Y-91218235D03*
X212498600Y-83671895D03*
X212747520Y-91218235D03*
X212998980Y-83671895D03*
X213247900Y-91218235D03*
X213499360Y-83671895D03*
X213748280Y-91218235D03*
X213999740Y-83671895D03*
X214248660Y-91218235D03*
X214497580Y-83671895D03*
X214749040Y-91218235D03*
X214997960Y-83671895D03*
X215249420Y-91218235D03*
X215498340Y-83671895D03*
X215749800Y-91218235D03*
X215998720Y-83671895D03*
X216247640Y-91218235D03*
X216499100Y-83671895D03*
X216748020Y-91218235D03*
X216999480Y-83671895D03*
X217248400Y-91218235D03*
X217499860Y-83671895D03*
X217748780Y-91218235D03*
X217997700Y-83671895D03*
X218249160Y-91218235D03*
X218498080Y-83671895D03*
X218749540Y-91218235D03*
X218998460Y-83671895D03*
X219249920Y-91218235D03*
X219498840Y-83671895D03*
X219747760Y-91218235D03*
X219999220Y-83671895D03*
X220248140Y-91218235D03*
D40*
X200652040Y-90443535D03*
X221347960Y-90443535D03*
D25*
X101200000Y-58900000D03*
X101200000Y-57500000D03*
X253800000Y-134900000D03*
X253800000Y-133500000D03*
D24*
X99200000Y-62087500D03*
X99200000Y-63912500D03*
X118200000Y-62087500D03*
X118200000Y-63912500D03*
D25*
X134000000Y-119000000D03*
X134000000Y-117600000D03*
D24*
X80200000Y-62087500D03*
X80200000Y-63912500D03*
M02*
