G04 #@! TF.GenerationSoftware,KiCad,Pcbnew,(6.0.10)*
G04 #@! TF.CreationDate,2023-08-27T18:11:46-04:00*
G04 #@! TF.ProjectId,storyboard,73746f72-7962-46f6-9172-642e6b696361,rev?*
G04 #@! TF.SameCoordinates,Original*
G04 #@! TF.FileFunction,Soldermask,Top*
G04 #@! TF.FilePolarity,Negative*
%FSLAX46Y46*%
G04 Gerber Fmt 4.6, Leading zero omitted, Abs format (unit mm)*
G04 Created by KiCad (PCBNEW (6.0.10)) date 2023-08-27 18:11:46*
%MOMM*%
%LPD*%
G01*
G04 APERTURE LIST*
%ADD10C,3.987800*%
%ADD11C,1.701800*%
%ADD12C,3.000000*%
%ADD13C,2.000000*%
%ADD14R,1.700000X1.700000*%
%ADD15O,1.700000X1.700000*%
%ADD16C,2.700000*%
%ADD17C,6.000000*%
%ADD18C,1.597660*%
%ADD19C,1.099820*%
G04 APERTURE END LIST*
D10*
X318330000Y-51800000D03*
D11*
X323410000Y-51800000D03*
D12*
X320870000Y-46720000D03*
D11*
X313250000Y-51800000D03*
D12*
X314520000Y-49260000D03*
D11*
X132730000Y-51800000D03*
D12*
X123840000Y-49260000D03*
D10*
X127650000Y-51800000D03*
D12*
X130190000Y-46720000D03*
D11*
X122570000Y-51800000D03*
X84570000Y-108800000D03*
D10*
X89650000Y-108800000D03*
D12*
X92190000Y-103720000D03*
X85840000Y-106260000D03*
D11*
X94730000Y-108800000D03*
D12*
X244870000Y-122720000D03*
D11*
X237250000Y-127800000D03*
D10*
X242330000Y-127800000D03*
D12*
X238520000Y-125260000D03*
D11*
X247410000Y-127800000D03*
D10*
X165650000Y-89800000D03*
D12*
X168190000Y-84720000D03*
X161840000Y-87260000D03*
D11*
X170730000Y-89800000D03*
X160570000Y-89800000D03*
D10*
X127650000Y-108800000D03*
D11*
X122570000Y-108800000D03*
D12*
X130190000Y-103720000D03*
X123840000Y-106260000D03*
D11*
X132730000Y-108800000D03*
D12*
X263870000Y-84720000D03*
D10*
X261330000Y-89800000D03*
D12*
X257520000Y-87260000D03*
D11*
X266410000Y-89800000D03*
X256250000Y-89800000D03*
D10*
X108650000Y-51800000D03*
D11*
X103570000Y-51800000D03*
D12*
X104840000Y-49260000D03*
D11*
X113730000Y-51800000D03*
D12*
X111190000Y-46720000D03*
X104840000Y-125260000D03*
D11*
X103570000Y-127800000D03*
D12*
X111190000Y-122720000D03*
D10*
X108650000Y-127800000D03*
D11*
X113730000Y-127800000D03*
D12*
X301870000Y-65720000D03*
D11*
X294250000Y-70800000D03*
D12*
X295520000Y-68260000D03*
D10*
X299330000Y-70800000D03*
D11*
X304410000Y-70800000D03*
D12*
X130190000Y-65720000D03*
D11*
X122570000Y-70800000D03*
D12*
X123840000Y-68260000D03*
D10*
X127650000Y-70800000D03*
D11*
X132730000Y-70800000D03*
D10*
X146650000Y-89800000D03*
D12*
X149190000Y-84720000D03*
D11*
X141570000Y-89800000D03*
D12*
X142840000Y-87260000D03*
D11*
X151730000Y-89800000D03*
X285410000Y-51800000D03*
X275250000Y-51800000D03*
D10*
X280330000Y-51800000D03*
D12*
X282870000Y-46720000D03*
X276520000Y-49260000D03*
X111190000Y-84720000D03*
D10*
X108650000Y-89800000D03*
D11*
X103570000Y-89800000D03*
X113730000Y-89800000D03*
D12*
X104840000Y-87260000D03*
D11*
X285410000Y-108800000D03*
D12*
X276520000Y-106260000D03*
D10*
X280330000Y-108800000D03*
D11*
X275250000Y-108800000D03*
D12*
X282870000Y-103720000D03*
D11*
X285410000Y-127800000D03*
D10*
X280330000Y-127800000D03*
D11*
X275250000Y-127800000D03*
D12*
X282870000Y-122720000D03*
X276520000Y-125260000D03*
D11*
X342330000Y-51800000D03*
D12*
X339790000Y-46720000D03*
X333440000Y-49260000D03*
D11*
X332170000Y-51800000D03*
D10*
X337250000Y-51800000D03*
D11*
X94730000Y-89800000D03*
D12*
X85840000Y-87260000D03*
D10*
X89650000Y-89800000D03*
D11*
X84570000Y-89800000D03*
D12*
X92190000Y-84720000D03*
X339790000Y-103720000D03*
D10*
X337250000Y-108800000D03*
D12*
X333440000Y-106260000D03*
D11*
X342330000Y-108800000D03*
X332170000Y-108800000D03*
X247410000Y-108800000D03*
D12*
X244870000Y-103720000D03*
D10*
X242330000Y-108800000D03*
D11*
X237250000Y-108800000D03*
D12*
X238520000Y-106260000D03*
X161840000Y-49260000D03*
D10*
X165650000Y-51800000D03*
D11*
X170730000Y-51800000D03*
X160570000Y-51800000D03*
D12*
X168190000Y-46720000D03*
D10*
X261330000Y-51800000D03*
D11*
X256250000Y-51800000D03*
D12*
X263870000Y-46720000D03*
X257520000Y-49260000D03*
D11*
X266410000Y-51800000D03*
X141570000Y-127800000D03*
D10*
X146650000Y-127800000D03*
D12*
X142840000Y-125260000D03*
X149190000Y-122720000D03*
D11*
X151730000Y-127800000D03*
X294250000Y-127800000D03*
D12*
X301870000Y-122720000D03*
D10*
X299330000Y-127800000D03*
D11*
X304410000Y-127800000D03*
D12*
X295520000Y-125260000D03*
X320870000Y-103720000D03*
D10*
X318330000Y-108800000D03*
D12*
X314520000Y-106260000D03*
D11*
X323410000Y-108800000D03*
X313250000Y-108800000D03*
D12*
X320870000Y-84720000D03*
D10*
X318330000Y-89800000D03*
D11*
X313250000Y-89800000D03*
X323410000Y-89800000D03*
D12*
X314520000Y-87260000D03*
D11*
X256250000Y-70800000D03*
D12*
X257520000Y-68260000D03*
D10*
X261330000Y-70800000D03*
D11*
X266410000Y-70800000D03*
D12*
X263870000Y-65720000D03*
D11*
X122570000Y-89800000D03*
D10*
X127650000Y-89800000D03*
D12*
X123840000Y-87260000D03*
D11*
X132730000Y-89800000D03*
D12*
X130190000Y-84720000D03*
X73190000Y-103720000D03*
D10*
X70650000Y-108800000D03*
D11*
X65570000Y-108800000D03*
D12*
X66840000Y-106260000D03*
D11*
X75730000Y-108800000D03*
X294250000Y-51800000D03*
D12*
X295520000Y-49260000D03*
D11*
X304410000Y-51800000D03*
D10*
X299330000Y-51800000D03*
D12*
X301870000Y-46720000D03*
D13*
X190150000Y-128950000D03*
X196650000Y-128950000D03*
X196650000Y-133450000D03*
X190150000Y-133450000D03*
D10*
X242330000Y-89800000D03*
D12*
X244870000Y-84720000D03*
D11*
X237250000Y-89800000D03*
D12*
X238520000Y-87260000D03*
D11*
X247410000Y-89800000D03*
D10*
X108650000Y-108800000D03*
D12*
X104840000Y-106260000D03*
X111190000Y-103720000D03*
D11*
X113730000Y-108800000D03*
X103570000Y-108800000D03*
D12*
X314520000Y-68260000D03*
D10*
X318330000Y-70800000D03*
D11*
X323410000Y-70800000D03*
X313250000Y-70800000D03*
D12*
X320870000Y-65720000D03*
D10*
X70650000Y-89800000D03*
D11*
X75730000Y-89800000D03*
D12*
X73190000Y-84720000D03*
D11*
X65570000Y-89800000D03*
D12*
X66840000Y-87260000D03*
D13*
X178950000Y-128950000D03*
X185450000Y-128950000D03*
X178950000Y-133450000D03*
X185450000Y-133450000D03*
D11*
X342330000Y-89800000D03*
D12*
X339790000Y-84720000D03*
D10*
X337250000Y-89800000D03*
D12*
X333440000Y-87260000D03*
D11*
X332170000Y-89800000D03*
D10*
X261330000Y-127800000D03*
D11*
X256250000Y-127800000D03*
X266410000Y-127800000D03*
D12*
X263870000Y-122720000D03*
X257520000Y-125260000D03*
X276520000Y-87260000D03*
D11*
X285410000Y-89800000D03*
D10*
X280330000Y-89800000D03*
D12*
X282870000Y-84720000D03*
D11*
X275250000Y-89800000D03*
X323410000Y-127800000D03*
X313250000Y-127800000D03*
D12*
X320870000Y-122720000D03*
X314520000Y-125260000D03*
D10*
X318330000Y-127800000D03*
D12*
X104840000Y-68260000D03*
D10*
X108650000Y-70800000D03*
D11*
X103570000Y-70800000D03*
D12*
X111190000Y-65720000D03*
D11*
X113730000Y-70800000D03*
D12*
X92190000Y-46720000D03*
X85840000Y-49260000D03*
D11*
X94730000Y-51800000D03*
D10*
X89650000Y-51800000D03*
D11*
X84570000Y-51800000D03*
X151730000Y-51800000D03*
D12*
X149190000Y-46720000D03*
X142840000Y-49260000D03*
D11*
X141570000Y-51800000D03*
D10*
X146650000Y-51800000D03*
D11*
X304410000Y-89800000D03*
X294250000Y-89800000D03*
D10*
X299330000Y-89800000D03*
D12*
X301870000Y-84720000D03*
X295520000Y-87260000D03*
D14*
X224023000Y-133096000D03*
D15*
X221483000Y-133096000D03*
X218943000Y-133096000D03*
X216403000Y-133096000D03*
X213863000Y-133096000D03*
D12*
X238520000Y-68260000D03*
D10*
X242330000Y-70800000D03*
D11*
X247410000Y-70800000D03*
D12*
X244870000Y-65720000D03*
D11*
X237250000Y-70800000D03*
D10*
X70650000Y-127800000D03*
D11*
X75730000Y-127800000D03*
D12*
X66840000Y-125260000D03*
X73190000Y-122720000D03*
D11*
X65570000Y-127800000D03*
X256250000Y-108800000D03*
D12*
X263870000Y-103720000D03*
D10*
X261330000Y-108800000D03*
D12*
X257520000Y-106260000D03*
D11*
X266410000Y-108800000D03*
D12*
X301870000Y-103720000D03*
X295520000Y-106260000D03*
D11*
X304410000Y-108800000D03*
X294250000Y-108800000D03*
D10*
X299330000Y-108800000D03*
D12*
X123840000Y-125260000D03*
X130190000Y-122720000D03*
D11*
X132730000Y-127800000D03*
D10*
X127650000Y-127800000D03*
D11*
X122570000Y-127800000D03*
X84570000Y-70800000D03*
D12*
X92190000Y-65720000D03*
D10*
X89650000Y-70800000D03*
D12*
X85840000Y-68260000D03*
D11*
X94730000Y-70800000D03*
D12*
X161840000Y-106260000D03*
D10*
X165650000Y-108800000D03*
D12*
X168190000Y-103720000D03*
D11*
X160570000Y-108800000D03*
X170730000Y-108800000D03*
D12*
X339790000Y-65720000D03*
X333440000Y-68260000D03*
D11*
X332170000Y-70800000D03*
X342330000Y-70800000D03*
D10*
X337250000Y-70800000D03*
D11*
X84570000Y-127800000D03*
X94730000Y-127800000D03*
D12*
X92190000Y-122720000D03*
D10*
X89650000Y-127800000D03*
D12*
X85840000Y-125260000D03*
X276520000Y-68260000D03*
X282870000Y-65720000D03*
D11*
X285410000Y-70800000D03*
D10*
X280330000Y-70800000D03*
D11*
X275250000Y-70800000D03*
D12*
X168190000Y-65720000D03*
D10*
X165650000Y-70800000D03*
D11*
X160570000Y-70800000D03*
X170730000Y-70800000D03*
D12*
X161840000Y-68260000D03*
X142840000Y-106260000D03*
X149190000Y-103720000D03*
D11*
X151730000Y-108800000D03*
X141570000Y-108800000D03*
D10*
X146650000Y-108800000D03*
D11*
X342330000Y-127800000D03*
D12*
X333440000Y-125260000D03*
X339790000Y-122720000D03*
D11*
X332170000Y-127800000D03*
D10*
X337250000Y-127800000D03*
D11*
X170730000Y-127800000D03*
D12*
X161840000Y-125260000D03*
D10*
X165650000Y-127800000D03*
D12*
X168190000Y-122720000D03*
D11*
X160570000Y-127800000D03*
D16*
X179000000Y-108300000D03*
X228500000Y-50300000D03*
X228500000Y-108300000D03*
X179000000Y-50300000D03*
D14*
X226868000Y-54988000D03*
D15*
X229408000Y-54988000D03*
X226868000Y-57528000D03*
X229408000Y-57528000D03*
X226868000Y-60068000D03*
X229408000Y-60068000D03*
X226868000Y-62608000D03*
X229408000Y-62608000D03*
X226868000Y-65148000D03*
X229408000Y-65148000D03*
X226868000Y-67688000D03*
X229408000Y-67688000D03*
X226868000Y-70228000D03*
X229408000Y-70228000D03*
X226868000Y-72768000D03*
X229408000Y-72768000D03*
X226868000Y-75308000D03*
X229408000Y-75308000D03*
X226868000Y-77848000D03*
X229408000Y-77848000D03*
X226868000Y-80388000D03*
X229408000Y-80388000D03*
X226868000Y-82928000D03*
X229408000Y-82928000D03*
X226868000Y-85468000D03*
X229408000Y-85468000D03*
X226868000Y-88008000D03*
X229408000Y-88008000D03*
X226868000Y-90548000D03*
X229408000Y-90548000D03*
X226868000Y-93088000D03*
X229408000Y-93088000D03*
X226868000Y-95628000D03*
X229408000Y-95628000D03*
X226868000Y-98168000D03*
X229408000Y-98168000D03*
X226868000Y-100708000D03*
X229408000Y-100708000D03*
X226868000Y-103248000D03*
X229408000Y-103248000D03*
D11*
X247410000Y-51800000D03*
X237250000Y-51800000D03*
D10*
X242330000Y-51800000D03*
D12*
X244870000Y-46720000D03*
X238520000Y-49260000D03*
X73190000Y-46720000D03*
D11*
X75730000Y-51800000D03*
X65570000Y-51800000D03*
D12*
X66840000Y-49260000D03*
D10*
X70650000Y-51800000D03*
D11*
X151730000Y-70800000D03*
D10*
X146650000Y-70800000D03*
D12*
X142840000Y-68260000D03*
X149190000Y-65720000D03*
D11*
X141570000Y-70800000D03*
D12*
X73190000Y-65720000D03*
D10*
X70650000Y-70800000D03*
D11*
X75730000Y-70800000D03*
X65570000Y-70800000D03*
D12*
X66840000Y-68260000D03*
D17*
X207002040Y-65686864D03*
D18*
X220999980Y-85945195D03*
D19*
X201000020Y-85945195D03*
M02*
