%TF.GenerationSoftware,KiCad,Pcbnew,(6.0.10)*%
%TF.CreationDate,2023-08-27T18:13:33-04:00*%
%TF.ProjectId,storyboard,73746f72-7962-46f6-9172-642e6b696361,rev?*%
%TF.SameCoordinates,Original*%
%TF.FileFunction,Drillmap*%
%TF.FilePolarity,Positive*%
%FSLAX45Y45*%
G04 Gerber Fmt 4.5, Leading zero omitted, Abs format (unit mm)*
G04 Created by KiCad (PCBNEW (6.0.10)) date 2023-08-27 18:13:33*
%MOMM*%
%LPD*%
G01*
G04 APERTURE LIST*
%ADD10C,0.200000*%
%ADD11C,0.040000*%
%ADD12C,0.100000*%
%ADD13C,0.110000*%
%ADD14C,0.370000*%
G04 APERTURE END LIST*
D10*
X22240435Y-4271874D02*
X24334753Y-4272499D01*
X24314753Y-13692506D02*
G75*
G03*
X24447756Y-13611854I-13J150016D01*
G01*
X29727431Y-13611229D02*
G75*
G03*
X29168817Y-13611229I-279307J-145645D01*
G01*
X6771125Y-4271874D02*
X6389374Y-4271874D01*
X33716028Y-13611227D02*
G75*
G03*
X33157411Y-13611229I-279308J-145653D01*
G01*
X6164366Y-13466874D02*
G75*
G03*
X6389374Y-13691874I225004J4D01*
G01*
X15639374Y-4272499D02*
X10334185Y-4271874D01*
X18691317Y-4352519D02*
G75*
G03*
X18558313Y-4271874I-133007J-69361D01*
G01*
X21548811Y-4352522D02*
G75*
G03*
X22107431Y-4352519I279310J145652D01*
G01*
X33024408Y-13691874D02*
X29860435Y-13691874D01*
X25006371Y-13611854D02*
G75*
G03*
X24447756Y-13611854I-279307J-145645D01*
G01*
X18691311Y-4352522D02*
G75*
G03*
X19249931Y-4352519I279310J145652D01*
G01*
X6164374Y-13466874D02*
X6164374Y-4496874D01*
X34409374Y-13691874D02*
G75*
G03*
X34634374Y-13466874I-4J225004D01*
G01*
X10938314Y-13691874D02*
X7774340Y-13691874D01*
X31289185Y-4271873D02*
G75*
G03*
X31156181Y-4352519I5J-150008D01*
G01*
X33024408Y-4271874D02*
X31289185Y-4271874D01*
X30464563Y-4271874D02*
X25159374Y-4272499D01*
X10334185Y-4271872D02*
G75*
G03*
X10201181Y-4352519I6J-150008D01*
G01*
X9642567Y-4352519D02*
G75*
G03*
X9509563Y-4271874I-133007J-69361D01*
G01*
X29035813Y-13691875D02*
G75*
G03*
X29168817Y-13611229I-4J150005D01*
G01*
X6949719Y-13691874D02*
X6389374Y-13691874D01*
X18558313Y-4271874D02*
X16463995Y-4272499D01*
X24334753Y-4272499D02*
X25159374Y-4272499D01*
X15659374Y-13692499D02*
X11762935Y-13691874D01*
X19382935Y-4271873D02*
G75*
G03*
X19249931Y-4352519I5J-150008D01*
G01*
X34634376Y-4496874D02*
G75*
G03*
X34409374Y-4271874I-224996J4D01*
G01*
X6389374Y-4271874D02*
G75*
G03*
X6164374Y-4496874I0J-225000D01*
G01*
X9509563Y-4271874D02*
X7595746Y-4271874D01*
X16350992Y-13611854D02*
G75*
G03*
X15792377Y-13611854I-279307J-145645D01*
G01*
X15659374Y-13692498D02*
G75*
G03*
X15792377Y-13611854I-4J150008D01*
G01*
X21548817Y-4352519D02*
G75*
G03*
X21415813Y-4271874I-133007J-69361D01*
G01*
X33024408Y-4271874D02*
X33849029Y-4271874D01*
X24314753Y-13692499D02*
X16483995Y-13692499D01*
X7641337Y-13611229D02*
G75*
G03*
X7082723Y-13611229I-279307J-145641D01*
G01*
X33849029Y-4271874D02*
X34409374Y-4271874D01*
X30597567Y-4352519D02*
G75*
G03*
X30464563Y-4271874I-133007J-69361D01*
G01*
X25006368Y-13611855D02*
G75*
G03*
X25139374Y-13692499I133002J69355D01*
G01*
X33849029Y-13691874D02*
X34409374Y-13691874D01*
X29727429Y-13611230D02*
G75*
G03*
X29860435Y-13691874I133011J69370D01*
G01*
X11629931Y-13611229D02*
G75*
G03*
X11071317Y-13611229I-279307J-145645D01*
G01*
X7595746Y-4271874D02*
X6771125Y-4271874D01*
X6949719Y-13691871D02*
G75*
G03*
X7082723Y-13611229I1J150001D01*
G01*
X34634374Y-13466874D02*
X34634374Y-4496874D01*
X33024408Y-13691875D02*
G75*
G03*
X33157411Y-13611229I2J149995D01*
G01*
X11629929Y-13611230D02*
G75*
G03*
X11762935Y-13691874I133011J69370D01*
G01*
X22240435Y-4271873D02*
G75*
G03*
X22107431Y-4352519I5J-150008D01*
G01*
X21415813Y-4271874D02*
X19382935Y-4271874D01*
X30597560Y-4352522D02*
G75*
G03*
X31156181Y-4352519I279310J145652D01*
G01*
X10938314Y-13691875D02*
G75*
G03*
X11071317Y-13611229I-4J150005D01*
G01*
X25139374Y-13692499D02*
X29035813Y-13691874D01*
X9642567Y-4352519D02*
G75*
G03*
X10201181Y-4352519I279307J145646D01*
G01*
X15639374Y-4272499D02*
X16463995Y-4272499D01*
X7641335Y-13611230D02*
G75*
G03*
X7774340Y-13691874I133005J69360D01*
G01*
X16350991Y-13611854D02*
G75*
G03*
X16483995Y-13692499I133009J69364D01*
G01*
X33716023Y-13611230D02*
G75*
G03*
X33849029Y-13691874I132987J69330D01*
G01*
D11*
X8000000Y-5500000D02*
X8040000Y-5540000D01*
X8040000Y-5500000D02*
X8000000Y-5540000D01*
X8000000Y-7220000D02*
X8040000Y-7260000D01*
X8040000Y-7220000D02*
X8000000Y-7260000D01*
X8000000Y-9180000D02*
X8040000Y-9220000D01*
X8040000Y-9180000D02*
X8000000Y-9220000D01*
X8000000Y-11100000D02*
X8040000Y-11140000D01*
X8040000Y-11100000D02*
X8000000Y-11140000D01*
X8000000Y-13040000D02*
X8040000Y-13080000D01*
X8040000Y-13040000D02*
X8000000Y-13080000D01*
X9900000Y-5490000D02*
X9940000Y-5530000D01*
X9940000Y-5490000D02*
X9900000Y-5530000D01*
X9900000Y-7140000D02*
X9940000Y-7180000D01*
X9940000Y-7140000D02*
X9900000Y-7180000D01*
X9900000Y-9170000D02*
X9940000Y-9210000D01*
X9940000Y-9170000D02*
X9900000Y-9210000D01*
X9900000Y-11130000D02*
X9940000Y-11170000D01*
X9940000Y-11130000D02*
X9900000Y-11170000D01*
X9900000Y-13010000D02*
X9940000Y-13050000D01*
X9940000Y-13010000D02*
X9900000Y-13050000D01*
X11800000Y-5440000D02*
X11840000Y-5480000D01*
X11840000Y-5440000D02*
X11800000Y-5480000D01*
X11800000Y-7200000D02*
X11840000Y-7240000D01*
X11840000Y-7200000D02*
X11800000Y-7240000D01*
X11800000Y-9230000D02*
X11840000Y-9270000D01*
X11840000Y-9230000D02*
X11800000Y-9270000D01*
X11800000Y-11120000D02*
X11840000Y-11160000D01*
X11840000Y-11120000D02*
X11800000Y-11160000D01*
X11800000Y-13030000D02*
X11840000Y-13070000D01*
X11840000Y-13030000D02*
X11800000Y-13070000D01*
X13700000Y-5410000D02*
X13740000Y-5450000D01*
X13740000Y-5410000D02*
X13700000Y-5450000D01*
X13700000Y-7380000D02*
X13740000Y-7420000D01*
X13740000Y-7380000D02*
X13700000Y-7420000D01*
X13700000Y-9270000D02*
X13740000Y-9310000D01*
X13740000Y-9270000D02*
X13700000Y-9310000D01*
X13700000Y-11180000D02*
X13740000Y-11220000D01*
X13740000Y-11180000D02*
X13700000Y-11220000D01*
X13700000Y-13080000D02*
X13740000Y-13120000D01*
X13740000Y-13080000D02*
X13700000Y-13120000D01*
X15600000Y-5410000D02*
X15640000Y-5450000D01*
X15640000Y-5410000D02*
X15600000Y-5450000D01*
X15600000Y-7390000D02*
X15640000Y-7430000D01*
X15640000Y-7390000D02*
X15600000Y-7430000D01*
X15600000Y-9340000D02*
X15640000Y-9380000D01*
X15640000Y-9340000D02*
X15600000Y-9380000D01*
X15600000Y-11290000D02*
X15640000Y-11330000D01*
X15640000Y-11290000D02*
X15600000Y-11330000D01*
X15600000Y-12970000D02*
X15640000Y-13010000D01*
X15640000Y-12970000D02*
X15600000Y-13010000D01*
X17260000Y-5470000D02*
X17300000Y-5510000D01*
X17300000Y-5470000D02*
X17260000Y-5510000D01*
X17260000Y-7400000D02*
X17300000Y-7440000D01*
X17300000Y-7400000D02*
X17260000Y-7440000D01*
X17260000Y-9170000D02*
X17300000Y-9210000D01*
X17300000Y-9170000D02*
X17260000Y-9210000D01*
X17260000Y-11110000D02*
X17300000Y-11150000D01*
X17300000Y-11110000D02*
X17260000Y-11150000D01*
X17260000Y-12920000D02*
X17300000Y-12960000D01*
X17300000Y-12920000D02*
X17260000Y-12960000D01*
X17360000Y-9670000D02*
X17400000Y-9710000D01*
X17400000Y-9670000D02*
X17360000Y-9710000D01*
X17360000Y-11460000D02*
X17400000Y-11500000D01*
X17400000Y-11460000D02*
X17360000Y-11500000D01*
X17460000Y-7760000D02*
X17500000Y-7800000D01*
X17500000Y-7760000D02*
X17460000Y-7800000D01*
X17460000Y-11370000D02*
X17500000Y-11410000D01*
X17500000Y-11370000D02*
X17460000Y-11410000D01*
X17550000Y-5860000D02*
X17590000Y-5900000D01*
X17590000Y-5860000D02*
X17550000Y-5900000D01*
X17550000Y-11290000D02*
X17590000Y-11330000D01*
X17590000Y-11290000D02*
X17550000Y-11330000D01*
X17790000Y-6190000D02*
X17830000Y-6230000D01*
X17830000Y-6190000D02*
X17790000Y-6230000D01*
X17840000Y-12180000D02*
X17880000Y-12220000D01*
X17880000Y-12180000D02*
X17840000Y-12220000D01*
X18090000Y-12360000D02*
X18130000Y-12400000D01*
X18130000Y-12360000D02*
X18090000Y-12400000D01*
X18290000Y-11750000D02*
X18330000Y-11790000D01*
X18330000Y-11750000D02*
X18290000Y-11790000D01*
X18300000Y-7605000D02*
X18340000Y-7645000D01*
X18340000Y-7605000D02*
X18300000Y-7645000D01*
X18330000Y-5960000D02*
X18370000Y-6000000D01*
X18370000Y-5960000D02*
X18330000Y-6000000D01*
X18330000Y-7315000D02*
X18370000Y-7355000D01*
X18370000Y-7315000D02*
X18330000Y-7355000D01*
X18395000Y-10135000D02*
X18435000Y-10175000D01*
X18435000Y-10135000D02*
X18395000Y-10175000D01*
X18395000Y-10705000D02*
X18435000Y-10745000D01*
X18435000Y-10705000D02*
X18395000Y-10745000D01*
X18605000Y-11165000D02*
X18645000Y-11205000D01*
X18645000Y-11165000D02*
X18605000Y-11205000D01*
X18852200Y-8133400D02*
X18892200Y-8173400D01*
X18892200Y-8133400D02*
X18852200Y-8173400D01*
X18852200Y-10978200D02*
X18892200Y-11018200D01*
X18892200Y-10978200D02*
X18852200Y-11018200D01*
X18979200Y-8031800D02*
X19019200Y-8071800D01*
X19019200Y-8031800D02*
X18979200Y-8071800D01*
X18979200Y-10876600D02*
X19019200Y-10916600D01*
X19019200Y-10876600D02*
X18979200Y-10916600D01*
X18980000Y-12605000D02*
X19020000Y-12645000D01*
X19020000Y-12605000D02*
X18980000Y-12645000D01*
X19106200Y-7955600D02*
X19146200Y-7995600D01*
X19146200Y-7955600D02*
X19106200Y-7995600D01*
X19106200Y-10978200D02*
X19146200Y-11018200D01*
X19146200Y-10978200D02*
X19106200Y-11018200D01*
X19175000Y-11145000D02*
X19215000Y-11185000D01*
X19215000Y-11145000D02*
X19175000Y-11185000D01*
X19233200Y-7879400D02*
X19273200Y-7919400D01*
X19273200Y-7879400D02*
X19233200Y-7919400D01*
X19233200Y-10876600D02*
X19273200Y-10916600D01*
X19273200Y-10876600D02*
X19233200Y-10916600D01*
X19385600Y-9479600D02*
X19425600Y-9519600D01*
X19425600Y-9479600D02*
X19385600Y-9519600D01*
X19385600Y-12273600D02*
X19425600Y-12313600D01*
X19425600Y-12273600D02*
X19385600Y-12313600D01*
X19530000Y-11145000D02*
X19570000Y-11185000D01*
X19570000Y-11145000D02*
X19530000Y-11185000D01*
X19530000Y-11855000D02*
X19570000Y-11895000D01*
X19570000Y-11855000D02*
X19530000Y-11895000D01*
X19600000Y-7015000D02*
X19640000Y-7055000D01*
X19640000Y-7015000D02*
X19600000Y-7055000D01*
X19639600Y-11664000D02*
X19679600Y-11704000D01*
X19679600Y-11664000D02*
X19639600Y-11704000D01*
X19665000Y-9635000D02*
X19705000Y-9675000D01*
X19705000Y-9635000D02*
X19665000Y-9675000D01*
X19665000Y-10165400D02*
X19705000Y-10205400D01*
X19705000Y-10165400D02*
X19665000Y-10205400D01*
X19665000Y-12121200D02*
X19705000Y-12161200D01*
X19705000Y-12121200D02*
X19665000Y-12161200D01*
X19766600Y-9911400D02*
X19806600Y-9951400D01*
X19806600Y-9911400D02*
X19766600Y-9951400D01*
X19945000Y-9285000D02*
X19985000Y-9325000D01*
X19985000Y-9285000D02*
X19945000Y-9325000D01*
X19945000Y-9640000D02*
X19985000Y-9680000D01*
X19985000Y-9640000D02*
X19945000Y-9680000D01*
X19985000Y-8340000D02*
X20025000Y-8380000D01*
X20025000Y-8340000D02*
X19985000Y-8380000D01*
X20020000Y-11080000D02*
X20060000Y-11120000D01*
X20060000Y-11080000D02*
X20020000Y-11120000D01*
X20185142Y-8800000D02*
X20225142Y-8840000D01*
X20225142Y-8800000D02*
X20185142Y-8840000D01*
X20205000Y-13140000D02*
X20245000Y-13180000D01*
X20245000Y-13140000D02*
X20205000Y-13180000D01*
X20223800Y-12886200D02*
X20263800Y-12926200D01*
X20263800Y-12886200D02*
X20223800Y-12926200D01*
X20300000Y-8805000D02*
X20340000Y-8845000D01*
X20340000Y-8805000D02*
X20300000Y-8845000D01*
X20370000Y-4395000D02*
X20410000Y-4435000D01*
X20410000Y-4395000D02*
X20370000Y-4435000D01*
X20430000Y-8810000D02*
X20470000Y-8850000D01*
X20470000Y-8810000D02*
X20430000Y-8850000D01*
X20490000Y-4395000D02*
X20530000Y-4435000D01*
X20530000Y-4395000D02*
X20490000Y-4435000D01*
X20515000Y-8910000D02*
X20555000Y-8950000D01*
X20555000Y-8910000D02*
X20515000Y-8950000D01*
X20515000Y-9480000D02*
X20555000Y-9520000D01*
X20555000Y-9480000D02*
X20515000Y-9520000D01*
X20525000Y-7045000D02*
X20565000Y-7085000D01*
X20565000Y-7045000D02*
X20525000Y-7085000D01*
X20525000Y-7445000D02*
X20565000Y-7485000D01*
X20565000Y-7445000D02*
X20525000Y-7485000D01*
X20579400Y-8133400D02*
X20619400Y-8173400D01*
X20619400Y-8133400D02*
X20579400Y-8173400D01*
X20714536Y-11452829D02*
X20754536Y-11492829D01*
X20754536Y-11452829D02*
X20714536Y-11492829D01*
X20715000Y-7955000D02*
X20755000Y-7995000D01*
X20755000Y-7955000D02*
X20715000Y-7995000D01*
X20720000Y-4685000D02*
X20760000Y-4725000D01*
X20760000Y-4685000D02*
X20720000Y-4725000D01*
X20760000Y-12965000D02*
X20800000Y-13005000D01*
X20800000Y-12965000D02*
X20760000Y-13005000D01*
X20830000Y-7610000D02*
X20870000Y-7650000D01*
X20870000Y-7610000D02*
X20830000Y-7650000D01*
X20830000Y-8715000D02*
X20870000Y-8755000D01*
X20870000Y-8715000D02*
X20830000Y-8755000D01*
X20835000Y-9335000D02*
X20875000Y-9375000D01*
X20875000Y-9335000D02*
X20835000Y-9375000D01*
X20960400Y-7752400D02*
X21000400Y-7792400D01*
X21000400Y-7752400D02*
X20960400Y-7792400D01*
X20960400Y-10648000D02*
X21000400Y-10688000D01*
X21000400Y-10648000D02*
X20960400Y-10688000D01*
X21030850Y-8160000D02*
X21070850Y-8200000D01*
X21070850Y-8160000D02*
X21030850Y-8200000D01*
X21065000Y-7480000D02*
X21105000Y-7520000D01*
X21105000Y-7480000D02*
X21065000Y-7520000D01*
X21112800Y-11435400D02*
X21152800Y-11475400D01*
X21152800Y-11435400D02*
X21112800Y-11475400D01*
X21128660Y-8053875D02*
X21168660Y-8093875D01*
X21168660Y-8053875D02*
X21128660Y-8093875D01*
X21239800Y-7854000D02*
X21279800Y-7894000D01*
X21279800Y-7854000D02*
X21239800Y-7894000D01*
X21239800Y-12781600D02*
X21279800Y-12821600D01*
X21279800Y-12781600D02*
X21239800Y-12821600D01*
X21366800Y-9809800D02*
X21406800Y-9849800D01*
X21406800Y-9809800D02*
X21366800Y-9849800D01*
X21366800Y-11791000D02*
X21406800Y-11831000D01*
X21406800Y-11791000D02*
X21366800Y-11831000D01*
X21392200Y-8835000D02*
X21432200Y-8875000D01*
X21432200Y-8835000D02*
X21392200Y-8875000D01*
X21468400Y-9606600D02*
X21508400Y-9646600D01*
X21508400Y-9606600D02*
X21468400Y-9646600D01*
X21570000Y-9708154D02*
X21610000Y-9748154D01*
X21610000Y-9708154D02*
X21570000Y-9748154D01*
X21605000Y-8920000D02*
X21645000Y-8960000D01*
X21645000Y-8920000D02*
X21605000Y-8960000D01*
X21680000Y-11440000D02*
X21720000Y-11480000D01*
X21720000Y-11440000D02*
X21680000Y-11480000D01*
X21715000Y-11860000D02*
X21755000Y-11900000D01*
X21755000Y-11860000D02*
X21715000Y-11900000D01*
X21715000Y-12490000D02*
X21755000Y-12530000D01*
X21755000Y-12490000D02*
X21715000Y-12530000D01*
X21722400Y-11181400D02*
X21762400Y-11221400D01*
X21762400Y-11181400D02*
X21722400Y-11221400D01*
X21745000Y-8570000D02*
X21785000Y-8610000D01*
X21785000Y-8570000D02*
X21745000Y-8610000D01*
X21745000Y-9930000D02*
X21785000Y-9970000D01*
X21785000Y-9930000D02*
X21745000Y-9970000D01*
X21755000Y-6120000D02*
X21795000Y-6160000D01*
X21795000Y-6120000D02*
X21755000Y-6160000D01*
X21755000Y-6550000D02*
X21795000Y-6590000D01*
X21795000Y-6550000D02*
X21755000Y-6590000D01*
X21874800Y-9809800D02*
X21914800Y-9849800D01*
X21914800Y-9809800D02*
X21874800Y-9849800D01*
X21874800Y-11079800D02*
X21914800Y-11119800D01*
X21914800Y-11079800D02*
X21874800Y-11119800D01*
X21879846Y-7986046D02*
X21919846Y-8026046D01*
X21919846Y-7986046D02*
X21879846Y-8026046D01*
X21976400Y-10978200D02*
X22016400Y-11018200D01*
X22016400Y-10978200D02*
X21976400Y-11018200D01*
X21980000Y-7515000D02*
X22020000Y-7555000D01*
X22020000Y-7515000D02*
X21980000Y-7555000D01*
X22078000Y-10876600D02*
X22118000Y-10916600D01*
X22118000Y-10876600D02*
X22078000Y-10916600D01*
X22150000Y-6405000D02*
X22190000Y-6445000D01*
X22190000Y-6405000D02*
X22150000Y-6445000D01*
X22179600Y-10394000D02*
X22219600Y-10434000D01*
X22219600Y-10394000D02*
X22179600Y-10434000D01*
X22260000Y-9610000D02*
X22300000Y-9650000D01*
X22300000Y-9610000D02*
X22260000Y-9650000D01*
X22281200Y-10546400D02*
X22321200Y-10586400D01*
X22321200Y-10546400D02*
X22281200Y-10586400D01*
X22350000Y-8815000D02*
X22390000Y-8855000D01*
X22390000Y-8815000D02*
X22350000Y-8855000D01*
X22450000Y-8717600D02*
X22490000Y-8757600D01*
X22490000Y-8717600D02*
X22450000Y-8757600D01*
X22715000Y-11435000D02*
X22755000Y-11475000D01*
X22755000Y-11435000D02*
X22715000Y-11475000D01*
X23385000Y-6200000D02*
X23425000Y-6240000D01*
X23425000Y-6200000D02*
X23385000Y-6240000D01*
X24590000Y-11740000D02*
X24630000Y-11780000D01*
X24630000Y-11740000D02*
X24590000Y-11780000D01*
X25160000Y-5240000D02*
X25200000Y-5280000D01*
X25200000Y-5240000D02*
X25160000Y-5280000D01*
X25170000Y-7250000D02*
X25210000Y-7290000D01*
X25210000Y-7250000D02*
X25170000Y-7290000D01*
X25170000Y-9180000D02*
X25210000Y-9220000D01*
X25210000Y-9180000D02*
X25170000Y-9220000D01*
X25170000Y-10960000D02*
X25210000Y-11000000D01*
X25210000Y-10960000D02*
X25170000Y-11000000D01*
X25170000Y-12810000D02*
X25210000Y-12850000D01*
X25210000Y-12810000D02*
X25170000Y-12850000D01*
X27070000Y-5310000D02*
X27110000Y-5350000D01*
X27110000Y-5310000D02*
X27070000Y-5350000D01*
X27070000Y-7170000D02*
X27110000Y-7210000D01*
X27110000Y-7170000D02*
X27070000Y-7210000D01*
X27070000Y-9150000D02*
X27110000Y-9190000D01*
X27110000Y-9150000D02*
X27070000Y-9190000D01*
X27070000Y-11070000D02*
X27110000Y-11110000D01*
X27110000Y-11070000D02*
X27070000Y-11110000D01*
X27070000Y-12850000D02*
X27110000Y-12890000D01*
X27110000Y-12850000D02*
X27070000Y-12890000D01*
X28960000Y-5210000D02*
X29000000Y-5250000D01*
X29000000Y-5210000D02*
X28960000Y-5250000D01*
X28960000Y-7140000D02*
X29000000Y-7180000D01*
X29000000Y-7140000D02*
X28960000Y-7180000D01*
X28960000Y-9120000D02*
X29000000Y-9160000D01*
X29000000Y-9120000D02*
X28960000Y-9160000D01*
X28960000Y-11060000D02*
X29000000Y-11100000D01*
X29000000Y-11060000D02*
X28960000Y-11100000D01*
X28960000Y-12850000D02*
X29000000Y-12890000D01*
X29000000Y-12850000D02*
X28960000Y-12890000D01*
X30850000Y-5310000D02*
X30890000Y-5350000D01*
X30890000Y-5310000D02*
X30850000Y-5350000D01*
X30850000Y-7170000D02*
X30890000Y-7210000D01*
X30890000Y-7170000D02*
X30850000Y-7210000D01*
X30850000Y-9100000D02*
X30890000Y-9140000D01*
X30890000Y-9100000D02*
X30850000Y-9140000D01*
X30850000Y-11040000D02*
X30890000Y-11080000D01*
X30890000Y-11040000D02*
X30850000Y-11080000D01*
X30860000Y-12840000D02*
X30900000Y-12880000D01*
X30900000Y-12840000D02*
X30860000Y-12880000D01*
X32750000Y-5330000D02*
X32790000Y-5370000D01*
X32790000Y-5330000D02*
X32750000Y-5370000D01*
X32750000Y-7060000D02*
X32790000Y-7100000D01*
X32790000Y-7060000D02*
X32750000Y-7100000D01*
X32750000Y-9070000D02*
X32790000Y-9110000D01*
X32790000Y-9070000D02*
X32750000Y-9110000D01*
X32750000Y-11000000D02*
X32790000Y-11040000D01*
X32790000Y-11000000D02*
X32750000Y-11040000D01*
X32750000Y-12930000D02*
X32790000Y-12970000D01*
X32790000Y-12930000D02*
X32750000Y-12970000D01*
X34470000Y-5140000D02*
X34510000Y-5180000D01*
X34510000Y-5140000D02*
X34470000Y-5180000D01*
X34470000Y-7080000D02*
X34510000Y-7120000D01*
X34510000Y-7080000D02*
X34470000Y-7120000D01*
X34470000Y-8870000D02*
X34510000Y-8910000D01*
X34510000Y-8870000D02*
X34470000Y-8910000D01*
X34470000Y-10750000D02*
X34510000Y-10790000D01*
X34510000Y-10750000D02*
X34470000Y-10790000D01*
X34470000Y-12690000D02*
X34510000Y-12730000D01*
X34510000Y-12690000D02*
X34470000Y-12730000D01*
D12*
X21436300Y-13309600D02*
G75*
G03*
X21436300Y-13309600I-50000J0D01*
G01*
X21690300Y-13309600D02*
G75*
G03*
X21690300Y-13309600I-50000J0D01*
G01*
X21944300Y-13309600D02*
G75*
G03*
X21944300Y-13309600I-50000J0D01*
G01*
X22198300Y-13309600D02*
G75*
G03*
X22198300Y-13309600I-50000J0D01*
G01*
X22452300Y-13309600D02*
G75*
G03*
X22452300Y-13309600I-50000J0D01*
G01*
X22736800Y-5498800D02*
G75*
G03*
X22736800Y-5498800I-50000J0D01*
G01*
X22736800Y-5752800D02*
G75*
G03*
X22736800Y-5752800I-50000J0D01*
G01*
X22736800Y-6006800D02*
G75*
G03*
X22736800Y-6006800I-50000J0D01*
G01*
X22736800Y-6260800D02*
G75*
G03*
X22736800Y-6260800I-50000J0D01*
G01*
X22736800Y-6514800D02*
G75*
G03*
X22736800Y-6514800I-50000J0D01*
G01*
X22736800Y-6768800D02*
G75*
G03*
X22736800Y-6768800I-50000J0D01*
G01*
X22736800Y-7022800D02*
G75*
G03*
X22736800Y-7022800I-50000J0D01*
G01*
X22736800Y-7276800D02*
G75*
G03*
X22736800Y-7276800I-50000J0D01*
G01*
X22736800Y-7530800D02*
G75*
G03*
X22736800Y-7530800I-50000J0D01*
G01*
X22736800Y-7784800D02*
G75*
G03*
X22736800Y-7784800I-50000J0D01*
G01*
X22736800Y-8038800D02*
G75*
G03*
X22736800Y-8038800I-50000J0D01*
G01*
X22736800Y-8292800D02*
G75*
G03*
X22736800Y-8292800I-50000J0D01*
G01*
X22736800Y-8546800D02*
G75*
G03*
X22736800Y-8546800I-50000J0D01*
G01*
X22736800Y-8800800D02*
G75*
G03*
X22736800Y-8800800I-50000J0D01*
G01*
X22736800Y-9054800D02*
G75*
G03*
X22736800Y-9054800I-50000J0D01*
G01*
X22736800Y-9308800D02*
G75*
G03*
X22736800Y-9308800I-50000J0D01*
G01*
X22736800Y-9562800D02*
G75*
G03*
X22736800Y-9562800I-50000J0D01*
G01*
X22736800Y-9816800D02*
G75*
G03*
X22736800Y-9816800I-50000J0D01*
G01*
X22736800Y-10070800D02*
G75*
G03*
X22736800Y-10070800I-50000J0D01*
G01*
X22736800Y-10324800D02*
G75*
G03*
X22736800Y-10324800I-50000J0D01*
G01*
X22990800Y-5498800D02*
G75*
G03*
X22990800Y-5498800I-50000J0D01*
G01*
X22990800Y-5752800D02*
G75*
G03*
X22990800Y-5752800I-50000J0D01*
G01*
X22990800Y-6006800D02*
G75*
G03*
X22990800Y-6006800I-50000J0D01*
G01*
X22990800Y-6260800D02*
G75*
G03*
X22990800Y-6260800I-50000J0D01*
G01*
X22990800Y-6514800D02*
G75*
G03*
X22990800Y-6514800I-50000J0D01*
G01*
X22990800Y-6768800D02*
G75*
G03*
X22990800Y-6768800I-50000J0D01*
G01*
X22990800Y-7022800D02*
G75*
G03*
X22990800Y-7022800I-50000J0D01*
G01*
X22990800Y-7276800D02*
G75*
G03*
X22990800Y-7276800I-50000J0D01*
G01*
X22990800Y-7530800D02*
G75*
G03*
X22990800Y-7530800I-50000J0D01*
G01*
X22990800Y-7784800D02*
G75*
G03*
X22990800Y-7784800I-50000J0D01*
G01*
X22990800Y-8038800D02*
G75*
G03*
X22990800Y-8038800I-50000J0D01*
G01*
X22990800Y-8292800D02*
G75*
G03*
X22990800Y-8292800I-50000J0D01*
G01*
X22990800Y-8546800D02*
G75*
G03*
X22990800Y-8546800I-50000J0D01*
G01*
X22990800Y-8800800D02*
G75*
G03*
X22990800Y-8800800I-50000J0D01*
G01*
X22990800Y-9054800D02*
G75*
G03*
X22990800Y-9054800I-50000J0D01*
G01*
X22990800Y-9308800D02*
G75*
G03*
X22990800Y-9308800I-50000J0D01*
G01*
X22990800Y-9562800D02*
G75*
G03*
X22990800Y-9562800I-50000J0D01*
G01*
X22990800Y-9816800D02*
G75*
G03*
X22990800Y-9816800I-50000J0D01*
G01*
X22990800Y-10070800D02*
G75*
G03*
X22990800Y-10070800I-50000J0D01*
G01*
X22990800Y-10324800D02*
G75*
G03*
X22990800Y-10324800I-50000J0D01*
G01*
D13*
X17895000Y-12840000D02*
X17895000Y-12950000D01*
X17840000Y-12895000D02*
X17950000Y-12895000D01*
X17895000Y-13290000D02*
X17895000Y-13400000D01*
X17840000Y-13345000D02*
X17950000Y-13345000D01*
X18545000Y-12840000D02*
X18545000Y-12950000D01*
X18490000Y-12895000D02*
X18600000Y-12895000D01*
X18545000Y-13290000D02*
X18545000Y-13400000D01*
X18490000Y-13345000D02*
X18600000Y-13345000D01*
X19015000Y-12840000D02*
X19015000Y-12950000D01*
X18960000Y-12895000D02*
X19070000Y-12895000D01*
X19015000Y-13290000D02*
X19015000Y-13400000D01*
X18960000Y-13345000D02*
X19070000Y-13345000D01*
X19665000Y-12840000D02*
X19665000Y-12950000D01*
X19610000Y-12895000D02*
X19720000Y-12895000D01*
X19665000Y-13290000D02*
X19665000Y-13400000D01*
X19610000Y-13345000D02*
X19720000Y-13345000D01*
D14*
X20831020Y-6699502D02*
X20831020Y-6437870D01*
X20569388Y-6437870D01*
X20569388Y-6699502D01*
X20831020Y-6699502D01*
D10*
X6411993Y-14012975D02*
X6411993Y-13812975D01*
X6459612Y-13812975D01*
X6488183Y-13822499D01*
X6507231Y-13841547D01*
X6516755Y-13860594D01*
X6526279Y-13898689D01*
X6526279Y-13927261D01*
X6516755Y-13965356D01*
X6507231Y-13984404D01*
X6488183Y-14003451D01*
X6459612Y-14012975D01*
X6411993Y-14012975D01*
X6611993Y-14012975D02*
X6611993Y-13879642D01*
X6611993Y-13917737D02*
X6621517Y-13898689D01*
X6631041Y-13889166D01*
X6650088Y-13879642D01*
X6669136Y-13879642D01*
X6735802Y-14012975D02*
X6735802Y-13879642D01*
X6735802Y-13812975D02*
X6726279Y-13822499D01*
X6735802Y-13832023D01*
X6745326Y-13822499D01*
X6735802Y-13812975D01*
X6735802Y-13832023D01*
X6859612Y-14012975D02*
X6840564Y-14003451D01*
X6831041Y-13984404D01*
X6831041Y-13812975D01*
X6964374Y-14012975D02*
X6945326Y-14003451D01*
X6935802Y-13984404D01*
X6935802Y-13812975D01*
X7192945Y-14012975D02*
X7192945Y-13812975D01*
X7259612Y-13955832D01*
X7326279Y-13812975D01*
X7326279Y-14012975D01*
X7507231Y-14012975D02*
X7507231Y-13908213D01*
X7497707Y-13889166D01*
X7478660Y-13879642D01*
X7440564Y-13879642D01*
X7421517Y-13889166D01*
X7507231Y-14003451D02*
X7488183Y-14012975D01*
X7440564Y-14012975D01*
X7421517Y-14003451D01*
X7411993Y-13984404D01*
X7411993Y-13965356D01*
X7421517Y-13946308D01*
X7440564Y-13936785D01*
X7488183Y-13936785D01*
X7507231Y-13927261D01*
X7602469Y-13879642D02*
X7602469Y-14079642D01*
X7602469Y-13889166D02*
X7621517Y-13879642D01*
X7659612Y-13879642D01*
X7678660Y-13889166D01*
X7688183Y-13898689D01*
X7697707Y-13917737D01*
X7697707Y-13974880D01*
X7688183Y-13993927D01*
X7678660Y-14003451D01*
X7659612Y-14012975D01*
X7621517Y-14012975D01*
X7602469Y-14003451D01*
X7783422Y-13993927D02*
X7792945Y-14003451D01*
X7783422Y-14012975D01*
X7773898Y-14003451D01*
X7783422Y-13993927D01*
X7783422Y-14012975D01*
X7783422Y-13889166D02*
X7792945Y-13898689D01*
X7783422Y-13908213D01*
X7773898Y-13898689D01*
X7783422Y-13889166D01*
X7783422Y-13908213D01*
D11*
X6114374Y-14322499D02*
X6154374Y-14362499D01*
X6154374Y-14322499D02*
X6114374Y-14362499D01*
D10*
X6450088Y-14232975D02*
X6469136Y-14232975D01*
X6488183Y-14242499D01*
X6497707Y-14252023D01*
X6507231Y-14271070D01*
X6516755Y-14309166D01*
X6516755Y-14356785D01*
X6507231Y-14394880D01*
X6497707Y-14413927D01*
X6488183Y-14423451D01*
X6469136Y-14432975D01*
X6450088Y-14432975D01*
X6431041Y-14423451D01*
X6421517Y-14413927D01*
X6411993Y-14394880D01*
X6402469Y-14356785D01*
X6402469Y-14309166D01*
X6411993Y-14271070D01*
X6421517Y-14252023D01*
X6431041Y-14242499D01*
X6450088Y-14232975D01*
X6602469Y-14413927D02*
X6611993Y-14423451D01*
X6602469Y-14432975D01*
X6592945Y-14423451D01*
X6602469Y-14413927D01*
X6602469Y-14432975D01*
X6783422Y-14299642D02*
X6783422Y-14432975D01*
X6735802Y-14223451D02*
X6688183Y-14366308D01*
X6811993Y-14366308D01*
X6926279Y-14232975D02*
X6945326Y-14232975D01*
X6964374Y-14242499D01*
X6973898Y-14252023D01*
X6983422Y-14271070D01*
X6992945Y-14309166D01*
X6992945Y-14356785D01*
X6983422Y-14394880D01*
X6973898Y-14413927D01*
X6964374Y-14423451D01*
X6945326Y-14432975D01*
X6926279Y-14432975D01*
X6907231Y-14423451D01*
X6897707Y-14413927D01*
X6888183Y-14394880D01*
X6878660Y-14356785D01*
X6878660Y-14309166D01*
X6888183Y-14271070D01*
X6897707Y-14252023D01*
X6907231Y-14242499D01*
X6926279Y-14232975D01*
X7116755Y-14232975D02*
X7135802Y-14232975D01*
X7154850Y-14242499D01*
X7164374Y-14252023D01*
X7173898Y-14271070D01*
X7183422Y-14309166D01*
X7183422Y-14356785D01*
X7173898Y-14394880D01*
X7164374Y-14413927D01*
X7154850Y-14423451D01*
X7135802Y-14432975D01*
X7116755Y-14432975D01*
X7097707Y-14423451D01*
X7088183Y-14413927D01*
X7078660Y-14394880D01*
X7069136Y-14356785D01*
X7069136Y-14309166D01*
X7078660Y-14271070D01*
X7088183Y-14252023D01*
X7097707Y-14242499D01*
X7116755Y-14232975D01*
X7269136Y-14432975D02*
X7269136Y-14299642D01*
X7269136Y-14318689D02*
X7278660Y-14309166D01*
X7297707Y-14299642D01*
X7326279Y-14299642D01*
X7345326Y-14309166D01*
X7354850Y-14328213D01*
X7354850Y-14432975D01*
X7354850Y-14328213D02*
X7364374Y-14309166D01*
X7383422Y-14299642D01*
X7411993Y-14299642D01*
X7431041Y-14309166D01*
X7440564Y-14328213D01*
X7440564Y-14432975D01*
X7535802Y-14432975D02*
X7535802Y-14299642D01*
X7535802Y-14318689D02*
X7545326Y-14309166D01*
X7564374Y-14299642D01*
X7592945Y-14299642D01*
X7611993Y-14309166D01*
X7621517Y-14328213D01*
X7621517Y-14432975D01*
X7621517Y-14328213D02*
X7631041Y-14309166D01*
X7650088Y-14299642D01*
X7678660Y-14299642D01*
X7697707Y-14309166D01*
X7707231Y-14328213D01*
X7707231Y-14432975D01*
X8097707Y-14223451D02*
X7926279Y-14480594D01*
X8354850Y-14232975D02*
X8373898Y-14232975D01*
X8392945Y-14242499D01*
X8402469Y-14252023D01*
X8411993Y-14271070D01*
X8421517Y-14309166D01*
X8421517Y-14356785D01*
X8411993Y-14394880D01*
X8402469Y-14413927D01*
X8392945Y-14423451D01*
X8373898Y-14432975D01*
X8354850Y-14432975D01*
X8335802Y-14423451D01*
X8326279Y-14413927D01*
X8316755Y-14394880D01*
X8307231Y-14356785D01*
X8307231Y-14309166D01*
X8316755Y-14271070D01*
X8326279Y-14252023D01*
X8335802Y-14242499D01*
X8354850Y-14232975D01*
X8507231Y-14413927D02*
X8516755Y-14423451D01*
X8507231Y-14432975D01*
X8497707Y-14423451D01*
X8507231Y-14413927D01*
X8507231Y-14432975D01*
X8640564Y-14232975D02*
X8659612Y-14232975D01*
X8678660Y-14242499D01*
X8688184Y-14252023D01*
X8697707Y-14271070D01*
X8707231Y-14309166D01*
X8707231Y-14356785D01*
X8697707Y-14394880D01*
X8688184Y-14413927D01*
X8678660Y-14423451D01*
X8659612Y-14432975D01*
X8640564Y-14432975D01*
X8621517Y-14423451D01*
X8611993Y-14413927D01*
X8602469Y-14394880D01*
X8592945Y-14356785D01*
X8592945Y-14309166D01*
X8602469Y-14271070D01*
X8611993Y-14252023D01*
X8621517Y-14242499D01*
X8640564Y-14232975D01*
X8897707Y-14432975D02*
X8783422Y-14432975D01*
X8840564Y-14432975D02*
X8840564Y-14232975D01*
X8821517Y-14261547D01*
X8802469Y-14280594D01*
X8783422Y-14290118D01*
X9078660Y-14232975D02*
X8983422Y-14232975D01*
X8973898Y-14328213D01*
X8983422Y-14318689D01*
X9002469Y-14309166D01*
X9050088Y-14309166D01*
X9069136Y-14318689D01*
X9078660Y-14328213D01*
X9088184Y-14347261D01*
X9088184Y-14394880D01*
X9078660Y-14413927D01*
X9069136Y-14423451D01*
X9050088Y-14432975D01*
X9002469Y-14432975D01*
X8983422Y-14423451D01*
X8973898Y-14413927D01*
X9154850Y-14232975D02*
X9288184Y-14232975D01*
X9202469Y-14432975D01*
X9354850Y-14232975D02*
X9354850Y-14271070D01*
X9431041Y-14232975D02*
X9431041Y-14271070D01*
X9726279Y-14509166D02*
X9716755Y-14499642D01*
X9697707Y-14471070D01*
X9688184Y-14452023D01*
X9678660Y-14423451D01*
X9669136Y-14375832D01*
X9669136Y-14337737D01*
X9678660Y-14290118D01*
X9688184Y-14261547D01*
X9697707Y-14242499D01*
X9716755Y-14213927D01*
X9726279Y-14204404D01*
X9907231Y-14432975D02*
X9792945Y-14432975D01*
X9850088Y-14432975D02*
X9850088Y-14232975D01*
X9831041Y-14261547D01*
X9811993Y-14280594D01*
X9792945Y-14290118D01*
X10088184Y-14232975D02*
X9992945Y-14232975D01*
X9983422Y-14328213D01*
X9992945Y-14318689D01*
X10011993Y-14309166D01*
X10059612Y-14309166D01*
X10078660Y-14318689D01*
X10088184Y-14328213D01*
X10097707Y-14347261D01*
X10097707Y-14394880D01*
X10088184Y-14413927D01*
X10078660Y-14423451D01*
X10059612Y-14432975D01*
X10011993Y-14432975D01*
X9992945Y-14423451D01*
X9983422Y-14413927D01*
X10269136Y-14232975D02*
X10231041Y-14232975D01*
X10211993Y-14242499D01*
X10202469Y-14252023D01*
X10183422Y-14280594D01*
X10173898Y-14318689D01*
X10173898Y-14394880D01*
X10183422Y-14413927D01*
X10192945Y-14423451D01*
X10211993Y-14432975D01*
X10250088Y-14432975D01*
X10269136Y-14423451D01*
X10278660Y-14413927D01*
X10288184Y-14394880D01*
X10288184Y-14347261D01*
X10278660Y-14328213D01*
X10269136Y-14318689D01*
X10250088Y-14309166D01*
X10211993Y-14309166D01*
X10192945Y-14318689D01*
X10183422Y-14328213D01*
X10173898Y-14347261D01*
X10526279Y-14432975D02*
X10526279Y-14232975D01*
X10611993Y-14432975D02*
X10611993Y-14328213D01*
X10602469Y-14309166D01*
X10583422Y-14299642D01*
X10554850Y-14299642D01*
X10535803Y-14309166D01*
X10526279Y-14318689D01*
X10735803Y-14432975D02*
X10716755Y-14423451D01*
X10707231Y-14413927D01*
X10697707Y-14394880D01*
X10697707Y-14337737D01*
X10707231Y-14318689D01*
X10716755Y-14309166D01*
X10735803Y-14299642D01*
X10764374Y-14299642D01*
X10783422Y-14309166D01*
X10792945Y-14318689D01*
X10802469Y-14337737D01*
X10802469Y-14394880D01*
X10792945Y-14413927D01*
X10783422Y-14423451D01*
X10764374Y-14432975D01*
X10735803Y-14432975D01*
X10916755Y-14432975D02*
X10897707Y-14423451D01*
X10888184Y-14404404D01*
X10888184Y-14232975D01*
X11069136Y-14423451D02*
X11050088Y-14432975D01*
X11011993Y-14432975D01*
X10992945Y-14423451D01*
X10983422Y-14404404D01*
X10983422Y-14328213D01*
X10992945Y-14309166D01*
X11011993Y-14299642D01*
X11050088Y-14299642D01*
X11069136Y-14309166D01*
X11078660Y-14328213D01*
X11078660Y-14347261D01*
X10983422Y-14366308D01*
X11154850Y-14423451D02*
X11173898Y-14432975D01*
X11211993Y-14432975D01*
X11231041Y-14423451D01*
X11240564Y-14404404D01*
X11240564Y-14394880D01*
X11231041Y-14375832D01*
X11211993Y-14366308D01*
X11183422Y-14366308D01*
X11164374Y-14356785D01*
X11154850Y-14337737D01*
X11154850Y-14328213D01*
X11164374Y-14309166D01*
X11183422Y-14299642D01*
X11211993Y-14299642D01*
X11231041Y-14309166D01*
X11307231Y-14509166D02*
X11316755Y-14499642D01*
X11335802Y-14471070D01*
X11345326Y-14452023D01*
X11354850Y-14423451D01*
X11364374Y-14375832D01*
X11364374Y-14337737D01*
X11354850Y-14290118D01*
X11345326Y-14261547D01*
X11335802Y-14242499D01*
X11316755Y-14213927D01*
X11307231Y-14204404D01*
D12*
X6154374Y-14606499D02*
G75*
G03*
X6154374Y-14606499I-50000J0D01*
G01*
D10*
X6516755Y-14696975D02*
X6402469Y-14696975D01*
X6459612Y-14696975D02*
X6459612Y-14496975D01*
X6440564Y-14525547D01*
X6421517Y-14544594D01*
X6402469Y-14554118D01*
X6602469Y-14677927D02*
X6611993Y-14687451D01*
X6602469Y-14696975D01*
X6592945Y-14687451D01*
X6602469Y-14677927D01*
X6602469Y-14696975D01*
X6735802Y-14496975D02*
X6754850Y-14496975D01*
X6773898Y-14506499D01*
X6783422Y-14516023D01*
X6792945Y-14535070D01*
X6802469Y-14573166D01*
X6802469Y-14620785D01*
X6792945Y-14658880D01*
X6783422Y-14677927D01*
X6773898Y-14687451D01*
X6754850Y-14696975D01*
X6735802Y-14696975D01*
X6716755Y-14687451D01*
X6707231Y-14677927D01*
X6697707Y-14658880D01*
X6688183Y-14620785D01*
X6688183Y-14573166D01*
X6697707Y-14535070D01*
X6707231Y-14516023D01*
X6716755Y-14506499D01*
X6735802Y-14496975D01*
X6926279Y-14496975D02*
X6945326Y-14496975D01*
X6964374Y-14506499D01*
X6973898Y-14516023D01*
X6983422Y-14535070D01*
X6992945Y-14573166D01*
X6992945Y-14620785D01*
X6983422Y-14658880D01*
X6973898Y-14677927D01*
X6964374Y-14687451D01*
X6945326Y-14696975D01*
X6926279Y-14696975D01*
X6907231Y-14687451D01*
X6897707Y-14677927D01*
X6888183Y-14658880D01*
X6878660Y-14620785D01*
X6878660Y-14573166D01*
X6888183Y-14535070D01*
X6897707Y-14516023D01*
X6907231Y-14506499D01*
X6926279Y-14496975D01*
X7116755Y-14496975D02*
X7135802Y-14496975D01*
X7154850Y-14506499D01*
X7164374Y-14516023D01*
X7173898Y-14535070D01*
X7183422Y-14573166D01*
X7183422Y-14620785D01*
X7173898Y-14658880D01*
X7164374Y-14677927D01*
X7154850Y-14687451D01*
X7135802Y-14696975D01*
X7116755Y-14696975D01*
X7097707Y-14687451D01*
X7088183Y-14677927D01*
X7078660Y-14658880D01*
X7069136Y-14620785D01*
X7069136Y-14573166D01*
X7078660Y-14535070D01*
X7088183Y-14516023D01*
X7097707Y-14506499D01*
X7116755Y-14496975D01*
X7269136Y-14696975D02*
X7269136Y-14563642D01*
X7269136Y-14582689D02*
X7278660Y-14573166D01*
X7297707Y-14563642D01*
X7326279Y-14563642D01*
X7345326Y-14573166D01*
X7354850Y-14592213D01*
X7354850Y-14696975D01*
X7354850Y-14592213D02*
X7364374Y-14573166D01*
X7383422Y-14563642D01*
X7411993Y-14563642D01*
X7431041Y-14573166D01*
X7440564Y-14592213D01*
X7440564Y-14696975D01*
X7535802Y-14696975D02*
X7535802Y-14563642D01*
X7535802Y-14582689D02*
X7545326Y-14573166D01*
X7564374Y-14563642D01*
X7592945Y-14563642D01*
X7611993Y-14573166D01*
X7621517Y-14592213D01*
X7621517Y-14696975D01*
X7621517Y-14592213D02*
X7631041Y-14573166D01*
X7650088Y-14563642D01*
X7678660Y-14563642D01*
X7697707Y-14573166D01*
X7707231Y-14592213D01*
X7707231Y-14696975D01*
X8097707Y-14487451D02*
X7926279Y-14744594D01*
X8354850Y-14496975D02*
X8373898Y-14496975D01*
X8392945Y-14506499D01*
X8402469Y-14516023D01*
X8411993Y-14535070D01*
X8421517Y-14573166D01*
X8421517Y-14620785D01*
X8411993Y-14658880D01*
X8402469Y-14677927D01*
X8392945Y-14687451D01*
X8373898Y-14696975D01*
X8354850Y-14696975D01*
X8335802Y-14687451D01*
X8326279Y-14677927D01*
X8316755Y-14658880D01*
X8307231Y-14620785D01*
X8307231Y-14573166D01*
X8316755Y-14535070D01*
X8326279Y-14516023D01*
X8335802Y-14506499D01*
X8354850Y-14496975D01*
X8507231Y-14677927D02*
X8516755Y-14687451D01*
X8507231Y-14696975D01*
X8497707Y-14687451D01*
X8507231Y-14677927D01*
X8507231Y-14696975D01*
X8640564Y-14496975D02*
X8659612Y-14496975D01*
X8678660Y-14506499D01*
X8688184Y-14516023D01*
X8697707Y-14535070D01*
X8707231Y-14573166D01*
X8707231Y-14620785D01*
X8697707Y-14658880D01*
X8688184Y-14677927D01*
X8678660Y-14687451D01*
X8659612Y-14696975D01*
X8640564Y-14696975D01*
X8621517Y-14687451D01*
X8611993Y-14677927D01*
X8602469Y-14658880D01*
X8592945Y-14620785D01*
X8592945Y-14573166D01*
X8602469Y-14535070D01*
X8611993Y-14516023D01*
X8621517Y-14506499D01*
X8640564Y-14496975D01*
X8773898Y-14496975D02*
X8897707Y-14496975D01*
X8831041Y-14573166D01*
X8859612Y-14573166D01*
X8878660Y-14582689D01*
X8888184Y-14592213D01*
X8897707Y-14611261D01*
X8897707Y-14658880D01*
X8888184Y-14677927D01*
X8878660Y-14687451D01*
X8859612Y-14696975D01*
X8802469Y-14696975D01*
X8783422Y-14687451D01*
X8773898Y-14677927D01*
X8992945Y-14696975D02*
X9031041Y-14696975D01*
X9050088Y-14687451D01*
X9059612Y-14677927D01*
X9078660Y-14649356D01*
X9088184Y-14611261D01*
X9088184Y-14535070D01*
X9078660Y-14516023D01*
X9069136Y-14506499D01*
X9050088Y-14496975D01*
X9011993Y-14496975D01*
X8992945Y-14506499D01*
X8983422Y-14516023D01*
X8973898Y-14535070D01*
X8973898Y-14582689D01*
X8983422Y-14601737D01*
X8992945Y-14611261D01*
X9011993Y-14620785D01*
X9050088Y-14620785D01*
X9069136Y-14611261D01*
X9078660Y-14601737D01*
X9088184Y-14582689D01*
X9259612Y-14563642D02*
X9259612Y-14696975D01*
X9211993Y-14487451D02*
X9164374Y-14630308D01*
X9288184Y-14630308D01*
X9354850Y-14496975D02*
X9354850Y-14535070D01*
X9431041Y-14496975D02*
X9431041Y-14535070D01*
X9726279Y-14773166D02*
X9716755Y-14763642D01*
X9697707Y-14735070D01*
X9688184Y-14716023D01*
X9678660Y-14687451D01*
X9669136Y-14639832D01*
X9669136Y-14601737D01*
X9678660Y-14554118D01*
X9688184Y-14525547D01*
X9697707Y-14506499D01*
X9716755Y-14477927D01*
X9726279Y-14468404D01*
X9888184Y-14563642D02*
X9888184Y-14696975D01*
X9840564Y-14487451D02*
X9792945Y-14630308D01*
X9916755Y-14630308D01*
X10088184Y-14496975D02*
X9992945Y-14496975D01*
X9983422Y-14592213D01*
X9992945Y-14582689D01*
X10011993Y-14573166D01*
X10059612Y-14573166D01*
X10078660Y-14582689D01*
X10088184Y-14592213D01*
X10097707Y-14611261D01*
X10097707Y-14658880D01*
X10088184Y-14677927D01*
X10078660Y-14687451D01*
X10059612Y-14696975D01*
X10011993Y-14696975D01*
X9992945Y-14687451D01*
X9983422Y-14677927D01*
X10335803Y-14696975D02*
X10335803Y-14496975D01*
X10421517Y-14696975D02*
X10421517Y-14592213D01*
X10411993Y-14573166D01*
X10392945Y-14563642D01*
X10364374Y-14563642D01*
X10345326Y-14573166D01*
X10335803Y-14582689D01*
X10545326Y-14696975D02*
X10526279Y-14687451D01*
X10516755Y-14677927D01*
X10507231Y-14658880D01*
X10507231Y-14601737D01*
X10516755Y-14582689D01*
X10526279Y-14573166D01*
X10545326Y-14563642D01*
X10573898Y-14563642D01*
X10592945Y-14573166D01*
X10602469Y-14582689D01*
X10611993Y-14601737D01*
X10611993Y-14658880D01*
X10602469Y-14677927D01*
X10592945Y-14687451D01*
X10573898Y-14696975D01*
X10545326Y-14696975D01*
X10726279Y-14696975D02*
X10707231Y-14687451D01*
X10697707Y-14668404D01*
X10697707Y-14496975D01*
X10878660Y-14687451D02*
X10859612Y-14696975D01*
X10821517Y-14696975D01*
X10802469Y-14687451D01*
X10792945Y-14668404D01*
X10792945Y-14592213D01*
X10802469Y-14573166D01*
X10821517Y-14563642D01*
X10859612Y-14563642D01*
X10878660Y-14573166D01*
X10888184Y-14592213D01*
X10888184Y-14611261D01*
X10792945Y-14630308D01*
X10964374Y-14687451D02*
X10983422Y-14696975D01*
X11021517Y-14696975D01*
X11040564Y-14687451D01*
X11050088Y-14668404D01*
X11050088Y-14658880D01*
X11040564Y-14639832D01*
X11021517Y-14630308D01*
X10992945Y-14630308D01*
X10973898Y-14620785D01*
X10964374Y-14601737D01*
X10964374Y-14592213D01*
X10973898Y-14573166D01*
X10992945Y-14563642D01*
X11021517Y-14563642D01*
X11040564Y-14573166D01*
X11116755Y-14773166D02*
X11126279Y-14763642D01*
X11145326Y-14735070D01*
X11154850Y-14716023D01*
X11164374Y-14687451D01*
X11173898Y-14639832D01*
X11173898Y-14601737D01*
X11164374Y-14554118D01*
X11154850Y-14525547D01*
X11145326Y-14506499D01*
X11126279Y-14477927D01*
X11116755Y-14468404D01*
D13*
X6099374Y-14815499D02*
X6099374Y-14925499D01*
X6044374Y-14870499D02*
X6154374Y-14870499D01*
D10*
X6516755Y-14960975D02*
X6402469Y-14960975D01*
X6459612Y-14960975D02*
X6459612Y-14760975D01*
X6440564Y-14789547D01*
X6421517Y-14808594D01*
X6402469Y-14818118D01*
X6602469Y-14941927D02*
X6611993Y-14951451D01*
X6602469Y-14960975D01*
X6592945Y-14951451D01*
X6602469Y-14941927D01*
X6602469Y-14960975D01*
X6802469Y-14960975D02*
X6688183Y-14960975D01*
X6745326Y-14960975D02*
X6745326Y-14760975D01*
X6726279Y-14789547D01*
X6707231Y-14808594D01*
X6688183Y-14818118D01*
X6926279Y-14760975D02*
X6945326Y-14760975D01*
X6964374Y-14770499D01*
X6973898Y-14780023D01*
X6983422Y-14799070D01*
X6992945Y-14837166D01*
X6992945Y-14884785D01*
X6983422Y-14922880D01*
X6973898Y-14941927D01*
X6964374Y-14951451D01*
X6945326Y-14960975D01*
X6926279Y-14960975D01*
X6907231Y-14951451D01*
X6897707Y-14941927D01*
X6888183Y-14922880D01*
X6878660Y-14884785D01*
X6878660Y-14837166D01*
X6888183Y-14799070D01*
X6897707Y-14780023D01*
X6907231Y-14770499D01*
X6926279Y-14760975D01*
X7116755Y-14760975D02*
X7135802Y-14760975D01*
X7154850Y-14770499D01*
X7164374Y-14780023D01*
X7173898Y-14799070D01*
X7183422Y-14837166D01*
X7183422Y-14884785D01*
X7173898Y-14922880D01*
X7164374Y-14941927D01*
X7154850Y-14951451D01*
X7135802Y-14960975D01*
X7116755Y-14960975D01*
X7097707Y-14951451D01*
X7088183Y-14941927D01*
X7078660Y-14922880D01*
X7069136Y-14884785D01*
X7069136Y-14837166D01*
X7078660Y-14799070D01*
X7088183Y-14780023D01*
X7097707Y-14770499D01*
X7116755Y-14760975D01*
X7269136Y-14960975D02*
X7269136Y-14827642D01*
X7269136Y-14846689D02*
X7278660Y-14837166D01*
X7297707Y-14827642D01*
X7326279Y-14827642D01*
X7345326Y-14837166D01*
X7354850Y-14856213D01*
X7354850Y-14960975D01*
X7354850Y-14856213D02*
X7364374Y-14837166D01*
X7383422Y-14827642D01*
X7411993Y-14827642D01*
X7431041Y-14837166D01*
X7440564Y-14856213D01*
X7440564Y-14960975D01*
X7535802Y-14960975D02*
X7535802Y-14827642D01*
X7535802Y-14846689D02*
X7545326Y-14837166D01*
X7564374Y-14827642D01*
X7592945Y-14827642D01*
X7611993Y-14837166D01*
X7621517Y-14856213D01*
X7621517Y-14960975D01*
X7621517Y-14856213D02*
X7631041Y-14837166D01*
X7650088Y-14827642D01*
X7678660Y-14827642D01*
X7697707Y-14837166D01*
X7707231Y-14856213D01*
X7707231Y-14960975D01*
X8097707Y-14751451D02*
X7926279Y-15008594D01*
X8354850Y-14760975D02*
X8373898Y-14760975D01*
X8392945Y-14770499D01*
X8402469Y-14780023D01*
X8411993Y-14799070D01*
X8421517Y-14837166D01*
X8421517Y-14884785D01*
X8411993Y-14922880D01*
X8402469Y-14941927D01*
X8392945Y-14951451D01*
X8373898Y-14960975D01*
X8354850Y-14960975D01*
X8335802Y-14951451D01*
X8326279Y-14941927D01*
X8316755Y-14922880D01*
X8307231Y-14884785D01*
X8307231Y-14837166D01*
X8316755Y-14799070D01*
X8326279Y-14780023D01*
X8335802Y-14770499D01*
X8354850Y-14760975D01*
X8507231Y-14941927D02*
X8516755Y-14951451D01*
X8507231Y-14960975D01*
X8497707Y-14951451D01*
X8507231Y-14941927D01*
X8507231Y-14960975D01*
X8640564Y-14760975D02*
X8659612Y-14760975D01*
X8678660Y-14770499D01*
X8688184Y-14780023D01*
X8697707Y-14799070D01*
X8707231Y-14837166D01*
X8707231Y-14884785D01*
X8697707Y-14922880D01*
X8688184Y-14941927D01*
X8678660Y-14951451D01*
X8659612Y-14960975D01*
X8640564Y-14960975D01*
X8621517Y-14951451D01*
X8611993Y-14941927D01*
X8602469Y-14922880D01*
X8592945Y-14884785D01*
X8592945Y-14837166D01*
X8602469Y-14799070D01*
X8611993Y-14780023D01*
X8621517Y-14770499D01*
X8640564Y-14760975D01*
X8878660Y-14827642D02*
X8878660Y-14960975D01*
X8831041Y-14751451D02*
X8783422Y-14894308D01*
X8907231Y-14894308D01*
X8964374Y-14760975D02*
X9088184Y-14760975D01*
X9021517Y-14837166D01*
X9050088Y-14837166D01*
X9069136Y-14846689D01*
X9078660Y-14856213D01*
X9088184Y-14875261D01*
X9088184Y-14922880D01*
X9078660Y-14941927D01*
X9069136Y-14951451D01*
X9050088Y-14960975D01*
X8992945Y-14960975D01*
X8973898Y-14951451D01*
X8964374Y-14941927D01*
X9154850Y-14760975D02*
X9278660Y-14760975D01*
X9211993Y-14837166D01*
X9240564Y-14837166D01*
X9259612Y-14846689D01*
X9269136Y-14856213D01*
X9278660Y-14875261D01*
X9278660Y-14922880D01*
X9269136Y-14941927D01*
X9259612Y-14951451D01*
X9240564Y-14960975D01*
X9183422Y-14960975D01*
X9164374Y-14951451D01*
X9154850Y-14941927D01*
X9354850Y-14760975D02*
X9354850Y-14799070D01*
X9431041Y-14760975D02*
X9431041Y-14799070D01*
X9726279Y-15037166D02*
X9716755Y-15027642D01*
X9697707Y-14999070D01*
X9688184Y-14980023D01*
X9678660Y-14951451D01*
X9669136Y-14903832D01*
X9669136Y-14865737D01*
X9678660Y-14818118D01*
X9688184Y-14789547D01*
X9697707Y-14770499D01*
X9716755Y-14741927D01*
X9726279Y-14732404D01*
X9831041Y-14846689D02*
X9811993Y-14837166D01*
X9802469Y-14827642D01*
X9792945Y-14808594D01*
X9792945Y-14799070D01*
X9802469Y-14780023D01*
X9811993Y-14770499D01*
X9831041Y-14760975D01*
X9869136Y-14760975D01*
X9888184Y-14770499D01*
X9897707Y-14780023D01*
X9907231Y-14799070D01*
X9907231Y-14808594D01*
X9897707Y-14827642D01*
X9888184Y-14837166D01*
X9869136Y-14846689D01*
X9831041Y-14846689D01*
X9811993Y-14856213D01*
X9802469Y-14865737D01*
X9792945Y-14884785D01*
X9792945Y-14922880D01*
X9802469Y-14941927D01*
X9811993Y-14951451D01*
X9831041Y-14960975D01*
X9869136Y-14960975D01*
X9888184Y-14951451D01*
X9897707Y-14941927D01*
X9907231Y-14922880D01*
X9907231Y-14884785D01*
X9897707Y-14865737D01*
X9888184Y-14856213D01*
X9869136Y-14846689D01*
X10145326Y-14960975D02*
X10145326Y-14760975D01*
X10231041Y-14960975D02*
X10231041Y-14856213D01*
X10221517Y-14837166D01*
X10202469Y-14827642D01*
X10173898Y-14827642D01*
X10154850Y-14837166D01*
X10145326Y-14846689D01*
X10354850Y-14960975D02*
X10335803Y-14951451D01*
X10326279Y-14941927D01*
X10316755Y-14922880D01*
X10316755Y-14865737D01*
X10326279Y-14846689D01*
X10335803Y-14837166D01*
X10354850Y-14827642D01*
X10383422Y-14827642D01*
X10402469Y-14837166D01*
X10411993Y-14846689D01*
X10421517Y-14865737D01*
X10421517Y-14922880D01*
X10411993Y-14941927D01*
X10402469Y-14951451D01*
X10383422Y-14960975D01*
X10354850Y-14960975D01*
X10535803Y-14960975D02*
X10516755Y-14951451D01*
X10507231Y-14932404D01*
X10507231Y-14760975D01*
X10688184Y-14951451D02*
X10669136Y-14960975D01*
X10631041Y-14960975D01*
X10611993Y-14951451D01*
X10602469Y-14932404D01*
X10602469Y-14856213D01*
X10611993Y-14837166D01*
X10631041Y-14827642D01*
X10669136Y-14827642D01*
X10688184Y-14837166D01*
X10697707Y-14856213D01*
X10697707Y-14875261D01*
X10602469Y-14894308D01*
X10773898Y-14951451D02*
X10792945Y-14960975D01*
X10831041Y-14960975D01*
X10850088Y-14951451D01*
X10859612Y-14932404D01*
X10859612Y-14922880D01*
X10850088Y-14903832D01*
X10831041Y-14894308D01*
X10802469Y-14894308D01*
X10783422Y-14884785D01*
X10773898Y-14865737D01*
X10773898Y-14856213D01*
X10783422Y-14837166D01*
X10802469Y-14827642D01*
X10831041Y-14827642D01*
X10850088Y-14837166D01*
X10926279Y-15037166D02*
X10935803Y-15027642D01*
X10954850Y-14999070D01*
X10964374Y-14980023D01*
X10973898Y-14951451D01*
X10983422Y-14903832D01*
X10983422Y-14865737D01*
X10973898Y-14818118D01*
X10964374Y-14789547D01*
X10954850Y-14770499D01*
X10935803Y-14741927D01*
X10926279Y-14732404D01*
X6125085Y-15205210D02*
X6125085Y-15063788D01*
X5983663Y-15063788D01*
X5983663Y-15205210D01*
X6125085Y-15205210D01*
X6392945Y-15024975D02*
X6516755Y-15024975D01*
X6450088Y-15101166D01*
X6478660Y-15101166D01*
X6497707Y-15110689D01*
X6507231Y-15120213D01*
X6516755Y-15139261D01*
X6516755Y-15186880D01*
X6507231Y-15205927D01*
X6497707Y-15215451D01*
X6478660Y-15224975D01*
X6421517Y-15224975D01*
X6402469Y-15215451D01*
X6392945Y-15205927D01*
X6602469Y-15205927D02*
X6611993Y-15215451D01*
X6602469Y-15224975D01*
X6592945Y-15215451D01*
X6602469Y-15205927D01*
X6602469Y-15224975D01*
X6678660Y-15024975D02*
X6811993Y-15024975D01*
X6726279Y-15224975D01*
X6926279Y-15024975D02*
X6945326Y-15024975D01*
X6964374Y-15034499D01*
X6973898Y-15044023D01*
X6983422Y-15063070D01*
X6992945Y-15101166D01*
X6992945Y-15148785D01*
X6983422Y-15186880D01*
X6973898Y-15205927D01*
X6964374Y-15215451D01*
X6945326Y-15224975D01*
X6926279Y-15224975D01*
X6907231Y-15215451D01*
X6897707Y-15205927D01*
X6888183Y-15186880D01*
X6878660Y-15148785D01*
X6878660Y-15101166D01*
X6888183Y-15063070D01*
X6897707Y-15044023D01*
X6907231Y-15034499D01*
X6926279Y-15024975D01*
X7116755Y-15024975D02*
X7135802Y-15024975D01*
X7154850Y-15034499D01*
X7164374Y-15044023D01*
X7173898Y-15063070D01*
X7183422Y-15101166D01*
X7183422Y-15148785D01*
X7173898Y-15186880D01*
X7164374Y-15205927D01*
X7154850Y-15215451D01*
X7135802Y-15224975D01*
X7116755Y-15224975D01*
X7097707Y-15215451D01*
X7088183Y-15205927D01*
X7078660Y-15186880D01*
X7069136Y-15148785D01*
X7069136Y-15101166D01*
X7078660Y-15063070D01*
X7088183Y-15044023D01*
X7097707Y-15034499D01*
X7116755Y-15024975D01*
X7269136Y-15224975D02*
X7269136Y-15091642D01*
X7269136Y-15110689D02*
X7278660Y-15101166D01*
X7297707Y-15091642D01*
X7326279Y-15091642D01*
X7345326Y-15101166D01*
X7354850Y-15120213D01*
X7354850Y-15224975D01*
X7354850Y-15120213D02*
X7364374Y-15101166D01*
X7383422Y-15091642D01*
X7411993Y-15091642D01*
X7431041Y-15101166D01*
X7440564Y-15120213D01*
X7440564Y-15224975D01*
X7535802Y-15224975D02*
X7535802Y-15091642D01*
X7535802Y-15110689D02*
X7545326Y-15101166D01*
X7564374Y-15091642D01*
X7592945Y-15091642D01*
X7611993Y-15101166D01*
X7621517Y-15120213D01*
X7621517Y-15224975D01*
X7621517Y-15120213D02*
X7631041Y-15101166D01*
X7650088Y-15091642D01*
X7678660Y-15091642D01*
X7697707Y-15101166D01*
X7707231Y-15120213D01*
X7707231Y-15224975D01*
X8097707Y-15015451D02*
X7926279Y-15272594D01*
X8354850Y-15024975D02*
X8373898Y-15024975D01*
X8392945Y-15034499D01*
X8402469Y-15044023D01*
X8411993Y-15063070D01*
X8421517Y-15101166D01*
X8421517Y-15148785D01*
X8411993Y-15186880D01*
X8402469Y-15205927D01*
X8392945Y-15215451D01*
X8373898Y-15224975D01*
X8354850Y-15224975D01*
X8335802Y-15215451D01*
X8326279Y-15205927D01*
X8316755Y-15186880D01*
X8307231Y-15148785D01*
X8307231Y-15101166D01*
X8316755Y-15063070D01*
X8326279Y-15044023D01*
X8335802Y-15034499D01*
X8354850Y-15024975D01*
X8507231Y-15205927D02*
X8516755Y-15215451D01*
X8507231Y-15224975D01*
X8497707Y-15215451D01*
X8507231Y-15205927D01*
X8507231Y-15224975D01*
X8707231Y-15224975D02*
X8592945Y-15224975D01*
X8650088Y-15224975D02*
X8650088Y-15024975D01*
X8631041Y-15053547D01*
X8611993Y-15072594D01*
X8592945Y-15082118D01*
X8878660Y-15091642D02*
X8878660Y-15224975D01*
X8831041Y-15015451D02*
X8783422Y-15158308D01*
X8907231Y-15158308D01*
X9078660Y-15024975D02*
X8983422Y-15024975D01*
X8973898Y-15120213D01*
X8983422Y-15110689D01*
X9002469Y-15101166D01*
X9050088Y-15101166D01*
X9069136Y-15110689D01*
X9078660Y-15120213D01*
X9088184Y-15139261D01*
X9088184Y-15186880D01*
X9078660Y-15205927D01*
X9069136Y-15215451D01*
X9050088Y-15224975D01*
X9002469Y-15224975D01*
X8983422Y-15215451D01*
X8973898Y-15205927D01*
X9154850Y-15024975D02*
X9288184Y-15024975D01*
X9202469Y-15224975D01*
X9354850Y-15024975D02*
X9354850Y-15063070D01*
X9431041Y-15024975D02*
X9431041Y-15063070D01*
X9726279Y-15301166D02*
X9716755Y-15291642D01*
X9697707Y-15263070D01*
X9688184Y-15244023D01*
X9678660Y-15215451D01*
X9669136Y-15167832D01*
X9669136Y-15129737D01*
X9678660Y-15082118D01*
X9688184Y-15053547D01*
X9697707Y-15034499D01*
X9716755Y-15005927D01*
X9726279Y-14996404D01*
X9907231Y-15224975D02*
X9792945Y-15224975D01*
X9850088Y-15224975D02*
X9850088Y-15024975D01*
X9831041Y-15053547D01*
X9811993Y-15072594D01*
X9792945Y-15082118D01*
X10145326Y-15224975D02*
X10145326Y-15024975D01*
X10231041Y-15224975D02*
X10231041Y-15120213D01*
X10221517Y-15101166D01*
X10202469Y-15091642D01*
X10173898Y-15091642D01*
X10154850Y-15101166D01*
X10145326Y-15110689D01*
X10354850Y-15224975D02*
X10335803Y-15215451D01*
X10326279Y-15205927D01*
X10316755Y-15186880D01*
X10316755Y-15129737D01*
X10326279Y-15110689D01*
X10335803Y-15101166D01*
X10354850Y-15091642D01*
X10383422Y-15091642D01*
X10402469Y-15101166D01*
X10411993Y-15110689D01*
X10421517Y-15129737D01*
X10421517Y-15186880D01*
X10411993Y-15205927D01*
X10402469Y-15215451D01*
X10383422Y-15224975D01*
X10354850Y-15224975D01*
X10535803Y-15224975D02*
X10516755Y-15215451D01*
X10507231Y-15196404D01*
X10507231Y-15024975D01*
X10688184Y-15215451D02*
X10669136Y-15224975D01*
X10631041Y-15224975D01*
X10611993Y-15215451D01*
X10602469Y-15196404D01*
X10602469Y-15120213D01*
X10611993Y-15101166D01*
X10631041Y-15091642D01*
X10669136Y-15091642D01*
X10688184Y-15101166D01*
X10697707Y-15120213D01*
X10697707Y-15139261D01*
X10602469Y-15158308D01*
X10764374Y-15301166D02*
X10773898Y-15291642D01*
X10792945Y-15263070D01*
X10802469Y-15244023D01*
X10811993Y-15215451D01*
X10821517Y-15167832D01*
X10821517Y-15129737D01*
X10811993Y-15082118D01*
X10802469Y-15053547D01*
X10792945Y-15034499D01*
X10773898Y-15005927D01*
X10764374Y-14996404D01*
M02*
