G04 #@! TF.GenerationSoftware,KiCad,Pcbnew,(6.0.10)*
G04 #@! TF.CreationDate,2023-08-27T18:11:45-04:00*
G04 #@! TF.ProjectId,storyboard,73746f72-7962-46f6-9172-642e6b696361,rev?*
G04 #@! TF.SameCoordinates,Original*
G04 #@! TF.FileFunction,Copper,L1,Top*
G04 #@! TF.FilePolarity,Positive*
%FSLAX46Y46*%
G04 Gerber Fmt 4.6, Leading zero omitted, Abs format (unit mm)*
G04 Created by KiCad (PCBNEW (6.0.10)) date 2023-08-27 18:11:45*
%MOMM*%
%LPD*%
G01*
G04 APERTURE LIST*
G04 #@! TA.AperFunction,ComponentPad*
%ADD10C,2.000000*%
G04 #@! TD*
G04 #@! TA.AperFunction,ComponentPad*
%ADD11R,1.700000X1.700000*%
G04 #@! TD*
G04 #@! TA.AperFunction,ComponentPad*
%ADD12O,1.700000X1.700000*%
G04 #@! TD*
G04 #@! TA.AperFunction,ComponentPad*
%ADD13C,6.000000*%
G04 #@! TD*
G04 #@! TA.AperFunction,ViaPad*
%ADD14C,0.800000*%
G04 #@! TD*
G04 #@! TA.AperFunction,Conductor*
%ADD15C,0.250000*%
G04 #@! TD*
G04 #@! TA.AperFunction,Conductor*
%ADD16C,0.200000*%
G04 #@! TD*
G04 APERTURE END LIST*
D10*
X190150000Y-128950000D03*
X196650000Y-128950000D03*
X196650000Y-133450000D03*
X190150000Y-133450000D03*
X178950000Y-128950000D03*
X185450000Y-128950000D03*
X178950000Y-133450000D03*
X185450000Y-133450000D03*
D11*
X224023000Y-133096000D03*
D12*
X221483000Y-133096000D03*
X218943000Y-133096000D03*
X216403000Y-133096000D03*
X213863000Y-133096000D03*
D11*
X226868000Y-54988000D03*
D12*
X229408000Y-54988000D03*
X226868000Y-57528000D03*
X229408000Y-57528000D03*
X226868000Y-60068000D03*
X229408000Y-60068000D03*
X226868000Y-62608000D03*
X229408000Y-62608000D03*
X226868000Y-65148000D03*
X229408000Y-65148000D03*
X226868000Y-67688000D03*
X229408000Y-67688000D03*
X226868000Y-70228000D03*
X229408000Y-70228000D03*
X226868000Y-72768000D03*
X229408000Y-72768000D03*
X226868000Y-75308000D03*
X229408000Y-75308000D03*
X226868000Y-77848000D03*
X229408000Y-77848000D03*
X226868000Y-80388000D03*
X229408000Y-80388000D03*
X226868000Y-82928000D03*
X229408000Y-82928000D03*
X226868000Y-85468000D03*
X229408000Y-85468000D03*
X226868000Y-88008000D03*
X229408000Y-88008000D03*
X226868000Y-90548000D03*
X229408000Y-90548000D03*
X226868000Y-93088000D03*
X229408000Y-93088000D03*
X226868000Y-95628000D03*
X229408000Y-95628000D03*
X226868000Y-98168000D03*
X229408000Y-98168000D03*
X226868000Y-100708000D03*
X229408000Y-100708000D03*
X226868000Y-103248000D03*
X229408000Y-103248000D03*
D13*
X207002040Y-65686864D03*
D14*
X184150000Y-107250000D03*
X195500000Y-111650000D03*
X195500000Y-118750000D03*
X217750000Y-65700000D03*
X217350000Y-125100000D03*
X183500000Y-59800000D03*
X217350000Y-118800000D03*
X196850000Y-101854000D03*
X191950000Y-111650000D03*
X210508500Y-81800000D03*
X202250000Y-131600000D03*
X210850000Y-75000000D03*
X205450000Y-70650000D03*
X199650000Y-96600000D03*
X184150000Y-101550000D03*
X217750000Y-61400000D03*
X205350000Y-95000000D03*
X205450000Y-74650000D03*
X183500000Y-73350000D03*
X196850000Y-96550000D03*
X199650000Y-93050000D03*
X207800000Y-129850000D03*
X205350000Y-89300000D03*
X200400000Y-111000000D03*
X208550000Y-93550000D03*
X200050000Y-83600000D03*
X217000000Y-114600000D03*
X211328000Y-114554000D03*
X227350000Y-114550000D03*
X186250000Y-111850000D03*
X221700000Y-64250000D03*
X196596000Y-116840000D03*
X190000000Y-126250000D03*
X220000000Y-75350000D03*
X234050000Y-62200000D03*
X196850000Y-121412000D03*
X178600000Y-122000000D03*
X181100000Y-123800000D03*
X196200000Y-70350000D03*
X178100000Y-62100000D03*
X204500000Y-88300000D03*
X207400000Y-47050000D03*
X80200000Y-55200000D03*
X80200000Y-92000000D03*
X80200000Y-72400000D03*
X80200000Y-130600000D03*
X80200000Y-111200000D03*
X192532000Y-108966000D03*
X192532000Y-78994000D03*
X246100000Y-117600000D03*
X224700000Y-87376000D03*
X183100000Y-117700000D03*
X208500000Y-76300000D03*
X208500000Y-87350000D03*
X183200000Y-76250000D03*
X175700000Y-113100000D03*
X175700000Y-58800000D03*
X174800000Y-77800000D03*
X174800000Y-113900000D03*
X173800000Y-114800000D03*
X173800000Y-96900000D03*
X191262000Y-109982000D03*
X99200000Y-91900000D03*
X99200000Y-111500000D03*
X191262000Y-79756000D03*
X99200000Y-71600000D03*
X99200000Y-55100000D03*
X99200000Y-130300000D03*
X118200000Y-130500000D03*
X118200000Y-111400000D03*
X118200000Y-72200000D03*
X189992000Y-80518000D03*
X118200000Y-54600000D03*
X118200000Y-92500000D03*
X189992000Y-108966000D03*
X188722000Y-81534000D03*
X137200000Y-54300000D03*
X137200000Y-131000000D03*
X137200000Y-74000000D03*
X188722000Y-109982000D03*
X137200000Y-92900000D03*
X137200000Y-112000000D03*
X156200000Y-113100000D03*
X156200000Y-93600000D03*
X156200000Y-129900000D03*
X156200000Y-54300000D03*
X156200000Y-74100000D03*
X172800000Y-74200000D03*
X172800000Y-111300000D03*
X172800000Y-129400000D03*
X172800000Y-91900000D03*
X172800000Y-54900000D03*
X251900000Y-92000000D03*
X251900000Y-128300000D03*
X251900000Y-72700000D03*
X251900000Y-109800000D03*
X223012000Y-105664000D03*
X251800000Y-52600000D03*
X270900000Y-91700000D03*
X270900000Y-128700000D03*
X270900000Y-53300000D03*
X221996000Y-104140000D03*
X270900000Y-71900000D03*
X270900000Y-110900000D03*
X289800000Y-52300000D03*
X289800000Y-71600000D03*
X289800000Y-110800000D03*
X289800000Y-91400000D03*
X220980000Y-108966000D03*
X289800000Y-128700000D03*
X308700000Y-71900000D03*
X308700000Y-53300000D03*
X308700000Y-110600000D03*
X219964000Y-109982000D03*
X308700000Y-91200000D03*
X308800000Y-128600000D03*
X327700000Y-129500000D03*
X218948000Y-110998000D03*
X327700000Y-53500000D03*
X327700000Y-110200000D03*
X327700000Y-90900000D03*
X327700000Y-70800000D03*
X344900000Y-127100000D03*
X217424000Y-112014000D03*
X344900000Y-107700000D03*
X344900000Y-51600000D03*
X344900000Y-71000000D03*
X344900000Y-88900000D03*
X215900000Y-97281538D03*
X214884000Y-96266000D03*
X205100000Y-44150000D03*
X203200000Y-88250000D03*
X203900000Y-44150000D03*
X202051424Y-88200000D03*
X214122000Y-88550000D03*
X194056000Y-94996000D03*
X194056000Y-122936000D03*
X205994000Y-81534000D03*
X211486595Y-80738755D03*
X223700000Y-88350000D03*
X222800000Y-96300000D03*
X216250000Y-89400000D03*
X202438000Y-129062000D03*
X217650000Y-85900000D03*
X197866000Y-99314000D03*
X217650000Y-99500000D03*
X207345361Y-114728288D03*
X207350000Y-79750000D03*
X209804000Y-106680000D03*
X209804000Y-77724000D03*
X218948000Y-98298000D03*
X213868000Y-118110000D03*
X213868000Y-98298000D03*
X218998460Y-80060460D03*
X212598000Y-128016000D03*
X212598000Y-78740000D03*
D15*
X210508500Y-81800000D02*
X210508500Y-79641500D01*
X199650000Y-93050000D02*
X199650000Y-96600000D01*
X191950000Y-111650000D02*
X187900000Y-111650000D01*
X217750000Y-61400000D02*
X217750000Y-65700000D01*
X210850000Y-79300000D02*
X210850000Y-75000000D01*
X184150000Y-107900000D02*
X184150000Y-107250000D01*
X203000000Y-130850000D02*
X202250000Y-131600000D01*
X183500000Y-73350000D02*
X183500000Y-59800000D01*
X187500000Y-111250000D02*
X184150000Y-107900000D01*
X184150000Y-107250000D02*
X184150000Y-101550000D01*
X217350000Y-118800000D02*
X217350000Y-125100000D01*
X210750000Y-79400000D02*
X210850000Y-79300000D01*
X195500000Y-111650000D02*
X195500000Y-118750000D01*
X206800000Y-130850000D02*
X203000000Y-130850000D01*
X210508500Y-79641500D02*
X210750000Y-79400000D01*
X205450000Y-70650000D02*
X205450000Y-74650000D01*
X207800000Y-129850000D02*
X206800000Y-130850000D01*
X187900000Y-111650000D02*
X187500000Y-111250000D01*
X205350000Y-95000000D02*
X205350000Y-89300000D01*
X196850000Y-101854000D02*
X196850000Y-96550000D01*
X207400000Y-50410000D02*
X202692000Y-55118000D01*
X207400000Y-47050000D02*
X207400000Y-50410000D01*
X202692000Y-69596000D02*
X204500000Y-71404000D01*
X204500000Y-71404000D02*
X204500000Y-88300000D01*
X202692000Y-55118000D02*
X202692000Y-69596000D01*
X80200000Y-111200000D02*
X80200000Y-130600000D01*
X80200000Y-92000000D02*
X80200000Y-111200000D01*
X80200000Y-55200000D02*
X80200000Y-72400000D01*
X192532000Y-78994000D02*
X192532000Y-108966000D01*
X80200000Y-72400000D02*
X80200000Y-92000000D01*
X183100000Y-114850000D02*
X183100000Y-76350000D01*
X183100000Y-117700000D02*
X183100000Y-114850000D01*
X228090000Y-117600000D02*
X246100000Y-117600000D01*
X224700000Y-87376000D02*
X224700000Y-114210000D01*
X183100000Y-76350000D02*
X183200000Y-76250000D01*
X224700000Y-114210000D02*
X228090000Y-117600000D01*
X208500000Y-76300000D02*
X208500000Y-87350000D01*
X175700000Y-113100000D02*
X175700000Y-58800000D01*
X174800000Y-113900000D02*
X174800000Y-77800000D01*
X173800000Y-96900000D02*
X173800000Y-114800000D01*
X99200000Y-71600000D02*
X99200000Y-91900000D01*
X99200000Y-55100000D02*
X99200000Y-71600000D01*
X99200000Y-111500000D02*
X99200000Y-130300000D01*
X191262000Y-79756000D02*
X191262000Y-109982000D01*
X99200000Y-91900000D02*
X99200000Y-111500000D01*
X118200000Y-54600000D02*
X118200000Y-72200000D01*
X118200000Y-111400000D02*
X118200000Y-130500000D01*
X118200000Y-92500000D02*
X118200000Y-111400000D01*
X118200000Y-72200000D02*
X118200000Y-92500000D01*
X189992000Y-80518000D02*
X189992000Y-108966000D01*
X137200000Y-112000000D02*
X137200000Y-131000000D01*
X188722000Y-109982000D02*
X188722000Y-81534000D01*
X137200000Y-54300000D02*
X137200000Y-74000000D01*
X137200000Y-92900000D02*
X137200000Y-112000000D01*
X137200000Y-74000000D02*
X137200000Y-92900000D01*
X156200000Y-54300000D02*
X156200000Y-74100000D01*
X156200000Y-74100000D02*
X156200000Y-93600000D01*
X156200000Y-113100000D02*
X156200000Y-129900000D01*
X156200000Y-93600000D02*
X156200000Y-113100000D01*
X172800000Y-91900000D02*
X172800000Y-111300000D01*
X172800000Y-74200000D02*
X172800000Y-91900000D01*
X172800000Y-54900000D02*
X172800000Y-74200000D01*
X172800000Y-129400000D02*
X172800000Y-111300000D01*
X251800000Y-72600000D02*
X251900000Y-72700000D01*
X248794000Y-119000000D02*
X251900000Y-122106000D01*
X223012000Y-115062000D02*
X226950000Y-119000000D01*
X226950000Y-119000000D02*
X248794000Y-119000000D01*
X223012000Y-105664000D02*
X223012000Y-115062000D01*
X251800000Y-52600000D02*
X251800000Y-72600000D01*
X251900000Y-122106000D02*
X251900000Y-128300000D01*
X251900000Y-109800000D02*
X251900000Y-128300000D01*
X251900000Y-72700000D02*
X251900000Y-92000000D01*
X251900000Y-92000000D02*
X251900000Y-109800000D01*
X270900000Y-53300000D02*
X270900000Y-71900000D01*
X270900000Y-121300000D02*
X270900000Y-128700000D01*
X270900000Y-121300000D02*
X270900000Y-110900000D01*
X270900000Y-71900000D02*
X270900000Y-91700000D01*
X268900000Y-130700000D02*
X270900000Y-128700000D01*
X221996000Y-115946000D02*
X236750000Y-130700000D01*
X221996000Y-104140000D02*
X221996000Y-115946000D01*
X270900000Y-91700000D02*
X270900000Y-110900000D01*
X236750000Y-130700000D02*
X268900000Y-130700000D01*
X220980000Y-108966000D02*
X220980000Y-116230000D01*
X289800000Y-52300000D02*
X289800000Y-71600000D01*
X287300000Y-131200000D02*
X289800000Y-128700000D01*
X235950000Y-131200000D02*
X287300000Y-131200000D01*
X289800000Y-71600000D02*
X289800000Y-91400000D01*
X289800000Y-128700000D02*
X289800000Y-110800000D01*
X289800000Y-91400000D02*
X289800000Y-110800000D01*
X220980000Y-116230000D02*
X235950000Y-131200000D01*
X219964000Y-109982000D02*
X219964000Y-116364000D01*
X305600000Y-131800000D02*
X308800000Y-128600000D01*
X308800000Y-128600000D02*
X308700000Y-128500000D01*
X235400000Y-131800000D02*
X305600000Y-131800000D01*
X308700000Y-71900000D02*
X308700000Y-91200000D01*
X308700000Y-91200000D02*
X308700000Y-110600000D01*
X308700000Y-128500000D02*
X308700000Y-110600000D01*
X219964000Y-116364000D02*
X235400000Y-131800000D01*
X308700000Y-53300000D02*
X308700000Y-71900000D01*
X327700000Y-90900000D02*
X327700000Y-110200000D01*
X327700000Y-53500000D02*
X327700000Y-70800000D01*
X327700000Y-129500000D02*
X327700000Y-110200000D01*
X218948000Y-116598000D02*
X235050000Y-132700000D01*
X324500000Y-132700000D02*
X327700000Y-129500000D01*
X235050000Y-132700000D02*
X324500000Y-132700000D01*
X218948000Y-110998000D02*
X218948000Y-116598000D01*
X327700000Y-70800000D02*
X327700000Y-90900000D01*
X217424000Y-112014000D02*
X218150000Y-112740000D01*
X234500000Y-133400000D02*
X341700000Y-133400000D01*
X341700000Y-133400000D02*
X344900000Y-130200000D01*
X218150000Y-112740000D02*
X218150000Y-117050000D01*
X344900000Y-88900000D02*
X344900000Y-107700000D01*
X344900000Y-51600000D02*
X344900000Y-71000000D01*
X218150000Y-117050000D02*
X234500000Y-133400000D01*
X344900000Y-130200000D02*
X344900000Y-127100000D01*
X344900000Y-107700000D02*
X344900000Y-127100000D01*
X344900000Y-88900000D02*
X344900000Y-71000000D01*
X215900000Y-97281538D02*
X215700000Y-97481538D01*
X215700000Y-97481538D02*
X215700000Y-125276000D01*
X215700000Y-125276000D02*
X221483000Y-131059000D01*
X221483000Y-131059000D02*
X221483000Y-133096000D01*
X218943000Y-130297000D02*
X218943000Y-133096000D01*
X214884000Y-126238000D02*
X218943000Y-130297000D01*
X214884000Y-96266000D02*
X214884000Y-126238000D01*
D16*
X201930000Y-83730000D02*
X201930000Y-51308000D01*
X203200000Y-85000000D02*
X201930000Y-83730000D01*
X203200000Y-88250000D02*
X203200000Y-85000000D01*
X201930000Y-51308000D02*
X205100000Y-48138000D01*
X205100000Y-48138000D02*
X205100000Y-44150000D01*
X203900000Y-48800000D02*
X203900000Y-44150000D01*
X202051424Y-84551424D02*
X201422000Y-83922000D01*
X201422000Y-83922000D02*
X201422000Y-51278000D01*
X201422000Y-51278000D02*
X203900000Y-48800000D01*
X202051424Y-88200000D02*
X202051424Y-84551424D01*
D15*
X214122000Y-77724000D02*
X215258801Y-76587199D01*
X214122000Y-88550000D02*
X214122000Y-77724000D01*
X231273199Y-76587199D02*
X232156000Y-77470000D01*
X232156000Y-78994000D02*
X230762000Y-80388000D01*
X232156000Y-77470000D02*
X232156000Y-78994000D01*
X215258801Y-76587199D02*
X231273199Y-76587199D01*
X230762000Y-80388000D02*
X229408000Y-80388000D01*
X194056000Y-122936000D02*
X194056000Y-94996000D01*
X205994000Y-76256000D02*
X214562000Y-67688000D01*
X205994000Y-81534000D02*
X205994000Y-76256000D01*
X214562000Y-67688000D02*
X226868000Y-67688000D01*
X211486595Y-80738755D02*
X211486595Y-76549405D01*
X213978963Y-74057037D02*
X228157037Y-74057037D01*
X228157037Y-74057037D02*
X229408000Y-75308000D01*
X211486595Y-76549405D02*
X213978963Y-74057037D01*
X223700000Y-88350000D02*
X223700000Y-85650000D01*
X228136000Y-84200000D02*
X229408000Y-82928000D01*
X225150000Y-84200000D02*
X228136000Y-84200000D01*
X223700000Y-85650000D02*
X225150000Y-84200000D01*
X222800000Y-96300000D02*
X222750000Y-96250000D01*
X222750000Y-96250000D02*
X222750000Y-85200000D01*
X222750000Y-85200000D02*
X225022000Y-82928000D01*
X225022000Y-82928000D02*
X226868000Y-82928000D01*
X216250000Y-79650000D02*
X218052000Y-77848000D01*
X218052000Y-77848000D02*
X226868000Y-77848000D01*
X216250000Y-89400000D02*
X216250000Y-79650000D01*
X217650000Y-85900000D02*
X217650000Y-99500000D01*
X197866000Y-112776000D02*
X197866000Y-99314000D01*
X202438000Y-117348000D02*
X197866000Y-112776000D01*
X202438000Y-129062000D02*
X202438000Y-117348000D01*
X207351144Y-81954856D02*
X207351144Y-114722505D01*
X207350000Y-79750000D02*
X207350000Y-81953712D01*
X207350000Y-81953712D02*
X207351144Y-81954856D01*
X207351144Y-114722505D02*
X207345361Y-114728288D01*
X209804000Y-106680000D02*
X209804000Y-77724000D01*
X218948000Y-98298000D02*
X218948000Y-80110920D01*
X218948000Y-80110920D02*
X218998460Y-80060460D01*
X213868000Y-98298000D02*
X213868000Y-118110000D01*
X204470000Y-136144000D02*
X187706000Y-136144000D01*
X212598000Y-128016000D02*
X212598000Y-78740000D01*
X187706000Y-136144000D02*
X185450000Y-133888000D01*
X185450000Y-133888000D02*
X185450000Y-133450000D01*
X212598000Y-128016000D02*
X204470000Y-136144000D01*
G04 #@! TA.AperFunction,Conductor*
G36*
X203304771Y-43247242D02*
G01*
X203351264Y-43300898D01*
X203361368Y-43371172D01*
X203331874Y-43435752D01*
X203310715Y-43455173D01*
X203288747Y-43471134D01*
X203160960Y-43613056D01*
X203157659Y-43618774D01*
X203071214Y-43768501D01*
X203065473Y-43778444D01*
X203006458Y-43960072D01*
X202986496Y-44150000D01*
X203006458Y-44339928D01*
X203065473Y-44521556D01*
X203160960Y-44686944D01*
X203165378Y-44691851D01*
X203165379Y-44691852D01*
X203259136Y-44795980D01*
X203289854Y-44859987D01*
X203291500Y-44880290D01*
X203291500Y-48495761D01*
X203271498Y-48563882D01*
X203254595Y-48584856D01*
X201025766Y-50813685D01*
X201013375Y-50824552D01*
X200988013Y-50844013D01*
X200963526Y-50875925D01*
X200963523Y-50875928D01*
X200890476Y-50971124D01*
X200829162Y-51119149D01*
X200829162Y-51119150D01*
X200813500Y-51238115D01*
X200813500Y-51238120D01*
X200808250Y-51278000D01*
X200809328Y-51286188D01*
X200812422Y-51309690D01*
X200813500Y-51326136D01*
X200813500Y-83873864D01*
X200812422Y-83890307D01*
X200808250Y-83922000D01*
X200813500Y-83961880D01*
X200813500Y-83961885D01*
X200818871Y-84002682D01*
X200829162Y-84080851D01*
X200890476Y-84228876D01*
X200895503Y-84235427D01*
X200895504Y-84235429D01*
X200963520Y-84324069D01*
X200963526Y-84324075D01*
X200988013Y-84355987D01*
X200994563Y-84361013D01*
X200994564Y-84361014D01*
X201013376Y-84375449D01*
X201025766Y-84386315D01*
X201214004Y-84574552D01*
X201331602Y-84692150D01*
X201365627Y-84754463D01*
X201360563Y-84825278D01*
X201318016Y-84882114D01*
X201251496Y-84906925D01*
X201221150Y-84904827D01*
X201221141Y-84904905D01*
X201219324Y-84904701D01*
X201219320Y-84904701D01*
X201215024Y-84904219D01*
X201215020Y-84904218D01*
X201138262Y-84895609D01*
X201059597Y-84886785D01*
X200947793Y-84886785D01*
X200944738Y-84887085D01*
X200944729Y-84887085D01*
X200873721Y-84894048D01*
X200793446Y-84901919D01*
X200787545Y-84903701D01*
X200787543Y-84903701D01*
X200748341Y-84915537D01*
X200594740Y-84961912D01*
X200411471Y-85059357D01*
X200250620Y-85190545D01*
X200246693Y-85195293D01*
X200246691Y-85195294D01*
X200225314Y-85221134D01*
X200118313Y-85350476D01*
X200019590Y-85533060D01*
X199958211Y-85731342D01*
X199936515Y-85937770D01*
X199955327Y-86144481D01*
X199957065Y-86150387D01*
X199957066Y-86150391D01*
X199964096Y-86174277D01*
X200013931Y-86343601D01*
X200016785Y-86349060D01*
X200107240Y-86522085D01*
X200107243Y-86522089D01*
X200110095Y-86527545D01*
X200240156Y-86689309D01*
X200399160Y-86822729D01*
X200404552Y-86825693D01*
X200404556Y-86825696D01*
X200495696Y-86875800D01*
X200581051Y-86922724D01*
X200586918Y-86924585D01*
X200586920Y-86924586D01*
X200773029Y-86983623D01*
X200778899Y-86985485D01*
X200940443Y-87003605D01*
X201052247Y-87003605D01*
X201055302Y-87003305D01*
X201055311Y-87003305D01*
X201126319Y-86996342D01*
X201206594Y-86988471D01*
X201212497Y-86986689D01*
X201212501Y-86986688D01*
X201280507Y-86966156D01*
X201351501Y-86965615D01*
X201411518Y-87003543D01*
X201441501Y-87067898D01*
X201442924Y-87086778D01*
X201442924Y-87469710D01*
X201422922Y-87537831D01*
X201410560Y-87554020D01*
X201316803Y-87658148D01*
X201312384Y-87663056D01*
X201216897Y-87828444D01*
X201157882Y-88010072D01*
X201157192Y-88016633D01*
X201157192Y-88016635D01*
X201147661Y-88107315D01*
X201137920Y-88200000D01*
X201138610Y-88206565D01*
X201149460Y-88309793D01*
X201157882Y-88389928D01*
X201216897Y-88571556D01*
X201312384Y-88736944D01*
X201316802Y-88741851D01*
X201316803Y-88741852D01*
X201376983Y-88808689D01*
X201440171Y-88878866D01*
X201457545Y-88891489D01*
X201586582Y-88985240D01*
X201594672Y-88991118D01*
X201600700Y-88993802D01*
X201600702Y-88993803D01*
X201725066Y-89049173D01*
X201769136Y-89068794D01*
X201854525Y-89086944D01*
X201949480Y-89107128D01*
X201949485Y-89107128D01*
X201955937Y-89108500D01*
X202146911Y-89108500D01*
X202153363Y-89107128D01*
X202153368Y-89107128D01*
X202248323Y-89086944D01*
X202333712Y-89068794D01*
X202377782Y-89049173D01*
X202502146Y-88993803D01*
X202502148Y-88993802D01*
X202508176Y-88991118D01*
X202517241Y-88984532D01*
X202584108Y-88960673D01*
X202653260Y-88976752D01*
X202665348Y-88984520D01*
X202743248Y-89041118D01*
X202749276Y-89043802D01*
X202749278Y-89043803D01*
X202894591Y-89108500D01*
X202917712Y-89118794D01*
X202981521Y-89132357D01*
X203098056Y-89157128D01*
X203098061Y-89157128D01*
X203104513Y-89158500D01*
X203295487Y-89158500D01*
X203301939Y-89157128D01*
X203301944Y-89157128D01*
X203418479Y-89132357D01*
X203482288Y-89118794D01*
X203505409Y-89108500D01*
X203650722Y-89043803D01*
X203650724Y-89043802D01*
X203656752Y-89041118D01*
X203741530Y-88979523D01*
X203808398Y-88955665D01*
X203877549Y-88971745D01*
X203889646Y-88979519D01*
X204043248Y-89091118D01*
X204049276Y-89093802D01*
X204049278Y-89093803D01*
X204194591Y-89158500D01*
X204217712Y-89168794D01*
X204337847Y-89194330D01*
X204400319Y-89228057D01*
X204434641Y-89290207D01*
X204436959Y-89304406D01*
X204453011Y-89457128D01*
X204456458Y-89489928D01*
X204515473Y-89671556D01*
X204610960Y-89836944D01*
X204684137Y-89918215D01*
X204714853Y-89982221D01*
X204716500Y-90002524D01*
X204716500Y-94297476D01*
X204696498Y-94365597D01*
X204684142Y-94381779D01*
X204610960Y-94463056D01*
X204607659Y-94468774D01*
X204521087Y-94618721D01*
X204515473Y-94628444D01*
X204456458Y-94810072D01*
X204455768Y-94816633D01*
X204455768Y-94816635D01*
X204441800Y-94949538D01*
X204436496Y-95000000D01*
X204456458Y-95189928D01*
X204515473Y-95371556D01*
X204610960Y-95536944D01*
X204615378Y-95541851D01*
X204615379Y-95541852D01*
X204734325Y-95673955D01*
X204738747Y-95678866D01*
X204893248Y-95791118D01*
X204899276Y-95793802D01*
X204899278Y-95793803D01*
X204952986Y-95817715D01*
X205067712Y-95868794D01*
X205161113Y-95888647D01*
X205248056Y-95907128D01*
X205248061Y-95907128D01*
X205254513Y-95908500D01*
X205445487Y-95908500D01*
X205451939Y-95907128D01*
X205451944Y-95907128D01*
X205538887Y-95888647D01*
X205632288Y-95868794D01*
X205747014Y-95817715D01*
X205800722Y-95793803D01*
X205800724Y-95793802D01*
X205806752Y-95791118D01*
X205961253Y-95678866D01*
X205965675Y-95673955D01*
X206084621Y-95541852D01*
X206084622Y-95541851D01*
X206089040Y-95536944D01*
X206184527Y-95371556D01*
X206243542Y-95189928D01*
X206263504Y-95000000D01*
X206258200Y-94949538D01*
X206244232Y-94816635D01*
X206244232Y-94816633D01*
X206243542Y-94810072D01*
X206184527Y-94628444D01*
X206178914Y-94618721D01*
X206092341Y-94468774D01*
X206089040Y-94463056D01*
X206015863Y-94381785D01*
X205985147Y-94317779D01*
X205983500Y-94297476D01*
X205983500Y-90002524D01*
X206003502Y-89934403D01*
X206015858Y-89918221D01*
X206089040Y-89836944D01*
X206184527Y-89671556D01*
X206243542Y-89489928D01*
X206246990Y-89457128D01*
X206262814Y-89306565D01*
X206263504Y-89300000D01*
X206258512Y-89252506D01*
X206244232Y-89116635D01*
X206244232Y-89116633D01*
X206243542Y-89110072D01*
X206184527Y-88928444D01*
X206089040Y-88763056D01*
X206073541Y-88745842D01*
X205965675Y-88626045D01*
X205965674Y-88626044D01*
X205961253Y-88621134D01*
X205806752Y-88508882D01*
X205800724Y-88506198D01*
X205800722Y-88506197D01*
X205638319Y-88433891D01*
X205638318Y-88433891D01*
X205632288Y-88431206D01*
X205512153Y-88405670D01*
X205449681Y-88371943D01*
X205415359Y-88309793D01*
X205413041Y-88295594D01*
X205394232Y-88116635D01*
X205394232Y-88116633D01*
X205393542Y-88110072D01*
X205334527Y-87928444D01*
X205239040Y-87763056D01*
X205165863Y-87681785D01*
X205135147Y-87617779D01*
X205133500Y-87597476D01*
X205133500Y-82264290D01*
X205153502Y-82196169D01*
X205207158Y-82149676D01*
X205277432Y-82139572D01*
X205342012Y-82169066D01*
X205353131Y-82179974D01*
X205382747Y-82212866D01*
X205437579Y-82252704D01*
X205529787Y-82319697D01*
X205537248Y-82325118D01*
X205543276Y-82327802D01*
X205543278Y-82327803D01*
X205634569Y-82368448D01*
X205711712Y-82402794D01*
X205805112Y-82422647D01*
X205892056Y-82441128D01*
X205892061Y-82441128D01*
X205898513Y-82442500D01*
X206089487Y-82442500D01*
X206095939Y-82441128D01*
X206095944Y-82441128D01*
X206182888Y-82422647D01*
X206276288Y-82402794D01*
X206353431Y-82368448D01*
X206444722Y-82327803D01*
X206444724Y-82327802D01*
X206450752Y-82325118D01*
X206458214Y-82319697D01*
X206511761Y-82280792D01*
X206517584Y-82276562D01*
X206584450Y-82252704D01*
X206653602Y-82268784D01*
X206703082Y-82319697D01*
X206717644Y-82378498D01*
X206717644Y-114019341D01*
X206697642Y-114087462D01*
X206685280Y-114103651D01*
X206606321Y-114191344D01*
X206510834Y-114356732D01*
X206451819Y-114538360D01*
X206451129Y-114544921D01*
X206451129Y-114544923D01*
X206443692Y-114615683D01*
X206431857Y-114728288D01*
X206432547Y-114734853D01*
X206445246Y-114855673D01*
X206451819Y-114918216D01*
X206510834Y-115099844D01*
X206606321Y-115265232D01*
X206734108Y-115407154D01*
X206888609Y-115519406D01*
X206894637Y-115522090D01*
X206894639Y-115522091D01*
X207055708Y-115593803D01*
X207063073Y-115597082D01*
X207156473Y-115616935D01*
X207243417Y-115635416D01*
X207243422Y-115635416D01*
X207249874Y-115636788D01*
X207440848Y-115636788D01*
X207447300Y-115635416D01*
X207447305Y-115635416D01*
X207534249Y-115616935D01*
X207627649Y-115597082D01*
X207635014Y-115593803D01*
X207796083Y-115522091D01*
X207796085Y-115522090D01*
X207802113Y-115519406D01*
X207956614Y-115407154D01*
X208084401Y-115265232D01*
X208179888Y-115099844D01*
X208238903Y-114918216D01*
X208245477Y-114855673D01*
X208258175Y-114734853D01*
X208258865Y-114728288D01*
X208247030Y-114615683D01*
X208239593Y-114544923D01*
X208239593Y-114544921D01*
X208238903Y-114538360D01*
X208179888Y-114356732D01*
X208084401Y-114191344D01*
X208017008Y-114116496D01*
X207986291Y-114052489D01*
X207984644Y-114032186D01*
X207984644Y-88309049D01*
X208004646Y-88240928D01*
X208058302Y-88194435D01*
X208128576Y-88184331D01*
X208161892Y-88193942D01*
X208211677Y-88216108D01*
X208211685Y-88216111D01*
X208217712Y-88218794D01*
X208311112Y-88238647D01*
X208398056Y-88257128D01*
X208398061Y-88257128D01*
X208404513Y-88258500D01*
X208595487Y-88258500D01*
X208601939Y-88257128D01*
X208601944Y-88257128D01*
X208688888Y-88238647D01*
X208782288Y-88218794D01*
X208809755Y-88206565D01*
X208950722Y-88143803D01*
X208950724Y-88143802D01*
X208956752Y-88141118D01*
X208962090Y-88137240D01*
X208962093Y-88137238D01*
X208970440Y-88131173D01*
X209037308Y-88107315D01*
X209106459Y-88123397D01*
X209155939Y-88174311D01*
X209170500Y-88233110D01*
X209170500Y-105977476D01*
X209150498Y-106045597D01*
X209138142Y-106061779D01*
X209064960Y-106143056D01*
X209061659Y-106148774D01*
X208984618Y-106282213D01*
X208969473Y-106308444D01*
X208910458Y-106490072D01*
X208909768Y-106496633D01*
X208909768Y-106496635D01*
X208897879Y-106609750D01*
X208890496Y-106680000D01*
X208910458Y-106869928D01*
X208969473Y-107051556D01*
X209064960Y-107216944D01*
X209069378Y-107221851D01*
X209069379Y-107221852D01*
X209089788Y-107244518D01*
X209192747Y-107358866D01*
X209347248Y-107471118D01*
X209353276Y-107473802D01*
X209353278Y-107473803D01*
X209515681Y-107546109D01*
X209521712Y-107548794D01*
X209615113Y-107568647D01*
X209702056Y-107587128D01*
X209702061Y-107587128D01*
X209708513Y-107588500D01*
X209899487Y-107588500D01*
X209905939Y-107587128D01*
X209905944Y-107587128D01*
X209992888Y-107568647D01*
X210086288Y-107548794D01*
X210092319Y-107546109D01*
X210254722Y-107473803D01*
X210254724Y-107473802D01*
X210260752Y-107471118D01*
X210415253Y-107358866D01*
X210518212Y-107244518D01*
X210538621Y-107221852D01*
X210538622Y-107221851D01*
X210543040Y-107216944D01*
X210638527Y-107051556D01*
X210697542Y-106869928D01*
X210717504Y-106680000D01*
X210710121Y-106609750D01*
X210698232Y-106496635D01*
X210698232Y-106496633D01*
X210697542Y-106490072D01*
X210638527Y-106308444D01*
X210623383Y-106282213D01*
X210546341Y-106148774D01*
X210543040Y-106143056D01*
X210469863Y-106061785D01*
X210439147Y-105997779D01*
X210437500Y-105977476D01*
X210437500Y-82834500D01*
X210457502Y-82766379D01*
X210511158Y-82719886D01*
X210563500Y-82708500D01*
X210603987Y-82708500D01*
X210610439Y-82707128D01*
X210610444Y-82707128D01*
X210697387Y-82688647D01*
X210790788Y-82668794D01*
X210796819Y-82666109D01*
X210959222Y-82593803D01*
X210959224Y-82593802D01*
X210965252Y-82591118D01*
X211119753Y-82478866D01*
X211152497Y-82442500D01*
X211243121Y-82341852D01*
X211243122Y-82341851D01*
X211247540Y-82336944D01*
X211343027Y-82171556D01*
X211402042Y-81989928D01*
X211410913Y-81905530D01*
X211421314Y-81806565D01*
X211422004Y-81800000D01*
X211420577Y-81786426D01*
X211433348Y-81716589D01*
X211481849Y-81664741D01*
X211545887Y-81647255D01*
X211582082Y-81647255D01*
X211588534Y-81645883D01*
X211588539Y-81645883D01*
X211675482Y-81627402D01*
X211768883Y-81607549D01*
X211787251Y-81599371D01*
X211857618Y-81589937D01*
X211921915Y-81620043D01*
X211959729Y-81680132D01*
X211964500Y-81714478D01*
X211964500Y-127313476D01*
X211944498Y-127381597D01*
X211932142Y-127397779D01*
X211858960Y-127479056D01*
X211763473Y-127644444D01*
X211704458Y-127826072D01*
X211703768Y-127832633D01*
X211703768Y-127832635D01*
X211687093Y-127991293D01*
X211660080Y-128056950D01*
X211650878Y-128067218D01*
X204244500Y-135473595D01*
X204182188Y-135507621D01*
X204155405Y-135510500D01*
X188020594Y-135510500D01*
X187952473Y-135490498D01*
X187931499Y-135473595D01*
X186791203Y-134333299D01*
X186757177Y-134270987D01*
X186762242Y-134200172D01*
X186772863Y-134178375D01*
X186798240Y-134136963D01*
X186826003Y-134069938D01*
X186887211Y-133922167D01*
X186887212Y-133922165D01*
X186889105Y-133917594D01*
X186908360Y-133837391D01*
X186943380Y-133691524D01*
X186943381Y-133691518D01*
X186944535Y-133686711D01*
X186963165Y-133450000D01*
X188636835Y-133450000D01*
X188655465Y-133686711D01*
X188656619Y-133691518D01*
X188656620Y-133691524D01*
X188691640Y-133837391D01*
X188710895Y-133917594D01*
X188712788Y-133922165D01*
X188712789Y-133922167D01*
X188773998Y-134069938D01*
X188801760Y-134136963D01*
X188804344Y-134141180D01*
X188804346Y-134141183D01*
X188923241Y-134335202D01*
X188923245Y-134335208D01*
X188925824Y-134339416D01*
X189080031Y-134519969D01*
X189260584Y-134674176D01*
X189264792Y-134676755D01*
X189264798Y-134676759D01*
X189458817Y-134795654D01*
X189463037Y-134798240D01*
X189467607Y-134800133D01*
X189467611Y-134800135D01*
X189677833Y-134887211D01*
X189682406Y-134889105D01*
X189762609Y-134908360D01*
X189908476Y-134943380D01*
X189908482Y-134943381D01*
X189913289Y-134944535D01*
X190150000Y-134963165D01*
X190386711Y-134944535D01*
X190391518Y-134943381D01*
X190391524Y-134943380D01*
X190537391Y-134908360D01*
X190617594Y-134889105D01*
X190622167Y-134887211D01*
X190832389Y-134800135D01*
X190832393Y-134800133D01*
X190836963Y-134798240D01*
X190841183Y-134795654D01*
X191035202Y-134676759D01*
X191035208Y-134676755D01*
X191039416Y-134674176D01*
X191219969Y-134519969D01*
X191374176Y-134339416D01*
X191376755Y-134335208D01*
X191376759Y-134335202D01*
X191495654Y-134141183D01*
X191495656Y-134141180D01*
X191498240Y-134136963D01*
X191526003Y-134069938D01*
X191587211Y-133922167D01*
X191587212Y-133922165D01*
X191589105Y-133917594D01*
X191608360Y-133837391D01*
X191643380Y-133691524D01*
X191643381Y-133691518D01*
X191644535Y-133686711D01*
X191663165Y-133450000D01*
X195136835Y-133450000D01*
X195155465Y-133686711D01*
X195156619Y-133691518D01*
X195156620Y-133691524D01*
X195191640Y-133837391D01*
X195210895Y-133917594D01*
X195212788Y-133922165D01*
X195212789Y-133922167D01*
X195273998Y-134069938D01*
X195301760Y-134136963D01*
X195304344Y-134141180D01*
X195304346Y-134141183D01*
X195423241Y-134335202D01*
X195423245Y-134335208D01*
X195425824Y-134339416D01*
X195580031Y-134519969D01*
X195760584Y-134674176D01*
X195764792Y-134676755D01*
X195764798Y-134676759D01*
X195958817Y-134795654D01*
X195963037Y-134798240D01*
X195967607Y-134800133D01*
X195967611Y-134800135D01*
X196177833Y-134887211D01*
X196182406Y-134889105D01*
X196262609Y-134908360D01*
X196408476Y-134943380D01*
X196408482Y-134943381D01*
X196413289Y-134944535D01*
X196650000Y-134963165D01*
X196886711Y-134944535D01*
X196891518Y-134943381D01*
X196891524Y-134943380D01*
X197037391Y-134908360D01*
X197117594Y-134889105D01*
X197122167Y-134887211D01*
X197332389Y-134800135D01*
X197332393Y-134800133D01*
X197336963Y-134798240D01*
X197341183Y-134795654D01*
X197535202Y-134676759D01*
X197535208Y-134676755D01*
X197539416Y-134674176D01*
X197719969Y-134519969D01*
X197874176Y-134339416D01*
X197876755Y-134335208D01*
X197876759Y-134335202D01*
X197995654Y-134141183D01*
X197995656Y-134141180D01*
X197998240Y-134136963D01*
X198026003Y-134069938D01*
X198087211Y-133922167D01*
X198087212Y-133922165D01*
X198089105Y-133917594D01*
X198108360Y-133837391D01*
X198143380Y-133691524D01*
X198143381Y-133691518D01*
X198144535Y-133686711D01*
X198163165Y-133450000D01*
X198144535Y-133213289D01*
X198089105Y-132982406D01*
X198087211Y-132977833D01*
X198000135Y-132767611D01*
X198000133Y-132767607D01*
X197998240Y-132763037D01*
X197995654Y-132758817D01*
X197876759Y-132564798D01*
X197876755Y-132564792D01*
X197874176Y-132560584D01*
X197719969Y-132380031D01*
X197539416Y-132225824D01*
X197535208Y-132223245D01*
X197535202Y-132223241D01*
X197341183Y-132104346D01*
X197336963Y-132101760D01*
X197332393Y-132099867D01*
X197332389Y-132099865D01*
X197122167Y-132012789D01*
X197122165Y-132012788D01*
X197117594Y-132010895D01*
X197037391Y-131991640D01*
X196891524Y-131956620D01*
X196891518Y-131956619D01*
X196886711Y-131955465D01*
X196650000Y-131936835D01*
X196413289Y-131955465D01*
X196408482Y-131956619D01*
X196408476Y-131956620D01*
X196262609Y-131991640D01*
X196182406Y-132010895D01*
X196177835Y-132012788D01*
X196177833Y-132012789D01*
X195967611Y-132099865D01*
X195967607Y-132099867D01*
X195963037Y-132101760D01*
X195958817Y-132104346D01*
X195764798Y-132223241D01*
X195764792Y-132223245D01*
X195760584Y-132225824D01*
X195580031Y-132380031D01*
X195425824Y-132560584D01*
X195423245Y-132564792D01*
X195423241Y-132564798D01*
X195304346Y-132758817D01*
X195301760Y-132763037D01*
X195299867Y-132767607D01*
X195299865Y-132767611D01*
X195212789Y-132977833D01*
X195210895Y-132982406D01*
X195155465Y-133213289D01*
X195136835Y-133450000D01*
X191663165Y-133450000D01*
X191644535Y-133213289D01*
X191589105Y-132982406D01*
X191587211Y-132977833D01*
X191500135Y-132767611D01*
X191500133Y-132767607D01*
X191498240Y-132763037D01*
X191495654Y-132758817D01*
X191376759Y-132564798D01*
X191376755Y-132564792D01*
X191374176Y-132560584D01*
X191219969Y-132380031D01*
X191039416Y-132225824D01*
X191035208Y-132223245D01*
X191035202Y-132223241D01*
X190841183Y-132104346D01*
X190836963Y-132101760D01*
X190832393Y-132099867D01*
X190832389Y-132099865D01*
X190622167Y-132012789D01*
X190622165Y-132012788D01*
X190617594Y-132010895D01*
X190537391Y-131991640D01*
X190391524Y-131956620D01*
X190391518Y-131956619D01*
X190386711Y-131955465D01*
X190150000Y-131936835D01*
X189913289Y-131955465D01*
X189908482Y-131956619D01*
X189908476Y-131956620D01*
X189762609Y-131991640D01*
X189682406Y-132010895D01*
X189677835Y-132012788D01*
X189677833Y-132012789D01*
X189467611Y-132099865D01*
X189467607Y-132099867D01*
X189463037Y-132101760D01*
X189458817Y-132104346D01*
X189264798Y-132223241D01*
X189264792Y-132223245D01*
X189260584Y-132225824D01*
X189080031Y-132380031D01*
X188925824Y-132560584D01*
X188923245Y-132564792D01*
X188923241Y-132564798D01*
X188804346Y-132758817D01*
X188801760Y-132763037D01*
X188799867Y-132767607D01*
X188799865Y-132767611D01*
X188712789Y-132977833D01*
X188710895Y-132982406D01*
X188655465Y-133213289D01*
X188636835Y-133450000D01*
X186963165Y-133450000D01*
X186944535Y-133213289D01*
X186889105Y-132982406D01*
X186887211Y-132977833D01*
X186800135Y-132767611D01*
X186800133Y-132767607D01*
X186798240Y-132763037D01*
X186795654Y-132758817D01*
X186676759Y-132564798D01*
X186676755Y-132564792D01*
X186674176Y-132560584D01*
X186519969Y-132380031D01*
X186339416Y-132225824D01*
X186335208Y-132223245D01*
X186335202Y-132223241D01*
X186141183Y-132104346D01*
X186136963Y-132101760D01*
X186132393Y-132099867D01*
X186132389Y-132099865D01*
X185922167Y-132012789D01*
X185922165Y-132012788D01*
X185917594Y-132010895D01*
X185837391Y-131991640D01*
X185691524Y-131956620D01*
X185691518Y-131956619D01*
X185686711Y-131955465D01*
X185450000Y-131936835D01*
X185213289Y-131955465D01*
X185208482Y-131956619D01*
X185208476Y-131956620D01*
X185062609Y-131991640D01*
X184982406Y-132010895D01*
X184977835Y-132012788D01*
X184977833Y-132012789D01*
X184767611Y-132099865D01*
X184767607Y-132099867D01*
X184763037Y-132101760D01*
X184758817Y-132104346D01*
X184564798Y-132223241D01*
X184564792Y-132223245D01*
X184560584Y-132225824D01*
X184380031Y-132380031D01*
X184225824Y-132560584D01*
X184223245Y-132564792D01*
X184223241Y-132564798D01*
X184104346Y-132758817D01*
X184101760Y-132763037D01*
X184099867Y-132767607D01*
X184099865Y-132767611D01*
X184012789Y-132977833D01*
X184010895Y-132982406D01*
X183955465Y-133213289D01*
X183936835Y-133450000D01*
X183955465Y-133686711D01*
X183956619Y-133691518D01*
X183956620Y-133691524D01*
X183991640Y-133837391D01*
X184010895Y-133917594D01*
X184012788Y-133922165D01*
X184012789Y-133922167D01*
X184073998Y-134069938D01*
X184101760Y-134136963D01*
X184104344Y-134141180D01*
X184104346Y-134141183D01*
X184223241Y-134335202D01*
X184223245Y-134335208D01*
X184225824Y-134339416D01*
X184380031Y-134519969D01*
X184560584Y-134674176D01*
X184564792Y-134676755D01*
X184564798Y-134676759D01*
X184758817Y-134795654D01*
X184763037Y-134798240D01*
X184767607Y-134800133D01*
X184767611Y-134800135D01*
X184977833Y-134887211D01*
X184982406Y-134889105D01*
X185062609Y-134908360D01*
X185208476Y-134943380D01*
X185208482Y-134943381D01*
X185213289Y-134944535D01*
X185450000Y-134963165D01*
X185558276Y-134954643D01*
X185627755Y-134969239D01*
X185657256Y-134991160D01*
X186867490Y-136201395D01*
X186901516Y-136263707D01*
X186896451Y-136334523D01*
X186853904Y-136391358D01*
X186787384Y-136416169D01*
X186778395Y-136416490D01*
X173209139Y-136416490D01*
X173141018Y-136396488D01*
X173094525Y-136342832D01*
X173083139Y-136290557D01*
X173083130Y-136272558D01*
X173082143Y-134414517D01*
X173081631Y-133450000D01*
X177436835Y-133450000D01*
X177455465Y-133686711D01*
X177456619Y-133691518D01*
X177456620Y-133691524D01*
X177491640Y-133837391D01*
X177510895Y-133917594D01*
X177512788Y-133922165D01*
X177512789Y-133922167D01*
X177573998Y-134069938D01*
X177601760Y-134136963D01*
X177604344Y-134141180D01*
X177604346Y-134141183D01*
X177723241Y-134335202D01*
X177723245Y-134335208D01*
X177725824Y-134339416D01*
X177880031Y-134519969D01*
X178060584Y-134674176D01*
X178064792Y-134676755D01*
X178064798Y-134676759D01*
X178258817Y-134795654D01*
X178263037Y-134798240D01*
X178267607Y-134800133D01*
X178267611Y-134800135D01*
X178477833Y-134887211D01*
X178482406Y-134889105D01*
X178562609Y-134908360D01*
X178708476Y-134943380D01*
X178708482Y-134943381D01*
X178713289Y-134944535D01*
X178950000Y-134963165D01*
X179186711Y-134944535D01*
X179191518Y-134943381D01*
X179191524Y-134943380D01*
X179337391Y-134908360D01*
X179417594Y-134889105D01*
X179422167Y-134887211D01*
X179632389Y-134800135D01*
X179632393Y-134800133D01*
X179636963Y-134798240D01*
X179641183Y-134795654D01*
X179835202Y-134676759D01*
X179835208Y-134676755D01*
X179839416Y-134674176D01*
X180019969Y-134519969D01*
X180174176Y-134339416D01*
X180176755Y-134335208D01*
X180176759Y-134335202D01*
X180295654Y-134141183D01*
X180295656Y-134141180D01*
X180298240Y-134136963D01*
X180326003Y-134069938D01*
X180387211Y-133922167D01*
X180387212Y-133922165D01*
X180389105Y-133917594D01*
X180408360Y-133837391D01*
X180443380Y-133691524D01*
X180443381Y-133691518D01*
X180444535Y-133686711D01*
X180463165Y-133450000D01*
X180444535Y-133213289D01*
X180389105Y-132982406D01*
X180387211Y-132977833D01*
X180300135Y-132767611D01*
X180300133Y-132767607D01*
X180298240Y-132763037D01*
X180295654Y-132758817D01*
X180176759Y-132564798D01*
X180176755Y-132564792D01*
X180174176Y-132560584D01*
X180019969Y-132380031D01*
X179839416Y-132225824D01*
X179835208Y-132223245D01*
X179835202Y-132223241D01*
X179641183Y-132104346D01*
X179636963Y-132101760D01*
X179632393Y-132099867D01*
X179632389Y-132099865D01*
X179422167Y-132012789D01*
X179422165Y-132012788D01*
X179417594Y-132010895D01*
X179337391Y-131991640D01*
X179191524Y-131956620D01*
X179191518Y-131956619D01*
X179186711Y-131955465D01*
X178950000Y-131936835D01*
X178713289Y-131955465D01*
X178708482Y-131956619D01*
X178708476Y-131956620D01*
X178562609Y-131991640D01*
X178482406Y-132010895D01*
X178477835Y-132012788D01*
X178477833Y-132012789D01*
X178267611Y-132099865D01*
X178267607Y-132099867D01*
X178263037Y-132101760D01*
X178258817Y-132104346D01*
X178064798Y-132223241D01*
X178064792Y-132223245D01*
X178060584Y-132225824D01*
X177880031Y-132380031D01*
X177725824Y-132560584D01*
X177723245Y-132564792D01*
X177723241Y-132564798D01*
X177604346Y-132758817D01*
X177601760Y-132763037D01*
X177599867Y-132767607D01*
X177599865Y-132767611D01*
X177512789Y-132977833D01*
X177510895Y-132982406D01*
X177455465Y-133213289D01*
X177436835Y-133450000D01*
X173081631Y-133450000D01*
X173080649Y-131600000D01*
X201336496Y-131600000D01*
X201337186Y-131606565D01*
X201355212Y-131778069D01*
X201356458Y-131789928D01*
X201415473Y-131971556D01*
X201418776Y-131977278D01*
X201418777Y-131977279D01*
X201437519Y-132009740D01*
X201510960Y-132136944D01*
X201515378Y-132141851D01*
X201515379Y-132141852D01*
X201625611Y-132264277D01*
X201638747Y-132278866D01*
X201658176Y-132292982D01*
X201773573Y-132376823D01*
X201793248Y-132391118D01*
X201799276Y-132393802D01*
X201799278Y-132393803D01*
X201961681Y-132466109D01*
X201967712Y-132468794D01*
X202061112Y-132488647D01*
X202148056Y-132507128D01*
X202148061Y-132507128D01*
X202154513Y-132508500D01*
X202345487Y-132508500D01*
X202351939Y-132507128D01*
X202351944Y-132507128D01*
X202438888Y-132488647D01*
X202532288Y-132468794D01*
X202538319Y-132466109D01*
X202700722Y-132393803D01*
X202700724Y-132393802D01*
X202706752Y-132391118D01*
X202726428Y-132376823D01*
X202841824Y-132292982D01*
X202861253Y-132278866D01*
X202874389Y-132264277D01*
X202984621Y-132141852D01*
X202984622Y-132141851D01*
X202989040Y-132136944D01*
X203062481Y-132009740D01*
X203081223Y-131977279D01*
X203081224Y-131977278D01*
X203084527Y-131971556D01*
X203143542Y-131789928D01*
X203144789Y-131778069D01*
X203160907Y-131624707D01*
X203187920Y-131559050D01*
X203197122Y-131548782D01*
X203225499Y-131520405D01*
X203287811Y-131486379D01*
X203314594Y-131483500D01*
X206721233Y-131483500D01*
X206732416Y-131484027D01*
X206739909Y-131485702D01*
X206747835Y-131485453D01*
X206747836Y-131485453D01*
X206807986Y-131483562D01*
X206811945Y-131483500D01*
X206839856Y-131483500D01*
X206843791Y-131483003D01*
X206843856Y-131482995D01*
X206855693Y-131482062D01*
X206887951Y-131481048D01*
X206891970Y-131480922D01*
X206899889Y-131480673D01*
X206919343Y-131475021D01*
X206938700Y-131471013D01*
X206950930Y-131469468D01*
X206950931Y-131469468D01*
X206958797Y-131468474D01*
X206966168Y-131465555D01*
X206966170Y-131465555D01*
X206999912Y-131452196D01*
X207011142Y-131448351D01*
X207045983Y-131438229D01*
X207045984Y-131438229D01*
X207053593Y-131436018D01*
X207060412Y-131431985D01*
X207060417Y-131431983D01*
X207071028Y-131425707D01*
X207088776Y-131417012D01*
X207107617Y-131409552D01*
X207115543Y-131403794D01*
X207143387Y-131383564D01*
X207153307Y-131377048D01*
X207184535Y-131358580D01*
X207184538Y-131358578D01*
X207191362Y-131354542D01*
X207205683Y-131340221D01*
X207220717Y-131327380D01*
X207230694Y-131320131D01*
X207237107Y-131315472D01*
X207265298Y-131281395D01*
X207273288Y-131272616D01*
X207750499Y-130795405D01*
X207812811Y-130761379D01*
X207839594Y-130758500D01*
X207895487Y-130758500D01*
X207901939Y-130757128D01*
X207901944Y-130757128D01*
X207988888Y-130738647D01*
X208082288Y-130718794D01*
X208100225Y-130710808D01*
X208250722Y-130643803D01*
X208250724Y-130643802D01*
X208256752Y-130641118D01*
X208411253Y-130528866D01*
X208416985Y-130522500D01*
X208534621Y-130391852D01*
X208534622Y-130391851D01*
X208539040Y-130386944D01*
X208630237Y-130228986D01*
X208631223Y-130227279D01*
X208631224Y-130227278D01*
X208634527Y-130221556D01*
X208693542Y-130039928D01*
X208698855Y-129989383D01*
X208712814Y-129856565D01*
X208713504Y-129850000D01*
X208693542Y-129660072D01*
X208634527Y-129478444D01*
X208539040Y-129313056D01*
X208411253Y-129171134D01*
X208312157Y-129099136D01*
X208262094Y-129062763D01*
X208262093Y-129062762D01*
X208256752Y-129058882D01*
X208250724Y-129056198D01*
X208250722Y-129056197D01*
X208088319Y-128983891D01*
X208088318Y-128983891D01*
X208082288Y-128981206D01*
X207988887Y-128961353D01*
X207901944Y-128942872D01*
X207901939Y-128942872D01*
X207895487Y-128941500D01*
X207704513Y-128941500D01*
X207698061Y-128942872D01*
X207698056Y-128942872D01*
X207611113Y-128961353D01*
X207517712Y-128981206D01*
X207511682Y-128983891D01*
X207511681Y-128983891D01*
X207349278Y-129056197D01*
X207349276Y-129056198D01*
X207343248Y-129058882D01*
X207337907Y-129062762D01*
X207337906Y-129062763D01*
X207287843Y-129099136D01*
X207188747Y-129171134D01*
X207060960Y-129313056D01*
X206965473Y-129478444D01*
X206906458Y-129660072D01*
X206905768Y-129666633D01*
X206905768Y-129666635D01*
X206889093Y-129825292D01*
X206862080Y-129890949D01*
X206852878Y-129901218D01*
X206574499Y-130179596D01*
X206512187Y-130213621D01*
X206485404Y-130216500D01*
X203078767Y-130216500D01*
X203067584Y-130215973D01*
X203060091Y-130214298D01*
X203052165Y-130214547D01*
X203052164Y-130214547D01*
X202992014Y-130216438D01*
X202988055Y-130216500D01*
X202960144Y-130216500D01*
X202956210Y-130216997D01*
X202956209Y-130216997D01*
X202956144Y-130217005D01*
X202944307Y-130217938D01*
X202912490Y-130218938D01*
X202908029Y-130219078D01*
X202900110Y-130219327D01*
X202882454Y-130224456D01*
X202880658Y-130224978D01*
X202861306Y-130228986D01*
X202854235Y-130229880D01*
X202841203Y-130231526D01*
X202833834Y-130234443D01*
X202833832Y-130234444D01*
X202800097Y-130247800D01*
X202788869Y-130251645D01*
X202746407Y-130263982D01*
X202739585Y-130268016D01*
X202739579Y-130268019D01*
X202728968Y-130274294D01*
X202711218Y-130282990D01*
X202699756Y-130287528D01*
X202699751Y-130287531D01*
X202692383Y-130290448D01*
X202681658Y-130298240D01*
X202656625Y-130316427D01*
X202646707Y-130322943D01*
X202628019Y-130333995D01*
X202608637Y-130345458D01*
X202594313Y-130359782D01*
X202579281Y-130372621D01*
X202562893Y-130384528D01*
X202534712Y-130418593D01*
X202526722Y-130427373D01*
X202299500Y-130654595D01*
X202237188Y-130688621D01*
X202210405Y-130691500D01*
X202154513Y-130691500D01*
X202148061Y-130692872D01*
X202148056Y-130692872D01*
X202061112Y-130711353D01*
X201967712Y-130731206D01*
X201961682Y-130733891D01*
X201961681Y-130733891D01*
X201799278Y-130806197D01*
X201799276Y-130806198D01*
X201793248Y-130808882D01*
X201787907Y-130812762D01*
X201787906Y-130812763D01*
X201739602Y-130847858D01*
X201638747Y-130921134D01*
X201634326Y-130926044D01*
X201634325Y-130926045D01*
X201521803Y-131051014D01*
X201510960Y-131063056D01*
X201415473Y-131228444D01*
X201356458Y-131410072D01*
X201355768Y-131416633D01*
X201355768Y-131416635D01*
X201348793Y-131483003D01*
X201336496Y-131600000D01*
X173080649Y-131600000D01*
X173079986Y-130351712D01*
X173099952Y-130283581D01*
X173154737Y-130236538D01*
X173250722Y-130193803D01*
X173250724Y-130193802D01*
X173256752Y-130191118D01*
X173276516Y-130176759D01*
X173329583Y-130138203D01*
X173411253Y-130078866D01*
X173440660Y-130046206D01*
X173534621Y-129941852D01*
X173534622Y-129941851D01*
X173539040Y-129936944D01*
X173634527Y-129771556D01*
X173693542Y-129589928D01*
X173713504Y-129400000D01*
X173697941Y-129251928D01*
X173694232Y-129216635D01*
X173694232Y-129216633D01*
X173693542Y-129210072D01*
X173634527Y-129028444D01*
X173589237Y-128950000D01*
X177436835Y-128950000D01*
X177455465Y-129186711D01*
X177456619Y-129191518D01*
X177456620Y-129191524D01*
X177471122Y-129251928D01*
X177510895Y-129417594D01*
X177512788Y-129422165D01*
X177512789Y-129422167D01*
X177583644Y-129593226D01*
X177601760Y-129636963D01*
X177604346Y-129641183D01*
X177723241Y-129835202D01*
X177723245Y-129835208D01*
X177725824Y-129839416D01*
X177880031Y-130019969D01*
X178060584Y-130174176D01*
X178064792Y-130176755D01*
X178064798Y-130176759D01*
X178232197Y-130279341D01*
X178263037Y-130298240D01*
X178267607Y-130300133D01*
X178267611Y-130300135D01*
X178477833Y-130387211D01*
X178482406Y-130389105D01*
X178562609Y-130408360D01*
X178708476Y-130443380D01*
X178708482Y-130443381D01*
X178713289Y-130444535D01*
X178950000Y-130463165D01*
X179186711Y-130444535D01*
X179191518Y-130443381D01*
X179191524Y-130443380D01*
X179337391Y-130408360D01*
X179417594Y-130389105D01*
X179422167Y-130387211D01*
X179632389Y-130300135D01*
X179632393Y-130300133D01*
X179636963Y-130298240D01*
X179667803Y-130279341D01*
X179835202Y-130176759D01*
X179835208Y-130176755D01*
X179839416Y-130174176D01*
X180019969Y-130019969D01*
X180174176Y-129839416D01*
X180176755Y-129835208D01*
X180176759Y-129835202D01*
X180295654Y-129641183D01*
X180298240Y-129636963D01*
X180316357Y-129593226D01*
X180387211Y-129422167D01*
X180387212Y-129422165D01*
X180389105Y-129417594D01*
X180428878Y-129251928D01*
X180443380Y-129191524D01*
X180443381Y-129191518D01*
X180444535Y-129186711D01*
X180463165Y-128950000D01*
X183936835Y-128950000D01*
X183955465Y-129186711D01*
X183956619Y-129191518D01*
X183956620Y-129191524D01*
X183971122Y-129251928D01*
X184010895Y-129417594D01*
X184012788Y-129422165D01*
X184012789Y-129422167D01*
X184083644Y-129593226D01*
X184101760Y-129636963D01*
X184104346Y-129641183D01*
X184223241Y-129835202D01*
X184223245Y-129835208D01*
X184225824Y-129839416D01*
X184380031Y-130019969D01*
X184560584Y-130174176D01*
X184564792Y-130176755D01*
X184564798Y-130176759D01*
X184732197Y-130279341D01*
X184763037Y-130298240D01*
X184767607Y-130300133D01*
X184767611Y-130300135D01*
X184977833Y-130387211D01*
X184982406Y-130389105D01*
X185062609Y-130408360D01*
X185208476Y-130443380D01*
X185208482Y-130443381D01*
X185213289Y-130444535D01*
X185450000Y-130463165D01*
X185686711Y-130444535D01*
X185691518Y-130443381D01*
X185691524Y-130443380D01*
X185837391Y-130408360D01*
X185917594Y-130389105D01*
X185922167Y-130387211D01*
X186132389Y-130300135D01*
X186132393Y-130300133D01*
X186136963Y-130298240D01*
X186167803Y-130279341D01*
X186335202Y-130176759D01*
X186335208Y-130176755D01*
X186339416Y-130174176D01*
X186519969Y-130019969D01*
X186674176Y-129839416D01*
X186676755Y-129835208D01*
X186676759Y-129835202D01*
X186795654Y-129641183D01*
X186798240Y-129636963D01*
X186816357Y-129593226D01*
X186887211Y-129422167D01*
X186887212Y-129422165D01*
X186889105Y-129417594D01*
X186928878Y-129251928D01*
X186943380Y-129191524D01*
X186943381Y-129191518D01*
X186944535Y-129186711D01*
X186963165Y-128950000D01*
X188636835Y-128950000D01*
X188655465Y-129186711D01*
X188656619Y-129191518D01*
X188656620Y-129191524D01*
X188671122Y-129251928D01*
X188710895Y-129417594D01*
X188712788Y-129422165D01*
X188712789Y-129422167D01*
X188783644Y-129593226D01*
X188801760Y-129636963D01*
X188804346Y-129641183D01*
X188923241Y-129835202D01*
X188923245Y-129835208D01*
X188925824Y-129839416D01*
X189080031Y-130019969D01*
X189260584Y-130174176D01*
X189264792Y-130176755D01*
X189264798Y-130176759D01*
X189432197Y-130279341D01*
X189463037Y-130298240D01*
X189467607Y-130300133D01*
X189467611Y-130300135D01*
X189677833Y-130387211D01*
X189682406Y-130389105D01*
X189762609Y-130408360D01*
X189908476Y-130443380D01*
X189908482Y-130443381D01*
X189913289Y-130444535D01*
X190150000Y-130463165D01*
X190386711Y-130444535D01*
X190391518Y-130443381D01*
X190391524Y-130443380D01*
X190537391Y-130408360D01*
X190617594Y-130389105D01*
X190622167Y-130387211D01*
X190832389Y-130300135D01*
X190832393Y-130300133D01*
X190836963Y-130298240D01*
X190867803Y-130279341D01*
X191035202Y-130176759D01*
X191035208Y-130176755D01*
X191039416Y-130174176D01*
X191219969Y-130019969D01*
X191374176Y-129839416D01*
X191376755Y-129835208D01*
X191376759Y-129835202D01*
X191495654Y-129641183D01*
X191498240Y-129636963D01*
X191516357Y-129593226D01*
X191587211Y-129422167D01*
X191587212Y-129422165D01*
X191589105Y-129417594D01*
X191628878Y-129251928D01*
X191643380Y-129191524D01*
X191643381Y-129191518D01*
X191644535Y-129186711D01*
X191663165Y-128950000D01*
X195136835Y-128950000D01*
X195155465Y-129186711D01*
X195156619Y-129191518D01*
X195156620Y-129191524D01*
X195171122Y-129251928D01*
X195210895Y-129417594D01*
X195212788Y-129422165D01*
X195212789Y-129422167D01*
X195283644Y-129593226D01*
X195301760Y-129636963D01*
X195304346Y-129641183D01*
X195423241Y-129835202D01*
X195423245Y-129835208D01*
X195425824Y-129839416D01*
X195580031Y-130019969D01*
X195760584Y-130174176D01*
X195764792Y-130176755D01*
X195764798Y-130176759D01*
X195932197Y-130279341D01*
X195963037Y-130298240D01*
X195967607Y-130300133D01*
X195967611Y-130300135D01*
X196177833Y-130387211D01*
X196182406Y-130389105D01*
X196262609Y-130408360D01*
X196408476Y-130443380D01*
X196408482Y-130443381D01*
X196413289Y-130444535D01*
X196650000Y-130463165D01*
X196886711Y-130444535D01*
X196891518Y-130443381D01*
X196891524Y-130443380D01*
X197037391Y-130408360D01*
X197117594Y-130389105D01*
X197122167Y-130387211D01*
X197332389Y-130300135D01*
X197332393Y-130300133D01*
X197336963Y-130298240D01*
X197367803Y-130279341D01*
X197535202Y-130176759D01*
X197535208Y-130176755D01*
X197539416Y-130174176D01*
X197719969Y-130019969D01*
X197874176Y-129839416D01*
X197876755Y-129835208D01*
X197876759Y-129835202D01*
X197995654Y-129641183D01*
X197998240Y-129636963D01*
X198016357Y-129593226D01*
X198087211Y-129422167D01*
X198087212Y-129422165D01*
X198089105Y-129417594D01*
X198128878Y-129251928D01*
X198143380Y-129191524D01*
X198143381Y-129191518D01*
X198144535Y-129186711D01*
X198163165Y-128950000D01*
X198144535Y-128713289D01*
X198141045Y-128698749D01*
X198090260Y-128487218D01*
X198089105Y-128482406D01*
X197998240Y-128263037D01*
X197967091Y-128212206D01*
X197876759Y-128064798D01*
X197876755Y-128064792D01*
X197874176Y-128060584D01*
X197719969Y-127880031D01*
X197539416Y-127725824D01*
X197535208Y-127723245D01*
X197535202Y-127723241D01*
X197341183Y-127604346D01*
X197336963Y-127601760D01*
X197332393Y-127599867D01*
X197332389Y-127599865D01*
X197122167Y-127512789D01*
X197122165Y-127512788D01*
X197117594Y-127510895D01*
X197008792Y-127484774D01*
X196891524Y-127456620D01*
X196891518Y-127456619D01*
X196886711Y-127455465D01*
X196650000Y-127436835D01*
X196413289Y-127455465D01*
X196408482Y-127456619D01*
X196408476Y-127456620D01*
X196291208Y-127484774D01*
X196182406Y-127510895D01*
X196177835Y-127512788D01*
X196177833Y-127512789D01*
X195967611Y-127599865D01*
X195967607Y-127599867D01*
X195963037Y-127601760D01*
X195958817Y-127604346D01*
X195764798Y-127723241D01*
X195764792Y-127723245D01*
X195760584Y-127725824D01*
X195580031Y-127880031D01*
X195425824Y-128060584D01*
X195423245Y-128064792D01*
X195423241Y-128064798D01*
X195332909Y-128212206D01*
X195301760Y-128263037D01*
X195210895Y-128482406D01*
X195209740Y-128487218D01*
X195158956Y-128698749D01*
X195155465Y-128713289D01*
X195136835Y-128950000D01*
X191663165Y-128950000D01*
X191644535Y-128713289D01*
X191641045Y-128698749D01*
X191590260Y-128487218D01*
X191589105Y-128482406D01*
X191498240Y-128263037D01*
X191467091Y-128212206D01*
X191376759Y-128064798D01*
X191376755Y-128064792D01*
X191374176Y-128060584D01*
X191219969Y-127880031D01*
X191039416Y-127725824D01*
X191035208Y-127723245D01*
X191035202Y-127723241D01*
X190841183Y-127604346D01*
X190836963Y-127601760D01*
X190832393Y-127599867D01*
X190832389Y-127599865D01*
X190622167Y-127512789D01*
X190622165Y-127512788D01*
X190617594Y-127510895D01*
X190508792Y-127484774D01*
X190391524Y-127456620D01*
X190391518Y-127456619D01*
X190386711Y-127455465D01*
X190150000Y-127436835D01*
X189913289Y-127455465D01*
X189908482Y-127456619D01*
X189908476Y-127456620D01*
X189791208Y-127484774D01*
X189682406Y-127510895D01*
X189677835Y-127512788D01*
X189677833Y-127512789D01*
X189467611Y-127599865D01*
X189467607Y-127599867D01*
X189463037Y-127601760D01*
X189458817Y-127604346D01*
X189264798Y-127723241D01*
X189264792Y-127723245D01*
X189260584Y-127725824D01*
X189080031Y-127880031D01*
X188925824Y-128060584D01*
X188923245Y-128064792D01*
X188923241Y-128064798D01*
X188832909Y-128212206D01*
X188801760Y-128263037D01*
X188710895Y-128482406D01*
X188709740Y-128487218D01*
X188658956Y-128698749D01*
X188655465Y-128713289D01*
X188636835Y-128950000D01*
X186963165Y-128950000D01*
X186944535Y-128713289D01*
X186941045Y-128698749D01*
X186890260Y-128487218D01*
X186889105Y-128482406D01*
X186798240Y-128263037D01*
X186767091Y-128212206D01*
X186676759Y-128064798D01*
X186676755Y-128064792D01*
X186674176Y-128060584D01*
X186519969Y-127880031D01*
X186339416Y-127725824D01*
X186335208Y-127723245D01*
X186335202Y-127723241D01*
X186141183Y-127604346D01*
X186136963Y-127601760D01*
X186132393Y-127599867D01*
X186132389Y-127599865D01*
X185922167Y-127512789D01*
X185922165Y-127512788D01*
X185917594Y-127510895D01*
X185808792Y-127484774D01*
X185691524Y-127456620D01*
X185691518Y-127456619D01*
X185686711Y-127455465D01*
X185450000Y-127436835D01*
X185213289Y-127455465D01*
X185208482Y-127456619D01*
X185208476Y-127456620D01*
X185091208Y-127484774D01*
X184982406Y-127510895D01*
X184977835Y-127512788D01*
X184977833Y-127512789D01*
X184767611Y-127599865D01*
X184767607Y-127599867D01*
X184763037Y-127601760D01*
X184758817Y-127604346D01*
X184564798Y-127723241D01*
X184564792Y-127723245D01*
X184560584Y-127725824D01*
X184380031Y-127880031D01*
X184225824Y-128060584D01*
X184223245Y-128064792D01*
X184223241Y-128064798D01*
X184132909Y-128212206D01*
X184101760Y-128263037D01*
X184010895Y-128482406D01*
X184009740Y-128487218D01*
X183958956Y-128698749D01*
X183955465Y-128713289D01*
X183936835Y-128950000D01*
X180463165Y-128950000D01*
X180444535Y-128713289D01*
X180441045Y-128698749D01*
X180390260Y-128487218D01*
X180389105Y-128482406D01*
X180298240Y-128263037D01*
X180267091Y-128212206D01*
X180176759Y-128064798D01*
X180176755Y-128064792D01*
X180174176Y-128060584D01*
X180019969Y-127880031D01*
X179839416Y-127725824D01*
X179835208Y-127723245D01*
X179835202Y-127723241D01*
X179641183Y-127604346D01*
X179636963Y-127601760D01*
X179632393Y-127599867D01*
X179632389Y-127599865D01*
X179422167Y-127512789D01*
X179422165Y-127512788D01*
X179417594Y-127510895D01*
X179308792Y-127484774D01*
X179191524Y-127456620D01*
X179191518Y-127456619D01*
X179186711Y-127455465D01*
X178950000Y-127436835D01*
X178713289Y-127455465D01*
X178708482Y-127456619D01*
X178708476Y-127456620D01*
X178591208Y-127484774D01*
X178482406Y-127510895D01*
X178477835Y-127512788D01*
X178477833Y-127512789D01*
X178267611Y-127599865D01*
X178267607Y-127599867D01*
X178263037Y-127601760D01*
X178258817Y-127604346D01*
X178064798Y-127723241D01*
X178064792Y-127723245D01*
X178060584Y-127725824D01*
X177880031Y-127880031D01*
X177725824Y-128060584D01*
X177723245Y-128064792D01*
X177723241Y-128064798D01*
X177632909Y-128212206D01*
X177601760Y-128263037D01*
X177510895Y-128482406D01*
X177509740Y-128487218D01*
X177458956Y-128698749D01*
X177455465Y-128713289D01*
X177436835Y-128950000D01*
X173589237Y-128950000D01*
X173539040Y-128863056D01*
X173465863Y-128781785D01*
X173435147Y-128717779D01*
X173433500Y-128697476D01*
X173433500Y-117700000D01*
X182186496Y-117700000D01*
X182206458Y-117889928D01*
X182265473Y-118071556D01*
X182268776Y-118077278D01*
X182268777Y-118077279D01*
X182288338Y-118111159D01*
X182360960Y-118236944D01*
X182365378Y-118241851D01*
X182365379Y-118241852D01*
X182482957Y-118372436D01*
X182488747Y-118378866D01*
X182643248Y-118491118D01*
X182649276Y-118493802D01*
X182649278Y-118493803D01*
X182784021Y-118553794D01*
X182817712Y-118568794D01*
X182911113Y-118588647D01*
X182998056Y-118607128D01*
X182998061Y-118607128D01*
X183004513Y-118608500D01*
X183195487Y-118608500D01*
X183201939Y-118607128D01*
X183201944Y-118607128D01*
X183288887Y-118588647D01*
X183382288Y-118568794D01*
X183415979Y-118553794D01*
X183550722Y-118493803D01*
X183550724Y-118493802D01*
X183556752Y-118491118D01*
X183711253Y-118378866D01*
X183717043Y-118372436D01*
X183834621Y-118241852D01*
X183834622Y-118241851D01*
X183839040Y-118236944D01*
X183911662Y-118111159D01*
X183931223Y-118077279D01*
X183931224Y-118077278D01*
X183934527Y-118071556D01*
X183993542Y-117889928D01*
X184013504Y-117700000D01*
X184004087Y-117610404D01*
X183994232Y-117516635D01*
X183994232Y-117516633D01*
X183993542Y-117510072D01*
X183934527Y-117328444D01*
X183930246Y-117321028D01*
X183869705Y-117216170D01*
X183839040Y-117163056D01*
X183765863Y-117081785D01*
X183735147Y-117017779D01*
X183733500Y-116997476D01*
X183733500Y-108683594D01*
X183753502Y-108615473D01*
X183807158Y-108568980D01*
X183877432Y-108558876D01*
X183942012Y-108588370D01*
X183948595Y-108594499D01*
X187396343Y-112042247D01*
X187403887Y-112050537D01*
X187408000Y-112057018D01*
X187413777Y-112062443D01*
X187457667Y-112103658D01*
X187460509Y-112106413D01*
X187480230Y-112126134D01*
X187483425Y-112128612D01*
X187492447Y-112136318D01*
X187524679Y-112166586D01*
X187531628Y-112170406D01*
X187542432Y-112176346D01*
X187558956Y-112187199D01*
X187574959Y-112199613D01*
X187615543Y-112217176D01*
X187626173Y-112222383D01*
X187664940Y-112243695D01*
X187672617Y-112245666D01*
X187672622Y-112245668D01*
X187684558Y-112248732D01*
X187703266Y-112255137D01*
X187721855Y-112263181D01*
X187729680Y-112264420D01*
X187729682Y-112264421D01*
X187765519Y-112270097D01*
X187777140Y-112272504D01*
X187812289Y-112281528D01*
X187819970Y-112283500D01*
X187840231Y-112283500D01*
X187859940Y-112285051D01*
X187879943Y-112288219D01*
X187887835Y-112287473D01*
X187893062Y-112286979D01*
X187923954Y-112284059D01*
X187935811Y-112283500D01*
X191241800Y-112283500D01*
X191309921Y-112303502D01*
X191329147Y-112319843D01*
X191329420Y-112319540D01*
X191334332Y-112323963D01*
X191338747Y-112328866D01*
X191493248Y-112441118D01*
X191499276Y-112443802D01*
X191499278Y-112443803D01*
X191661681Y-112516109D01*
X191667712Y-112518794D01*
X191761112Y-112538647D01*
X191848056Y-112557128D01*
X191848061Y-112557128D01*
X191854513Y-112558500D01*
X192045487Y-112558500D01*
X192051939Y-112557128D01*
X192051944Y-112557128D01*
X192138887Y-112538647D01*
X192232288Y-112518794D01*
X192238319Y-112516109D01*
X192400722Y-112443803D01*
X192400724Y-112443802D01*
X192406752Y-112441118D01*
X192561253Y-112328866D01*
X192597852Y-112288219D01*
X192684621Y-112191852D01*
X192684625Y-112191847D01*
X192689040Y-112186944D01*
X192764053Y-112057018D01*
X192781223Y-112027279D01*
X192781224Y-112027278D01*
X192784527Y-112021556D01*
X192843542Y-111839928D01*
X192846193Y-111814710D01*
X192862814Y-111656565D01*
X192863504Y-111650000D01*
X192843542Y-111460072D01*
X192784527Y-111278444D01*
X192689040Y-111113056D01*
X192591354Y-111004564D01*
X192565675Y-110976045D01*
X192565674Y-110976044D01*
X192561253Y-110971134D01*
X192406752Y-110858882D01*
X192400724Y-110856198D01*
X192400722Y-110856197D01*
X192238319Y-110783891D01*
X192238318Y-110783891D01*
X192232288Y-110781206D01*
X192053449Y-110743192D01*
X191990977Y-110709465D01*
X191956655Y-110647315D01*
X191961383Y-110576476D01*
X191986008Y-110535639D01*
X192001040Y-110518944D01*
X192096527Y-110353556D01*
X192155542Y-110171928D01*
X192156954Y-110158500D01*
X192174814Y-109988565D01*
X192175504Y-109982000D01*
X192174814Y-109975435D01*
X192174814Y-109974472D01*
X192194816Y-109906351D01*
X192248472Y-109859858D01*
X192318746Y-109849754D01*
X192327010Y-109851225D01*
X192418535Y-109870679D01*
X192436513Y-109874500D01*
X192627487Y-109874500D01*
X192633939Y-109873128D01*
X192633944Y-109873128D01*
X192720887Y-109854647D01*
X192814288Y-109834794D01*
X192895503Y-109798635D01*
X192982722Y-109759803D01*
X192982724Y-109759802D01*
X192988752Y-109757118D01*
X193143253Y-109644866D01*
X193202864Y-109578661D01*
X193263310Y-109541421D01*
X193334293Y-109542773D01*
X193393278Y-109582286D01*
X193421536Y-109647417D01*
X193422500Y-109662971D01*
X193422500Y-122233476D01*
X193402498Y-122301597D01*
X193390142Y-122317779D01*
X193316960Y-122399056D01*
X193221473Y-122564444D01*
X193162458Y-122746072D01*
X193142496Y-122936000D01*
X193162458Y-123125928D01*
X193221473Y-123307556D01*
X193316960Y-123472944D01*
X193444747Y-123614866D01*
X193599248Y-123727118D01*
X193605276Y-123729802D01*
X193605278Y-123729803D01*
X193767681Y-123802109D01*
X193773712Y-123804794D01*
X193867113Y-123824647D01*
X193954056Y-123843128D01*
X193954061Y-123843128D01*
X193960513Y-123844500D01*
X194151487Y-123844500D01*
X194157939Y-123843128D01*
X194157944Y-123843128D01*
X194244887Y-123824647D01*
X194338288Y-123804794D01*
X194344319Y-123802109D01*
X194506722Y-123729803D01*
X194506724Y-123729802D01*
X194512752Y-123727118D01*
X194667253Y-123614866D01*
X194795040Y-123472944D01*
X194890527Y-123307556D01*
X194949542Y-123125928D01*
X194969504Y-122936000D01*
X194949542Y-122746072D01*
X194890527Y-122564444D01*
X194795040Y-122399056D01*
X194721863Y-122317785D01*
X194691147Y-122253779D01*
X194689500Y-122233476D01*
X194689500Y-119531393D01*
X194709502Y-119463272D01*
X194763158Y-119416779D01*
X194833432Y-119406675D01*
X194889560Y-119429456D01*
X195043248Y-119541118D01*
X195049276Y-119543802D01*
X195049278Y-119543803D01*
X195205105Y-119613181D01*
X195217712Y-119618794D01*
X195289528Y-119634059D01*
X195398056Y-119657128D01*
X195398061Y-119657128D01*
X195404513Y-119658500D01*
X195595487Y-119658500D01*
X195601939Y-119657128D01*
X195601944Y-119657128D01*
X195710472Y-119634059D01*
X195782288Y-119618794D01*
X195794895Y-119613181D01*
X195950722Y-119543803D01*
X195950724Y-119543802D01*
X195956752Y-119541118D01*
X196111253Y-119428866D01*
X196131234Y-119406675D01*
X196234621Y-119291852D01*
X196234622Y-119291851D01*
X196239040Y-119286944D01*
X196334527Y-119121556D01*
X196393542Y-118939928D01*
X196413504Y-118750000D01*
X196393542Y-118560072D01*
X196334527Y-118378444D01*
X196326223Y-118364060D01*
X196271209Y-118268774D01*
X196239040Y-118213056D01*
X196165863Y-118131785D01*
X196135147Y-118067779D01*
X196133500Y-118047476D01*
X196133500Y-112352524D01*
X196153502Y-112284403D01*
X196165858Y-112268221D01*
X196239040Y-112186944D01*
X196314053Y-112057018D01*
X196331223Y-112027279D01*
X196331224Y-112027278D01*
X196334527Y-112021556D01*
X196393542Y-111839928D01*
X196396193Y-111814710D01*
X196412814Y-111656565D01*
X196413504Y-111650000D01*
X196393542Y-111460072D01*
X196334527Y-111278444D01*
X196239040Y-111113056D01*
X196141354Y-111004564D01*
X196115675Y-110976045D01*
X196115674Y-110976044D01*
X196111253Y-110971134D01*
X195956752Y-110858882D01*
X195950724Y-110856198D01*
X195950722Y-110856197D01*
X195788319Y-110783891D01*
X195788318Y-110783891D01*
X195782288Y-110781206D01*
X195688888Y-110761353D01*
X195601944Y-110742872D01*
X195601939Y-110742872D01*
X195595487Y-110741500D01*
X195404513Y-110741500D01*
X195398061Y-110742872D01*
X195398056Y-110742872D01*
X195311112Y-110761353D01*
X195217712Y-110781206D01*
X195211682Y-110783891D01*
X195211681Y-110783891D01*
X195049278Y-110856197D01*
X195049276Y-110856198D01*
X195043248Y-110858882D01*
X194889560Y-110970543D01*
X194822694Y-110994401D01*
X194753542Y-110978321D01*
X194704062Y-110927407D01*
X194689500Y-110868607D01*
X194689500Y-101854000D01*
X195936496Y-101854000D01*
X195937186Y-101860565D01*
X195952329Y-102004638D01*
X195956458Y-102043928D01*
X196015473Y-102225556D01*
X196018776Y-102231278D01*
X196018777Y-102231279D01*
X196031043Y-102252524D01*
X196110960Y-102390944D01*
X196115378Y-102395851D01*
X196115379Y-102395852D01*
X196234325Y-102527955D01*
X196238747Y-102532866D01*
X196393248Y-102645118D01*
X196399276Y-102647802D01*
X196399278Y-102647803D01*
X196467500Y-102678177D01*
X196567712Y-102722794D01*
X196661112Y-102742647D01*
X196748056Y-102761128D01*
X196748061Y-102761128D01*
X196754513Y-102762500D01*
X196945487Y-102762500D01*
X196951939Y-102761128D01*
X196951944Y-102761128D01*
X197080303Y-102733844D01*
X197151094Y-102739246D01*
X197207726Y-102782063D01*
X197232220Y-102848701D01*
X197232500Y-102857091D01*
X197232500Y-112697233D01*
X197231973Y-112708416D01*
X197230298Y-112715909D01*
X197230547Y-112723835D01*
X197230547Y-112723836D01*
X197232438Y-112783986D01*
X197232500Y-112787945D01*
X197232500Y-112815856D01*
X197232997Y-112819790D01*
X197232997Y-112819791D01*
X197233005Y-112819856D01*
X197233938Y-112831693D01*
X197235327Y-112875889D01*
X197237732Y-112884166D01*
X197240978Y-112895339D01*
X197244987Y-112914700D01*
X197247526Y-112934797D01*
X197250445Y-112942168D01*
X197250445Y-112942170D01*
X197263804Y-112975912D01*
X197267649Y-112987142D01*
X197279982Y-113029593D01*
X197284015Y-113036412D01*
X197284017Y-113036417D01*
X197290293Y-113047028D01*
X197298988Y-113064776D01*
X197306448Y-113083617D01*
X197311110Y-113090033D01*
X197311110Y-113090034D01*
X197332436Y-113119387D01*
X197338952Y-113129307D01*
X197361458Y-113167362D01*
X197375779Y-113181683D01*
X197388619Y-113196716D01*
X197400528Y-113213107D01*
X197406634Y-113218158D01*
X197434605Y-113241298D01*
X197443384Y-113249288D01*
X201767595Y-117573499D01*
X201801621Y-117635811D01*
X201804500Y-117662594D01*
X201804500Y-128359476D01*
X201784498Y-128427597D01*
X201772142Y-128443779D01*
X201698960Y-128525056D01*
X201603473Y-128690444D01*
X201544458Y-128872072D01*
X201543768Y-128878633D01*
X201543768Y-128878635D01*
X201535749Y-128954930D01*
X201524496Y-129062000D01*
X201525186Y-129068565D01*
X201540749Y-129216635D01*
X201544458Y-129251928D01*
X201603473Y-129433556D01*
X201698960Y-129598944D01*
X201826747Y-129740866D01*
X201868988Y-129771556D01*
X201967921Y-129843435D01*
X201981248Y-129853118D01*
X201987276Y-129855802D01*
X201987278Y-129855803D01*
X202149681Y-129928109D01*
X202155712Y-129930794D01*
X202240461Y-129948808D01*
X202336056Y-129969128D01*
X202336061Y-129969128D01*
X202342513Y-129970500D01*
X202533487Y-129970500D01*
X202539939Y-129969128D01*
X202539944Y-129969128D01*
X202635539Y-129948808D01*
X202720288Y-129930794D01*
X202726319Y-129928109D01*
X202888722Y-129855803D01*
X202888724Y-129855802D01*
X202894752Y-129853118D01*
X202908080Y-129843435D01*
X203007012Y-129771556D01*
X203049253Y-129740866D01*
X203177040Y-129598944D01*
X203272527Y-129433556D01*
X203331542Y-129251928D01*
X203335252Y-129216635D01*
X203350814Y-129068565D01*
X203351504Y-129062000D01*
X203340251Y-128954930D01*
X203332232Y-128878635D01*
X203332232Y-128878633D01*
X203331542Y-128872072D01*
X203272527Y-128690444D01*
X203177040Y-128525056D01*
X203103863Y-128443785D01*
X203073147Y-128379779D01*
X203071500Y-128359476D01*
X203071500Y-117426763D01*
X203072027Y-117415579D01*
X203073701Y-117408091D01*
X203071562Y-117340032D01*
X203071500Y-117336075D01*
X203071500Y-117308144D01*
X203070994Y-117304138D01*
X203070061Y-117292292D01*
X203068922Y-117256037D01*
X203068673Y-117248110D01*
X203063022Y-117228658D01*
X203059014Y-117209306D01*
X203057468Y-117197068D01*
X203057467Y-117197066D01*
X203056474Y-117189203D01*
X203040194Y-117148086D01*
X203036359Y-117136885D01*
X203024018Y-117094406D01*
X203019985Y-117087587D01*
X203019983Y-117087582D01*
X203013707Y-117076971D01*
X203005010Y-117059221D01*
X202997552Y-117040383D01*
X202971571Y-117004623D01*
X202965053Y-116994701D01*
X202946578Y-116963460D01*
X202946574Y-116963455D01*
X202942542Y-116956637D01*
X202928218Y-116942313D01*
X202915376Y-116927278D01*
X202903472Y-116910893D01*
X202869406Y-116882711D01*
X202860627Y-116874722D01*
X198536405Y-112550500D01*
X198502379Y-112488188D01*
X198499500Y-112461405D01*
X198499500Y-100016524D01*
X198519502Y-99948403D01*
X198531858Y-99932221D01*
X198605040Y-99850944D01*
X198683603Y-99714870D01*
X198697223Y-99691279D01*
X198697224Y-99691278D01*
X198700527Y-99685556D01*
X198759542Y-99503928D01*
X198763672Y-99464638D01*
X198778814Y-99320565D01*
X198779504Y-99314000D01*
X198772947Y-99251614D01*
X198760232Y-99130635D01*
X198760232Y-99130633D01*
X198759542Y-99124072D01*
X198700527Y-98942444D01*
X198605040Y-98777056D01*
X198477253Y-98635134D01*
X198322752Y-98522882D01*
X198316724Y-98520198D01*
X198316722Y-98520197D01*
X198154319Y-98447891D01*
X198154318Y-98447891D01*
X198148288Y-98445206D01*
X198054887Y-98425353D01*
X197967944Y-98406872D01*
X197967939Y-98406872D01*
X197961487Y-98405500D01*
X197770513Y-98405500D01*
X197764061Y-98406872D01*
X197764056Y-98406872D01*
X197635697Y-98434156D01*
X197564906Y-98428754D01*
X197508274Y-98385937D01*
X197483780Y-98319299D01*
X197483500Y-98310909D01*
X197483500Y-97252524D01*
X197503502Y-97184403D01*
X197515858Y-97168221D01*
X197589040Y-97086944D01*
X197659288Y-96965271D01*
X197681223Y-96927279D01*
X197681224Y-96927278D01*
X197684527Y-96921556D01*
X197743542Y-96739928D01*
X197750664Y-96672171D01*
X197758249Y-96600000D01*
X198736496Y-96600000D01*
X198737186Y-96606565D01*
X198751972Y-96747242D01*
X198756458Y-96789928D01*
X198815473Y-96971556D01*
X198818776Y-96977278D01*
X198818777Y-96977279D01*
X198840271Y-97014507D01*
X198910960Y-97136944D01*
X198915378Y-97141851D01*
X198915379Y-97141852D01*
X199034325Y-97273955D01*
X199038747Y-97278866D01*
X199193248Y-97391118D01*
X199199276Y-97393802D01*
X199199278Y-97393803D01*
X199361681Y-97466109D01*
X199367712Y-97468794D01*
X199435774Y-97483261D01*
X199548056Y-97507128D01*
X199548061Y-97507128D01*
X199554513Y-97508500D01*
X199745487Y-97508500D01*
X199751939Y-97507128D01*
X199751944Y-97507128D01*
X199864226Y-97483261D01*
X199932288Y-97468794D01*
X199938319Y-97466109D01*
X200100722Y-97393803D01*
X200100724Y-97393802D01*
X200106752Y-97391118D01*
X200261253Y-97278866D01*
X200265675Y-97273955D01*
X200384621Y-97141852D01*
X200384622Y-97141851D01*
X200389040Y-97136944D01*
X200459729Y-97014507D01*
X200481223Y-96977279D01*
X200481224Y-96977278D01*
X200484527Y-96971556D01*
X200543542Y-96789928D01*
X200548029Y-96747242D01*
X200562814Y-96606565D01*
X200563504Y-96600000D01*
X200551245Y-96483365D01*
X200544232Y-96416635D01*
X200544232Y-96416633D01*
X200543542Y-96410072D01*
X200484527Y-96228444D01*
X200389040Y-96063056D01*
X200315863Y-95981785D01*
X200285147Y-95917779D01*
X200283500Y-95897476D01*
X200283500Y-93752524D01*
X200303502Y-93684403D01*
X200315858Y-93668221D01*
X200389040Y-93586944D01*
X200456538Y-93470035D01*
X200481223Y-93427279D01*
X200481224Y-93427278D01*
X200484527Y-93421556D01*
X200543542Y-93239928D01*
X200563504Y-93050000D01*
X200562814Y-93043435D01*
X200544232Y-92866635D01*
X200544232Y-92866633D01*
X200543542Y-92860072D01*
X200484527Y-92678444D01*
X200467356Y-92648702D01*
X200412770Y-92554158D01*
X200389040Y-92513056D01*
X200261253Y-92371134D01*
X200106752Y-92258882D01*
X200100724Y-92256198D01*
X200100722Y-92256197D01*
X199938319Y-92183891D01*
X199938318Y-92183891D01*
X199932288Y-92181206D01*
X199838887Y-92161353D01*
X199751944Y-92142872D01*
X199751939Y-92142872D01*
X199745487Y-92141500D01*
X199554513Y-92141500D01*
X199548061Y-92142872D01*
X199548056Y-92142872D01*
X199461112Y-92161353D01*
X199367712Y-92181206D01*
X199361682Y-92183891D01*
X199361681Y-92183891D01*
X199199278Y-92256197D01*
X199199276Y-92256198D01*
X199193248Y-92258882D01*
X199038747Y-92371134D01*
X198910960Y-92513056D01*
X198887230Y-92554158D01*
X198832645Y-92648702D01*
X198815473Y-92678444D01*
X198756458Y-92860072D01*
X198755768Y-92866633D01*
X198755768Y-92866635D01*
X198737186Y-93043435D01*
X198736496Y-93050000D01*
X198756458Y-93239928D01*
X198815473Y-93421556D01*
X198818776Y-93427278D01*
X198818777Y-93427279D01*
X198843462Y-93470035D01*
X198910960Y-93586944D01*
X198984137Y-93668215D01*
X199014853Y-93732221D01*
X199016500Y-93752524D01*
X199016500Y-95897476D01*
X198996498Y-95965597D01*
X198984142Y-95981779D01*
X198910960Y-96063056D01*
X198815473Y-96228444D01*
X198756458Y-96410072D01*
X198755768Y-96416633D01*
X198755768Y-96416635D01*
X198748755Y-96483365D01*
X198736496Y-96600000D01*
X197758249Y-96600000D01*
X197762814Y-96556565D01*
X197763504Y-96550000D01*
X197756960Y-96487735D01*
X197744232Y-96366635D01*
X197744232Y-96366633D01*
X197743542Y-96360072D01*
X197684527Y-96178444D01*
X197653589Y-96124857D01*
X197641428Y-96103794D01*
X197589040Y-96013056D01*
X197584598Y-96008122D01*
X197465675Y-95876045D01*
X197465674Y-95876044D01*
X197461253Y-95871134D01*
X197306752Y-95758882D01*
X197300724Y-95756198D01*
X197300722Y-95756197D01*
X197138319Y-95683891D01*
X197138318Y-95683891D01*
X197132288Y-95681206D01*
X197038888Y-95661353D01*
X196951944Y-95642872D01*
X196951939Y-95642872D01*
X196945487Y-95641500D01*
X196754513Y-95641500D01*
X196748061Y-95642872D01*
X196748056Y-95642872D01*
X196661112Y-95661353D01*
X196567712Y-95681206D01*
X196561682Y-95683891D01*
X196561681Y-95683891D01*
X196399278Y-95756197D01*
X196399276Y-95756198D01*
X196393248Y-95758882D01*
X196238747Y-95871134D01*
X196234326Y-95876044D01*
X196234325Y-95876045D01*
X196115403Y-96008122D01*
X196110960Y-96013056D01*
X196058572Y-96103794D01*
X196046412Y-96124857D01*
X196015473Y-96178444D01*
X195956458Y-96360072D01*
X195955768Y-96366633D01*
X195955768Y-96366635D01*
X195943040Y-96487735D01*
X195936496Y-96550000D01*
X195937186Y-96556565D01*
X195949337Y-96672171D01*
X195956458Y-96739928D01*
X196015473Y-96921556D01*
X196018776Y-96927278D01*
X196018777Y-96927279D01*
X196040712Y-96965271D01*
X196110960Y-97086944D01*
X196184137Y-97168215D01*
X196214853Y-97232221D01*
X196216500Y-97252524D01*
X196216500Y-101151476D01*
X196196498Y-101219597D01*
X196184142Y-101235779D01*
X196110960Y-101317056D01*
X196015473Y-101482444D01*
X195956458Y-101664072D01*
X195955768Y-101670633D01*
X195955768Y-101670635D01*
X195939930Y-101821327D01*
X195936496Y-101854000D01*
X194689500Y-101854000D01*
X194689500Y-95698524D01*
X194709502Y-95630403D01*
X194721858Y-95614221D01*
X194795040Y-95532944D01*
X194874201Y-95395834D01*
X194887223Y-95373279D01*
X194887224Y-95373278D01*
X194890527Y-95367556D01*
X194949542Y-95185928D01*
X194952551Y-95157305D01*
X194968814Y-95002565D01*
X194969504Y-94996000D01*
X194949542Y-94806072D01*
X194890527Y-94624444D01*
X194795040Y-94459056D01*
X194667253Y-94317134D01*
X194512752Y-94204882D01*
X194506724Y-94202198D01*
X194506722Y-94202197D01*
X194344319Y-94129891D01*
X194344318Y-94129891D01*
X194338288Y-94127206D01*
X194244887Y-94107353D01*
X194157944Y-94088872D01*
X194157939Y-94088872D01*
X194151487Y-94087500D01*
X193960513Y-94087500D01*
X193954061Y-94088872D01*
X193954056Y-94088872D01*
X193867112Y-94107353D01*
X193773712Y-94127206D01*
X193767682Y-94129891D01*
X193767681Y-94129891D01*
X193605278Y-94202197D01*
X193605276Y-94202198D01*
X193599248Y-94204882D01*
X193444747Y-94317134D01*
X193395925Y-94371357D01*
X193385136Y-94383339D01*
X193324690Y-94420579D01*
X193253707Y-94419227D01*
X193194722Y-94379714D01*
X193166464Y-94314583D01*
X193165500Y-94299029D01*
X193165500Y-79696524D01*
X193185502Y-79628403D01*
X193197858Y-79612221D01*
X193271040Y-79530944D01*
X193340540Y-79410567D01*
X193363223Y-79371279D01*
X193363224Y-79371278D01*
X193366527Y-79365556D01*
X193425542Y-79183928D01*
X193426781Y-79172145D01*
X193444814Y-79000565D01*
X193445504Y-78994000D01*
X193436115Y-78904671D01*
X193426232Y-78810635D01*
X193426232Y-78810633D01*
X193425542Y-78804072D01*
X193366527Y-78622444D01*
X193271040Y-78457056D01*
X193191254Y-78368444D01*
X193147675Y-78320045D01*
X193147674Y-78320044D01*
X193143253Y-78315134D01*
X192988752Y-78202882D01*
X192982724Y-78200198D01*
X192982722Y-78200197D01*
X192820319Y-78127891D01*
X192820318Y-78127891D01*
X192814288Y-78125206D01*
X192720887Y-78105353D01*
X192633944Y-78086872D01*
X192633939Y-78086872D01*
X192627487Y-78085500D01*
X192436513Y-78085500D01*
X192430061Y-78086872D01*
X192430056Y-78086872D01*
X192343113Y-78105353D01*
X192249712Y-78125206D01*
X192243682Y-78127891D01*
X192243681Y-78127891D01*
X192081278Y-78200197D01*
X192081276Y-78200198D01*
X192075248Y-78202882D01*
X191920747Y-78315134D01*
X191916326Y-78320044D01*
X191916325Y-78320045D01*
X191872747Y-78368444D01*
X191792960Y-78457056D01*
X191697473Y-78622444D01*
X191695431Y-78628729D01*
X191642166Y-78792660D01*
X191602092Y-78851266D01*
X191536696Y-78878903D01*
X191496136Y-78876971D01*
X191363944Y-78848872D01*
X191363939Y-78848872D01*
X191357487Y-78847500D01*
X191166513Y-78847500D01*
X191160061Y-78848872D01*
X191160056Y-78848872D01*
X191073112Y-78867353D01*
X190979712Y-78887206D01*
X190973682Y-78889891D01*
X190973681Y-78889891D01*
X190811278Y-78962197D01*
X190811276Y-78962198D01*
X190805248Y-78964882D01*
X190799907Y-78968762D01*
X190799906Y-78968763D01*
X190765171Y-78994000D01*
X190650747Y-79077134D01*
X190646326Y-79082044D01*
X190646325Y-79082045D01*
X190540268Y-79199834D01*
X190522960Y-79219056D01*
X190493927Y-79269342D01*
X190442618Y-79358213D01*
X190427473Y-79384444D01*
X190418985Y-79410567D01*
X190372166Y-79554660D01*
X190332092Y-79613266D01*
X190266696Y-79640903D01*
X190226136Y-79638971D01*
X190093944Y-79610872D01*
X190093939Y-79610872D01*
X190087487Y-79609500D01*
X189896513Y-79609500D01*
X189890061Y-79610872D01*
X189890056Y-79610872D01*
X189807582Y-79628403D01*
X189709712Y-79649206D01*
X189703682Y-79651891D01*
X189703681Y-79651891D01*
X189541278Y-79724197D01*
X189541276Y-79724198D01*
X189535248Y-79726882D01*
X189529907Y-79730762D01*
X189529906Y-79730763D01*
X189511907Y-79743840D01*
X189380747Y-79839134D01*
X189376326Y-79844044D01*
X189376325Y-79844045D01*
X189310362Y-79917305D01*
X189252960Y-79981056D01*
X189249659Y-79986774D01*
X189168360Y-80127588D01*
X189157473Y-80146444D01*
X189098458Y-80328072D01*
X189097768Y-80334633D01*
X189097768Y-80334635D01*
X189088194Y-80425731D01*
X189078496Y-80518000D01*
X189079186Y-80524565D01*
X189079186Y-80525528D01*
X189059184Y-80593649D01*
X189005528Y-80640142D01*
X188935254Y-80650246D01*
X188926990Y-80648775D01*
X188823946Y-80626873D01*
X188823947Y-80626873D01*
X188817487Y-80625500D01*
X188626513Y-80625500D01*
X188620061Y-80626872D01*
X188620056Y-80626872D01*
X188557628Y-80640142D01*
X188439712Y-80665206D01*
X188433682Y-80667891D01*
X188433681Y-80667891D01*
X188271278Y-80740197D01*
X188271276Y-80740198D01*
X188265248Y-80742882D01*
X188110747Y-80855134D01*
X188106326Y-80860044D01*
X188106325Y-80860045D01*
X188007337Y-80969983D01*
X187982960Y-80997056D01*
X187887473Y-81162444D01*
X187828458Y-81344072D01*
X187827768Y-81350633D01*
X187827768Y-81350635D01*
X187811930Y-81501327D01*
X187808496Y-81534000D01*
X187809186Y-81540565D01*
X187827687Y-81716589D01*
X187828458Y-81723928D01*
X187887473Y-81905556D01*
X187890776Y-81911278D01*
X187890777Y-81911279D01*
X187904397Y-81934870D01*
X187982960Y-82070944D01*
X188056137Y-82152215D01*
X188086853Y-82216221D01*
X188088500Y-82236524D01*
X188088500Y-109279476D01*
X188068498Y-109347597D01*
X188056142Y-109363779D01*
X187982960Y-109445056D01*
X187887473Y-109610444D01*
X187828458Y-109792072D01*
X187827768Y-109798633D01*
X187827768Y-109798635D01*
X187816697Y-109903968D01*
X187808496Y-109982000D01*
X187809186Y-109988565D01*
X187827047Y-110158500D01*
X187828458Y-110171928D01*
X187887473Y-110353556D01*
X187890776Y-110359278D01*
X187890777Y-110359279D01*
X187938977Y-110442763D01*
X187955715Y-110511758D01*
X187932495Y-110578850D01*
X187876688Y-110622737D01*
X187806013Y-110629486D01*
X187740763Y-110594858D01*
X184973441Y-107827536D01*
X184939415Y-107765224D01*
X184944480Y-107694409D01*
X184953416Y-107675442D01*
X184963414Y-107658125D01*
X184984527Y-107621556D01*
X185043542Y-107439928D01*
X185063504Y-107250000D01*
X185043542Y-107060072D01*
X184984527Y-106878444D01*
X184889040Y-106713056D01*
X184815863Y-106631785D01*
X184785147Y-106567779D01*
X184783500Y-106547476D01*
X184783500Y-102252524D01*
X184803502Y-102184403D01*
X184815858Y-102168221D01*
X184889040Y-102086944D01*
X184984527Y-101921556D01*
X185043542Y-101739928D01*
X185059585Y-101587292D01*
X185062814Y-101556565D01*
X185063504Y-101550000D01*
X185055802Y-101476721D01*
X185044232Y-101366635D01*
X185044232Y-101366633D01*
X185043542Y-101360072D01*
X184984527Y-101178444D01*
X184889040Y-101013056D01*
X184878206Y-101001023D01*
X184765675Y-100876045D01*
X184765674Y-100876044D01*
X184761253Y-100871134D01*
X184606752Y-100758882D01*
X184600724Y-100756198D01*
X184600722Y-100756197D01*
X184438319Y-100683891D01*
X184438318Y-100683891D01*
X184432288Y-100681206D01*
X184338888Y-100661353D01*
X184251944Y-100642872D01*
X184251939Y-100642872D01*
X184245487Y-100641500D01*
X184054513Y-100641500D01*
X184048061Y-100642872D01*
X184048056Y-100642872D01*
X183885697Y-100677383D01*
X183814906Y-100671981D01*
X183758274Y-100629164D01*
X183733780Y-100562526D01*
X183733500Y-100554136D01*
X183733500Y-77049557D01*
X183753502Y-76981436D01*
X183785439Y-76947621D01*
X183805909Y-76932749D01*
X183805911Y-76932747D01*
X183811253Y-76928866D01*
X183843662Y-76892872D01*
X183934621Y-76791852D01*
X183934622Y-76791851D01*
X183939040Y-76786944D01*
X184034527Y-76621556D01*
X184093542Y-76439928D01*
X184113504Y-76250000D01*
X184104083Y-76160366D01*
X184094232Y-76066635D01*
X184094232Y-76066633D01*
X184093542Y-76060072D01*
X184034527Y-75878444D01*
X184011960Y-75839356D01*
X183984081Y-75791070D01*
X183939040Y-75713056D01*
X183829086Y-75590939D01*
X183815675Y-75576045D01*
X183815674Y-75576044D01*
X183811253Y-75571134D01*
X183656752Y-75458882D01*
X183650724Y-75456198D01*
X183650722Y-75456197D01*
X183488319Y-75383891D01*
X183488318Y-75383891D01*
X183482288Y-75381206D01*
X183388888Y-75361353D01*
X183301944Y-75342872D01*
X183301939Y-75342872D01*
X183295487Y-75341500D01*
X183104513Y-75341500D01*
X183098061Y-75342872D01*
X183098056Y-75342872D01*
X183011112Y-75361353D01*
X182917712Y-75381206D01*
X182911682Y-75383891D01*
X182911681Y-75383891D01*
X182749278Y-75456197D01*
X182749276Y-75456198D01*
X182743248Y-75458882D01*
X182588747Y-75571134D01*
X182584326Y-75576044D01*
X182584325Y-75576045D01*
X182570915Y-75590939D01*
X182460960Y-75713056D01*
X182415919Y-75791070D01*
X182388041Y-75839356D01*
X182365473Y-75878444D01*
X182306458Y-76060072D01*
X182305768Y-76066633D01*
X182305768Y-76066635D01*
X182295917Y-76160366D01*
X182286496Y-76250000D01*
X182306458Y-76439928D01*
X182365473Y-76621556D01*
X182368776Y-76627278D01*
X182368777Y-76627279D01*
X182449619Y-76767301D01*
X182466500Y-76830301D01*
X182466500Y-116997476D01*
X182446498Y-117065597D01*
X182434142Y-117081779D01*
X182360960Y-117163056D01*
X182330295Y-117216170D01*
X182269755Y-117321028D01*
X182265473Y-117328444D01*
X182206458Y-117510072D01*
X182205768Y-117516633D01*
X182205768Y-117516635D01*
X182195913Y-117610404D01*
X182186496Y-117700000D01*
X173433500Y-117700000D01*
X173433500Y-115806492D01*
X173453502Y-115738371D01*
X173507158Y-115691878D01*
X173577432Y-115681774D01*
X173585697Y-115683245D01*
X173698056Y-115707128D01*
X173698061Y-115707128D01*
X173704513Y-115708500D01*
X173895487Y-115708500D01*
X173901939Y-115707128D01*
X173901944Y-115707128D01*
X174012655Y-115683595D01*
X174082288Y-115668794D01*
X174157257Y-115635416D01*
X174250722Y-115593803D01*
X174250724Y-115593802D01*
X174256752Y-115591118D01*
X174278381Y-115575404D01*
X174351759Y-115522091D01*
X174411253Y-115478866D01*
X174415675Y-115473955D01*
X174534621Y-115341852D01*
X174534622Y-115341851D01*
X174539040Y-115336944D01*
X174634527Y-115171556D01*
X174693542Y-114989928D01*
X174700752Y-114921329D01*
X174727765Y-114855673D01*
X174785987Y-114815043D01*
X174826062Y-114808500D01*
X174895487Y-114808500D01*
X174901939Y-114807128D01*
X174901944Y-114807128D01*
X174988888Y-114788647D01*
X175082288Y-114768794D01*
X175130329Y-114747405D01*
X175250722Y-114693803D01*
X175250724Y-114693802D01*
X175256752Y-114691118D01*
X175411253Y-114578866D01*
X175434194Y-114553387D01*
X175534621Y-114441852D01*
X175534622Y-114441851D01*
X175539040Y-114436944D01*
X175612395Y-114309889D01*
X175631223Y-114277279D01*
X175631224Y-114277278D01*
X175634527Y-114271556D01*
X175692279Y-114093816D01*
X175732351Y-114035211D01*
X175795562Y-114008853D01*
X175795487Y-114008500D01*
X175797366Y-114008101D01*
X175797368Y-114008100D01*
X175801940Y-114007128D01*
X175801943Y-114007128D01*
X175908397Y-113984500D01*
X175982288Y-113968794D01*
X176029902Y-113947595D01*
X176150722Y-113893803D01*
X176150724Y-113893802D01*
X176156752Y-113891118D01*
X176311253Y-113778866D01*
X176439040Y-113636944D01*
X176534527Y-113471556D01*
X176593542Y-113289928D01*
X176597814Y-113249288D01*
X176612814Y-113106565D01*
X176613504Y-113100000D01*
X176608732Y-113054595D01*
X176594232Y-112916635D01*
X176594232Y-112916633D01*
X176593542Y-112910072D01*
X176534527Y-112728444D01*
X176521603Y-112706058D01*
X176442341Y-112568774D01*
X176439040Y-112563056D01*
X176365863Y-112481785D01*
X176335147Y-112417779D01*
X176333500Y-112397476D01*
X176333500Y-108342277D01*
X177137009Y-108342277D01*
X177162625Y-108610769D01*
X177163710Y-108615203D01*
X177163711Y-108615209D01*
X177225645Y-108868312D01*
X177226731Y-108872750D01*
X177327985Y-109122733D01*
X177330294Y-109126676D01*
X177436490Y-109308045D01*
X177464265Y-109355482D01*
X177467118Y-109359049D01*
X177584686Y-109506060D01*
X177632716Y-109566119D01*
X177829809Y-109750234D01*
X178051416Y-109903968D01*
X178055499Y-109905999D01*
X178055502Y-109906001D01*
X178056206Y-109906351D01*
X178292894Y-110024101D01*
X178297228Y-110025522D01*
X178297231Y-110025523D01*
X178544853Y-110106698D01*
X178544859Y-110106699D01*
X178549186Y-110108118D01*
X178553677Y-110108898D01*
X178553678Y-110108898D01*
X178811140Y-110153601D01*
X178811148Y-110153602D01*
X178814921Y-110154257D01*
X178818758Y-110154448D01*
X178898578Y-110158422D01*
X178898586Y-110158422D01*
X178900149Y-110158500D01*
X179068512Y-110158500D01*
X179070780Y-110158335D01*
X179070792Y-110158335D01*
X179201884Y-110148823D01*
X179269004Y-110143953D01*
X179273459Y-110142969D01*
X179273462Y-110142969D01*
X179527912Y-110086791D01*
X179527916Y-110086790D01*
X179532372Y-110085806D01*
X179658480Y-110038028D01*
X179780318Y-109991868D01*
X179780321Y-109991867D01*
X179784588Y-109990250D01*
X179995448Y-109873128D01*
X180016375Y-109861504D01*
X180016376Y-109861503D01*
X180020368Y-109859286D01*
X180234773Y-109695657D01*
X180423312Y-109502792D01*
X180582034Y-109284730D01*
X180665190Y-109126676D01*
X180705490Y-109050079D01*
X180705493Y-109050073D01*
X180707615Y-109046039D01*
X180770378Y-108868312D01*
X180795902Y-108796033D01*
X180795902Y-108796032D01*
X180797425Y-108791720D01*
X180849581Y-108527100D01*
X180858231Y-108353340D01*
X180862764Y-108262292D01*
X180862764Y-108262286D01*
X180862991Y-108257723D01*
X180837375Y-107989231D01*
X180830935Y-107962909D01*
X180774355Y-107731688D01*
X180773269Y-107727250D01*
X180672015Y-107477267D01*
X180535735Y-107244518D01*
X180417928Y-107097208D01*
X180370136Y-107037447D01*
X180370135Y-107037445D01*
X180367284Y-107033881D01*
X180170191Y-106849766D01*
X179948584Y-106696032D01*
X179944501Y-106694001D01*
X179944498Y-106693999D01*
X179779606Y-106611967D01*
X179707106Y-106575899D01*
X179702772Y-106574478D01*
X179702769Y-106574477D01*
X179455147Y-106493302D01*
X179455141Y-106493301D01*
X179450814Y-106491882D01*
X179446322Y-106491102D01*
X179188860Y-106446399D01*
X179188852Y-106446398D01*
X179185079Y-106445743D01*
X179173817Y-106445182D01*
X179101422Y-106441578D01*
X179101414Y-106441578D01*
X179099851Y-106441500D01*
X178931488Y-106441500D01*
X178929220Y-106441665D01*
X178929208Y-106441665D01*
X178798116Y-106451177D01*
X178730996Y-106456047D01*
X178726541Y-106457031D01*
X178726538Y-106457031D01*
X178472088Y-106513209D01*
X178472084Y-106513210D01*
X178467628Y-106514194D01*
X178379782Y-106547476D01*
X178219682Y-106608132D01*
X178219679Y-106608133D01*
X178215412Y-106609750D01*
X178211421Y-106611967D01*
X178019132Y-106718774D01*
X177979632Y-106740714D01*
X177765227Y-106904343D01*
X177576688Y-107097208D01*
X177417966Y-107315270D01*
X177415844Y-107319304D01*
X177294510Y-107549921D01*
X177294507Y-107549927D01*
X177292385Y-107553961D01*
X177290865Y-107558266D01*
X177290863Y-107558270D01*
X177219918Y-107759170D01*
X177202575Y-107808280D01*
X177201692Y-107812762D01*
X177153184Y-108058872D01*
X177150419Y-108072900D01*
X177150192Y-108077453D01*
X177150192Y-108077456D01*
X177139510Y-108292045D01*
X177137009Y-108342277D01*
X176333500Y-108342277D01*
X176333500Y-73350000D01*
X182586496Y-73350000D01*
X182587186Y-73356565D01*
X182604729Y-73523474D01*
X182606458Y-73539928D01*
X182665473Y-73721556D01*
X182760960Y-73886944D01*
X182765378Y-73891851D01*
X182765379Y-73891852D01*
X182807738Y-73938896D01*
X182888747Y-74028866D01*
X183043248Y-74141118D01*
X183049276Y-74143802D01*
X183049278Y-74143803D01*
X183190245Y-74206565D01*
X183217712Y-74218794D01*
X183311112Y-74238647D01*
X183398056Y-74257128D01*
X183398061Y-74257128D01*
X183404513Y-74258500D01*
X183595487Y-74258500D01*
X183601939Y-74257128D01*
X183601944Y-74257128D01*
X183688888Y-74238647D01*
X183782288Y-74218794D01*
X183809755Y-74206565D01*
X183950722Y-74143803D01*
X183950724Y-74143802D01*
X183956752Y-74141118D01*
X184111253Y-74028866D01*
X184192262Y-73938896D01*
X184234621Y-73891852D01*
X184234622Y-73891851D01*
X184239040Y-73886944D01*
X184334527Y-73721556D01*
X184393542Y-73539928D01*
X184395272Y-73523474D01*
X184412814Y-73356565D01*
X184413504Y-73350000D01*
X184393542Y-73160072D01*
X184334527Y-72978444D01*
X184239040Y-72813056D01*
X184165863Y-72731785D01*
X184135147Y-72667779D01*
X184133500Y-72647476D01*
X184133500Y-60502524D01*
X184153502Y-60434403D01*
X184165858Y-60418221D01*
X184239040Y-60336944D01*
X184334527Y-60171556D01*
X184393542Y-59989928D01*
X184413504Y-59800000D01*
X184412814Y-59793435D01*
X184394232Y-59616635D01*
X184394232Y-59616633D01*
X184393542Y-59610072D01*
X184334527Y-59428444D01*
X184239040Y-59263056D01*
X184191393Y-59210138D01*
X184115675Y-59126045D01*
X184115674Y-59126044D01*
X184111253Y-59121134D01*
X183956752Y-59008882D01*
X183950724Y-59006198D01*
X183950722Y-59006197D01*
X183788319Y-58933891D01*
X183788318Y-58933891D01*
X183782288Y-58931206D01*
X183673240Y-58908027D01*
X183601944Y-58892872D01*
X183601939Y-58892872D01*
X183595487Y-58891500D01*
X183404513Y-58891500D01*
X183398061Y-58892872D01*
X183398056Y-58892872D01*
X183326760Y-58908027D01*
X183217712Y-58931206D01*
X183211682Y-58933891D01*
X183211681Y-58933891D01*
X183049278Y-59006197D01*
X183049276Y-59006198D01*
X183043248Y-59008882D01*
X182888747Y-59121134D01*
X182884326Y-59126044D01*
X182884325Y-59126045D01*
X182808608Y-59210138D01*
X182760960Y-59263056D01*
X182665473Y-59428444D01*
X182606458Y-59610072D01*
X182605768Y-59616633D01*
X182605768Y-59616635D01*
X182587186Y-59793435D01*
X182586496Y-59800000D01*
X182606458Y-59989928D01*
X182665473Y-60171556D01*
X182760960Y-60336944D01*
X182834137Y-60418215D01*
X182864853Y-60482221D01*
X182866500Y-60502524D01*
X182866500Y-72647476D01*
X182846498Y-72715597D01*
X182834142Y-72731779D01*
X182760960Y-72813056D01*
X182665473Y-72978444D01*
X182606458Y-73160072D01*
X182586496Y-73350000D01*
X176333500Y-73350000D01*
X176333500Y-59502524D01*
X176353502Y-59434403D01*
X176365858Y-59418221D01*
X176439040Y-59336944D01*
X176534527Y-59171556D01*
X176593542Y-58989928D01*
X176613504Y-58800000D01*
X176602669Y-58696909D01*
X176594232Y-58616635D01*
X176594232Y-58616633D01*
X176593542Y-58610072D01*
X176534527Y-58428444D01*
X176439040Y-58263056D01*
X176330596Y-58142616D01*
X176315675Y-58126045D01*
X176315674Y-58126044D01*
X176311253Y-58121134D01*
X176156752Y-58008882D01*
X176150724Y-58006198D01*
X176150722Y-58006197D01*
X175988319Y-57933891D01*
X175988318Y-57933891D01*
X175982288Y-57931206D01*
X175888888Y-57911353D01*
X175801944Y-57892872D01*
X175801939Y-57892872D01*
X175795487Y-57891500D01*
X175604513Y-57891500D01*
X175598061Y-57892872D01*
X175598056Y-57892872D01*
X175511112Y-57911353D01*
X175417712Y-57931206D01*
X175411682Y-57933891D01*
X175411681Y-57933891D01*
X175249278Y-58006197D01*
X175249276Y-58006198D01*
X175243248Y-58008882D01*
X175088747Y-58121134D01*
X175084326Y-58126044D01*
X175084325Y-58126045D01*
X175069405Y-58142616D01*
X174960960Y-58263056D01*
X174865473Y-58428444D01*
X174806458Y-58610072D01*
X174805768Y-58616633D01*
X174805768Y-58616635D01*
X174797331Y-58696909D01*
X174786496Y-58800000D01*
X174806458Y-58989928D01*
X174865473Y-59171556D01*
X174960960Y-59336944D01*
X175034137Y-59418215D01*
X175064853Y-59482221D01*
X175066500Y-59502524D01*
X175066500Y-76772252D01*
X175046498Y-76840373D01*
X174992842Y-76886866D01*
X174922568Y-76896970D01*
X174914306Y-76895499D01*
X174901951Y-76892873D01*
X174901942Y-76892872D01*
X174895487Y-76891500D01*
X174704513Y-76891500D01*
X174698061Y-76892872D01*
X174698056Y-76892872D01*
X174611112Y-76911353D01*
X174517712Y-76931206D01*
X174511682Y-76933891D01*
X174511681Y-76933891D01*
X174349278Y-77006197D01*
X174349276Y-77006198D01*
X174343248Y-77008882D01*
X174188747Y-77121134D01*
X174184326Y-77126044D01*
X174184325Y-77126045D01*
X174081089Y-77240701D01*
X174060960Y-77263056D01*
X174029280Y-77317927D01*
X173970210Y-77420240D01*
X173965473Y-77428444D01*
X173906458Y-77610072D01*
X173905768Y-77616633D01*
X173905768Y-77616635D01*
X173891965Y-77747961D01*
X173886496Y-77800000D01*
X173906458Y-77989928D01*
X173965473Y-78171556D01*
X173968776Y-78177278D01*
X173968777Y-78177279D01*
X173985800Y-78206763D01*
X174060960Y-78336944D01*
X174134137Y-78418215D01*
X174164853Y-78482221D01*
X174166500Y-78502524D01*
X174166500Y-95893508D01*
X174146498Y-95961629D01*
X174092842Y-96008122D01*
X174022568Y-96018226D01*
X174014303Y-96016755D01*
X173901944Y-95992872D01*
X173901939Y-95992872D01*
X173895487Y-95991500D01*
X173704513Y-95991500D01*
X173698061Y-95992872D01*
X173698056Y-95992872D01*
X173585697Y-96016755D01*
X173514906Y-96011353D01*
X173458273Y-95968536D01*
X173433780Y-95901898D01*
X173433500Y-95893508D01*
X173433500Y-92602524D01*
X173453502Y-92534403D01*
X173465858Y-92518221D01*
X173539040Y-92436944D01*
X173634527Y-92271556D01*
X173693542Y-92089928D01*
X173713504Y-91900000D01*
X173706031Y-91828897D01*
X173694232Y-91716635D01*
X173694232Y-91716633D01*
X173693542Y-91710072D01*
X173634527Y-91528444D01*
X173539040Y-91363056D01*
X173465863Y-91281785D01*
X173435147Y-91217779D01*
X173433500Y-91197476D01*
X173433500Y-74902524D01*
X173453502Y-74834403D01*
X173465858Y-74818221D01*
X173539040Y-74736944D01*
X173634527Y-74571556D01*
X173693542Y-74389928D01*
X173700773Y-74321134D01*
X173712814Y-74206565D01*
X173713504Y-74200000D01*
X173696391Y-74037174D01*
X173694232Y-74016635D01*
X173694232Y-74016633D01*
X173693542Y-74010072D01*
X173634527Y-73828444D01*
X173539040Y-73663056D01*
X173465863Y-73581785D01*
X173435147Y-73517779D01*
X173433500Y-73497476D01*
X173433500Y-55602524D01*
X173453502Y-55534403D01*
X173465858Y-55518221D01*
X173539040Y-55436944D01*
X173634527Y-55271556D01*
X173693542Y-55089928D01*
X173696908Y-55057908D01*
X173712814Y-54906565D01*
X173713504Y-54900000D01*
X173712814Y-54893435D01*
X173694232Y-54716635D01*
X173694232Y-54716633D01*
X173693542Y-54710072D01*
X173634527Y-54528444D01*
X173539040Y-54363056D01*
X173411253Y-54221134D01*
X173256752Y-54108882D01*
X173250726Y-54106199D01*
X173250719Y-54106195D01*
X173114155Y-54045394D01*
X173060059Y-53999414D01*
X173039403Y-53930354D01*
X173039379Y-53884351D01*
X173037498Y-50342277D01*
X177137009Y-50342277D01*
X177162625Y-50610769D01*
X177163710Y-50615203D01*
X177163711Y-50615209D01*
X177218469Y-50838987D01*
X177226731Y-50872750D01*
X177327985Y-51122733D01*
X177464265Y-51355482D01*
X177467118Y-51359049D01*
X177584686Y-51506060D01*
X177632716Y-51566119D01*
X177829809Y-51750234D01*
X178051416Y-51903968D01*
X178055499Y-51905999D01*
X178055502Y-51906001D01*
X178171013Y-51963466D01*
X178292894Y-52024101D01*
X178297228Y-52025522D01*
X178297231Y-52025523D01*
X178544853Y-52106698D01*
X178544859Y-52106699D01*
X178549186Y-52108118D01*
X178553677Y-52108898D01*
X178553678Y-52108898D01*
X178811140Y-52153601D01*
X178811148Y-52153602D01*
X178814921Y-52154257D01*
X178818758Y-52154448D01*
X178898578Y-52158422D01*
X178898586Y-52158422D01*
X178900149Y-52158500D01*
X179068512Y-52158500D01*
X179070780Y-52158335D01*
X179070792Y-52158335D01*
X179201884Y-52148823D01*
X179269004Y-52143953D01*
X179273459Y-52142969D01*
X179273462Y-52142969D01*
X179527912Y-52086791D01*
X179527916Y-52086790D01*
X179532372Y-52085806D01*
X179658480Y-52038028D01*
X179780318Y-51991868D01*
X179780321Y-51991867D01*
X179784588Y-51990250D01*
X180020368Y-51859286D01*
X180234773Y-51695657D01*
X180423312Y-51502792D01*
X180582034Y-51284730D01*
X180665190Y-51126676D01*
X180705490Y-51050079D01*
X180705493Y-51050073D01*
X180707615Y-51046039D01*
X180734071Y-50971124D01*
X180795902Y-50796033D01*
X180795902Y-50796032D01*
X180797425Y-50791720D01*
X180826331Y-50645060D01*
X180848700Y-50531572D01*
X180848701Y-50531566D01*
X180849581Y-50527100D01*
X180851044Y-50497711D01*
X180862764Y-50262292D01*
X180862764Y-50262286D01*
X180862991Y-50257723D01*
X180837375Y-49989231D01*
X180792042Y-49803967D01*
X180774355Y-49731688D01*
X180773269Y-49727250D01*
X180672015Y-49477267D01*
X180535735Y-49244518D01*
X180417928Y-49097208D01*
X180370136Y-49037447D01*
X180370135Y-49037445D01*
X180367284Y-49033881D01*
X180170191Y-48849766D01*
X179948584Y-48696032D01*
X179944501Y-48694001D01*
X179944498Y-48693999D01*
X179779606Y-48611967D01*
X179707106Y-48575899D01*
X179702772Y-48574478D01*
X179702769Y-48574477D01*
X179455147Y-48493302D01*
X179455141Y-48493301D01*
X179450814Y-48491882D01*
X179446322Y-48491102D01*
X179188860Y-48446399D01*
X179188852Y-48446398D01*
X179185079Y-48445743D01*
X179167664Y-48444876D01*
X179101422Y-48441578D01*
X179101414Y-48441578D01*
X179099851Y-48441500D01*
X178931488Y-48441500D01*
X178929220Y-48441665D01*
X178929208Y-48441665D01*
X178798116Y-48451177D01*
X178730996Y-48456047D01*
X178726541Y-48457031D01*
X178726538Y-48457031D01*
X178472088Y-48513209D01*
X178472084Y-48513210D01*
X178467628Y-48514194D01*
X178378528Y-48547951D01*
X178219682Y-48608132D01*
X178219679Y-48608133D01*
X178215412Y-48609750D01*
X177979632Y-48740714D01*
X177765227Y-48904343D01*
X177576688Y-49097208D01*
X177417966Y-49315270D01*
X177415844Y-49319304D01*
X177294510Y-49549921D01*
X177294507Y-49549927D01*
X177292385Y-49553961D01*
X177290865Y-49558266D01*
X177290863Y-49558270D01*
X177204098Y-49803967D01*
X177202575Y-49808280D01*
X177150419Y-50072900D01*
X177150192Y-50077453D01*
X177150192Y-50077456D01*
X177140991Y-50262292D01*
X177137009Y-50342277D01*
X173037498Y-50342277D01*
X173033788Y-43357013D01*
X173053754Y-43288883D01*
X173107385Y-43242361D01*
X173159747Y-43230948D01*
X184185245Y-43227657D01*
X185533814Y-43227255D01*
X185553239Y-43228755D01*
X185567976Y-43231050D01*
X185567978Y-43231050D01*
X185576846Y-43232431D01*
X185585749Y-43231267D01*
X185588971Y-43230846D01*
X185616737Y-43230303D01*
X185750851Y-43242523D01*
X185773335Y-43246654D01*
X185880456Y-43276594D01*
X185901122Y-43282370D01*
X185924485Y-43288900D01*
X185945851Y-43297025D01*
X185953784Y-43300898D01*
X186086887Y-43365889D01*
X186106435Y-43377742D01*
X186135169Y-43398953D01*
X186232698Y-43470949D01*
X186249783Y-43486139D01*
X186357133Y-43600634D01*
X186371192Y-43618660D01*
X186438630Y-43723520D01*
X186449131Y-43743622D01*
X186450485Y-43746905D01*
X186451987Y-43751529D01*
X186454702Y-43756894D01*
X186454789Y-43757151D01*
X186454945Y-43757373D01*
X186457655Y-43762729D01*
X186460493Y-43766681D01*
X186463020Y-43770842D01*
X186462983Y-43770865D01*
X186464414Y-43773066D01*
X186641707Y-44075498D01*
X186733367Y-44201388D01*
X186853094Y-44365827D01*
X186855296Y-44368852D01*
X187096861Y-44639635D01*
X187099149Y-44641738D01*
X187099157Y-44641746D01*
X187266971Y-44795980D01*
X187364033Y-44885188D01*
X187654188Y-45103103D01*
X187656852Y-45104718D01*
X187656859Y-45104723D01*
X187814181Y-45200110D01*
X187964480Y-45291240D01*
X188291865Y-45447754D01*
X188633128Y-45571109D01*
X188636153Y-45571874D01*
X188636159Y-45571876D01*
X188923470Y-45644550D01*
X188984921Y-45660094D01*
X188988006Y-45660556D01*
X188988011Y-45660557D01*
X189340705Y-45713374D01*
X189340714Y-45713375D01*
X189343793Y-45713836D01*
X189706221Y-45731807D01*
X190068649Y-45713832D01*
X190071744Y-45713369D01*
X190071749Y-45713368D01*
X190424423Y-45660550D01*
X190424427Y-45660549D01*
X190427520Y-45660086D01*
X190500445Y-45641639D01*
X190776292Y-45571861D01*
X190776293Y-45571861D01*
X190779312Y-45571097D01*
X190782231Y-45570042D01*
X190782237Y-45570040D01*
X191117642Y-45448798D01*
X191117645Y-45448797D01*
X191120574Y-45447738D01*
X191447957Y-45291220D01*
X191450614Y-45289609D01*
X191450625Y-45289603D01*
X191755571Y-45104702D01*
X191755577Y-45104698D01*
X191758247Y-45103079D01*
X192048400Y-44885161D01*
X192315568Y-44639605D01*
X192348843Y-44602305D01*
X192420877Y-44521556D01*
X192557130Y-44368819D01*
X192559299Y-44365841D01*
X192716447Y-44150000D01*
X192770716Y-44075462D01*
X192838359Y-43960072D01*
X192939255Y-43787958D01*
X192943369Y-43781797D01*
X192943324Y-43781768D01*
X192945953Y-43777666D01*
X192948888Y-43773784D01*
X192951725Y-43768501D01*
X192951890Y-43768278D01*
X192951985Y-43768018D01*
X192954828Y-43762725D01*
X192957412Y-43755383D01*
X192970290Y-43729059D01*
X192973852Y-43723520D01*
X193041293Y-43618653D01*
X193055350Y-43600629D01*
X193162700Y-43486134D01*
X193179779Y-43470949D01*
X193277306Y-43398953D01*
X193306054Y-43377731D01*
X193325601Y-43365879D01*
X193466626Y-43297018D01*
X193487993Y-43288892D01*
X193623616Y-43250983D01*
X193639155Y-43246640D01*
X193661636Y-43242509D01*
X193707363Y-43238342D01*
X193788841Y-43230918D01*
X193805235Y-43231438D01*
X193805241Y-43230941D01*
X193814219Y-43231050D01*
X193823088Y-43232431D01*
X193831987Y-43231267D01*
X193831988Y-43231267D01*
X193845435Y-43229508D01*
X193854642Y-43228304D01*
X193870981Y-43227240D01*
X203236650Y-43227240D01*
X203304771Y-43247242D01*
G37*
G04 #@! TD.AperFunction*
G04 #@! TA.AperFunction,Conductor*
G36*
X216542012Y-112298061D02*
G01*
X216579333Y-112354347D01*
X216589473Y-112385556D01*
X216684960Y-112550944D01*
X216812747Y-112692866D01*
X216861716Y-112728444D01*
X216940877Y-112785958D01*
X216967248Y-112805118D01*
X216973276Y-112807802D01*
X216973278Y-112807803D01*
X217126203Y-112875889D01*
X217141712Y-112882794D01*
X217235112Y-112902647D01*
X217322056Y-112921128D01*
X217322061Y-112921128D01*
X217328513Y-112922500D01*
X217384405Y-112922500D01*
X217452526Y-112942502D01*
X217473500Y-112959405D01*
X217479595Y-112965500D01*
X217513621Y-113027812D01*
X217516500Y-113054595D01*
X217516500Y-116971233D01*
X217515973Y-116982416D01*
X217514298Y-116989909D01*
X217514547Y-116997835D01*
X217514547Y-116997836D01*
X217516438Y-117057986D01*
X217516500Y-117061945D01*
X217516500Y-117089856D01*
X217516997Y-117093790D01*
X217516997Y-117093791D01*
X217517005Y-117093856D01*
X217517938Y-117105693D01*
X217519327Y-117149889D01*
X217524814Y-117168774D01*
X217524978Y-117169339D01*
X217528987Y-117188700D01*
X217531526Y-117208797D01*
X217534445Y-117216168D01*
X217534445Y-117216170D01*
X217547804Y-117249912D01*
X217551649Y-117261142D01*
X217563982Y-117303593D01*
X217568015Y-117310412D01*
X217568017Y-117310417D01*
X217574293Y-117321028D01*
X217582988Y-117338776D01*
X217590448Y-117357617D01*
X217595110Y-117364033D01*
X217595110Y-117364034D01*
X217616436Y-117393387D01*
X217622952Y-117403307D01*
X217645458Y-117441362D01*
X217659779Y-117455683D01*
X217672619Y-117470716D01*
X217684528Y-117487107D01*
X217690634Y-117492158D01*
X217718605Y-117515298D01*
X217727384Y-117523288D01*
X233996348Y-133792253D01*
X234003888Y-133800539D01*
X234008000Y-133807018D01*
X234013777Y-133812443D01*
X234057651Y-133853643D01*
X234060493Y-133856398D01*
X234080230Y-133876135D01*
X234083427Y-133878615D01*
X234092447Y-133886318D01*
X234124679Y-133916586D01*
X234131625Y-133920405D01*
X234131628Y-133920407D01*
X234142434Y-133926348D01*
X234158953Y-133937199D01*
X234174959Y-133949614D01*
X234182228Y-133952759D01*
X234182232Y-133952762D01*
X234215537Y-133967174D01*
X234226187Y-133972391D01*
X234264940Y-133993695D01*
X234272615Y-133995666D01*
X234272616Y-133995666D01*
X234284562Y-133998733D01*
X234303267Y-134005137D01*
X234321855Y-134013181D01*
X234329678Y-134014420D01*
X234329688Y-134014423D01*
X234365524Y-134020099D01*
X234377144Y-134022505D01*
X234403689Y-134029320D01*
X234419970Y-134033500D01*
X234440224Y-134033500D01*
X234459934Y-134035051D01*
X234479943Y-134038220D01*
X234487835Y-134037474D01*
X234523961Y-134034059D01*
X234535819Y-134033500D01*
X234679837Y-134033500D01*
X234747958Y-134053502D01*
X234794451Y-134107158D01*
X234805836Y-134159766D01*
X234804284Y-134890260D01*
X234801307Y-136290758D01*
X234781160Y-136358836D01*
X234727406Y-136405215D01*
X234675307Y-136416490D01*
X205397604Y-136416490D01*
X205329483Y-136396488D01*
X205282990Y-136342832D01*
X205272886Y-136272558D01*
X205302380Y-136207978D01*
X205308509Y-136201395D01*
X208145939Y-133363966D01*
X212531257Y-133363966D01*
X212561565Y-133498446D01*
X212564645Y-133508275D01*
X212644770Y-133705603D01*
X212649413Y-133714794D01*
X212760694Y-133896388D01*
X212766777Y-133904699D01*
X212906213Y-134065667D01*
X212913580Y-134072883D01*
X213077434Y-134208916D01*
X213085881Y-134214831D01*
X213269756Y-134322279D01*
X213279042Y-134326729D01*
X213478001Y-134402703D01*
X213487899Y-134405579D01*
X213591250Y-134426606D01*
X213605299Y-134425410D01*
X213609000Y-134415065D01*
X213609000Y-133368115D01*
X213604525Y-133352876D01*
X213603135Y-133351671D01*
X213595452Y-133350000D01*
X212546225Y-133350000D01*
X212532694Y-133353973D01*
X212531257Y-133363966D01*
X208145939Y-133363966D01*
X208679722Y-132830183D01*
X212527389Y-132830183D01*
X212528912Y-132838607D01*
X212541292Y-132842000D01*
X213590885Y-132842000D01*
X213606124Y-132837525D01*
X213607329Y-132836135D01*
X213609000Y-132828452D01*
X213609000Y-131779102D01*
X213605082Y-131765758D01*
X213590806Y-131763771D01*
X213552324Y-131769660D01*
X213542288Y-131772051D01*
X213339868Y-131838212D01*
X213330359Y-131842209D01*
X213141463Y-131940542D01*
X213132738Y-131946036D01*
X212962433Y-132073905D01*
X212954726Y-132080748D01*
X212807590Y-132234717D01*
X212801104Y-132242727D01*
X212681098Y-132418649D01*
X212676000Y-132427623D01*
X212586338Y-132620783D01*
X212582775Y-132630470D01*
X212527389Y-132830183D01*
X208679722Y-132830183D01*
X208879435Y-132630470D01*
X212548500Y-128961405D01*
X212610812Y-128927379D01*
X212637595Y-128924500D01*
X212693487Y-128924500D01*
X212699939Y-128923128D01*
X212699944Y-128923128D01*
X212786888Y-128904647D01*
X212880288Y-128884794D01*
X212886319Y-128882109D01*
X213048722Y-128809803D01*
X213048724Y-128809802D01*
X213054752Y-128807118D01*
X213209253Y-128694866D01*
X213337040Y-128552944D01*
X213432527Y-128387556D01*
X213491542Y-128205928D01*
X213511504Y-128016000D01*
X213491542Y-127826072D01*
X213432527Y-127644444D01*
X213337040Y-127479056D01*
X213263863Y-127397785D01*
X213233147Y-127333779D01*
X213231500Y-127313476D01*
X213231500Y-119014782D01*
X213251502Y-118946661D01*
X213305158Y-118900168D01*
X213375432Y-118890064D01*
X213410730Y-118902282D01*
X213411248Y-118901118D01*
X213585712Y-118978794D01*
X213667629Y-118996206D01*
X213766056Y-119017128D01*
X213766061Y-119017128D01*
X213772513Y-119018500D01*
X213963487Y-119018500D01*
X213969939Y-119017128D01*
X213969944Y-119017128D01*
X214098303Y-118989844D01*
X214169094Y-118995246D01*
X214225726Y-119038063D01*
X214250220Y-119104701D01*
X214250500Y-119113091D01*
X214250500Y-126159233D01*
X214249973Y-126170416D01*
X214248298Y-126177909D01*
X214248547Y-126185835D01*
X214248547Y-126185836D01*
X214250438Y-126245986D01*
X214250500Y-126249945D01*
X214250500Y-126277856D01*
X214250997Y-126281790D01*
X214250997Y-126281791D01*
X214251005Y-126281856D01*
X214251938Y-126293693D01*
X214253327Y-126337889D01*
X214258978Y-126357339D01*
X214262987Y-126376700D01*
X214265526Y-126396797D01*
X214268445Y-126404168D01*
X214268445Y-126404170D01*
X214281804Y-126437912D01*
X214285649Y-126449142D01*
X214297982Y-126491593D01*
X214302015Y-126498412D01*
X214302017Y-126498417D01*
X214308293Y-126509028D01*
X214316988Y-126526776D01*
X214324448Y-126545617D01*
X214329110Y-126552033D01*
X214329110Y-126552034D01*
X214350436Y-126581387D01*
X214356952Y-126591307D01*
X214379458Y-126629362D01*
X214393779Y-126643683D01*
X214406619Y-126658716D01*
X214418528Y-126675107D01*
X214424634Y-126680158D01*
X214452605Y-126703298D01*
X214461384Y-126711288D01*
X218272595Y-130522500D01*
X218306621Y-130584812D01*
X218309500Y-130611595D01*
X218309500Y-131817692D01*
X218289498Y-131885813D01*
X218241683Y-131929453D01*
X218216607Y-131942507D01*
X218212474Y-131945610D01*
X218212471Y-131945612D01*
X218042100Y-132073530D01*
X218037965Y-132076635D01*
X218012541Y-132103240D01*
X217895397Y-132225824D01*
X217883629Y-132238138D01*
X217776201Y-132395621D01*
X217721293Y-132440621D01*
X217650768Y-132448792D01*
X217587021Y-132417538D01*
X217566324Y-132393054D01*
X217485822Y-132268617D01*
X217485820Y-132268614D01*
X217483014Y-132264277D01*
X217332670Y-132099051D01*
X217328619Y-132095852D01*
X217328615Y-132095848D01*
X217161414Y-131963800D01*
X217161410Y-131963798D01*
X217157359Y-131960598D01*
X217152831Y-131958098D01*
X217036988Y-131894150D01*
X216961789Y-131852638D01*
X216956920Y-131850914D01*
X216956916Y-131850912D01*
X216756087Y-131779795D01*
X216756083Y-131779794D01*
X216751212Y-131778069D01*
X216746119Y-131777162D01*
X216746116Y-131777161D01*
X216536373Y-131739800D01*
X216536367Y-131739799D01*
X216531284Y-131738894D01*
X216457452Y-131737992D01*
X216313081Y-131736228D01*
X216313079Y-131736228D01*
X216307911Y-131736165D01*
X216087091Y-131769955D01*
X215874756Y-131839357D01*
X215801757Y-131877358D01*
X215700975Y-131929822D01*
X215676607Y-131942507D01*
X215672474Y-131945610D01*
X215672471Y-131945612D01*
X215502100Y-132073530D01*
X215497965Y-132076635D01*
X215472541Y-132103240D01*
X215355397Y-132225824D01*
X215343629Y-132238138D01*
X215340720Y-132242403D01*
X215340714Y-132242411D01*
X215328404Y-132260457D01*
X215236204Y-132395618D01*
X215235898Y-132396066D01*
X215180987Y-132441069D01*
X215110462Y-132449240D01*
X215046715Y-132417986D01*
X215026018Y-132393502D01*
X214945426Y-132268926D01*
X214939136Y-132260757D01*
X214795806Y-132103240D01*
X214788273Y-132096215D01*
X214621139Y-131964222D01*
X214612552Y-131958517D01*
X214426117Y-131855599D01*
X214416705Y-131851369D01*
X214215959Y-131780280D01*
X214205988Y-131777646D01*
X214134837Y-131764972D01*
X214121540Y-131766432D01*
X214117000Y-131780989D01*
X214117000Y-134414517D01*
X214121064Y-134428359D01*
X214134478Y-134430393D01*
X214141184Y-134429534D01*
X214151262Y-134427392D01*
X214355255Y-134366191D01*
X214364842Y-134362433D01*
X214556095Y-134268739D01*
X214564945Y-134263464D01*
X214738328Y-134139792D01*
X214746200Y-134133139D01*
X214897052Y-133982812D01*
X214903730Y-133974965D01*
X215031022Y-133797819D01*
X215032279Y-133798722D01*
X215079373Y-133755362D01*
X215149311Y-133743145D01*
X215214751Y-133770678D01*
X215242579Y-133802511D01*
X215302987Y-133901088D01*
X215449250Y-134069938D01*
X215621126Y-134212632D01*
X215814000Y-134325338D01*
X215818825Y-134327180D01*
X215818826Y-134327181D01*
X215860710Y-134343175D01*
X216022692Y-134405030D01*
X216027760Y-134406061D01*
X216027763Y-134406062D01*
X216122862Y-134425410D01*
X216241597Y-134449567D01*
X216246772Y-134449757D01*
X216246774Y-134449757D01*
X216459673Y-134457564D01*
X216459677Y-134457564D01*
X216464837Y-134457753D01*
X216469957Y-134457097D01*
X216469959Y-134457097D01*
X216681288Y-134430025D01*
X216681289Y-134430025D01*
X216686416Y-134429368D01*
X216691366Y-134427883D01*
X216895429Y-134366661D01*
X216895434Y-134366659D01*
X216900384Y-134365174D01*
X217100994Y-134266896D01*
X217282860Y-134137173D01*
X217441096Y-133979489D01*
X217479282Y-133926348D01*
X217571453Y-133798077D01*
X217572776Y-133799028D01*
X217619645Y-133755857D01*
X217689580Y-133743625D01*
X217755026Y-133771144D01*
X217782875Y-133802994D01*
X217842987Y-133901088D01*
X217989250Y-134069938D01*
X218161126Y-134212632D01*
X218354000Y-134325338D01*
X218358825Y-134327180D01*
X218358826Y-134327181D01*
X218400710Y-134343175D01*
X218562692Y-134405030D01*
X218567760Y-134406061D01*
X218567763Y-134406062D01*
X218662862Y-134425410D01*
X218781597Y-134449567D01*
X218786772Y-134449757D01*
X218786774Y-134449757D01*
X218999673Y-134457564D01*
X218999677Y-134457564D01*
X219004837Y-134457753D01*
X219009957Y-134457097D01*
X219009959Y-134457097D01*
X219221288Y-134430025D01*
X219221289Y-134430025D01*
X219226416Y-134429368D01*
X219231366Y-134427883D01*
X219435429Y-134366661D01*
X219435434Y-134366659D01*
X219440384Y-134365174D01*
X219640994Y-134266896D01*
X219822860Y-134137173D01*
X219981096Y-133979489D01*
X220019282Y-133926348D01*
X220111453Y-133798077D01*
X220112776Y-133799028D01*
X220159645Y-133755857D01*
X220229580Y-133743625D01*
X220295026Y-133771144D01*
X220322875Y-133802994D01*
X220382987Y-133901088D01*
X220529250Y-134069938D01*
X220701126Y-134212632D01*
X220894000Y-134325338D01*
X220898825Y-134327180D01*
X220898826Y-134327181D01*
X220940710Y-134343175D01*
X221102692Y-134405030D01*
X221107760Y-134406061D01*
X221107763Y-134406062D01*
X221202862Y-134425410D01*
X221321597Y-134449567D01*
X221326772Y-134449757D01*
X221326774Y-134449757D01*
X221539673Y-134457564D01*
X221539677Y-134457564D01*
X221544837Y-134457753D01*
X221549957Y-134457097D01*
X221549959Y-134457097D01*
X221761288Y-134430025D01*
X221761289Y-134430025D01*
X221766416Y-134429368D01*
X221771366Y-134427883D01*
X221975429Y-134366661D01*
X221975434Y-134366659D01*
X221980384Y-134365174D01*
X222180994Y-134266896D01*
X222362860Y-134137173D01*
X222471091Y-134029319D01*
X222533462Y-133995404D01*
X222604268Y-134000592D01*
X222661030Y-134043238D01*
X222678012Y-134074341D01*
X222699774Y-134132391D01*
X222722385Y-134192705D01*
X222809739Y-134309261D01*
X222926295Y-134396615D01*
X223062684Y-134447745D01*
X223124866Y-134454500D01*
X224921134Y-134454500D01*
X224983316Y-134447745D01*
X225119705Y-134396615D01*
X225236261Y-134309261D01*
X225323615Y-134192705D01*
X225374745Y-134056316D01*
X225381500Y-133994134D01*
X225381500Y-132197866D01*
X225374745Y-132135684D01*
X225323615Y-131999295D01*
X225236261Y-131882739D01*
X225119705Y-131795385D01*
X224983316Y-131744255D01*
X224921134Y-131737500D01*
X223124866Y-131737500D01*
X223062684Y-131744255D01*
X222926295Y-131795385D01*
X222809739Y-131882739D01*
X222722385Y-131999295D01*
X222719233Y-132007703D01*
X222677919Y-132117907D01*
X222635277Y-132174671D01*
X222568716Y-132199371D01*
X222499367Y-132184163D01*
X222466743Y-132158476D01*
X222416151Y-132102875D01*
X222416142Y-132102866D01*
X222412670Y-132099051D01*
X222408619Y-132095852D01*
X222408615Y-132095848D01*
X222241414Y-131963800D01*
X222241410Y-131963798D01*
X222237359Y-131960598D01*
X222232835Y-131958101D01*
X222232831Y-131958098D01*
X222181608Y-131929822D01*
X222131636Y-131879390D01*
X222116500Y-131819513D01*
X222116500Y-131137767D01*
X222117027Y-131126584D01*
X222118702Y-131119091D01*
X222116562Y-131051014D01*
X222116500Y-131047055D01*
X222116500Y-131019144D01*
X222115995Y-131015144D01*
X222115062Y-131003301D01*
X222113922Y-130967030D01*
X222113673Y-130959111D01*
X222108021Y-130939657D01*
X222104013Y-130920300D01*
X222102468Y-130908070D01*
X222102468Y-130908069D01*
X222101474Y-130900203D01*
X222098555Y-130892830D01*
X222085196Y-130859088D01*
X222081351Y-130847858D01*
X222071229Y-130813017D01*
X222071229Y-130813016D01*
X222069018Y-130805407D01*
X222064985Y-130798588D01*
X222064983Y-130798583D01*
X222058707Y-130787972D01*
X222050012Y-130770224D01*
X222042552Y-130751383D01*
X222016564Y-130715613D01*
X222010048Y-130705693D01*
X221991580Y-130674465D01*
X221991578Y-130674462D01*
X221987542Y-130667638D01*
X221973221Y-130653317D01*
X221960380Y-130638283D01*
X221953131Y-130628306D01*
X221948472Y-130621893D01*
X221914395Y-130593702D01*
X221905616Y-130585712D01*
X217513022Y-126193117D01*
X217478996Y-126130805D01*
X217484061Y-126059989D01*
X217526608Y-126003154D01*
X217575920Y-125980775D01*
X217598152Y-125976050D01*
X217625830Y-125970167D01*
X217625833Y-125970166D01*
X217632288Y-125968794D01*
X217638319Y-125966109D01*
X217800722Y-125893803D01*
X217800724Y-125893802D01*
X217806752Y-125891118D01*
X217961253Y-125778866D01*
X218089040Y-125636944D01*
X218184527Y-125471556D01*
X218243542Y-125289928D01*
X218263504Y-125100000D01*
X218243542Y-124910072D01*
X218184527Y-124728444D01*
X218089040Y-124563056D01*
X218015863Y-124481785D01*
X217985147Y-124417779D01*
X217983500Y-124397476D01*
X217983500Y-119502524D01*
X218003502Y-119434403D01*
X218015858Y-119418221D01*
X218089040Y-119336944D01*
X218184527Y-119171556D01*
X218243542Y-118989928D01*
X218244995Y-118976109D01*
X218262814Y-118806565D01*
X218263504Y-118800000D01*
X218243542Y-118610072D01*
X218184527Y-118428444D01*
X218089040Y-118263056D01*
X218049169Y-118218774D01*
X217965675Y-118126045D01*
X217965674Y-118126044D01*
X217961253Y-118121134D01*
X217806752Y-118008882D01*
X217800724Y-118006198D01*
X217800722Y-118006197D01*
X217638319Y-117933891D01*
X217638318Y-117933891D01*
X217632288Y-117931206D01*
X217538887Y-117911353D01*
X217451944Y-117892872D01*
X217451939Y-117892872D01*
X217445487Y-117891500D01*
X217254513Y-117891500D01*
X217248061Y-117892872D01*
X217248056Y-117892872D01*
X217161113Y-117911353D01*
X217067712Y-117931206D01*
X217061682Y-117933891D01*
X217061681Y-117933891D01*
X216899278Y-118006197D01*
X216899276Y-118006198D01*
X216893248Y-118008882D01*
X216738747Y-118121134D01*
X216734326Y-118126044D01*
X216734325Y-118126045D01*
X216650832Y-118218774D01*
X216610960Y-118263056D01*
X216607659Y-118268774D01*
X216568619Y-118336393D01*
X216517237Y-118385386D01*
X216447523Y-118398822D01*
X216381612Y-118372436D01*
X216340430Y-118314604D01*
X216333500Y-118273393D01*
X216333500Y-112393285D01*
X216353502Y-112325164D01*
X216407158Y-112278671D01*
X216477432Y-112268567D01*
X216542012Y-112298061D01*
G37*
G04 #@! TD.AperFunction*
G04 #@! TA.AperFunction,Conductor*
G36*
X214128150Y-43228741D02*
G01*
X214151846Y-43232431D01*
X214160749Y-43231267D01*
X214160751Y-43231267D01*
X214163971Y-43230846D01*
X214191737Y-43230303D01*
X214325851Y-43242523D01*
X214348335Y-43246654D01*
X214455456Y-43276594D01*
X214476122Y-43282370D01*
X214499485Y-43288900D01*
X214520851Y-43297025D01*
X214528784Y-43300898D01*
X214661887Y-43365889D01*
X214681435Y-43377742D01*
X214710169Y-43398953D01*
X214807698Y-43470949D01*
X214824783Y-43486139D01*
X214932133Y-43600634D01*
X214946192Y-43618660D01*
X215013630Y-43723520D01*
X215024131Y-43743622D01*
X215025485Y-43746905D01*
X215026987Y-43751529D01*
X215029702Y-43756894D01*
X215029789Y-43757151D01*
X215029945Y-43757373D01*
X215032655Y-43762729D01*
X215035493Y-43766681D01*
X215038020Y-43770842D01*
X215037983Y-43770865D01*
X215039414Y-43773066D01*
X215216707Y-44075498D01*
X215308367Y-44201388D01*
X215428094Y-44365827D01*
X215430296Y-44368852D01*
X215671861Y-44639635D01*
X215674149Y-44641738D01*
X215674157Y-44641746D01*
X215841971Y-44795980D01*
X215939033Y-44885188D01*
X216229188Y-45103103D01*
X216231852Y-45104718D01*
X216231859Y-45104723D01*
X216389181Y-45200110D01*
X216539480Y-45291240D01*
X216866865Y-45447754D01*
X217208128Y-45571109D01*
X217211153Y-45571874D01*
X217211159Y-45571876D01*
X217498470Y-45644550D01*
X217559921Y-45660094D01*
X217563006Y-45660556D01*
X217563011Y-45660557D01*
X217915705Y-45713374D01*
X217915714Y-45713375D01*
X217918793Y-45713836D01*
X218281221Y-45731807D01*
X218643649Y-45713832D01*
X218646744Y-45713369D01*
X218646749Y-45713368D01*
X218999423Y-45660550D01*
X218999427Y-45660549D01*
X219002520Y-45660086D01*
X219075445Y-45641639D01*
X219351292Y-45571861D01*
X219351293Y-45571861D01*
X219354312Y-45571097D01*
X219357231Y-45570042D01*
X219357237Y-45570040D01*
X219692642Y-45448798D01*
X219692645Y-45448797D01*
X219695574Y-45447738D01*
X220022957Y-45291220D01*
X220025614Y-45289609D01*
X220025625Y-45289603D01*
X220330571Y-45104702D01*
X220330577Y-45104698D01*
X220333247Y-45103079D01*
X220623400Y-44885161D01*
X220890568Y-44639605D01*
X220923843Y-44602305D01*
X220995877Y-44521556D01*
X221132130Y-44368819D01*
X221134299Y-44365841D01*
X221291447Y-44150000D01*
X221345716Y-44075462D01*
X221413359Y-43960072D01*
X221514255Y-43787958D01*
X221518369Y-43781797D01*
X221518324Y-43781768D01*
X221520953Y-43777666D01*
X221523888Y-43773784D01*
X221526725Y-43768501D01*
X221526890Y-43768278D01*
X221526985Y-43768018D01*
X221529828Y-43762725D01*
X221532412Y-43755383D01*
X221545290Y-43729059D01*
X221548852Y-43723520D01*
X221616293Y-43618653D01*
X221630350Y-43600629D01*
X221737700Y-43486134D01*
X221754779Y-43470949D01*
X221852306Y-43398953D01*
X221881054Y-43377731D01*
X221900601Y-43365879D01*
X222041626Y-43297018D01*
X222062993Y-43288892D01*
X222198616Y-43250983D01*
X222214155Y-43246640D01*
X222236636Y-43242509D01*
X222282363Y-43238342D01*
X222363841Y-43230918D01*
X222380235Y-43231438D01*
X222380241Y-43230941D01*
X222389219Y-43231050D01*
X222398088Y-43232431D01*
X222429555Y-43228315D01*
X222445918Y-43227252D01*
X234872854Y-43230961D01*
X234940968Y-43250983D01*
X234987445Y-43304653D01*
X234998816Y-43357228D01*
X234845308Y-115587237D01*
X234842644Y-116840768D01*
X234822497Y-116908846D01*
X234768743Y-116955225D01*
X234716644Y-116966500D01*
X228404594Y-116966500D01*
X228336473Y-116946498D01*
X228315499Y-116929595D01*
X225370405Y-113984500D01*
X225336379Y-113922188D01*
X225333500Y-113895405D01*
X225333500Y-108342277D01*
X226637009Y-108342277D01*
X226662625Y-108610769D01*
X226663710Y-108615203D01*
X226663711Y-108615209D01*
X226725645Y-108868312D01*
X226726731Y-108872750D01*
X226827985Y-109122733D01*
X226830294Y-109126676D01*
X226936490Y-109308045D01*
X226964265Y-109355482D01*
X226967118Y-109359049D01*
X227084686Y-109506060D01*
X227132716Y-109566119D01*
X227329809Y-109750234D01*
X227551416Y-109903968D01*
X227555499Y-109905999D01*
X227555502Y-109906001D01*
X227556206Y-109906351D01*
X227792894Y-110024101D01*
X227797228Y-110025522D01*
X227797231Y-110025523D01*
X228044853Y-110106698D01*
X228044859Y-110106699D01*
X228049186Y-110108118D01*
X228053677Y-110108898D01*
X228053678Y-110108898D01*
X228311140Y-110153601D01*
X228311148Y-110153602D01*
X228314921Y-110154257D01*
X228318758Y-110154448D01*
X228398578Y-110158422D01*
X228398586Y-110158422D01*
X228400149Y-110158500D01*
X228568512Y-110158500D01*
X228570780Y-110158335D01*
X228570792Y-110158335D01*
X228701884Y-110148823D01*
X228769004Y-110143953D01*
X228773459Y-110142969D01*
X228773462Y-110142969D01*
X229027912Y-110086791D01*
X229027916Y-110086790D01*
X229032372Y-110085806D01*
X229158480Y-110038028D01*
X229280318Y-109991868D01*
X229280321Y-109991867D01*
X229284588Y-109990250D01*
X229495448Y-109873128D01*
X229516375Y-109861504D01*
X229516376Y-109861503D01*
X229520368Y-109859286D01*
X229734773Y-109695657D01*
X229923312Y-109502792D01*
X230082034Y-109284730D01*
X230165190Y-109126676D01*
X230205490Y-109050079D01*
X230205493Y-109050073D01*
X230207615Y-109046039D01*
X230270378Y-108868312D01*
X230295902Y-108796033D01*
X230295902Y-108796032D01*
X230297425Y-108791720D01*
X230349581Y-108527100D01*
X230358231Y-108353340D01*
X230362764Y-108262292D01*
X230362764Y-108262286D01*
X230362991Y-108257723D01*
X230337375Y-107989231D01*
X230330935Y-107962909D01*
X230274355Y-107731688D01*
X230273269Y-107727250D01*
X230172015Y-107477267D01*
X230035735Y-107244518D01*
X229917928Y-107097208D01*
X229870136Y-107037447D01*
X229870135Y-107037445D01*
X229867284Y-107033881D01*
X229670191Y-106849766D01*
X229448584Y-106696032D01*
X229444501Y-106694001D01*
X229444498Y-106693999D01*
X229279606Y-106611967D01*
X229207106Y-106575899D01*
X229202772Y-106574478D01*
X229202769Y-106574477D01*
X228955147Y-106493302D01*
X228955141Y-106493301D01*
X228950814Y-106491882D01*
X228946322Y-106491102D01*
X228688860Y-106446399D01*
X228688852Y-106446398D01*
X228685079Y-106445743D01*
X228673817Y-106445182D01*
X228601422Y-106441578D01*
X228601414Y-106441578D01*
X228599851Y-106441500D01*
X228431488Y-106441500D01*
X228429220Y-106441665D01*
X228429208Y-106441665D01*
X228298116Y-106451177D01*
X228230996Y-106456047D01*
X228226541Y-106457031D01*
X228226538Y-106457031D01*
X227972088Y-106513209D01*
X227972084Y-106513210D01*
X227967628Y-106514194D01*
X227879782Y-106547476D01*
X227719682Y-106608132D01*
X227719679Y-106608133D01*
X227715412Y-106609750D01*
X227711421Y-106611967D01*
X227519132Y-106718774D01*
X227479632Y-106740714D01*
X227265227Y-106904343D01*
X227076688Y-107097208D01*
X226917966Y-107315270D01*
X226915844Y-107319304D01*
X226794510Y-107549921D01*
X226794507Y-107549927D01*
X226792385Y-107553961D01*
X226790865Y-107558266D01*
X226790863Y-107558270D01*
X226719918Y-107759170D01*
X226702575Y-107808280D01*
X226701692Y-107812762D01*
X226653184Y-108058872D01*
X226650419Y-108072900D01*
X226650192Y-108077453D01*
X226650192Y-108077456D01*
X226639510Y-108292045D01*
X226637009Y-108342277D01*
X225333500Y-108342277D01*
X225333500Y-103725259D01*
X225353502Y-103657138D01*
X225407158Y-103610645D01*
X225477432Y-103600541D01*
X225542012Y-103630035D01*
X225576243Y-103677855D01*
X225651266Y-103862616D01*
X225701012Y-103943794D01*
X225765291Y-104048688D01*
X225767987Y-104053088D01*
X225914250Y-104221938D01*
X226086126Y-104364632D01*
X226279000Y-104477338D01*
X226487692Y-104557030D01*
X226492760Y-104558061D01*
X226492763Y-104558062D01*
X226600017Y-104579883D01*
X226706597Y-104601567D01*
X226711772Y-104601757D01*
X226711774Y-104601757D01*
X226924673Y-104609564D01*
X226924677Y-104609564D01*
X226929837Y-104609753D01*
X226934957Y-104609097D01*
X226934959Y-104609097D01*
X227146288Y-104582025D01*
X227146289Y-104582025D01*
X227151416Y-104581368D01*
X227156366Y-104579883D01*
X227360429Y-104518661D01*
X227360434Y-104518659D01*
X227365384Y-104517174D01*
X227565994Y-104418896D01*
X227747860Y-104289173D01*
X227906096Y-104131489D01*
X227965594Y-104048689D01*
X228036453Y-103950077D01*
X228037776Y-103951028D01*
X228084645Y-103907857D01*
X228154580Y-103895625D01*
X228220026Y-103923144D01*
X228247875Y-103954994D01*
X228307987Y-104053088D01*
X228454250Y-104221938D01*
X228626126Y-104364632D01*
X228819000Y-104477338D01*
X229027692Y-104557030D01*
X229032760Y-104558061D01*
X229032763Y-104558062D01*
X229140017Y-104579883D01*
X229246597Y-104601567D01*
X229251772Y-104601757D01*
X229251774Y-104601757D01*
X229464673Y-104609564D01*
X229464677Y-104609564D01*
X229469837Y-104609753D01*
X229474957Y-104609097D01*
X229474959Y-104609097D01*
X229686288Y-104582025D01*
X229686289Y-104582025D01*
X229691416Y-104581368D01*
X229696366Y-104579883D01*
X229900429Y-104518661D01*
X229900434Y-104518659D01*
X229905384Y-104517174D01*
X230105994Y-104418896D01*
X230287860Y-104289173D01*
X230446096Y-104131489D01*
X230505594Y-104048689D01*
X230573435Y-103954277D01*
X230576453Y-103950077D01*
X230579559Y-103943794D01*
X230673136Y-103754453D01*
X230673137Y-103754451D01*
X230675430Y-103749811D01*
X230717712Y-103610645D01*
X230738865Y-103541023D01*
X230738865Y-103541021D01*
X230740370Y-103536069D01*
X230769529Y-103314590D01*
X230769611Y-103311240D01*
X230771074Y-103251365D01*
X230771074Y-103251361D01*
X230771156Y-103248000D01*
X230752852Y-103025361D01*
X230698431Y-102808702D01*
X230609354Y-102603840D01*
X230488014Y-102416277D01*
X230337670Y-102251051D01*
X230333619Y-102247852D01*
X230333615Y-102247848D01*
X230166414Y-102115800D01*
X230166410Y-102115798D01*
X230162359Y-102112598D01*
X230121053Y-102089796D01*
X230071084Y-102039364D01*
X230056312Y-101969921D01*
X230081428Y-101903516D01*
X230108780Y-101876909D01*
X230152603Y-101845650D01*
X230287860Y-101749173D01*
X230297138Y-101739928D01*
X230442435Y-101595137D01*
X230446096Y-101591489D01*
X230505594Y-101508689D01*
X230573435Y-101414277D01*
X230576453Y-101410077D01*
X230597320Y-101367857D01*
X230673136Y-101214453D01*
X230673137Y-101214451D01*
X230675430Y-101209811D01*
X230740370Y-100996069D01*
X230769529Y-100774590D01*
X230769913Y-100758882D01*
X230771074Y-100711365D01*
X230771074Y-100711361D01*
X230771156Y-100708000D01*
X230752852Y-100485361D01*
X230698431Y-100268702D01*
X230609354Y-100063840D01*
X230547455Y-99968158D01*
X230490822Y-99880617D01*
X230490820Y-99880614D01*
X230488014Y-99876277D01*
X230337670Y-99711051D01*
X230333619Y-99707852D01*
X230333615Y-99707848D01*
X230166414Y-99575800D01*
X230166410Y-99575798D01*
X230162359Y-99572598D01*
X230121053Y-99549796D01*
X230071084Y-99499364D01*
X230056312Y-99429921D01*
X230081428Y-99363516D01*
X230108780Y-99336909D01*
X230155205Y-99303794D01*
X230287860Y-99209173D01*
X230446096Y-99051489D01*
X230505533Y-98968774D01*
X230573435Y-98874277D01*
X230576453Y-98870077D01*
X230597320Y-98827857D01*
X230673136Y-98674453D01*
X230673137Y-98674451D01*
X230675430Y-98669811D01*
X230717712Y-98530645D01*
X230738865Y-98461023D01*
X230738865Y-98461021D01*
X230740370Y-98456069D01*
X230769529Y-98234590D01*
X230771156Y-98168000D01*
X230752852Y-97945361D01*
X230698431Y-97728702D01*
X230609354Y-97523840D01*
X230555151Y-97440055D01*
X230490822Y-97340617D01*
X230490820Y-97340614D01*
X230488014Y-97336277D01*
X230337670Y-97171051D01*
X230333619Y-97167852D01*
X230333615Y-97167848D01*
X230166414Y-97035800D01*
X230166410Y-97035798D01*
X230162359Y-97032598D01*
X230121053Y-97009796D01*
X230071084Y-96959364D01*
X230056312Y-96889921D01*
X230081428Y-96823516D01*
X230108780Y-96796909D01*
X230174107Y-96750312D01*
X230287860Y-96669173D01*
X230446096Y-96511489D01*
X230486021Y-96455928D01*
X230573435Y-96334277D01*
X230576453Y-96330077D01*
X230588074Y-96306565D01*
X230673136Y-96134453D01*
X230673137Y-96134451D01*
X230675430Y-96129811D01*
X230740370Y-95916069D01*
X230769529Y-95694590D01*
X230769611Y-95691240D01*
X230771074Y-95631365D01*
X230771074Y-95631361D01*
X230771156Y-95628000D01*
X230752852Y-95405361D01*
X230698431Y-95188702D01*
X230609354Y-94983840D01*
X230501184Y-94816635D01*
X230490822Y-94800617D01*
X230490820Y-94800614D01*
X230488014Y-94796277D01*
X230337670Y-94631051D01*
X230333619Y-94627852D01*
X230333615Y-94627848D01*
X230166414Y-94495800D01*
X230166410Y-94495798D01*
X230162359Y-94492598D01*
X230121053Y-94469796D01*
X230071084Y-94419364D01*
X230056312Y-94349921D01*
X230081428Y-94283516D01*
X230108780Y-94256909D01*
X230176278Y-94208763D01*
X230287860Y-94129173D01*
X230446096Y-93971489D01*
X230505594Y-93888689D01*
X230573435Y-93794277D01*
X230576453Y-93790077D01*
X230597320Y-93747857D01*
X230673136Y-93594453D01*
X230673137Y-93594451D01*
X230675430Y-93589811D01*
X230726550Y-93421556D01*
X230738865Y-93381023D01*
X230738865Y-93381021D01*
X230740370Y-93376069D01*
X230769529Y-93154590D01*
X230771156Y-93088000D01*
X230752852Y-92865361D01*
X230698431Y-92648702D01*
X230609354Y-92443840D01*
X230501601Y-92277279D01*
X230490822Y-92260617D01*
X230490820Y-92260614D01*
X230488014Y-92256277D01*
X230337670Y-92091051D01*
X230333619Y-92087852D01*
X230333615Y-92087848D01*
X230166414Y-91955800D01*
X230166410Y-91955798D01*
X230162359Y-91952598D01*
X230121053Y-91929796D01*
X230071084Y-91879364D01*
X230056312Y-91809921D01*
X230081428Y-91743516D01*
X230108780Y-91716909D01*
X230152603Y-91685650D01*
X230287860Y-91589173D01*
X230446096Y-91431489D01*
X230505594Y-91348689D01*
X230573435Y-91254277D01*
X230576453Y-91250077D01*
X230597320Y-91207857D01*
X230673136Y-91054453D01*
X230673137Y-91054451D01*
X230675430Y-91049811D01*
X230740370Y-90836069D01*
X230769529Y-90614590D01*
X230771156Y-90548000D01*
X230752852Y-90325361D01*
X230698431Y-90108702D01*
X230609354Y-89903840D01*
X230488014Y-89716277D01*
X230337670Y-89551051D01*
X230333619Y-89547852D01*
X230333615Y-89547848D01*
X230166414Y-89415800D01*
X230166410Y-89415798D01*
X230162359Y-89412598D01*
X230121053Y-89389796D01*
X230071084Y-89339364D01*
X230056312Y-89269921D01*
X230081428Y-89203516D01*
X230108780Y-89176909D01*
X230171240Y-89132357D01*
X230287860Y-89049173D01*
X230446096Y-88891489D01*
X230455167Y-88878866D01*
X230573435Y-88714277D01*
X230576453Y-88710077D01*
X230597320Y-88667857D01*
X230673136Y-88514453D01*
X230673137Y-88514451D01*
X230675430Y-88509811D01*
X230740370Y-88296069D01*
X230769529Y-88074590D01*
X230770945Y-88016635D01*
X230771074Y-88011365D01*
X230771074Y-88011361D01*
X230771156Y-88008000D01*
X230752852Y-87785361D01*
X230698431Y-87568702D01*
X230609354Y-87363840D01*
X230526753Y-87236158D01*
X230490822Y-87180617D01*
X230490820Y-87180614D01*
X230488014Y-87176277D01*
X230337670Y-87011051D01*
X230333619Y-87007852D01*
X230333615Y-87007848D01*
X230166414Y-86875800D01*
X230166410Y-86875798D01*
X230162359Y-86872598D01*
X230121053Y-86849796D01*
X230071084Y-86799364D01*
X230056312Y-86729921D01*
X230081428Y-86663516D01*
X230108780Y-86636909D01*
X230176278Y-86588763D01*
X230287860Y-86509173D01*
X230304336Y-86492755D01*
X230408070Y-86389382D01*
X230446096Y-86351489D01*
X230505594Y-86268689D01*
X230573435Y-86174277D01*
X230576453Y-86170077D01*
X230586183Y-86150391D01*
X230673136Y-85974453D01*
X230673137Y-85974451D01*
X230675430Y-85969811D01*
X230740370Y-85756069D01*
X230769529Y-85534590D01*
X230771156Y-85468000D01*
X230752852Y-85245361D01*
X230698431Y-85028702D01*
X230609354Y-84823840D01*
X230538151Y-84713777D01*
X230490822Y-84640617D01*
X230490820Y-84640614D01*
X230488014Y-84636277D01*
X230337670Y-84471051D01*
X230333619Y-84467852D01*
X230333615Y-84467848D01*
X230166414Y-84335800D01*
X230166410Y-84335798D01*
X230162359Y-84332598D01*
X230121053Y-84309796D01*
X230071084Y-84259364D01*
X230056312Y-84189921D01*
X230081428Y-84123516D01*
X230108780Y-84096909D01*
X230152603Y-84065650D01*
X230287860Y-83969173D01*
X230326981Y-83930189D01*
X230442435Y-83815137D01*
X230446096Y-83811489D01*
X230576453Y-83630077D01*
X230633399Y-83514856D01*
X230673136Y-83434453D01*
X230673137Y-83434451D01*
X230675430Y-83429811D01*
X230740370Y-83216069D01*
X230769529Y-82994590D01*
X230771156Y-82928000D01*
X230752852Y-82705361D01*
X230698431Y-82488702D01*
X230609354Y-82283840D01*
X230524201Y-82152213D01*
X230490822Y-82100617D01*
X230490820Y-82100614D01*
X230488014Y-82096277D01*
X230337670Y-81931051D01*
X230333619Y-81927852D01*
X230333615Y-81927848D01*
X230166414Y-81795800D01*
X230166410Y-81795798D01*
X230162359Y-81792598D01*
X230121053Y-81769796D01*
X230071084Y-81719364D01*
X230056312Y-81649921D01*
X230081428Y-81583516D01*
X230108780Y-81556909D01*
X230168230Y-81514504D01*
X230287860Y-81429173D01*
X230446096Y-81271489D01*
X230505594Y-81188689D01*
X230573437Y-81094274D01*
X230576453Y-81090077D01*
X230578743Y-81085443D01*
X230580168Y-81083072D01*
X230632398Y-81034983D01*
X230698176Y-81022868D01*
X230701909Y-81023702D01*
X230709833Y-81023453D01*
X230709834Y-81023453D01*
X230769986Y-81021562D01*
X230773945Y-81021500D01*
X230801856Y-81021500D01*
X230805791Y-81021003D01*
X230805856Y-81020995D01*
X230817693Y-81020062D01*
X230849951Y-81019048D01*
X230853970Y-81018922D01*
X230861889Y-81018673D01*
X230881343Y-81013021D01*
X230900700Y-81009013D01*
X230912930Y-81007468D01*
X230912931Y-81007468D01*
X230920797Y-81006474D01*
X230928168Y-81003555D01*
X230928170Y-81003555D01*
X230961912Y-80990196D01*
X230973142Y-80986351D01*
X231007983Y-80976229D01*
X231007984Y-80976229D01*
X231015593Y-80974018D01*
X231022412Y-80969985D01*
X231022417Y-80969983D01*
X231033028Y-80963707D01*
X231050776Y-80955012D01*
X231069617Y-80947552D01*
X231105387Y-80921564D01*
X231115307Y-80915048D01*
X231146535Y-80896580D01*
X231146538Y-80896578D01*
X231153362Y-80892542D01*
X231167683Y-80878221D01*
X231182717Y-80865380D01*
X231192694Y-80858131D01*
X231199107Y-80853472D01*
X231227298Y-80819395D01*
X231235288Y-80810616D01*
X232548247Y-79497657D01*
X232556537Y-79490113D01*
X232563018Y-79486000D01*
X232609659Y-79436332D01*
X232612413Y-79433491D01*
X232632135Y-79413769D01*
X232634619Y-79410567D01*
X232642317Y-79401555D01*
X232667161Y-79375098D01*
X232672586Y-79369321D01*
X232682347Y-79351566D01*
X232693198Y-79335047D01*
X232705614Y-79319041D01*
X232708764Y-79311762D01*
X232723174Y-79278463D01*
X232728391Y-79267813D01*
X232749695Y-79229060D01*
X232754733Y-79209437D01*
X232761137Y-79190734D01*
X232766033Y-79179420D01*
X232766033Y-79179419D01*
X232769181Y-79172145D01*
X232770420Y-79164322D01*
X232770423Y-79164312D01*
X232776099Y-79128476D01*
X232778505Y-79116856D01*
X232787528Y-79081711D01*
X232787528Y-79081710D01*
X232789500Y-79074030D01*
X232789500Y-79053776D01*
X232791051Y-79034065D01*
X232792980Y-79021886D01*
X232794220Y-79014057D01*
X232790059Y-78970038D01*
X232789500Y-78958181D01*
X232789500Y-77548767D01*
X232790027Y-77537584D01*
X232791702Y-77530091D01*
X232790409Y-77488940D01*
X232789562Y-77462014D01*
X232789500Y-77458055D01*
X232789500Y-77430144D01*
X232788995Y-77426144D01*
X232788062Y-77414301D01*
X232787809Y-77406232D01*
X232786673Y-77370110D01*
X232781022Y-77350658D01*
X232777014Y-77331306D01*
X232775467Y-77319063D01*
X232774474Y-77311203D01*
X232770603Y-77301426D01*
X232758200Y-77270097D01*
X232754355Y-77258870D01*
X232749076Y-77240701D01*
X232742018Y-77216407D01*
X232731707Y-77198972D01*
X232723012Y-77181224D01*
X232715552Y-77162383D01*
X232689564Y-77126613D01*
X232683048Y-77116693D01*
X232664580Y-77085465D01*
X232664578Y-77085462D01*
X232660542Y-77078638D01*
X232646221Y-77064317D01*
X232633380Y-77049283D01*
X232621472Y-77032893D01*
X232615367Y-77027842D01*
X232615362Y-77027837D01*
X232587396Y-77004701D01*
X232578618Y-76996713D01*
X231776851Y-76194946D01*
X231769311Y-76186660D01*
X231765199Y-76180181D01*
X231756527Y-76172037D01*
X231715548Y-76133556D01*
X231712706Y-76130801D01*
X231692969Y-76111064D01*
X231689772Y-76108584D01*
X231680750Y-76100879D01*
X231667315Y-76088263D01*
X231648520Y-76070613D01*
X231641574Y-76066794D01*
X231641571Y-76066792D01*
X231630765Y-76060851D01*
X231614246Y-76050000D01*
X231613782Y-76049640D01*
X231598240Y-76037585D01*
X231590971Y-76034440D01*
X231590967Y-76034437D01*
X231557662Y-76020025D01*
X231547012Y-76014808D01*
X231508259Y-75993504D01*
X231488636Y-75988466D01*
X231469933Y-75982062D01*
X231458619Y-75977166D01*
X231458618Y-75977166D01*
X231451344Y-75974018D01*
X231443521Y-75972779D01*
X231443511Y-75972776D01*
X231407675Y-75967100D01*
X231396055Y-75964694D01*
X231360910Y-75955671D01*
X231360909Y-75955671D01*
X231353229Y-75953699D01*
X231332975Y-75953699D01*
X231313264Y-75952148D01*
X231310733Y-75951747D01*
X231293256Y-75948979D01*
X231285364Y-75949725D01*
X231249238Y-75953140D01*
X231237380Y-75953699D01*
X230801682Y-75953699D01*
X230733561Y-75933697D01*
X230687068Y-75880041D01*
X230676964Y-75809767D01*
X230681124Y-75791070D01*
X230738865Y-75601023D01*
X230738865Y-75601021D01*
X230740370Y-75596069D01*
X230769529Y-75374590D01*
X230770304Y-75342872D01*
X230771074Y-75311365D01*
X230771074Y-75311361D01*
X230771156Y-75308000D01*
X230752852Y-75085361D01*
X230698431Y-74868702D01*
X230609354Y-74663840D01*
X230488014Y-74476277D01*
X230337670Y-74311051D01*
X230333619Y-74307852D01*
X230333615Y-74307848D01*
X230166414Y-74175800D01*
X230166410Y-74175798D01*
X230162359Y-74172598D01*
X230121053Y-74149796D01*
X230071084Y-74099364D01*
X230056312Y-74029921D01*
X230081428Y-73963516D01*
X230108780Y-73936909D01*
X230186845Y-73881226D01*
X230287860Y-73809173D01*
X230446096Y-73651489D01*
X230461387Y-73630210D01*
X230573435Y-73474277D01*
X230576453Y-73470077D01*
X230593283Y-73436025D01*
X230673136Y-73274453D01*
X230673137Y-73274451D01*
X230675430Y-73269811D01*
X230740370Y-73056069D01*
X230769529Y-72834590D01*
X230769611Y-72831240D01*
X230771074Y-72771365D01*
X230771074Y-72771361D01*
X230771156Y-72768000D01*
X230752852Y-72545361D01*
X230698431Y-72328702D01*
X230609354Y-72123840D01*
X230488014Y-71936277D01*
X230337670Y-71771051D01*
X230333619Y-71767852D01*
X230333615Y-71767848D01*
X230166414Y-71635800D01*
X230166410Y-71635798D01*
X230162359Y-71632598D01*
X230121053Y-71609796D01*
X230071084Y-71559364D01*
X230056312Y-71489921D01*
X230081428Y-71423516D01*
X230108780Y-71396909D01*
X230152603Y-71365650D01*
X230287860Y-71269173D01*
X230446096Y-71111489D01*
X230505594Y-71028689D01*
X230573435Y-70934277D01*
X230576453Y-70930077D01*
X230597320Y-70887857D01*
X230673136Y-70734453D01*
X230673137Y-70734451D01*
X230675430Y-70729811D01*
X230707900Y-70622940D01*
X230738865Y-70521023D01*
X230738865Y-70521021D01*
X230740370Y-70516069D01*
X230769529Y-70294590D01*
X230769770Y-70284726D01*
X230771074Y-70231365D01*
X230771074Y-70231361D01*
X230771156Y-70228000D01*
X230752852Y-70005361D01*
X230698431Y-69788702D01*
X230609354Y-69583840D01*
X230488014Y-69396277D01*
X230337670Y-69231051D01*
X230333619Y-69227852D01*
X230333615Y-69227848D01*
X230166414Y-69095800D01*
X230166410Y-69095798D01*
X230162359Y-69092598D01*
X230121053Y-69069796D01*
X230071084Y-69019364D01*
X230056312Y-68949921D01*
X230081428Y-68883516D01*
X230108780Y-68856909D01*
X230152603Y-68825650D01*
X230287860Y-68729173D01*
X230446096Y-68571489D01*
X230476487Y-68529196D01*
X230573435Y-68394277D01*
X230576453Y-68390077D01*
X230580611Y-68381665D01*
X230673136Y-68194453D01*
X230673137Y-68194451D01*
X230675430Y-68189811D01*
X230740370Y-67976069D01*
X230769529Y-67754590D01*
X230771156Y-67688000D01*
X230752852Y-67465361D01*
X230698431Y-67248702D01*
X230609354Y-67043840D01*
X230488014Y-66856277D01*
X230337670Y-66691051D01*
X230333619Y-66687852D01*
X230333615Y-66687848D01*
X230166414Y-66555800D01*
X230166410Y-66555798D01*
X230162359Y-66552598D01*
X230121053Y-66529796D01*
X230071084Y-66479364D01*
X230056312Y-66409921D01*
X230081428Y-66343516D01*
X230108780Y-66316909D01*
X230152603Y-66285650D01*
X230287860Y-66189173D01*
X230446096Y-66031489D01*
X230505594Y-65948689D01*
X230573435Y-65854277D01*
X230576453Y-65850077D01*
X230597320Y-65807857D01*
X230673136Y-65654453D01*
X230673137Y-65654451D01*
X230675430Y-65649811D01*
X230740370Y-65436069D01*
X230769529Y-65214590D01*
X230769611Y-65211240D01*
X230771074Y-65151365D01*
X230771074Y-65151361D01*
X230771156Y-65148000D01*
X230752852Y-64925361D01*
X230698431Y-64708702D01*
X230609354Y-64503840D01*
X230488014Y-64316277D01*
X230337670Y-64151051D01*
X230333619Y-64147852D01*
X230333615Y-64147848D01*
X230166414Y-64015800D01*
X230166410Y-64015798D01*
X230162359Y-64012598D01*
X230121053Y-63989796D01*
X230071084Y-63939364D01*
X230056312Y-63869921D01*
X230081428Y-63803516D01*
X230108780Y-63776909D01*
X230152603Y-63745650D01*
X230287860Y-63649173D01*
X230446096Y-63491489D01*
X230505594Y-63408689D01*
X230573435Y-63314277D01*
X230576453Y-63310077D01*
X230597320Y-63267857D01*
X230673136Y-63114453D01*
X230673137Y-63114451D01*
X230675430Y-63109811D01*
X230740370Y-62896069D01*
X230769529Y-62674590D01*
X230770227Y-62646042D01*
X230771074Y-62611365D01*
X230771074Y-62611361D01*
X230771156Y-62608000D01*
X230752852Y-62385361D01*
X230698431Y-62168702D01*
X230609354Y-61963840D01*
X230488014Y-61776277D01*
X230337670Y-61611051D01*
X230333619Y-61607852D01*
X230333615Y-61607848D01*
X230166414Y-61475800D01*
X230166410Y-61475798D01*
X230162359Y-61472598D01*
X230121053Y-61449796D01*
X230071084Y-61399364D01*
X230056312Y-61329921D01*
X230081428Y-61263516D01*
X230108780Y-61236909D01*
X230155205Y-61203794D01*
X230287860Y-61109173D01*
X230446096Y-60951489D01*
X230505533Y-60868774D01*
X230573435Y-60774277D01*
X230576453Y-60770077D01*
X230597320Y-60727857D01*
X230673136Y-60574453D01*
X230673137Y-60574451D01*
X230675430Y-60569811D01*
X230740370Y-60356069D01*
X230769529Y-60134590D01*
X230771156Y-60068000D01*
X230752852Y-59845361D01*
X230698431Y-59628702D01*
X230609354Y-59423840D01*
X230556310Y-59341847D01*
X230490822Y-59240617D01*
X230490820Y-59240614D01*
X230488014Y-59236277D01*
X230337670Y-59071051D01*
X230333619Y-59067852D01*
X230333615Y-59067848D01*
X230166414Y-58935800D01*
X230166410Y-58935798D01*
X230162359Y-58932598D01*
X230121053Y-58909796D01*
X230071084Y-58859364D01*
X230056312Y-58789921D01*
X230081428Y-58723516D01*
X230108780Y-58696909D01*
X230152603Y-58665650D01*
X230287860Y-58569173D01*
X230446096Y-58411489D01*
X230505594Y-58328689D01*
X230573435Y-58234277D01*
X230576453Y-58230077D01*
X230597320Y-58187857D01*
X230673136Y-58034453D01*
X230673137Y-58034451D01*
X230675430Y-58029811D01*
X230740370Y-57816069D01*
X230769529Y-57594590D01*
X230771156Y-57528000D01*
X230752852Y-57305361D01*
X230698431Y-57088702D01*
X230609354Y-56883840D01*
X230488014Y-56696277D01*
X230337670Y-56531051D01*
X230333619Y-56527852D01*
X230333615Y-56527848D01*
X230166414Y-56395800D01*
X230166410Y-56395798D01*
X230162359Y-56392598D01*
X230121053Y-56369796D01*
X230071084Y-56319364D01*
X230056312Y-56249921D01*
X230081428Y-56183516D01*
X230108780Y-56156909D01*
X230152603Y-56125650D01*
X230287860Y-56029173D01*
X230446096Y-55871489D01*
X230576453Y-55690077D01*
X230653392Y-55534403D01*
X230673136Y-55494453D01*
X230673137Y-55494451D01*
X230675430Y-55489811D01*
X230707900Y-55382940D01*
X230738865Y-55281023D01*
X230738865Y-55281021D01*
X230740370Y-55276069D01*
X230769529Y-55054590D01*
X230771156Y-54988000D01*
X230752852Y-54765361D01*
X230698431Y-54548702D01*
X230609354Y-54343840D01*
X230527460Y-54217251D01*
X230490822Y-54160617D01*
X230490820Y-54160614D01*
X230488014Y-54156277D01*
X230337670Y-53991051D01*
X230333619Y-53987852D01*
X230333615Y-53987848D01*
X230166414Y-53855800D01*
X230166410Y-53855798D01*
X230162359Y-53852598D01*
X229966789Y-53744638D01*
X229961920Y-53742914D01*
X229961916Y-53742912D01*
X229761087Y-53671795D01*
X229761083Y-53671794D01*
X229756212Y-53670069D01*
X229751119Y-53669162D01*
X229751116Y-53669161D01*
X229541373Y-53631800D01*
X229541367Y-53631799D01*
X229536284Y-53630894D01*
X229462452Y-53629992D01*
X229318081Y-53628228D01*
X229318079Y-53628228D01*
X229312911Y-53628165D01*
X229092091Y-53661955D01*
X228879756Y-53731357D01*
X228681607Y-53834507D01*
X228677474Y-53837610D01*
X228677471Y-53837612D01*
X228507100Y-53965530D01*
X228502965Y-53968635D01*
X228499393Y-53972373D01*
X228421898Y-54053466D01*
X228360374Y-54088895D01*
X228289462Y-54085438D01*
X228231676Y-54044192D01*
X228212823Y-54010644D01*
X228171324Y-53899946D01*
X228162786Y-53884351D01*
X228086285Y-53782276D01*
X228073724Y-53769715D01*
X227971649Y-53693214D01*
X227956054Y-53684676D01*
X227835606Y-53639522D01*
X227820351Y-53635895D01*
X227769486Y-53630369D01*
X227762672Y-53630000D01*
X227140115Y-53630000D01*
X227124876Y-53634475D01*
X227123671Y-53635865D01*
X227122000Y-53643548D01*
X227122000Y-55116000D01*
X227101998Y-55184121D01*
X227048342Y-55230614D01*
X226996000Y-55242000D01*
X225528116Y-55242000D01*
X225512877Y-55246475D01*
X225511672Y-55247865D01*
X225510001Y-55255548D01*
X225510001Y-55882669D01*
X225510371Y-55889490D01*
X225515895Y-55940352D01*
X225519521Y-55955604D01*
X225564676Y-56076054D01*
X225573214Y-56091649D01*
X225649715Y-56193724D01*
X225662276Y-56206285D01*
X225764351Y-56282786D01*
X225779946Y-56291324D01*
X225888827Y-56332142D01*
X225945591Y-56374784D01*
X225970291Y-56441345D01*
X225955083Y-56510694D01*
X225935691Y-56537175D01*
X225812200Y-56666401D01*
X225808629Y-56670138D01*
X225682743Y-56854680D01*
X225588688Y-57057305D01*
X225528989Y-57272570D01*
X225505251Y-57494695D01*
X225505548Y-57499848D01*
X225505548Y-57499851D01*
X225511011Y-57594590D01*
X225518110Y-57717715D01*
X225519247Y-57722761D01*
X225519248Y-57722767D01*
X225539119Y-57810939D01*
X225567222Y-57935639D01*
X225651266Y-58142616D01*
X225702019Y-58225438D01*
X225765291Y-58328688D01*
X225767987Y-58333088D01*
X225914250Y-58501938D01*
X226086126Y-58644632D01*
X226156595Y-58685811D01*
X226159445Y-58687476D01*
X226208169Y-58739114D01*
X226221240Y-58808897D01*
X226194509Y-58874669D01*
X226154055Y-58908027D01*
X226141607Y-58914507D01*
X226137474Y-58917610D01*
X226137471Y-58917612D01*
X226019487Y-59006197D01*
X225962965Y-59048635D01*
X225808629Y-59210138D01*
X225682743Y-59394680D01*
X225588688Y-59597305D01*
X225528989Y-59812570D01*
X225505251Y-60034695D01*
X225505548Y-60039848D01*
X225505548Y-60039851D01*
X225511011Y-60134590D01*
X225518110Y-60257715D01*
X225519247Y-60262761D01*
X225519248Y-60262767D01*
X225535965Y-60336944D01*
X225567222Y-60475639D01*
X225651266Y-60682616D01*
X225702019Y-60765438D01*
X225765291Y-60868688D01*
X225767987Y-60873088D01*
X225914250Y-61041938D01*
X226086126Y-61184632D01*
X226118918Y-61203794D01*
X226159445Y-61227476D01*
X226208169Y-61279114D01*
X226221240Y-61348897D01*
X226194509Y-61414669D01*
X226154055Y-61448027D01*
X226141607Y-61454507D01*
X226137474Y-61457610D01*
X226137471Y-61457612D01*
X226113247Y-61475800D01*
X225962965Y-61588635D01*
X225808629Y-61750138D01*
X225805720Y-61754403D01*
X225805714Y-61754411D01*
X225793404Y-61772457D01*
X225682743Y-61934680D01*
X225588688Y-62137305D01*
X225528989Y-62352570D01*
X225505251Y-62574695D01*
X225505548Y-62579848D01*
X225505548Y-62579851D01*
X225511011Y-62674590D01*
X225518110Y-62797715D01*
X225519247Y-62802761D01*
X225519248Y-62802767D01*
X225529131Y-62846618D01*
X225567222Y-63015639D01*
X225651266Y-63222616D01*
X225702019Y-63305438D01*
X225765291Y-63408688D01*
X225767987Y-63413088D01*
X225914250Y-63581938D01*
X226086126Y-63724632D01*
X226156595Y-63765811D01*
X226159445Y-63767476D01*
X226208169Y-63819114D01*
X226221240Y-63888897D01*
X226194509Y-63954669D01*
X226154055Y-63988027D01*
X226141607Y-63994507D01*
X226137474Y-63997610D01*
X226137471Y-63997612D01*
X226113247Y-64015800D01*
X225962965Y-64128635D01*
X225959393Y-64132373D01*
X225842275Y-64254930D01*
X225808629Y-64290138D01*
X225682743Y-64474680D01*
X225588688Y-64677305D01*
X225528989Y-64892570D01*
X225505251Y-65114695D01*
X225505548Y-65119848D01*
X225505548Y-65119851D01*
X225511011Y-65214590D01*
X225518110Y-65337715D01*
X225519247Y-65342761D01*
X225519248Y-65342767D01*
X225539119Y-65430939D01*
X225567222Y-65555639D01*
X225651266Y-65762616D01*
X225702019Y-65845438D01*
X225765291Y-65948688D01*
X225767987Y-65953088D01*
X225914250Y-66121938D01*
X226086126Y-66264632D01*
X226156595Y-66305811D01*
X226159445Y-66307476D01*
X226208169Y-66359114D01*
X226221240Y-66428897D01*
X226194509Y-66494669D01*
X226154055Y-66528027D01*
X226141607Y-66534507D01*
X226137474Y-66537610D01*
X226137471Y-66537612D01*
X226043057Y-66608500D01*
X225962965Y-66668635D01*
X225808629Y-66830138D01*
X225805720Y-66834403D01*
X225805714Y-66834411D01*
X225693095Y-66999504D01*
X225638184Y-67044507D01*
X225589007Y-67054500D01*
X214640767Y-67054500D01*
X214629584Y-67053973D01*
X214622091Y-67052298D01*
X214614165Y-67052547D01*
X214614164Y-67052547D01*
X214554001Y-67054438D01*
X214550043Y-67054500D01*
X214522144Y-67054500D01*
X214518154Y-67055004D01*
X214506320Y-67055936D01*
X214462111Y-67057326D01*
X214454497Y-67059538D01*
X214454492Y-67059539D01*
X214442659Y-67062977D01*
X214423296Y-67066988D01*
X214403203Y-67069526D01*
X214395836Y-67072443D01*
X214395831Y-67072444D01*
X214362092Y-67085802D01*
X214350865Y-67089646D01*
X214308407Y-67101982D01*
X214301581Y-67106019D01*
X214290972Y-67112293D01*
X214273224Y-67120988D01*
X214254383Y-67128448D01*
X214247967Y-67133110D01*
X214247966Y-67133110D01*
X214218613Y-67154436D01*
X214208693Y-67160952D01*
X214177465Y-67179420D01*
X214177462Y-67179422D01*
X214170638Y-67183458D01*
X214156317Y-67197779D01*
X214141284Y-67210619D01*
X214124893Y-67222528D01*
X214119842Y-67228634D01*
X214096702Y-67256605D01*
X214088712Y-67265384D01*
X206575098Y-74778997D01*
X206512788Y-74813022D01*
X206441973Y-74807957D01*
X206385137Y-74765410D01*
X206360326Y-74698890D01*
X206360695Y-74676733D01*
X206362814Y-74656568D01*
X206362814Y-74656565D01*
X206363504Y-74650000D01*
X206354599Y-74565271D01*
X206344232Y-74466635D01*
X206344232Y-74466633D01*
X206343542Y-74460072D01*
X206284527Y-74278444D01*
X206189040Y-74113056D01*
X206115863Y-74031785D01*
X206085147Y-73967779D01*
X206083500Y-73947476D01*
X206083500Y-71352524D01*
X206103502Y-71284403D01*
X206115858Y-71268221D01*
X206189040Y-71186944D01*
X206280409Y-71028689D01*
X206281223Y-71027279D01*
X206281224Y-71027278D01*
X206284527Y-71021556D01*
X206343542Y-70839928D01*
X206363504Y-70650000D01*
X206353479Y-70554617D01*
X206344232Y-70466635D01*
X206344232Y-70466633D01*
X206343542Y-70460072D01*
X206284527Y-70278444D01*
X206189040Y-70113056D01*
X206061253Y-69971134D01*
X205906752Y-69858882D01*
X205900724Y-69856198D01*
X205900722Y-69856197D01*
X205738319Y-69783891D01*
X205738318Y-69783891D01*
X205732288Y-69781206D01*
X205638887Y-69761353D01*
X205551944Y-69742872D01*
X205551939Y-69742872D01*
X205545487Y-69741500D01*
X205354513Y-69741500D01*
X205348061Y-69742872D01*
X205348056Y-69742872D01*
X205261113Y-69761353D01*
X205167712Y-69781206D01*
X205161682Y-69783891D01*
X205161681Y-69783891D01*
X204999278Y-69856197D01*
X204999276Y-69856198D01*
X204993248Y-69858882D01*
X204838747Y-69971134D01*
X204710960Y-70113056D01*
X204615473Y-70278444D01*
X204613432Y-70284726D01*
X204594373Y-70343383D01*
X204554299Y-70401988D01*
X204488902Y-70429625D01*
X204418946Y-70417518D01*
X204385445Y-70393541D01*
X203362405Y-69370500D01*
X203328379Y-69308188D01*
X203325500Y-69281405D01*
X203325500Y-66478701D01*
X203345502Y-66410580D01*
X203399158Y-66364087D01*
X203469432Y-66353983D01*
X203534012Y-66383477D01*
X203573207Y-66446090D01*
X203660679Y-66772538D01*
X203661864Y-66775626D01*
X203661865Y-66775628D01*
X203684427Y-66834403D01*
X203792467Y-67115858D01*
X203793965Y-67118798D01*
X203860155Y-67248702D01*
X203959420Y-67443521D01*
X203961216Y-67446287D01*
X203961218Y-67446290D01*
X204093756Y-67650382D01*
X204159708Y-67751939D01*
X204391138Y-68037731D01*
X204651173Y-68297766D01*
X204936965Y-68529196D01*
X205245382Y-68729484D01*
X205248316Y-68730979D01*
X205248323Y-68730983D01*
X205547687Y-68883516D01*
X205573046Y-68896437D01*
X205916366Y-69028225D01*
X206271581Y-69123405D01*
X206464598Y-69153976D01*
X206631551Y-69180419D01*
X206631559Y-69180420D01*
X206634799Y-69180933D01*
X207002040Y-69200179D01*
X207369281Y-69180933D01*
X207372521Y-69180420D01*
X207372529Y-69180419D01*
X207539482Y-69153976D01*
X207732499Y-69123405D01*
X208087714Y-69028225D01*
X208431034Y-68896437D01*
X208456393Y-68883516D01*
X208755757Y-68730983D01*
X208755764Y-68730979D01*
X208758698Y-68729484D01*
X209067115Y-68529196D01*
X209352907Y-68297766D01*
X209612942Y-68037731D01*
X209844372Y-67751939D01*
X209910324Y-67650382D01*
X210042862Y-67446290D01*
X210042864Y-67446287D01*
X210044660Y-67443521D01*
X210143926Y-67248702D01*
X210210115Y-67118798D01*
X210211613Y-67115858D01*
X210319653Y-66834403D01*
X210342215Y-66775628D01*
X210342216Y-66775626D01*
X210343401Y-66772538D01*
X210438581Y-66417323D01*
X210475294Y-66185529D01*
X210495595Y-66057353D01*
X210495596Y-66057345D01*
X210496109Y-66054105D01*
X210514667Y-65700000D01*
X216836496Y-65700000D01*
X216837186Y-65706565D01*
X216852270Y-65850077D01*
X216856458Y-65889928D01*
X216915473Y-66071556D01*
X217010960Y-66236944D01*
X217015378Y-66241851D01*
X217015379Y-66241852D01*
X217035890Y-66264632D01*
X217138747Y-66378866D01*
X217229274Y-66444638D01*
X217276158Y-66478701D01*
X217293248Y-66491118D01*
X217299276Y-66493802D01*
X217299278Y-66493803D01*
X217461681Y-66566109D01*
X217467712Y-66568794D01*
X217561112Y-66588647D01*
X217648056Y-66607128D01*
X217648061Y-66607128D01*
X217654513Y-66608500D01*
X217845487Y-66608500D01*
X217851939Y-66607128D01*
X217851944Y-66607128D01*
X217938888Y-66588647D01*
X218032288Y-66568794D01*
X218038319Y-66566109D01*
X218200722Y-66493803D01*
X218200724Y-66493802D01*
X218206752Y-66491118D01*
X218223843Y-66478701D01*
X218270726Y-66444638D01*
X218361253Y-66378866D01*
X218464110Y-66264632D01*
X218484621Y-66241852D01*
X218484622Y-66241851D01*
X218489040Y-66236944D01*
X218584527Y-66071556D01*
X218643542Y-65889928D01*
X218647731Y-65850077D01*
X218662814Y-65706565D01*
X218663504Y-65700000D01*
X218643542Y-65510072D01*
X218584527Y-65328444D01*
X218489040Y-65163056D01*
X218415863Y-65081785D01*
X218385147Y-65017779D01*
X218383500Y-64997476D01*
X218383500Y-62102524D01*
X218403502Y-62034403D01*
X218415858Y-62018221D01*
X218489040Y-61936944D01*
X218584527Y-61771556D01*
X218643542Y-61589928D01*
X218663504Y-61400000D01*
X218659787Y-61364638D01*
X218644232Y-61216635D01*
X218644232Y-61216633D01*
X218643542Y-61210072D01*
X218584527Y-61028444D01*
X218489040Y-60863056D01*
X218405322Y-60770077D01*
X218365675Y-60726045D01*
X218365674Y-60726044D01*
X218361253Y-60721134D01*
X218206752Y-60608882D01*
X218200724Y-60606198D01*
X218200722Y-60606197D01*
X218038319Y-60533891D01*
X218038318Y-60533891D01*
X218032288Y-60531206D01*
X217938887Y-60511353D01*
X217851944Y-60492872D01*
X217851939Y-60492872D01*
X217845487Y-60491500D01*
X217654513Y-60491500D01*
X217648061Y-60492872D01*
X217648056Y-60492872D01*
X217561113Y-60511353D01*
X217467712Y-60531206D01*
X217461682Y-60533891D01*
X217461681Y-60533891D01*
X217299278Y-60606197D01*
X217299276Y-60606198D01*
X217293248Y-60608882D01*
X217138747Y-60721134D01*
X217134326Y-60726044D01*
X217134325Y-60726045D01*
X217094679Y-60770077D01*
X217010960Y-60863056D01*
X216915473Y-61028444D01*
X216856458Y-61210072D01*
X216855768Y-61216633D01*
X216855768Y-61216635D01*
X216840213Y-61364638D01*
X216836496Y-61400000D01*
X216856458Y-61589928D01*
X216915473Y-61771556D01*
X217010960Y-61936944D01*
X217084137Y-62018215D01*
X217114853Y-62082221D01*
X217116500Y-62102524D01*
X217116500Y-64997476D01*
X217096498Y-65065597D01*
X217084142Y-65081779D01*
X217010960Y-65163056D01*
X216915473Y-65328444D01*
X216856458Y-65510072D01*
X216836496Y-65700000D01*
X210514667Y-65700000D01*
X210515355Y-65686864D01*
X210496109Y-65319623D01*
X210479474Y-65214590D01*
X210462839Y-65109562D01*
X210438581Y-64956405D01*
X210343401Y-64601190D01*
X210211613Y-64257870D01*
X210147669Y-64132373D01*
X210046159Y-63933148D01*
X210046155Y-63933141D01*
X210044660Y-63930207D01*
X210028056Y-63904638D01*
X209846174Y-63624564D01*
X209844372Y-63621789D01*
X209612942Y-63335997D01*
X209352907Y-63075962D01*
X209067115Y-62844532D01*
X208805427Y-62674590D01*
X208761467Y-62646042D01*
X208761464Y-62646040D01*
X208758698Y-62644244D01*
X208755764Y-62642749D01*
X208755757Y-62642745D01*
X208433974Y-62478789D01*
X208431034Y-62477291D01*
X208119507Y-62357707D01*
X208090804Y-62346689D01*
X208090802Y-62346688D01*
X208087714Y-62345503D01*
X207732499Y-62250323D01*
X207539482Y-62219752D01*
X207372529Y-62193309D01*
X207372521Y-62193308D01*
X207369281Y-62192795D01*
X207002040Y-62173549D01*
X206634799Y-62192795D01*
X206631559Y-62193308D01*
X206631551Y-62193309D01*
X206464598Y-62219752D01*
X206271581Y-62250323D01*
X205916366Y-62345503D01*
X205913278Y-62346688D01*
X205913276Y-62346689D01*
X205884573Y-62357707D01*
X205573046Y-62477291D01*
X205570106Y-62478789D01*
X205248324Y-62642745D01*
X205248317Y-62642749D01*
X205245383Y-62644244D01*
X205242617Y-62646040D01*
X205242614Y-62646042D01*
X205038522Y-62778580D01*
X204936965Y-62844532D01*
X204651173Y-63075962D01*
X204391138Y-63335997D01*
X204159708Y-63621789D01*
X204157906Y-63624564D01*
X203976025Y-63904638D01*
X203959420Y-63930207D01*
X203957925Y-63933141D01*
X203957921Y-63933148D01*
X203856411Y-64132373D01*
X203792467Y-64257870D01*
X203660679Y-64601190D01*
X203631871Y-64708702D01*
X203573207Y-64927638D01*
X203536255Y-64988261D01*
X203472394Y-65019282D01*
X203401900Y-65010854D01*
X203347153Y-64965651D01*
X203325500Y-64895027D01*
X203325500Y-55432594D01*
X203345502Y-55364473D01*
X203362405Y-55343499D01*
X203990019Y-54715885D01*
X225510000Y-54715885D01*
X225514475Y-54731124D01*
X225515865Y-54732329D01*
X225523548Y-54734000D01*
X226595885Y-54734000D01*
X226611124Y-54729525D01*
X226612329Y-54728135D01*
X226614000Y-54720452D01*
X226614000Y-53648116D01*
X226609525Y-53632877D01*
X226608135Y-53631672D01*
X226600452Y-53630001D01*
X225973331Y-53630001D01*
X225966510Y-53630371D01*
X225915648Y-53635895D01*
X225900396Y-53639521D01*
X225779946Y-53684676D01*
X225764351Y-53693214D01*
X225662276Y-53769715D01*
X225649715Y-53782276D01*
X225573214Y-53884351D01*
X225564676Y-53899946D01*
X225519522Y-54020394D01*
X225515895Y-54035649D01*
X225510369Y-54086514D01*
X225510000Y-54093328D01*
X225510000Y-54715885D01*
X203990019Y-54715885D01*
X207792247Y-50913657D01*
X207800537Y-50906113D01*
X207807018Y-50902000D01*
X207853659Y-50852332D01*
X207856413Y-50849491D01*
X207876134Y-50829770D01*
X207878612Y-50826575D01*
X207886318Y-50817553D01*
X207911158Y-50791101D01*
X207916586Y-50785321D01*
X207926346Y-50767568D01*
X207937199Y-50751045D01*
X207944753Y-50741306D01*
X207949613Y-50735041D01*
X207967176Y-50694457D01*
X207972383Y-50683827D01*
X207993695Y-50645060D01*
X207995666Y-50637383D01*
X207995668Y-50637378D01*
X207998732Y-50625442D01*
X208005138Y-50606730D01*
X208010034Y-50595417D01*
X208013181Y-50588145D01*
X208020097Y-50544481D01*
X208022504Y-50532860D01*
X208031528Y-50497711D01*
X208031528Y-50497710D01*
X208033500Y-50490030D01*
X208033500Y-50469769D01*
X208035051Y-50450058D01*
X208036979Y-50437885D01*
X208038219Y-50430057D01*
X208034059Y-50386046D01*
X208033500Y-50374189D01*
X208033500Y-50342277D01*
X226637009Y-50342277D01*
X226662625Y-50610769D01*
X226663710Y-50615203D01*
X226663711Y-50615209D01*
X226718469Y-50838987D01*
X226726731Y-50872750D01*
X226827985Y-51122733D01*
X226964265Y-51355482D01*
X226967118Y-51359049D01*
X227084686Y-51506060D01*
X227132716Y-51566119D01*
X227329809Y-51750234D01*
X227551416Y-51903968D01*
X227555499Y-51905999D01*
X227555502Y-51906001D01*
X227671013Y-51963466D01*
X227792894Y-52024101D01*
X227797228Y-52025522D01*
X227797231Y-52025523D01*
X228044853Y-52106698D01*
X228044859Y-52106699D01*
X228049186Y-52108118D01*
X228053677Y-52108898D01*
X228053678Y-52108898D01*
X228311140Y-52153601D01*
X228311148Y-52153602D01*
X228314921Y-52154257D01*
X228318758Y-52154448D01*
X228398578Y-52158422D01*
X228398586Y-52158422D01*
X228400149Y-52158500D01*
X228568512Y-52158500D01*
X228570780Y-52158335D01*
X228570792Y-52158335D01*
X228701884Y-52148823D01*
X228769004Y-52143953D01*
X228773459Y-52142969D01*
X228773462Y-52142969D01*
X229027912Y-52086791D01*
X229027916Y-52086790D01*
X229032372Y-52085806D01*
X229158480Y-52038028D01*
X229280318Y-51991868D01*
X229280321Y-51991867D01*
X229284588Y-51990250D01*
X229520368Y-51859286D01*
X229734773Y-51695657D01*
X229923312Y-51502792D01*
X230082034Y-51284730D01*
X230165190Y-51126676D01*
X230205490Y-51050079D01*
X230205493Y-51050073D01*
X230207615Y-51046039D01*
X230234071Y-50971124D01*
X230295902Y-50796033D01*
X230295902Y-50796032D01*
X230297425Y-50791720D01*
X230326331Y-50645060D01*
X230348700Y-50531572D01*
X230348701Y-50531566D01*
X230349581Y-50527100D01*
X230351044Y-50497711D01*
X230362764Y-50262292D01*
X230362764Y-50262286D01*
X230362991Y-50257723D01*
X230337375Y-49989231D01*
X230292042Y-49803967D01*
X230274355Y-49731688D01*
X230273269Y-49727250D01*
X230172015Y-49477267D01*
X230035735Y-49244518D01*
X229917928Y-49097208D01*
X229870136Y-49037447D01*
X229870135Y-49037445D01*
X229867284Y-49033881D01*
X229670191Y-48849766D01*
X229448584Y-48696032D01*
X229444501Y-48694001D01*
X229444498Y-48693999D01*
X229279606Y-48611967D01*
X229207106Y-48575899D01*
X229202772Y-48574478D01*
X229202769Y-48574477D01*
X228955147Y-48493302D01*
X228955141Y-48493301D01*
X228950814Y-48491882D01*
X228946322Y-48491102D01*
X228688860Y-48446399D01*
X228688852Y-48446398D01*
X228685079Y-48445743D01*
X228667664Y-48444876D01*
X228601422Y-48441578D01*
X228601414Y-48441578D01*
X228599851Y-48441500D01*
X228431488Y-48441500D01*
X228429220Y-48441665D01*
X228429208Y-48441665D01*
X228298116Y-48451177D01*
X228230996Y-48456047D01*
X228226541Y-48457031D01*
X228226538Y-48457031D01*
X227972088Y-48513209D01*
X227972084Y-48513210D01*
X227967628Y-48514194D01*
X227878528Y-48547951D01*
X227719682Y-48608132D01*
X227719679Y-48608133D01*
X227715412Y-48609750D01*
X227479632Y-48740714D01*
X227265227Y-48904343D01*
X227076688Y-49097208D01*
X226917966Y-49315270D01*
X226915844Y-49319304D01*
X226794510Y-49549921D01*
X226794507Y-49549927D01*
X226792385Y-49553961D01*
X226790865Y-49558266D01*
X226790863Y-49558270D01*
X226704098Y-49803967D01*
X226702575Y-49808280D01*
X226650419Y-50072900D01*
X226650192Y-50077453D01*
X226650192Y-50077456D01*
X226640991Y-50262292D01*
X226637009Y-50342277D01*
X208033500Y-50342277D01*
X208033500Y-47752524D01*
X208053502Y-47684403D01*
X208065858Y-47668221D01*
X208139040Y-47586944D01*
X208234527Y-47421556D01*
X208293542Y-47239928D01*
X208313504Y-47050000D01*
X208293542Y-46860072D01*
X208234527Y-46678444D01*
X208139040Y-46513056D01*
X208011253Y-46371134D01*
X207856752Y-46258882D01*
X207850724Y-46256198D01*
X207850722Y-46256197D01*
X207688319Y-46183891D01*
X207688318Y-46183891D01*
X207682288Y-46181206D01*
X207588887Y-46161353D01*
X207501944Y-46142872D01*
X207501939Y-46142872D01*
X207495487Y-46141500D01*
X207304513Y-46141500D01*
X207298061Y-46142872D01*
X207298056Y-46142872D01*
X207211112Y-46161353D01*
X207117712Y-46181206D01*
X207111682Y-46183891D01*
X207111681Y-46183891D01*
X206949278Y-46256197D01*
X206949276Y-46256198D01*
X206943248Y-46258882D01*
X206788747Y-46371134D01*
X206660960Y-46513056D01*
X206565473Y-46678444D01*
X206506458Y-46860072D01*
X206486496Y-47050000D01*
X206506458Y-47239928D01*
X206565473Y-47421556D01*
X206660960Y-47586944D01*
X206734137Y-47668215D01*
X206764853Y-47732221D01*
X206766500Y-47752524D01*
X206766500Y-50095405D01*
X206746498Y-50163526D01*
X206729595Y-50184500D01*
X202753595Y-54160500D01*
X202691283Y-54194526D01*
X202620468Y-54189461D01*
X202563632Y-54146914D01*
X202538821Y-54080394D01*
X202538500Y-54071405D01*
X202538500Y-51612239D01*
X202558502Y-51544118D01*
X202575405Y-51523144D01*
X205496234Y-48602315D01*
X205508625Y-48591448D01*
X205527437Y-48577013D01*
X205533987Y-48571987D01*
X205558474Y-48540075D01*
X205558480Y-48540069D01*
X205626496Y-48451429D01*
X205626497Y-48451427D01*
X205631524Y-48444876D01*
X205692838Y-48296851D01*
X205704645Y-48207163D01*
X205708500Y-48177885D01*
X205708500Y-48177880D01*
X205713750Y-48138000D01*
X205709578Y-48106307D01*
X205708500Y-48089864D01*
X205708500Y-44880290D01*
X205728502Y-44812169D01*
X205740864Y-44795980D01*
X205834621Y-44691852D01*
X205834622Y-44691851D01*
X205839040Y-44686944D01*
X205934527Y-44521556D01*
X205993542Y-44339928D01*
X206013504Y-44150000D01*
X205993542Y-43960072D01*
X205934527Y-43778444D01*
X205928787Y-43768501D01*
X205842341Y-43618774D01*
X205839040Y-43613056D01*
X205711253Y-43471134D01*
X205689287Y-43455175D01*
X205645935Y-43398953D01*
X205639860Y-43328217D01*
X205672992Y-43265425D01*
X205734812Y-43230514D01*
X205763350Y-43227240D01*
X214108763Y-43227240D01*
X214128150Y-43228741D01*
G37*
G04 #@! TD.AperFunction*
G04 #@! TA.AperFunction,Conductor*
G36*
X225532332Y-74710539D02*
G01*
X225578825Y-74764195D01*
X225588929Y-74834469D01*
X225585628Y-74850209D01*
X225532389Y-75042183D01*
X225533912Y-75050607D01*
X225546292Y-75054000D01*
X226996000Y-75054000D01*
X227064121Y-75074002D01*
X227110614Y-75127658D01*
X227122000Y-75180000D01*
X227122000Y-75436000D01*
X227101998Y-75504121D01*
X227048342Y-75550614D01*
X226996000Y-75562000D01*
X225551225Y-75562000D01*
X225537694Y-75565973D01*
X225536257Y-75575966D01*
X225566565Y-75710446D01*
X225569644Y-75720275D01*
X225594016Y-75780295D01*
X225601112Y-75850936D01*
X225568890Y-75914199D01*
X225507581Y-75950000D01*
X225477273Y-75953699D01*
X215337564Y-75953699D01*
X215326380Y-75953172D01*
X215318892Y-75951498D01*
X215310969Y-75951747D01*
X215250834Y-75953637D01*
X215246876Y-75953699D01*
X215218945Y-75953699D01*
X215215030Y-75954194D01*
X215215026Y-75954194D01*
X215214968Y-75954202D01*
X215214939Y-75954205D01*
X215203097Y-75955138D01*
X215158911Y-75956526D01*
X215141545Y-75961571D01*
X215139459Y-75962177D01*
X215120107Y-75966185D01*
X215107869Y-75967731D01*
X215107867Y-75967732D01*
X215100004Y-75968725D01*
X215058887Y-75985005D01*
X215047686Y-75988840D01*
X215005207Y-76001181D01*
X214998388Y-76005214D01*
X214998383Y-76005216D01*
X214987772Y-76011492D01*
X214970022Y-76020189D01*
X214951184Y-76027647D01*
X214944768Y-76032308D01*
X214944767Y-76032309D01*
X214933408Y-76040562D01*
X214920190Y-76050166D01*
X214915426Y-76053627D01*
X214905502Y-76060146D01*
X214874261Y-76078621D01*
X214874256Y-76078625D01*
X214867438Y-76082657D01*
X214853114Y-76096981D01*
X214838082Y-76109820D01*
X214821694Y-76121727D01*
X214804624Y-76142361D01*
X214793513Y-76155792D01*
X214785523Y-76164572D01*
X213729747Y-77220348D01*
X213721461Y-77227888D01*
X213714982Y-77232000D01*
X213709557Y-77237777D01*
X213668357Y-77281651D01*
X213665602Y-77284493D01*
X213645865Y-77304230D01*
X213643385Y-77307427D01*
X213635682Y-77316447D01*
X213605414Y-77348679D01*
X213601595Y-77355625D01*
X213601593Y-77355628D01*
X213595652Y-77366434D01*
X213584801Y-77382953D01*
X213572386Y-77398959D01*
X213569241Y-77406228D01*
X213569238Y-77406232D01*
X213554826Y-77439537D01*
X213549609Y-77450187D01*
X213528305Y-77488940D01*
X213526334Y-77496615D01*
X213526334Y-77496616D01*
X213523267Y-77508562D01*
X213516863Y-77527266D01*
X213508819Y-77545855D01*
X213507580Y-77553678D01*
X213507577Y-77553688D01*
X213501901Y-77589524D01*
X213499495Y-77601144D01*
X213488500Y-77643970D01*
X213488500Y-77664224D01*
X213486949Y-77683934D01*
X213483780Y-77703943D01*
X213484526Y-77711835D01*
X213487941Y-77747961D01*
X213488500Y-77759819D01*
X213488500Y-78043029D01*
X213468498Y-78111150D01*
X213414842Y-78157643D01*
X213344568Y-78167747D01*
X213279988Y-78138253D01*
X213268864Y-78127339D01*
X213266944Y-78125206D01*
X213209253Y-78061134D01*
X213054752Y-77948882D01*
X213048724Y-77946198D01*
X213048722Y-77946197D01*
X212886319Y-77873891D01*
X212886318Y-77873891D01*
X212880288Y-77871206D01*
X212771113Y-77848000D01*
X212699944Y-77832872D01*
X212699939Y-77832872D01*
X212693487Y-77831500D01*
X212502513Y-77831500D01*
X212496061Y-77832872D01*
X212496056Y-77832872D01*
X212424887Y-77848000D01*
X212315712Y-77871206D01*
X212309682Y-77873891D01*
X212309681Y-77873891D01*
X212297344Y-77879384D01*
X212226977Y-77888818D01*
X212162680Y-77858712D01*
X212124866Y-77798623D01*
X212120095Y-77764277D01*
X212120095Y-76863999D01*
X212140097Y-76795878D01*
X212157000Y-76774904D01*
X214204462Y-74727442D01*
X214266774Y-74693416D01*
X214293557Y-74690537D01*
X225464211Y-74690537D01*
X225532332Y-74710539D01*
G37*
G04 #@! TD.AperFunction*
M02*
