G04 #@! TF.GenerationSoftware,KiCad,Pcbnew,(6.0.10)*
G04 #@! TF.CreationDate,2023-11-27T13:53:15-05:00*
G04 #@! TF.ProjectId,tofu60-plate,746f6675-3630-42d7-906c-6174652e6b69,rev?*
G04 #@! TF.SameCoordinates,Original*
G04 #@! TF.FileFunction,Copper,L1,Top*
G04 #@! TF.FilePolarity,Positive*
%FSLAX46Y46*%
G04 Gerber Fmt 4.6, Leading zero omitted, Abs format (unit mm)*
G04 Created by KiCad (PCBNEW (6.0.10)) date 2023-11-27 13:53:15*
%MOMM*%
%LPD*%
G01*
G04 APERTURE LIST*
G04 APERTURE END LIST*
G04 #@! TA.AperFunction,NonConductor*
G36*
X141073404Y-45254915D02*
G01*
X162318901Y-45254918D01*
X162321534Y-45255012D01*
X162323395Y-45255783D01*
X162324960Y-45255134D01*
X162327888Y-45255239D01*
X162567094Y-45272347D01*
X162584880Y-45274904D01*
X162814803Y-45324921D01*
X162832042Y-45329982D01*
X162994399Y-45390538D01*
X163052525Y-45412218D01*
X163068873Y-45419684D01*
X163275400Y-45532457D01*
X163290511Y-45542168D01*
X163478873Y-45683175D01*
X163478882Y-45683182D01*
X163492469Y-45694955D01*
X163658853Y-45861340D01*
X163670626Y-45874927D01*
X163811637Y-46063298D01*
X163821354Y-46078417D01*
X163934120Y-46284937D01*
X163941588Y-46301290D01*
X164023816Y-46521759D01*
X164028881Y-46539007D01*
X164053889Y-46653970D01*
X164066251Y-46710797D01*
X164078897Y-46768933D01*
X164081454Y-46786719D01*
X164081456Y-46786739D01*
X164098574Y-47026105D01*
X164098673Y-47028867D01*
X164098030Y-47030418D01*
X164098794Y-47032262D01*
X164098895Y-47035093D01*
X164098895Y-48209554D01*
X164097861Y-48220919D01*
X164095027Y-48220919D01*
X164096050Y-48236519D01*
X164096050Y-48236520D01*
X164110169Y-48451791D01*
X164110446Y-48456018D01*
X164156432Y-48687090D01*
X164167990Y-48721121D01*
X164230767Y-48905962D01*
X164232199Y-48910179D01*
X164336449Y-49121463D01*
X164467396Y-49317325D01*
X164470120Y-49320429D01*
X164619642Y-49490813D01*
X164622799Y-49494411D01*
X164799995Y-49649687D01*
X164995951Y-49780494D01*
X165207310Y-49884593D01*
X165430452Y-49960201D01*
X165661557Y-50006022D01*
X165665663Y-50006288D01*
X165665668Y-50006289D01*
X165879678Y-50020171D01*
X165896667Y-50021273D01*
X165896665Y-50018288D01*
X165904507Y-50017418D01*
X219075553Y-50017425D01*
X219075408Y-50017425D01*
X219075408Y-50017709D01*
X219075797Y-50017644D01*
X219076802Y-50018209D01*
X219079600Y-50017425D01*
X219080245Y-50017425D01*
X219081595Y-50016866D01*
X219085177Y-50015862D01*
X219086944Y-50018111D01*
X219100141Y-50006289D01*
X219257133Y-49865647D01*
X219260167Y-49862929D01*
X219411939Y-49686712D01*
X219421723Y-49671836D01*
X219537486Y-49495810D01*
X219537488Y-49495807D01*
X219539729Y-49492399D01*
X219641403Y-49283235D01*
X219649035Y-49260450D01*
X219675575Y-49181210D01*
X219715265Y-49062708D01*
X219717739Y-49050114D01*
X219737080Y-48951625D01*
X219760082Y-48834500D01*
X219775106Y-48602419D01*
X219772272Y-48602419D01*
X219772175Y-48602184D01*
X219771407Y-48595262D01*
X219771407Y-47337388D01*
X240667715Y-47337388D01*
X240703460Y-47551601D01*
X240705154Y-47556535D01*
X240772280Y-47752073D01*
X240772282Y-47752078D01*
X240773975Y-47757009D01*
X240877337Y-47948010D01*
X240880537Y-47952121D01*
X240880538Y-47952123D01*
X240997290Y-48102130D01*
X241010727Y-48119394D01*
X241108664Y-48209554D01*
X241148714Y-48246424D01*
X241170505Y-48266485D01*
X241352314Y-48385273D01*
X241551196Y-48472516D01*
X241619969Y-48489934D01*
X241756668Y-48524555D01*
X241756674Y-48524556D01*
X241761724Y-48525835D01*
X241978157Y-48543776D01*
X241978157Y-48540234D01*
X241987483Y-48539285D01*
X246965130Y-48539285D01*
X246978157Y-48540414D01*
X246978157Y-48543806D01*
X246994287Y-48542470D01*
X246994288Y-48542470D01*
X247055283Y-48537417D01*
X247194604Y-48525877D01*
X247199658Y-48524597D01*
X247199660Y-48524597D01*
X247303140Y-48498395D01*
X247405149Y-48472566D01*
X247504598Y-48428947D01*
X247599279Y-48387419D01*
X247599282Y-48387418D01*
X247604048Y-48385327D01*
X247785874Y-48266540D01*
X247789743Y-48262979D01*
X247941830Y-48122976D01*
X247945667Y-48119444D01*
X247948865Y-48115335D01*
X247948869Y-48115331D01*
X248075870Y-47952166D01*
X248075873Y-47952161D01*
X248079070Y-47948054D01*
X248081560Y-47943454D01*
X248179959Y-47761631D01*
X248182443Y-47757042D01*
X248252965Y-47551622D01*
X248288714Y-47337395D01*
X248288714Y-47120205D01*
X248252965Y-46905978D01*
X248182443Y-46700558D01*
X248086629Y-46523514D01*
X248081551Y-46514130D01*
X248081550Y-46514128D01*
X248079070Y-46509546D01*
X248075873Y-46505439D01*
X248075870Y-46505434D01*
X247948869Y-46342269D01*
X247948865Y-46342265D01*
X247945667Y-46338156D01*
X247789771Y-46194647D01*
X247789711Y-46194592D01*
X247789710Y-46194591D01*
X247785874Y-46191060D01*
X247604048Y-46072273D01*
X247599282Y-46070182D01*
X247599279Y-46070181D01*
X247409989Y-45987157D01*
X247405149Y-45985034D01*
X247228016Y-45940183D01*
X247199660Y-45933003D01*
X247199658Y-45933003D01*
X247194604Y-45931723D01*
X247100499Y-45923928D01*
X246996211Y-45915289D01*
X246996209Y-45915289D01*
X246978157Y-45913794D01*
X246978157Y-45917335D01*
X246968824Y-45918285D01*
X241990832Y-45918285D01*
X241978157Y-45917187D01*
X241978157Y-45913824D01*
X241962025Y-45915161D01*
X241962023Y-45915161D01*
X241814200Y-45927415D01*
X241761724Y-45931765D01*
X241756674Y-45933044D01*
X241756668Y-45933045D01*
X241619969Y-45967666D01*
X241551196Y-45985084D01*
X241352314Y-46072327D01*
X241170505Y-46191115D01*
X241166670Y-46194645D01*
X241166668Y-46194647D01*
X241148685Y-46211202D01*
X241010727Y-46338206D01*
X241007529Y-46342315D01*
X241007528Y-46342316D01*
X240880572Y-46505434D01*
X240877337Y-46509590D01*
X240773975Y-46700591D01*
X240772282Y-46705522D01*
X240772280Y-46705527D01*
X240723781Y-46846806D01*
X240703460Y-46905999D01*
X240667715Y-47120212D01*
X240667715Y-47337388D01*
X219771407Y-47337388D01*
X219771407Y-47034918D01*
X219771501Y-47032286D01*
X219772272Y-47030425D01*
X219771623Y-47028860D01*
X219771728Y-47025931D01*
X219788833Y-46786734D01*
X219791391Y-46768939D01*
X219805193Y-46705490D01*
X219841407Y-46539005D01*
X219846472Y-46521758D01*
X219928699Y-46301291D01*
X219936164Y-46284944D01*
X220048935Y-46078414D01*
X220058652Y-46063295D01*
X220199664Y-45874922D01*
X220211437Y-45861335D01*
X220377823Y-45694948D01*
X220391410Y-45683175D01*
X220579782Y-45542161D01*
X220594898Y-45532446D01*
X220801424Y-45419673D01*
X220817770Y-45412208D01*
X221038255Y-45329972D01*
X221055491Y-45324912D01*
X221285420Y-45274893D01*
X221303206Y-45272336D01*
X221524570Y-45256504D01*
X221542167Y-45255246D01*
X221545322Y-45255133D01*
X221546907Y-45255790D01*
X221548791Y-45255009D01*
X221551155Y-45254925D01*
X243057307Y-45254928D01*
X266992267Y-45254931D01*
X266994898Y-45255025D01*
X266996759Y-45255796D01*
X266998324Y-45255147D01*
X267001253Y-45255252D01*
X267008777Y-45255790D01*
X267240455Y-45272355D01*
X267258244Y-45274913D01*
X267373212Y-45299920D01*
X267488176Y-45324927D01*
X267505426Y-45329992D01*
X267725894Y-45412219D01*
X267742247Y-45419687D01*
X267948769Y-45532453D01*
X267963894Y-45542173D01*
X268152264Y-45683184D01*
X268165850Y-45694956D01*
X268332237Y-45861342D01*
X268344010Y-45874929D01*
X268485021Y-46063298D01*
X268494740Y-46078421D01*
X268607509Y-46284946D01*
X268614977Y-46301298D01*
X268697205Y-46521765D01*
X268702270Y-46539015D01*
X268752286Y-46768944D01*
X268754844Y-46786738D01*
X268763818Y-46912244D01*
X268771937Y-47025789D01*
X268772046Y-47028854D01*
X268771393Y-47030431D01*
X268772170Y-47032306D01*
X268772258Y-47034776D01*
X268772258Y-48348242D01*
X268771201Y-48359855D01*
X268768349Y-48359855D01*
X268770150Y-48387398D01*
X268780374Y-48543773D01*
X268783657Y-48593990D01*
X268829281Y-48824147D01*
X268904447Y-49046416D01*
X269007877Y-49257024D01*
X269137815Y-49452394D01*
X269292056Y-49629209D01*
X269467979Y-49784466D01*
X269662597Y-49915528D01*
X269872606Y-50020169D01*
X269873762Y-50017413D01*
X269876047Y-50017423D01*
X269876069Y-50017432D01*
X269878229Y-50017432D01*
X269882460Y-50017450D01*
X269882478Y-50017432D01*
X269886313Y-50017432D01*
X269888834Y-50017882D01*
X269891084Y-50017432D01*
X303671272Y-50017436D01*
X338036314Y-50017440D01*
X338047157Y-50018427D01*
X338047157Y-50021212D01*
X338100245Y-50017731D01*
X338278028Y-50006074D01*
X338278033Y-50006073D01*
X338282141Y-50005804D01*
X338419359Y-49978507D01*
X338509054Y-49960664D01*
X338509059Y-49960663D01*
X338513104Y-49959858D01*
X338517007Y-49958533D01*
X338517011Y-49958532D01*
X338732195Y-49885485D01*
X338732196Y-49885484D01*
X338736095Y-49884161D01*
X338947298Y-49780007D01*
X339143101Y-49649178D01*
X339320154Y-49493913D01*
X339475427Y-49316868D01*
X339566078Y-49181210D01*
X339603978Y-49124494D01*
X339603980Y-49124490D01*
X339606265Y-49121071D01*
X339637021Y-49058712D01*
X339708601Y-48913579D01*
X339708603Y-48913575D01*
X339710429Y-48909872D01*
X339786136Y-48686885D01*
X339804367Y-48595262D01*
X339831289Y-48459967D01*
X339831290Y-48459960D01*
X339832093Y-48455924D01*
X339832365Y-48451791D01*
X339846396Y-48237953D01*
X339846396Y-48237951D01*
X339847512Y-48220941D01*
X339844522Y-48220941D01*
X339844514Y-48220922D01*
X339843657Y-48213165D01*
X339843657Y-47337390D01*
X355667682Y-47337390D01*
X355703428Y-47551609D01*
X355705122Y-47556543D01*
X355772250Y-47752087D01*
X355772252Y-47752092D01*
X355773945Y-47757023D01*
X355877310Y-47948028D01*
X356010702Y-48119416D01*
X356014539Y-48122948D01*
X356148607Y-48246370D01*
X356170485Y-48266511D01*
X356352299Y-48385302D01*
X356357077Y-48387398D01*
X356546389Y-48470443D01*
X356551185Y-48472547D01*
X356556239Y-48473827D01*
X356556242Y-48473828D01*
X356569754Y-48477250D01*
X356761718Y-48525868D01*
X356978157Y-48543809D01*
X356978157Y-48540267D01*
X356987484Y-48539318D01*
X361965508Y-48539318D01*
X361978157Y-48540414D01*
X361978157Y-48543773D01*
X361994287Y-48542437D01*
X361994288Y-48542437D01*
X362045782Y-48538172D01*
X362194599Y-48525845D01*
X362199653Y-48524565D01*
X362199655Y-48524565D01*
X362303031Y-48498389D01*
X362405139Y-48472535D01*
X362604032Y-48385298D01*
X362785853Y-48266514D01*
X362789682Y-48262990D01*
X362789685Y-48262987D01*
X362941809Y-48122951D01*
X362945643Y-48119422D01*
X363079043Y-47948035D01*
X363182413Y-47757029D01*
X363200911Y-47703146D01*
X363251240Y-47556546D01*
X363251243Y-47556535D01*
X363252933Y-47551613D01*
X363253980Y-47545343D01*
X363266398Y-47470926D01*
X363288682Y-47337392D01*
X363288682Y-47120208D01*
X363266398Y-46986674D01*
X363253792Y-46911133D01*
X363253791Y-46911128D01*
X363252933Y-46905987D01*
X363251241Y-46901057D01*
X363251240Y-46901054D01*
X363185928Y-46710811D01*
X363182413Y-46700571D01*
X363079043Y-46509565D01*
X362945643Y-46338178D01*
X362807706Y-46211202D01*
X362789685Y-46194613D01*
X362789682Y-46194610D01*
X362785853Y-46191086D01*
X362604032Y-46072302D01*
X362405139Y-45985065D01*
X362293771Y-45956866D01*
X362199655Y-45933035D01*
X362199653Y-45933035D01*
X362194599Y-45931755D01*
X361978157Y-45913827D01*
X361978157Y-45917368D01*
X361968825Y-45918318D01*
X356991210Y-45918318D01*
X356978157Y-45917187D01*
X356978157Y-45913791D01*
X356962024Y-45915128D01*
X356962022Y-45915128D01*
X356807387Y-45927946D01*
X356761718Y-45931732D01*
X356662479Y-45956866D01*
X356556242Y-45983772D01*
X356556239Y-45983773D01*
X356551185Y-45985053D01*
X356546410Y-45987148D01*
X356546409Y-45987148D01*
X356357125Y-46070181D01*
X356352299Y-46072298D01*
X356170485Y-46191089D01*
X356166650Y-46194619D01*
X356166648Y-46194621D01*
X356090594Y-46264636D01*
X356010702Y-46338184D01*
X355877310Y-46509572D01*
X355773945Y-46700577D01*
X355772254Y-46705503D01*
X355772250Y-46705513D01*
X355741380Y-46795438D01*
X355703428Y-46905991D01*
X355667682Y-47120210D01*
X355667682Y-47337390D01*
X339843657Y-47337390D01*
X339843657Y-47034939D01*
X339843751Y-47032302D01*
X339844522Y-47030440D01*
X339843873Y-47028875D01*
X339843977Y-47025959D01*
X339861069Y-46786735D01*
X339863627Y-46768939D01*
X339913631Y-46539006D01*
X339918695Y-46521756D01*
X340000915Y-46301278D01*
X340008383Y-46284924D01*
X340121145Y-46078394D01*
X340130864Y-46063268D01*
X340271878Y-45874883D01*
X340283651Y-45861296D01*
X340450036Y-45694902D01*
X340463624Y-45683128D01*
X340571939Y-45602043D01*
X340651895Y-45542187D01*
X340651995Y-45542112D01*
X340667119Y-45532392D01*
X340779036Y-45471280D01*
X340873648Y-45419617D01*
X340889995Y-45412152D01*
X341110481Y-45329917D01*
X341127723Y-45324854D01*
X341357664Y-45274838D01*
X341375454Y-45272280D01*
X341613497Y-45255262D01*
X341617498Y-45255119D01*
X341619157Y-45255806D01*
X341621128Y-45254989D01*
X341622481Y-45254941D01*
X353700981Y-45254942D01*
X377193468Y-45254945D01*
X377196099Y-45255039D01*
X377197960Y-45255810D01*
X377199525Y-45255161D01*
X377202454Y-45255266D01*
X377210006Y-45255806D01*
X377441651Y-45272369D01*
X377459445Y-45274927D01*
X377535300Y-45291427D01*
X377689379Y-45324943D01*
X377706622Y-45330005D01*
X377927052Y-45412218D01*
X377927092Y-45412233D01*
X377943444Y-45419700D01*
X378149969Y-45532469D01*
X378165090Y-45542187D01*
X378353464Y-45683202D01*
X378367050Y-45694975D01*
X378533428Y-45861353D01*
X378545202Y-45874940D01*
X378686216Y-46063316D01*
X378695933Y-46078435D01*
X378808704Y-46284965D01*
X378816169Y-46301311D01*
X378898390Y-46521765D01*
X378898395Y-46521779D01*
X378903460Y-46539029D01*
X378953469Y-46768933D01*
X378953474Y-46768958D01*
X378956032Y-46786751D01*
X378964557Y-46905991D01*
X378973138Y-47026016D01*
X378973240Y-47028884D01*
X378972594Y-47030445D01*
X378973363Y-47032300D01*
X378973459Y-47035001D01*
X378973459Y-48213424D01*
X378972291Y-48226373D01*
X378969234Y-48226373D01*
X378970315Y-48242076D01*
X378985038Y-48455924D01*
X378986214Y-48473012D01*
X378987100Y-48477247D01*
X378987100Y-48477250D01*
X378997357Y-48526299D01*
X379036815Y-48715001D01*
X379080992Y-48838500D01*
X379116472Y-48937683D01*
X379120083Y-48947779D01*
X379234448Y-49166958D01*
X379236957Y-49170485D01*
X379289707Y-49244637D01*
X379377755Y-49368409D01*
X379547303Y-49548332D01*
X379739896Y-49703339D01*
X379951904Y-49830506D01*
X379955895Y-49832207D01*
X379955897Y-49832208D01*
X380146003Y-49913233D01*
X380179332Y-49927438D01*
X380417893Y-49992306D01*
X380422183Y-49992859D01*
X380422185Y-49992859D01*
X380524864Y-50006085D01*
X380663090Y-50023890D01*
X380667414Y-50023850D01*
X380667417Y-50023850D01*
X380774957Y-50022850D01*
X380910302Y-50021592D01*
X380910151Y-50019663D01*
X380925128Y-50017439D01*
X385655677Y-50017414D01*
X386503343Y-50017410D01*
X386505981Y-50017504D01*
X386507842Y-50018275D01*
X386509407Y-50017626D01*
X386512334Y-50017731D01*
X386751552Y-50034845D01*
X386769342Y-50037404D01*
X386845225Y-50053912D01*
X386999282Y-50087427D01*
X387016531Y-50092492D01*
X387237008Y-50174728D01*
X387253351Y-50182191D01*
X387432566Y-50280049D01*
X387459894Y-50294971D01*
X387475017Y-50304690D01*
X387663399Y-50445708D01*
X387676985Y-50457480D01*
X387843381Y-50623871D01*
X387855154Y-50637457D01*
X387996178Y-50825835D01*
X388005897Y-50840957D01*
X388118681Y-51047489D01*
X388126149Y-51063841D01*
X388208392Y-51284319D01*
X388213457Y-51301567D01*
X388263487Y-51531497D01*
X388266047Y-51549291D01*
X388283111Y-51787706D01*
X388283242Y-51791372D01*
X388282567Y-51793001D01*
X388283369Y-51794937D01*
X388283432Y-51796701D01*
X388283431Y-143465803D01*
X388283337Y-143468438D01*
X388282566Y-143470299D01*
X388283215Y-143471864D01*
X388283110Y-143474792D01*
X388266848Y-143702155D01*
X388266000Y-143714006D01*
X388263441Y-143731801D01*
X388213420Y-143961735D01*
X388208355Y-143978985D01*
X388126117Y-144199465D01*
X388118648Y-144215819D01*
X388005869Y-144422348D01*
X387996149Y-144437471D01*
X387855125Y-144625848D01*
X387843352Y-144639435D01*
X387676952Y-144805824D01*
X387663368Y-144817595D01*
X387474972Y-144958615D01*
X387459857Y-144968327D01*
X387253319Y-145081093D01*
X387236966Y-145088561D01*
X387016481Y-145170786D01*
X386999231Y-145175850D01*
X386867990Y-145204393D01*
X386769283Y-145225860D01*
X386751509Y-145228414D01*
X386511682Y-145245553D01*
X386509311Y-145245638D01*
X386507790Y-145245007D01*
X386505982Y-145245756D01*
X386502730Y-145245872D01*
X383157745Y-145245785D01*
X372920341Y-145245520D01*
X372909151Y-145244502D01*
X372909151Y-145241685D01*
X372893551Y-145242707D01*
X372678271Y-145256811D01*
X372678264Y-145256812D01*
X372674157Y-145257081D01*
X372625974Y-145266664D01*
X372447228Y-145302214D01*
X372447224Y-145302215D01*
X372443182Y-145303019D01*
X372439273Y-145304346D01*
X372224091Y-145377385D01*
X372224085Y-145377388D01*
X372220180Y-145378713D01*
X372008966Y-145482868D01*
X372005529Y-145485164D01*
X372005528Y-145485165D01*
X371910927Y-145548374D01*
X371813155Y-145613701D01*
X371636096Y-145768974D01*
X371480820Y-145946030D01*
X371349983Y-146141839D01*
X371245825Y-146353051D01*
X371244500Y-146356956D01*
X371244499Y-146356957D01*
X371171598Y-146571720D01*
X371170127Y-146576052D01*
X371124185Y-146807026D01*
X371123916Y-146811134D01*
X371123915Y-146811140D01*
X371117789Y-146904622D01*
X371108785Y-147042020D01*
X371111775Y-147042020D01*
X371111782Y-147042037D01*
X371112640Y-147049800D01*
X371112640Y-148225096D01*
X371112546Y-148227729D01*
X371111775Y-148229590D01*
X371112424Y-148231155D01*
X371112319Y-148234083D01*
X371096719Y-148452217D01*
X371095212Y-148473282D01*
X371092654Y-148491071D01*
X371047640Y-148697995D01*
X371042638Y-148720990D01*
X371037574Y-148738239D01*
X371031011Y-148755834D01*
X370956906Y-148954519D01*
X370955341Y-148958714D01*
X370947877Y-148975057D01*
X370856030Y-149143260D01*
X370835105Y-149181580D01*
X370825387Y-149196701D01*
X370684369Y-149385075D01*
X370672604Y-149398652D01*
X370649844Y-149421411D01*
X370506214Y-149565037D01*
X370492627Y-149576809D01*
X370304264Y-149717811D01*
X370289142Y-149727530D01*
X370082611Y-149840298D01*
X370066267Y-149847762D01*
X369845790Y-149929989D01*
X369828552Y-149935049D01*
X369598620Y-149985062D01*
X369580835Y-149987618D01*
X369349271Y-150004173D01*
X369340930Y-150004769D01*
X369338650Y-150004850D01*
X369337140Y-150004225D01*
X369335345Y-150004969D01*
X369331945Y-150005090D01*
X333623632Y-150005090D01*
X333621001Y-150004996D01*
X333619140Y-150004225D01*
X333617575Y-150004874D01*
X333614646Y-150004769D01*
X333375832Y-149987693D01*
X333375453Y-149987666D01*
X333357658Y-149985108D01*
X333127733Y-149935093D01*
X333110483Y-149930028D01*
X332890064Y-149847817D01*
X332890014Y-149847798D01*
X332873668Y-149840333D01*
X332667148Y-149727563D01*
X332652024Y-149717843D01*
X332571975Y-149657918D01*
X332463660Y-149576833D01*
X332450076Y-149565062D01*
X332283694Y-149398673D01*
X332271921Y-149385086D01*
X332271906Y-149385066D01*
X332130913Y-149196710D01*
X332121199Y-149181594D01*
X332008437Y-148975068D01*
X332000971Y-148958718D01*
X331996121Y-148945712D01*
X331918748Y-148738239D01*
X331913689Y-148721007D01*
X331863680Y-148491068D01*
X331861125Y-148473288D01*
X331843959Y-148233075D01*
X331843888Y-148231081D01*
X331844505Y-148229591D01*
X331843772Y-148227821D01*
X331843640Y-148224122D01*
X331843640Y-148147290D01*
X347667686Y-148147290D01*
X347668543Y-148152425D01*
X347668543Y-148152427D01*
X347680676Y-148225137D01*
X347703432Y-148361507D01*
X347773948Y-148566920D01*
X347776432Y-148571510D01*
X347873967Y-148751742D01*
X347877312Y-148757924D01*
X347880510Y-148762033D01*
X347880512Y-148762036D01*
X348007499Y-148925195D01*
X348007502Y-148925199D01*
X348010703Y-148929311D01*
X348047250Y-148962956D01*
X348163768Y-149070222D01*
X348170485Y-149076406D01*
X348352297Y-149195196D01*
X348357067Y-149197289D01*
X348357068Y-149197289D01*
X348546405Y-149280347D01*
X348546411Y-149280349D01*
X348551182Y-149282442D01*
X348761714Y-149335763D01*
X348978150Y-149353705D01*
X348978150Y-149350163D01*
X348987476Y-149349214D01*
X353965454Y-149349214D01*
X353978150Y-149350314D01*
X353978150Y-149353677D01*
X353994281Y-149352341D01*
X354189396Y-149336181D01*
X354189402Y-149336180D01*
X354194594Y-149335750D01*
X354405135Y-149282441D01*
X354409903Y-149280350D01*
X354409908Y-149280348D01*
X354599264Y-149197295D01*
X354599270Y-149197292D01*
X354604030Y-149195204D01*
X354609000Y-149191957D01*
X354781494Y-149079267D01*
X354781496Y-149079265D01*
X354785853Y-149076419D01*
X354789680Y-149072896D01*
X354789684Y-149072893D01*
X354909112Y-148962956D01*
X354945644Y-148929327D01*
X354948842Y-148925218D01*
X354948846Y-148925214D01*
X355075846Y-148762050D01*
X355075846Y-148762049D01*
X355079045Y-148757940D01*
X355182416Y-148566932D01*
X355252937Y-148361515D01*
X355288685Y-148147293D01*
X355288685Y-147930107D01*
X355252937Y-147715885D01*
X355182416Y-147510468D01*
X355079045Y-147319460D01*
X355071033Y-147309166D01*
X354948846Y-147152186D01*
X354948842Y-147152182D01*
X354945644Y-147148073D01*
X354838007Y-147048990D01*
X354789684Y-147004507D01*
X354789680Y-147004504D01*
X354785853Y-147000981D01*
X354781029Y-146997829D01*
X354608385Y-146885041D01*
X354608384Y-146885040D01*
X354604030Y-146882196D01*
X354599270Y-146880108D01*
X354599264Y-146880105D01*
X354409908Y-146797052D01*
X354409903Y-146797050D01*
X354405135Y-146794959D01*
X354388935Y-146790857D01*
X354362038Y-146784047D01*
X354194594Y-146741650D01*
X354189402Y-146741220D01*
X354189396Y-146741219D01*
X353996205Y-146725218D01*
X353996204Y-146725218D01*
X353978150Y-146723723D01*
X353978150Y-146727264D01*
X353968817Y-146728214D01*
X348991157Y-146728214D01*
X348978150Y-146727087D01*
X348978150Y-146723695D01*
X348761714Y-146741637D01*
X348551182Y-146794958D01*
X348546411Y-146797051D01*
X348546405Y-146797053D01*
X348359699Y-146878957D01*
X348352297Y-146882204D01*
X348170485Y-147000994D01*
X348166650Y-147004524D01*
X348166648Y-147004526D01*
X348124532Y-147043298D01*
X348010703Y-147148089D01*
X348007502Y-147152201D01*
X348007499Y-147152205D01*
X347882984Y-147312188D01*
X347877312Y-147319476D01*
X347874833Y-147324057D01*
X347874831Y-147324060D01*
X347873121Y-147327220D01*
X347773948Y-147510480D01*
X347703432Y-147715893D01*
X347702576Y-147721024D01*
X347669077Y-147921777D01*
X347667686Y-147930110D01*
X347667686Y-148147290D01*
X331843640Y-148147290D01*
X331843640Y-147052759D01*
X331844657Y-147041582D01*
X331847473Y-147041582D01*
X331838088Y-146898412D01*
X331832339Y-146810705D01*
X331832338Y-146810699D01*
X331832069Y-146806592D01*
X331786125Y-146575623D01*
X331710427Y-146352626D01*
X331606271Y-146141418D01*
X331475439Y-145945611D01*
X331320168Y-145768556D01*
X331143115Y-145613282D01*
X331045347Y-145547953D01*
X330950742Y-145484737D01*
X330950735Y-145484733D01*
X330947311Y-145482445D01*
X330848486Y-145433708D01*
X330739803Y-145380109D01*
X330739800Y-145380108D01*
X330736104Y-145378285D01*
X330513109Y-145302584D01*
X330347729Y-145269683D01*
X330286183Y-145257439D01*
X330286181Y-145257439D01*
X330282141Y-145256635D01*
X330278037Y-145256366D01*
X330278030Y-145256365D01*
X330166927Y-145249081D01*
X330047151Y-145241227D01*
X330047151Y-145244217D01*
X330047133Y-145244225D01*
X330039372Y-145245082D01*
X307635353Y-145244943D01*
X269889827Y-145244710D01*
X269878151Y-145243648D01*
X269878151Y-145240785D01*
X269853887Y-145242376D01*
X269647266Y-145255924D01*
X269647261Y-145255925D01*
X269643153Y-145256194D01*
X269556390Y-145273454D01*
X269416226Y-145301338D01*
X269416219Y-145301340D01*
X269412177Y-145302144D01*
X269189174Y-145377849D01*
X269094453Y-145424563D01*
X268981663Y-145480187D01*
X268981660Y-145480189D01*
X268977961Y-145482013D01*
X268974532Y-145484304D01*
X268974529Y-145484306D01*
X268785580Y-145610563D01*
X268785573Y-145610568D01*
X268782151Y-145612855D01*
X268605093Y-145768135D01*
X268449819Y-145945198D01*
X268318983Y-146141013D01*
X268317162Y-146144706D01*
X268317159Y-146144711D01*
X268238597Y-146304024D01*
X268214826Y-146352229D01*
X268139128Y-146575234D01*
X268138324Y-146579276D01*
X268138323Y-146579280D01*
X268122608Y-146658290D01*
X268093186Y-146806212D01*
X268092916Y-146810324D01*
X268092916Y-146810328D01*
X268081015Y-146991928D01*
X268077785Y-147041210D01*
X268080775Y-147041210D01*
X268080782Y-147041227D01*
X268081640Y-147048990D01*
X268081640Y-148449807D01*
X268081546Y-148452443D01*
X268080775Y-148454304D01*
X268081424Y-148455869D01*
X268081319Y-148458796D01*
X268080282Y-148473289D01*
X268064384Y-148695568D01*
X268064210Y-148697994D01*
X268061652Y-148715784D01*
X268017169Y-148920264D01*
X268011634Y-148945706D01*
X268006570Y-148962954D01*
X268004996Y-148967173D01*
X267924339Y-149183416D01*
X267916871Y-149199768D01*
X267804101Y-149406286D01*
X267794383Y-149421409D01*
X267682065Y-149571443D01*
X267653369Y-149609775D01*
X267641597Y-149623359D01*
X267475208Y-149789743D01*
X267461626Y-149801511D01*
X267273255Y-149942516D01*
X267258132Y-149952235D01*
X267051615Y-150064995D01*
X267035262Y-150072463D01*
X266914309Y-150117573D01*
X266814787Y-150154690D01*
X266797548Y-150159751D01*
X266567614Y-150209763D01*
X266549837Y-150212318D01*
X266320080Y-150228743D01*
X266309733Y-150229483D01*
X266307634Y-150229558D01*
X266306140Y-150228939D01*
X266304364Y-150229675D01*
X266300748Y-150229804D01*
X222654655Y-150229804D01*
X222652018Y-150229710D01*
X222650157Y-150228939D01*
X222648592Y-150229588D01*
X222645664Y-150229483D01*
X222638060Y-150228939D01*
X222406460Y-150212370D01*
X222388671Y-150209811D01*
X222158743Y-150159790D01*
X222141505Y-150154729D01*
X221921016Y-150072489D01*
X221904685Y-150065031D01*
X221698154Y-149952257D01*
X221683030Y-149942538D01*
X221494659Y-149801527D01*
X221481073Y-149789755D01*
X221397857Y-149706543D01*
X221314679Y-149623368D01*
X221302909Y-149609784D01*
X221278250Y-149576845D01*
X221161896Y-149421422D01*
X221152178Y-149406303D01*
X221148012Y-149398673D01*
X221039398Y-149199777D01*
X221031930Y-149183425D01*
X220949691Y-148962960D01*
X220944626Y-148945712D01*
X220894598Y-148715788D01*
X220892039Y-148697995D01*
X220874979Y-148459660D01*
X220874846Y-148455935D01*
X220875522Y-148454303D01*
X220874718Y-148452362D01*
X220874657Y-148450664D01*
X220874657Y-148144086D01*
X240667731Y-148144086D01*
X240668588Y-148149221D01*
X240668588Y-148149223D01*
X240681651Y-148227503D01*
X240703476Y-148358296D01*
X240773989Y-148563701D01*
X240776473Y-148568291D01*
X240873271Y-148747162D01*
X240877350Y-148754700D01*
X240880548Y-148758809D01*
X240880550Y-148758812D01*
X241006210Y-148920264D01*
X241010737Y-148926081D01*
X241170512Y-149073171D01*
X241174875Y-149076022D01*
X241174878Y-149076024D01*
X241175463Y-149076406D01*
X241352318Y-149191957D01*
X241357088Y-149194049D01*
X241357089Y-149194050D01*
X241546419Y-149277104D01*
X241546425Y-149277106D01*
X241551196Y-149279199D01*
X241761721Y-149332518D01*
X241978150Y-149350460D01*
X241978150Y-149346918D01*
X241987476Y-149345969D01*
X246964939Y-149345969D01*
X246978150Y-149347114D01*
X246978150Y-149350522D01*
X246994281Y-149349186D01*
X247189404Y-149333025D01*
X247189410Y-149333024D01*
X247194602Y-149332594D01*
X247199660Y-149331313D01*
X247199662Y-149331313D01*
X247400092Y-149280564D01*
X247400095Y-149280563D01*
X247405150Y-149279283D01*
X247604051Y-149192043D01*
X247785881Y-149073255D01*
X247804311Y-149056290D01*
X247941840Y-148929689D01*
X247945677Y-148926157D01*
X247961472Y-148905865D01*
X248075880Y-148758878D01*
X248075881Y-148758877D01*
X248079082Y-148754764D01*
X248081598Y-148750116D01*
X248178257Y-148571510D01*
X248182457Y-148563750D01*
X248252981Y-148358326D01*
X248288730Y-148144096D01*
X248288730Y-147926904D01*
X248252981Y-147712674D01*
X248182457Y-147507250D01*
X248086662Y-147330242D01*
X248081561Y-147320816D01*
X248081559Y-147320813D01*
X248079082Y-147316236D01*
X248039733Y-147265682D01*
X247948884Y-147148963D01*
X247948883Y-147148962D01*
X247945677Y-147144843D01*
X247831163Y-147039429D01*
X247789718Y-147001277D01*
X247789717Y-147001276D01*
X247785881Y-146997745D01*
X247604051Y-146878957D01*
X247405150Y-146791717D01*
X247400095Y-146790437D01*
X247400092Y-146790436D01*
X247199662Y-146739687D01*
X247199660Y-146739687D01*
X247194602Y-146738406D01*
X247189410Y-146737976D01*
X247189404Y-146737975D01*
X247094290Y-146730097D01*
X246978150Y-146720478D01*
X246978150Y-146724019D01*
X246968818Y-146724969D01*
X241990641Y-146724969D01*
X241978150Y-146723887D01*
X241978150Y-146720540D01*
X241761721Y-146738482D01*
X241756659Y-146739764D01*
X241743843Y-146743010D01*
X241551196Y-146791801D01*
X241546425Y-146793894D01*
X241546419Y-146793896D01*
X241364037Y-146873902D01*
X241352318Y-146879043D01*
X241265951Y-146935472D01*
X241174878Y-146994976D01*
X241174875Y-146994978D01*
X241170512Y-146997829D01*
X241166679Y-147001358D01*
X241166676Y-147001360D01*
X241114059Y-147049800D01*
X241010737Y-147144919D01*
X241007536Y-147149032D01*
X241007533Y-147149035D01*
X240880550Y-147312188D01*
X240877350Y-147316300D01*
X240874871Y-147320881D01*
X240874869Y-147320884D01*
X240868086Y-147333418D01*
X240773989Y-147507299D01*
X240703476Y-147712704D01*
X240667731Y-147926914D01*
X240667731Y-148144086D01*
X220874657Y-148144086D01*
X220874657Y-147276780D01*
X220875667Y-147265682D01*
X220878474Y-147265682D01*
X220864334Y-147049800D01*
X220863352Y-147034806D01*
X220863352Y-147034803D01*
X220863082Y-147030687D01*
X220861953Y-147025007D01*
X220820368Y-146815910D01*
X220817147Y-146799713D01*
X220815534Y-146794959D01*
X220742784Y-146580626D01*
X220741455Y-146576710D01*
X220637302Y-146365496D01*
X220625972Y-146348538D01*
X220508759Y-146173110D01*
X220506470Y-146169684D01*
X220485300Y-146145543D01*
X220353912Y-145995721D01*
X220351197Y-145992625D01*
X220174142Y-145837350D01*
X219978332Y-145706514D01*
X219796530Y-145616860D01*
X219770820Y-145604181D01*
X219770812Y-145604178D01*
X219767120Y-145602357D01*
X219763219Y-145601033D01*
X219763217Y-145601032D01*
X219548029Y-145527989D01*
X219548026Y-145527988D01*
X219544119Y-145526662D01*
X219540071Y-145525857D01*
X219540064Y-145525855D01*
X219349091Y-145487872D01*
X219313145Y-145480723D01*
X219309032Y-145480453D01*
X219309028Y-145480453D01*
X219095161Y-145466440D01*
X219095158Y-145466440D01*
X219078151Y-145465326D01*
X219078151Y-145468316D01*
X219078136Y-145468322D01*
X219070370Y-145469181D01*
X181849216Y-145469183D01*
X167487811Y-145469184D01*
X167487273Y-145468757D01*
X167483554Y-145469184D01*
X167482063Y-145469184D01*
X167481492Y-145469421D01*
X167478632Y-145469749D01*
X167477091Y-145466976D01*
X167276138Y-145596791D01*
X167094168Y-145752102D01*
X167091372Y-145755218D01*
X167091370Y-145755220D01*
X166937193Y-145927045D01*
X166937189Y-145927050D01*
X166934394Y-145930165D01*
X166932037Y-145933622D01*
X166932035Y-145933625D01*
X166816595Y-146102964D01*
X166799637Y-146127839D01*
X166797762Y-146131574D01*
X166797759Y-146131578D01*
X166694154Y-146337890D01*
X166694151Y-146337898D01*
X166692275Y-146341633D01*
X166690908Y-146345593D01*
X166690907Y-146345595D01*
X166623318Y-146541374D01*
X166614204Y-146567773D01*
X166613375Y-146571875D01*
X166613374Y-146571878D01*
X166612696Y-146575234D01*
X166566802Y-146802266D01*
X166566524Y-146806434D01*
X166566524Y-146806437D01*
X166565899Y-146815827D01*
X166550905Y-147040975D01*
X166553998Y-147040975D01*
X166554926Y-147049411D01*
X166554926Y-148225103D01*
X166554832Y-148227738D01*
X166554061Y-148229599D01*
X166554710Y-148231164D01*
X166554605Y-148234092D01*
X166537497Y-148473289D01*
X166534939Y-148491083D01*
X166484921Y-148721014D01*
X166479856Y-148738263D01*
X166397627Y-148958729D01*
X166390159Y-148975082D01*
X166277391Y-149181605D01*
X166267672Y-149196728D01*
X166126662Y-149385098D01*
X166114889Y-149398685D01*
X165948503Y-149565073D01*
X165934918Y-149576845D01*
X165746550Y-149717858D01*
X165731430Y-149727575D01*
X165524904Y-149840349D01*
X165508552Y-149847817D01*
X165288086Y-149930050D01*
X165270838Y-149935115D01*
X165040911Y-149985135D01*
X165023125Y-149987693D01*
X164807469Y-150003120D01*
X164784295Y-150004778D01*
X164781021Y-150004895D01*
X164779426Y-150004234D01*
X164777530Y-150005020D01*
X164775304Y-150005099D01*
X128198600Y-150005099D01*
X128195965Y-150005005D01*
X128194104Y-150004234D01*
X128192539Y-150004883D01*
X128189611Y-150004778D01*
X127950415Y-149987670D01*
X127932621Y-149985112D01*
X127702691Y-149935095D01*
X127685442Y-149930030D01*
X127464972Y-149847799D01*
X127448623Y-149840333D01*
X127242089Y-149727557D01*
X127226991Y-149717853D01*
X127038612Y-149576835D01*
X127025026Y-149565063D01*
X126858640Y-149398678D01*
X126846867Y-149385091D01*
X126805619Y-149329990D01*
X126705854Y-149196719D01*
X126696137Y-149181599D01*
X126696135Y-149181594D01*
X126583367Y-148975078D01*
X126575900Y-148958727D01*
X126574329Y-148954513D01*
X126502544Y-148762050D01*
X126493671Y-148738261D01*
X126488606Y-148721012D01*
X126438588Y-148491082D01*
X126436030Y-148473288D01*
X126418925Y-148234126D01*
X126418819Y-148231168D01*
X126419469Y-148229599D01*
X126418697Y-148227735D01*
X126418604Y-148225137D01*
X126418604Y-148141089D01*
X142242690Y-148141089D01*
X142243547Y-148146224D01*
X142243547Y-148146226D01*
X142257731Y-148231228D01*
X142278436Y-148355306D01*
X142348952Y-148560718D01*
X142351436Y-148565308D01*
X142448135Y-148743997D01*
X142452315Y-148751722D01*
X142455513Y-148755831D01*
X142455515Y-148755834D01*
X142582502Y-148918993D01*
X142582505Y-148918997D01*
X142585706Y-148923109D01*
X142624396Y-148958727D01*
X142723657Y-149050106D01*
X142745487Y-149070203D01*
X142749854Y-149073056D01*
X142749855Y-149073057D01*
X142750158Y-149073255D01*
X142927299Y-149188993D01*
X142932069Y-149191086D01*
X142932070Y-149191086D01*
X143121406Y-149274143D01*
X143121412Y-149274145D01*
X143126183Y-149276238D01*
X143336714Y-149329559D01*
X143553150Y-149347501D01*
X143553150Y-149343959D01*
X143562476Y-149343010D01*
X148540408Y-149343010D01*
X148553150Y-149344114D01*
X148553150Y-149347481D01*
X148569281Y-149346145D01*
X148607131Y-149343010D01*
X148769595Y-149329554D01*
X148980137Y-149276244D01*
X148984927Y-149274143D01*
X149174266Y-149191098D01*
X149174272Y-149191095D01*
X149179032Y-149189007D01*
X149183418Y-149186142D01*
X149269722Y-149129759D01*
X149360855Y-149070222D01*
X149382708Y-149050106D01*
X149516807Y-148926665D01*
X149516808Y-148926664D01*
X149520647Y-148923130D01*
X149524200Y-148918566D01*
X149650846Y-148755856D01*
X149650847Y-148755855D01*
X149654048Y-148751742D01*
X149658240Y-148743997D01*
X149753329Y-148568291D01*
X149757419Y-148560734D01*
X149827941Y-148355316D01*
X149863689Y-148141093D01*
X149863689Y-147923907D01*
X149827941Y-147709684D01*
X149757419Y-147504266D01*
X149694662Y-147388305D01*
X149656527Y-147317838D01*
X149656525Y-147317835D01*
X149654048Y-147313258D01*
X149617017Y-147265682D01*
X149523854Y-147145990D01*
X149523853Y-147145989D01*
X149520647Y-147141870D01*
X149421708Y-147050794D01*
X149364692Y-146998310D01*
X149360855Y-146994778D01*
X149187933Y-146881808D01*
X149183387Y-146878838D01*
X149183386Y-146878837D01*
X149179032Y-146875993D01*
X149174272Y-146873905D01*
X149174266Y-146873902D01*
X148984916Y-146790852D01*
X148984915Y-146790852D01*
X148980137Y-146788756D01*
X148769595Y-146735446D01*
X148682278Y-146728214D01*
X148571205Y-146719014D01*
X148571204Y-146719014D01*
X148553150Y-146717519D01*
X148553150Y-146721060D01*
X148543817Y-146722010D01*
X143566112Y-146722010D01*
X143553150Y-146720887D01*
X143553150Y-146717499D01*
X143537018Y-146718836D01*
X143537016Y-146718836D01*
X143406709Y-146729639D01*
X143336714Y-146735441D01*
X143126183Y-146788762D01*
X143121412Y-146790855D01*
X143121406Y-146790857D01*
X142932070Y-146873914D01*
X142927299Y-146876007D01*
X142745487Y-146994797D01*
X142741652Y-146998327D01*
X142741650Y-146998329D01*
X142694191Y-147042020D01*
X142585706Y-147141891D01*
X142582505Y-147146003D01*
X142582502Y-147146007D01*
X142455515Y-147309166D01*
X142452315Y-147313278D01*
X142449836Y-147317859D01*
X142449834Y-147317862D01*
X142446480Y-147324060D01*
X142348952Y-147504282D01*
X142278436Y-147709694D01*
X142242690Y-147923911D01*
X142242690Y-148141089D01*
X126418604Y-148141089D01*
X126418604Y-147050794D01*
X126419610Y-147039740D01*
X126422414Y-147039740D01*
X126421347Y-147023457D01*
X126407287Y-146808868D01*
X126407286Y-146808862D01*
X126407017Y-146804753D01*
X126405486Y-146797053D01*
X126361886Y-146577831D01*
X126361885Y-146577826D01*
X126361081Y-146573785D01*
X126290382Y-146365496D01*
X126286715Y-146354691D01*
X126286712Y-146354684D01*
X126285390Y-146350789D01*
X126181240Y-146139581D01*
X126050412Y-145943774D01*
X125895147Y-145766718D01*
X125878482Y-145752102D01*
X125721202Y-145614164D01*
X125721198Y-145614161D01*
X125718099Y-145611443D01*
X125714666Y-145609149D01*
X125714662Y-145609146D01*
X125563663Y-145508247D01*
X125522298Y-145480606D01*
X125518588Y-145478776D01*
X125518584Y-145478774D01*
X125314804Y-145378274D01*
X125314801Y-145378273D01*
X125311095Y-145376445D01*
X125307185Y-145375117D01*
X125307181Y-145375116D01*
X125092018Y-145302072D01*
X125092017Y-145302072D01*
X125088103Y-145300743D01*
X124920424Y-145267385D01*
X124861181Y-145255599D01*
X124861176Y-145255598D01*
X124857138Y-145254795D01*
X124853033Y-145254526D01*
X124853027Y-145254525D01*
X124721062Y-145245872D01*
X124622151Y-145239386D01*
X124622151Y-145242376D01*
X124622133Y-145242383D01*
X124614372Y-145243241D01*
X110241527Y-145242789D01*
X104187412Y-145242599D01*
X104184788Y-145242505D01*
X104182928Y-145241735D01*
X104181364Y-145242383D01*
X104178423Y-145242278D01*
X103939242Y-145225163D01*
X103921449Y-145222604D01*
X103691533Y-145172583D01*
X103674286Y-145167518D01*
X103453828Y-145085290D01*
X103437482Y-145077826D01*
X103230954Y-144965053D01*
X103215833Y-144955335D01*
X103140151Y-144898682D01*
X103027469Y-144814332D01*
X103013893Y-144802569D01*
X102847499Y-144636184D01*
X102835729Y-144622601D01*
X102694711Y-144434239D01*
X102685002Y-144419133D01*
X102572216Y-144212607D01*
X102564752Y-144196265D01*
X102482509Y-143975808D01*
X102477443Y-143958560D01*
X102427409Y-143728640D01*
X102424850Y-143710848D01*
X102407717Y-143471589D01*
X102407615Y-143468725D01*
X102408259Y-143467168D01*
X102407493Y-143465319D01*
X102407395Y-143462589D01*
X102407395Y-142756411D01*
X104883138Y-142756411D01*
X104884003Y-142758499D01*
X104886467Y-142764447D01*
X104894503Y-142767776D01*
X104896591Y-142766911D01*
X118941554Y-142766911D01*
X118943642Y-142767776D01*
X118945730Y-142766911D01*
X118951678Y-142764447D01*
X118955007Y-142756411D01*
X123933041Y-142756411D01*
X123933906Y-142758499D01*
X123936370Y-142764447D01*
X123944406Y-142767776D01*
X123946494Y-142766911D01*
X137991929Y-142766911D01*
X137994017Y-142767776D01*
X137996105Y-142766911D01*
X138002053Y-142764447D01*
X138005382Y-142756411D01*
X142983416Y-142756411D01*
X142984281Y-142758499D01*
X142986745Y-142764447D01*
X142994781Y-142767776D01*
X142996869Y-142766911D01*
X157042068Y-142766911D01*
X157044156Y-142767776D01*
X157046244Y-142766911D01*
X157052192Y-142764447D01*
X157055521Y-142756411D01*
X162033555Y-142756411D01*
X162034420Y-142758499D01*
X162036884Y-142764447D01*
X162044920Y-142767776D01*
X162047008Y-142766911D01*
X176092207Y-142766911D01*
X176094295Y-142767776D01*
X176096383Y-142766911D01*
X176102331Y-142764447D01*
X176105660Y-142756411D01*
X181083694Y-142756411D01*
X181084559Y-142758499D01*
X181087023Y-142764447D01*
X181095059Y-142767776D01*
X181097147Y-142766911D01*
X195142346Y-142766911D01*
X195144434Y-142767776D01*
X195146522Y-142766911D01*
X195152470Y-142764447D01*
X195155799Y-142756411D01*
X200133833Y-142756411D01*
X200134698Y-142758499D01*
X200137162Y-142764447D01*
X200145198Y-142767776D01*
X200147286Y-142766911D01*
X214192485Y-142766911D01*
X214194573Y-142767776D01*
X214196661Y-142766911D01*
X214202609Y-142764447D01*
X214205938Y-142756411D01*
X216682566Y-142756411D01*
X216683431Y-142758499D01*
X216685895Y-142764447D01*
X216693931Y-142767776D01*
X216696019Y-142766911D01*
X273994813Y-142766911D01*
X273996901Y-142767776D01*
X273998989Y-142766911D01*
X274004937Y-142764447D01*
X274008266Y-142756411D01*
X276483138Y-142756411D01*
X276484003Y-142758499D01*
X276486467Y-142764447D01*
X276494503Y-142767776D01*
X276496591Y-142766911D01*
X290541554Y-142766911D01*
X290543642Y-142767776D01*
X290545730Y-142766911D01*
X290551678Y-142764447D01*
X290555007Y-142756411D01*
X295533041Y-142756411D01*
X295533906Y-142758499D01*
X295536370Y-142764447D01*
X295544406Y-142767776D01*
X295546494Y-142766911D01*
X309591929Y-142766911D01*
X309594017Y-142767776D01*
X309596105Y-142766911D01*
X309602053Y-142764447D01*
X309605382Y-142756411D01*
X314583416Y-142756411D01*
X314584281Y-142758499D01*
X314586745Y-142764447D01*
X314594781Y-142767776D01*
X314596869Y-142766911D01*
X328642068Y-142766911D01*
X328644156Y-142767776D01*
X328646244Y-142766911D01*
X328652192Y-142764447D01*
X328655521Y-142756411D01*
X333633555Y-142756411D01*
X333634420Y-142758499D01*
X333636884Y-142764447D01*
X333644920Y-142767776D01*
X333647008Y-142766911D01*
X347692207Y-142766911D01*
X347694295Y-142767776D01*
X347696383Y-142766911D01*
X347702331Y-142764447D01*
X347705660Y-142756411D01*
X352683694Y-142756411D01*
X352684559Y-142758499D01*
X352687023Y-142764447D01*
X352695059Y-142767776D01*
X352697147Y-142766911D01*
X366742346Y-142766911D01*
X366744434Y-142767776D01*
X366746522Y-142766911D01*
X366752470Y-142764447D01*
X366755799Y-142756411D01*
X371733833Y-142756411D01*
X371734698Y-142758499D01*
X371737162Y-142764447D01*
X371745198Y-142767776D01*
X371747286Y-142766911D01*
X385792485Y-142766911D01*
X385794573Y-142767776D01*
X385796661Y-142766911D01*
X385802609Y-142764447D01*
X385805938Y-142756411D01*
X385805073Y-142754323D01*
X385805073Y-128708185D01*
X385805938Y-128706097D01*
X385802609Y-128698061D01*
X385796661Y-128695597D01*
X385794573Y-128694732D01*
X385792485Y-128695597D01*
X385772747Y-128695597D01*
X374723001Y-128695739D01*
X371747286Y-128695777D01*
X371745198Y-128694912D01*
X371742251Y-128696133D01*
X371737162Y-128698241D01*
X371733833Y-128706277D01*
X371734698Y-128708365D01*
X371734698Y-142754323D01*
X371733833Y-142756411D01*
X366755799Y-142756411D01*
X366754934Y-142754323D01*
X366754934Y-128708429D01*
X366755799Y-128706341D01*
X366752470Y-128698305D01*
X366746522Y-128695841D01*
X366744434Y-128694976D01*
X366742346Y-128695841D01*
X366722608Y-128695841D01*
X355672863Y-128695983D01*
X352697147Y-128696021D01*
X352695059Y-128695156D01*
X352692701Y-128696133D01*
X352687023Y-128698485D01*
X352683694Y-128706521D01*
X352684559Y-128708609D01*
X352684559Y-142754323D01*
X352683694Y-142756411D01*
X347705660Y-142756411D01*
X347704795Y-142754323D01*
X347704795Y-128708673D01*
X347705660Y-128706585D01*
X347702331Y-128698549D01*
X347701742Y-128698305D01*
X347694295Y-128695220D01*
X347692207Y-128696085D01*
X347672468Y-128696085D01*
X336622605Y-128696228D01*
X333647008Y-128696266D01*
X333644920Y-128695401D01*
X333641982Y-128696618D01*
X333636884Y-128698730D01*
X333633555Y-128706766D01*
X333634420Y-128708854D01*
X333634420Y-142754323D01*
X333633555Y-142756411D01*
X328655521Y-142756411D01*
X328654656Y-142754323D01*
X328654656Y-128708918D01*
X328655521Y-128706830D01*
X328652192Y-128698794D01*
X328646244Y-128696330D01*
X328644156Y-128695465D01*
X328642068Y-128696330D01*
X328622330Y-128696330D01*
X317572585Y-128696472D01*
X314596869Y-128696510D01*
X314594781Y-128695645D01*
X314592432Y-128696618D01*
X314586745Y-128698974D01*
X314583416Y-128707010D01*
X314584281Y-128709098D01*
X314584281Y-142754323D01*
X314583416Y-142756411D01*
X309605382Y-142756411D01*
X309604517Y-142754323D01*
X309604517Y-128709162D01*
X309605382Y-128707074D01*
X309602053Y-128699038D01*
X309601464Y-128698794D01*
X309594017Y-128695709D01*
X309591929Y-128696574D01*
X309572191Y-128696574D01*
X298525792Y-128696609D01*
X295546494Y-128696618D01*
X295544406Y-128695753D01*
X295542318Y-128696618D01*
X295536370Y-128699082D01*
X295533041Y-128707118D01*
X295533906Y-128709206D01*
X295533906Y-142754323D01*
X295533041Y-142756411D01*
X290555007Y-142756411D01*
X290554142Y-142754323D01*
X290554142Y-128709206D01*
X290555007Y-128707118D01*
X290551678Y-128699082D01*
X290545730Y-128696618D01*
X290543642Y-128695753D01*
X290541554Y-128696618D01*
X276496591Y-128696998D01*
X276494503Y-128696133D01*
X276492415Y-128696998D01*
X276486467Y-128699462D01*
X276483138Y-128707498D01*
X276484003Y-128709586D01*
X276484003Y-142754323D01*
X276483138Y-142756411D01*
X274008266Y-142756411D01*
X274007401Y-142754323D01*
X274007401Y-123706693D01*
X276483138Y-123706693D01*
X276484003Y-123708781D01*
X276486467Y-123714729D01*
X276494503Y-123718058D01*
X276496591Y-123717193D01*
X290541554Y-123717193D01*
X290543642Y-123718058D01*
X290545730Y-123717193D01*
X290551678Y-123714729D01*
X290555007Y-123706693D01*
X295533041Y-123706693D01*
X295533906Y-123708781D01*
X295536370Y-123714729D01*
X295544406Y-123718058D01*
X295546494Y-123717193D01*
X295566232Y-123717193D01*
X306615094Y-123717147D01*
X309591693Y-123717134D01*
X309593781Y-123717999D01*
X309601817Y-123714670D01*
X309604281Y-123708722D01*
X309605122Y-123706693D01*
X314583416Y-123706693D01*
X314584281Y-123708781D01*
X314586745Y-123714729D01*
X314594781Y-123718058D01*
X314596869Y-123717193D01*
X314616607Y-123717193D01*
X325665283Y-123717100D01*
X328641832Y-123717075D01*
X328643920Y-123717940D01*
X328651956Y-123714611D01*
X328654420Y-123708663D01*
X328655236Y-123706693D01*
X333633555Y-123706693D01*
X333634420Y-123708781D01*
X333636884Y-123714729D01*
X333644920Y-123718058D01*
X333647008Y-123717193D01*
X333666747Y-123717193D01*
X344716424Y-123717053D01*
X347691971Y-123717016D01*
X347694059Y-123717881D01*
X347702095Y-123714552D01*
X347704559Y-123708604D01*
X347705351Y-123706693D01*
X352683694Y-123706693D01*
X352684559Y-123708781D01*
X352687023Y-123714729D01*
X352695059Y-123718058D01*
X352697147Y-123717193D01*
X352716885Y-123717193D01*
X363766444Y-123717007D01*
X366742110Y-123716957D01*
X366744198Y-123717822D01*
X366752234Y-123714493D01*
X366754698Y-123708545D01*
X366755465Y-123706693D01*
X371733833Y-123706693D01*
X371734698Y-123708781D01*
X371737162Y-123714729D01*
X371745198Y-123718058D01*
X371747286Y-123717193D01*
X371767025Y-123717193D01*
X382816702Y-123716960D01*
X385792249Y-123716898D01*
X385794337Y-123717763D01*
X385802373Y-123714434D01*
X385804837Y-123708486D01*
X385805702Y-123706398D01*
X385804837Y-123704310D01*
X385805073Y-109659406D01*
X385805938Y-109657318D01*
X385802609Y-109649282D01*
X385796661Y-109646818D01*
X385794573Y-109645953D01*
X385792485Y-109646818D01*
X371747286Y-109646818D01*
X371745198Y-109645953D01*
X371743110Y-109646818D01*
X371737162Y-109649282D01*
X371733833Y-109657318D01*
X371734698Y-109659406D01*
X371734698Y-123704605D01*
X371733833Y-123706693D01*
X366755465Y-123706693D01*
X366755563Y-123706457D01*
X366754698Y-123704369D01*
X366754934Y-109659406D01*
X366755799Y-109657318D01*
X366752470Y-109649282D01*
X366746522Y-109646818D01*
X366744434Y-109645953D01*
X366742346Y-109646818D01*
X352697147Y-109646818D01*
X352695059Y-109645953D01*
X352692971Y-109646818D01*
X352687023Y-109649282D01*
X352683694Y-109657318D01*
X352684559Y-109659406D01*
X352684559Y-123704605D01*
X352683694Y-123706693D01*
X347705351Y-123706693D01*
X347705424Y-123706516D01*
X347704559Y-123704428D01*
X347704795Y-109659406D01*
X347705660Y-109657318D01*
X347702331Y-109649282D01*
X347696383Y-109646818D01*
X347694295Y-109645953D01*
X347692207Y-109646818D01*
X333647008Y-109646818D01*
X333644920Y-109645953D01*
X333642832Y-109646818D01*
X333636884Y-109649282D01*
X333633555Y-109657318D01*
X333634420Y-109659406D01*
X333634420Y-123704605D01*
X333633555Y-123706693D01*
X328655236Y-123706693D01*
X328655285Y-123706575D01*
X328654420Y-123704487D01*
X328654656Y-109659406D01*
X328655521Y-109657318D01*
X328652192Y-109649282D01*
X328646244Y-109646818D01*
X328644156Y-109645953D01*
X328642068Y-109646818D01*
X314596869Y-109646818D01*
X314594781Y-109645953D01*
X314592693Y-109646818D01*
X314586745Y-109649282D01*
X314583416Y-109657318D01*
X314584281Y-109659406D01*
X314584281Y-123704605D01*
X314583416Y-123706693D01*
X309605122Y-123706693D01*
X309605146Y-123706634D01*
X309604281Y-123704546D01*
X309604517Y-109659406D01*
X309605382Y-109657318D01*
X309602053Y-109649282D01*
X309596105Y-109646818D01*
X309594017Y-109645953D01*
X309591929Y-109646818D01*
X295546494Y-109646818D01*
X295544406Y-109645953D01*
X295542318Y-109646818D01*
X295536370Y-109649282D01*
X295533041Y-109657318D01*
X295533906Y-109659406D01*
X295533906Y-123704605D01*
X295533041Y-123706693D01*
X290555007Y-123706693D01*
X290554142Y-123704605D01*
X290554142Y-109659406D01*
X290555007Y-109657318D01*
X290551678Y-109649282D01*
X290545730Y-109646818D01*
X290543642Y-109645953D01*
X290541554Y-109646818D01*
X276496591Y-109646818D01*
X276494503Y-109645953D01*
X276492415Y-109646818D01*
X276486467Y-109649282D01*
X276483138Y-109657318D01*
X276484003Y-109659406D01*
X276484003Y-123704605D01*
X276483138Y-123706693D01*
X274007401Y-123706693D01*
X274007401Y-104656613D01*
X276483138Y-104656613D01*
X276484003Y-104658701D01*
X276486467Y-104664649D01*
X276494503Y-104667978D01*
X276496591Y-104667113D01*
X290541554Y-104667113D01*
X290543642Y-104667978D01*
X290545730Y-104667113D01*
X290551678Y-104664649D01*
X290555007Y-104656613D01*
X295533041Y-104656613D01*
X295533906Y-104658701D01*
X295536370Y-104664649D01*
X295544406Y-104667978D01*
X295546494Y-104667113D01*
X295566232Y-104667113D01*
X306615093Y-104667067D01*
X309591693Y-104667054D01*
X309593781Y-104667919D01*
X309601817Y-104664590D01*
X309604281Y-104658642D01*
X309605122Y-104656613D01*
X314583416Y-104656613D01*
X314584281Y-104658701D01*
X314586745Y-104664649D01*
X314594781Y-104667978D01*
X314596869Y-104667113D01*
X314616607Y-104667113D01*
X325665282Y-104667020D01*
X328641832Y-104666995D01*
X328643920Y-104667860D01*
X328651956Y-104664531D01*
X328654420Y-104658583D01*
X328655236Y-104656613D01*
X333633555Y-104656613D01*
X333634420Y-104658701D01*
X333636884Y-104664649D01*
X333644920Y-104667978D01*
X333647008Y-104667113D01*
X333666747Y-104667113D01*
X344716424Y-104666973D01*
X347691971Y-104666936D01*
X347694059Y-104667801D01*
X347702095Y-104664472D01*
X347704559Y-104658524D01*
X347705351Y-104656613D01*
X352683694Y-104656613D01*
X352684559Y-104658701D01*
X352687023Y-104664649D01*
X352695059Y-104667978D01*
X352697147Y-104667113D01*
X352716885Y-104667113D01*
X363766444Y-104666927D01*
X366742110Y-104666877D01*
X366744198Y-104667742D01*
X366752234Y-104664413D01*
X366754698Y-104658465D01*
X366755465Y-104656613D01*
X371733833Y-104656613D01*
X371734698Y-104658701D01*
X371737162Y-104664649D01*
X371745198Y-104667978D01*
X371747286Y-104667113D01*
X371767025Y-104667113D01*
X382816702Y-104666880D01*
X385792249Y-104666818D01*
X385794337Y-104667683D01*
X385802373Y-104664354D01*
X385804837Y-104658406D01*
X385805702Y-104656318D01*
X385804837Y-104654230D01*
X385805073Y-90609326D01*
X385805938Y-90607238D01*
X385802609Y-90599202D01*
X385796661Y-90596738D01*
X385794573Y-90595873D01*
X385792485Y-90596738D01*
X371747286Y-90596738D01*
X371745198Y-90595873D01*
X371743110Y-90596738D01*
X371737162Y-90599202D01*
X371733833Y-90607238D01*
X371734698Y-90609326D01*
X371734698Y-104654525D01*
X371733833Y-104656613D01*
X366755465Y-104656613D01*
X366755563Y-104656377D01*
X366754698Y-104654289D01*
X366754934Y-90609326D01*
X366755799Y-90607238D01*
X366752470Y-90599202D01*
X366746522Y-90596738D01*
X366744434Y-90595873D01*
X366742346Y-90596738D01*
X352697147Y-90596738D01*
X352695059Y-90595873D01*
X352692971Y-90596738D01*
X352687023Y-90599202D01*
X352683694Y-90607238D01*
X352684559Y-90609326D01*
X352684559Y-104654525D01*
X352683694Y-104656613D01*
X347705351Y-104656613D01*
X347705424Y-104656436D01*
X347704559Y-104654348D01*
X347704795Y-90609326D01*
X347705660Y-90607238D01*
X347702331Y-90599202D01*
X347696383Y-90596738D01*
X347694295Y-90595873D01*
X347692207Y-90596738D01*
X333647008Y-90596738D01*
X333644920Y-90595873D01*
X333642832Y-90596738D01*
X333636884Y-90599202D01*
X333633555Y-90607238D01*
X333634420Y-90609326D01*
X333634420Y-104654525D01*
X333633555Y-104656613D01*
X328655236Y-104656613D01*
X328655285Y-104656495D01*
X328654420Y-104654407D01*
X328654656Y-90609326D01*
X328655521Y-90607238D01*
X328652192Y-90599202D01*
X328646244Y-90596738D01*
X328644156Y-90595873D01*
X328642068Y-90596738D01*
X314596869Y-90596738D01*
X314594781Y-90595873D01*
X314592693Y-90596738D01*
X314586745Y-90599202D01*
X314583416Y-90607238D01*
X314584281Y-90609326D01*
X314584281Y-104654525D01*
X314583416Y-104656613D01*
X309605122Y-104656613D01*
X309605146Y-104656554D01*
X309604281Y-104654466D01*
X309604517Y-90609326D01*
X309605382Y-90607238D01*
X309602053Y-90599202D01*
X309596105Y-90596738D01*
X309594017Y-90595873D01*
X309591929Y-90596738D01*
X295546494Y-90596738D01*
X295544406Y-90595873D01*
X295542318Y-90596738D01*
X295536370Y-90599202D01*
X295533041Y-90607238D01*
X295533906Y-90609326D01*
X295533906Y-104654525D01*
X295533041Y-104656613D01*
X290555007Y-104656613D01*
X290554142Y-104654525D01*
X290554142Y-90609326D01*
X290555007Y-90607238D01*
X290551678Y-90599202D01*
X290545730Y-90596738D01*
X290543642Y-90595873D01*
X290541554Y-90596738D01*
X276496591Y-90596738D01*
X276494503Y-90595873D01*
X276492415Y-90596738D01*
X276486467Y-90599202D01*
X276483138Y-90607238D01*
X276484003Y-90609326D01*
X276484003Y-104654525D01*
X276483138Y-104656613D01*
X274007401Y-104656613D01*
X274007401Y-85606533D01*
X276483138Y-85606533D01*
X276484003Y-85608621D01*
X276486467Y-85614569D01*
X276494503Y-85617898D01*
X276496591Y-85617033D01*
X290541554Y-85617033D01*
X290543642Y-85617898D01*
X290545730Y-85617033D01*
X290551678Y-85614569D01*
X290555007Y-85606533D01*
X295533041Y-85606533D01*
X295533906Y-85608621D01*
X295536370Y-85614569D01*
X295544406Y-85617898D01*
X295546494Y-85617033D01*
X295566232Y-85617033D01*
X306615093Y-85616987D01*
X309591693Y-85616974D01*
X309593781Y-85617839D01*
X309601817Y-85614510D01*
X309604281Y-85608562D01*
X309605122Y-85606533D01*
X314583416Y-85606533D01*
X314584281Y-85608621D01*
X314586745Y-85614569D01*
X314594781Y-85617898D01*
X314596869Y-85617033D01*
X314616607Y-85617033D01*
X325665282Y-85616940D01*
X328641832Y-85616915D01*
X328643920Y-85617780D01*
X328651956Y-85614451D01*
X328654420Y-85608503D01*
X328655236Y-85606533D01*
X333633555Y-85606533D01*
X333634420Y-85608621D01*
X333636884Y-85614569D01*
X333644920Y-85617898D01*
X333647008Y-85617033D01*
X333666747Y-85617033D01*
X344716424Y-85616893D01*
X347691971Y-85616856D01*
X347694059Y-85617721D01*
X347702095Y-85614392D01*
X347704559Y-85608444D01*
X347705351Y-85606533D01*
X352683694Y-85606533D01*
X352684559Y-85608621D01*
X352687023Y-85614569D01*
X352695059Y-85617898D01*
X352697147Y-85617033D01*
X352716885Y-85617033D01*
X363766444Y-85616847D01*
X366742110Y-85616797D01*
X366744198Y-85617662D01*
X366752234Y-85614333D01*
X366754698Y-85608385D01*
X366755465Y-85606533D01*
X371733833Y-85606533D01*
X371734698Y-85608621D01*
X371737162Y-85614569D01*
X371745198Y-85617898D01*
X371747286Y-85617033D01*
X371767025Y-85617033D01*
X382816702Y-85616800D01*
X385792249Y-85616738D01*
X385794337Y-85617603D01*
X385802373Y-85614274D01*
X385804837Y-85608326D01*
X385805702Y-85606238D01*
X385804837Y-85604150D01*
X385805073Y-71559246D01*
X385805938Y-71557158D01*
X385802609Y-71549122D01*
X385796661Y-71546658D01*
X385794573Y-71545793D01*
X385792485Y-71546658D01*
X371747286Y-71546658D01*
X371745198Y-71545793D01*
X371743110Y-71546658D01*
X371737162Y-71549122D01*
X371733833Y-71557158D01*
X371734698Y-71559246D01*
X371734698Y-85604445D01*
X371733833Y-85606533D01*
X366755465Y-85606533D01*
X366755563Y-85606297D01*
X366754698Y-85604209D01*
X366754934Y-71559246D01*
X366755799Y-71557158D01*
X366752470Y-71549122D01*
X366746522Y-71546658D01*
X366744434Y-71545793D01*
X366742346Y-71546658D01*
X352697147Y-71546658D01*
X352695059Y-71545793D01*
X352692971Y-71546658D01*
X352687023Y-71549122D01*
X352683694Y-71557158D01*
X352684559Y-71559246D01*
X352684559Y-85604445D01*
X352683694Y-85606533D01*
X347705351Y-85606533D01*
X347705424Y-85606356D01*
X347704559Y-85604268D01*
X347704795Y-71559246D01*
X347705660Y-71557158D01*
X347702331Y-71549122D01*
X347696383Y-71546658D01*
X347694295Y-71545793D01*
X347692207Y-71546658D01*
X333647008Y-71546658D01*
X333644920Y-71545793D01*
X333642832Y-71546658D01*
X333636884Y-71549122D01*
X333633555Y-71557158D01*
X333634420Y-71559246D01*
X333634420Y-85604445D01*
X333633555Y-85606533D01*
X328655236Y-85606533D01*
X328655285Y-85606415D01*
X328654420Y-85604327D01*
X328654656Y-71559246D01*
X328655521Y-71557158D01*
X328652192Y-71549122D01*
X328646244Y-71546658D01*
X328644156Y-71545793D01*
X328642068Y-71546658D01*
X314596869Y-71546658D01*
X314594781Y-71545793D01*
X314592693Y-71546658D01*
X314586745Y-71549122D01*
X314583416Y-71557158D01*
X314584281Y-71559246D01*
X314584281Y-85604445D01*
X314583416Y-85606533D01*
X309605122Y-85606533D01*
X309605146Y-85606474D01*
X309604281Y-85604386D01*
X309604517Y-71559246D01*
X309605382Y-71557158D01*
X309602053Y-71549122D01*
X309596105Y-71546658D01*
X309594017Y-71545793D01*
X309591929Y-71546658D01*
X295546494Y-71546658D01*
X295544406Y-71545793D01*
X295542318Y-71546658D01*
X295536370Y-71549122D01*
X295533041Y-71557158D01*
X295533906Y-71559246D01*
X295533906Y-85604445D01*
X295533041Y-85606533D01*
X290555007Y-85606533D01*
X290554142Y-85604445D01*
X290554142Y-71559246D01*
X290555007Y-71557158D01*
X290551678Y-71549122D01*
X290545730Y-71546658D01*
X290543642Y-71545793D01*
X290541554Y-71546658D01*
X276496591Y-71546658D01*
X276494503Y-71545793D01*
X276492415Y-71546658D01*
X276486467Y-71549122D01*
X276483138Y-71557158D01*
X276484003Y-71559246D01*
X276484003Y-85604445D01*
X276483138Y-85606533D01*
X274007401Y-85606533D01*
X274007401Y-66556453D01*
X276483138Y-66556453D01*
X276484003Y-66558541D01*
X276486467Y-66564489D01*
X276494503Y-66567818D01*
X276496591Y-66566953D01*
X290541554Y-66566953D01*
X290543642Y-66567818D01*
X290545730Y-66566953D01*
X290551678Y-66564489D01*
X290555007Y-66556453D01*
X295533041Y-66556453D01*
X295533906Y-66558541D01*
X295536370Y-66564489D01*
X295544406Y-66567818D01*
X295546494Y-66566953D01*
X295566232Y-66566953D01*
X306615094Y-66566907D01*
X309591693Y-66566894D01*
X309593781Y-66567759D01*
X309601817Y-66564430D01*
X309604281Y-66558482D01*
X309605122Y-66556453D01*
X314583416Y-66556453D01*
X314584281Y-66558541D01*
X314586745Y-66564489D01*
X314594781Y-66567818D01*
X314596869Y-66566953D01*
X314616607Y-66566953D01*
X325665282Y-66566860D01*
X328641832Y-66566835D01*
X328643920Y-66567700D01*
X328651956Y-66564371D01*
X328654420Y-66558423D01*
X328655236Y-66556453D01*
X333633555Y-66556453D01*
X333634420Y-66558541D01*
X333636884Y-66564489D01*
X333644920Y-66567818D01*
X333647008Y-66566953D01*
X333666747Y-66566953D01*
X344716424Y-66566813D01*
X347691971Y-66566776D01*
X347694059Y-66567641D01*
X347702095Y-66564312D01*
X347704559Y-66558364D01*
X347705351Y-66556453D01*
X352683694Y-66556453D01*
X352684559Y-66558541D01*
X352687023Y-66564489D01*
X352695059Y-66567818D01*
X352697147Y-66566953D01*
X352716885Y-66566953D01*
X363766444Y-66566767D01*
X366742110Y-66566717D01*
X366744198Y-66567582D01*
X366752234Y-66564253D01*
X366754698Y-66558305D01*
X366755465Y-66556453D01*
X371733833Y-66556453D01*
X371734698Y-66558541D01*
X371737162Y-66564489D01*
X371745198Y-66567818D01*
X371747286Y-66566953D01*
X371767025Y-66566953D01*
X382816702Y-66566720D01*
X385792249Y-66566658D01*
X385794337Y-66567523D01*
X385802373Y-66564194D01*
X385804837Y-66558246D01*
X385805702Y-66556158D01*
X385804837Y-66554070D01*
X385805073Y-52509166D01*
X385805938Y-52507078D01*
X385802609Y-52499042D01*
X385796661Y-52496578D01*
X385794573Y-52495713D01*
X385792485Y-52496578D01*
X371747286Y-52496578D01*
X371745198Y-52495713D01*
X371743110Y-52496578D01*
X371737162Y-52499042D01*
X371733833Y-52507078D01*
X371734698Y-52509166D01*
X371734698Y-66554365D01*
X371733833Y-66556453D01*
X366755465Y-66556453D01*
X366755563Y-66556217D01*
X366754698Y-66554129D01*
X366754934Y-52509166D01*
X366755799Y-52507078D01*
X366752470Y-52499042D01*
X366746522Y-52496578D01*
X366744434Y-52495713D01*
X366742346Y-52496578D01*
X352697147Y-52496578D01*
X352695059Y-52495713D01*
X352692971Y-52496578D01*
X352687023Y-52499042D01*
X352683694Y-52507078D01*
X352684559Y-52509166D01*
X352684559Y-66554365D01*
X352683694Y-66556453D01*
X347705351Y-66556453D01*
X347705424Y-66556276D01*
X347704559Y-66554188D01*
X347704795Y-52509166D01*
X347705660Y-52507078D01*
X347702331Y-52499042D01*
X347696383Y-52496578D01*
X347694295Y-52495713D01*
X347692207Y-52496578D01*
X333647008Y-52496578D01*
X333644920Y-52495713D01*
X333642832Y-52496578D01*
X333636884Y-52499042D01*
X333633555Y-52507078D01*
X333634420Y-52509166D01*
X333634420Y-66554365D01*
X333633555Y-66556453D01*
X328655236Y-66556453D01*
X328655285Y-66556335D01*
X328654420Y-66554247D01*
X328654656Y-52509166D01*
X328655521Y-52507078D01*
X328652192Y-52499042D01*
X328646244Y-52496578D01*
X328644156Y-52495713D01*
X328642068Y-52496578D01*
X314596869Y-52496578D01*
X314594781Y-52495713D01*
X314592693Y-52496578D01*
X314586745Y-52499042D01*
X314583416Y-52507078D01*
X314584281Y-52509166D01*
X314584281Y-66554365D01*
X314583416Y-66556453D01*
X309605122Y-66556453D01*
X309605146Y-66556394D01*
X309604281Y-66554306D01*
X309604517Y-52509166D01*
X309605382Y-52507078D01*
X309602053Y-52499042D01*
X309596105Y-52496578D01*
X309594017Y-52495713D01*
X309591929Y-52496578D01*
X295546494Y-52496578D01*
X295544406Y-52495713D01*
X295542318Y-52496578D01*
X295536370Y-52499042D01*
X295533041Y-52507078D01*
X295533906Y-52509166D01*
X295533906Y-66554365D01*
X295533041Y-66556453D01*
X290555007Y-66556453D01*
X290554142Y-66554365D01*
X290554142Y-52509166D01*
X290555007Y-52507078D01*
X290551678Y-52499042D01*
X290545730Y-52496578D01*
X290543642Y-52495713D01*
X290541554Y-52496578D01*
X276496591Y-52496578D01*
X276494503Y-52495713D01*
X276492415Y-52496578D01*
X276486467Y-52499042D01*
X276483138Y-52507078D01*
X276484003Y-52509166D01*
X276484003Y-66554365D01*
X276483138Y-66556453D01*
X274007401Y-66556453D01*
X274007401Y-52509166D01*
X274008266Y-52507078D01*
X274004937Y-52499042D01*
X273998989Y-52496578D01*
X273996901Y-52495713D01*
X273994813Y-52496578D01*
X216696020Y-52496578D01*
X216693932Y-52495713D01*
X216691844Y-52496578D01*
X216685896Y-52499042D01*
X216682567Y-52507078D01*
X216683432Y-52509166D01*
X216683431Y-142754323D01*
X216682566Y-142756411D01*
X214205938Y-142756411D01*
X214205073Y-142754323D01*
X214205073Y-128708185D01*
X214205938Y-128706097D01*
X214202609Y-128698061D01*
X214196661Y-128695597D01*
X214194573Y-128694732D01*
X214192485Y-128695597D01*
X214172747Y-128695597D01*
X203123001Y-128695739D01*
X200147286Y-128695777D01*
X200145198Y-128694912D01*
X200142251Y-128696133D01*
X200137162Y-128698241D01*
X200133833Y-128706277D01*
X200134698Y-128708365D01*
X200134698Y-142754323D01*
X200133833Y-142756411D01*
X195155799Y-142756411D01*
X195154934Y-142754323D01*
X195154934Y-128708429D01*
X195155799Y-128706341D01*
X195152470Y-128698305D01*
X195146522Y-128695841D01*
X195144434Y-128694976D01*
X195142346Y-128695841D01*
X195122608Y-128695841D01*
X184072863Y-128695983D01*
X181097147Y-128696021D01*
X181095059Y-128695156D01*
X181092701Y-128696133D01*
X181087023Y-128698485D01*
X181083694Y-128706521D01*
X181084559Y-128708609D01*
X181084559Y-142754323D01*
X181083694Y-142756411D01*
X176105660Y-142756411D01*
X176104795Y-142754323D01*
X176104795Y-128708673D01*
X176105660Y-128706585D01*
X176102331Y-128698549D01*
X176101742Y-128698305D01*
X176094295Y-128695220D01*
X176092207Y-128696085D01*
X176072468Y-128696085D01*
X165022605Y-128696228D01*
X162047008Y-128696266D01*
X162044920Y-128695401D01*
X162041982Y-128696618D01*
X162036884Y-128698730D01*
X162033555Y-128706766D01*
X162034420Y-128708854D01*
X162034420Y-142754323D01*
X162033555Y-142756411D01*
X157055521Y-142756411D01*
X157054656Y-142754323D01*
X157054656Y-128708918D01*
X157055521Y-128706830D01*
X157052192Y-128698794D01*
X157046244Y-128696330D01*
X157044156Y-128695465D01*
X157042068Y-128696330D01*
X157022330Y-128696330D01*
X145972585Y-128696472D01*
X142996869Y-128696510D01*
X142994781Y-128695645D01*
X142992432Y-128696618D01*
X142986745Y-128698974D01*
X142983416Y-128707010D01*
X142984281Y-128709098D01*
X142984281Y-142754323D01*
X142983416Y-142756411D01*
X138005382Y-142756411D01*
X138004517Y-142754323D01*
X138004517Y-128709162D01*
X138005382Y-128707074D01*
X138002053Y-128699038D01*
X138001464Y-128698794D01*
X137994017Y-128695709D01*
X137991929Y-128696574D01*
X123946494Y-128696574D01*
X123944406Y-128695709D01*
X123936959Y-128698794D01*
X123936370Y-128699038D01*
X123933041Y-128707074D01*
X123933906Y-128709162D01*
X123933906Y-142754323D01*
X123933041Y-142756411D01*
X118955007Y-142756411D01*
X118954142Y-142754323D01*
X118954142Y-128709586D01*
X118955007Y-128707498D01*
X118951678Y-128699462D01*
X118945730Y-128696998D01*
X118943642Y-128696133D01*
X118941554Y-128696998D01*
X104896591Y-128696998D01*
X104894503Y-128696133D01*
X104892415Y-128696998D01*
X104886467Y-128699462D01*
X104883138Y-128707498D01*
X104884003Y-128709586D01*
X104884003Y-142754323D01*
X104883138Y-142756411D01*
X102407395Y-142756411D01*
X102407398Y-123706693D01*
X104883138Y-123706693D01*
X104884003Y-123708781D01*
X104886467Y-123714729D01*
X104894503Y-123718058D01*
X104896591Y-123717193D01*
X118941554Y-123717193D01*
X118943642Y-123718058D01*
X118945730Y-123717193D01*
X118951678Y-123714729D01*
X118955007Y-123706693D01*
X123933041Y-123706693D01*
X123933906Y-123708781D01*
X123936370Y-123714729D01*
X123944406Y-123718058D01*
X123946494Y-123717193D01*
X123966232Y-123717193D01*
X135015094Y-123717147D01*
X137991693Y-123717134D01*
X137993781Y-123717999D01*
X138001817Y-123714670D01*
X138004281Y-123708722D01*
X138005122Y-123706693D01*
X142983416Y-123706693D01*
X142984281Y-123708781D01*
X142986745Y-123714729D01*
X142994781Y-123718058D01*
X142996869Y-123717193D01*
X143016607Y-123717193D01*
X154065283Y-123717100D01*
X157041832Y-123717075D01*
X157043920Y-123717940D01*
X157051956Y-123714611D01*
X157054420Y-123708663D01*
X157055236Y-123706693D01*
X162033555Y-123706693D01*
X162034420Y-123708781D01*
X162036884Y-123714729D01*
X162044920Y-123718058D01*
X162047008Y-123717193D01*
X162066747Y-123717193D01*
X173116424Y-123717053D01*
X176091971Y-123717016D01*
X176094059Y-123717881D01*
X176102095Y-123714552D01*
X176104559Y-123708604D01*
X176105351Y-123706693D01*
X181083694Y-123706693D01*
X181084559Y-123708781D01*
X181087023Y-123714729D01*
X181095059Y-123718058D01*
X181097147Y-123717193D01*
X181116885Y-123717193D01*
X192166444Y-123717007D01*
X195142110Y-123716957D01*
X195144198Y-123717822D01*
X195152234Y-123714493D01*
X195154698Y-123708545D01*
X195155465Y-123706693D01*
X200133833Y-123706693D01*
X200134698Y-123708781D01*
X200137162Y-123714729D01*
X200145198Y-123718058D01*
X200147286Y-123717193D01*
X200167025Y-123717193D01*
X211216702Y-123716960D01*
X214192249Y-123716898D01*
X214194337Y-123717763D01*
X214202373Y-123714434D01*
X214204837Y-123708486D01*
X214205702Y-123706398D01*
X214204837Y-123704310D01*
X214205073Y-109659406D01*
X214205938Y-109657318D01*
X214202609Y-109649282D01*
X214196661Y-109646818D01*
X214194573Y-109645953D01*
X214192485Y-109646818D01*
X200147286Y-109646818D01*
X200145198Y-109645953D01*
X200143110Y-109646818D01*
X200137162Y-109649282D01*
X200133833Y-109657318D01*
X200134698Y-109659406D01*
X200134698Y-123704605D01*
X200133833Y-123706693D01*
X195155465Y-123706693D01*
X195155563Y-123706457D01*
X195154698Y-123704369D01*
X195154934Y-109659406D01*
X195155799Y-109657318D01*
X195152470Y-109649282D01*
X195146522Y-109646818D01*
X195144434Y-109645953D01*
X195142346Y-109646818D01*
X181097147Y-109646818D01*
X181095059Y-109645953D01*
X181092971Y-109646818D01*
X181087023Y-109649282D01*
X181083694Y-109657318D01*
X181084559Y-109659406D01*
X181084559Y-123704605D01*
X181083694Y-123706693D01*
X176105351Y-123706693D01*
X176105424Y-123706516D01*
X176104559Y-123704428D01*
X176104795Y-109659406D01*
X176105660Y-109657318D01*
X176102331Y-109649282D01*
X176096383Y-109646818D01*
X176094295Y-109645953D01*
X176092207Y-109646818D01*
X162047008Y-109646818D01*
X162044920Y-109645953D01*
X162042832Y-109646818D01*
X162036884Y-109649282D01*
X162033555Y-109657318D01*
X162034420Y-109659406D01*
X162034420Y-123704605D01*
X162033555Y-123706693D01*
X157055236Y-123706693D01*
X157055285Y-123706575D01*
X157054420Y-123704487D01*
X157054656Y-109659406D01*
X157055521Y-109657318D01*
X157052192Y-109649282D01*
X157046244Y-109646818D01*
X157044156Y-109645953D01*
X157042068Y-109646818D01*
X142996869Y-109646818D01*
X142994781Y-109645953D01*
X142992693Y-109646818D01*
X142986745Y-109649282D01*
X142983416Y-109657318D01*
X142984281Y-109659406D01*
X142984281Y-123704605D01*
X142983416Y-123706693D01*
X138005122Y-123706693D01*
X138005146Y-123706634D01*
X138004281Y-123704546D01*
X138004517Y-109659406D01*
X138005382Y-109657318D01*
X138002053Y-109649282D01*
X137996105Y-109646818D01*
X137994017Y-109645953D01*
X137991929Y-109646818D01*
X123946494Y-109646818D01*
X123944406Y-109645953D01*
X123942318Y-109646818D01*
X123936370Y-109649282D01*
X123933041Y-109657318D01*
X123933906Y-109659406D01*
X123933906Y-123704605D01*
X123933041Y-123706693D01*
X118955007Y-123706693D01*
X118954142Y-123704605D01*
X118954142Y-109659406D01*
X118955007Y-109657318D01*
X118951678Y-109649282D01*
X118945730Y-109646818D01*
X118943642Y-109645953D01*
X118941554Y-109646818D01*
X104896591Y-109646818D01*
X104894503Y-109645953D01*
X104892415Y-109646818D01*
X104886467Y-109649282D01*
X104883138Y-109657318D01*
X104884003Y-109659406D01*
X104884003Y-123704605D01*
X104883138Y-123706693D01*
X102407398Y-123706693D01*
X102407400Y-104656613D01*
X104883138Y-104656613D01*
X104884003Y-104658701D01*
X104886467Y-104664649D01*
X104894503Y-104667978D01*
X104896591Y-104667113D01*
X118941554Y-104667113D01*
X118943642Y-104667978D01*
X118945730Y-104667113D01*
X118951678Y-104664649D01*
X118955007Y-104656613D01*
X123933041Y-104656613D01*
X123933906Y-104658701D01*
X123936370Y-104664649D01*
X123944406Y-104667978D01*
X123946494Y-104667113D01*
X123966232Y-104667113D01*
X135015093Y-104667067D01*
X137991693Y-104667054D01*
X137993781Y-104667919D01*
X138001817Y-104664590D01*
X138004281Y-104658642D01*
X138005122Y-104656613D01*
X142983416Y-104656613D01*
X142984281Y-104658701D01*
X142986745Y-104664649D01*
X142994781Y-104667978D01*
X142996869Y-104667113D01*
X143016607Y-104667113D01*
X154065282Y-104667020D01*
X157041832Y-104666995D01*
X157043920Y-104667860D01*
X157051956Y-104664531D01*
X157054420Y-104658583D01*
X157055236Y-104656613D01*
X162033555Y-104656613D01*
X162034420Y-104658701D01*
X162036884Y-104664649D01*
X162044920Y-104667978D01*
X162047008Y-104667113D01*
X162066747Y-104667113D01*
X173116424Y-104666973D01*
X176091971Y-104666936D01*
X176094059Y-104667801D01*
X176102095Y-104664472D01*
X176104559Y-104658524D01*
X176105351Y-104656613D01*
X181083694Y-104656613D01*
X181084559Y-104658701D01*
X181087023Y-104664649D01*
X181095059Y-104667978D01*
X181097147Y-104667113D01*
X181116885Y-104667113D01*
X192166444Y-104666927D01*
X195142110Y-104666877D01*
X195144198Y-104667742D01*
X195152234Y-104664413D01*
X195154698Y-104658465D01*
X195155465Y-104656613D01*
X200133833Y-104656613D01*
X200134698Y-104658701D01*
X200137162Y-104664649D01*
X200145198Y-104667978D01*
X200147286Y-104667113D01*
X200167025Y-104667113D01*
X211216702Y-104666880D01*
X214192249Y-104666818D01*
X214194337Y-104667683D01*
X214202373Y-104664354D01*
X214204837Y-104658406D01*
X214205702Y-104656318D01*
X214204837Y-104654230D01*
X214205073Y-90609326D01*
X214205938Y-90607238D01*
X214202609Y-90599202D01*
X214196661Y-90596738D01*
X214194573Y-90595873D01*
X214192485Y-90596738D01*
X200147286Y-90596738D01*
X200145198Y-90595873D01*
X200143110Y-90596738D01*
X200137162Y-90599202D01*
X200133833Y-90607238D01*
X200134698Y-90609326D01*
X200134698Y-104654525D01*
X200133833Y-104656613D01*
X195155465Y-104656613D01*
X195155563Y-104656377D01*
X195154698Y-104654289D01*
X195154934Y-90609326D01*
X195155799Y-90607238D01*
X195152470Y-90599202D01*
X195146522Y-90596738D01*
X195144434Y-90595873D01*
X195142346Y-90596738D01*
X181097147Y-90596738D01*
X181095059Y-90595873D01*
X181092971Y-90596738D01*
X181087023Y-90599202D01*
X181083694Y-90607238D01*
X181084559Y-90609326D01*
X181084559Y-104654525D01*
X181083694Y-104656613D01*
X176105351Y-104656613D01*
X176105424Y-104656436D01*
X176104559Y-104654348D01*
X176104795Y-90609326D01*
X176105660Y-90607238D01*
X176102331Y-90599202D01*
X176096383Y-90596738D01*
X176094295Y-90595873D01*
X176092207Y-90596738D01*
X162047008Y-90596738D01*
X162044920Y-90595873D01*
X162042832Y-90596738D01*
X162036884Y-90599202D01*
X162033555Y-90607238D01*
X162034420Y-90609326D01*
X162034420Y-104654525D01*
X162033555Y-104656613D01*
X157055236Y-104656613D01*
X157055285Y-104656495D01*
X157054420Y-104654407D01*
X157054656Y-90609326D01*
X157055521Y-90607238D01*
X157052192Y-90599202D01*
X157046244Y-90596738D01*
X157044156Y-90595873D01*
X157042068Y-90596738D01*
X142996869Y-90596738D01*
X142994781Y-90595873D01*
X142992693Y-90596738D01*
X142986745Y-90599202D01*
X142983416Y-90607238D01*
X142984281Y-90609326D01*
X142984281Y-104654525D01*
X142983416Y-104656613D01*
X138005122Y-104656613D01*
X138005146Y-104656554D01*
X138004281Y-104654466D01*
X138004517Y-90609326D01*
X138005382Y-90607238D01*
X138002053Y-90599202D01*
X137996105Y-90596738D01*
X137994017Y-90595873D01*
X137991929Y-90596738D01*
X123946494Y-90596738D01*
X123944406Y-90595873D01*
X123942318Y-90596738D01*
X123936370Y-90599202D01*
X123933041Y-90607238D01*
X123933906Y-90609326D01*
X123933906Y-104654525D01*
X123933041Y-104656613D01*
X118955007Y-104656613D01*
X118954142Y-104654525D01*
X118954142Y-90609326D01*
X118955007Y-90607238D01*
X118951678Y-90599202D01*
X118945730Y-90596738D01*
X118943642Y-90595873D01*
X118941554Y-90596738D01*
X104896591Y-90596738D01*
X104894503Y-90595873D01*
X104892415Y-90596738D01*
X104886467Y-90599202D01*
X104883138Y-90607238D01*
X104884003Y-90609326D01*
X104884003Y-104654525D01*
X104883138Y-104656613D01*
X102407400Y-104656613D01*
X102407403Y-85606533D01*
X104883138Y-85606533D01*
X104884003Y-85608621D01*
X104886467Y-85614569D01*
X104894503Y-85617898D01*
X104896591Y-85617033D01*
X118941554Y-85617033D01*
X118943642Y-85617898D01*
X118945730Y-85617033D01*
X118951678Y-85614569D01*
X118955007Y-85606533D01*
X123933041Y-85606533D01*
X123933906Y-85608621D01*
X123936370Y-85614569D01*
X123944406Y-85617898D01*
X123946494Y-85617033D01*
X123966232Y-85617033D01*
X135015093Y-85616987D01*
X137991693Y-85616974D01*
X137993781Y-85617839D01*
X138001817Y-85614510D01*
X138004281Y-85608562D01*
X138005122Y-85606533D01*
X142983416Y-85606533D01*
X142984281Y-85608621D01*
X142986745Y-85614569D01*
X142994781Y-85617898D01*
X142996869Y-85617033D01*
X143016607Y-85617033D01*
X154065282Y-85616940D01*
X157041832Y-85616915D01*
X157043920Y-85617780D01*
X157051956Y-85614451D01*
X157054420Y-85608503D01*
X157055236Y-85606533D01*
X162033555Y-85606533D01*
X162034420Y-85608621D01*
X162036884Y-85614569D01*
X162044920Y-85617898D01*
X162047008Y-85617033D01*
X162066747Y-85617033D01*
X173116424Y-85616893D01*
X176091971Y-85616856D01*
X176094059Y-85617721D01*
X176102095Y-85614392D01*
X176104559Y-85608444D01*
X176105351Y-85606533D01*
X181083694Y-85606533D01*
X181084559Y-85608621D01*
X181087023Y-85614569D01*
X181095059Y-85617898D01*
X181097147Y-85617033D01*
X181116885Y-85617033D01*
X192166444Y-85616847D01*
X195142110Y-85616797D01*
X195144198Y-85617662D01*
X195152234Y-85614333D01*
X195154698Y-85608385D01*
X195155465Y-85606533D01*
X200133833Y-85606533D01*
X200134698Y-85608621D01*
X200137162Y-85614569D01*
X200145198Y-85617898D01*
X200147286Y-85617033D01*
X200167025Y-85617033D01*
X211216702Y-85616800D01*
X214192249Y-85616738D01*
X214194337Y-85617603D01*
X214202373Y-85614274D01*
X214204837Y-85608326D01*
X214205702Y-85606238D01*
X214204837Y-85604150D01*
X214205073Y-71559246D01*
X214205938Y-71557158D01*
X214202609Y-71549122D01*
X214196661Y-71546658D01*
X214194573Y-71545793D01*
X214192485Y-71546658D01*
X200147286Y-71546658D01*
X200145198Y-71545793D01*
X200143110Y-71546658D01*
X200137162Y-71549122D01*
X200133833Y-71557158D01*
X200134698Y-71559246D01*
X200134698Y-85604445D01*
X200133833Y-85606533D01*
X195155465Y-85606533D01*
X195155563Y-85606297D01*
X195154698Y-85604209D01*
X195154934Y-71559246D01*
X195155799Y-71557158D01*
X195152470Y-71549122D01*
X195146522Y-71546658D01*
X195144434Y-71545793D01*
X195142346Y-71546658D01*
X181097147Y-71546658D01*
X181095059Y-71545793D01*
X181092971Y-71546658D01*
X181087023Y-71549122D01*
X181083694Y-71557158D01*
X181084559Y-71559246D01*
X181084559Y-85604445D01*
X181083694Y-85606533D01*
X176105351Y-85606533D01*
X176105424Y-85606356D01*
X176104559Y-85604268D01*
X176104795Y-71559246D01*
X176105660Y-71557158D01*
X176102331Y-71549122D01*
X176096383Y-71546658D01*
X176094295Y-71545793D01*
X176092207Y-71546658D01*
X162047008Y-71546658D01*
X162044920Y-71545793D01*
X162042832Y-71546658D01*
X162036884Y-71549122D01*
X162033555Y-71557158D01*
X162034420Y-71559246D01*
X162034420Y-85604445D01*
X162033555Y-85606533D01*
X157055236Y-85606533D01*
X157055285Y-85606415D01*
X157054420Y-85604327D01*
X157054656Y-71559246D01*
X157055521Y-71557158D01*
X157052192Y-71549122D01*
X157046244Y-71546658D01*
X157044156Y-71545793D01*
X157042068Y-71546658D01*
X142996869Y-71546658D01*
X142994781Y-71545793D01*
X142992693Y-71546658D01*
X142986745Y-71549122D01*
X142983416Y-71557158D01*
X142984281Y-71559246D01*
X142984281Y-85604445D01*
X142983416Y-85606533D01*
X138005122Y-85606533D01*
X138005146Y-85606474D01*
X138004281Y-85604386D01*
X138004517Y-71559246D01*
X138005382Y-71557158D01*
X138002053Y-71549122D01*
X137996105Y-71546658D01*
X137994017Y-71545793D01*
X137991929Y-71546658D01*
X123946494Y-71546658D01*
X123944406Y-71545793D01*
X123942318Y-71546658D01*
X123936370Y-71549122D01*
X123933041Y-71557158D01*
X123933906Y-71559246D01*
X123933906Y-85604445D01*
X123933041Y-85606533D01*
X118955007Y-85606533D01*
X118954142Y-85604445D01*
X118954142Y-71559246D01*
X118955007Y-71557158D01*
X118951678Y-71549122D01*
X118945730Y-71546658D01*
X118943642Y-71545793D01*
X118941554Y-71546658D01*
X104896591Y-71546658D01*
X104894503Y-71545793D01*
X104892415Y-71546658D01*
X104886467Y-71549122D01*
X104883138Y-71557158D01*
X104884003Y-71559246D01*
X104884003Y-85604445D01*
X104883138Y-85606533D01*
X102407403Y-85606533D01*
X102407405Y-66556453D01*
X104883138Y-66556453D01*
X104884003Y-66558541D01*
X104886467Y-66564489D01*
X104894503Y-66567818D01*
X104896591Y-66566953D01*
X118941554Y-66566953D01*
X118943642Y-66567818D01*
X118945730Y-66566953D01*
X118951678Y-66564489D01*
X118955007Y-66556453D01*
X123933041Y-66556453D01*
X123933906Y-66558541D01*
X123936370Y-66564489D01*
X123944406Y-66567818D01*
X123946494Y-66566953D01*
X123966232Y-66566953D01*
X135015094Y-66566907D01*
X137991693Y-66566894D01*
X137993781Y-66567759D01*
X138001817Y-66564430D01*
X138004281Y-66558482D01*
X138005122Y-66556453D01*
X142983416Y-66556453D01*
X142984281Y-66558541D01*
X142986745Y-66564489D01*
X142994781Y-66567818D01*
X142996869Y-66566953D01*
X143016607Y-66566953D01*
X154065282Y-66566860D01*
X157041832Y-66566835D01*
X157043920Y-66567700D01*
X157051956Y-66564371D01*
X157054420Y-66558423D01*
X157055236Y-66556453D01*
X162033555Y-66556453D01*
X162034420Y-66558541D01*
X162036884Y-66564489D01*
X162044920Y-66567818D01*
X162047008Y-66566953D01*
X162066747Y-66566953D01*
X173116424Y-66566813D01*
X176091971Y-66566776D01*
X176094059Y-66567641D01*
X176102095Y-66564312D01*
X176104559Y-66558364D01*
X176105351Y-66556453D01*
X181083694Y-66556453D01*
X181084559Y-66558541D01*
X181087023Y-66564489D01*
X181095059Y-66567818D01*
X181097147Y-66566953D01*
X181116885Y-66566953D01*
X192166444Y-66566767D01*
X195142110Y-66566717D01*
X195144198Y-66567582D01*
X195152234Y-66564253D01*
X195154698Y-66558305D01*
X195155465Y-66556453D01*
X200133833Y-66556453D01*
X200134698Y-66558541D01*
X200137162Y-66564489D01*
X200145198Y-66567818D01*
X200147286Y-66566953D01*
X200167025Y-66566953D01*
X211216702Y-66566720D01*
X214192249Y-66566658D01*
X214194337Y-66567523D01*
X214202373Y-66564194D01*
X214204837Y-66558246D01*
X214205702Y-66556158D01*
X214204837Y-66554070D01*
X214205073Y-52509166D01*
X214205938Y-52507078D01*
X214202609Y-52499042D01*
X214196661Y-52496578D01*
X214194573Y-52495713D01*
X214192485Y-52496578D01*
X200147286Y-52496578D01*
X200145198Y-52495713D01*
X200143110Y-52496578D01*
X200137162Y-52499042D01*
X200133833Y-52507078D01*
X200134698Y-52509166D01*
X200134698Y-66554365D01*
X200133833Y-66556453D01*
X195155465Y-66556453D01*
X195155563Y-66556217D01*
X195154698Y-66554129D01*
X195154934Y-52509166D01*
X195155799Y-52507078D01*
X195152470Y-52499042D01*
X195146522Y-52496578D01*
X195144434Y-52495713D01*
X195142346Y-52496578D01*
X181097147Y-52496578D01*
X181095059Y-52495713D01*
X181092971Y-52496578D01*
X181087023Y-52499042D01*
X181083694Y-52507078D01*
X181084559Y-52509166D01*
X181084559Y-66554365D01*
X181083694Y-66556453D01*
X176105351Y-66556453D01*
X176105424Y-66556276D01*
X176104559Y-66554188D01*
X176104795Y-52509166D01*
X176105660Y-52507078D01*
X176102331Y-52499042D01*
X176096383Y-52496578D01*
X176094295Y-52495713D01*
X176092207Y-52496578D01*
X162047008Y-52496578D01*
X162044920Y-52495713D01*
X162042832Y-52496578D01*
X162036884Y-52499042D01*
X162033555Y-52507078D01*
X162034420Y-52509166D01*
X162034420Y-66554365D01*
X162033555Y-66556453D01*
X157055236Y-66556453D01*
X157055285Y-66556335D01*
X157054420Y-66554247D01*
X157054656Y-52509166D01*
X157055521Y-52507078D01*
X157052192Y-52499042D01*
X157046244Y-52496578D01*
X157044156Y-52495713D01*
X157042068Y-52496578D01*
X142996869Y-52496578D01*
X142994781Y-52495713D01*
X142992693Y-52496578D01*
X142986745Y-52499042D01*
X142983416Y-52507078D01*
X142984281Y-52509166D01*
X142984281Y-66554365D01*
X142983416Y-66556453D01*
X138005122Y-66556453D01*
X138005146Y-66556394D01*
X138004281Y-66554306D01*
X138004517Y-52509166D01*
X138005382Y-52507078D01*
X138002053Y-52499042D01*
X137996105Y-52496578D01*
X137994017Y-52495713D01*
X137991929Y-52496578D01*
X123946494Y-52496578D01*
X123944406Y-52495713D01*
X123942318Y-52496578D01*
X123936370Y-52499042D01*
X123933041Y-52507078D01*
X123933906Y-52509166D01*
X123933906Y-66554365D01*
X123933041Y-66556453D01*
X118955007Y-66556453D01*
X118954142Y-66554365D01*
X118954142Y-52509166D01*
X118955007Y-52507078D01*
X118951678Y-52499042D01*
X118945730Y-52496578D01*
X118943642Y-52495713D01*
X118941554Y-52496578D01*
X104896591Y-52496578D01*
X104894503Y-52495713D01*
X104892415Y-52496578D01*
X104886467Y-52499042D01*
X104883138Y-52507078D01*
X104884003Y-52509166D01*
X104884003Y-66554365D01*
X104883138Y-66556453D01*
X102407405Y-66556453D01*
X102407407Y-51797408D01*
X102407498Y-51794849D01*
X102408266Y-51792996D01*
X102407620Y-51791438D01*
X102407728Y-51788419D01*
X102408505Y-51777554D01*
X102424832Y-51549282D01*
X102427389Y-51531503D01*
X102477408Y-51301567D01*
X102482472Y-51284319D01*
X102564710Y-51063832D01*
X102572178Y-51047480D01*
X102615099Y-50968875D01*
X102684954Y-50840944D01*
X102694668Y-50825830D01*
X102835687Y-50637449D01*
X102847459Y-50623863D01*
X103013853Y-50457468D01*
X103027432Y-50445701D01*
X103215827Y-50304669D01*
X103230937Y-50294959D01*
X103437473Y-50182180D01*
X103453824Y-50174713D01*
X103674299Y-50092479D01*
X103691547Y-50087414D01*
X103765212Y-50071388D01*
X103921489Y-50037391D01*
X103939272Y-50034834D01*
X104178372Y-50017731D01*
X104181421Y-50017622D01*
X104182983Y-50018269D01*
X104184840Y-50017500D01*
X104187362Y-50017410D01*
X108058064Y-50017410D01*
X123023657Y-50017412D01*
X123034657Y-50018413D01*
X123034657Y-50021212D01*
X123050258Y-50020190D01*
X123050259Y-50020190D01*
X123265532Y-50006085D01*
X123265538Y-50006084D01*
X123269647Y-50005815D01*
X123273683Y-50005012D01*
X123273685Y-50005012D01*
X123496572Y-49960683D01*
X123496576Y-49960682D01*
X123500618Y-49959878D01*
X123592837Y-49928576D01*
X123719706Y-49885513D01*
X123719712Y-49885510D01*
X123723617Y-49884185D01*
X123727361Y-49882339D01*
X123820627Y-49836347D01*
X123934827Y-49780032D01*
X124130636Y-49649202D01*
X124133738Y-49646482D01*
X124304591Y-49496653D01*
X124304597Y-49496647D01*
X124307693Y-49493932D01*
X124462968Y-49316880D01*
X124483006Y-49286893D01*
X124591507Y-49124514D01*
X124593805Y-49121075D01*
X124622590Y-49062708D01*
X124696139Y-48913569D01*
X124696140Y-48913567D01*
X124697964Y-48909868D01*
X124773663Y-48686872D01*
X124791339Y-48598016D01*
X124818805Y-48459939D01*
X124818805Y-48459938D01*
X124819608Y-48455902D01*
X124833341Y-48246398D01*
X124833897Y-48237923D01*
X124833897Y-48237922D01*
X124835012Y-48220912D01*
X124832022Y-48220912D01*
X124832015Y-48220895D01*
X124831157Y-48213133D01*
X124831157Y-47337388D01*
X140655215Y-47337388D01*
X140690960Y-47551601D01*
X140692654Y-47556535D01*
X140759780Y-47752073D01*
X140759782Y-47752078D01*
X140761475Y-47757009D01*
X140864837Y-47948010D01*
X140868037Y-47952121D01*
X140868038Y-47952123D01*
X140984790Y-48102130D01*
X140998227Y-48119394D01*
X141096164Y-48209554D01*
X141136214Y-48246424D01*
X141158005Y-48266485D01*
X141339814Y-48385273D01*
X141538696Y-48472516D01*
X141607469Y-48489934D01*
X141744168Y-48524555D01*
X141744174Y-48524556D01*
X141749224Y-48525835D01*
X141965657Y-48543776D01*
X141965657Y-48540234D01*
X141974983Y-48539285D01*
X146952630Y-48539285D01*
X146965657Y-48540414D01*
X146965657Y-48543806D01*
X146981787Y-48542470D01*
X146981788Y-48542470D01*
X147042783Y-48537417D01*
X147182104Y-48525877D01*
X147187158Y-48524597D01*
X147187160Y-48524597D01*
X147290640Y-48498395D01*
X147392649Y-48472566D01*
X147492098Y-48428947D01*
X147586779Y-48387419D01*
X147586782Y-48387418D01*
X147591548Y-48385327D01*
X147773374Y-48266540D01*
X147777243Y-48262979D01*
X147929330Y-48122976D01*
X147933167Y-48119444D01*
X147936365Y-48115335D01*
X147936369Y-48115331D01*
X148063370Y-47952166D01*
X148063373Y-47952161D01*
X148066570Y-47948054D01*
X148069060Y-47943454D01*
X148167459Y-47761631D01*
X148169943Y-47757042D01*
X148240465Y-47551622D01*
X148276214Y-47337395D01*
X148276214Y-47120205D01*
X148240465Y-46905978D01*
X148169943Y-46700558D01*
X148074129Y-46523514D01*
X148069051Y-46514130D01*
X148069050Y-46514128D01*
X148066570Y-46509546D01*
X148063373Y-46505439D01*
X148063370Y-46505434D01*
X147936369Y-46342269D01*
X147936365Y-46342265D01*
X147933167Y-46338156D01*
X147777271Y-46194647D01*
X147777211Y-46194592D01*
X147777210Y-46194591D01*
X147773374Y-46191060D01*
X147591548Y-46072273D01*
X147586782Y-46070182D01*
X147586779Y-46070181D01*
X147397489Y-45987157D01*
X147392649Y-45985034D01*
X147215516Y-45940183D01*
X147187160Y-45933003D01*
X147187158Y-45933003D01*
X147182104Y-45931723D01*
X147087999Y-45923928D01*
X146983711Y-45915289D01*
X146983709Y-45915289D01*
X146965657Y-45913794D01*
X146965657Y-45917335D01*
X146956324Y-45918285D01*
X141978332Y-45918285D01*
X141965657Y-45917187D01*
X141965657Y-45913824D01*
X141949525Y-45915161D01*
X141949523Y-45915161D01*
X141801700Y-45927415D01*
X141749224Y-45931765D01*
X141744174Y-45933044D01*
X141744168Y-45933045D01*
X141607469Y-45967666D01*
X141538696Y-45985084D01*
X141339814Y-46072327D01*
X141158005Y-46191115D01*
X141154170Y-46194645D01*
X141154168Y-46194647D01*
X141136185Y-46211202D01*
X140998227Y-46338206D01*
X140995029Y-46342315D01*
X140995028Y-46342316D01*
X140868072Y-46505434D01*
X140864837Y-46509590D01*
X140761475Y-46700591D01*
X140759782Y-46705522D01*
X140759780Y-46705527D01*
X140711281Y-46846806D01*
X140690960Y-46905999D01*
X140655215Y-47120212D01*
X140655215Y-47337388D01*
X124831157Y-47337388D01*
X124831157Y-47034907D01*
X124831251Y-47032274D01*
X124832022Y-47030413D01*
X124831373Y-47028848D01*
X124831478Y-47025919D01*
X124840054Y-46905999D01*
X124848584Y-46786718D01*
X124851142Y-46768925D01*
X124863784Y-46710811D01*
X124901159Y-46538991D01*
X124906224Y-46521743D01*
X124909058Y-46514146D01*
X124988452Y-46301275D01*
X124995919Y-46284923D01*
X125036157Y-46211230D01*
X125108690Y-46078392D01*
X125118404Y-46063276D01*
X125158889Y-46009194D01*
X125229158Y-45915323D01*
X125259417Y-45874901D01*
X125271189Y-45861315D01*
X125437572Y-45694926D01*
X125451158Y-45683153D01*
X125451192Y-45683128D01*
X125559428Y-45602100D01*
X125639528Y-45542136D01*
X125654652Y-45532417D01*
X125861173Y-45419643D01*
X125877521Y-45412176D01*
X126097849Y-45329992D01*
X126097994Y-45329938D01*
X126115243Y-45324873D01*
X126268976Y-45291427D01*
X126345168Y-45274851D01*
X126362962Y-45272292D01*
X126593537Y-45255796D01*
X126601393Y-45255234D01*
X126605029Y-45255104D01*
X126606657Y-45255778D01*
X126608591Y-45254977D01*
X126610383Y-45254913D01*
X141073404Y-45254915D01*
G37*
G04 #@! TD.AperFunction*
M02*
