%TF.GenerationSoftware,KiCad,Pcbnew,(6.0.10)*%
%TF.CreationDate,2023-07-30T09:02:48-04:00*%
%TF.ProjectId,storyboard,73746f72-7962-46f6-9172-642e6b696361,rev?*%
%TF.SameCoordinates,Original*%
%TF.FileFunction,Soldermask,Bot*%
%TF.FilePolarity,Negative*%
%FSLAX46Y46*%
G04 Gerber Fmt 4.6, Leading zero omitted, Abs format (unit mm)*
G04 Created by KiCad (PCBNEW (6.0.10)) date 2023-07-30 09:02:48*
%MOMM*%
%LPD*%
G01*
G04 APERTURE LIST*
G04 Aperture macros list*
%AMRoundRect*
0 Rectangle with rounded corners*
0 $1 Rounding radius*
0 $2 $3 $4 $5 $6 $7 $8 $9 X,Y pos of 4 corners*
0 Add a 4 corners polygon primitive as box body*
4,1,4,$2,$3,$4,$5,$6,$7,$8,$9,$2,$3,0*
0 Add four circle primitives for the rounded corners*
1,1,$1+$1,$2,$3*
1,1,$1+$1,$4,$5*
1,1,$1+$1,$6,$7*
1,1,$1+$1,$8,$9*
0 Add four rect primitives between the rounded corners*
20,1,$1+$1,$2,$3,$4,$5,0*
20,1,$1+$1,$4,$5,$6,$7,0*
20,1,$1+$1,$6,$7,$8,$9,0*
20,1,$1+$1,$8,$9,$2,$3,0*%
G04 Aperture macros list end*
%ADD10C,6.000000*%
%ADD11C,1.597660*%
%ADD12C,1.099820*%
%ADD13R,0.299720X1.549400*%
%ADD14R,1.198880X2.748280*%
%ADD15RoundRect,0.150000X0.150000X0.275000X-0.150000X0.275000X-0.150000X-0.275000X0.150000X-0.275000X0*%
%ADD16RoundRect,0.175000X0.175000X0.225000X-0.175000X0.225000X-0.175000X-0.225000X0.175000X-0.225000X0*%
%ADD17RoundRect,0.150000X-0.150000X0.825000X-0.150000X-0.825000X0.150000X-0.825000X0.150000X0.825000X0*%
%ADD18RoundRect,0.250000X-0.450000X0.262500X-0.450000X-0.262500X0.450000X-0.262500X0.450000X0.262500X0*%
%ADD19RoundRect,0.250000X0.475000X-0.250000X0.475000X0.250000X-0.475000X0.250000X-0.475000X-0.250000X0*%
%ADD20RoundRect,0.250000X0.250000X0.475000X-0.250000X0.475000X-0.250000X-0.475000X0.250000X-0.475000X0*%
%ADD21C,2.000000*%
%ADD22RoundRect,0.250000X-0.262500X-0.450000X0.262500X-0.450000X0.262500X0.450000X-0.262500X0.450000X0*%
%ADD23C,1.701800*%
%ADD24C,3.000000*%
%ADD25C,3.987800*%
%ADD26R,2.550000X2.500000*%
%ADD27RoundRect,0.250000X0.450000X-0.262500X0.450000X0.262500X-0.450000X0.262500X-0.450000X-0.262500X0*%
%ADD28R,0.600000X0.700000*%
%ADD29R,1.700000X1.700000*%
%ADD30O,1.700000X1.700000*%
%ADD31C,2.700000*%
%ADD32R,2.000000X1.500000*%
%ADD33R,2.000000X3.800000*%
%ADD34R,0.700000X0.600000*%
%ADD35RoundRect,0.150000X0.825000X0.150000X-0.825000X0.150000X-0.825000X-0.150000X0.825000X-0.150000X0*%
%ADD36RoundRect,0.250000X0.262500X0.450000X-0.262500X0.450000X-0.262500X-0.450000X0.262500X-0.450000X0*%
G04 APERTURE END LIST*
D10*
%TO.C,J5*%
X207002040Y-65686864D03*
%TD*%
D11*
%TO.C,J3*%
X220999980Y-85945195D03*
D12*
X201000020Y-85945195D03*
D13*
X201751860Y-91218235D03*
X202000780Y-83671895D03*
X202252240Y-91218235D03*
X202501160Y-83671895D03*
X202750080Y-91218235D03*
X203001540Y-83671895D03*
X203250460Y-91218235D03*
X203501920Y-83671895D03*
X203750840Y-91218235D03*
X204002300Y-83671895D03*
X204251220Y-91218235D03*
X204500140Y-83671895D03*
X204751600Y-91218235D03*
X205000520Y-83671895D03*
X205251980Y-91218235D03*
X205500900Y-83671895D03*
X205752360Y-91218235D03*
X206001280Y-83671895D03*
X206250200Y-91218235D03*
X206501660Y-83671895D03*
X206750580Y-91218235D03*
X207002040Y-83671895D03*
X207250960Y-91218235D03*
X209501400Y-83671895D03*
X209750320Y-91218235D03*
X210001780Y-83671895D03*
X210250700Y-91218235D03*
X210502160Y-83671895D03*
X210751080Y-91218235D03*
X211000000Y-83671895D03*
X211248920Y-91218235D03*
X211497840Y-83671895D03*
X211749300Y-91218235D03*
X211998220Y-83671895D03*
X212249680Y-91218235D03*
X212498600Y-83671895D03*
X212747520Y-91218235D03*
X212998980Y-83671895D03*
X213247900Y-91218235D03*
X213499360Y-83671895D03*
X213748280Y-91218235D03*
X213999740Y-83671895D03*
X214248660Y-91218235D03*
X214497580Y-83671895D03*
X214749040Y-91218235D03*
X214997960Y-83671895D03*
X215249420Y-91218235D03*
X215498340Y-83671895D03*
X215749800Y-91218235D03*
X215998720Y-83671895D03*
X216247640Y-91218235D03*
X216499100Y-83671895D03*
X216748020Y-91218235D03*
X216999480Y-83671895D03*
X217248400Y-91218235D03*
X217499860Y-83671895D03*
X217748780Y-91218235D03*
X217997700Y-83671895D03*
X218249160Y-91218235D03*
X218498080Y-83671895D03*
X218749540Y-91218235D03*
X218998460Y-83671895D03*
X219249920Y-91218235D03*
X219498840Y-83671895D03*
X219747760Y-91218235D03*
X219999220Y-83671895D03*
X220248140Y-91218235D03*
D14*
X200652040Y-90443535D03*
X221347960Y-90443535D03*
%TD*%
D15*
%TO.C,J2*%
X206300000Y-45797893D03*
X205100000Y-45797893D03*
X203900000Y-45797893D03*
X202700000Y-45797893D03*
D16*
X201550000Y-49572893D03*
X207450000Y-49572893D03*
%TD*%
D17*
%TO.C,U3*%
X199155000Y-106775000D03*
X200425000Y-106775000D03*
X201695000Y-106775000D03*
X202965000Y-106775000D03*
X204235000Y-106775000D03*
X205505000Y-106775000D03*
X206775000Y-106775000D03*
X208045000Y-106775000D03*
X208045000Y-101825000D03*
X206775000Y-101825000D03*
X205505000Y-101825000D03*
X204235000Y-101825000D03*
X202965000Y-101825000D03*
X201695000Y-101825000D03*
X200425000Y-101825000D03*
X199155000Y-101825000D03*
%TD*%
%TO.C,U2*%
X186255000Y-101825000D03*
X187525000Y-101825000D03*
X188795000Y-101825000D03*
X190065000Y-101825000D03*
X191335000Y-101825000D03*
X192605000Y-101825000D03*
X193875000Y-101825000D03*
X195145000Y-101825000D03*
X195145000Y-106775000D03*
X193875000Y-106775000D03*
X192605000Y-106775000D03*
X191335000Y-106775000D03*
X190065000Y-106775000D03*
X188795000Y-106775000D03*
X187525000Y-106775000D03*
X186255000Y-106775000D03*
%TD*%
D18*
%TO.C,R17*%
X211300000Y-116277500D03*
X211300000Y-118102500D03*
%TD*%
D19*
%TO.C,C1*%
X198875000Y-118740000D03*
X198875000Y-116840000D03*
%TD*%
D20*
%TO.C,C2*%
X184349820Y-109993151D03*
X186249820Y-109993151D03*
%TD*%
%TO.C,C3*%
X197231646Y-109864912D03*
X199131646Y-109864912D03*
%TD*%
D21*
%TO.C,SW62*%
X196650000Y-128950000D03*
X190150000Y-128950000D03*
X196650000Y-133450000D03*
X190150000Y-133450000D03*
%TD*%
%TO.C,SW61*%
X185450000Y-128950000D03*
X178950000Y-128950000D03*
X185450000Y-133450000D03*
X178950000Y-133450000D03*
%TD*%
D22*
%TO.C,R16*%
X181087500Y-126400000D03*
X182912500Y-126400000D03*
%TD*%
D23*
%TO.C,SW51*%
X323410000Y-51800000D03*
D24*
X314520000Y-49260000D03*
D23*
X313250000Y-51800000D03*
D25*
X318330000Y-51800000D03*
D24*
X320870000Y-46720000D03*
D26*
X324620000Y-46720000D03*
X310770000Y-49260000D03*
%TD*%
D23*
%TO.C,SW16*%
X132730000Y-51800000D03*
D24*
X123840000Y-49260000D03*
D23*
X122570000Y-51800000D03*
D25*
X127650000Y-51800000D03*
D24*
X130190000Y-46720000D03*
D26*
X133940000Y-46720000D03*
X120090000Y-49260000D03*
%TD*%
D23*
%TO.C,SW9*%
X94730000Y-108800000D03*
D24*
X85840000Y-106260000D03*
D23*
X84570000Y-108800000D03*
D25*
X89650000Y-108800000D03*
D24*
X92190000Y-103720000D03*
D26*
X95940000Y-103720000D03*
X82090000Y-106260000D03*
%TD*%
D23*
%TO.C,SW35*%
X247410000Y-127800000D03*
D24*
X238520000Y-125260000D03*
D23*
X237250000Y-127800000D03*
D25*
X242330000Y-127800000D03*
D24*
X244870000Y-122720000D03*
D26*
X248620000Y-122720000D03*
X234770000Y-125260000D03*
%TD*%
D27*
%TO.C,R14*%
X178600000Y-119512500D03*
X178600000Y-117687500D03*
%TD*%
D23*
%TO.C,SW28*%
X170730000Y-89800000D03*
D24*
X161840000Y-87260000D03*
D23*
X160570000Y-89800000D03*
D25*
X165650000Y-89800000D03*
D24*
X168190000Y-84720000D03*
D26*
X171940000Y-84720000D03*
X158090000Y-87260000D03*
%TD*%
D23*
%TO.C,SW19*%
X132730000Y-108800000D03*
D24*
X123840000Y-106260000D03*
D23*
X122570000Y-108800000D03*
D25*
X127650000Y-108800000D03*
D24*
X130190000Y-103720000D03*
D26*
X133940000Y-103720000D03*
X120090000Y-106260000D03*
%TD*%
D23*
%TO.C,SW38*%
X266410000Y-89800000D03*
D24*
X257520000Y-87260000D03*
D23*
X256250000Y-89800000D03*
D25*
X261330000Y-89800000D03*
D24*
X263870000Y-84720000D03*
D26*
X267620000Y-84720000D03*
X253770000Y-87260000D03*
%TD*%
D23*
%TO.C,SW11*%
X113730000Y-51800000D03*
D24*
X104840000Y-49260000D03*
D23*
X103570000Y-51800000D03*
D25*
X108650000Y-51800000D03*
D24*
X111190000Y-46720000D03*
D26*
X114940000Y-46720000D03*
X101090000Y-49260000D03*
%TD*%
D23*
%TO.C,SW15*%
X113730000Y-127800000D03*
D24*
X104840000Y-125260000D03*
D23*
X103570000Y-127800000D03*
D25*
X108650000Y-127800000D03*
D24*
X111190000Y-122720000D03*
D26*
X114940000Y-122720000D03*
X101090000Y-125260000D03*
%TD*%
D23*
%TO.C,SW47*%
X304410000Y-70800000D03*
D24*
X295520000Y-68260000D03*
D23*
X294250000Y-70800000D03*
D25*
X299330000Y-70800000D03*
D24*
X301870000Y-65720000D03*
D26*
X305620000Y-65720000D03*
X291770000Y-68260000D03*
%TD*%
D23*
%TO.C,SW17*%
X132730000Y-70800000D03*
D24*
X123840000Y-68260000D03*
D23*
X122570000Y-70800000D03*
D25*
X127650000Y-70800000D03*
D24*
X130190000Y-65720000D03*
D26*
X133940000Y-65720000D03*
X120090000Y-68260000D03*
%TD*%
D22*
%TO.C,R20*%
X217527500Y-94488000D03*
X219352500Y-94488000D03*
%TD*%
D23*
%TO.C,SW23*%
X151730000Y-89800000D03*
D24*
X142840000Y-87260000D03*
D23*
X141570000Y-89800000D03*
D25*
X146650000Y-89800000D03*
D24*
X149190000Y-84720000D03*
D26*
X152940000Y-84720000D03*
X139090000Y-87260000D03*
%TD*%
D23*
%TO.C,SW41*%
X285410000Y-51800000D03*
D24*
X276520000Y-49260000D03*
D23*
X275250000Y-51800000D03*
D25*
X280330000Y-51800000D03*
D24*
X282870000Y-46720000D03*
D26*
X286620000Y-46720000D03*
X272770000Y-49260000D03*
%TD*%
D23*
%TO.C,SW13*%
X113730000Y-89800000D03*
D24*
X104840000Y-87260000D03*
D23*
X103570000Y-89800000D03*
D25*
X108650000Y-89800000D03*
D24*
X111190000Y-84720000D03*
D26*
X114940000Y-84720000D03*
X101090000Y-87260000D03*
%TD*%
D23*
%TO.C,SW44*%
X285410000Y-108800000D03*
D24*
X276520000Y-106260000D03*
D23*
X275250000Y-108800000D03*
D25*
X280330000Y-108800000D03*
D24*
X282870000Y-103720000D03*
D26*
X286620000Y-103720000D03*
X272770000Y-106260000D03*
%TD*%
D23*
%TO.C,SW45*%
X285410000Y-127800000D03*
D24*
X276520000Y-125260000D03*
D23*
X275250000Y-127800000D03*
D25*
X280330000Y-127800000D03*
D24*
X282870000Y-122720000D03*
D26*
X286620000Y-122720000D03*
X272770000Y-125260000D03*
%TD*%
D23*
%TO.C,SW56*%
X342330000Y-51800000D03*
D24*
X333440000Y-49260000D03*
D23*
X332170000Y-51800000D03*
D25*
X337250000Y-51800000D03*
D24*
X339790000Y-46720000D03*
D26*
X343540000Y-46720000D03*
X329690000Y-49260000D03*
%TD*%
D23*
%TO.C,SW8*%
X94730000Y-89800000D03*
D24*
X85840000Y-87260000D03*
D23*
X84570000Y-89800000D03*
D25*
X89650000Y-89800000D03*
D24*
X92190000Y-84720000D03*
D26*
X95940000Y-84720000D03*
X82090000Y-87260000D03*
%TD*%
D23*
%TO.C,SW59*%
X342330000Y-108800000D03*
D24*
X333440000Y-106260000D03*
D23*
X332170000Y-108800000D03*
D25*
X337250000Y-108800000D03*
D24*
X339790000Y-103720000D03*
D26*
X343540000Y-103720000D03*
X329690000Y-106260000D03*
%TD*%
D23*
%TO.C,SW34*%
X247410000Y-108800000D03*
D24*
X238520000Y-106260000D03*
D23*
X237250000Y-108800000D03*
D25*
X242330000Y-108800000D03*
D24*
X244870000Y-103720000D03*
D26*
X248620000Y-103720000D03*
X234770000Y-106260000D03*
%TD*%
D23*
%TO.C,SW26*%
X170730000Y-51800000D03*
D24*
X161840000Y-49260000D03*
D23*
X160570000Y-51800000D03*
D25*
X165650000Y-51800000D03*
D24*
X168190000Y-46720000D03*
D26*
X171940000Y-46720000D03*
X158090000Y-49260000D03*
%TD*%
D22*
%TO.C,R18*%
X211177500Y-94488000D03*
X213002500Y-94488000D03*
%TD*%
D23*
%TO.C,SW36*%
X266410000Y-51800000D03*
D24*
X257520000Y-49260000D03*
D23*
X256250000Y-51800000D03*
D25*
X261330000Y-51800000D03*
D24*
X263870000Y-46720000D03*
D26*
X267620000Y-46720000D03*
X253770000Y-49260000D03*
%TD*%
D23*
%TO.C,SW25*%
X151730000Y-127800000D03*
D24*
X142840000Y-125260000D03*
D23*
X141570000Y-127800000D03*
D25*
X146650000Y-127800000D03*
D24*
X149190000Y-122720000D03*
D26*
X152940000Y-122720000D03*
X139090000Y-125260000D03*
%TD*%
D23*
%TO.C,SW50*%
X304410000Y-127800000D03*
D24*
X295520000Y-125260000D03*
D23*
X294250000Y-127800000D03*
D25*
X299330000Y-127800000D03*
D24*
X301870000Y-122720000D03*
D26*
X305620000Y-122720000D03*
X291770000Y-125260000D03*
%TD*%
D23*
%TO.C,SW54*%
X323410000Y-108800000D03*
D24*
X314520000Y-106260000D03*
D23*
X313250000Y-108800000D03*
D25*
X318330000Y-108800000D03*
D24*
X320870000Y-103720000D03*
D26*
X324620000Y-103720000D03*
X310770000Y-106260000D03*
%TD*%
D23*
%TO.C,SW53*%
X323410000Y-89800000D03*
D24*
X314520000Y-87260000D03*
D23*
X313250000Y-89800000D03*
D25*
X318330000Y-89800000D03*
D24*
X320870000Y-84720000D03*
D26*
X324620000Y-84720000D03*
X310770000Y-87260000D03*
%TD*%
D23*
%TO.C,SW37*%
X266410000Y-70800000D03*
D24*
X257520000Y-68260000D03*
D23*
X256250000Y-70800000D03*
D25*
X261330000Y-70800000D03*
D24*
X263870000Y-65720000D03*
D26*
X267620000Y-65720000D03*
X253770000Y-68260000D03*
%TD*%
D23*
%TO.C,SW18*%
X132730000Y-89800000D03*
D24*
X123840000Y-87260000D03*
D23*
X122570000Y-89800000D03*
D25*
X127650000Y-89800000D03*
D24*
X130190000Y-84720000D03*
D26*
X133940000Y-84720000D03*
X120090000Y-87260000D03*
%TD*%
D23*
%TO.C,SW4*%
X75730000Y-108800000D03*
D24*
X66840000Y-106260000D03*
D23*
X65570000Y-108800000D03*
D25*
X70650000Y-108800000D03*
D24*
X73190000Y-103720000D03*
D26*
X76940000Y-103720000D03*
X63090000Y-106260000D03*
%TD*%
D28*
%TO.C,D73*%
X215054000Y-128016000D03*
X216454000Y-128016000D03*
%TD*%
D23*
%TO.C,SW46*%
X304410000Y-51800000D03*
D24*
X295520000Y-49260000D03*
D23*
X294250000Y-51800000D03*
D25*
X299330000Y-51800000D03*
D24*
X301870000Y-46720000D03*
D26*
X305620000Y-46720000D03*
X291770000Y-49260000D03*
%TD*%
D23*
%TO.C,SW33*%
X247410000Y-89800000D03*
D24*
X238520000Y-87260000D03*
D23*
X237250000Y-89800000D03*
D25*
X242330000Y-89800000D03*
D24*
X244870000Y-84720000D03*
D26*
X248620000Y-84720000D03*
X234770000Y-87260000D03*
%TD*%
D23*
%TO.C,SW14*%
X113730000Y-108800000D03*
D24*
X104840000Y-106260000D03*
D23*
X103570000Y-108800000D03*
D25*
X108650000Y-108800000D03*
D24*
X111190000Y-103720000D03*
D26*
X114940000Y-103720000D03*
X101090000Y-106260000D03*
%TD*%
D23*
%TO.C,SW52*%
X323410000Y-70800000D03*
D24*
X314520000Y-68260000D03*
D23*
X313250000Y-70800000D03*
D25*
X318330000Y-70800000D03*
D24*
X320870000Y-65720000D03*
D26*
X324620000Y-65720000D03*
X310770000Y-68260000D03*
%TD*%
D23*
%TO.C,SW3*%
X75730000Y-89800000D03*
D24*
X66840000Y-87260000D03*
D23*
X65570000Y-89800000D03*
D25*
X70650000Y-89800000D03*
D24*
X73190000Y-84720000D03*
D26*
X76940000Y-84720000D03*
X63090000Y-87260000D03*
%TD*%
D23*
%TO.C,SW58*%
X342330000Y-89800000D03*
D24*
X333440000Y-87260000D03*
D23*
X332170000Y-89800000D03*
D25*
X337250000Y-89800000D03*
D24*
X339790000Y-84720000D03*
D26*
X343540000Y-84720000D03*
X329690000Y-87260000D03*
%TD*%
D23*
%TO.C,SW40*%
X266410000Y-127800000D03*
D24*
X257520000Y-125260000D03*
D23*
X256250000Y-127800000D03*
D25*
X261330000Y-127800000D03*
D24*
X263870000Y-122720000D03*
D26*
X267620000Y-122720000D03*
X253770000Y-125260000D03*
%TD*%
D23*
%TO.C,SW43*%
X285410000Y-89800000D03*
D24*
X276520000Y-87260000D03*
D23*
X275250000Y-89800000D03*
D25*
X280330000Y-89800000D03*
D24*
X282870000Y-84720000D03*
D26*
X286620000Y-84720000D03*
X272770000Y-87260000D03*
%TD*%
D23*
%TO.C,SW55*%
X323410000Y-127800000D03*
D24*
X314520000Y-125260000D03*
D23*
X313250000Y-127800000D03*
D25*
X318330000Y-127800000D03*
D24*
X320870000Y-122720000D03*
D26*
X324620000Y-122720000D03*
X310770000Y-125260000D03*
%TD*%
D23*
%TO.C,SW12*%
X113730000Y-70800000D03*
D24*
X104840000Y-68260000D03*
D23*
X103570000Y-70800000D03*
D25*
X108650000Y-70800000D03*
D24*
X111190000Y-65720000D03*
D26*
X114940000Y-65720000D03*
X101090000Y-68260000D03*
%TD*%
D22*
%TO.C,R15*%
X192287500Y-126200000D03*
X194112500Y-126200000D03*
%TD*%
D23*
%TO.C,SW6*%
X94730000Y-51800000D03*
D24*
X85840000Y-49260000D03*
D23*
X84570000Y-51800000D03*
D25*
X89650000Y-51800000D03*
D24*
X92190000Y-46720000D03*
D26*
X95940000Y-46720000D03*
X82090000Y-49260000D03*
%TD*%
D23*
%TO.C,SW21*%
X151730000Y-51800000D03*
D24*
X142840000Y-49260000D03*
D23*
X141570000Y-51800000D03*
D25*
X146650000Y-51800000D03*
D24*
X149190000Y-46720000D03*
D26*
X152940000Y-46720000D03*
X139090000Y-49260000D03*
%TD*%
D23*
%TO.C,SW48*%
X304410000Y-89800000D03*
D24*
X295520000Y-87260000D03*
D23*
X294250000Y-89800000D03*
D25*
X299330000Y-89800000D03*
D24*
X301870000Y-84720000D03*
D26*
X305620000Y-84720000D03*
X291770000Y-87260000D03*
%TD*%
D29*
%TO.C,J1*%
X224023000Y-133096000D03*
D30*
X221483000Y-133096000D03*
X218943000Y-133096000D03*
X216403000Y-133096000D03*
X213863000Y-133096000D03*
%TD*%
D23*
%TO.C,SW32*%
X247410000Y-70800000D03*
D24*
X238520000Y-68260000D03*
D23*
X237250000Y-70800000D03*
D25*
X242330000Y-70800000D03*
D24*
X244870000Y-65720000D03*
D26*
X248620000Y-65720000D03*
X234770000Y-68260000D03*
%TD*%
D23*
%TO.C,SW5*%
X75730000Y-127800000D03*
D24*
X66840000Y-125260000D03*
D23*
X65570000Y-127800000D03*
D25*
X70650000Y-127800000D03*
D24*
X73190000Y-122720000D03*
D26*
X76940000Y-122720000D03*
X63090000Y-125260000D03*
%TD*%
D23*
%TO.C,SW39*%
X266410000Y-108800000D03*
D24*
X257520000Y-106260000D03*
D23*
X256250000Y-108800000D03*
D25*
X261330000Y-108800000D03*
D24*
X263870000Y-103720000D03*
D26*
X267620000Y-103720000D03*
X253770000Y-106260000D03*
%TD*%
D23*
%TO.C,SW49*%
X304410000Y-108800000D03*
D24*
X295520000Y-106260000D03*
D23*
X294250000Y-108800000D03*
D25*
X299330000Y-108800000D03*
D24*
X301870000Y-103720000D03*
D26*
X305620000Y-103720000D03*
X291770000Y-106260000D03*
%TD*%
D23*
%TO.C,SW20*%
X132730000Y-127800000D03*
D24*
X123840000Y-125260000D03*
D23*
X122570000Y-127800000D03*
D25*
X127650000Y-127800000D03*
D24*
X130190000Y-122720000D03*
D26*
X133940000Y-122720000D03*
X120090000Y-125260000D03*
%TD*%
D23*
%TO.C,SW7*%
X94730000Y-70800000D03*
D24*
X85840000Y-68260000D03*
D23*
X84570000Y-70800000D03*
D25*
X89650000Y-70800000D03*
D24*
X92190000Y-65720000D03*
D26*
X95940000Y-65720000D03*
X82090000Y-68260000D03*
%TD*%
D23*
%TO.C,SW29*%
X170730000Y-108800000D03*
D24*
X161840000Y-106260000D03*
D23*
X160570000Y-108800000D03*
D25*
X165650000Y-108800000D03*
D24*
X168190000Y-103720000D03*
D26*
X171940000Y-103720000D03*
X158090000Y-106260000D03*
%TD*%
D23*
%TO.C,SW57*%
X342330000Y-70800000D03*
D24*
X333440000Y-68260000D03*
D23*
X332170000Y-70800000D03*
D25*
X337250000Y-70800000D03*
D24*
X339790000Y-65720000D03*
D26*
X343540000Y-65720000D03*
X329690000Y-68260000D03*
%TD*%
D23*
%TO.C,SW10*%
X94730000Y-127800000D03*
D24*
X85840000Y-125260000D03*
D23*
X84570000Y-127800000D03*
D25*
X89650000Y-127800000D03*
D24*
X92190000Y-122720000D03*
D26*
X95940000Y-122720000D03*
X82090000Y-125260000D03*
%TD*%
D23*
%TO.C,SW42*%
X285410000Y-70800000D03*
D24*
X276520000Y-68260000D03*
D23*
X275250000Y-70800000D03*
D25*
X280330000Y-70800000D03*
D24*
X282870000Y-65720000D03*
D26*
X286620000Y-65720000D03*
X272770000Y-68260000D03*
%TD*%
D23*
%TO.C,SW27*%
X170730000Y-70800000D03*
D24*
X161840000Y-68260000D03*
D23*
X160570000Y-70800000D03*
D25*
X165650000Y-70800000D03*
D24*
X168190000Y-65720000D03*
D26*
X171940000Y-65720000D03*
X158090000Y-68260000D03*
%TD*%
D23*
%TO.C,SW24*%
X151730000Y-108800000D03*
D24*
X142840000Y-106260000D03*
D23*
X141570000Y-108800000D03*
D25*
X146650000Y-108800000D03*
D24*
X149190000Y-103720000D03*
D26*
X152940000Y-103720000D03*
X139090000Y-106260000D03*
%TD*%
D23*
%TO.C,SW60*%
X342330000Y-127800000D03*
D24*
X333440000Y-125260000D03*
D23*
X332170000Y-127800000D03*
D25*
X337250000Y-127800000D03*
D24*
X339790000Y-122720000D03*
D26*
X343540000Y-122720000D03*
X329690000Y-125260000D03*
%TD*%
D23*
%TO.C,SW30*%
X170730000Y-127800000D03*
D24*
X161840000Y-125260000D03*
D23*
X160570000Y-127800000D03*
D25*
X165650000Y-127800000D03*
D24*
X168190000Y-122720000D03*
D26*
X171940000Y-122720000D03*
X158090000Y-125260000D03*
%TD*%
D31*
%TO.C,J4*%
X228500000Y-50300000D03*
X179000000Y-108300000D03*
X228500000Y-108300000D03*
X179000000Y-50300000D03*
D29*
X226868000Y-54988000D03*
D30*
X229408000Y-54988000D03*
X226868000Y-57528000D03*
X229408000Y-57528000D03*
X226868000Y-60068000D03*
X229408000Y-60068000D03*
X226868000Y-62608000D03*
X229408000Y-62608000D03*
X226868000Y-65148000D03*
X229408000Y-65148000D03*
X226868000Y-67688000D03*
X229408000Y-67688000D03*
X226868000Y-70228000D03*
X229408000Y-70228000D03*
X226868000Y-72768000D03*
X229408000Y-72768000D03*
X226868000Y-75308000D03*
X229408000Y-75308000D03*
X226868000Y-77848000D03*
X229408000Y-77848000D03*
X226868000Y-80388000D03*
X229408000Y-80388000D03*
X226868000Y-82928000D03*
X229408000Y-82928000D03*
X226868000Y-85468000D03*
X229408000Y-85468000D03*
X226868000Y-88008000D03*
X229408000Y-88008000D03*
X226868000Y-90548000D03*
X229408000Y-90548000D03*
X226868000Y-93088000D03*
X229408000Y-93088000D03*
X226868000Y-95628000D03*
X229408000Y-95628000D03*
X226868000Y-98168000D03*
X229408000Y-98168000D03*
X226868000Y-100708000D03*
X229408000Y-100708000D03*
X226868000Y-103248000D03*
X229408000Y-103248000D03*
%TD*%
D23*
%TO.C,SW31*%
X247410000Y-51800000D03*
D24*
X238520000Y-49260000D03*
D23*
X237250000Y-51800000D03*
D25*
X242330000Y-51800000D03*
D24*
X244870000Y-46720000D03*
D26*
X248620000Y-46720000D03*
X234770000Y-49260000D03*
%TD*%
D23*
%TO.C,SW1*%
X75730000Y-51800000D03*
D24*
X66840000Y-49260000D03*
D23*
X65570000Y-51800000D03*
D25*
X70650000Y-51800000D03*
D24*
X73190000Y-46720000D03*
D26*
X76940000Y-46720000D03*
X63090000Y-49260000D03*
%TD*%
D23*
%TO.C,SW22*%
X151730000Y-70800000D03*
D24*
X142840000Y-68260000D03*
D23*
X141570000Y-70800000D03*
D25*
X146650000Y-70800000D03*
D24*
X149190000Y-65720000D03*
D26*
X152940000Y-65720000D03*
X139090000Y-68260000D03*
%TD*%
D23*
%TO.C,SW2*%
X75730000Y-70800000D03*
D24*
X66840000Y-68260000D03*
D23*
X65570000Y-70800000D03*
D25*
X70650000Y-70800000D03*
D24*
X73190000Y-65720000D03*
D26*
X76940000Y-65720000D03*
X63090000Y-68260000D03*
%TD*%
D32*
%TO.C,U4*%
X191750000Y-63700000D03*
D33*
X185450000Y-66000000D03*
D32*
X191750000Y-66000000D03*
X191750000Y-68300000D03*
%TD*%
D18*
%TO.C,R11*%
X308800000Y-62187500D03*
X308800000Y-64012500D03*
%TD*%
D34*
%TO.C,D8*%
X82100000Y-58800000D03*
X82100000Y-57400000D03*
%TD*%
D18*
%TO.C,R6*%
X156200000Y-62087500D03*
X156200000Y-63912500D03*
%TD*%
D34*
%TO.C,D35*%
X158100000Y-115800000D03*
X158100000Y-114400000D03*
%TD*%
%TO.C,D56*%
X291800000Y-58800000D03*
X291800000Y-57400000D03*
%TD*%
%TO.C,D21*%
X120100000Y-96900000D03*
X120100000Y-95500000D03*
%TD*%
%TO.C,D9*%
X82200000Y-77800000D03*
X82200000Y-76400000D03*
%TD*%
%TO.C,D33*%
X158100000Y-77800000D03*
X158100000Y-76400000D03*
%TD*%
%TO.C,D57*%
X291800000Y-77875000D03*
X291800000Y-76475000D03*
%TD*%
%TO.C,D7*%
X95900000Y-119000000D03*
X95900000Y-117600000D03*
%TD*%
%TO.C,D34*%
X158200000Y-96900000D03*
X158200000Y-95500000D03*
%TD*%
%TO.C,D62*%
X310800000Y-58850000D03*
X310800000Y-57450000D03*
%TD*%
%TO.C,D36*%
X158200000Y-131700000D03*
X158200000Y-130300000D03*
%TD*%
%TO.C,D15*%
X101100000Y-77800000D03*
X101100000Y-76400000D03*
%TD*%
%TO.C,D11*%
X82100000Y-115800000D03*
X82100000Y-114400000D03*
%TD*%
%TO.C,D17*%
X101100000Y-115800000D03*
X101100000Y-114400000D03*
%TD*%
%TO.C,D29*%
X139100000Y-115800000D03*
X139100000Y-114400000D03*
%TD*%
%TO.C,D39*%
X234800000Y-77900000D03*
X234800000Y-76500000D03*
%TD*%
%TO.C,D49*%
X286600000Y-119000000D03*
X286600000Y-117600000D03*
%TD*%
%TO.C,D40*%
X234800000Y-96800000D03*
X234800000Y-95400000D03*
%TD*%
D18*
%TO.C,R12*%
X327800000Y-62000000D03*
X327800000Y-63825000D03*
%TD*%
D34*
%TO.C,D63*%
X310800000Y-77850000D03*
X310800000Y-76450000D03*
%TD*%
%TO.C,D59*%
X291800000Y-115800000D03*
X291800000Y-114400000D03*
%TD*%
%TO.C,D24*%
X120100000Y-77800000D03*
X120100000Y-76400000D03*
%TD*%
%TO.C,D32*%
X158100000Y-58800000D03*
X158100000Y-57400000D03*
%TD*%
%TO.C,D12*%
X82200000Y-134900000D03*
X82200000Y-133500000D03*
%TD*%
%TO.C,D20*%
X120200000Y-58800000D03*
X120200000Y-57400000D03*
%TD*%
%TO.C,D42*%
X234800000Y-134800000D03*
X234800000Y-133400000D03*
%TD*%
%TO.C,D38*%
X234750000Y-58800000D03*
X234750000Y-57400000D03*
%TD*%
D35*
%TO.C,U1*%
X207350000Y-116850000D03*
X207350000Y-118120000D03*
X207350000Y-119390000D03*
X207350000Y-120660000D03*
X207350000Y-121930000D03*
X207350000Y-123200000D03*
X207350000Y-124470000D03*
X202400000Y-124470000D03*
X202400000Y-123200000D03*
X202400000Y-121930000D03*
X202400000Y-120660000D03*
X202400000Y-119390000D03*
X202400000Y-118120000D03*
X202400000Y-116850000D03*
%TD*%
D34*
%TO.C,D46*%
X253800000Y-96800000D03*
X253800000Y-95400000D03*
%TD*%
%TO.C,D4*%
X63200000Y-96900000D03*
X63200000Y-95500000D03*
%TD*%
%TO.C,D45*%
X253800000Y-77900000D03*
X253800000Y-76500000D03*
%TD*%
%TO.C,D47*%
X253800000Y-115800000D03*
X253800000Y-114400000D03*
%TD*%
%TO.C,D28*%
X139100000Y-96800000D03*
X139100000Y-95400000D03*
%TD*%
%TO.C,D54*%
X272800000Y-134800000D03*
X272800000Y-133400000D03*
%TD*%
%TO.C,D61*%
X324600000Y-119000000D03*
X324600000Y-117600000D03*
%TD*%
%TO.C,D50*%
X272750000Y-58800000D03*
X272750000Y-57400000D03*
%TD*%
%TO.C,D58*%
X291800000Y-96800000D03*
X291800000Y-95400000D03*
%TD*%
%TO.C,D22*%
X120100000Y-115800000D03*
X120100000Y-114400000D03*
%TD*%
%TO.C,D66*%
X310800000Y-134900000D03*
X310800000Y-133500000D03*
%TD*%
%TO.C,D13*%
X114900000Y-119000000D03*
X114900000Y-117600000D03*
%TD*%
%TO.C,D68*%
X329700000Y-58800000D03*
X329700000Y-57400000D03*
%TD*%
%TO.C,D72*%
X329700000Y-134800000D03*
X329700000Y-133400000D03*
%TD*%
%TO.C,D41*%
X234800000Y-115900000D03*
X234800000Y-114500000D03*
%TD*%
%TO.C,D44*%
X253800000Y-58800000D03*
X253800000Y-57400000D03*
%TD*%
%TO.C,D69*%
X329800000Y-77800000D03*
X329800000Y-76400000D03*
%TD*%
%TO.C,D70*%
X329700000Y-96800000D03*
X329700000Y-95400000D03*
%TD*%
%TO.C,D65*%
X310800000Y-115800000D03*
X310800000Y-114400000D03*
%TD*%
D18*
%TO.C,R1*%
X198800000Y-121377500D03*
X198800000Y-123202500D03*
%TD*%
D34*
%TO.C,D6*%
X63200000Y-134900000D03*
X63200000Y-133500000D03*
%TD*%
%TO.C,D10*%
X82200000Y-96800000D03*
X82200000Y-95400000D03*
%TD*%
%TO.C,D31*%
X172000000Y-119000000D03*
X172000000Y-117600000D03*
%TD*%
%TO.C,D67*%
X343500000Y-119000000D03*
X343500000Y-117600000D03*
%TD*%
D19*
%TO.C,C4*%
X196200000Y-63750000D03*
X196200000Y-61850000D03*
%TD*%
D36*
%TO.C,R19*%
X202412500Y-126690000D03*
X200587500Y-126690000D03*
%TD*%
D34*
%TO.C,D3*%
X63200000Y-77800000D03*
X63200000Y-76400000D03*
%TD*%
%TO.C,D18*%
X101100000Y-134800000D03*
X101100000Y-133400000D03*
%TD*%
%TO.C,D16*%
X101200000Y-96900000D03*
X101200000Y-95500000D03*
%TD*%
D18*
%TO.C,R8*%
X251800000Y-62187500D03*
X251800000Y-64012500D03*
%TD*%
%TO.C,R13*%
X343600000Y-60387500D03*
X343600000Y-62212500D03*
%TD*%
D19*
%TO.C,C5*%
X196200000Y-68350000D03*
X196200000Y-66450000D03*
%TD*%
D34*
%TO.C,D23*%
X120100000Y-134800000D03*
X120100000Y-133400000D03*
%TD*%
%TO.C,D2*%
X63100000Y-58850000D03*
X63100000Y-57450000D03*
%TD*%
%TO.C,D30*%
X139100000Y-134800000D03*
X139100000Y-133400000D03*
%TD*%
%TO.C,D25*%
X152900000Y-119000000D03*
X152900000Y-117600000D03*
%TD*%
%TO.C,D1*%
X76900000Y-119000000D03*
X76900000Y-117600000D03*
%TD*%
%TO.C,D60*%
X291800000Y-132100000D03*
X291800000Y-130700000D03*
%TD*%
%TO.C,D5*%
X63100000Y-115900000D03*
X63100000Y-114500000D03*
%TD*%
D18*
%TO.C,R5*%
X137200000Y-62087500D03*
X137200000Y-63912500D03*
%TD*%
%TO.C,R7*%
X175000000Y-62087500D03*
X175000000Y-63912500D03*
%TD*%
%TO.C,R10*%
X289800000Y-62187500D03*
X289800000Y-64012500D03*
%TD*%
D34*
%TO.C,D26*%
X139100000Y-58800000D03*
X139100000Y-57400000D03*
%TD*%
%TO.C,D51*%
X272800000Y-77900000D03*
X272800000Y-76500000D03*
%TD*%
D18*
%TO.C,R9*%
X270800000Y-62187500D03*
X270800000Y-64012500D03*
%TD*%
D34*
%TO.C,D27*%
X139100000Y-77800000D03*
X139100000Y-76400000D03*
%TD*%
%TO.C,D55*%
X305600000Y-119000000D03*
X305600000Y-117600000D03*
%TD*%
%TO.C,D71*%
X329800000Y-115900000D03*
X329800000Y-114500000D03*
%TD*%
%TO.C,D52*%
X272800000Y-96800000D03*
X272800000Y-95400000D03*
%TD*%
%TO.C,D64*%
X310800000Y-96800000D03*
X310800000Y-95400000D03*
%TD*%
%TO.C,D37*%
X248600000Y-119000000D03*
X248600000Y-117600000D03*
%TD*%
%TO.C,D43*%
X267600000Y-119000000D03*
X267600000Y-117600000D03*
%TD*%
%TO.C,D53*%
X272800000Y-115800000D03*
X272800000Y-114400000D03*
%TD*%
%TO.C,D14*%
X101200000Y-58900000D03*
X101200000Y-57500000D03*
%TD*%
%TO.C,D48*%
X253800000Y-134900000D03*
X253800000Y-133500000D03*
%TD*%
D18*
%TO.C,R3*%
X99200000Y-62087500D03*
X99200000Y-63912500D03*
%TD*%
%TO.C,R4*%
X118200000Y-62087500D03*
X118200000Y-63912500D03*
%TD*%
D34*
%TO.C,D19*%
X134000000Y-119000000D03*
X134000000Y-117600000D03*
%TD*%
D18*
%TO.C,R2*%
X80200000Y-62087500D03*
X80200000Y-63912500D03*
%TD*%
M02*
