%TF.GenerationSoftware,KiCad,Pcbnew,(6.0.10)*%
%TF.CreationDate,2023-07-28T11:59:27-04:00*%
%TF.ProjectId,storyboard,73746f72-7962-46f6-9172-642e6b696361,rev?*%
%TF.SameCoordinates,Original*%
%TF.FileFunction,Soldermask,Top*%
%TF.FilePolarity,Negative*%
%FSLAX46Y46*%
G04 Gerber Fmt 4.6, Leading zero omitted, Abs format (unit mm)*
G04 Created by KiCad (PCBNEW (6.0.10)) date 2023-07-28 11:59:27*
%MOMM*%
%LPD*%
G01*
G04 APERTURE LIST*
G04 Aperture macros list*
%AMRoundRect*
0 Rectangle with rounded corners*
0 $1 Rounding radius*
0 $2 $3 $4 $5 $6 $7 $8 $9 X,Y pos of 4 corners*
0 Add a 4 corners polygon primitive as box body*
4,1,4,$2,$3,$4,$5,$6,$7,$8,$9,$2,$3,0*
0 Add four circle primitives for the rounded corners*
1,1,$1+$1,$2,$3*
1,1,$1+$1,$4,$5*
1,1,$1+$1,$6,$7*
1,1,$1+$1,$8,$9*
0 Add four rect primitives between the rounded corners*
20,1,$1+$1,$2,$3,$4,$5,0*
20,1,$1+$1,$4,$5,$6,$7,0*
20,1,$1+$1,$6,$7,$8,$9,0*
20,1,$1+$1,$8,$9,$2,$3,0*%
G04 Aperture macros list end*
%ADD10R,0.600000X0.700000*%
%ADD11C,1.701800*%
%ADD12C,3.000000*%
%ADD13C,3.987800*%
%ADD14C,2.700000*%
%ADD15R,1.700000X1.700000*%
%ADD16O,1.700000X1.700000*%
%ADD17C,1.597660*%
%ADD18C,6.000000*%
%ADD19C,1.099820*%
%ADD20R,0.299720X1.549400*%
%ADD21R,1.198880X2.748280*%
%ADD22RoundRect,0.250000X-0.450000X0.262500X-0.450000X-0.262500X0.450000X-0.262500X0.450000X0.262500X0*%
%ADD23R,1.600000X1.400000*%
%ADD24RoundRect,0.150000X0.150000X-0.825000X0.150000X0.825000X-0.150000X0.825000X-0.150000X-0.825000X0*%
%ADD25RoundRect,0.250000X-0.250000X-0.475000X0.250000X-0.475000X0.250000X0.475000X-0.250000X0.475000X0*%
%ADD26RoundRect,0.250000X0.450000X-0.262500X0.450000X0.262500X-0.450000X0.262500X-0.450000X-0.262500X0*%
G04 APERTURE END LIST*
D10*
%TO.C,D73*%
X213800000Y-125900000D03*
X212400000Y-125900000D03*
%TD*%
D11*
%TO.C,SW2*%
X75730000Y-70800000D03*
D12*
X66840000Y-68260000D03*
D11*
X65570000Y-70800000D03*
D13*
X70650000Y-70800000D03*
D12*
X73190000Y-65720000D03*
%TD*%
D11*
%TO.C,SW22*%
X151730000Y-70800000D03*
D12*
X142840000Y-68260000D03*
D11*
X141570000Y-70800000D03*
D13*
X146650000Y-70800000D03*
D12*
X149190000Y-65720000D03*
%TD*%
D11*
%TO.C,SW1*%
X75730000Y-51800000D03*
D12*
X66840000Y-49260000D03*
D11*
X65570000Y-51800000D03*
D13*
X70650000Y-51800000D03*
D12*
X73190000Y-46720000D03*
%TD*%
D11*
%TO.C,SW31*%
X247410000Y-51800000D03*
D12*
X238520000Y-49260000D03*
D11*
X237250000Y-51800000D03*
D13*
X242330000Y-51800000D03*
D12*
X244870000Y-46720000D03*
%TD*%
D14*
%TO.C,J4*%
X228500000Y-50300000D03*
X179000000Y-108300000D03*
X228500000Y-108300000D03*
X179000000Y-50300000D03*
D15*
X226868000Y-54988000D03*
D16*
X229408000Y-54988000D03*
X226868000Y-57528000D03*
X229408000Y-57528000D03*
X226868000Y-60068000D03*
X229408000Y-60068000D03*
X226868000Y-62608000D03*
X229408000Y-62608000D03*
X226868000Y-65148000D03*
X229408000Y-65148000D03*
X226868000Y-67688000D03*
X229408000Y-67688000D03*
X226868000Y-70228000D03*
X229408000Y-70228000D03*
X226868000Y-72768000D03*
X229408000Y-72768000D03*
X226868000Y-75308000D03*
X229408000Y-75308000D03*
X226868000Y-77848000D03*
X229408000Y-77848000D03*
X226868000Y-80388000D03*
X229408000Y-80388000D03*
X226868000Y-82928000D03*
X229408000Y-82928000D03*
X226868000Y-85468000D03*
X229408000Y-85468000D03*
X226868000Y-88008000D03*
X229408000Y-88008000D03*
X226868000Y-90548000D03*
X229408000Y-90548000D03*
X226868000Y-93088000D03*
X229408000Y-93088000D03*
X226868000Y-95628000D03*
X229408000Y-95628000D03*
X226868000Y-98168000D03*
X229408000Y-98168000D03*
X226868000Y-100708000D03*
X229408000Y-100708000D03*
X226868000Y-103248000D03*
X229408000Y-103248000D03*
%TD*%
D17*
%TO.C,J3*%
X210599980Y-68654805D03*
D18*
X196602040Y-88903685D03*
D19*
X190600020Y-68654805D03*
D20*
X191351860Y-63381765D03*
X191600780Y-70928105D03*
X191852240Y-63381765D03*
X192101160Y-70928105D03*
X192350080Y-63381765D03*
X192601540Y-70928105D03*
X192850460Y-63381765D03*
X193101920Y-70928105D03*
X193350840Y-63381765D03*
X193602300Y-70928105D03*
X193851220Y-63381765D03*
X194100140Y-70928105D03*
X194351600Y-63381765D03*
X194600520Y-70928105D03*
X194851980Y-63381765D03*
X195100900Y-70928105D03*
X195352360Y-63381765D03*
X195601280Y-70928105D03*
X195850200Y-63381765D03*
X196101660Y-70928105D03*
X196350580Y-63381765D03*
X196602040Y-70928105D03*
X196850960Y-63381765D03*
X199101400Y-70928105D03*
X199350320Y-63381765D03*
X199601780Y-70928105D03*
X199850700Y-63381765D03*
X200102160Y-70928105D03*
X200351080Y-63381765D03*
X200600000Y-70928105D03*
X200848920Y-63381765D03*
X201097840Y-70928105D03*
X201349300Y-63381765D03*
X201598220Y-70928105D03*
X201849680Y-63381765D03*
X202098600Y-70928105D03*
X202347520Y-63381765D03*
X202598980Y-70928105D03*
X202847900Y-63381765D03*
X203099360Y-70928105D03*
X203348280Y-63381765D03*
X203599740Y-70928105D03*
X203848660Y-63381765D03*
X204097580Y-70928105D03*
X204349040Y-63381765D03*
X204597960Y-70928105D03*
X204849420Y-63381765D03*
X205098340Y-70928105D03*
X205349800Y-63381765D03*
X205598720Y-70928105D03*
X205847640Y-63381765D03*
X206099100Y-70928105D03*
X206348020Y-63381765D03*
X206599480Y-70928105D03*
X206848400Y-63381765D03*
X207099860Y-70928105D03*
X207348780Y-63381765D03*
X207597700Y-70928105D03*
X207849160Y-63381765D03*
X208098080Y-70928105D03*
X208349540Y-63381765D03*
X208598460Y-70928105D03*
X208849920Y-63381765D03*
X209098840Y-70928105D03*
X209347760Y-63381765D03*
X209599220Y-70928105D03*
X209848140Y-63381765D03*
D21*
X190252040Y-64156465D03*
X210947960Y-64156465D03*
%TD*%
D11*
%TO.C,SW30*%
X170730000Y-127800000D03*
D12*
X161840000Y-125260000D03*
D11*
X160570000Y-127800000D03*
D13*
X165650000Y-127800000D03*
D12*
X168190000Y-122720000D03*
%TD*%
D11*
%TO.C,SW60*%
X342330000Y-127800000D03*
D12*
X333440000Y-125260000D03*
D11*
X332170000Y-127800000D03*
D13*
X337250000Y-127800000D03*
D12*
X339790000Y-122720000D03*
%TD*%
D11*
%TO.C,SW24*%
X151730000Y-108800000D03*
D12*
X142840000Y-106260000D03*
D11*
X141570000Y-108800000D03*
D13*
X146650000Y-108800000D03*
D12*
X149190000Y-103720000D03*
%TD*%
D11*
%TO.C,SW27*%
X170730000Y-70800000D03*
D12*
X161840000Y-68260000D03*
D11*
X160570000Y-70800000D03*
D13*
X165650000Y-70800000D03*
D12*
X168190000Y-65720000D03*
%TD*%
D11*
%TO.C,SW42*%
X285410000Y-70800000D03*
D12*
X276520000Y-68260000D03*
D11*
X275250000Y-70800000D03*
D13*
X280330000Y-70800000D03*
D12*
X282870000Y-65720000D03*
%TD*%
D11*
%TO.C,SW10*%
X94730000Y-127800000D03*
D12*
X85840000Y-125260000D03*
D11*
X84570000Y-127800000D03*
D13*
X89650000Y-127800000D03*
D12*
X92190000Y-122720000D03*
%TD*%
D11*
%TO.C,SW57*%
X342330000Y-70800000D03*
D12*
X333440000Y-68260000D03*
D11*
X332170000Y-70800000D03*
D13*
X337250000Y-70800000D03*
D12*
X339790000Y-65720000D03*
%TD*%
D11*
%TO.C,SW29*%
X170730000Y-108800000D03*
D12*
X161840000Y-106260000D03*
D11*
X160570000Y-108800000D03*
D13*
X165650000Y-108800000D03*
D12*
X168190000Y-103720000D03*
%TD*%
D11*
%TO.C,SW7*%
X94730000Y-70800000D03*
D12*
X85840000Y-68260000D03*
D11*
X84570000Y-70800000D03*
D13*
X89650000Y-70800000D03*
D12*
X92190000Y-65720000D03*
%TD*%
D11*
%TO.C,SW20*%
X132730000Y-127800000D03*
D12*
X123840000Y-125260000D03*
D11*
X122570000Y-127800000D03*
D13*
X127650000Y-127800000D03*
D12*
X130190000Y-122720000D03*
%TD*%
D11*
%TO.C,SW49*%
X304410000Y-108800000D03*
D12*
X295520000Y-106260000D03*
D11*
X294250000Y-108800000D03*
D13*
X299330000Y-108800000D03*
D12*
X301870000Y-103720000D03*
%TD*%
D11*
%TO.C,SW39*%
X266410000Y-108800000D03*
D12*
X257520000Y-106260000D03*
D11*
X256250000Y-108800000D03*
D13*
X261330000Y-108800000D03*
D12*
X263870000Y-103720000D03*
%TD*%
D11*
%TO.C,SW5*%
X75730000Y-127800000D03*
D12*
X66840000Y-125260000D03*
D11*
X65570000Y-127800000D03*
D13*
X70650000Y-127800000D03*
D12*
X73190000Y-122720000D03*
%TD*%
D11*
%TO.C,SW32*%
X247410000Y-70800000D03*
D12*
X238520000Y-68260000D03*
D11*
X237250000Y-70800000D03*
D13*
X242330000Y-70800000D03*
D12*
X244870000Y-65720000D03*
%TD*%
D15*
%TO.C,J1*%
X224275000Y-135000000D03*
D16*
X221735000Y-135000000D03*
X219195000Y-135000000D03*
X216655000Y-135000000D03*
X214115000Y-135000000D03*
%TD*%
D11*
%TO.C,SW48*%
X304410000Y-89800000D03*
D12*
X295520000Y-87260000D03*
D11*
X294250000Y-89800000D03*
D13*
X299330000Y-89800000D03*
D12*
X301870000Y-84720000D03*
%TD*%
D11*
%TO.C,SW21*%
X151730000Y-51800000D03*
D12*
X142840000Y-49260000D03*
D11*
X141570000Y-51800000D03*
D13*
X146650000Y-51800000D03*
D12*
X149190000Y-46720000D03*
%TD*%
D11*
%TO.C,SW6*%
X94730000Y-51800000D03*
D12*
X85840000Y-49260000D03*
D11*
X84570000Y-51800000D03*
D13*
X89650000Y-51800000D03*
D12*
X92190000Y-46720000D03*
%TD*%
D22*
%TO.C,R15*%
X209000000Y-132687500D03*
X209000000Y-134512500D03*
%TD*%
D11*
%TO.C,SW12*%
X113730000Y-70800000D03*
D12*
X104840000Y-68260000D03*
D11*
X103570000Y-70800000D03*
D13*
X108650000Y-70800000D03*
D12*
X111190000Y-65720000D03*
%TD*%
D11*
%TO.C,SW55*%
X323410000Y-127800000D03*
D12*
X314520000Y-125260000D03*
D11*
X313250000Y-127800000D03*
D13*
X318330000Y-127800000D03*
D12*
X320870000Y-122720000D03*
%TD*%
D11*
%TO.C,SW43*%
X285410000Y-89800000D03*
D12*
X276520000Y-87260000D03*
D11*
X275250000Y-89800000D03*
D13*
X280330000Y-89800000D03*
D12*
X282870000Y-84720000D03*
%TD*%
D11*
%TO.C,SW40*%
X266410000Y-127800000D03*
D12*
X257520000Y-125260000D03*
D11*
X256250000Y-127800000D03*
D13*
X261330000Y-127800000D03*
D12*
X263870000Y-122720000D03*
%TD*%
D11*
%TO.C,SW58*%
X342330000Y-89800000D03*
D12*
X333440000Y-87260000D03*
D11*
X332170000Y-89800000D03*
D13*
X337250000Y-89800000D03*
D12*
X339790000Y-84720000D03*
%TD*%
D23*
%TO.C,SW61*%
X194400000Y-131500000D03*
X187200000Y-131500000D03*
X194400000Y-134500000D03*
X187200000Y-134500000D03*
%TD*%
D11*
%TO.C,SW3*%
X75730000Y-89800000D03*
D12*
X66840000Y-87260000D03*
D11*
X65570000Y-89800000D03*
D13*
X70650000Y-89800000D03*
D12*
X73190000Y-84720000D03*
%TD*%
D11*
%TO.C,SW52*%
X323410000Y-70800000D03*
D12*
X314520000Y-68260000D03*
D11*
X313250000Y-70800000D03*
D13*
X318330000Y-70800000D03*
D12*
X320870000Y-65720000D03*
%TD*%
D11*
%TO.C,SW14*%
X113730000Y-108800000D03*
D12*
X104840000Y-106260000D03*
D11*
X103570000Y-108800000D03*
D13*
X108650000Y-108800000D03*
D12*
X111190000Y-103720000D03*
%TD*%
D24*
%TO.C,U2*%
X186255000Y-106775000D03*
X187525000Y-106775000D03*
X188795000Y-106775000D03*
X190065000Y-106775000D03*
X191335000Y-106775000D03*
X192605000Y-106775000D03*
X193875000Y-106775000D03*
X195145000Y-106775000D03*
X195145000Y-101825000D03*
X193875000Y-101825000D03*
X192605000Y-101825000D03*
X191335000Y-101825000D03*
X190065000Y-101825000D03*
X188795000Y-101825000D03*
X187525000Y-101825000D03*
X186255000Y-101825000D03*
%TD*%
D11*
%TO.C,SW33*%
X247410000Y-89800000D03*
D12*
X238520000Y-87260000D03*
D11*
X237250000Y-89800000D03*
D13*
X242330000Y-89800000D03*
D12*
X244870000Y-84720000D03*
%TD*%
D25*
%TO.C,C2*%
X185850000Y-98300000D03*
X187750000Y-98300000D03*
%TD*%
D23*
%TO.C,SW62*%
X206050000Y-131500000D03*
X198850000Y-131500000D03*
X206050000Y-134500000D03*
X198850000Y-134500000D03*
%TD*%
D25*
%TO.C,C3*%
X198450000Y-98200000D03*
X200350000Y-98200000D03*
%TD*%
D11*
%TO.C,SW46*%
X304410000Y-51800000D03*
D12*
X295520000Y-49260000D03*
D11*
X294250000Y-51800000D03*
D13*
X299330000Y-51800000D03*
D12*
X301870000Y-46720000D03*
%TD*%
D11*
%TO.C,SW4*%
X75730000Y-108800000D03*
D12*
X66840000Y-106260000D03*
D11*
X65570000Y-108800000D03*
D13*
X70650000Y-108800000D03*
D12*
X73190000Y-103720000D03*
%TD*%
D11*
%TO.C,SW18*%
X132730000Y-89800000D03*
D12*
X123840000Y-87260000D03*
D11*
X122570000Y-89800000D03*
D13*
X127650000Y-89800000D03*
D12*
X130190000Y-84720000D03*
%TD*%
D11*
%TO.C,SW37*%
X266410000Y-70800000D03*
D12*
X257520000Y-68260000D03*
D11*
X256250000Y-70800000D03*
D13*
X261330000Y-70800000D03*
D12*
X263870000Y-65720000D03*
%TD*%
D11*
%TO.C,SW53*%
X323410000Y-89800000D03*
D12*
X314520000Y-87260000D03*
D11*
X313250000Y-89800000D03*
D13*
X318330000Y-89800000D03*
D12*
X320870000Y-84720000D03*
%TD*%
D11*
%TO.C,SW54*%
X323410000Y-108800000D03*
D12*
X314520000Y-106260000D03*
D11*
X313250000Y-108800000D03*
D13*
X318330000Y-108800000D03*
D12*
X320870000Y-103720000D03*
%TD*%
D11*
%TO.C,SW50*%
X304410000Y-127800000D03*
D12*
X295520000Y-125260000D03*
D11*
X294250000Y-127800000D03*
D13*
X299330000Y-127800000D03*
D12*
X301870000Y-122720000D03*
%TD*%
D11*
%TO.C,SW25*%
X151730000Y-127800000D03*
D12*
X142840000Y-125260000D03*
D11*
X141570000Y-127800000D03*
D13*
X146650000Y-127800000D03*
D12*
X149190000Y-122720000D03*
%TD*%
D11*
%TO.C,SW36*%
X266410000Y-51800000D03*
D12*
X257520000Y-49260000D03*
D11*
X256250000Y-51800000D03*
D13*
X261330000Y-51800000D03*
D12*
X263870000Y-46720000D03*
%TD*%
D22*
%TO.C,R18*%
X202100000Y-58787500D03*
X202100000Y-60612500D03*
%TD*%
D11*
%TO.C,SW26*%
X170730000Y-51800000D03*
D12*
X161840000Y-49260000D03*
D11*
X160570000Y-51800000D03*
D13*
X165650000Y-51800000D03*
D12*
X168190000Y-46720000D03*
%TD*%
D11*
%TO.C,SW34*%
X247410000Y-108800000D03*
D12*
X238520000Y-106260000D03*
D11*
X237250000Y-108800000D03*
D13*
X242330000Y-108800000D03*
D12*
X244870000Y-103720000D03*
%TD*%
D11*
%TO.C,SW59*%
X342330000Y-108800000D03*
D12*
X333440000Y-106260000D03*
D11*
X332170000Y-108800000D03*
D13*
X337250000Y-108800000D03*
D12*
X339790000Y-103720000D03*
%TD*%
D11*
%TO.C,SW8*%
X94730000Y-89800000D03*
D12*
X85840000Y-87260000D03*
D11*
X84570000Y-89800000D03*
D13*
X89650000Y-89800000D03*
D12*
X92190000Y-84720000D03*
%TD*%
D11*
%TO.C,SW56*%
X342330000Y-51800000D03*
D12*
X333440000Y-49260000D03*
D11*
X332170000Y-51800000D03*
D13*
X337250000Y-51800000D03*
D12*
X339790000Y-46720000D03*
%TD*%
D11*
%TO.C,SW45*%
X285410000Y-127800000D03*
D12*
X276520000Y-125260000D03*
D11*
X275250000Y-127800000D03*
D13*
X280330000Y-127800000D03*
D12*
X282870000Y-122720000D03*
%TD*%
D11*
%TO.C,SW44*%
X285410000Y-108800000D03*
D12*
X276520000Y-106260000D03*
D11*
X275250000Y-108800000D03*
D13*
X280330000Y-108800000D03*
D12*
X282870000Y-103720000D03*
%TD*%
D11*
%TO.C,SW13*%
X113730000Y-89800000D03*
D12*
X104840000Y-87260000D03*
D11*
X103570000Y-89800000D03*
D13*
X108650000Y-89800000D03*
D12*
X111190000Y-84720000D03*
%TD*%
D11*
%TO.C,SW41*%
X285410000Y-51800000D03*
D12*
X276520000Y-49260000D03*
D11*
X275250000Y-51800000D03*
D13*
X280330000Y-51800000D03*
D12*
X282870000Y-46720000D03*
%TD*%
D11*
%TO.C,SW23*%
X151730000Y-89800000D03*
D12*
X142840000Y-87260000D03*
D11*
X141570000Y-89800000D03*
D13*
X146650000Y-89800000D03*
D12*
X149190000Y-84720000D03*
%TD*%
D26*
%TO.C,R20*%
X206800000Y-60612500D03*
X206800000Y-58787500D03*
%TD*%
D11*
%TO.C,SW17*%
X132730000Y-70800000D03*
D12*
X123840000Y-68260000D03*
D11*
X122570000Y-70800000D03*
D13*
X127650000Y-70800000D03*
D12*
X130190000Y-65720000D03*
%TD*%
D11*
%TO.C,SW47*%
X304410000Y-70800000D03*
D12*
X295520000Y-68260000D03*
D11*
X294250000Y-70800000D03*
D13*
X299330000Y-70800000D03*
D12*
X301870000Y-65720000D03*
%TD*%
D11*
%TO.C,SW15*%
X113730000Y-127800000D03*
D12*
X104840000Y-125260000D03*
D11*
X103570000Y-127800000D03*
D13*
X108650000Y-127800000D03*
D12*
X111190000Y-122720000D03*
%TD*%
D11*
%TO.C,SW11*%
X113730000Y-51800000D03*
D12*
X104840000Y-49260000D03*
D11*
X103570000Y-51800000D03*
D13*
X108650000Y-51800000D03*
D12*
X111190000Y-46720000D03*
%TD*%
D11*
%TO.C,SW38*%
X266410000Y-89800000D03*
D12*
X257520000Y-87260000D03*
D11*
X256250000Y-89800000D03*
D13*
X261330000Y-89800000D03*
D12*
X263870000Y-84720000D03*
%TD*%
D11*
%TO.C,SW19*%
X132730000Y-108800000D03*
D12*
X123840000Y-106260000D03*
D11*
X122570000Y-108800000D03*
D13*
X127650000Y-108800000D03*
D12*
X130190000Y-103720000D03*
%TD*%
D11*
%TO.C,SW28*%
X170730000Y-89800000D03*
D12*
X161840000Y-87260000D03*
D11*
X160570000Y-89800000D03*
D13*
X165650000Y-89800000D03*
D12*
X168190000Y-84720000D03*
%TD*%
D26*
%TO.C,R14*%
X201600000Y-75812500D03*
X201600000Y-73987500D03*
%TD*%
D11*
%TO.C,SW35*%
X247410000Y-127800000D03*
D12*
X238520000Y-125260000D03*
D11*
X237250000Y-127800000D03*
D13*
X242330000Y-127800000D03*
D12*
X244870000Y-122720000D03*
%TD*%
D11*
%TO.C,SW9*%
X94730000Y-108800000D03*
D12*
X85840000Y-106260000D03*
D11*
X84570000Y-108800000D03*
D13*
X89650000Y-108800000D03*
D12*
X92190000Y-103720000D03*
%TD*%
D24*
%TO.C,U3*%
X199155000Y-106775000D03*
X200425000Y-106775000D03*
X201695000Y-106775000D03*
X202965000Y-106775000D03*
X204235000Y-106775000D03*
X205505000Y-106775000D03*
X206775000Y-106775000D03*
X208045000Y-106775000D03*
X208045000Y-101825000D03*
X206775000Y-101825000D03*
X205505000Y-101825000D03*
X204235000Y-101825000D03*
X202965000Y-101825000D03*
X201695000Y-101825000D03*
X200425000Y-101825000D03*
X199155000Y-101825000D03*
%TD*%
D11*
%TO.C,SW16*%
X132730000Y-51800000D03*
D12*
X123840000Y-49260000D03*
D11*
X122570000Y-51800000D03*
D13*
X127650000Y-51800000D03*
D12*
X130190000Y-46720000D03*
%TD*%
D11*
%TO.C,SW51*%
X323410000Y-51800000D03*
D12*
X314520000Y-49260000D03*
D11*
X313250000Y-51800000D03*
D13*
X318330000Y-51800000D03*
D12*
X320870000Y-46720000D03*
%TD*%
D22*
%TO.C,R16*%
X183400000Y-132687500D03*
X183400000Y-134512500D03*
%TD*%
M02*
