M48
; DRILL file {KiCad (6.0.10)} date Fri Jul 28 11:59:37 2023
; FORMAT={-:-/ absolute / metric / decimal}
; #@! TF.CreationDate,2023-07-28T11:59:37-04:00
; #@! TF.GenerationSoftware,Kicad,Pcbnew,(6.0.10)
; #@! TF.FileFunction,Plated,1,2,PTH
FMAT,2
METRIC
; #@! TA.AperFunction,Plated,PTH,ViaDrill
T1C0.400
; #@! TA.AperFunction,Plated,PTH,ComponentDrill
T2C1.000
%
G90
G05
T1
X80.2Y-55.2
X80.2Y-72.4
X80.2Y-92.0
X80.2Y-111.2
X80.2Y-130.6
X99.2Y-55.1
X99.2Y-71.6
X99.2Y-91.9
X99.2Y-111.5
X99.2Y-130.3
X118.2Y-54.6
X118.2Y-72.2
X118.2Y-92.5
X118.2Y-111.4
X118.2Y-130.5
X137.2Y-54.3
X137.2Y-74.0
X137.2Y-92.9
X137.2Y-112.0
X137.2Y-131.0
X156.2Y-54.3
X156.2Y-74.1
X156.2Y-93.6
X156.2Y-113.1
X156.2Y-129.9
X172.8Y-54.9
X172.8Y-74.2
X172.8Y-91.9
X172.8Y-111.3
X172.8Y-129.4
X173.8Y-96.9
X173.8Y-114.8
X174.8Y-77.8
X174.8Y-113.9
X175.7Y-58.8
X175.7Y-113.1
X178.1Y-62.1
X180.25Y-96.3
X181.356Y-126.492
X182.5Y-74.0
X182.6Y-117.6
X184.9Y-100.2
X185.674Y-126.492
X185.85Y-96.3
X186.2Y-84.15
X186.25Y-109.85
X186.35Y-92.95
X187.2Y-129.25
X187.5Y-104.7
X187.525Y-124.475
X187.7Y-54.6
X187.7Y-55.8
X187.75Y-96.4
X188.9Y-81.4
X190.0Y-103.7
X190.1Y-80.424
X191.3Y-79.7
X191.335Y-110.765
X192.1Y-66.25
X192.6Y-78.9
X192.605Y-112.095
X193.3Y-54.9
X195.145Y-103.755
X195.6Y-65.3
X196.088Y-99.314
X196.088Y-118.738
X196.342Y-75.438
X196.351Y-61.549
X196.85Y-69.088
X197.022Y-121.377
X197.09Y-116.84
X198.85Y-129.5
X199.1Y-74.0
X199.15Y-109.8
X199.35Y-66.3
X200.1Y-67.818
X200.35Y-96.2
X200.4Y-104.7
X201.1Y-66.2
X201.7Y-95.6
X202.1Y-53.55
X202.35Y-67.6
X202.85Y-92.95
X203.0Y-97.0
X203.2Y-77.724
X203.55Y-84.15
X204.3Y-98.0
X204.854Y-60.592
X205.505Y-99.095
X205.848Y-67.152
X206.6Y-92.6
X206.8Y-55.8
X206.8Y-103.8
X207.264Y-129.032
X207.4Y-114.7
X208.0Y-68.4
X208.1Y-108.9
X209.2Y-130.0
X210.566Y-77.724
X211.3Y-114.15
X211.5Y-92.6
X211.75Y-84.15
X212.4Y-130.0
X213.05Y-48.9
X214.2Y-109.8
X214.2Y-118.0
X216.2Y-72.436
X217.9Y-61.5
X219.0Y-63.8
X219.0Y-119.4
X220.0Y-95.55
X220.7Y-74.0
X221.2Y-97.0
X222.4Y-98.0
X223.7Y-60.7
X223.7Y-99.0
X224.028Y-57.912
X224.282Y-129.794
X225.9Y-112.1
X231.125Y-115.925
X234.05Y-62.2
X246.1Y-117.6
X251.8Y-52.6
X251.9Y-72.7
X251.9Y-92.0
X251.9Y-109.8
X251.9Y-128.3
X270.9Y-53.3
X270.9Y-71.9
X270.9Y-91.7
X270.9Y-110.9
X270.9Y-128.7
X289.8Y-52.3
X289.8Y-71.6
X289.8Y-91.4
X289.8Y-110.8
X289.8Y-128.7
X308.7Y-53.3
X308.7Y-71.9
X308.7Y-91.2
X308.7Y-110.6
X308.8Y-128.6
X327.7Y-53.5
X327.7Y-70.8
X327.7Y-90.9
X327.7Y-110.2
X327.7Y-129.5
X344.9Y-51.6
X344.9Y-71.0
X344.9Y-88.9
X344.9Y-107.7
X344.9Y-127.1
T2
X214.115Y-135.0
X216.655Y-135.0
X219.195Y-135.0
X221.735Y-135.0
X224.275Y-135.0
X226.868Y-54.988
X226.868Y-57.528
X226.868Y-60.068
X226.868Y-62.608
X226.868Y-65.148
X226.868Y-67.688
X226.868Y-70.228
X226.868Y-72.768
X226.868Y-75.308
X226.868Y-77.848
X226.868Y-80.388
X226.868Y-82.928
X226.868Y-85.468
X226.868Y-88.008
X226.868Y-90.548
X226.868Y-93.088
X226.868Y-95.628
X226.868Y-98.168
X226.868Y-100.708
X226.868Y-103.248
X229.408Y-54.988
X229.408Y-57.528
X229.408Y-60.068
X229.408Y-62.608
X229.408Y-65.148
X229.408Y-67.688
X229.408Y-70.228
X229.408Y-72.768
X229.408Y-75.308
X229.408Y-77.848
X229.408Y-80.388
X229.408Y-82.928
X229.408Y-85.468
X229.408Y-88.008
X229.408Y-90.548
X229.408Y-93.088
X229.408Y-95.628
X229.408Y-98.168
X229.408Y-100.708
X229.408Y-103.248
T0
M30
