M48
; DRILL file {KiCad (6.0.10)} date Sun Jul 30 09:02:56 2023
; FORMAT={-:-/ absolute / metric / decimal}
; #@! TF.CreationDate,2023-07-30T09:02:56-04:00
; #@! TF.GenerationSoftware,Kicad,Pcbnew,(6.0.10)
; #@! TF.FileFunction,Plated,1,2,PTH
FMAT,2
METRIC
; #@! TA.AperFunction,Plated,PTH,ViaDrill
T1C0.400
; #@! TA.AperFunction,Plated,PTH,ComponentDrill
T2C1.000
; #@! TA.AperFunction,Plated,PTH,ComponentDrill
T3C1.100
; #@! TA.AperFunction,Plated,PTH,ComponentDrill
T4C3.700
%
G90
G05
T1
X80.2Y-55.2
X80.2Y-72.4
X80.2Y-92.0
X80.2Y-111.2
X80.2Y-130.6
X99.2Y-55.1
X99.2Y-71.6
X99.2Y-91.9
X99.2Y-111.5
X99.2Y-130.3
X118.2Y-54.6
X118.2Y-72.2
X118.2Y-92.5
X118.2Y-111.4
X118.2Y-130.5
X137.2Y-54.3
X137.2Y-74.0
X137.2Y-92.9
X137.2Y-112.0
X137.2Y-131.0
X156.2Y-54.3
X156.2Y-74.1
X156.2Y-93.6
X156.2Y-113.1
X156.2Y-129.9
X172.8Y-54.9
X172.8Y-74.2
X172.8Y-91.9
X172.8Y-111.3
X172.8Y-129.4
X173.8Y-96.9
X173.8Y-114.8
X174.8Y-77.8
X174.8Y-113.9
X175.7Y-58.8
X175.7Y-113.1
X178.1Y-62.1
X178.6Y-122.0
X181.1Y-123.8
X183.1Y-117.7
X183.2Y-76.25
X183.5Y-59.8
X183.5Y-73.35
X184.15Y-101.55
X184.15Y-107.25
X186.25Y-111.85
X188.722Y-81.534
X188.722Y-109.982
X189.992Y-80.518
X189.992Y-108.966
X190.0Y-126.25
X191.262Y-79.756
X191.262Y-109.982
X191.95Y-111.65
X192.532Y-78.994
X192.532Y-108.966
X194.056Y-94.996
X194.056Y-122.936
X195.5Y-111.65
X195.5Y-118.75
X196.2Y-70.35
X196.596Y-116.84
X196.85Y-96.55
X196.85Y-101.854
X196.85Y-121.412
X197.866Y-99.314
X199.65Y-93.05
X199.65Y-96.6
X200.05Y-83.6
X200.4Y-111.0
X202.051Y-88.2
X202.25Y-131.6
X202.438Y-129.062
X203.2Y-88.25
X203.9Y-44.15
X204.5Y-88.3
X205.1Y-44.15
X205.35Y-89.3
X205.35Y-95.0
X205.45Y-70.65
X205.45Y-74.65
X205.994Y-81.534
X207.345Y-114.728
X207.35Y-79.75
X207.4Y-47.05
X207.8Y-129.85
X208.5Y-76.3
X208.5Y-87.35
X208.55Y-93.55
X209.804Y-77.724
X209.804Y-106.68
X210.508Y-81.8
X210.85Y-75.0
X211.328Y-114.554
X211.487Y-80.739
X212.598Y-78.74
X212.598Y-128.016
X213.868Y-98.298
X213.868Y-118.11
X214.122Y-88.172
X214.884Y-96.266
X215.9Y-97.282
X216.25Y-89.4
X217.0Y-114.6
X217.35Y-118.8
X217.35Y-125.1
X217.424Y-112.014
X217.65Y-85.9
X217.65Y-99.5
X217.75Y-61.4
X217.75Y-65.7
X218.948Y-98.298
X218.948Y-110.998
X218.998Y-80.06
X219.964Y-109.982
X220.0Y-75.35
X220.98Y-108.966
X221.7Y-64.25
X221.996Y-104.14
X222.8Y-96.3
X223.012Y-105.664
X223.75Y-88.15
X224.7Y-87.376
X227.35Y-114.55
X234.05Y-62.2
X246.1Y-117.6
X251.8Y-52.6
X251.9Y-72.7
X251.9Y-92.0
X251.9Y-109.8
X251.9Y-128.3
X270.9Y-53.3
X270.9Y-71.9
X270.9Y-91.7
X270.9Y-110.9
X270.9Y-128.7
X289.8Y-52.3
X289.8Y-71.6
X289.8Y-91.4
X289.8Y-110.8
X289.8Y-128.7
X308.7Y-53.3
X308.7Y-71.9
X308.7Y-91.2
X308.7Y-110.6
X308.8Y-128.6
X327.7Y-53.5
X327.7Y-70.8
X327.7Y-90.9
X327.7Y-110.2
X327.7Y-129.5
X344.9Y-51.6
X344.9Y-71.0
X344.9Y-88.9
X344.9Y-107.7
X344.9Y-127.1
T2
X213.863Y-133.096
X216.403Y-133.096
X218.943Y-133.096
X221.483Y-133.096
X224.023Y-133.096
X226.868Y-54.988
X226.868Y-57.528
X226.868Y-60.068
X226.868Y-62.608
X226.868Y-65.148
X226.868Y-67.688
X226.868Y-70.228
X226.868Y-72.768
X226.868Y-75.308
X226.868Y-77.848
X226.868Y-80.388
X226.868Y-82.928
X226.868Y-85.468
X226.868Y-88.008
X226.868Y-90.548
X226.868Y-93.088
X226.868Y-95.628
X226.868Y-98.168
X226.868Y-100.708
X226.868Y-103.248
X229.408Y-54.988
X229.408Y-57.528
X229.408Y-60.068
X229.408Y-62.608
X229.408Y-65.148
X229.408Y-67.688
X229.408Y-70.228
X229.408Y-72.768
X229.408Y-75.308
X229.408Y-77.848
X229.408Y-80.388
X229.408Y-82.928
X229.408Y-85.468
X229.408Y-88.008
X229.408Y-90.548
X229.408Y-93.088
X229.408Y-95.628
X229.408Y-98.168
X229.408Y-100.708
X229.408Y-103.248
T3
X178.95Y-128.95
X178.95Y-133.45
X185.45Y-128.95
X185.45Y-133.45
X190.15Y-128.95
X190.15Y-133.45
X196.65Y-128.95
X196.65Y-133.45
T4
X207.002Y-65.687
T0
M30
