%TF.GenerationSoftware,KiCad,Pcbnew,(6.0.10)*%
%TF.CreationDate,2023-07-28T11:59:27-04:00*%
%TF.ProjectId,storyboard,73746f72-7962-46f6-9172-642e6b696361,rev?*%
%TF.SameCoordinates,Original*%
%TF.FileFunction,Legend,Bot*%
%TF.FilePolarity,Positive*%
%FSLAX46Y46*%
G04 Gerber Fmt 4.6, Leading zero omitted, Abs format (unit mm)*
G04 Created by KiCad (PCBNEW (6.0.10)) date 2023-07-28 11:59:27*
%MOMM*%
%LPD*%
G01*
G04 APERTURE LIST*
%ADD10C,0.150000*%
%ADD11C,0.120000*%
G04 APERTURE END LIST*
D10*
%TO.C,R2*%
X79002380Y-62833333D02*
X78526190Y-62500000D01*
X79002380Y-62261904D02*
X78002380Y-62261904D01*
X78002380Y-62642857D01*
X78050000Y-62738095D01*
X78097619Y-62785714D01*
X78192857Y-62833333D01*
X78335714Y-62833333D01*
X78430952Y-62785714D01*
X78478571Y-62738095D01*
X78526190Y-62642857D01*
X78526190Y-62261904D01*
X78097619Y-63214285D02*
X78050000Y-63261904D01*
X78002380Y-63357142D01*
X78002380Y-63595238D01*
X78050000Y-63690476D01*
X78097619Y-63738095D01*
X78192857Y-63785714D01*
X78288095Y-63785714D01*
X78430952Y-63738095D01*
X79002380Y-63166666D01*
X79002380Y-63785714D01*
%TO.C,D19*%
X135752380Y-117085714D02*
X134752380Y-117085714D01*
X134752380Y-117323809D01*
X134800000Y-117466666D01*
X134895238Y-117561904D01*
X134990476Y-117609523D01*
X135180952Y-117657142D01*
X135323809Y-117657142D01*
X135514285Y-117609523D01*
X135609523Y-117561904D01*
X135704761Y-117466666D01*
X135752380Y-117323809D01*
X135752380Y-117085714D01*
X135752380Y-118609523D02*
X135752380Y-118038095D01*
X135752380Y-118323809D02*
X134752380Y-118323809D01*
X134895238Y-118228571D01*
X134990476Y-118133333D01*
X135038095Y-118038095D01*
X135752380Y-119085714D02*
X135752380Y-119276190D01*
X135704761Y-119371428D01*
X135657142Y-119419047D01*
X135514285Y-119514285D01*
X135323809Y-119561904D01*
X134942857Y-119561904D01*
X134847619Y-119514285D01*
X134800000Y-119466666D01*
X134752380Y-119371428D01*
X134752380Y-119180952D01*
X134800000Y-119085714D01*
X134847619Y-119038095D01*
X134942857Y-118990476D01*
X135180952Y-118990476D01*
X135276190Y-119038095D01*
X135323809Y-119085714D01*
X135371428Y-119180952D01*
X135371428Y-119371428D01*
X135323809Y-119466666D01*
X135276190Y-119514285D01*
X135180952Y-119561904D01*
%TO.C,R4*%
X117002380Y-62833333D02*
X116526190Y-62500000D01*
X117002380Y-62261904D02*
X116002380Y-62261904D01*
X116002380Y-62642857D01*
X116050000Y-62738095D01*
X116097619Y-62785714D01*
X116192857Y-62833333D01*
X116335714Y-62833333D01*
X116430952Y-62785714D01*
X116478571Y-62738095D01*
X116526190Y-62642857D01*
X116526190Y-62261904D01*
X116335714Y-63690476D02*
X117002380Y-63690476D01*
X115954761Y-63452380D02*
X116669047Y-63214285D01*
X116669047Y-63833333D01*
%TO.C,R3*%
X98002380Y-62833333D02*
X97526190Y-62500000D01*
X98002380Y-62261904D02*
X97002380Y-62261904D01*
X97002380Y-62642857D01*
X97050000Y-62738095D01*
X97097619Y-62785714D01*
X97192857Y-62833333D01*
X97335714Y-62833333D01*
X97430952Y-62785714D01*
X97478571Y-62738095D01*
X97526190Y-62642857D01*
X97526190Y-62261904D01*
X97002380Y-63166666D02*
X97002380Y-63785714D01*
X97383333Y-63452380D01*
X97383333Y-63595238D01*
X97430952Y-63690476D01*
X97478571Y-63738095D01*
X97573809Y-63785714D01*
X97811904Y-63785714D01*
X97907142Y-63738095D01*
X97954761Y-63690476D01*
X98002380Y-63595238D01*
X98002380Y-63309523D01*
X97954761Y-63214285D01*
X97907142Y-63166666D01*
%TO.C,D48*%
X255722380Y-131881714D02*
X254722380Y-131881714D01*
X254722380Y-132119809D01*
X254770000Y-132262666D01*
X254865238Y-132357904D01*
X254960476Y-132405523D01*
X255150952Y-132453142D01*
X255293809Y-132453142D01*
X255484285Y-132405523D01*
X255579523Y-132357904D01*
X255674761Y-132262666D01*
X255722380Y-132119809D01*
X255722380Y-131881714D01*
X255055714Y-133310285D02*
X255722380Y-133310285D01*
X254674761Y-133072190D02*
X255389047Y-132834095D01*
X255389047Y-133453142D01*
X255150952Y-133976952D02*
X255103333Y-133881714D01*
X255055714Y-133834095D01*
X254960476Y-133786476D01*
X254912857Y-133786476D01*
X254817619Y-133834095D01*
X254770000Y-133881714D01*
X254722380Y-133976952D01*
X254722380Y-134167428D01*
X254770000Y-134262666D01*
X254817619Y-134310285D01*
X254912857Y-134357904D01*
X254960476Y-134357904D01*
X255055714Y-134310285D01*
X255103333Y-134262666D01*
X255150952Y-134167428D01*
X255150952Y-133976952D01*
X255198571Y-133881714D01*
X255246190Y-133834095D01*
X255341428Y-133786476D01*
X255531904Y-133786476D01*
X255627142Y-133834095D01*
X255674761Y-133881714D01*
X255722380Y-133976952D01*
X255722380Y-134167428D01*
X255674761Y-134262666D01*
X255627142Y-134310285D01*
X255531904Y-134357904D01*
X255341428Y-134357904D01*
X255246190Y-134310285D01*
X255198571Y-134262666D01*
X255150952Y-134167428D01*
%TO.C,D14*%
X103068380Y-56443714D02*
X102068380Y-56443714D01*
X102068380Y-56681809D01*
X102116000Y-56824666D01*
X102211238Y-56919904D01*
X102306476Y-56967523D01*
X102496952Y-57015142D01*
X102639809Y-57015142D01*
X102830285Y-56967523D01*
X102925523Y-56919904D01*
X103020761Y-56824666D01*
X103068380Y-56681809D01*
X103068380Y-56443714D01*
X103068380Y-57967523D02*
X103068380Y-57396095D01*
X103068380Y-57681809D02*
X102068380Y-57681809D01*
X102211238Y-57586571D01*
X102306476Y-57491333D01*
X102354095Y-57396095D01*
X102401714Y-58824666D02*
X103068380Y-58824666D01*
X102020761Y-58586571D02*
X102735047Y-58348476D01*
X102735047Y-58967523D01*
%TO.C,D53*%
X274552380Y-113885714D02*
X273552380Y-113885714D01*
X273552380Y-114123809D01*
X273600000Y-114266666D01*
X273695238Y-114361904D01*
X273790476Y-114409523D01*
X273980952Y-114457142D01*
X274123809Y-114457142D01*
X274314285Y-114409523D01*
X274409523Y-114361904D01*
X274504761Y-114266666D01*
X274552380Y-114123809D01*
X274552380Y-113885714D01*
X273552380Y-115361904D02*
X273552380Y-114885714D01*
X274028571Y-114838095D01*
X273980952Y-114885714D01*
X273933333Y-114980952D01*
X273933333Y-115219047D01*
X273980952Y-115314285D01*
X274028571Y-115361904D01*
X274123809Y-115409523D01*
X274361904Y-115409523D01*
X274457142Y-115361904D01*
X274504761Y-115314285D01*
X274552380Y-115219047D01*
X274552380Y-114980952D01*
X274504761Y-114885714D01*
X274457142Y-114838095D01*
X273552380Y-115742857D02*
X273552380Y-116361904D01*
X273933333Y-116028571D01*
X273933333Y-116171428D01*
X273980952Y-116266666D01*
X274028571Y-116314285D01*
X274123809Y-116361904D01*
X274361904Y-116361904D01*
X274457142Y-116314285D01*
X274504761Y-116266666D01*
X274552380Y-116171428D01*
X274552380Y-115885714D01*
X274504761Y-115790476D01*
X274457142Y-115742857D01*
%TO.C,D43*%
X270200380Y-118927714D02*
X269200380Y-118927714D01*
X269200380Y-119165809D01*
X269248000Y-119308666D01*
X269343238Y-119403904D01*
X269438476Y-119451523D01*
X269628952Y-119499142D01*
X269771809Y-119499142D01*
X269962285Y-119451523D01*
X270057523Y-119403904D01*
X270152761Y-119308666D01*
X270200380Y-119165809D01*
X270200380Y-118927714D01*
X269533714Y-120356285D02*
X270200380Y-120356285D01*
X269152761Y-120118190D02*
X269867047Y-119880095D01*
X269867047Y-120499142D01*
X269200380Y-120784857D02*
X269200380Y-121403904D01*
X269581333Y-121070571D01*
X269581333Y-121213428D01*
X269628952Y-121308666D01*
X269676571Y-121356285D01*
X269771809Y-121403904D01*
X270009904Y-121403904D01*
X270105142Y-121356285D01*
X270152761Y-121308666D01*
X270200380Y-121213428D01*
X270200380Y-120927714D01*
X270152761Y-120832476D01*
X270105142Y-120784857D01*
%TO.C,D37*%
X250352380Y-117085714D02*
X249352380Y-117085714D01*
X249352380Y-117323809D01*
X249400000Y-117466666D01*
X249495238Y-117561904D01*
X249590476Y-117609523D01*
X249780952Y-117657142D01*
X249923809Y-117657142D01*
X250114285Y-117609523D01*
X250209523Y-117561904D01*
X250304761Y-117466666D01*
X250352380Y-117323809D01*
X250352380Y-117085714D01*
X249352380Y-117990476D02*
X249352380Y-118609523D01*
X249733333Y-118276190D01*
X249733333Y-118419047D01*
X249780952Y-118514285D01*
X249828571Y-118561904D01*
X249923809Y-118609523D01*
X250161904Y-118609523D01*
X250257142Y-118561904D01*
X250304761Y-118514285D01*
X250352380Y-118419047D01*
X250352380Y-118133333D01*
X250304761Y-118038095D01*
X250257142Y-117990476D01*
X249352380Y-118942857D02*
X249352380Y-119609523D01*
X250352380Y-119180952D01*
%TO.C,D64*%
X312618380Y-94035714D02*
X311618380Y-94035714D01*
X311618380Y-94273809D01*
X311666000Y-94416666D01*
X311761238Y-94511904D01*
X311856476Y-94559523D01*
X312046952Y-94607142D01*
X312189809Y-94607142D01*
X312380285Y-94559523D01*
X312475523Y-94511904D01*
X312570761Y-94416666D01*
X312618380Y-94273809D01*
X312618380Y-94035714D01*
X311618380Y-95464285D02*
X311618380Y-95273809D01*
X311666000Y-95178571D01*
X311713619Y-95130952D01*
X311856476Y-95035714D01*
X312046952Y-94988095D01*
X312427904Y-94988095D01*
X312523142Y-95035714D01*
X312570761Y-95083333D01*
X312618380Y-95178571D01*
X312618380Y-95369047D01*
X312570761Y-95464285D01*
X312523142Y-95511904D01*
X312427904Y-95559523D01*
X312189809Y-95559523D01*
X312094571Y-95511904D01*
X312046952Y-95464285D01*
X311999333Y-95369047D01*
X311999333Y-95178571D01*
X312046952Y-95083333D01*
X312094571Y-95035714D01*
X312189809Y-94988095D01*
X311951714Y-96416666D02*
X312618380Y-96416666D01*
X311570761Y-96178571D02*
X312285047Y-95940476D01*
X312285047Y-96559523D01*
%TO.C,D52*%
X274552380Y-94885714D02*
X273552380Y-94885714D01*
X273552380Y-95123809D01*
X273600000Y-95266666D01*
X273695238Y-95361904D01*
X273790476Y-95409523D01*
X273980952Y-95457142D01*
X274123809Y-95457142D01*
X274314285Y-95409523D01*
X274409523Y-95361904D01*
X274504761Y-95266666D01*
X274552380Y-95123809D01*
X274552380Y-94885714D01*
X273552380Y-96361904D02*
X273552380Y-95885714D01*
X274028571Y-95838095D01*
X273980952Y-95885714D01*
X273933333Y-95980952D01*
X273933333Y-96219047D01*
X273980952Y-96314285D01*
X274028571Y-96361904D01*
X274123809Y-96409523D01*
X274361904Y-96409523D01*
X274457142Y-96361904D01*
X274504761Y-96314285D01*
X274552380Y-96219047D01*
X274552380Y-95980952D01*
X274504761Y-95885714D01*
X274457142Y-95838095D01*
X273647619Y-96790476D02*
X273600000Y-96838095D01*
X273552380Y-96933333D01*
X273552380Y-97171428D01*
X273600000Y-97266666D01*
X273647619Y-97314285D01*
X273742857Y-97361904D01*
X273838095Y-97361904D01*
X273980952Y-97314285D01*
X274552380Y-96742857D01*
X274552380Y-97361904D01*
%TO.C,D71*%
X331552380Y-113985714D02*
X330552380Y-113985714D01*
X330552380Y-114223809D01*
X330600000Y-114366666D01*
X330695238Y-114461904D01*
X330790476Y-114509523D01*
X330980952Y-114557142D01*
X331123809Y-114557142D01*
X331314285Y-114509523D01*
X331409523Y-114461904D01*
X331504761Y-114366666D01*
X331552380Y-114223809D01*
X331552380Y-113985714D01*
X330552380Y-114890476D02*
X330552380Y-115557142D01*
X331552380Y-115128571D01*
X331552380Y-116461904D02*
X331552380Y-115890476D01*
X331552380Y-116176190D02*
X330552380Y-116176190D01*
X330695238Y-116080952D01*
X330790476Y-115985714D01*
X330838095Y-115890476D01*
%TO.C,D55*%
X307352380Y-117085714D02*
X306352380Y-117085714D01*
X306352380Y-117323809D01*
X306400000Y-117466666D01*
X306495238Y-117561904D01*
X306590476Y-117609523D01*
X306780952Y-117657142D01*
X306923809Y-117657142D01*
X307114285Y-117609523D01*
X307209523Y-117561904D01*
X307304761Y-117466666D01*
X307352380Y-117323809D01*
X307352380Y-117085714D01*
X306352380Y-118561904D02*
X306352380Y-118085714D01*
X306828571Y-118038095D01*
X306780952Y-118085714D01*
X306733333Y-118180952D01*
X306733333Y-118419047D01*
X306780952Y-118514285D01*
X306828571Y-118561904D01*
X306923809Y-118609523D01*
X307161904Y-118609523D01*
X307257142Y-118561904D01*
X307304761Y-118514285D01*
X307352380Y-118419047D01*
X307352380Y-118180952D01*
X307304761Y-118085714D01*
X307257142Y-118038095D01*
X306352380Y-119514285D02*
X306352380Y-119038095D01*
X306828571Y-118990476D01*
X306780952Y-119038095D01*
X306733333Y-119133333D01*
X306733333Y-119371428D01*
X306780952Y-119466666D01*
X306828571Y-119514285D01*
X306923809Y-119561904D01*
X307161904Y-119561904D01*
X307257142Y-119514285D01*
X307304761Y-119466666D01*
X307352380Y-119371428D01*
X307352380Y-119133333D01*
X307304761Y-119038095D01*
X307257142Y-118990476D01*
%TO.C,D27*%
X140852380Y-75885714D02*
X139852380Y-75885714D01*
X139852380Y-76123809D01*
X139900000Y-76266666D01*
X139995238Y-76361904D01*
X140090476Y-76409523D01*
X140280952Y-76457142D01*
X140423809Y-76457142D01*
X140614285Y-76409523D01*
X140709523Y-76361904D01*
X140804761Y-76266666D01*
X140852380Y-76123809D01*
X140852380Y-75885714D01*
X139947619Y-76838095D02*
X139900000Y-76885714D01*
X139852380Y-76980952D01*
X139852380Y-77219047D01*
X139900000Y-77314285D01*
X139947619Y-77361904D01*
X140042857Y-77409523D01*
X140138095Y-77409523D01*
X140280952Y-77361904D01*
X140852380Y-76790476D01*
X140852380Y-77409523D01*
X139852380Y-77742857D02*
X139852380Y-78409523D01*
X140852380Y-77980952D01*
%TO.C,R9*%
X269602380Y-62933333D02*
X269126190Y-62600000D01*
X269602380Y-62361904D02*
X268602380Y-62361904D01*
X268602380Y-62742857D01*
X268650000Y-62838095D01*
X268697619Y-62885714D01*
X268792857Y-62933333D01*
X268935714Y-62933333D01*
X269030952Y-62885714D01*
X269078571Y-62838095D01*
X269126190Y-62742857D01*
X269126190Y-62361904D01*
X269602380Y-63409523D02*
X269602380Y-63600000D01*
X269554761Y-63695238D01*
X269507142Y-63742857D01*
X269364285Y-63838095D01*
X269173809Y-63885714D01*
X268792857Y-63885714D01*
X268697619Y-63838095D01*
X268650000Y-63790476D01*
X268602380Y-63695238D01*
X268602380Y-63504761D01*
X268650000Y-63409523D01*
X268697619Y-63361904D01*
X268792857Y-63314285D01*
X269030952Y-63314285D01*
X269126190Y-63361904D01*
X269173809Y-63409523D01*
X269221428Y-63504761D01*
X269221428Y-63695238D01*
X269173809Y-63790476D01*
X269126190Y-63838095D01*
X269030952Y-63885714D01*
%TO.C,D51*%
X274552380Y-75985714D02*
X273552380Y-75985714D01*
X273552380Y-76223809D01*
X273600000Y-76366666D01*
X273695238Y-76461904D01*
X273790476Y-76509523D01*
X273980952Y-76557142D01*
X274123809Y-76557142D01*
X274314285Y-76509523D01*
X274409523Y-76461904D01*
X274504761Y-76366666D01*
X274552380Y-76223809D01*
X274552380Y-75985714D01*
X273552380Y-77461904D02*
X273552380Y-76985714D01*
X274028571Y-76938095D01*
X273980952Y-76985714D01*
X273933333Y-77080952D01*
X273933333Y-77319047D01*
X273980952Y-77414285D01*
X274028571Y-77461904D01*
X274123809Y-77509523D01*
X274361904Y-77509523D01*
X274457142Y-77461904D01*
X274504761Y-77414285D01*
X274552380Y-77319047D01*
X274552380Y-77080952D01*
X274504761Y-76985714D01*
X274457142Y-76938095D01*
X274552380Y-78461904D02*
X274552380Y-77890476D01*
X274552380Y-78176190D02*
X273552380Y-78176190D01*
X273695238Y-78080952D01*
X273790476Y-77985714D01*
X273838095Y-77890476D01*
%TO.C,D26*%
X140852380Y-56885714D02*
X139852380Y-56885714D01*
X139852380Y-57123809D01*
X139900000Y-57266666D01*
X139995238Y-57361904D01*
X140090476Y-57409523D01*
X140280952Y-57457142D01*
X140423809Y-57457142D01*
X140614285Y-57409523D01*
X140709523Y-57361904D01*
X140804761Y-57266666D01*
X140852380Y-57123809D01*
X140852380Y-56885714D01*
X139947619Y-57838095D02*
X139900000Y-57885714D01*
X139852380Y-57980952D01*
X139852380Y-58219047D01*
X139900000Y-58314285D01*
X139947619Y-58361904D01*
X140042857Y-58409523D01*
X140138095Y-58409523D01*
X140280952Y-58361904D01*
X140852380Y-57790476D01*
X140852380Y-58409523D01*
X139852380Y-59266666D02*
X139852380Y-59076190D01*
X139900000Y-58980952D01*
X139947619Y-58933333D01*
X140090476Y-58838095D01*
X140280952Y-58790476D01*
X140661904Y-58790476D01*
X140757142Y-58838095D01*
X140804761Y-58885714D01*
X140852380Y-58980952D01*
X140852380Y-59171428D01*
X140804761Y-59266666D01*
X140757142Y-59314285D01*
X140661904Y-59361904D01*
X140423809Y-59361904D01*
X140328571Y-59314285D01*
X140280952Y-59266666D01*
X140233333Y-59171428D01*
X140233333Y-58980952D01*
X140280952Y-58885714D01*
X140328571Y-58838095D01*
X140423809Y-58790476D01*
%TO.C,R10*%
X288602380Y-62457142D02*
X288126190Y-62123809D01*
X288602380Y-61885714D02*
X287602380Y-61885714D01*
X287602380Y-62266666D01*
X287650000Y-62361904D01*
X287697619Y-62409523D01*
X287792857Y-62457142D01*
X287935714Y-62457142D01*
X288030952Y-62409523D01*
X288078571Y-62361904D01*
X288126190Y-62266666D01*
X288126190Y-61885714D01*
X288602380Y-63409523D02*
X288602380Y-62838095D01*
X288602380Y-63123809D02*
X287602380Y-63123809D01*
X287745238Y-63028571D01*
X287840476Y-62933333D01*
X287888095Y-62838095D01*
X287602380Y-64028571D02*
X287602380Y-64123809D01*
X287650000Y-64219047D01*
X287697619Y-64266666D01*
X287792857Y-64314285D01*
X287983333Y-64361904D01*
X288221428Y-64361904D01*
X288411904Y-64314285D01*
X288507142Y-64266666D01*
X288554761Y-64219047D01*
X288602380Y-64123809D01*
X288602380Y-64028571D01*
X288554761Y-63933333D01*
X288507142Y-63885714D01*
X288411904Y-63838095D01*
X288221428Y-63790476D01*
X287983333Y-63790476D01*
X287792857Y-63838095D01*
X287697619Y-63885714D01*
X287650000Y-63933333D01*
X287602380Y-64028571D01*
%TO.C,R7*%
X173802380Y-62833333D02*
X173326190Y-62500000D01*
X173802380Y-62261904D02*
X172802380Y-62261904D01*
X172802380Y-62642857D01*
X172850000Y-62738095D01*
X172897619Y-62785714D01*
X172992857Y-62833333D01*
X173135714Y-62833333D01*
X173230952Y-62785714D01*
X173278571Y-62738095D01*
X173326190Y-62642857D01*
X173326190Y-62261904D01*
X172802380Y-63166666D02*
X172802380Y-63833333D01*
X173802380Y-63404761D01*
%TO.C,R5*%
X136002380Y-62833333D02*
X135526190Y-62500000D01*
X136002380Y-62261904D02*
X135002380Y-62261904D01*
X135002380Y-62642857D01*
X135050000Y-62738095D01*
X135097619Y-62785714D01*
X135192857Y-62833333D01*
X135335714Y-62833333D01*
X135430952Y-62785714D01*
X135478571Y-62738095D01*
X135526190Y-62642857D01*
X135526190Y-62261904D01*
X135002380Y-63738095D02*
X135002380Y-63261904D01*
X135478571Y-63214285D01*
X135430952Y-63261904D01*
X135383333Y-63357142D01*
X135383333Y-63595238D01*
X135430952Y-63690476D01*
X135478571Y-63738095D01*
X135573809Y-63785714D01*
X135811904Y-63785714D01*
X135907142Y-63738095D01*
X135954761Y-63690476D01*
X136002380Y-63595238D01*
X136002380Y-63357142D01*
X135954761Y-63261904D01*
X135907142Y-63214285D01*
%TO.C,D5*%
X64852380Y-114461904D02*
X63852380Y-114461904D01*
X63852380Y-114700000D01*
X63900000Y-114842857D01*
X63995238Y-114938095D01*
X64090476Y-114985714D01*
X64280952Y-115033333D01*
X64423809Y-115033333D01*
X64614285Y-114985714D01*
X64709523Y-114938095D01*
X64804761Y-114842857D01*
X64852380Y-114700000D01*
X64852380Y-114461904D01*
X63852380Y-115938095D02*
X63852380Y-115461904D01*
X64328571Y-115414285D01*
X64280952Y-115461904D01*
X64233333Y-115557142D01*
X64233333Y-115795238D01*
X64280952Y-115890476D01*
X64328571Y-115938095D01*
X64423809Y-115985714D01*
X64661904Y-115985714D01*
X64757142Y-115938095D01*
X64804761Y-115890476D01*
X64852380Y-115795238D01*
X64852380Y-115557142D01*
X64804761Y-115461904D01*
X64757142Y-115414285D01*
%TO.C,D60*%
X293552380Y-130185714D02*
X292552380Y-130185714D01*
X292552380Y-130423809D01*
X292600000Y-130566666D01*
X292695238Y-130661904D01*
X292790476Y-130709523D01*
X292980952Y-130757142D01*
X293123809Y-130757142D01*
X293314285Y-130709523D01*
X293409523Y-130661904D01*
X293504761Y-130566666D01*
X293552380Y-130423809D01*
X293552380Y-130185714D01*
X292552380Y-131614285D02*
X292552380Y-131423809D01*
X292600000Y-131328571D01*
X292647619Y-131280952D01*
X292790476Y-131185714D01*
X292980952Y-131138095D01*
X293361904Y-131138095D01*
X293457142Y-131185714D01*
X293504761Y-131233333D01*
X293552380Y-131328571D01*
X293552380Y-131519047D01*
X293504761Y-131614285D01*
X293457142Y-131661904D01*
X293361904Y-131709523D01*
X293123809Y-131709523D01*
X293028571Y-131661904D01*
X292980952Y-131614285D01*
X292933333Y-131519047D01*
X292933333Y-131328571D01*
X292980952Y-131233333D01*
X293028571Y-131185714D01*
X293123809Y-131138095D01*
X292552380Y-132328571D02*
X292552380Y-132423809D01*
X292600000Y-132519047D01*
X292647619Y-132566666D01*
X292742857Y-132614285D01*
X292933333Y-132661904D01*
X293171428Y-132661904D01*
X293361904Y-132614285D01*
X293457142Y-132566666D01*
X293504761Y-132519047D01*
X293552380Y-132423809D01*
X293552380Y-132328571D01*
X293504761Y-132233333D01*
X293457142Y-132185714D01*
X293361904Y-132138095D01*
X293171428Y-132090476D01*
X292933333Y-132090476D01*
X292742857Y-132138095D01*
X292647619Y-132185714D01*
X292600000Y-132233333D01*
X292552380Y-132328571D01*
%TO.C,D1*%
X78652380Y-117561904D02*
X77652380Y-117561904D01*
X77652380Y-117800000D01*
X77700000Y-117942857D01*
X77795238Y-118038095D01*
X77890476Y-118085714D01*
X78080952Y-118133333D01*
X78223809Y-118133333D01*
X78414285Y-118085714D01*
X78509523Y-118038095D01*
X78604761Y-117942857D01*
X78652380Y-117800000D01*
X78652380Y-117561904D01*
X78652380Y-119085714D02*
X78652380Y-118514285D01*
X78652380Y-118800000D02*
X77652380Y-118800000D01*
X77795238Y-118704761D01*
X77890476Y-118609523D01*
X77938095Y-118514285D01*
%TO.C,C1*%
X197557142Y-117533333D02*
X197604761Y-117485714D01*
X197652380Y-117342857D01*
X197652380Y-117247619D01*
X197604761Y-117104761D01*
X197509523Y-117009523D01*
X197414285Y-116961904D01*
X197223809Y-116914285D01*
X197080952Y-116914285D01*
X196890476Y-116961904D01*
X196795238Y-117009523D01*
X196700000Y-117104761D01*
X196652380Y-117247619D01*
X196652380Y-117342857D01*
X196700000Y-117485714D01*
X196747619Y-117533333D01*
X197652380Y-118485714D02*
X197652380Y-117914285D01*
X197652380Y-118200000D02*
X196652380Y-118200000D01*
X196795238Y-118104761D01*
X196890476Y-118009523D01*
X196938095Y-117914285D01*
%TO.C,D25*%
X154652380Y-117085714D02*
X153652380Y-117085714D01*
X153652380Y-117323809D01*
X153700000Y-117466666D01*
X153795238Y-117561904D01*
X153890476Y-117609523D01*
X154080952Y-117657142D01*
X154223809Y-117657142D01*
X154414285Y-117609523D01*
X154509523Y-117561904D01*
X154604761Y-117466666D01*
X154652380Y-117323809D01*
X154652380Y-117085714D01*
X153747619Y-118038095D02*
X153700000Y-118085714D01*
X153652380Y-118180952D01*
X153652380Y-118419047D01*
X153700000Y-118514285D01*
X153747619Y-118561904D01*
X153842857Y-118609523D01*
X153938095Y-118609523D01*
X154080952Y-118561904D01*
X154652380Y-117990476D01*
X154652380Y-118609523D01*
X153652380Y-119514285D02*
X153652380Y-119038095D01*
X154128571Y-118990476D01*
X154080952Y-119038095D01*
X154033333Y-119133333D01*
X154033333Y-119371428D01*
X154080952Y-119466666D01*
X154128571Y-119514285D01*
X154223809Y-119561904D01*
X154461904Y-119561904D01*
X154557142Y-119514285D01*
X154604761Y-119466666D01*
X154652380Y-119371428D01*
X154652380Y-119133333D01*
X154604761Y-119038095D01*
X154557142Y-118990476D01*
%TO.C,D30*%
X140852380Y-132885714D02*
X139852380Y-132885714D01*
X139852380Y-133123809D01*
X139900000Y-133266666D01*
X139995238Y-133361904D01*
X140090476Y-133409523D01*
X140280952Y-133457142D01*
X140423809Y-133457142D01*
X140614285Y-133409523D01*
X140709523Y-133361904D01*
X140804761Y-133266666D01*
X140852380Y-133123809D01*
X140852380Y-132885714D01*
X139852380Y-133790476D02*
X139852380Y-134409523D01*
X140233333Y-134076190D01*
X140233333Y-134219047D01*
X140280952Y-134314285D01*
X140328571Y-134361904D01*
X140423809Y-134409523D01*
X140661904Y-134409523D01*
X140757142Y-134361904D01*
X140804761Y-134314285D01*
X140852380Y-134219047D01*
X140852380Y-133933333D01*
X140804761Y-133838095D01*
X140757142Y-133790476D01*
X139852380Y-135028571D02*
X139852380Y-135123809D01*
X139900000Y-135219047D01*
X139947619Y-135266666D01*
X140042857Y-135314285D01*
X140233333Y-135361904D01*
X140471428Y-135361904D01*
X140661904Y-135314285D01*
X140757142Y-135266666D01*
X140804761Y-135219047D01*
X140852380Y-135123809D01*
X140852380Y-135028571D01*
X140804761Y-134933333D01*
X140757142Y-134885714D01*
X140661904Y-134838095D01*
X140471428Y-134790476D01*
X140233333Y-134790476D01*
X140042857Y-134838095D01*
X139947619Y-134885714D01*
X139900000Y-134933333D01*
X139852380Y-135028571D01*
%TO.C,R17*%
X210102380Y-116547142D02*
X209626190Y-116213809D01*
X210102380Y-115975714D02*
X209102380Y-115975714D01*
X209102380Y-116356666D01*
X209150000Y-116451904D01*
X209197619Y-116499523D01*
X209292857Y-116547142D01*
X209435714Y-116547142D01*
X209530952Y-116499523D01*
X209578571Y-116451904D01*
X209626190Y-116356666D01*
X209626190Y-115975714D01*
X210102380Y-117499523D02*
X210102380Y-116928095D01*
X210102380Y-117213809D02*
X209102380Y-117213809D01*
X209245238Y-117118571D01*
X209340476Y-117023333D01*
X209388095Y-116928095D01*
X209102380Y-117832857D02*
X209102380Y-118499523D01*
X210102380Y-118070952D01*
%TO.C,D2*%
X64852380Y-57411904D02*
X63852380Y-57411904D01*
X63852380Y-57650000D01*
X63900000Y-57792857D01*
X63995238Y-57888095D01*
X64090476Y-57935714D01*
X64280952Y-57983333D01*
X64423809Y-57983333D01*
X64614285Y-57935714D01*
X64709523Y-57888095D01*
X64804761Y-57792857D01*
X64852380Y-57650000D01*
X64852380Y-57411904D01*
X63947619Y-58364285D02*
X63900000Y-58411904D01*
X63852380Y-58507142D01*
X63852380Y-58745238D01*
X63900000Y-58840476D01*
X63947619Y-58888095D01*
X64042857Y-58935714D01*
X64138095Y-58935714D01*
X64280952Y-58888095D01*
X64852380Y-58316666D01*
X64852380Y-58935714D01*
%TO.C,D23*%
X121852380Y-132885714D02*
X120852380Y-132885714D01*
X120852380Y-133123809D01*
X120900000Y-133266666D01*
X120995238Y-133361904D01*
X121090476Y-133409523D01*
X121280952Y-133457142D01*
X121423809Y-133457142D01*
X121614285Y-133409523D01*
X121709523Y-133361904D01*
X121804761Y-133266666D01*
X121852380Y-133123809D01*
X121852380Y-132885714D01*
X120947619Y-133838095D02*
X120900000Y-133885714D01*
X120852380Y-133980952D01*
X120852380Y-134219047D01*
X120900000Y-134314285D01*
X120947619Y-134361904D01*
X121042857Y-134409523D01*
X121138095Y-134409523D01*
X121280952Y-134361904D01*
X121852380Y-133790476D01*
X121852380Y-134409523D01*
X120852380Y-134742857D02*
X120852380Y-135361904D01*
X121233333Y-135028571D01*
X121233333Y-135171428D01*
X121280952Y-135266666D01*
X121328571Y-135314285D01*
X121423809Y-135361904D01*
X121661904Y-135361904D01*
X121757142Y-135314285D01*
X121804761Y-135266666D01*
X121852380Y-135171428D01*
X121852380Y-134885714D01*
X121804761Y-134790476D01*
X121757142Y-134742857D01*
%TO.C,C5*%
X214566666Y-49607142D02*
X214614285Y-49654761D01*
X214757142Y-49702380D01*
X214852380Y-49702380D01*
X214995238Y-49654761D01*
X215090476Y-49559523D01*
X215138095Y-49464285D01*
X215185714Y-49273809D01*
X215185714Y-49130952D01*
X215138095Y-48940476D01*
X215090476Y-48845238D01*
X214995238Y-48750000D01*
X214852380Y-48702380D01*
X214757142Y-48702380D01*
X214614285Y-48750000D01*
X214566666Y-48797619D01*
X213661904Y-48702380D02*
X214138095Y-48702380D01*
X214185714Y-49178571D01*
X214138095Y-49130952D01*
X214042857Y-49083333D01*
X213804761Y-49083333D01*
X213709523Y-49130952D01*
X213661904Y-49178571D01*
X213614285Y-49273809D01*
X213614285Y-49511904D01*
X213661904Y-49607142D01*
X213709523Y-49654761D01*
X213804761Y-49702380D01*
X214042857Y-49702380D01*
X214138095Y-49654761D01*
X214185714Y-49607142D01*
%TO.C,R13*%
X342252380Y-60657142D02*
X341776190Y-60323809D01*
X342252380Y-60085714D02*
X341252380Y-60085714D01*
X341252380Y-60466666D01*
X341300000Y-60561904D01*
X341347619Y-60609523D01*
X341442857Y-60657142D01*
X341585714Y-60657142D01*
X341680952Y-60609523D01*
X341728571Y-60561904D01*
X341776190Y-60466666D01*
X341776190Y-60085714D01*
X342252380Y-61609523D02*
X342252380Y-61038095D01*
X342252380Y-61323809D02*
X341252380Y-61323809D01*
X341395238Y-61228571D01*
X341490476Y-61133333D01*
X341538095Y-61038095D01*
X341252380Y-61942857D02*
X341252380Y-62561904D01*
X341633333Y-62228571D01*
X341633333Y-62371428D01*
X341680952Y-62466666D01*
X341728571Y-62514285D01*
X341823809Y-62561904D01*
X342061904Y-62561904D01*
X342157142Y-62514285D01*
X342204761Y-62466666D01*
X342252380Y-62371428D01*
X342252380Y-62085714D01*
X342204761Y-61990476D01*
X342157142Y-61942857D01*
%TO.C,R8*%
X250602380Y-62933333D02*
X250126190Y-62600000D01*
X250602380Y-62361904D02*
X249602380Y-62361904D01*
X249602380Y-62742857D01*
X249650000Y-62838095D01*
X249697619Y-62885714D01*
X249792857Y-62933333D01*
X249935714Y-62933333D01*
X250030952Y-62885714D01*
X250078571Y-62838095D01*
X250126190Y-62742857D01*
X250126190Y-62361904D01*
X250030952Y-63504761D02*
X249983333Y-63409523D01*
X249935714Y-63361904D01*
X249840476Y-63314285D01*
X249792857Y-63314285D01*
X249697619Y-63361904D01*
X249650000Y-63409523D01*
X249602380Y-63504761D01*
X249602380Y-63695238D01*
X249650000Y-63790476D01*
X249697619Y-63838095D01*
X249792857Y-63885714D01*
X249840476Y-63885714D01*
X249935714Y-63838095D01*
X249983333Y-63790476D01*
X250030952Y-63695238D01*
X250030952Y-63504761D01*
X250078571Y-63409523D01*
X250126190Y-63361904D01*
X250221428Y-63314285D01*
X250411904Y-63314285D01*
X250507142Y-63361904D01*
X250554761Y-63409523D01*
X250602380Y-63504761D01*
X250602380Y-63695238D01*
X250554761Y-63790476D01*
X250507142Y-63838095D01*
X250411904Y-63885714D01*
X250221428Y-63885714D01*
X250126190Y-63838095D01*
X250078571Y-63790476D01*
X250030952Y-63695238D01*
%TO.C,D16*%
X102952380Y-94985714D02*
X101952380Y-94985714D01*
X101952380Y-95223809D01*
X102000000Y-95366666D01*
X102095238Y-95461904D01*
X102190476Y-95509523D01*
X102380952Y-95557142D01*
X102523809Y-95557142D01*
X102714285Y-95509523D01*
X102809523Y-95461904D01*
X102904761Y-95366666D01*
X102952380Y-95223809D01*
X102952380Y-94985714D01*
X102952380Y-96509523D02*
X102952380Y-95938095D01*
X102952380Y-96223809D02*
X101952380Y-96223809D01*
X102095238Y-96128571D01*
X102190476Y-96033333D01*
X102238095Y-95938095D01*
X101952380Y-97366666D02*
X101952380Y-97176190D01*
X102000000Y-97080952D01*
X102047619Y-97033333D01*
X102190476Y-96938095D01*
X102380952Y-96890476D01*
X102761904Y-96890476D01*
X102857142Y-96938095D01*
X102904761Y-96985714D01*
X102952380Y-97080952D01*
X102952380Y-97271428D01*
X102904761Y-97366666D01*
X102857142Y-97414285D01*
X102761904Y-97461904D01*
X102523809Y-97461904D01*
X102428571Y-97414285D01*
X102380952Y-97366666D01*
X102333333Y-97271428D01*
X102333333Y-97080952D01*
X102380952Y-96985714D01*
X102428571Y-96938095D01*
X102523809Y-96890476D01*
%TO.C,D18*%
X102852380Y-132885714D02*
X101852380Y-132885714D01*
X101852380Y-133123809D01*
X101900000Y-133266666D01*
X101995238Y-133361904D01*
X102090476Y-133409523D01*
X102280952Y-133457142D01*
X102423809Y-133457142D01*
X102614285Y-133409523D01*
X102709523Y-133361904D01*
X102804761Y-133266666D01*
X102852380Y-133123809D01*
X102852380Y-132885714D01*
X102852380Y-134409523D02*
X102852380Y-133838095D01*
X102852380Y-134123809D02*
X101852380Y-134123809D01*
X101995238Y-134028571D01*
X102090476Y-133933333D01*
X102138095Y-133838095D01*
X102280952Y-134980952D02*
X102233333Y-134885714D01*
X102185714Y-134838095D01*
X102090476Y-134790476D01*
X102042857Y-134790476D01*
X101947619Y-134838095D01*
X101900000Y-134885714D01*
X101852380Y-134980952D01*
X101852380Y-135171428D01*
X101900000Y-135266666D01*
X101947619Y-135314285D01*
X102042857Y-135361904D01*
X102090476Y-135361904D01*
X102185714Y-135314285D01*
X102233333Y-135266666D01*
X102280952Y-135171428D01*
X102280952Y-134980952D01*
X102328571Y-134885714D01*
X102376190Y-134838095D01*
X102471428Y-134790476D01*
X102661904Y-134790476D01*
X102757142Y-134838095D01*
X102804761Y-134885714D01*
X102852380Y-134980952D01*
X102852380Y-135171428D01*
X102804761Y-135266666D01*
X102757142Y-135314285D01*
X102661904Y-135361904D01*
X102471428Y-135361904D01*
X102376190Y-135314285D01*
X102328571Y-135266666D01*
X102280952Y-135171428D01*
%TO.C,D3*%
X64952380Y-76361904D02*
X63952380Y-76361904D01*
X63952380Y-76600000D01*
X64000000Y-76742857D01*
X64095238Y-76838095D01*
X64190476Y-76885714D01*
X64380952Y-76933333D01*
X64523809Y-76933333D01*
X64714285Y-76885714D01*
X64809523Y-76838095D01*
X64904761Y-76742857D01*
X64952380Y-76600000D01*
X64952380Y-76361904D01*
X63952380Y-77266666D02*
X63952380Y-77885714D01*
X64333333Y-77552380D01*
X64333333Y-77695238D01*
X64380952Y-77790476D01*
X64428571Y-77838095D01*
X64523809Y-77885714D01*
X64761904Y-77885714D01*
X64857142Y-77838095D01*
X64904761Y-77790476D01*
X64952380Y-77695238D01*
X64952380Y-77409523D01*
X64904761Y-77314285D01*
X64857142Y-77266666D01*
%TO.C,R19*%
X202142857Y-128852380D02*
X202476190Y-128376190D01*
X202714285Y-128852380D02*
X202714285Y-127852380D01*
X202333333Y-127852380D01*
X202238095Y-127900000D01*
X202190476Y-127947619D01*
X202142857Y-128042857D01*
X202142857Y-128185714D01*
X202190476Y-128280952D01*
X202238095Y-128328571D01*
X202333333Y-128376190D01*
X202714285Y-128376190D01*
X201190476Y-128852380D02*
X201761904Y-128852380D01*
X201476190Y-128852380D02*
X201476190Y-127852380D01*
X201571428Y-127995238D01*
X201666666Y-128090476D01*
X201761904Y-128138095D01*
X200714285Y-128852380D02*
X200523809Y-128852380D01*
X200428571Y-128804761D01*
X200380952Y-128757142D01*
X200285714Y-128614285D01*
X200238095Y-128423809D01*
X200238095Y-128042857D01*
X200285714Y-127947619D01*
X200333333Y-127900000D01*
X200428571Y-127852380D01*
X200619047Y-127852380D01*
X200714285Y-127900000D01*
X200761904Y-127947619D01*
X200809523Y-128042857D01*
X200809523Y-128280952D01*
X200761904Y-128376190D01*
X200714285Y-128423809D01*
X200619047Y-128471428D01*
X200428571Y-128471428D01*
X200333333Y-128423809D01*
X200285714Y-128376190D01*
X200238095Y-128280952D01*
%TO.C,C4*%
X202957142Y-56633333D02*
X203004761Y-56585714D01*
X203052380Y-56442857D01*
X203052380Y-56347619D01*
X203004761Y-56204761D01*
X202909523Y-56109523D01*
X202814285Y-56061904D01*
X202623809Y-56014285D01*
X202480952Y-56014285D01*
X202290476Y-56061904D01*
X202195238Y-56109523D01*
X202100000Y-56204761D01*
X202052380Y-56347619D01*
X202052380Y-56442857D01*
X202100000Y-56585714D01*
X202147619Y-56633333D01*
X202385714Y-57490476D02*
X203052380Y-57490476D01*
X202004761Y-57252380D02*
X202719047Y-57014285D01*
X202719047Y-57633333D01*
%TO.C,D67*%
X345252380Y-117085714D02*
X344252380Y-117085714D01*
X344252380Y-117323809D01*
X344300000Y-117466666D01*
X344395238Y-117561904D01*
X344490476Y-117609523D01*
X344680952Y-117657142D01*
X344823809Y-117657142D01*
X345014285Y-117609523D01*
X345109523Y-117561904D01*
X345204761Y-117466666D01*
X345252380Y-117323809D01*
X345252380Y-117085714D01*
X344252380Y-118514285D02*
X344252380Y-118323809D01*
X344300000Y-118228571D01*
X344347619Y-118180952D01*
X344490476Y-118085714D01*
X344680952Y-118038095D01*
X345061904Y-118038095D01*
X345157142Y-118085714D01*
X345204761Y-118133333D01*
X345252380Y-118228571D01*
X345252380Y-118419047D01*
X345204761Y-118514285D01*
X345157142Y-118561904D01*
X345061904Y-118609523D01*
X344823809Y-118609523D01*
X344728571Y-118561904D01*
X344680952Y-118514285D01*
X344633333Y-118419047D01*
X344633333Y-118228571D01*
X344680952Y-118133333D01*
X344728571Y-118085714D01*
X344823809Y-118038095D01*
X344252380Y-118942857D02*
X344252380Y-119609523D01*
X345252380Y-119180952D01*
%TO.C,D31*%
X173752380Y-117085714D02*
X172752380Y-117085714D01*
X172752380Y-117323809D01*
X172800000Y-117466666D01*
X172895238Y-117561904D01*
X172990476Y-117609523D01*
X173180952Y-117657142D01*
X173323809Y-117657142D01*
X173514285Y-117609523D01*
X173609523Y-117561904D01*
X173704761Y-117466666D01*
X173752380Y-117323809D01*
X173752380Y-117085714D01*
X172752380Y-117990476D02*
X172752380Y-118609523D01*
X173133333Y-118276190D01*
X173133333Y-118419047D01*
X173180952Y-118514285D01*
X173228571Y-118561904D01*
X173323809Y-118609523D01*
X173561904Y-118609523D01*
X173657142Y-118561904D01*
X173704761Y-118514285D01*
X173752380Y-118419047D01*
X173752380Y-118133333D01*
X173704761Y-118038095D01*
X173657142Y-117990476D01*
X173752380Y-119561904D02*
X173752380Y-118990476D01*
X173752380Y-119276190D02*
X172752380Y-119276190D01*
X172895238Y-119180952D01*
X172990476Y-119085714D01*
X173038095Y-118990476D01*
%TO.C,D10*%
X83952380Y-94885714D02*
X82952380Y-94885714D01*
X82952380Y-95123809D01*
X83000000Y-95266666D01*
X83095238Y-95361904D01*
X83190476Y-95409523D01*
X83380952Y-95457142D01*
X83523809Y-95457142D01*
X83714285Y-95409523D01*
X83809523Y-95361904D01*
X83904761Y-95266666D01*
X83952380Y-95123809D01*
X83952380Y-94885714D01*
X83952380Y-96409523D02*
X83952380Y-95838095D01*
X83952380Y-96123809D02*
X82952380Y-96123809D01*
X83095238Y-96028571D01*
X83190476Y-95933333D01*
X83238095Y-95838095D01*
X82952380Y-97028571D02*
X82952380Y-97123809D01*
X83000000Y-97219047D01*
X83047619Y-97266666D01*
X83142857Y-97314285D01*
X83333333Y-97361904D01*
X83571428Y-97361904D01*
X83761904Y-97314285D01*
X83857142Y-97266666D01*
X83904761Y-97219047D01*
X83952380Y-97123809D01*
X83952380Y-97028571D01*
X83904761Y-96933333D01*
X83857142Y-96885714D01*
X83761904Y-96838095D01*
X83571428Y-96790476D01*
X83333333Y-96790476D01*
X83142857Y-96838095D01*
X83047619Y-96885714D01*
X83000000Y-96933333D01*
X82952380Y-97028571D01*
%TO.C,D6*%
X64952380Y-133461904D02*
X63952380Y-133461904D01*
X63952380Y-133700000D01*
X64000000Y-133842857D01*
X64095238Y-133938095D01*
X64190476Y-133985714D01*
X64380952Y-134033333D01*
X64523809Y-134033333D01*
X64714285Y-133985714D01*
X64809523Y-133938095D01*
X64904761Y-133842857D01*
X64952380Y-133700000D01*
X64952380Y-133461904D01*
X63952380Y-134890476D02*
X63952380Y-134700000D01*
X64000000Y-134604761D01*
X64047619Y-134557142D01*
X64190476Y-134461904D01*
X64380952Y-134414285D01*
X64761904Y-134414285D01*
X64857142Y-134461904D01*
X64904761Y-134509523D01*
X64952380Y-134604761D01*
X64952380Y-134795238D01*
X64904761Y-134890476D01*
X64857142Y-134938095D01*
X64761904Y-134985714D01*
X64523809Y-134985714D01*
X64428571Y-134938095D01*
X64380952Y-134890476D01*
X64333333Y-134795238D01*
X64333333Y-134604761D01*
X64380952Y-134509523D01*
X64428571Y-134461904D01*
X64523809Y-134414285D01*
%TO.C,R1*%
X197652380Y-122233333D02*
X197176190Y-121900000D01*
X197652380Y-121661904D02*
X196652380Y-121661904D01*
X196652380Y-122042857D01*
X196700000Y-122138095D01*
X196747619Y-122185714D01*
X196842857Y-122233333D01*
X196985714Y-122233333D01*
X197080952Y-122185714D01*
X197128571Y-122138095D01*
X197176190Y-122042857D01*
X197176190Y-121661904D01*
X197652380Y-123185714D02*
X197652380Y-122614285D01*
X197652380Y-122900000D02*
X196652380Y-122900000D01*
X196795238Y-122804761D01*
X196890476Y-122709523D01*
X196938095Y-122614285D01*
%TO.C,D65*%
X312552380Y-113885714D02*
X311552380Y-113885714D01*
X311552380Y-114123809D01*
X311600000Y-114266666D01*
X311695238Y-114361904D01*
X311790476Y-114409523D01*
X311980952Y-114457142D01*
X312123809Y-114457142D01*
X312314285Y-114409523D01*
X312409523Y-114361904D01*
X312504761Y-114266666D01*
X312552380Y-114123809D01*
X312552380Y-113885714D01*
X311552380Y-115314285D02*
X311552380Y-115123809D01*
X311600000Y-115028571D01*
X311647619Y-114980952D01*
X311790476Y-114885714D01*
X311980952Y-114838095D01*
X312361904Y-114838095D01*
X312457142Y-114885714D01*
X312504761Y-114933333D01*
X312552380Y-115028571D01*
X312552380Y-115219047D01*
X312504761Y-115314285D01*
X312457142Y-115361904D01*
X312361904Y-115409523D01*
X312123809Y-115409523D01*
X312028571Y-115361904D01*
X311980952Y-115314285D01*
X311933333Y-115219047D01*
X311933333Y-115028571D01*
X311980952Y-114933333D01*
X312028571Y-114885714D01*
X312123809Y-114838095D01*
X311552380Y-116314285D02*
X311552380Y-115838095D01*
X312028571Y-115790476D01*
X311980952Y-115838095D01*
X311933333Y-115933333D01*
X311933333Y-116171428D01*
X311980952Y-116266666D01*
X312028571Y-116314285D01*
X312123809Y-116361904D01*
X312361904Y-116361904D01*
X312457142Y-116314285D01*
X312504761Y-116266666D01*
X312552380Y-116171428D01*
X312552380Y-115933333D01*
X312504761Y-115838095D01*
X312457142Y-115790476D01*
%TO.C,D70*%
X331452380Y-94885714D02*
X330452380Y-94885714D01*
X330452380Y-95123809D01*
X330500000Y-95266666D01*
X330595238Y-95361904D01*
X330690476Y-95409523D01*
X330880952Y-95457142D01*
X331023809Y-95457142D01*
X331214285Y-95409523D01*
X331309523Y-95361904D01*
X331404761Y-95266666D01*
X331452380Y-95123809D01*
X331452380Y-94885714D01*
X330452380Y-95790476D02*
X330452380Y-96457142D01*
X331452380Y-96028571D01*
X330452380Y-97028571D02*
X330452380Y-97123809D01*
X330500000Y-97219047D01*
X330547619Y-97266666D01*
X330642857Y-97314285D01*
X330833333Y-97361904D01*
X331071428Y-97361904D01*
X331261904Y-97314285D01*
X331357142Y-97266666D01*
X331404761Y-97219047D01*
X331452380Y-97123809D01*
X331452380Y-97028571D01*
X331404761Y-96933333D01*
X331357142Y-96885714D01*
X331261904Y-96838095D01*
X331071428Y-96790476D01*
X330833333Y-96790476D01*
X330642857Y-96838095D01*
X330547619Y-96885714D01*
X330500000Y-96933333D01*
X330452380Y-97028571D01*
%TO.C,D69*%
X331552380Y-75885714D02*
X330552380Y-75885714D01*
X330552380Y-76123809D01*
X330600000Y-76266666D01*
X330695238Y-76361904D01*
X330790476Y-76409523D01*
X330980952Y-76457142D01*
X331123809Y-76457142D01*
X331314285Y-76409523D01*
X331409523Y-76361904D01*
X331504761Y-76266666D01*
X331552380Y-76123809D01*
X331552380Y-75885714D01*
X330552380Y-77314285D02*
X330552380Y-77123809D01*
X330600000Y-77028571D01*
X330647619Y-76980952D01*
X330790476Y-76885714D01*
X330980952Y-76838095D01*
X331361904Y-76838095D01*
X331457142Y-76885714D01*
X331504761Y-76933333D01*
X331552380Y-77028571D01*
X331552380Y-77219047D01*
X331504761Y-77314285D01*
X331457142Y-77361904D01*
X331361904Y-77409523D01*
X331123809Y-77409523D01*
X331028571Y-77361904D01*
X330980952Y-77314285D01*
X330933333Y-77219047D01*
X330933333Y-77028571D01*
X330980952Y-76933333D01*
X331028571Y-76885714D01*
X331123809Y-76838095D01*
X331552380Y-77885714D02*
X331552380Y-78076190D01*
X331504761Y-78171428D01*
X331457142Y-78219047D01*
X331314285Y-78314285D01*
X331123809Y-78361904D01*
X330742857Y-78361904D01*
X330647619Y-78314285D01*
X330600000Y-78266666D01*
X330552380Y-78171428D01*
X330552380Y-77980952D01*
X330600000Y-77885714D01*
X330647619Y-77838095D01*
X330742857Y-77790476D01*
X330980952Y-77790476D01*
X331076190Y-77838095D01*
X331123809Y-77885714D01*
X331171428Y-77980952D01*
X331171428Y-78171428D01*
X331123809Y-78266666D01*
X331076190Y-78314285D01*
X330980952Y-78361904D01*
%TO.C,D44*%
X255722380Y-55935714D02*
X254722380Y-55935714D01*
X254722380Y-56173809D01*
X254770000Y-56316666D01*
X254865238Y-56411904D01*
X254960476Y-56459523D01*
X255150952Y-56507142D01*
X255293809Y-56507142D01*
X255484285Y-56459523D01*
X255579523Y-56411904D01*
X255674761Y-56316666D01*
X255722380Y-56173809D01*
X255722380Y-55935714D01*
X255055714Y-57364285D02*
X255722380Y-57364285D01*
X254674761Y-57126190D02*
X255389047Y-56888095D01*
X255389047Y-57507142D01*
X255055714Y-58316666D02*
X255722380Y-58316666D01*
X254674761Y-58078571D02*
X255389047Y-57840476D01*
X255389047Y-58459523D01*
%TO.C,D41*%
X236926380Y-112831714D02*
X235926380Y-112831714D01*
X235926380Y-113069809D01*
X235974000Y-113212666D01*
X236069238Y-113307904D01*
X236164476Y-113355523D01*
X236354952Y-113403142D01*
X236497809Y-113403142D01*
X236688285Y-113355523D01*
X236783523Y-113307904D01*
X236878761Y-113212666D01*
X236926380Y-113069809D01*
X236926380Y-112831714D01*
X236259714Y-114260285D02*
X236926380Y-114260285D01*
X235878761Y-114022190D02*
X236593047Y-113784095D01*
X236593047Y-114403142D01*
X236926380Y-115307904D02*
X236926380Y-114736476D01*
X236926380Y-115022190D02*
X235926380Y-115022190D01*
X236069238Y-114926952D01*
X236164476Y-114831714D01*
X236212095Y-114736476D01*
%TO.C,D72*%
X331452380Y-132885714D02*
X330452380Y-132885714D01*
X330452380Y-133123809D01*
X330500000Y-133266666D01*
X330595238Y-133361904D01*
X330690476Y-133409523D01*
X330880952Y-133457142D01*
X331023809Y-133457142D01*
X331214285Y-133409523D01*
X331309523Y-133361904D01*
X331404761Y-133266666D01*
X331452380Y-133123809D01*
X331452380Y-132885714D01*
X330452380Y-133790476D02*
X330452380Y-134457142D01*
X331452380Y-134028571D01*
X330547619Y-134790476D02*
X330500000Y-134838095D01*
X330452380Y-134933333D01*
X330452380Y-135171428D01*
X330500000Y-135266666D01*
X330547619Y-135314285D01*
X330642857Y-135361904D01*
X330738095Y-135361904D01*
X330880952Y-135314285D01*
X331452380Y-134742857D01*
X331452380Y-135361904D01*
%TO.C,D68*%
X331452380Y-56885714D02*
X330452380Y-56885714D01*
X330452380Y-57123809D01*
X330500000Y-57266666D01*
X330595238Y-57361904D01*
X330690476Y-57409523D01*
X330880952Y-57457142D01*
X331023809Y-57457142D01*
X331214285Y-57409523D01*
X331309523Y-57361904D01*
X331404761Y-57266666D01*
X331452380Y-57123809D01*
X331452380Y-56885714D01*
X330452380Y-58314285D02*
X330452380Y-58123809D01*
X330500000Y-58028571D01*
X330547619Y-57980952D01*
X330690476Y-57885714D01*
X330880952Y-57838095D01*
X331261904Y-57838095D01*
X331357142Y-57885714D01*
X331404761Y-57933333D01*
X331452380Y-58028571D01*
X331452380Y-58219047D01*
X331404761Y-58314285D01*
X331357142Y-58361904D01*
X331261904Y-58409523D01*
X331023809Y-58409523D01*
X330928571Y-58361904D01*
X330880952Y-58314285D01*
X330833333Y-58219047D01*
X330833333Y-58028571D01*
X330880952Y-57933333D01*
X330928571Y-57885714D01*
X331023809Y-57838095D01*
X330880952Y-58980952D02*
X330833333Y-58885714D01*
X330785714Y-58838095D01*
X330690476Y-58790476D01*
X330642857Y-58790476D01*
X330547619Y-58838095D01*
X330500000Y-58885714D01*
X330452380Y-58980952D01*
X330452380Y-59171428D01*
X330500000Y-59266666D01*
X330547619Y-59314285D01*
X330642857Y-59361904D01*
X330690476Y-59361904D01*
X330785714Y-59314285D01*
X330833333Y-59266666D01*
X330880952Y-59171428D01*
X330880952Y-58980952D01*
X330928571Y-58885714D01*
X330976190Y-58838095D01*
X331071428Y-58790476D01*
X331261904Y-58790476D01*
X331357142Y-58838095D01*
X331404761Y-58885714D01*
X331452380Y-58980952D01*
X331452380Y-59171428D01*
X331404761Y-59266666D01*
X331357142Y-59314285D01*
X331261904Y-59361904D01*
X331071428Y-59361904D01*
X330976190Y-59314285D01*
X330928571Y-59266666D01*
X330880952Y-59171428D01*
%TO.C,D13*%
X116652380Y-117085714D02*
X115652380Y-117085714D01*
X115652380Y-117323809D01*
X115700000Y-117466666D01*
X115795238Y-117561904D01*
X115890476Y-117609523D01*
X116080952Y-117657142D01*
X116223809Y-117657142D01*
X116414285Y-117609523D01*
X116509523Y-117561904D01*
X116604761Y-117466666D01*
X116652380Y-117323809D01*
X116652380Y-117085714D01*
X116652380Y-118609523D02*
X116652380Y-118038095D01*
X116652380Y-118323809D02*
X115652380Y-118323809D01*
X115795238Y-118228571D01*
X115890476Y-118133333D01*
X115938095Y-118038095D01*
X115652380Y-118942857D02*
X115652380Y-119561904D01*
X116033333Y-119228571D01*
X116033333Y-119371428D01*
X116080952Y-119466666D01*
X116128571Y-119514285D01*
X116223809Y-119561904D01*
X116461904Y-119561904D01*
X116557142Y-119514285D01*
X116604761Y-119466666D01*
X116652380Y-119371428D01*
X116652380Y-119085714D01*
X116604761Y-118990476D01*
X116557142Y-118942857D01*
%TO.C,D66*%
X312552380Y-132985714D02*
X311552380Y-132985714D01*
X311552380Y-133223809D01*
X311600000Y-133366666D01*
X311695238Y-133461904D01*
X311790476Y-133509523D01*
X311980952Y-133557142D01*
X312123809Y-133557142D01*
X312314285Y-133509523D01*
X312409523Y-133461904D01*
X312504761Y-133366666D01*
X312552380Y-133223809D01*
X312552380Y-132985714D01*
X311552380Y-134414285D02*
X311552380Y-134223809D01*
X311600000Y-134128571D01*
X311647619Y-134080952D01*
X311790476Y-133985714D01*
X311980952Y-133938095D01*
X312361904Y-133938095D01*
X312457142Y-133985714D01*
X312504761Y-134033333D01*
X312552380Y-134128571D01*
X312552380Y-134319047D01*
X312504761Y-134414285D01*
X312457142Y-134461904D01*
X312361904Y-134509523D01*
X312123809Y-134509523D01*
X312028571Y-134461904D01*
X311980952Y-134414285D01*
X311933333Y-134319047D01*
X311933333Y-134128571D01*
X311980952Y-134033333D01*
X312028571Y-133985714D01*
X312123809Y-133938095D01*
X311552380Y-135366666D02*
X311552380Y-135176190D01*
X311600000Y-135080952D01*
X311647619Y-135033333D01*
X311790476Y-134938095D01*
X311980952Y-134890476D01*
X312361904Y-134890476D01*
X312457142Y-134938095D01*
X312504761Y-134985714D01*
X312552380Y-135080952D01*
X312552380Y-135271428D01*
X312504761Y-135366666D01*
X312457142Y-135414285D01*
X312361904Y-135461904D01*
X312123809Y-135461904D01*
X312028571Y-135414285D01*
X311980952Y-135366666D01*
X311933333Y-135271428D01*
X311933333Y-135080952D01*
X311980952Y-134985714D01*
X312028571Y-134938095D01*
X312123809Y-134890476D01*
%TO.C,D22*%
X121852380Y-113885714D02*
X120852380Y-113885714D01*
X120852380Y-114123809D01*
X120900000Y-114266666D01*
X120995238Y-114361904D01*
X121090476Y-114409523D01*
X121280952Y-114457142D01*
X121423809Y-114457142D01*
X121614285Y-114409523D01*
X121709523Y-114361904D01*
X121804761Y-114266666D01*
X121852380Y-114123809D01*
X121852380Y-113885714D01*
X120947619Y-114838095D02*
X120900000Y-114885714D01*
X120852380Y-114980952D01*
X120852380Y-115219047D01*
X120900000Y-115314285D01*
X120947619Y-115361904D01*
X121042857Y-115409523D01*
X121138095Y-115409523D01*
X121280952Y-115361904D01*
X121852380Y-114790476D01*
X121852380Y-115409523D01*
X120947619Y-115790476D02*
X120900000Y-115838095D01*
X120852380Y-115933333D01*
X120852380Y-116171428D01*
X120900000Y-116266666D01*
X120947619Y-116314285D01*
X121042857Y-116361904D01*
X121138095Y-116361904D01*
X121280952Y-116314285D01*
X121852380Y-115742857D01*
X121852380Y-116361904D01*
%TO.C,D58*%
X293552380Y-94885714D02*
X292552380Y-94885714D01*
X292552380Y-95123809D01*
X292600000Y-95266666D01*
X292695238Y-95361904D01*
X292790476Y-95409523D01*
X292980952Y-95457142D01*
X293123809Y-95457142D01*
X293314285Y-95409523D01*
X293409523Y-95361904D01*
X293504761Y-95266666D01*
X293552380Y-95123809D01*
X293552380Y-94885714D01*
X292552380Y-96361904D02*
X292552380Y-95885714D01*
X293028571Y-95838095D01*
X292980952Y-95885714D01*
X292933333Y-95980952D01*
X292933333Y-96219047D01*
X292980952Y-96314285D01*
X293028571Y-96361904D01*
X293123809Y-96409523D01*
X293361904Y-96409523D01*
X293457142Y-96361904D01*
X293504761Y-96314285D01*
X293552380Y-96219047D01*
X293552380Y-95980952D01*
X293504761Y-95885714D01*
X293457142Y-95838095D01*
X292980952Y-96980952D02*
X292933333Y-96885714D01*
X292885714Y-96838095D01*
X292790476Y-96790476D01*
X292742857Y-96790476D01*
X292647619Y-96838095D01*
X292600000Y-96885714D01*
X292552380Y-96980952D01*
X292552380Y-97171428D01*
X292600000Y-97266666D01*
X292647619Y-97314285D01*
X292742857Y-97361904D01*
X292790476Y-97361904D01*
X292885714Y-97314285D01*
X292933333Y-97266666D01*
X292980952Y-97171428D01*
X292980952Y-96980952D01*
X293028571Y-96885714D01*
X293076190Y-96838095D01*
X293171428Y-96790476D01*
X293361904Y-96790476D01*
X293457142Y-96838095D01*
X293504761Y-96885714D01*
X293552380Y-96980952D01*
X293552380Y-97171428D01*
X293504761Y-97266666D01*
X293457142Y-97314285D01*
X293361904Y-97361904D01*
X293171428Y-97361904D01*
X293076190Y-97314285D01*
X293028571Y-97266666D01*
X292980952Y-97171428D01*
%TO.C,D50*%
X274502380Y-56885714D02*
X273502380Y-56885714D01*
X273502380Y-57123809D01*
X273550000Y-57266666D01*
X273645238Y-57361904D01*
X273740476Y-57409523D01*
X273930952Y-57457142D01*
X274073809Y-57457142D01*
X274264285Y-57409523D01*
X274359523Y-57361904D01*
X274454761Y-57266666D01*
X274502380Y-57123809D01*
X274502380Y-56885714D01*
X273502380Y-58361904D02*
X273502380Y-57885714D01*
X273978571Y-57838095D01*
X273930952Y-57885714D01*
X273883333Y-57980952D01*
X273883333Y-58219047D01*
X273930952Y-58314285D01*
X273978571Y-58361904D01*
X274073809Y-58409523D01*
X274311904Y-58409523D01*
X274407142Y-58361904D01*
X274454761Y-58314285D01*
X274502380Y-58219047D01*
X274502380Y-57980952D01*
X274454761Y-57885714D01*
X274407142Y-57838095D01*
X273502380Y-59028571D02*
X273502380Y-59123809D01*
X273550000Y-59219047D01*
X273597619Y-59266666D01*
X273692857Y-59314285D01*
X273883333Y-59361904D01*
X274121428Y-59361904D01*
X274311904Y-59314285D01*
X274407142Y-59266666D01*
X274454761Y-59219047D01*
X274502380Y-59123809D01*
X274502380Y-59028571D01*
X274454761Y-58933333D01*
X274407142Y-58885714D01*
X274311904Y-58838095D01*
X274121428Y-58790476D01*
X273883333Y-58790476D01*
X273692857Y-58838095D01*
X273597619Y-58885714D01*
X273550000Y-58933333D01*
X273502380Y-59028571D01*
%TO.C,D61*%
X326352380Y-117085714D02*
X325352380Y-117085714D01*
X325352380Y-117323809D01*
X325400000Y-117466666D01*
X325495238Y-117561904D01*
X325590476Y-117609523D01*
X325780952Y-117657142D01*
X325923809Y-117657142D01*
X326114285Y-117609523D01*
X326209523Y-117561904D01*
X326304761Y-117466666D01*
X326352380Y-117323809D01*
X326352380Y-117085714D01*
X325352380Y-118514285D02*
X325352380Y-118323809D01*
X325400000Y-118228571D01*
X325447619Y-118180952D01*
X325590476Y-118085714D01*
X325780952Y-118038095D01*
X326161904Y-118038095D01*
X326257142Y-118085714D01*
X326304761Y-118133333D01*
X326352380Y-118228571D01*
X326352380Y-118419047D01*
X326304761Y-118514285D01*
X326257142Y-118561904D01*
X326161904Y-118609523D01*
X325923809Y-118609523D01*
X325828571Y-118561904D01*
X325780952Y-118514285D01*
X325733333Y-118419047D01*
X325733333Y-118228571D01*
X325780952Y-118133333D01*
X325828571Y-118085714D01*
X325923809Y-118038095D01*
X326352380Y-119561904D02*
X326352380Y-118990476D01*
X326352380Y-119276190D02*
X325352380Y-119276190D01*
X325495238Y-119180952D01*
X325590476Y-119085714D01*
X325638095Y-118990476D01*
%TO.C,D54*%
X274772380Y-131881714D02*
X273772380Y-131881714D01*
X273772380Y-132119809D01*
X273820000Y-132262666D01*
X273915238Y-132357904D01*
X274010476Y-132405523D01*
X274200952Y-132453142D01*
X274343809Y-132453142D01*
X274534285Y-132405523D01*
X274629523Y-132357904D01*
X274724761Y-132262666D01*
X274772380Y-132119809D01*
X274772380Y-131881714D01*
X273772380Y-133357904D02*
X273772380Y-132881714D01*
X274248571Y-132834095D01*
X274200952Y-132881714D01*
X274153333Y-132976952D01*
X274153333Y-133215047D01*
X274200952Y-133310285D01*
X274248571Y-133357904D01*
X274343809Y-133405523D01*
X274581904Y-133405523D01*
X274677142Y-133357904D01*
X274724761Y-133310285D01*
X274772380Y-133215047D01*
X274772380Y-132976952D01*
X274724761Y-132881714D01*
X274677142Y-132834095D01*
X274105714Y-134262666D02*
X274772380Y-134262666D01*
X273724761Y-134024571D02*
X274439047Y-133786476D01*
X274439047Y-134405523D01*
%TO.C,D28*%
X140852380Y-94885714D02*
X139852380Y-94885714D01*
X139852380Y-95123809D01*
X139900000Y-95266666D01*
X139995238Y-95361904D01*
X140090476Y-95409523D01*
X140280952Y-95457142D01*
X140423809Y-95457142D01*
X140614285Y-95409523D01*
X140709523Y-95361904D01*
X140804761Y-95266666D01*
X140852380Y-95123809D01*
X140852380Y-94885714D01*
X139947619Y-95838095D02*
X139900000Y-95885714D01*
X139852380Y-95980952D01*
X139852380Y-96219047D01*
X139900000Y-96314285D01*
X139947619Y-96361904D01*
X140042857Y-96409523D01*
X140138095Y-96409523D01*
X140280952Y-96361904D01*
X140852380Y-95790476D01*
X140852380Y-96409523D01*
X140280952Y-96980952D02*
X140233333Y-96885714D01*
X140185714Y-96838095D01*
X140090476Y-96790476D01*
X140042857Y-96790476D01*
X139947619Y-96838095D01*
X139900000Y-96885714D01*
X139852380Y-96980952D01*
X139852380Y-97171428D01*
X139900000Y-97266666D01*
X139947619Y-97314285D01*
X140042857Y-97361904D01*
X140090476Y-97361904D01*
X140185714Y-97314285D01*
X140233333Y-97266666D01*
X140280952Y-97171428D01*
X140280952Y-96980952D01*
X140328571Y-96885714D01*
X140376190Y-96838095D01*
X140471428Y-96790476D01*
X140661904Y-96790476D01*
X140757142Y-96838095D01*
X140804761Y-96885714D01*
X140852380Y-96980952D01*
X140852380Y-97171428D01*
X140804761Y-97266666D01*
X140757142Y-97314285D01*
X140661904Y-97361904D01*
X140471428Y-97361904D01*
X140376190Y-97314285D01*
X140328571Y-97266666D01*
X140280952Y-97171428D01*
%TO.C,D47*%
X255722380Y-112831714D02*
X254722380Y-112831714D01*
X254722380Y-113069809D01*
X254770000Y-113212666D01*
X254865238Y-113307904D01*
X254960476Y-113355523D01*
X255150952Y-113403142D01*
X255293809Y-113403142D01*
X255484285Y-113355523D01*
X255579523Y-113307904D01*
X255674761Y-113212666D01*
X255722380Y-113069809D01*
X255722380Y-112831714D01*
X255055714Y-114260285D02*
X255722380Y-114260285D01*
X254674761Y-114022190D02*
X255389047Y-113784095D01*
X255389047Y-114403142D01*
X254722380Y-114688857D02*
X254722380Y-115355523D01*
X255722380Y-114926952D01*
%TO.C,D45*%
X255722380Y-74985714D02*
X254722380Y-74985714D01*
X254722380Y-75223809D01*
X254770000Y-75366666D01*
X254865238Y-75461904D01*
X254960476Y-75509523D01*
X255150952Y-75557142D01*
X255293809Y-75557142D01*
X255484285Y-75509523D01*
X255579523Y-75461904D01*
X255674761Y-75366666D01*
X255722380Y-75223809D01*
X255722380Y-74985714D01*
X255055714Y-76414285D02*
X255722380Y-76414285D01*
X254674761Y-76176190D02*
X255389047Y-75938095D01*
X255389047Y-76557142D01*
X254722380Y-77414285D02*
X254722380Y-76938095D01*
X255198571Y-76890476D01*
X255150952Y-76938095D01*
X255103333Y-77033333D01*
X255103333Y-77271428D01*
X255150952Y-77366666D01*
X255198571Y-77414285D01*
X255293809Y-77461904D01*
X255531904Y-77461904D01*
X255627142Y-77414285D01*
X255674761Y-77366666D01*
X255722380Y-77271428D01*
X255722380Y-77033333D01*
X255674761Y-76938095D01*
X255627142Y-76890476D01*
%TO.C,D4*%
X65222380Y-94765904D02*
X64222380Y-94765904D01*
X64222380Y-95004000D01*
X64270000Y-95146857D01*
X64365238Y-95242095D01*
X64460476Y-95289714D01*
X64650952Y-95337333D01*
X64793809Y-95337333D01*
X64984285Y-95289714D01*
X65079523Y-95242095D01*
X65174761Y-95146857D01*
X65222380Y-95004000D01*
X65222380Y-94765904D01*
X64555714Y-96194476D02*
X65222380Y-96194476D01*
X64174761Y-95956380D02*
X64889047Y-95718285D01*
X64889047Y-96337333D01*
%TO.C,D46*%
X255976380Y-93781714D02*
X254976380Y-93781714D01*
X254976380Y-94019809D01*
X255024000Y-94162666D01*
X255119238Y-94257904D01*
X255214476Y-94305523D01*
X255404952Y-94353142D01*
X255547809Y-94353142D01*
X255738285Y-94305523D01*
X255833523Y-94257904D01*
X255928761Y-94162666D01*
X255976380Y-94019809D01*
X255976380Y-93781714D01*
X255309714Y-95210285D02*
X255976380Y-95210285D01*
X254928761Y-94972190D02*
X255643047Y-94734095D01*
X255643047Y-95353142D01*
X254976380Y-96162666D02*
X254976380Y-95972190D01*
X255024000Y-95876952D01*
X255071619Y-95829333D01*
X255214476Y-95734095D01*
X255404952Y-95686476D01*
X255785904Y-95686476D01*
X255881142Y-95734095D01*
X255928761Y-95781714D01*
X255976380Y-95876952D01*
X255976380Y-96067428D01*
X255928761Y-96162666D01*
X255881142Y-96210285D01*
X255785904Y-96257904D01*
X255547809Y-96257904D01*
X255452571Y-96210285D01*
X255404952Y-96162666D01*
X255357333Y-96067428D01*
X255357333Y-95876952D01*
X255404952Y-95781714D01*
X255452571Y-95734095D01*
X255547809Y-95686476D01*
%TO.C,U1*%
X205636904Y-114832380D02*
X205636904Y-115641904D01*
X205589285Y-115737142D01*
X205541666Y-115784761D01*
X205446428Y-115832380D01*
X205255952Y-115832380D01*
X205160714Y-115784761D01*
X205113095Y-115737142D01*
X205065476Y-115641904D01*
X205065476Y-114832380D01*
X204065476Y-115832380D02*
X204636904Y-115832380D01*
X204351190Y-115832380D02*
X204351190Y-114832380D01*
X204446428Y-114975238D01*
X204541666Y-115070476D01*
X204636904Y-115118095D01*
%TO.C,D38*%
X236502380Y-56885714D02*
X235502380Y-56885714D01*
X235502380Y-57123809D01*
X235550000Y-57266666D01*
X235645238Y-57361904D01*
X235740476Y-57409523D01*
X235930952Y-57457142D01*
X236073809Y-57457142D01*
X236264285Y-57409523D01*
X236359523Y-57361904D01*
X236454761Y-57266666D01*
X236502380Y-57123809D01*
X236502380Y-56885714D01*
X235502380Y-57790476D02*
X235502380Y-58409523D01*
X235883333Y-58076190D01*
X235883333Y-58219047D01*
X235930952Y-58314285D01*
X235978571Y-58361904D01*
X236073809Y-58409523D01*
X236311904Y-58409523D01*
X236407142Y-58361904D01*
X236454761Y-58314285D01*
X236502380Y-58219047D01*
X236502380Y-57933333D01*
X236454761Y-57838095D01*
X236407142Y-57790476D01*
X235930952Y-58980952D02*
X235883333Y-58885714D01*
X235835714Y-58838095D01*
X235740476Y-58790476D01*
X235692857Y-58790476D01*
X235597619Y-58838095D01*
X235550000Y-58885714D01*
X235502380Y-58980952D01*
X235502380Y-59171428D01*
X235550000Y-59266666D01*
X235597619Y-59314285D01*
X235692857Y-59361904D01*
X235740476Y-59361904D01*
X235835714Y-59314285D01*
X235883333Y-59266666D01*
X235930952Y-59171428D01*
X235930952Y-58980952D01*
X235978571Y-58885714D01*
X236026190Y-58838095D01*
X236121428Y-58790476D01*
X236311904Y-58790476D01*
X236407142Y-58838095D01*
X236454761Y-58885714D01*
X236502380Y-58980952D01*
X236502380Y-59171428D01*
X236454761Y-59266666D01*
X236407142Y-59314285D01*
X236311904Y-59361904D01*
X236121428Y-59361904D01*
X236026190Y-59314285D01*
X235978571Y-59266666D01*
X235930952Y-59171428D01*
%TO.C,D42*%
X236926380Y-131881714D02*
X235926380Y-131881714D01*
X235926380Y-132119809D01*
X235974000Y-132262666D01*
X236069238Y-132357904D01*
X236164476Y-132405523D01*
X236354952Y-132453142D01*
X236497809Y-132453142D01*
X236688285Y-132405523D01*
X236783523Y-132357904D01*
X236878761Y-132262666D01*
X236926380Y-132119809D01*
X236926380Y-131881714D01*
X236259714Y-133310285D02*
X236926380Y-133310285D01*
X235878761Y-133072190D02*
X236593047Y-132834095D01*
X236593047Y-133453142D01*
X236021619Y-133786476D02*
X235974000Y-133834095D01*
X235926380Y-133929333D01*
X235926380Y-134167428D01*
X235974000Y-134262666D01*
X236021619Y-134310285D01*
X236116857Y-134357904D01*
X236212095Y-134357904D01*
X236354952Y-134310285D01*
X236926380Y-133738857D01*
X236926380Y-134357904D01*
%TO.C,D20*%
X121952380Y-56885714D02*
X120952380Y-56885714D01*
X120952380Y-57123809D01*
X121000000Y-57266666D01*
X121095238Y-57361904D01*
X121190476Y-57409523D01*
X121380952Y-57457142D01*
X121523809Y-57457142D01*
X121714285Y-57409523D01*
X121809523Y-57361904D01*
X121904761Y-57266666D01*
X121952380Y-57123809D01*
X121952380Y-56885714D01*
X121047619Y-57838095D02*
X121000000Y-57885714D01*
X120952380Y-57980952D01*
X120952380Y-58219047D01*
X121000000Y-58314285D01*
X121047619Y-58361904D01*
X121142857Y-58409523D01*
X121238095Y-58409523D01*
X121380952Y-58361904D01*
X121952380Y-57790476D01*
X121952380Y-58409523D01*
X120952380Y-59028571D02*
X120952380Y-59123809D01*
X121000000Y-59219047D01*
X121047619Y-59266666D01*
X121142857Y-59314285D01*
X121333333Y-59361904D01*
X121571428Y-59361904D01*
X121761904Y-59314285D01*
X121857142Y-59266666D01*
X121904761Y-59219047D01*
X121952380Y-59123809D01*
X121952380Y-59028571D01*
X121904761Y-58933333D01*
X121857142Y-58885714D01*
X121761904Y-58838095D01*
X121571428Y-58790476D01*
X121333333Y-58790476D01*
X121142857Y-58838095D01*
X121047619Y-58885714D01*
X121000000Y-58933333D01*
X120952380Y-59028571D01*
%TO.C,D12*%
X83952380Y-132985714D02*
X82952380Y-132985714D01*
X82952380Y-133223809D01*
X83000000Y-133366666D01*
X83095238Y-133461904D01*
X83190476Y-133509523D01*
X83380952Y-133557142D01*
X83523809Y-133557142D01*
X83714285Y-133509523D01*
X83809523Y-133461904D01*
X83904761Y-133366666D01*
X83952380Y-133223809D01*
X83952380Y-132985714D01*
X83952380Y-134509523D02*
X83952380Y-133938095D01*
X83952380Y-134223809D02*
X82952380Y-134223809D01*
X83095238Y-134128571D01*
X83190476Y-134033333D01*
X83238095Y-133938095D01*
X83047619Y-134890476D02*
X83000000Y-134938095D01*
X82952380Y-135033333D01*
X82952380Y-135271428D01*
X83000000Y-135366666D01*
X83047619Y-135414285D01*
X83142857Y-135461904D01*
X83238095Y-135461904D01*
X83380952Y-135414285D01*
X83952380Y-134842857D01*
X83952380Y-135461904D01*
%TO.C,D32*%
X159852380Y-56885714D02*
X158852380Y-56885714D01*
X158852380Y-57123809D01*
X158900000Y-57266666D01*
X158995238Y-57361904D01*
X159090476Y-57409523D01*
X159280952Y-57457142D01*
X159423809Y-57457142D01*
X159614285Y-57409523D01*
X159709523Y-57361904D01*
X159804761Y-57266666D01*
X159852380Y-57123809D01*
X159852380Y-56885714D01*
X158852380Y-57790476D02*
X158852380Y-58409523D01*
X159233333Y-58076190D01*
X159233333Y-58219047D01*
X159280952Y-58314285D01*
X159328571Y-58361904D01*
X159423809Y-58409523D01*
X159661904Y-58409523D01*
X159757142Y-58361904D01*
X159804761Y-58314285D01*
X159852380Y-58219047D01*
X159852380Y-57933333D01*
X159804761Y-57838095D01*
X159757142Y-57790476D01*
X158947619Y-58790476D02*
X158900000Y-58838095D01*
X158852380Y-58933333D01*
X158852380Y-59171428D01*
X158900000Y-59266666D01*
X158947619Y-59314285D01*
X159042857Y-59361904D01*
X159138095Y-59361904D01*
X159280952Y-59314285D01*
X159852380Y-58742857D01*
X159852380Y-59361904D01*
%TO.C,D24*%
X122118380Y-74985714D02*
X121118380Y-74985714D01*
X121118380Y-75223809D01*
X121166000Y-75366666D01*
X121261238Y-75461904D01*
X121356476Y-75509523D01*
X121546952Y-75557142D01*
X121689809Y-75557142D01*
X121880285Y-75509523D01*
X121975523Y-75461904D01*
X122070761Y-75366666D01*
X122118380Y-75223809D01*
X122118380Y-74985714D01*
X121213619Y-75938095D02*
X121166000Y-75985714D01*
X121118380Y-76080952D01*
X121118380Y-76319047D01*
X121166000Y-76414285D01*
X121213619Y-76461904D01*
X121308857Y-76509523D01*
X121404095Y-76509523D01*
X121546952Y-76461904D01*
X122118380Y-75890476D01*
X122118380Y-76509523D01*
X121451714Y-77366666D02*
X122118380Y-77366666D01*
X121070761Y-77128571D02*
X121785047Y-76890476D01*
X121785047Y-77509523D01*
%TO.C,D59*%
X293552380Y-113885714D02*
X292552380Y-113885714D01*
X292552380Y-114123809D01*
X292600000Y-114266666D01*
X292695238Y-114361904D01*
X292790476Y-114409523D01*
X292980952Y-114457142D01*
X293123809Y-114457142D01*
X293314285Y-114409523D01*
X293409523Y-114361904D01*
X293504761Y-114266666D01*
X293552380Y-114123809D01*
X293552380Y-113885714D01*
X292552380Y-115361904D02*
X292552380Y-114885714D01*
X293028571Y-114838095D01*
X292980952Y-114885714D01*
X292933333Y-114980952D01*
X292933333Y-115219047D01*
X292980952Y-115314285D01*
X293028571Y-115361904D01*
X293123809Y-115409523D01*
X293361904Y-115409523D01*
X293457142Y-115361904D01*
X293504761Y-115314285D01*
X293552380Y-115219047D01*
X293552380Y-114980952D01*
X293504761Y-114885714D01*
X293457142Y-114838095D01*
X293552380Y-115885714D02*
X293552380Y-116076190D01*
X293504761Y-116171428D01*
X293457142Y-116219047D01*
X293314285Y-116314285D01*
X293123809Y-116361904D01*
X292742857Y-116361904D01*
X292647619Y-116314285D01*
X292600000Y-116266666D01*
X292552380Y-116171428D01*
X292552380Y-115980952D01*
X292600000Y-115885714D01*
X292647619Y-115838095D01*
X292742857Y-115790476D01*
X292980952Y-115790476D01*
X293076190Y-115838095D01*
X293123809Y-115885714D01*
X293171428Y-115980952D01*
X293171428Y-116171428D01*
X293123809Y-116266666D01*
X293076190Y-116314285D01*
X292980952Y-116361904D01*
%TO.C,D63*%
X312552380Y-75935714D02*
X311552380Y-75935714D01*
X311552380Y-76173809D01*
X311600000Y-76316666D01*
X311695238Y-76411904D01*
X311790476Y-76459523D01*
X311980952Y-76507142D01*
X312123809Y-76507142D01*
X312314285Y-76459523D01*
X312409523Y-76411904D01*
X312504761Y-76316666D01*
X312552380Y-76173809D01*
X312552380Y-75935714D01*
X311552380Y-77364285D02*
X311552380Y-77173809D01*
X311600000Y-77078571D01*
X311647619Y-77030952D01*
X311790476Y-76935714D01*
X311980952Y-76888095D01*
X312361904Y-76888095D01*
X312457142Y-76935714D01*
X312504761Y-76983333D01*
X312552380Y-77078571D01*
X312552380Y-77269047D01*
X312504761Y-77364285D01*
X312457142Y-77411904D01*
X312361904Y-77459523D01*
X312123809Y-77459523D01*
X312028571Y-77411904D01*
X311980952Y-77364285D01*
X311933333Y-77269047D01*
X311933333Y-77078571D01*
X311980952Y-76983333D01*
X312028571Y-76935714D01*
X312123809Y-76888095D01*
X311552380Y-77792857D02*
X311552380Y-78411904D01*
X311933333Y-78078571D01*
X311933333Y-78221428D01*
X311980952Y-78316666D01*
X312028571Y-78364285D01*
X312123809Y-78411904D01*
X312361904Y-78411904D01*
X312457142Y-78364285D01*
X312504761Y-78316666D01*
X312552380Y-78221428D01*
X312552380Y-77935714D01*
X312504761Y-77840476D01*
X312457142Y-77792857D01*
%TO.C,R12*%
X326552380Y-62157142D02*
X326076190Y-61823809D01*
X326552380Y-61585714D02*
X325552380Y-61585714D01*
X325552380Y-61966666D01*
X325600000Y-62061904D01*
X325647619Y-62109523D01*
X325742857Y-62157142D01*
X325885714Y-62157142D01*
X325980952Y-62109523D01*
X326028571Y-62061904D01*
X326076190Y-61966666D01*
X326076190Y-61585714D01*
X326552380Y-63109523D02*
X326552380Y-62538095D01*
X326552380Y-62823809D02*
X325552380Y-62823809D01*
X325695238Y-62728571D01*
X325790476Y-62633333D01*
X325838095Y-62538095D01*
X325647619Y-63490476D02*
X325600000Y-63538095D01*
X325552380Y-63633333D01*
X325552380Y-63871428D01*
X325600000Y-63966666D01*
X325647619Y-64014285D01*
X325742857Y-64061904D01*
X325838095Y-64061904D01*
X325980952Y-64014285D01*
X326552380Y-63442857D01*
X326552380Y-64061904D01*
%TO.C,D40*%
X236672380Y-94035714D02*
X235672380Y-94035714D01*
X235672380Y-94273809D01*
X235720000Y-94416666D01*
X235815238Y-94511904D01*
X235910476Y-94559523D01*
X236100952Y-94607142D01*
X236243809Y-94607142D01*
X236434285Y-94559523D01*
X236529523Y-94511904D01*
X236624761Y-94416666D01*
X236672380Y-94273809D01*
X236672380Y-94035714D01*
X236005714Y-95464285D02*
X236672380Y-95464285D01*
X235624761Y-95226190D02*
X236339047Y-94988095D01*
X236339047Y-95607142D01*
X235672380Y-96178571D02*
X235672380Y-96273809D01*
X235720000Y-96369047D01*
X235767619Y-96416666D01*
X235862857Y-96464285D01*
X236053333Y-96511904D01*
X236291428Y-96511904D01*
X236481904Y-96464285D01*
X236577142Y-96416666D01*
X236624761Y-96369047D01*
X236672380Y-96273809D01*
X236672380Y-96178571D01*
X236624761Y-96083333D01*
X236577142Y-96035714D01*
X236481904Y-95988095D01*
X236291428Y-95940476D01*
X236053333Y-95940476D01*
X235862857Y-95988095D01*
X235767619Y-96035714D01*
X235720000Y-96083333D01*
X235672380Y-96178571D01*
%TO.C,D49*%
X289250380Y-118673714D02*
X288250380Y-118673714D01*
X288250380Y-118911809D01*
X288298000Y-119054666D01*
X288393238Y-119149904D01*
X288488476Y-119197523D01*
X288678952Y-119245142D01*
X288821809Y-119245142D01*
X289012285Y-119197523D01*
X289107523Y-119149904D01*
X289202761Y-119054666D01*
X289250380Y-118911809D01*
X289250380Y-118673714D01*
X288583714Y-120102285D02*
X289250380Y-120102285D01*
X288202761Y-119864190D02*
X288917047Y-119626095D01*
X288917047Y-120245142D01*
X289250380Y-120673714D02*
X289250380Y-120864190D01*
X289202761Y-120959428D01*
X289155142Y-121007047D01*
X289012285Y-121102285D01*
X288821809Y-121149904D01*
X288440857Y-121149904D01*
X288345619Y-121102285D01*
X288298000Y-121054666D01*
X288250380Y-120959428D01*
X288250380Y-120768952D01*
X288298000Y-120673714D01*
X288345619Y-120626095D01*
X288440857Y-120578476D01*
X288678952Y-120578476D01*
X288774190Y-120626095D01*
X288821809Y-120673714D01*
X288869428Y-120768952D01*
X288869428Y-120959428D01*
X288821809Y-121054666D01*
X288774190Y-121102285D01*
X288678952Y-121149904D01*
%TO.C,D39*%
X236552380Y-75985714D02*
X235552380Y-75985714D01*
X235552380Y-76223809D01*
X235600000Y-76366666D01*
X235695238Y-76461904D01*
X235790476Y-76509523D01*
X235980952Y-76557142D01*
X236123809Y-76557142D01*
X236314285Y-76509523D01*
X236409523Y-76461904D01*
X236504761Y-76366666D01*
X236552380Y-76223809D01*
X236552380Y-75985714D01*
X235552380Y-76890476D02*
X235552380Y-77509523D01*
X235933333Y-77176190D01*
X235933333Y-77319047D01*
X235980952Y-77414285D01*
X236028571Y-77461904D01*
X236123809Y-77509523D01*
X236361904Y-77509523D01*
X236457142Y-77461904D01*
X236504761Y-77414285D01*
X236552380Y-77319047D01*
X236552380Y-77033333D01*
X236504761Y-76938095D01*
X236457142Y-76890476D01*
X236552380Y-77985714D02*
X236552380Y-78176190D01*
X236504761Y-78271428D01*
X236457142Y-78319047D01*
X236314285Y-78414285D01*
X236123809Y-78461904D01*
X235742857Y-78461904D01*
X235647619Y-78414285D01*
X235600000Y-78366666D01*
X235552380Y-78271428D01*
X235552380Y-78080952D01*
X235600000Y-77985714D01*
X235647619Y-77938095D01*
X235742857Y-77890476D01*
X235980952Y-77890476D01*
X236076190Y-77938095D01*
X236123809Y-77985714D01*
X236171428Y-78080952D01*
X236171428Y-78271428D01*
X236123809Y-78366666D01*
X236076190Y-78414285D01*
X235980952Y-78461904D01*
%TO.C,J2*%
X187472380Y-54866666D02*
X188186666Y-54866666D01*
X188329523Y-54819047D01*
X188424761Y-54723809D01*
X188472380Y-54580952D01*
X188472380Y-54485714D01*
X187567619Y-55295238D02*
X187520000Y-55342857D01*
X187472380Y-55438095D01*
X187472380Y-55676190D01*
X187520000Y-55771428D01*
X187567619Y-55819047D01*
X187662857Y-55866666D01*
X187758095Y-55866666D01*
X187900952Y-55819047D01*
X188472380Y-55247619D01*
X188472380Y-55866666D01*
%TO.C,D29*%
X140852380Y-113885714D02*
X139852380Y-113885714D01*
X139852380Y-114123809D01*
X139900000Y-114266666D01*
X139995238Y-114361904D01*
X140090476Y-114409523D01*
X140280952Y-114457142D01*
X140423809Y-114457142D01*
X140614285Y-114409523D01*
X140709523Y-114361904D01*
X140804761Y-114266666D01*
X140852380Y-114123809D01*
X140852380Y-113885714D01*
X139947619Y-114838095D02*
X139900000Y-114885714D01*
X139852380Y-114980952D01*
X139852380Y-115219047D01*
X139900000Y-115314285D01*
X139947619Y-115361904D01*
X140042857Y-115409523D01*
X140138095Y-115409523D01*
X140280952Y-115361904D01*
X140852380Y-114790476D01*
X140852380Y-115409523D01*
X140852380Y-115885714D02*
X140852380Y-116076190D01*
X140804761Y-116171428D01*
X140757142Y-116219047D01*
X140614285Y-116314285D01*
X140423809Y-116361904D01*
X140042857Y-116361904D01*
X139947619Y-116314285D01*
X139900000Y-116266666D01*
X139852380Y-116171428D01*
X139852380Y-115980952D01*
X139900000Y-115885714D01*
X139947619Y-115838095D01*
X140042857Y-115790476D01*
X140280952Y-115790476D01*
X140376190Y-115838095D01*
X140423809Y-115885714D01*
X140471428Y-115980952D01*
X140471428Y-116171428D01*
X140423809Y-116266666D01*
X140376190Y-116314285D01*
X140280952Y-116361904D01*
%TO.C,D17*%
X102852380Y-113885714D02*
X101852380Y-113885714D01*
X101852380Y-114123809D01*
X101900000Y-114266666D01*
X101995238Y-114361904D01*
X102090476Y-114409523D01*
X102280952Y-114457142D01*
X102423809Y-114457142D01*
X102614285Y-114409523D01*
X102709523Y-114361904D01*
X102804761Y-114266666D01*
X102852380Y-114123809D01*
X102852380Y-113885714D01*
X102852380Y-115409523D02*
X102852380Y-114838095D01*
X102852380Y-115123809D02*
X101852380Y-115123809D01*
X101995238Y-115028571D01*
X102090476Y-114933333D01*
X102138095Y-114838095D01*
X101852380Y-115742857D02*
X101852380Y-116409523D01*
X102852380Y-115980952D01*
%TO.C,D11*%
X83852380Y-113885714D02*
X82852380Y-113885714D01*
X82852380Y-114123809D01*
X82900000Y-114266666D01*
X82995238Y-114361904D01*
X83090476Y-114409523D01*
X83280952Y-114457142D01*
X83423809Y-114457142D01*
X83614285Y-114409523D01*
X83709523Y-114361904D01*
X83804761Y-114266666D01*
X83852380Y-114123809D01*
X83852380Y-113885714D01*
X83852380Y-115409523D02*
X83852380Y-114838095D01*
X83852380Y-115123809D02*
X82852380Y-115123809D01*
X82995238Y-115028571D01*
X83090476Y-114933333D01*
X83138095Y-114838095D01*
X83852380Y-116361904D02*
X83852380Y-115790476D01*
X83852380Y-116076190D02*
X82852380Y-116076190D01*
X82995238Y-115980952D01*
X83090476Y-115885714D01*
X83138095Y-115790476D01*
%TO.C,D15*%
X102852380Y-75885714D02*
X101852380Y-75885714D01*
X101852380Y-76123809D01*
X101900000Y-76266666D01*
X101995238Y-76361904D01*
X102090476Y-76409523D01*
X102280952Y-76457142D01*
X102423809Y-76457142D01*
X102614285Y-76409523D01*
X102709523Y-76361904D01*
X102804761Y-76266666D01*
X102852380Y-76123809D01*
X102852380Y-75885714D01*
X102852380Y-77409523D02*
X102852380Y-76838095D01*
X102852380Y-77123809D02*
X101852380Y-77123809D01*
X101995238Y-77028571D01*
X102090476Y-76933333D01*
X102138095Y-76838095D01*
X101852380Y-78314285D02*
X101852380Y-77838095D01*
X102328571Y-77790476D01*
X102280952Y-77838095D01*
X102233333Y-77933333D01*
X102233333Y-78171428D01*
X102280952Y-78266666D01*
X102328571Y-78314285D01*
X102423809Y-78361904D01*
X102661904Y-78361904D01*
X102757142Y-78314285D01*
X102804761Y-78266666D01*
X102852380Y-78171428D01*
X102852380Y-77933333D01*
X102804761Y-77838095D01*
X102757142Y-77790476D01*
%TO.C,D36*%
X159952380Y-129785714D02*
X158952380Y-129785714D01*
X158952380Y-130023809D01*
X159000000Y-130166666D01*
X159095238Y-130261904D01*
X159190476Y-130309523D01*
X159380952Y-130357142D01*
X159523809Y-130357142D01*
X159714285Y-130309523D01*
X159809523Y-130261904D01*
X159904761Y-130166666D01*
X159952380Y-130023809D01*
X159952380Y-129785714D01*
X158952380Y-130690476D02*
X158952380Y-131309523D01*
X159333333Y-130976190D01*
X159333333Y-131119047D01*
X159380952Y-131214285D01*
X159428571Y-131261904D01*
X159523809Y-131309523D01*
X159761904Y-131309523D01*
X159857142Y-131261904D01*
X159904761Y-131214285D01*
X159952380Y-131119047D01*
X159952380Y-130833333D01*
X159904761Y-130738095D01*
X159857142Y-130690476D01*
X158952380Y-132166666D02*
X158952380Y-131976190D01*
X159000000Y-131880952D01*
X159047619Y-131833333D01*
X159190476Y-131738095D01*
X159380952Y-131690476D01*
X159761904Y-131690476D01*
X159857142Y-131738095D01*
X159904761Y-131785714D01*
X159952380Y-131880952D01*
X159952380Y-132071428D01*
X159904761Y-132166666D01*
X159857142Y-132214285D01*
X159761904Y-132261904D01*
X159523809Y-132261904D01*
X159428571Y-132214285D01*
X159380952Y-132166666D01*
X159333333Y-132071428D01*
X159333333Y-131880952D01*
X159380952Y-131785714D01*
X159428571Y-131738095D01*
X159523809Y-131690476D01*
%TO.C,D62*%
X312552380Y-56935714D02*
X311552380Y-56935714D01*
X311552380Y-57173809D01*
X311600000Y-57316666D01*
X311695238Y-57411904D01*
X311790476Y-57459523D01*
X311980952Y-57507142D01*
X312123809Y-57507142D01*
X312314285Y-57459523D01*
X312409523Y-57411904D01*
X312504761Y-57316666D01*
X312552380Y-57173809D01*
X312552380Y-56935714D01*
X311552380Y-58364285D02*
X311552380Y-58173809D01*
X311600000Y-58078571D01*
X311647619Y-58030952D01*
X311790476Y-57935714D01*
X311980952Y-57888095D01*
X312361904Y-57888095D01*
X312457142Y-57935714D01*
X312504761Y-57983333D01*
X312552380Y-58078571D01*
X312552380Y-58269047D01*
X312504761Y-58364285D01*
X312457142Y-58411904D01*
X312361904Y-58459523D01*
X312123809Y-58459523D01*
X312028571Y-58411904D01*
X311980952Y-58364285D01*
X311933333Y-58269047D01*
X311933333Y-58078571D01*
X311980952Y-57983333D01*
X312028571Y-57935714D01*
X312123809Y-57888095D01*
X311647619Y-58840476D02*
X311600000Y-58888095D01*
X311552380Y-58983333D01*
X311552380Y-59221428D01*
X311600000Y-59316666D01*
X311647619Y-59364285D01*
X311742857Y-59411904D01*
X311838095Y-59411904D01*
X311980952Y-59364285D01*
X312552380Y-58792857D01*
X312552380Y-59411904D01*
%TO.C,D34*%
X160218380Y-93781714D02*
X159218380Y-93781714D01*
X159218380Y-94019809D01*
X159266000Y-94162666D01*
X159361238Y-94257904D01*
X159456476Y-94305523D01*
X159646952Y-94353142D01*
X159789809Y-94353142D01*
X159980285Y-94305523D01*
X160075523Y-94257904D01*
X160170761Y-94162666D01*
X160218380Y-94019809D01*
X160218380Y-93781714D01*
X159218380Y-94686476D02*
X159218380Y-95305523D01*
X159599333Y-94972190D01*
X159599333Y-95115047D01*
X159646952Y-95210285D01*
X159694571Y-95257904D01*
X159789809Y-95305523D01*
X160027904Y-95305523D01*
X160123142Y-95257904D01*
X160170761Y-95210285D01*
X160218380Y-95115047D01*
X160218380Y-94829333D01*
X160170761Y-94734095D01*
X160123142Y-94686476D01*
X159551714Y-96162666D02*
X160218380Y-96162666D01*
X159170761Y-95924571D02*
X159885047Y-95686476D01*
X159885047Y-96305523D01*
%TO.C,D7*%
X97652380Y-117561904D02*
X96652380Y-117561904D01*
X96652380Y-117800000D01*
X96700000Y-117942857D01*
X96795238Y-118038095D01*
X96890476Y-118085714D01*
X97080952Y-118133333D01*
X97223809Y-118133333D01*
X97414285Y-118085714D01*
X97509523Y-118038095D01*
X97604761Y-117942857D01*
X97652380Y-117800000D01*
X97652380Y-117561904D01*
X96652380Y-118466666D02*
X96652380Y-119133333D01*
X97652380Y-118704761D01*
%TO.C,D57*%
X293552380Y-75960714D02*
X292552380Y-75960714D01*
X292552380Y-76198809D01*
X292600000Y-76341666D01*
X292695238Y-76436904D01*
X292790476Y-76484523D01*
X292980952Y-76532142D01*
X293123809Y-76532142D01*
X293314285Y-76484523D01*
X293409523Y-76436904D01*
X293504761Y-76341666D01*
X293552380Y-76198809D01*
X293552380Y-75960714D01*
X292552380Y-77436904D02*
X292552380Y-76960714D01*
X293028571Y-76913095D01*
X292980952Y-76960714D01*
X292933333Y-77055952D01*
X292933333Y-77294047D01*
X292980952Y-77389285D01*
X293028571Y-77436904D01*
X293123809Y-77484523D01*
X293361904Y-77484523D01*
X293457142Y-77436904D01*
X293504761Y-77389285D01*
X293552380Y-77294047D01*
X293552380Y-77055952D01*
X293504761Y-76960714D01*
X293457142Y-76913095D01*
X292552380Y-77817857D02*
X292552380Y-78484523D01*
X293552380Y-78055952D01*
%TO.C,D33*%
X159852380Y-75885714D02*
X158852380Y-75885714D01*
X158852380Y-76123809D01*
X158900000Y-76266666D01*
X158995238Y-76361904D01*
X159090476Y-76409523D01*
X159280952Y-76457142D01*
X159423809Y-76457142D01*
X159614285Y-76409523D01*
X159709523Y-76361904D01*
X159804761Y-76266666D01*
X159852380Y-76123809D01*
X159852380Y-75885714D01*
X158852380Y-76790476D02*
X158852380Y-77409523D01*
X159233333Y-77076190D01*
X159233333Y-77219047D01*
X159280952Y-77314285D01*
X159328571Y-77361904D01*
X159423809Y-77409523D01*
X159661904Y-77409523D01*
X159757142Y-77361904D01*
X159804761Y-77314285D01*
X159852380Y-77219047D01*
X159852380Y-76933333D01*
X159804761Y-76838095D01*
X159757142Y-76790476D01*
X158852380Y-77742857D02*
X158852380Y-78361904D01*
X159233333Y-78028571D01*
X159233333Y-78171428D01*
X159280952Y-78266666D01*
X159328571Y-78314285D01*
X159423809Y-78361904D01*
X159661904Y-78361904D01*
X159757142Y-78314285D01*
X159804761Y-78266666D01*
X159852380Y-78171428D01*
X159852380Y-77885714D01*
X159804761Y-77790476D01*
X159757142Y-77742857D01*
%TO.C,D9*%
X83952380Y-76361904D02*
X82952380Y-76361904D01*
X82952380Y-76600000D01*
X83000000Y-76742857D01*
X83095238Y-76838095D01*
X83190476Y-76885714D01*
X83380952Y-76933333D01*
X83523809Y-76933333D01*
X83714285Y-76885714D01*
X83809523Y-76838095D01*
X83904761Y-76742857D01*
X83952380Y-76600000D01*
X83952380Y-76361904D01*
X83952380Y-77409523D02*
X83952380Y-77600000D01*
X83904761Y-77695238D01*
X83857142Y-77742857D01*
X83714285Y-77838095D01*
X83523809Y-77885714D01*
X83142857Y-77885714D01*
X83047619Y-77838095D01*
X83000000Y-77790476D01*
X82952380Y-77695238D01*
X82952380Y-77504761D01*
X83000000Y-77409523D01*
X83047619Y-77361904D01*
X83142857Y-77314285D01*
X83380952Y-77314285D01*
X83476190Y-77361904D01*
X83523809Y-77409523D01*
X83571428Y-77504761D01*
X83571428Y-77695238D01*
X83523809Y-77790476D01*
X83476190Y-77838095D01*
X83380952Y-77885714D01*
%TO.C,D21*%
X121852380Y-94985714D02*
X120852380Y-94985714D01*
X120852380Y-95223809D01*
X120900000Y-95366666D01*
X120995238Y-95461904D01*
X121090476Y-95509523D01*
X121280952Y-95557142D01*
X121423809Y-95557142D01*
X121614285Y-95509523D01*
X121709523Y-95461904D01*
X121804761Y-95366666D01*
X121852380Y-95223809D01*
X121852380Y-94985714D01*
X120947619Y-95938095D02*
X120900000Y-95985714D01*
X120852380Y-96080952D01*
X120852380Y-96319047D01*
X120900000Y-96414285D01*
X120947619Y-96461904D01*
X121042857Y-96509523D01*
X121138095Y-96509523D01*
X121280952Y-96461904D01*
X121852380Y-95890476D01*
X121852380Y-96509523D01*
X121852380Y-97461904D02*
X121852380Y-96890476D01*
X121852380Y-97176190D02*
X120852380Y-97176190D01*
X120995238Y-97080952D01*
X121090476Y-96985714D01*
X121138095Y-96890476D01*
%TO.C,D56*%
X293552380Y-56885714D02*
X292552380Y-56885714D01*
X292552380Y-57123809D01*
X292600000Y-57266666D01*
X292695238Y-57361904D01*
X292790476Y-57409523D01*
X292980952Y-57457142D01*
X293123809Y-57457142D01*
X293314285Y-57409523D01*
X293409523Y-57361904D01*
X293504761Y-57266666D01*
X293552380Y-57123809D01*
X293552380Y-56885714D01*
X292552380Y-58361904D02*
X292552380Y-57885714D01*
X293028571Y-57838095D01*
X292980952Y-57885714D01*
X292933333Y-57980952D01*
X292933333Y-58219047D01*
X292980952Y-58314285D01*
X293028571Y-58361904D01*
X293123809Y-58409523D01*
X293361904Y-58409523D01*
X293457142Y-58361904D01*
X293504761Y-58314285D01*
X293552380Y-58219047D01*
X293552380Y-57980952D01*
X293504761Y-57885714D01*
X293457142Y-57838095D01*
X292552380Y-59266666D02*
X292552380Y-59076190D01*
X292600000Y-58980952D01*
X292647619Y-58933333D01*
X292790476Y-58838095D01*
X292980952Y-58790476D01*
X293361904Y-58790476D01*
X293457142Y-58838095D01*
X293504761Y-58885714D01*
X293552380Y-58980952D01*
X293552380Y-59171428D01*
X293504761Y-59266666D01*
X293457142Y-59314285D01*
X293361904Y-59361904D01*
X293123809Y-59361904D01*
X293028571Y-59314285D01*
X292980952Y-59266666D01*
X292933333Y-59171428D01*
X292933333Y-58980952D01*
X292980952Y-58885714D01*
X293028571Y-58838095D01*
X293123809Y-58790476D01*
%TO.C,D35*%
X159852380Y-113885714D02*
X158852380Y-113885714D01*
X158852380Y-114123809D01*
X158900000Y-114266666D01*
X158995238Y-114361904D01*
X159090476Y-114409523D01*
X159280952Y-114457142D01*
X159423809Y-114457142D01*
X159614285Y-114409523D01*
X159709523Y-114361904D01*
X159804761Y-114266666D01*
X159852380Y-114123809D01*
X159852380Y-113885714D01*
X158852380Y-114790476D02*
X158852380Y-115409523D01*
X159233333Y-115076190D01*
X159233333Y-115219047D01*
X159280952Y-115314285D01*
X159328571Y-115361904D01*
X159423809Y-115409523D01*
X159661904Y-115409523D01*
X159757142Y-115361904D01*
X159804761Y-115314285D01*
X159852380Y-115219047D01*
X159852380Y-114933333D01*
X159804761Y-114838095D01*
X159757142Y-114790476D01*
X158852380Y-116314285D02*
X158852380Y-115838095D01*
X159328571Y-115790476D01*
X159280952Y-115838095D01*
X159233333Y-115933333D01*
X159233333Y-116171428D01*
X159280952Y-116266666D01*
X159328571Y-116314285D01*
X159423809Y-116361904D01*
X159661904Y-116361904D01*
X159757142Y-116314285D01*
X159804761Y-116266666D01*
X159852380Y-116171428D01*
X159852380Y-115933333D01*
X159804761Y-115838095D01*
X159757142Y-115790476D01*
%TO.C,R6*%
X155002380Y-62833333D02*
X154526190Y-62500000D01*
X155002380Y-62261904D02*
X154002380Y-62261904D01*
X154002380Y-62642857D01*
X154050000Y-62738095D01*
X154097619Y-62785714D01*
X154192857Y-62833333D01*
X154335714Y-62833333D01*
X154430952Y-62785714D01*
X154478571Y-62738095D01*
X154526190Y-62642857D01*
X154526190Y-62261904D01*
X154002380Y-63690476D02*
X154002380Y-63500000D01*
X154050000Y-63404761D01*
X154097619Y-63357142D01*
X154240476Y-63261904D01*
X154430952Y-63214285D01*
X154811904Y-63214285D01*
X154907142Y-63261904D01*
X154954761Y-63309523D01*
X155002380Y-63404761D01*
X155002380Y-63595238D01*
X154954761Y-63690476D01*
X154907142Y-63738095D01*
X154811904Y-63785714D01*
X154573809Y-63785714D01*
X154478571Y-63738095D01*
X154430952Y-63690476D01*
X154383333Y-63595238D01*
X154383333Y-63404761D01*
X154430952Y-63309523D01*
X154478571Y-63261904D01*
X154573809Y-63214285D01*
%TO.C,D8*%
X83852380Y-57361904D02*
X82852380Y-57361904D01*
X82852380Y-57600000D01*
X82900000Y-57742857D01*
X82995238Y-57838095D01*
X83090476Y-57885714D01*
X83280952Y-57933333D01*
X83423809Y-57933333D01*
X83614285Y-57885714D01*
X83709523Y-57838095D01*
X83804761Y-57742857D01*
X83852380Y-57600000D01*
X83852380Y-57361904D01*
X83280952Y-58504761D02*
X83233333Y-58409523D01*
X83185714Y-58361904D01*
X83090476Y-58314285D01*
X83042857Y-58314285D01*
X82947619Y-58361904D01*
X82900000Y-58409523D01*
X82852380Y-58504761D01*
X82852380Y-58695238D01*
X82900000Y-58790476D01*
X82947619Y-58838095D01*
X83042857Y-58885714D01*
X83090476Y-58885714D01*
X83185714Y-58838095D01*
X83233333Y-58790476D01*
X83280952Y-58695238D01*
X83280952Y-58504761D01*
X83328571Y-58409523D01*
X83376190Y-58361904D01*
X83471428Y-58314285D01*
X83661904Y-58314285D01*
X83757142Y-58361904D01*
X83804761Y-58409523D01*
X83852380Y-58504761D01*
X83852380Y-58695238D01*
X83804761Y-58790476D01*
X83757142Y-58838095D01*
X83661904Y-58885714D01*
X83471428Y-58885714D01*
X83376190Y-58838095D01*
X83328571Y-58790476D01*
X83280952Y-58695238D01*
%TO.C,R11*%
X307602380Y-62457142D02*
X307126190Y-62123809D01*
X307602380Y-61885714D02*
X306602380Y-61885714D01*
X306602380Y-62266666D01*
X306650000Y-62361904D01*
X306697619Y-62409523D01*
X306792857Y-62457142D01*
X306935714Y-62457142D01*
X307030952Y-62409523D01*
X307078571Y-62361904D01*
X307126190Y-62266666D01*
X307126190Y-61885714D01*
X307602380Y-63409523D02*
X307602380Y-62838095D01*
X307602380Y-63123809D02*
X306602380Y-63123809D01*
X306745238Y-63028571D01*
X306840476Y-62933333D01*
X306888095Y-62838095D01*
X307602380Y-64361904D02*
X307602380Y-63790476D01*
X307602380Y-64076190D02*
X306602380Y-64076190D01*
X306745238Y-63980952D01*
X306840476Y-63885714D01*
X306888095Y-63790476D01*
%TO.C,U4*%
X212561904Y-59752380D02*
X212561904Y-60561904D01*
X212514285Y-60657142D01*
X212466666Y-60704761D01*
X212371428Y-60752380D01*
X212180952Y-60752380D01*
X212085714Y-60704761D01*
X212038095Y-60657142D01*
X211990476Y-60561904D01*
X211990476Y-59752380D01*
X211085714Y-60085714D02*
X211085714Y-60752380D01*
X211323809Y-59704761D02*
X211561904Y-60419047D01*
X210942857Y-60419047D01*
D11*
%TO.C,R2*%
X79465000Y-62772936D02*
X79465000Y-63227064D01*
X80935000Y-62772936D02*
X80935000Y-63227064D01*
%TO.C,D19*%
X133400000Y-117600000D02*
X133400000Y-119450000D01*
X134600000Y-117600000D02*
X134600000Y-119450000D01*
X134600000Y-119450000D02*
X133400000Y-119450000D01*
%TO.C,R4*%
X117465000Y-62772936D02*
X117465000Y-63227064D01*
X118935000Y-62772936D02*
X118935000Y-63227064D01*
%TO.C,R3*%
X98465000Y-62772936D02*
X98465000Y-63227064D01*
X99935000Y-62772936D02*
X99935000Y-63227064D01*
%TO.C,D48*%
X253200000Y-133500000D02*
X253200000Y-135350000D01*
X254400000Y-133500000D02*
X254400000Y-135350000D01*
X254400000Y-135350000D02*
X253200000Y-135350000D01*
%TO.C,D14*%
X100600000Y-57500000D02*
X100600000Y-59350000D01*
X101800000Y-57500000D02*
X101800000Y-59350000D01*
X101800000Y-59350000D02*
X100600000Y-59350000D01*
%TO.C,D53*%
X272200000Y-114400000D02*
X272200000Y-116250000D01*
X273400000Y-114400000D02*
X273400000Y-116250000D01*
X273400000Y-116250000D02*
X272200000Y-116250000D01*
%TO.C,D43*%
X267000000Y-117600000D02*
X267000000Y-119450000D01*
X268200000Y-117600000D02*
X268200000Y-119450000D01*
X268200000Y-119450000D02*
X267000000Y-119450000D01*
%TO.C,D37*%
X248000000Y-117600000D02*
X248000000Y-119450000D01*
X249200000Y-117600000D02*
X249200000Y-119450000D01*
X249200000Y-119450000D02*
X248000000Y-119450000D01*
%TO.C,D64*%
X310200000Y-95400000D02*
X310200000Y-97250000D01*
X311400000Y-95400000D02*
X311400000Y-97250000D01*
X311400000Y-97250000D02*
X310200000Y-97250000D01*
%TO.C,D52*%
X272200000Y-95400000D02*
X272200000Y-97250000D01*
X273400000Y-95400000D02*
X273400000Y-97250000D01*
X273400000Y-97250000D02*
X272200000Y-97250000D01*
%TO.C,D71*%
X329200000Y-114500000D02*
X329200000Y-116350000D01*
X330400000Y-114500000D02*
X330400000Y-116350000D01*
X330400000Y-116350000D02*
X329200000Y-116350000D01*
%TO.C,D55*%
X305000000Y-117600000D02*
X305000000Y-119450000D01*
X306200000Y-117600000D02*
X306200000Y-119450000D01*
X306200000Y-119450000D02*
X305000000Y-119450000D01*
%TO.C,D27*%
X138500000Y-76400000D02*
X138500000Y-78250000D01*
X139700000Y-76400000D02*
X139700000Y-78250000D01*
X139700000Y-78250000D02*
X138500000Y-78250000D01*
%TO.C,R9*%
X270065000Y-62872936D02*
X270065000Y-63327064D01*
X271535000Y-62872936D02*
X271535000Y-63327064D01*
%TO.C,D51*%
X272200000Y-76500000D02*
X272200000Y-78350000D01*
X273400000Y-76500000D02*
X273400000Y-78350000D01*
X273400000Y-78350000D02*
X272200000Y-78350000D01*
%TO.C,D26*%
X138500000Y-57400000D02*
X138500000Y-59250000D01*
X139700000Y-57400000D02*
X139700000Y-59250000D01*
X139700000Y-59250000D02*
X138500000Y-59250000D01*
%TO.C,R10*%
X289065000Y-62872936D02*
X289065000Y-63327064D01*
X290535000Y-62872936D02*
X290535000Y-63327064D01*
%TO.C,R7*%
X174265000Y-62772936D02*
X174265000Y-63227064D01*
X175735000Y-62772936D02*
X175735000Y-63227064D01*
%TO.C,R5*%
X136465000Y-62772936D02*
X136465000Y-63227064D01*
X137935000Y-62772936D02*
X137935000Y-63227064D01*
%TO.C,D5*%
X62500000Y-114500000D02*
X62500000Y-116350000D01*
X63700000Y-114500000D02*
X63700000Y-116350000D01*
X63700000Y-116350000D02*
X62500000Y-116350000D01*
%TO.C,D60*%
X291200000Y-130700000D02*
X291200000Y-132550000D01*
X292400000Y-130700000D02*
X292400000Y-132550000D01*
X292400000Y-132550000D02*
X291200000Y-132550000D01*
%TO.C,D1*%
X76300000Y-117600000D02*
X76300000Y-119450000D01*
X77500000Y-117600000D02*
X77500000Y-119450000D01*
X77500000Y-119450000D02*
X76300000Y-119450000D01*
%TO.C,C1*%
X198140000Y-118051252D02*
X198140000Y-117528748D01*
X199610000Y-118051252D02*
X199610000Y-117528748D01*
%TO.C,D25*%
X152300000Y-117600000D02*
X152300000Y-119450000D01*
X153500000Y-117600000D02*
X153500000Y-119450000D01*
X153500000Y-119450000D02*
X152300000Y-119450000D01*
%TO.C,D30*%
X138500000Y-133400000D02*
X138500000Y-135250000D01*
X139700000Y-133400000D02*
X139700000Y-135250000D01*
X139700000Y-135250000D02*
X138500000Y-135250000D01*
%TO.C,R17*%
X210565000Y-116962936D02*
X210565000Y-117417064D01*
X212035000Y-116962936D02*
X212035000Y-117417064D01*
%TO.C,D2*%
X62500000Y-57450000D02*
X62500000Y-59300000D01*
X63700000Y-57450000D02*
X63700000Y-59300000D01*
X63700000Y-59300000D02*
X62500000Y-59300000D01*
%TO.C,D23*%
X119500000Y-133400000D02*
X119500000Y-135250000D01*
X120700000Y-133400000D02*
X120700000Y-135250000D01*
X120700000Y-135250000D02*
X119500000Y-135250000D01*
%TO.C,C5*%
X213738748Y-50265000D02*
X214261252Y-50265000D01*
X213738748Y-51735000D02*
X214261252Y-51735000D01*
%TO.C,R13*%
X342865000Y-61072936D02*
X342865000Y-61527064D01*
X344335000Y-61072936D02*
X344335000Y-61527064D01*
%TO.C,R8*%
X251065000Y-62872936D02*
X251065000Y-63327064D01*
X252535000Y-62872936D02*
X252535000Y-63327064D01*
%TO.C,D16*%
X100600000Y-95500000D02*
X100600000Y-97350000D01*
X101800000Y-95500000D02*
X101800000Y-97350000D01*
X101800000Y-97350000D02*
X100600000Y-97350000D01*
%TO.C,D18*%
X100500000Y-133400000D02*
X100500000Y-135250000D01*
X101700000Y-133400000D02*
X101700000Y-135250000D01*
X101700000Y-135250000D02*
X100500000Y-135250000D01*
%TO.C,D3*%
X62600000Y-76400000D02*
X62600000Y-78250000D01*
X63800000Y-76400000D02*
X63800000Y-78250000D01*
X63800000Y-78250000D02*
X62600000Y-78250000D01*
%TO.C,R19*%
X201727064Y-125955000D02*
X201272936Y-125955000D01*
X201727064Y-127425000D02*
X201272936Y-127425000D01*
%TO.C,C4*%
X203565000Y-57361252D02*
X203565000Y-56838748D01*
X205035000Y-57361252D02*
X205035000Y-56838748D01*
%TO.C,D67*%
X342900000Y-117600000D02*
X342900000Y-119450000D01*
X344100000Y-117600000D02*
X344100000Y-119450000D01*
X344100000Y-119450000D02*
X342900000Y-119450000D01*
%TO.C,D31*%
X171400000Y-117600000D02*
X171400000Y-119450000D01*
X172600000Y-117600000D02*
X172600000Y-119450000D01*
X172600000Y-119450000D02*
X171400000Y-119450000D01*
%TO.C,D10*%
X81600000Y-95400000D02*
X81600000Y-97250000D01*
X82800000Y-95400000D02*
X82800000Y-97250000D01*
X82800000Y-97250000D02*
X81600000Y-97250000D01*
%TO.C,D6*%
X62600000Y-133500000D02*
X62600000Y-135350000D01*
X63800000Y-133500000D02*
X63800000Y-135350000D01*
X63800000Y-135350000D02*
X62600000Y-135350000D01*
%TO.C,R1*%
X198065000Y-122062936D02*
X198065000Y-122517064D01*
X199535000Y-122062936D02*
X199535000Y-122517064D01*
%TO.C,D65*%
X310200000Y-114400000D02*
X310200000Y-116250000D01*
X311400000Y-114400000D02*
X311400000Y-116250000D01*
X311400000Y-116250000D02*
X310200000Y-116250000D01*
%TO.C,D70*%
X329100000Y-95400000D02*
X329100000Y-97250000D01*
X330300000Y-95400000D02*
X330300000Y-97250000D01*
X330300000Y-97250000D02*
X329100000Y-97250000D01*
%TO.C,D69*%
X329200000Y-76400000D02*
X329200000Y-78250000D01*
X330400000Y-76400000D02*
X330400000Y-78250000D01*
X330400000Y-78250000D02*
X329200000Y-78250000D01*
%TO.C,D44*%
X253200000Y-57400000D02*
X253200000Y-59250000D01*
X254400000Y-57400000D02*
X254400000Y-59250000D01*
X254400000Y-59250000D02*
X253200000Y-59250000D01*
%TO.C,D41*%
X234200000Y-114500000D02*
X234200000Y-116350000D01*
X235400000Y-114500000D02*
X235400000Y-116350000D01*
X235400000Y-116350000D02*
X234200000Y-116350000D01*
%TO.C,D72*%
X329100000Y-133400000D02*
X329100000Y-135250000D01*
X330300000Y-133400000D02*
X330300000Y-135250000D01*
X330300000Y-135250000D02*
X329100000Y-135250000D01*
%TO.C,D68*%
X329100000Y-57400000D02*
X329100000Y-59250000D01*
X330300000Y-57400000D02*
X330300000Y-59250000D01*
X330300000Y-59250000D02*
X329100000Y-59250000D01*
%TO.C,D13*%
X114300000Y-117600000D02*
X114300000Y-119450000D01*
X115500000Y-117600000D02*
X115500000Y-119450000D01*
X115500000Y-119450000D02*
X114300000Y-119450000D01*
%TO.C,D66*%
X310200000Y-133500000D02*
X310200000Y-135350000D01*
X311400000Y-133500000D02*
X311400000Y-135350000D01*
X311400000Y-135350000D02*
X310200000Y-135350000D01*
%TO.C,D22*%
X119500000Y-114400000D02*
X119500000Y-116250000D01*
X120700000Y-114400000D02*
X120700000Y-116250000D01*
X120700000Y-116250000D02*
X119500000Y-116250000D01*
%TO.C,D58*%
X291200000Y-95400000D02*
X291200000Y-97250000D01*
X292400000Y-95400000D02*
X292400000Y-97250000D01*
X292400000Y-97250000D02*
X291200000Y-97250000D01*
%TO.C,D50*%
X272150000Y-57400000D02*
X272150000Y-59250000D01*
X273350000Y-57400000D02*
X273350000Y-59250000D01*
X273350000Y-59250000D02*
X272150000Y-59250000D01*
%TO.C,D61*%
X324000000Y-117600000D02*
X324000000Y-119450000D01*
X325200000Y-117600000D02*
X325200000Y-119450000D01*
X325200000Y-119450000D02*
X324000000Y-119450000D01*
%TO.C,D54*%
X272200000Y-133400000D02*
X272200000Y-135250000D01*
X273400000Y-133400000D02*
X273400000Y-135250000D01*
X273400000Y-135250000D02*
X272200000Y-135250000D01*
%TO.C,D28*%
X138500000Y-95400000D02*
X138500000Y-97250000D01*
X139700000Y-95400000D02*
X139700000Y-97250000D01*
X139700000Y-97250000D02*
X138500000Y-97250000D01*
%TO.C,D47*%
X253200000Y-114400000D02*
X253200000Y-116250000D01*
X254400000Y-114400000D02*
X254400000Y-116250000D01*
X254400000Y-116250000D02*
X253200000Y-116250000D01*
%TO.C,D45*%
X253200000Y-76500000D02*
X253200000Y-78350000D01*
X254400000Y-76500000D02*
X254400000Y-78350000D01*
X254400000Y-78350000D02*
X253200000Y-78350000D01*
%TO.C,D4*%
X62600000Y-95500000D02*
X62600000Y-97350000D01*
X63800000Y-95500000D02*
X63800000Y-97350000D01*
X63800000Y-97350000D02*
X62600000Y-97350000D01*
%TO.C,D46*%
X253200000Y-95400000D02*
X253200000Y-97250000D01*
X254400000Y-95400000D02*
X254400000Y-97250000D01*
X254400000Y-97250000D02*
X253200000Y-97250000D01*
%TO.C,U1*%
X204875000Y-116225000D02*
X202925000Y-116225000D01*
X204875000Y-125095000D02*
X202925000Y-125095000D01*
X204875000Y-116225000D02*
X208325000Y-116225000D01*
X204875000Y-125095000D02*
X206825000Y-125095000D01*
%TO.C,D38*%
X234150000Y-57400000D02*
X234150000Y-59250000D01*
X235350000Y-57400000D02*
X235350000Y-59250000D01*
X235350000Y-59250000D02*
X234150000Y-59250000D01*
%TO.C,D42*%
X234200000Y-133400000D02*
X234200000Y-135250000D01*
X235400000Y-133400000D02*
X235400000Y-135250000D01*
X235400000Y-135250000D02*
X234200000Y-135250000D01*
%TO.C,D20*%
X119600000Y-57400000D02*
X119600000Y-59250000D01*
X120800000Y-57400000D02*
X120800000Y-59250000D01*
X120800000Y-59250000D02*
X119600000Y-59250000D01*
%TO.C,D12*%
X81600000Y-133500000D02*
X81600000Y-135350000D01*
X82800000Y-133500000D02*
X82800000Y-135350000D01*
X82800000Y-135350000D02*
X81600000Y-135350000D01*
%TO.C,D32*%
X157500000Y-57400000D02*
X157500000Y-59250000D01*
X158700000Y-57400000D02*
X158700000Y-59250000D01*
X158700000Y-59250000D02*
X157500000Y-59250000D01*
%TO.C,D24*%
X119500000Y-76400000D02*
X119500000Y-78250000D01*
X120700000Y-76400000D02*
X120700000Y-78250000D01*
X120700000Y-78250000D02*
X119500000Y-78250000D01*
%TO.C,D59*%
X291200000Y-114400000D02*
X291200000Y-116250000D01*
X292400000Y-114400000D02*
X292400000Y-116250000D01*
X292400000Y-116250000D02*
X291200000Y-116250000D01*
%TO.C,D63*%
X310200000Y-76450000D02*
X310200000Y-78300000D01*
X311400000Y-76450000D02*
X311400000Y-78300000D01*
X311400000Y-78300000D02*
X310200000Y-78300000D01*
%TO.C,R12*%
X327065000Y-62685436D02*
X327065000Y-63139564D01*
X328535000Y-62685436D02*
X328535000Y-63139564D01*
%TO.C,D40*%
X234200000Y-95400000D02*
X234200000Y-97250000D01*
X235400000Y-95400000D02*
X235400000Y-97250000D01*
X235400000Y-97250000D02*
X234200000Y-97250000D01*
%TO.C,D49*%
X286000000Y-117600000D02*
X286000000Y-119450000D01*
X287200000Y-117600000D02*
X287200000Y-119450000D01*
X287200000Y-119450000D02*
X286000000Y-119450000D01*
%TO.C,D39*%
X234200000Y-76500000D02*
X234200000Y-78350000D01*
X235400000Y-76500000D02*
X235400000Y-78350000D01*
X235400000Y-78350000D02*
X234200000Y-78350000D01*
%TO.C,J2*%
X194685000Y-53260000D02*
X194685000Y-57140000D01*
X192715000Y-52090000D02*
X190215000Y-52090000D01*
X192715000Y-58310000D02*
X190215000Y-58310000D01*
X190215000Y-52090000D02*
X190215000Y-53140000D01*
X190215000Y-58310000D02*
X190215000Y-57260000D01*
X190215000Y-53140000D02*
X189225000Y-53140000D01*
%TO.C,D29*%
X138500000Y-114400000D02*
X138500000Y-116250000D01*
X139700000Y-114400000D02*
X139700000Y-116250000D01*
X139700000Y-116250000D02*
X138500000Y-116250000D01*
%TO.C,D17*%
X100500000Y-114400000D02*
X100500000Y-116250000D01*
X101700000Y-114400000D02*
X101700000Y-116250000D01*
X101700000Y-116250000D02*
X100500000Y-116250000D01*
%TO.C,D11*%
X81500000Y-114400000D02*
X81500000Y-116250000D01*
X82700000Y-114400000D02*
X82700000Y-116250000D01*
X82700000Y-116250000D02*
X81500000Y-116250000D01*
%TO.C,D15*%
X100500000Y-76400000D02*
X100500000Y-78250000D01*
X101700000Y-76400000D02*
X101700000Y-78250000D01*
X101700000Y-78250000D02*
X100500000Y-78250000D01*
%TO.C,D36*%
X157600000Y-130300000D02*
X157600000Y-132150000D01*
X158800000Y-130300000D02*
X158800000Y-132150000D01*
X158800000Y-132150000D02*
X157600000Y-132150000D01*
%TO.C,D62*%
X310200000Y-57450000D02*
X310200000Y-59300000D01*
X311400000Y-57450000D02*
X311400000Y-59300000D01*
X311400000Y-59300000D02*
X310200000Y-59300000D01*
%TO.C,D34*%
X157600000Y-95500000D02*
X157600000Y-97350000D01*
X158800000Y-95500000D02*
X158800000Y-97350000D01*
X158800000Y-97350000D02*
X157600000Y-97350000D01*
%TO.C,D7*%
X95300000Y-117600000D02*
X95300000Y-119450000D01*
X96500000Y-117600000D02*
X96500000Y-119450000D01*
X96500000Y-119450000D02*
X95300000Y-119450000D01*
%TO.C,D57*%
X291200000Y-76475000D02*
X291200000Y-78325000D01*
X292400000Y-76475000D02*
X292400000Y-78325000D01*
X292400000Y-78325000D02*
X291200000Y-78325000D01*
%TO.C,D33*%
X157500000Y-76400000D02*
X157500000Y-78250000D01*
X158700000Y-76400000D02*
X158700000Y-78250000D01*
X158700000Y-78250000D02*
X157500000Y-78250000D01*
%TO.C,D9*%
X81600000Y-76400000D02*
X81600000Y-78250000D01*
X82800000Y-76400000D02*
X82800000Y-78250000D01*
X82800000Y-78250000D02*
X81600000Y-78250000D01*
%TO.C,D21*%
X119500000Y-95500000D02*
X119500000Y-97350000D01*
X120700000Y-95500000D02*
X120700000Y-97350000D01*
X120700000Y-97350000D02*
X119500000Y-97350000D01*
%TO.C,D56*%
X291200000Y-57400000D02*
X291200000Y-59250000D01*
X292400000Y-57400000D02*
X292400000Y-59250000D01*
X292400000Y-59250000D02*
X291200000Y-59250000D01*
%TO.C,D35*%
X157500000Y-114400000D02*
X157500000Y-116250000D01*
X158700000Y-114400000D02*
X158700000Y-116250000D01*
X158700000Y-116250000D02*
X157500000Y-116250000D01*
%TO.C,R6*%
X155465000Y-62772936D02*
X155465000Y-63227064D01*
X156935000Y-62772936D02*
X156935000Y-63227064D01*
%TO.C,D8*%
X81500000Y-57400000D02*
X81500000Y-59250000D01*
X82700000Y-57400000D02*
X82700000Y-59250000D01*
X82700000Y-59250000D02*
X81500000Y-59250000D01*
%TO.C,R11*%
X308065000Y-62872936D02*
X308065000Y-63327064D01*
X309535000Y-62872936D02*
X309535000Y-63327064D01*
%TO.C,U4*%
X207700000Y-59210000D02*
X213710000Y-59210000D01*
X209950000Y-52390000D02*
X213710000Y-52390000D01*
X213710000Y-52390000D02*
X213710000Y-53650000D01*
X213710000Y-59210000D02*
X213710000Y-57950000D01*
D10*
%TO.C,SW2*%
X75730000Y-63815000D02*
X75730000Y-64196000D01*
X64300000Y-69784000D02*
X64300000Y-70165000D01*
X64300000Y-66355000D02*
X64300000Y-66736000D01*
X68185838Y-70165000D02*
X66459000Y-70165000D01*
X75730000Y-67244000D02*
X75730000Y-68260000D01*
X66840000Y-63815000D02*
X75730000Y-63815000D01*
X75730000Y-68260000D02*
X70650000Y-68260000D01*
X64681000Y-70165000D02*
X64300000Y-70165000D01*
X70650000Y-68259999D02*
G75*
G03*
X68185838Y-70183960I0J-2540000D01*
G01*
X66840000Y-63815000D02*
G75*
G03*
X64300000Y-66355000I1J-2540001D01*
G01*
%TO.C,SW22*%
X151730000Y-63815000D02*
X151730000Y-64196000D01*
X140300000Y-69784000D02*
X140300000Y-70165000D01*
X140300000Y-66355000D02*
X140300000Y-66736000D01*
X144185838Y-70165000D02*
X142459000Y-70165000D01*
X151730000Y-67244000D02*
X151730000Y-68260000D01*
X142840000Y-63815000D02*
X151730000Y-63815000D01*
X151730000Y-68260000D02*
X146650000Y-68260000D01*
X140681000Y-70165000D02*
X140300000Y-70165000D01*
X146650000Y-68259999D02*
G75*
G03*
X144185838Y-70183960I0J-2540000D01*
G01*
X142840000Y-63815000D02*
G75*
G03*
X140300000Y-66355000I1J-2540001D01*
G01*
%TO.C,SW1*%
X75730000Y-44815000D02*
X75730000Y-45196000D01*
X64300000Y-50784000D02*
X64300000Y-51165000D01*
X64300000Y-47355000D02*
X64300000Y-47736000D01*
X68185838Y-51165000D02*
X66459000Y-51165000D01*
X75730000Y-48244000D02*
X75730000Y-49260000D01*
X66840000Y-44815000D02*
X75730000Y-44815000D01*
X75730000Y-49260000D02*
X70650000Y-49260000D01*
X64681000Y-51165000D02*
X64300000Y-51165000D01*
X70650000Y-49259999D02*
G75*
G03*
X68185838Y-51183960I0J-2540000D01*
G01*
X66840000Y-44815000D02*
G75*
G03*
X64300000Y-47355000I1J-2540001D01*
G01*
%TO.C,SW31*%
X247410000Y-44815000D02*
X247410000Y-45196000D01*
X235980000Y-50784000D02*
X235980000Y-51165000D01*
X235980000Y-47355000D02*
X235980000Y-47736000D01*
X239865838Y-51165000D02*
X238139000Y-51165000D01*
X247410000Y-48244000D02*
X247410000Y-49260000D01*
X238520000Y-44815000D02*
X247410000Y-44815000D01*
X247410000Y-49260000D02*
X242330000Y-49260000D01*
X236361000Y-51165000D02*
X235980000Y-51165000D01*
X242330000Y-49259999D02*
G75*
G03*
X239865838Y-51183960I0J-2540000D01*
G01*
X238520000Y-44815000D02*
G75*
G03*
X235980000Y-47355000I1J-2540001D01*
G01*
%TO.C,SW30*%
X170730000Y-120815000D02*
X170730000Y-121196000D01*
X159300000Y-126784000D02*
X159300000Y-127165000D01*
X159300000Y-123355000D02*
X159300000Y-123736000D01*
X163185838Y-127165000D02*
X161459000Y-127165000D01*
X170730000Y-124244000D02*
X170730000Y-125260000D01*
X161840000Y-120815000D02*
X170730000Y-120815000D01*
X170730000Y-125260000D02*
X165650000Y-125260000D01*
X159681000Y-127165000D02*
X159300000Y-127165000D01*
X165650000Y-125259999D02*
G75*
G03*
X163185838Y-127183960I0J-2540000D01*
G01*
X161840000Y-120815000D02*
G75*
G03*
X159300000Y-123355000I1J-2540001D01*
G01*
%TO.C,SW60*%
X342330000Y-120815000D02*
X342330000Y-121196000D01*
X330900000Y-126784000D02*
X330900000Y-127165000D01*
X330900000Y-123355000D02*
X330900000Y-123736000D01*
X334785838Y-127165000D02*
X333059000Y-127165000D01*
X342330000Y-124244000D02*
X342330000Y-125260000D01*
X333440000Y-120815000D02*
X342330000Y-120815000D01*
X342330000Y-125260000D02*
X337250000Y-125260000D01*
X331281000Y-127165000D02*
X330900000Y-127165000D01*
X337250000Y-125259999D02*
G75*
G03*
X334785838Y-127183960I0J-2540000D01*
G01*
X333440000Y-120815000D02*
G75*
G03*
X330900000Y-123355000I1J-2540001D01*
G01*
%TO.C,SW24*%
X151730000Y-101815000D02*
X151730000Y-102196000D01*
X140300000Y-107784000D02*
X140300000Y-108165000D01*
X140300000Y-104355000D02*
X140300000Y-104736000D01*
X144185838Y-108165000D02*
X142459000Y-108165000D01*
X151730000Y-105244000D02*
X151730000Y-106260000D01*
X142840000Y-101815000D02*
X151730000Y-101815000D01*
X151730000Y-106260000D02*
X146650000Y-106260000D01*
X140681000Y-108165000D02*
X140300000Y-108165000D01*
X146650000Y-106259999D02*
G75*
G03*
X144185838Y-108183960I0J-2540000D01*
G01*
X142840000Y-101815000D02*
G75*
G03*
X140300000Y-104355000I1J-2540001D01*
G01*
%TO.C,SW27*%
X170730000Y-63815000D02*
X170730000Y-64196000D01*
X159300000Y-69784000D02*
X159300000Y-70165000D01*
X159300000Y-66355000D02*
X159300000Y-66736000D01*
X163185838Y-70165000D02*
X161459000Y-70165000D01*
X170730000Y-67244000D02*
X170730000Y-68260000D01*
X161840000Y-63815000D02*
X170730000Y-63815000D01*
X170730000Y-68260000D02*
X165650000Y-68260000D01*
X159681000Y-70165000D02*
X159300000Y-70165000D01*
X165650000Y-68259999D02*
G75*
G03*
X163185838Y-70183960I0J-2540000D01*
G01*
X161840000Y-63815000D02*
G75*
G03*
X159300000Y-66355000I1J-2540001D01*
G01*
%TO.C,SW42*%
X285410000Y-63815000D02*
X285410000Y-64196000D01*
X273980000Y-69784000D02*
X273980000Y-70165000D01*
X273980000Y-66355000D02*
X273980000Y-66736000D01*
X277865838Y-70165000D02*
X276139000Y-70165000D01*
X285410000Y-67244000D02*
X285410000Y-68260000D01*
X276520000Y-63815000D02*
X285410000Y-63815000D01*
X285410000Y-68260000D02*
X280330000Y-68260000D01*
X274361000Y-70165000D02*
X273980000Y-70165000D01*
X280330000Y-68259999D02*
G75*
G03*
X277865838Y-70183960I0J-2540000D01*
G01*
X276520000Y-63815000D02*
G75*
G03*
X273980000Y-66355000I1J-2540001D01*
G01*
%TO.C,SW10*%
X94730000Y-120815000D02*
X94730000Y-121196000D01*
X83300000Y-126784000D02*
X83300000Y-127165000D01*
X83300000Y-123355000D02*
X83300000Y-123736000D01*
X87185838Y-127165000D02*
X85459000Y-127165000D01*
X94730000Y-124244000D02*
X94730000Y-125260000D01*
X85840000Y-120815000D02*
X94730000Y-120815000D01*
X94730000Y-125260000D02*
X89650000Y-125260000D01*
X83681000Y-127165000D02*
X83300000Y-127165000D01*
X89650000Y-125259999D02*
G75*
G03*
X87185838Y-127183960I0J-2540000D01*
G01*
X85840000Y-120815000D02*
G75*
G03*
X83300000Y-123355000I1J-2540001D01*
G01*
%TO.C,SW57*%
X342330000Y-63815000D02*
X342330000Y-64196000D01*
X330900000Y-69784000D02*
X330900000Y-70165000D01*
X330900000Y-66355000D02*
X330900000Y-66736000D01*
X334785838Y-70165000D02*
X333059000Y-70165000D01*
X342330000Y-67244000D02*
X342330000Y-68260000D01*
X333440000Y-63815000D02*
X342330000Y-63815000D01*
X342330000Y-68260000D02*
X337250000Y-68260000D01*
X331281000Y-70165000D02*
X330900000Y-70165000D01*
X337250000Y-68259999D02*
G75*
G03*
X334785838Y-70183960I0J-2540000D01*
G01*
X333440000Y-63815000D02*
G75*
G03*
X330900000Y-66355000I1J-2540001D01*
G01*
%TO.C,SW29*%
X170730000Y-101815000D02*
X170730000Y-102196000D01*
X159300000Y-107784000D02*
X159300000Y-108165000D01*
X159300000Y-104355000D02*
X159300000Y-104736000D01*
X163185838Y-108165000D02*
X161459000Y-108165000D01*
X170730000Y-105244000D02*
X170730000Y-106260000D01*
X161840000Y-101815000D02*
X170730000Y-101815000D01*
X170730000Y-106260000D02*
X165650000Y-106260000D01*
X159681000Y-108165000D02*
X159300000Y-108165000D01*
X165650000Y-106259999D02*
G75*
G03*
X163185838Y-108183960I0J-2540000D01*
G01*
X161840000Y-101815000D02*
G75*
G03*
X159300000Y-104355000I1J-2540001D01*
G01*
%TO.C,SW7*%
X94730000Y-63815000D02*
X94730000Y-64196000D01*
X83300000Y-69784000D02*
X83300000Y-70165000D01*
X83300000Y-66355000D02*
X83300000Y-66736000D01*
X87185838Y-70165000D02*
X85459000Y-70165000D01*
X94730000Y-67244000D02*
X94730000Y-68260000D01*
X85840000Y-63815000D02*
X94730000Y-63815000D01*
X94730000Y-68260000D02*
X89650000Y-68260000D01*
X83681000Y-70165000D02*
X83300000Y-70165000D01*
X89650000Y-68259999D02*
G75*
G03*
X87185838Y-70183960I0J-2540000D01*
G01*
X85840000Y-63815000D02*
G75*
G03*
X83300000Y-66355000I1J-2540001D01*
G01*
%TO.C,SW20*%
X132730000Y-120815000D02*
X132730000Y-121196000D01*
X121300000Y-126784000D02*
X121300000Y-127165000D01*
X121300000Y-123355000D02*
X121300000Y-123736000D01*
X125185838Y-127165000D02*
X123459000Y-127165000D01*
X132730000Y-124244000D02*
X132730000Y-125260000D01*
X123840000Y-120815000D02*
X132730000Y-120815000D01*
X132730000Y-125260000D02*
X127650000Y-125260000D01*
X121681000Y-127165000D02*
X121300000Y-127165000D01*
X127650000Y-125259999D02*
G75*
G03*
X125185838Y-127183960I0J-2540000D01*
G01*
X123840000Y-120815000D02*
G75*
G03*
X121300000Y-123355000I1J-2540001D01*
G01*
%TO.C,SW49*%
X304410000Y-101815000D02*
X304410000Y-102196000D01*
X292980000Y-107784000D02*
X292980000Y-108165000D01*
X292980000Y-104355000D02*
X292980000Y-104736000D01*
X296865838Y-108165000D02*
X295139000Y-108165000D01*
X304410000Y-105244000D02*
X304410000Y-106260000D01*
X295520000Y-101815000D02*
X304410000Y-101815000D01*
X304410000Y-106260000D02*
X299330000Y-106260000D01*
X293361000Y-108165000D02*
X292980000Y-108165000D01*
X299330000Y-106259999D02*
G75*
G03*
X296865838Y-108183960I0J-2540000D01*
G01*
X295520000Y-101815000D02*
G75*
G03*
X292980000Y-104355000I1J-2540001D01*
G01*
%TO.C,SW39*%
X266410000Y-101815000D02*
X266410000Y-102196000D01*
X254980000Y-107784000D02*
X254980000Y-108165000D01*
X254980000Y-104355000D02*
X254980000Y-104736000D01*
X258865838Y-108165000D02*
X257139000Y-108165000D01*
X266410000Y-105244000D02*
X266410000Y-106260000D01*
X257520000Y-101815000D02*
X266410000Y-101815000D01*
X266410000Y-106260000D02*
X261330000Y-106260000D01*
X255361000Y-108165000D02*
X254980000Y-108165000D01*
X261330000Y-106259999D02*
G75*
G03*
X258865838Y-108183960I0J-2540000D01*
G01*
X257520000Y-101815000D02*
G75*
G03*
X254980000Y-104355000I1J-2540001D01*
G01*
%TO.C,SW5*%
X75730000Y-120815000D02*
X75730000Y-121196000D01*
X64300000Y-126784000D02*
X64300000Y-127165000D01*
X64300000Y-123355000D02*
X64300000Y-123736000D01*
X68185838Y-127165000D02*
X66459000Y-127165000D01*
X75730000Y-124244000D02*
X75730000Y-125260000D01*
X66840000Y-120815000D02*
X75730000Y-120815000D01*
X75730000Y-125260000D02*
X70650000Y-125260000D01*
X64681000Y-127165000D02*
X64300000Y-127165000D01*
X70650000Y-125259999D02*
G75*
G03*
X68185838Y-127183960I0J-2540000D01*
G01*
X66840000Y-120815000D02*
G75*
G03*
X64300000Y-123355000I1J-2540001D01*
G01*
%TO.C,SW32*%
X247410000Y-63815000D02*
X247410000Y-64196000D01*
X235980000Y-69784000D02*
X235980000Y-70165000D01*
X235980000Y-66355000D02*
X235980000Y-66736000D01*
X239865838Y-70165000D02*
X238139000Y-70165000D01*
X247410000Y-67244000D02*
X247410000Y-68260000D01*
X238520000Y-63815000D02*
X247410000Y-63815000D01*
X247410000Y-68260000D02*
X242330000Y-68260000D01*
X236361000Y-70165000D02*
X235980000Y-70165000D01*
X242330000Y-68259999D02*
G75*
G03*
X239865838Y-70183960I0J-2540000D01*
G01*
X238520000Y-63815000D02*
G75*
G03*
X235980000Y-66355000I1J-2540001D01*
G01*
%TO.C,SW48*%
X304410000Y-82815000D02*
X304410000Y-83196000D01*
X292980000Y-88784000D02*
X292980000Y-89165000D01*
X292980000Y-85355000D02*
X292980000Y-85736000D01*
X296865838Y-89165000D02*
X295139000Y-89165000D01*
X304410000Y-86244000D02*
X304410000Y-87260000D01*
X295520000Y-82815000D02*
X304410000Y-82815000D01*
X304410000Y-87260000D02*
X299330000Y-87260000D01*
X293361000Y-89165000D02*
X292980000Y-89165000D01*
X299330000Y-87259999D02*
G75*
G03*
X296865838Y-89183960I0J-2540000D01*
G01*
X295520000Y-82815000D02*
G75*
G03*
X292980000Y-85355000I1J-2540001D01*
G01*
%TO.C,SW21*%
X151730000Y-44815000D02*
X151730000Y-45196000D01*
X140300000Y-50784000D02*
X140300000Y-51165000D01*
X140300000Y-47355000D02*
X140300000Y-47736000D01*
X144185838Y-51165000D02*
X142459000Y-51165000D01*
X151730000Y-48244000D02*
X151730000Y-49260000D01*
X142840000Y-44815000D02*
X151730000Y-44815000D01*
X151730000Y-49260000D02*
X146650000Y-49260000D01*
X140681000Y-51165000D02*
X140300000Y-51165000D01*
X146650000Y-49259999D02*
G75*
G03*
X144185838Y-51183960I0J-2540000D01*
G01*
X142840000Y-44815000D02*
G75*
G03*
X140300000Y-47355000I1J-2540001D01*
G01*
%TO.C,SW6*%
X94730000Y-44815000D02*
X94730000Y-45196000D01*
X83300000Y-50784000D02*
X83300000Y-51165000D01*
X83300000Y-47355000D02*
X83300000Y-47736000D01*
X87185838Y-51165000D02*
X85459000Y-51165000D01*
X94730000Y-48244000D02*
X94730000Y-49260000D01*
X85840000Y-44815000D02*
X94730000Y-44815000D01*
X94730000Y-49260000D02*
X89650000Y-49260000D01*
X83681000Y-51165000D02*
X83300000Y-51165000D01*
X89650000Y-49259999D02*
G75*
G03*
X87185838Y-51183960I0J-2540000D01*
G01*
X85840000Y-44815000D02*
G75*
G03*
X83300000Y-47355000I1J-2540001D01*
G01*
%TO.C,SW12*%
X113730000Y-63815000D02*
X113730000Y-64196000D01*
X102300000Y-69784000D02*
X102300000Y-70165000D01*
X102300000Y-66355000D02*
X102300000Y-66736000D01*
X106185838Y-70165000D02*
X104459000Y-70165000D01*
X113730000Y-67244000D02*
X113730000Y-68260000D01*
X104840000Y-63815000D02*
X113730000Y-63815000D01*
X113730000Y-68260000D02*
X108650000Y-68260000D01*
X102681000Y-70165000D02*
X102300000Y-70165000D01*
X108650000Y-68259999D02*
G75*
G03*
X106185838Y-70183960I0J-2540000D01*
G01*
X104840000Y-63815000D02*
G75*
G03*
X102300000Y-66355000I1J-2540001D01*
G01*
%TO.C,SW55*%
X323410000Y-120815000D02*
X323410000Y-121196000D01*
X311980000Y-126784000D02*
X311980000Y-127165000D01*
X311980000Y-123355000D02*
X311980000Y-123736000D01*
X315865838Y-127165000D02*
X314139000Y-127165000D01*
X323410000Y-124244000D02*
X323410000Y-125260000D01*
X314520000Y-120815000D02*
X323410000Y-120815000D01*
X323410000Y-125260000D02*
X318330000Y-125260000D01*
X312361000Y-127165000D02*
X311980000Y-127165000D01*
X318330000Y-125259999D02*
G75*
G03*
X315865838Y-127183960I0J-2540000D01*
G01*
X314520000Y-120815000D02*
G75*
G03*
X311980000Y-123355000I1J-2540001D01*
G01*
%TO.C,SW43*%
X285410000Y-82815000D02*
X285410000Y-83196000D01*
X273980000Y-88784000D02*
X273980000Y-89165000D01*
X273980000Y-85355000D02*
X273980000Y-85736000D01*
X277865838Y-89165000D02*
X276139000Y-89165000D01*
X285410000Y-86244000D02*
X285410000Y-87260000D01*
X276520000Y-82815000D02*
X285410000Y-82815000D01*
X285410000Y-87260000D02*
X280330000Y-87260000D01*
X274361000Y-89165000D02*
X273980000Y-89165000D01*
X280330000Y-87259999D02*
G75*
G03*
X277865838Y-89183960I0J-2540000D01*
G01*
X276520000Y-82815000D02*
G75*
G03*
X273980000Y-85355000I1J-2540001D01*
G01*
%TO.C,SW40*%
X266410000Y-120815000D02*
X266410000Y-121196000D01*
X254980000Y-126784000D02*
X254980000Y-127165000D01*
X254980000Y-123355000D02*
X254980000Y-123736000D01*
X258865838Y-127165000D02*
X257139000Y-127165000D01*
X266410000Y-124244000D02*
X266410000Y-125260000D01*
X257520000Y-120815000D02*
X266410000Y-120815000D01*
X266410000Y-125260000D02*
X261330000Y-125260000D01*
X255361000Y-127165000D02*
X254980000Y-127165000D01*
X261330000Y-125259999D02*
G75*
G03*
X258865838Y-127183960I0J-2540000D01*
G01*
X257520000Y-120815000D02*
G75*
G03*
X254980000Y-123355000I1J-2540001D01*
G01*
%TO.C,SW58*%
X342330000Y-82815000D02*
X342330000Y-83196000D01*
X330900000Y-88784000D02*
X330900000Y-89165000D01*
X330900000Y-85355000D02*
X330900000Y-85736000D01*
X334785838Y-89165000D02*
X333059000Y-89165000D01*
X342330000Y-86244000D02*
X342330000Y-87260000D01*
X333440000Y-82815000D02*
X342330000Y-82815000D01*
X342330000Y-87260000D02*
X337250000Y-87260000D01*
X331281000Y-89165000D02*
X330900000Y-89165000D01*
X337250000Y-87259999D02*
G75*
G03*
X334785838Y-89183960I0J-2540000D01*
G01*
X333440000Y-82815000D02*
G75*
G03*
X330900000Y-85355000I1J-2540001D01*
G01*
%TO.C,SW3*%
X75730000Y-82815000D02*
X75730000Y-83196000D01*
X64300000Y-88784000D02*
X64300000Y-89165000D01*
X64300000Y-85355000D02*
X64300000Y-85736000D01*
X68185838Y-89165000D02*
X66459000Y-89165000D01*
X75730000Y-86244000D02*
X75730000Y-87260000D01*
X66840000Y-82815000D02*
X75730000Y-82815000D01*
X75730000Y-87260000D02*
X70650000Y-87260000D01*
X64681000Y-89165000D02*
X64300000Y-89165000D01*
X70650000Y-87259999D02*
G75*
G03*
X68185838Y-89183960I0J-2540000D01*
G01*
X66840000Y-82815000D02*
G75*
G03*
X64300000Y-85355000I1J-2540001D01*
G01*
%TO.C,SW52*%
X323410000Y-63815000D02*
X323410000Y-64196000D01*
X311980000Y-69784000D02*
X311980000Y-70165000D01*
X311980000Y-66355000D02*
X311980000Y-66736000D01*
X315865838Y-70165000D02*
X314139000Y-70165000D01*
X323410000Y-67244000D02*
X323410000Y-68260000D01*
X314520000Y-63815000D02*
X323410000Y-63815000D01*
X323410000Y-68260000D02*
X318330000Y-68260000D01*
X312361000Y-70165000D02*
X311980000Y-70165000D01*
X318330000Y-68259999D02*
G75*
G03*
X315865838Y-70183960I0J-2540000D01*
G01*
X314520000Y-63815000D02*
G75*
G03*
X311980000Y-66355000I1J-2540001D01*
G01*
%TO.C,SW14*%
X113730000Y-101815000D02*
X113730000Y-102196000D01*
X102300000Y-107784000D02*
X102300000Y-108165000D01*
X102300000Y-104355000D02*
X102300000Y-104736000D01*
X106185838Y-108165000D02*
X104459000Y-108165000D01*
X113730000Y-105244000D02*
X113730000Y-106260000D01*
X104840000Y-101815000D02*
X113730000Y-101815000D01*
X113730000Y-106260000D02*
X108650000Y-106260000D01*
X102681000Y-108165000D02*
X102300000Y-108165000D01*
X108650000Y-106259999D02*
G75*
G03*
X106185838Y-108183960I0J-2540000D01*
G01*
X104840000Y-101815000D02*
G75*
G03*
X102300000Y-104355000I1J-2540001D01*
G01*
%TO.C,SW33*%
X247410000Y-82815000D02*
X247410000Y-83196000D01*
X235980000Y-88784000D02*
X235980000Y-89165000D01*
X235980000Y-85355000D02*
X235980000Y-85736000D01*
X239865838Y-89165000D02*
X238139000Y-89165000D01*
X247410000Y-86244000D02*
X247410000Y-87260000D01*
X238520000Y-82815000D02*
X247410000Y-82815000D01*
X247410000Y-87260000D02*
X242330000Y-87260000D01*
X236361000Y-89165000D02*
X235980000Y-89165000D01*
X242330000Y-87259999D02*
G75*
G03*
X239865838Y-89183960I0J-2540000D01*
G01*
X238520000Y-82815000D02*
G75*
G03*
X235980000Y-85355000I1J-2540001D01*
G01*
%TO.C,SW46*%
X304410000Y-44815000D02*
X304410000Y-45196000D01*
X292980000Y-50784000D02*
X292980000Y-51165000D01*
X292980000Y-47355000D02*
X292980000Y-47736000D01*
X296865838Y-51165000D02*
X295139000Y-51165000D01*
X304410000Y-48244000D02*
X304410000Y-49260000D01*
X295520000Y-44815000D02*
X304410000Y-44815000D01*
X304410000Y-49260000D02*
X299330000Y-49260000D01*
X293361000Y-51165000D02*
X292980000Y-51165000D01*
X299330000Y-49259999D02*
G75*
G03*
X296865838Y-51183960I0J-2540000D01*
G01*
X295520000Y-44815000D02*
G75*
G03*
X292980000Y-47355000I1J-2540001D01*
G01*
%TO.C,SW4*%
X75730000Y-101815000D02*
X75730000Y-102196000D01*
X64300000Y-107784000D02*
X64300000Y-108165000D01*
X64300000Y-104355000D02*
X64300000Y-104736000D01*
X68185838Y-108165000D02*
X66459000Y-108165000D01*
X75730000Y-105244000D02*
X75730000Y-106260000D01*
X66840000Y-101815000D02*
X75730000Y-101815000D01*
X75730000Y-106260000D02*
X70650000Y-106260000D01*
X64681000Y-108165000D02*
X64300000Y-108165000D01*
X70650000Y-106259999D02*
G75*
G03*
X68185838Y-108183960I0J-2540000D01*
G01*
X66840000Y-101815000D02*
G75*
G03*
X64300000Y-104355000I1J-2540001D01*
G01*
%TO.C,SW18*%
X132730000Y-82815000D02*
X132730000Y-83196000D01*
X121300000Y-88784000D02*
X121300000Y-89165000D01*
X121300000Y-85355000D02*
X121300000Y-85736000D01*
X125185838Y-89165000D02*
X123459000Y-89165000D01*
X132730000Y-86244000D02*
X132730000Y-87260000D01*
X123840000Y-82815000D02*
X132730000Y-82815000D01*
X132730000Y-87260000D02*
X127650000Y-87260000D01*
X121681000Y-89165000D02*
X121300000Y-89165000D01*
X127650000Y-87259999D02*
G75*
G03*
X125185838Y-89183960I0J-2540000D01*
G01*
X123840000Y-82815000D02*
G75*
G03*
X121300000Y-85355000I1J-2540001D01*
G01*
%TO.C,SW37*%
X266410000Y-63815000D02*
X266410000Y-64196000D01*
X254980000Y-69784000D02*
X254980000Y-70165000D01*
X254980000Y-66355000D02*
X254980000Y-66736000D01*
X258865838Y-70165000D02*
X257139000Y-70165000D01*
X266410000Y-67244000D02*
X266410000Y-68260000D01*
X257520000Y-63815000D02*
X266410000Y-63815000D01*
X266410000Y-68260000D02*
X261330000Y-68260000D01*
X255361000Y-70165000D02*
X254980000Y-70165000D01*
X261330000Y-68259999D02*
G75*
G03*
X258865838Y-70183960I0J-2540000D01*
G01*
X257520000Y-63815000D02*
G75*
G03*
X254980000Y-66355000I1J-2540001D01*
G01*
%TO.C,SW53*%
X323410000Y-82815000D02*
X323410000Y-83196000D01*
X311980000Y-88784000D02*
X311980000Y-89165000D01*
X311980000Y-85355000D02*
X311980000Y-85736000D01*
X315865838Y-89165000D02*
X314139000Y-89165000D01*
X323410000Y-86244000D02*
X323410000Y-87260000D01*
X314520000Y-82815000D02*
X323410000Y-82815000D01*
X323410000Y-87260000D02*
X318330000Y-87260000D01*
X312361000Y-89165000D02*
X311980000Y-89165000D01*
X318330000Y-87259999D02*
G75*
G03*
X315865838Y-89183960I0J-2540000D01*
G01*
X314520000Y-82815000D02*
G75*
G03*
X311980000Y-85355000I1J-2540001D01*
G01*
%TO.C,SW54*%
X323410000Y-101815000D02*
X323410000Y-102196000D01*
X311980000Y-107784000D02*
X311980000Y-108165000D01*
X311980000Y-104355000D02*
X311980000Y-104736000D01*
X315865838Y-108165000D02*
X314139000Y-108165000D01*
X323410000Y-105244000D02*
X323410000Y-106260000D01*
X314520000Y-101815000D02*
X323410000Y-101815000D01*
X323410000Y-106260000D02*
X318330000Y-106260000D01*
X312361000Y-108165000D02*
X311980000Y-108165000D01*
X318330000Y-106259999D02*
G75*
G03*
X315865838Y-108183960I0J-2540000D01*
G01*
X314520000Y-101815000D02*
G75*
G03*
X311980000Y-104355000I1J-2540001D01*
G01*
%TO.C,SW50*%
X304410000Y-120815000D02*
X304410000Y-121196000D01*
X292980000Y-126784000D02*
X292980000Y-127165000D01*
X292980000Y-123355000D02*
X292980000Y-123736000D01*
X296865838Y-127165000D02*
X295139000Y-127165000D01*
X304410000Y-124244000D02*
X304410000Y-125260000D01*
X295520000Y-120815000D02*
X304410000Y-120815000D01*
X304410000Y-125260000D02*
X299330000Y-125260000D01*
X293361000Y-127165000D02*
X292980000Y-127165000D01*
X299330000Y-125259999D02*
G75*
G03*
X296865838Y-127183960I0J-2540000D01*
G01*
X295520000Y-120815000D02*
G75*
G03*
X292980000Y-123355000I1J-2540001D01*
G01*
%TO.C,SW25*%
X151730000Y-120815000D02*
X151730000Y-121196000D01*
X140300000Y-126784000D02*
X140300000Y-127165000D01*
X140300000Y-123355000D02*
X140300000Y-123736000D01*
X144185838Y-127165000D02*
X142459000Y-127165000D01*
X151730000Y-124244000D02*
X151730000Y-125260000D01*
X142840000Y-120815000D02*
X151730000Y-120815000D01*
X151730000Y-125260000D02*
X146650000Y-125260000D01*
X140681000Y-127165000D02*
X140300000Y-127165000D01*
X146650000Y-125259999D02*
G75*
G03*
X144185838Y-127183960I0J-2540000D01*
G01*
X142840000Y-120815000D02*
G75*
G03*
X140300000Y-123355000I1J-2540001D01*
G01*
%TO.C,SW36*%
X266410000Y-44815000D02*
X266410000Y-45196000D01*
X254980000Y-50784000D02*
X254980000Y-51165000D01*
X254980000Y-47355000D02*
X254980000Y-47736000D01*
X258865838Y-51165000D02*
X257139000Y-51165000D01*
X266410000Y-48244000D02*
X266410000Y-49260000D01*
X257520000Y-44815000D02*
X266410000Y-44815000D01*
X266410000Y-49260000D02*
X261330000Y-49260000D01*
X255361000Y-51165000D02*
X254980000Y-51165000D01*
X261330000Y-49259999D02*
G75*
G03*
X258865838Y-51183960I0J-2540000D01*
G01*
X257520000Y-44815000D02*
G75*
G03*
X254980000Y-47355000I1J-2540001D01*
G01*
%TO.C,SW26*%
X170730000Y-44815000D02*
X170730000Y-45196000D01*
X159300000Y-50784000D02*
X159300000Y-51165000D01*
X159300000Y-47355000D02*
X159300000Y-47736000D01*
X163185838Y-51165000D02*
X161459000Y-51165000D01*
X170730000Y-48244000D02*
X170730000Y-49260000D01*
X161840000Y-44815000D02*
X170730000Y-44815000D01*
X170730000Y-49260000D02*
X165650000Y-49260000D01*
X159681000Y-51165000D02*
X159300000Y-51165000D01*
X165650000Y-49259999D02*
G75*
G03*
X163185838Y-51183960I0J-2540000D01*
G01*
X161840000Y-44815000D02*
G75*
G03*
X159300000Y-47355000I1J-2540001D01*
G01*
%TO.C,SW34*%
X247410000Y-101815000D02*
X247410000Y-102196000D01*
X235980000Y-107784000D02*
X235980000Y-108165000D01*
X235980000Y-104355000D02*
X235980000Y-104736000D01*
X239865838Y-108165000D02*
X238139000Y-108165000D01*
X247410000Y-105244000D02*
X247410000Y-106260000D01*
X238520000Y-101815000D02*
X247410000Y-101815000D01*
X247410000Y-106260000D02*
X242330000Y-106260000D01*
X236361000Y-108165000D02*
X235980000Y-108165000D01*
X242330000Y-106259999D02*
G75*
G03*
X239865838Y-108183960I0J-2540000D01*
G01*
X238520000Y-101815000D02*
G75*
G03*
X235980000Y-104355000I1J-2540001D01*
G01*
%TO.C,SW59*%
X342330000Y-101815000D02*
X342330000Y-102196000D01*
X330900000Y-107784000D02*
X330900000Y-108165000D01*
X330900000Y-104355000D02*
X330900000Y-104736000D01*
X334785838Y-108165000D02*
X333059000Y-108165000D01*
X342330000Y-105244000D02*
X342330000Y-106260000D01*
X333440000Y-101815000D02*
X342330000Y-101815000D01*
X342330000Y-106260000D02*
X337250000Y-106260000D01*
X331281000Y-108165000D02*
X330900000Y-108165000D01*
X337250000Y-106259999D02*
G75*
G03*
X334785838Y-108183960I0J-2540000D01*
G01*
X333440000Y-101815000D02*
G75*
G03*
X330900000Y-104355000I1J-2540001D01*
G01*
%TO.C,SW8*%
X94730000Y-82815000D02*
X94730000Y-83196000D01*
X83300000Y-88784000D02*
X83300000Y-89165000D01*
X83300000Y-85355000D02*
X83300000Y-85736000D01*
X87185838Y-89165000D02*
X85459000Y-89165000D01*
X94730000Y-86244000D02*
X94730000Y-87260000D01*
X85840000Y-82815000D02*
X94730000Y-82815000D01*
X94730000Y-87260000D02*
X89650000Y-87260000D01*
X83681000Y-89165000D02*
X83300000Y-89165000D01*
X89650000Y-87259999D02*
G75*
G03*
X87185838Y-89183960I0J-2540000D01*
G01*
X85840000Y-82815000D02*
G75*
G03*
X83300000Y-85355000I1J-2540001D01*
G01*
%TO.C,SW56*%
X342330000Y-44815000D02*
X342330000Y-45196000D01*
X330900000Y-50784000D02*
X330900000Y-51165000D01*
X330900000Y-47355000D02*
X330900000Y-47736000D01*
X334785838Y-51165000D02*
X333059000Y-51165000D01*
X342330000Y-48244000D02*
X342330000Y-49260000D01*
X333440000Y-44815000D02*
X342330000Y-44815000D01*
X342330000Y-49260000D02*
X337250000Y-49260000D01*
X331281000Y-51165000D02*
X330900000Y-51165000D01*
X337250000Y-49259999D02*
G75*
G03*
X334785838Y-51183960I0J-2540000D01*
G01*
X333440000Y-44815000D02*
G75*
G03*
X330900000Y-47355000I1J-2540001D01*
G01*
%TO.C,SW45*%
X285410000Y-120815000D02*
X285410000Y-121196000D01*
X273980000Y-126784000D02*
X273980000Y-127165000D01*
X273980000Y-123355000D02*
X273980000Y-123736000D01*
X277865838Y-127165000D02*
X276139000Y-127165000D01*
X285410000Y-124244000D02*
X285410000Y-125260000D01*
X276520000Y-120815000D02*
X285410000Y-120815000D01*
X285410000Y-125260000D02*
X280330000Y-125260000D01*
X274361000Y-127165000D02*
X273980000Y-127165000D01*
X280330000Y-125259999D02*
G75*
G03*
X277865838Y-127183960I0J-2540000D01*
G01*
X276520000Y-120815000D02*
G75*
G03*
X273980000Y-123355000I1J-2540001D01*
G01*
%TO.C,SW44*%
X285410000Y-101815000D02*
X285410000Y-102196000D01*
X273980000Y-107784000D02*
X273980000Y-108165000D01*
X273980000Y-104355000D02*
X273980000Y-104736000D01*
X277865838Y-108165000D02*
X276139000Y-108165000D01*
X285410000Y-105244000D02*
X285410000Y-106260000D01*
X276520000Y-101815000D02*
X285410000Y-101815000D01*
X285410000Y-106260000D02*
X280330000Y-106260000D01*
X274361000Y-108165000D02*
X273980000Y-108165000D01*
X280330000Y-106259999D02*
G75*
G03*
X277865838Y-108183960I0J-2540000D01*
G01*
X276520000Y-101815000D02*
G75*
G03*
X273980000Y-104355000I1J-2540001D01*
G01*
%TO.C,SW13*%
X113730000Y-82815000D02*
X113730000Y-83196000D01*
X102300000Y-88784000D02*
X102300000Y-89165000D01*
X102300000Y-85355000D02*
X102300000Y-85736000D01*
X106185838Y-89165000D02*
X104459000Y-89165000D01*
X113730000Y-86244000D02*
X113730000Y-87260000D01*
X104840000Y-82815000D02*
X113730000Y-82815000D01*
X113730000Y-87260000D02*
X108650000Y-87260000D01*
X102681000Y-89165000D02*
X102300000Y-89165000D01*
X108650000Y-87259999D02*
G75*
G03*
X106185838Y-89183960I0J-2540000D01*
G01*
X104840000Y-82815000D02*
G75*
G03*
X102300000Y-85355000I1J-2540001D01*
G01*
%TO.C,SW41*%
X285410000Y-44815000D02*
X285410000Y-45196000D01*
X273980000Y-50784000D02*
X273980000Y-51165000D01*
X273980000Y-47355000D02*
X273980000Y-47736000D01*
X277865838Y-51165000D02*
X276139000Y-51165000D01*
X285410000Y-48244000D02*
X285410000Y-49260000D01*
X276520000Y-44815000D02*
X285410000Y-44815000D01*
X285410000Y-49260000D02*
X280330000Y-49260000D01*
X274361000Y-51165000D02*
X273980000Y-51165000D01*
X280330000Y-49259999D02*
G75*
G03*
X277865838Y-51183960I0J-2540000D01*
G01*
X276520000Y-44815000D02*
G75*
G03*
X273980000Y-47355000I1J-2540001D01*
G01*
%TO.C,SW23*%
X151730000Y-82815000D02*
X151730000Y-83196000D01*
X140300000Y-88784000D02*
X140300000Y-89165000D01*
X140300000Y-85355000D02*
X140300000Y-85736000D01*
X144185838Y-89165000D02*
X142459000Y-89165000D01*
X151730000Y-86244000D02*
X151730000Y-87260000D01*
X142840000Y-82815000D02*
X151730000Y-82815000D01*
X151730000Y-87260000D02*
X146650000Y-87260000D01*
X140681000Y-89165000D02*
X140300000Y-89165000D01*
X146650000Y-87259999D02*
G75*
G03*
X144185838Y-89183960I0J-2540000D01*
G01*
X142840000Y-82815000D02*
G75*
G03*
X140300000Y-85355000I1J-2540001D01*
G01*
%TO.C,SW17*%
X132730000Y-63815000D02*
X132730000Y-64196000D01*
X121300000Y-69784000D02*
X121300000Y-70165000D01*
X121300000Y-66355000D02*
X121300000Y-66736000D01*
X125185838Y-70165000D02*
X123459000Y-70165000D01*
X132730000Y-67244000D02*
X132730000Y-68260000D01*
X123840000Y-63815000D02*
X132730000Y-63815000D01*
X132730000Y-68260000D02*
X127650000Y-68260000D01*
X121681000Y-70165000D02*
X121300000Y-70165000D01*
X127650000Y-68259999D02*
G75*
G03*
X125185838Y-70183960I0J-2540000D01*
G01*
X123840000Y-63815000D02*
G75*
G03*
X121300000Y-66355000I1J-2540001D01*
G01*
%TO.C,SW47*%
X304410000Y-63815000D02*
X304410000Y-64196000D01*
X292980000Y-69784000D02*
X292980000Y-70165000D01*
X292980000Y-66355000D02*
X292980000Y-66736000D01*
X296865838Y-70165000D02*
X295139000Y-70165000D01*
X304410000Y-67244000D02*
X304410000Y-68260000D01*
X295520000Y-63815000D02*
X304410000Y-63815000D01*
X304410000Y-68260000D02*
X299330000Y-68260000D01*
X293361000Y-70165000D02*
X292980000Y-70165000D01*
X299330000Y-68259999D02*
G75*
G03*
X296865838Y-70183960I0J-2540000D01*
G01*
X295520000Y-63815000D02*
G75*
G03*
X292980000Y-66355000I1J-2540001D01*
G01*
%TO.C,SW15*%
X113730000Y-120815000D02*
X113730000Y-121196000D01*
X102300000Y-126784000D02*
X102300000Y-127165000D01*
X102300000Y-123355000D02*
X102300000Y-123736000D01*
X106185838Y-127165000D02*
X104459000Y-127165000D01*
X113730000Y-124244000D02*
X113730000Y-125260000D01*
X104840000Y-120815000D02*
X113730000Y-120815000D01*
X113730000Y-125260000D02*
X108650000Y-125260000D01*
X102681000Y-127165000D02*
X102300000Y-127165000D01*
X108650000Y-125259999D02*
G75*
G03*
X106185838Y-127183960I0J-2540000D01*
G01*
X104840000Y-120815000D02*
G75*
G03*
X102300000Y-123355000I1J-2540001D01*
G01*
%TO.C,SW11*%
X113730000Y-44815000D02*
X113730000Y-45196000D01*
X102300000Y-50784000D02*
X102300000Y-51165000D01*
X102300000Y-47355000D02*
X102300000Y-47736000D01*
X106185838Y-51165000D02*
X104459000Y-51165000D01*
X113730000Y-48244000D02*
X113730000Y-49260000D01*
X104840000Y-44815000D02*
X113730000Y-44815000D01*
X113730000Y-49260000D02*
X108650000Y-49260000D01*
X102681000Y-51165000D02*
X102300000Y-51165000D01*
X108650000Y-49259999D02*
G75*
G03*
X106185838Y-51183960I0J-2540000D01*
G01*
X104840000Y-44815000D02*
G75*
G03*
X102300000Y-47355000I1J-2540001D01*
G01*
%TO.C,SW38*%
X266410000Y-82815000D02*
X266410000Y-83196000D01*
X254980000Y-88784000D02*
X254980000Y-89165000D01*
X254980000Y-85355000D02*
X254980000Y-85736000D01*
X258865838Y-89165000D02*
X257139000Y-89165000D01*
X266410000Y-86244000D02*
X266410000Y-87260000D01*
X257520000Y-82815000D02*
X266410000Y-82815000D01*
X266410000Y-87260000D02*
X261330000Y-87260000D01*
X255361000Y-89165000D02*
X254980000Y-89165000D01*
X261330000Y-87259999D02*
G75*
G03*
X258865838Y-89183960I0J-2540000D01*
G01*
X257520000Y-82815000D02*
G75*
G03*
X254980000Y-85355000I1J-2540001D01*
G01*
%TO.C,SW19*%
X132730000Y-101815000D02*
X132730000Y-102196000D01*
X121300000Y-107784000D02*
X121300000Y-108165000D01*
X121300000Y-104355000D02*
X121300000Y-104736000D01*
X125185838Y-108165000D02*
X123459000Y-108165000D01*
X132730000Y-105244000D02*
X132730000Y-106260000D01*
X123840000Y-101815000D02*
X132730000Y-101815000D01*
X132730000Y-106260000D02*
X127650000Y-106260000D01*
X121681000Y-108165000D02*
X121300000Y-108165000D01*
X127650000Y-106259999D02*
G75*
G03*
X125185838Y-108183960I0J-2540000D01*
G01*
X123840000Y-101815000D02*
G75*
G03*
X121300000Y-104355000I1J-2540001D01*
G01*
%TO.C,SW28*%
X170730000Y-82815000D02*
X170730000Y-83196000D01*
X159300000Y-88784000D02*
X159300000Y-89165000D01*
X159300000Y-85355000D02*
X159300000Y-85736000D01*
X163185838Y-89165000D02*
X161459000Y-89165000D01*
X170730000Y-86244000D02*
X170730000Y-87260000D01*
X161840000Y-82815000D02*
X170730000Y-82815000D01*
X170730000Y-87260000D02*
X165650000Y-87260000D01*
X159681000Y-89165000D02*
X159300000Y-89165000D01*
X165650000Y-87259999D02*
G75*
G03*
X163185838Y-89183960I0J-2540000D01*
G01*
X161840000Y-82815000D02*
G75*
G03*
X159300000Y-85355000I1J-2540001D01*
G01*
%TO.C,SW35*%
X247410000Y-120815000D02*
X247410000Y-121196000D01*
X235980000Y-126784000D02*
X235980000Y-127165000D01*
X235980000Y-123355000D02*
X235980000Y-123736000D01*
X239865838Y-127165000D02*
X238139000Y-127165000D01*
X247410000Y-124244000D02*
X247410000Y-125260000D01*
X238520000Y-120815000D02*
X247410000Y-120815000D01*
X247410000Y-125260000D02*
X242330000Y-125260000D01*
X236361000Y-127165000D02*
X235980000Y-127165000D01*
X242330000Y-125259999D02*
G75*
G03*
X239865838Y-127183960I0J-2540000D01*
G01*
X238520000Y-120815000D02*
G75*
G03*
X235980000Y-123355000I1J-2540001D01*
G01*
%TO.C,SW9*%
X94730000Y-101815000D02*
X94730000Y-102196000D01*
X83300000Y-107784000D02*
X83300000Y-108165000D01*
X83300000Y-104355000D02*
X83300000Y-104736000D01*
X87185838Y-108165000D02*
X85459000Y-108165000D01*
X94730000Y-105244000D02*
X94730000Y-106260000D01*
X85840000Y-101815000D02*
X94730000Y-101815000D01*
X94730000Y-106260000D02*
X89650000Y-106260000D01*
X83681000Y-108165000D02*
X83300000Y-108165000D01*
X89650000Y-106259999D02*
G75*
G03*
X87185838Y-108183960I0J-2540000D01*
G01*
X85840000Y-101815000D02*
G75*
G03*
X83300000Y-104355000I1J-2540001D01*
G01*
%TO.C,SW16*%
X132730000Y-44815000D02*
X132730000Y-45196000D01*
X121300000Y-50784000D02*
X121300000Y-51165000D01*
X121300000Y-47355000D02*
X121300000Y-47736000D01*
X125185838Y-51165000D02*
X123459000Y-51165000D01*
X132730000Y-48244000D02*
X132730000Y-49260000D01*
X123840000Y-44815000D02*
X132730000Y-44815000D01*
X132730000Y-49260000D02*
X127650000Y-49260000D01*
X121681000Y-51165000D02*
X121300000Y-51165000D01*
X127650000Y-49259999D02*
G75*
G03*
X125185838Y-51183960I0J-2540000D01*
G01*
X123840000Y-44815000D02*
G75*
G03*
X121300000Y-47355000I1J-2540001D01*
G01*
%TO.C,SW51*%
X323410000Y-44815000D02*
X323410000Y-45196000D01*
X311980000Y-50784000D02*
X311980000Y-51165000D01*
X311980000Y-47355000D02*
X311980000Y-47736000D01*
X315865838Y-51165000D02*
X314139000Y-51165000D01*
X323410000Y-48244000D02*
X323410000Y-49260000D01*
X314520000Y-44815000D02*
X323410000Y-44815000D01*
X323410000Y-49260000D02*
X318330000Y-49260000D01*
X312361000Y-51165000D02*
X311980000Y-51165000D01*
X318330000Y-49259999D02*
G75*
G03*
X315865838Y-51183960I0J-2540000D01*
G01*
X314520000Y-44815000D02*
G75*
G03*
X311980000Y-47355000I1J-2540001D01*
G01*
%TD*%
M02*
