M48
; DRILL file {KiCad (6.0.10)} date Sun Jul 30 09:02:56 2023
; FORMAT={-:-/ absolute / metric / decimal}
; #@! TF.CreationDate,2023-07-30T09:02:56-04:00
; #@! TF.GenerationSoftware,Kicad,Pcbnew,(6.0.10)
; #@! TF.FileFunction,NonPlated,1,2,NPTH
FMAT,2
METRIC
; #@! TA.AperFunction,NonPlated,NPTH,ComponentDrill
T1C1.100
; #@! TA.AperFunction,NonPlated,NPTH,ComponentDrill
T2C1.598
; #@! TA.AperFunction,NonPlated,NPTH,ComponentDrill
T3C1.702
; #@! TA.AperFunction,NonPlated,NPTH,ComponentDrill
T4C2.700
; #@! TA.AperFunction,NonPlated,NPTH,ComponentDrill
T5C3.000
; #@! TA.AperFunction,NonPlated,NPTH,ComponentDrill
T6C3.988
%
G90
G05
T1
X201.0Y-85.945
T2
X221.0Y-85.945
T3
X65.57Y-51.8
X65.57Y-70.8
X65.57Y-89.8
X65.57Y-108.8
X65.57Y-127.8
X75.73Y-51.8
X75.73Y-70.8
X75.73Y-89.8
X75.73Y-108.8
X75.73Y-127.8
X84.57Y-51.8
X84.57Y-70.8
X84.57Y-89.8
X84.57Y-108.8
X84.57Y-127.8
X94.73Y-51.8
X94.73Y-70.8
X94.73Y-89.8
X94.73Y-108.8
X94.73Y-127.8
X103.57Y-51.8
X103.57Y-70.8
X103.57Y-89.8
X103.57Y-108.8
X103.57Y-127.8
X113.73Y-51.8
X113.73Y-70.8
X113.73Y-89.8
X113.73Y-108.8
X113.73Y-127.8
X122.57Y-51.8
X122.57Y-70.8
X122.57Y-89.8
X122.57Y-108.8
X122.57Y-127.8
X132.73Y-51.8
X132.73Y-70.8
X132.73Y-89.8
X132.73Y-108.8
X132.73Y-127.8
X141.57Y-51.8
X141.57Y-70.8
X141.57Y-89.8
X141.57Y-108.8
X141.57Y-127.8
X151.73Y-51.8
X151.73Y-70.8
X151.73Y-89.8
X151.73Y-108.8
X151.73Y-127.8
X160.57Y-51.8
X160.57Y-70.8
X160.57Y-89.8
X160.57Y-108.8
X160.57Y-127.8
X170.73Y-51.8
X170.73Y-70.8
X170.73Y-89.8
X170.73Y-108.8
X170.73Y-127.8
X237.25Y-51.8
X237.25Y-70.8
X237.25Y-89.8
X237.25Y-108.8
X237.25Y-127.8
X247.41Y-51.8
X247.41Y-70.8
X247.41Y-89.8
X247.41Y-108.8
X247.41Y-127.8
X256.25Y-51.8
X256.25Y-70.8
X256.25Y-89.8
X256.25Y-108.8
X256.25Y-127.8
X266.41Y-51.8
X266.41Y-70.8
X266.41Y-89.8
X266.41Y-108.8
X266.41Y-127.8
X275.25Y-51.8
X275.25Y-70.8
X275.25Y-89.8
X275.25Y-108.8
X275.25Y-127.8
X285.41Y-51.8
X285.41Y-70.8
X285.41Y-89.8
X285.41Y-108.8
X285.41Y-127.8
X294.25Y-51.8
X294.25Y-70.8
X294.25Y-89.8
X294.25Y-108.8
X294.25Y-127.8
X304.41Y-51.8
X304.41Y-70.8
X304.41Y-89.8
X304.41Y-108.8
X304.41Y-127.8
X313.25Y-51.8
X313.25Y-70.8
X313.25Y-89.8
X313.25Y-108.8
X313.25Y-127.8
X323.41Y-51.8
X323.41Y-70.8
X323.41Y-89.8
X323.41Y-108.8
X323.41Y-127.8
X332.17Y-51.8
X332.17Y-70.8
X332.17Y-89.8
X332.17Y-108.8
X332.17Y-127.8
X342.33Y-51.8
X342.33Y-70.8
X342.33Y-89.8
X342.33Y-108.8
X342.33Y-127.8
T4
X179.0Y-50.3
X179.0Y-108.3
X228.5Y-50.3
X228.5Y-108.3
T5
X66.84Y-49.26
X66.84Y-68.26
X66.84Y-87.26
X66.84Y-106.26
X66.84Y-125.26
X73.19Y-46.72
X73.19Y-65.72
X73.19Y-84.72
X73.19Y-103.72
X73.19Y-122.72
X85.84Y-49.26
X85.84Y-68.26
X85.84Y-87.26
X85.84Y-106.26
X85.84Y-125.26
X92.19Y-46.72
X92.19Y-65.72
X92.19Y-84.72
X92.19Y-103.72
X92.19Y-122.72
X104.84Y-49.26
X104.84Y-68.26
X104.84Y-87.26
X104.84Y-106.26
X104.84Y-125.26
X111.19Y-46.72
X111.19Y-65.72
X111.19Y-84.72
X111.19Y-103.72
X111.19Y-122.72
X123.84Y-49.26
X123.84Y-68.26
X123.84Y-87.26
X123.84Y-106.26
X123.84Y-125.26
X130.19Y-46.72
X130.19Y-65.72
X130.19Y-84.72
X130.19Y-103.72
X130.19Y-122.72
X142.84Y-49.26
X142.84Y-68.26
X142.84Y-87.26
X142.84Y-106.26
X142.84Y-125.26
X149.19Y-46.72
X149.19Y-65.72
X149.19Y-84.72
X149.19Y-103.72
X149.19Y-122.72
X161.84Y-49.26
X161.84Y-68.26
X161.84Y-87.26
X161.84Y-106.26
X161.84Y-125.26
X168.19Y-46.72
X168.19Y-65.72
X168.19Y-84.72
X168.19Y-103.72
X168.19Y-122.72
X238.52Y-49.26
X238.52Y-68.26
X238.52Y-87.26
X238.52Y-106.26
X238.52Y-125.26
X244.87Y-46.72
X244.87Y-65.72
X244.87Y-84.72
X244.87Y-103.72
X244.87Y-122.72
X257.52Y-49.26
X257.52Y-68.26
X257.52Y-87.26
X257.52Y-106.26
X257.52Y-125.26
X263.87Y-46.72
X263.87Y-65.72
X263.87Y-84.72
X263.87Y-103.72
X263.87Y-122.72
X276.52Y-49.26
X276.52Y-68.26
X276.52Y-87.26
X276.52Y-106.26
X276.52Y-125.26
X282.87Y-46.72
X282.87Y-65.72
X282.87Y-84.72
X282.87Y-103.72
X282.87Y-122.72
X295.52Y-49.26
X295.52Y-68.26
X295.52Y-87.26
X295.52Y-106.26
X295.52Y-125.26
X301.87Y-46.72
X301.87Y-65.72
X301.87Y-84.72
X301.87Y-103.72
X301.87Y-122.72
X314.52Y-49.26
X314.52Y-68.26
X314.52Y-87.26
X314.52Y-106.26
X314.52Y-125.26
X320.87Y-46.72
X320.87Y-65.72
X320.87Y-84.72
X320.87Y-103.72
X320.87Y-122.72
X333.44Y-49.26
X333.44Y-68.26
X333.44Y-87.26
X333.44Y-106.26
X333.44Y-125.26
X339.79Y-46.72
X339.79Y-65.72
X339.79Y-84.72
X339.79Y-103.72
X339.79Y-122.72
T6
X70.65Y-51.8
X70.65Y-70.8
X70.65Y-89.8
X70.65Y-108.8
X70.65Y-127.8
X89.65Y-51.8
X89.65Y-70.8
X89.65Y-89.8
X89.65Y-108.8
X89.65Y-127.8
X108.65Y-51.8
X108.65Y-70.8
X108.65Y-89.8
X108.65Y-108.8
X108.65Y-127.8
X127.65Y-51.8
X127.65Y-70.8
X127.65Y-89.8
X127.65Y-108.8
X127.65Y-127.8
X146.65Y-51.8
X146.65Y-70.8
X146.65Y-89.8
X146.65Y-108.8
X146.65Y-127.8
X165.65Y-51.8
X165.65Y-70.8
X165.65Y-89.8
X165.65Y-108.8
X165.65Y-127.8
X242.33Y-51.8
X242.33Y-70.8
X242.33Y-89.8
X242.33Y-108.8
X242.33Y-127.8
X261.33Y-51.8
X261.33Y-70.8
X261.33Y-89.8
X261.33Y-108.8
X261.33Y-127.8
X280.33Y-51.8
X280.33Y-70.8
X280.33Y-89.8
X280.33Y-108.8
X280.33Y-127.8
X299.33Y-51.8
X299.33Y-70.8
X299.33Y-89.8
X299.33Y-108.8
X299.33Y-127.8
X318.33Y-51.8
X318.33Y-70.8
X318.33Y-89.8
X318.33Y-108.8
X318.33Y-127.8
X337.25Y-51.8
X337.25Y-70.8
X337.25Y-89.8
X337.25Y-108.8
X337.25Y-127.8
T0
M30
